<svg xmlns="http://www.w3.org/2000/svg" width="78.587" height="32.001" viewBox="0 0 78.587 32.001"><g transform="translate(-88.913 -197.999)"><path d="M-15676.172-8210.733a2.84,2.84,0,0,1-1.835-1.94,6.108,6.108,0,0,1-.216-1.815c-.3-5.794-.276-10.211-.256-15.32,0-.725,0-1.464.008-2.224a14.276,14.276,0,0,1-1.9.287c-.256.023-.508.039-.744.039a3.507,3.507,0,0,1-3.854-3.255,4.014,4.014,0,0,1,.976-3.24,5.778,5.778,0,0,1,2.638-1.566c.653-.217,1.318-.461,1.96-.693,1.071-.39,2.177-.795,3.3-1.117l.087-.021c.106-.023.217-.055.339-.09a6.237,6.237,0,0,1,.752-.174,5.508,5.508,0,0,1,1.231-.138,3.357,3.357,0,0,1,3.236,1.721l.02.039.016.039a10.34,10.34,0,0,1,.382,4.016c-.008.311-.02.61-.02.851v19.348c0,.161.008.342.016.539a8.467,8.467,0,0,1-.095,1.987,3.562,3.562,0,0,1-1.4,2.268,4.445,4.445,0,0,1-2.681.787A5.853,5.853,0,0,1-15676.172-8210.733Z" transform="translate(15773.912 8440.002)" fill="#fff"/><path d="M-15683.043-8210.749a2.292,2.292,0,0,1-1.661-1.543,3.859,3.859,0,0,1-.106-1.449c.008-.13.017-.252.017-.354a5.93,5.93,0,0,1,1.605-3.936,19.1,19.1,0,0,1,2.807-2.508c.327-.256.634-.5.913-.729.771-.681,1.618-1.346,2.437-1.991.693-.544,1.406-1.106,2.048-1.662l.023-.016c3.857-3.2,4.534-4.519,4.534-6.109a2.606,2.606,0,0,0-.76-2,3.03,3.03,0,0,0-2.105-.709,4.058,4.058,0,0,0-3.334,1.642c-.091.165-.186.351-.284.543a9.027,9.027,0,0,1-.692,1.232,3.845,3.845,0,0,1-3.26,1.878,4.118,4.118,0,0,1-3.007-1.354,4.2,4.2,0,0,1-1.118-3.216l0-.016a10.537,10.537,0,0,1,3.468-6.224,13.163,13.163,0,0,1,8.042-2.732,10.611,10.611,0,0,1,3.213.473,11.256,11.256,0,0,1,5.641,3.642,10.2,10.2,0,0,1,2.078,6.487,11.273,11.273,0,0,1-1.555,6.164,22.511,22.511,0,0,1-5.255,5.5c-.508.434-1.079.905-1.725,1.429.236,0,.473-.012.721-.016.448-.016.913-.027,1.378-.027.539,0,1.012.016,1.444.056.11.008.244.012.421.012h.37c.138,0,.284,0,.43,0a4.587,4.587,0,0,1,3.129.865,3.887,3.887,0,0,1,1.177,2.771,4.2,4.2,0,0,1-.881,2.944,3.518,3.518,0,0,1-2.744,1.087c-.221,0-.421-.008-.622-.016-.161-.008-.314-.016-.448-.016h-14.25c-.1,0-.24.008-.386.016-.193.012-.406.027-.63.027A3.527,3.527,0,0,1-15683.043-8210.749Z" transform="translate(15798.938 8440)" fill="#fff"/><path d="M-15683.324-8213.267a5.355,5.355,0,0,1-1.587-4.642,3.41,3.41,0,0,1,2.308-2.531,4.453,4.453,0,0,1,1.46-.252,7.243,7.243,0,0,1,3.626,1.279c.153.091.3.178.44.256l.047.028a5.368,5.368,0,0,0,2.783.886,3.882,3.882,0,0,0,2.02-.575,1.653,1.653,0,0,0,.925-1.433,2,2,0,0,0-1.066-1.646l-.012-.008a7.365,7.365,0,0,0-2.477-.653c-1.582-.24-3.373-.516-4.684-1.988l-.017-.016c-.629-.729-1.479-2.279-.121-4.52a15.632,15.632,0,0,1,2.555-2.913c.338-.326.657-.634.854-.857l.032-.036.035-.031q.614-.62,1-1.043h-2.488c-.2,0-.429,0-.673.012-.287,0-.61.012-.941.012a6.9,6.9,0,0,1-4.507-1.2l-.02-.02a3.256,3.256,0,0,1-1.027-2.579v-.051l0-.056a3.772,3.772,0,0,1,1.1-2.617l0,0a6.569,6.569,0,0,1,4.618-1.5c.13-.008.264-.012.4-.02h.027c.382-.012.76-.02,1.177-.02.358,0,.693,0,1.048.008s.735.012,1.142.012c1.574,0,3.648.051,6.341.161h.013a6.437,6.437,0,0,1,2.987.795,3.757,3.757,0,0,1,1.878,3.142c.149,2.842-2.059,5.059-3.386,6.385-.578.6-1.252,1.248-2.09,2.055a10.678,10.678,0,0,1,3.59,1.905,8.028,8.028,0,0,1,2.2,2.851,9.384,9.384,0,0,1,.812,3.96,10.2,10.2,0,0,1-3.314,7.605,12.015,12.015,0,0,1-8.185,3C-15677.145-8210.118-15681.041-8210.94-15683.324-8213.267Z" transform="translate(15830.5 8440)" fill="#fff"/><path d="M4,0A4,4,0,1,1,0,4,4,4,0,0,1,4,0Z" transform="translate(113.412 204.501)" fill="#98e4f1"/><path d="M4,0A4,4,0,1,1,0,4,4,4,0,0,1,4,0Z" transform="translate(145.412 219.301)" fill="#98e4f1"/><path d="M4.25,0A4.25,4.25,0,1,1,0,4.25,4.25,4.25,0,0,1,4.25,0Z" transform="translate(95.412 221.5)" fill="#98e4f1"/></g></svg>