<svg xmlns="http://www.w3.org/2000/svg" width="48" height="68" viewBox="0 0 48 68"><g transform="translate(-267 -344)"><path d="M2.7,0A2.7,2.7,0,0,1,5.4,2.7h0A2.7,2.7,0,0,1,0,2.7H0A2.7,2.7,0,0,1,2.7,0Z" transform="translate(292.497 355.034) rotate(90)" fill="#a8e8f2"/><path d="M8.5,0A8.5,8.5,0,0,1,17,8.5v1a8.5,8.5,0,0,1-17,0v-1A8.5,8.5,0,0,1,8.5,0Z" transform="translate(285 344) rotate(90)" fill="#fff"/><path d="M10.5,5.687a2.967,2.967,0,0,1,5.089,0l6.629,11.048a2.967,2.967,0,0,1-2.545,4.494H6.413a2.967,2.967,0,0,1-2.545-4.494Z" transform="translate(292.358 340.656)" fill="#fff"/><path d="M2.5,0h29a2.5,2.5,0,0,1,0,5H2.5a2.5,2.5,0,0,1,0-5Z" transform="translate(274 387)" fill="#fff"/><path d="M9.352,2.4a2,2,0,0,1,3.3,0l7.2,10.47A2,2,0,0,1,18.2,16H3.8a2,2,0,0,1-1.648-3.133Z" transform="translate(280 367)" fill="#a8e8f2"/><path d="M2,0H12a2,2,0,0,1,2,2V13a2,2,0,0,1-2,2H2a2,2,0,0,1-2-2V2A2,2,0,0,1,2,0Z" transform="translate(284 397)" fill="#a8e8f2"/></g></svg>