<svg xmlns="http://www.w3.org/2000/svg" width="32" height="73" viewBox="0 0 32 73"><g transform="translate(-129 -343)"><path d="M3.733,0H28.267a3.733,3.733,0,0,1,0,7.467H3.733A3.733,3.733,0,0,1,3.733,0Z" transform="translate(129 396.267)" fill="#97e3f0"/><path d="M4.8,0A4.8,4.8,0,1,1,0,4.8,4.8,4.8,0,0,1,4.8,0Z" transform="translate(149.8 384) rotate(90)" fill="#97e3f0"/><path d="M4.8,0A4.8,4.8,0,1,1,0,4.8,4.8,4.8,0,0,1,4.8,0Z" transform="translate(149.8 406.4) rotate(90)" fill="#97e3f0"/><path d="M4,0H28a4,4,0,0,1,0,8H4A4,4,0,0,1,4,0Z" transform="translate(129 396)" fill="#fff"/><path d="M18.628,23.953a5.309,5.309,0,0,1-3.766-1.56l-21.3-21.3a5.326,5.326,0,0,1,0-7.531,5.326,5.326,0,0,1,7.531,0l21.3,21.3a5.326,5.326,0,0,1-3.766,9.091Z" transform="translate(137.047 351)" fill="#fff"/><path d="M-2.674,23.953a5.309,5.309,0,0,1-3.766-1.56,5.326,5.326,0,0,1,0-7.531l21.3-21.3a5.326,5.326,0,0,1,7.531,0,5.326,5.326,0,0,1,0,7.531l-21.3,21.3A5.309,5.309,0,0,1-2.674,23.953Z" transform="translate(137.047 351)" fill="#fff"/><g transform="translate(129.047 343)" opacity="0.1"><path d="M18.628,23.953a5.309,5.309,0,0,1-3.766-1.56l-21.3-21.3a5.326,5.326,0,0,1,0-7.531,5.326,5.326,0,0,1,7.531,0l21.3,21.3a5.326,5.326,0,0,1-3.766,9.091Z" transform="translate(8 8)" fill="#fff"/><path d="M-2.674,23.953a5.309,5.309,0,0,1-3.766-1.56,5.326,5.326,0,0,1,0-7.531l21.3-21.3a5.326,5.326,0,0,1,7.531,0,5.326,5.326,0,0,1,0,7.531l-21.3,21.3A5.309,5.309,0,0,1-2.674,23.953Z" transform="translate(8 8)" fill="#fff"/></g><g transform="translate(129.047 343)" opacity="0.35"><path transform="translate(26.628 5.326)" fill="#0abedc"/><path d="M7.977,13.3a5.309,5.309,0,0,1-3.766-1.56L-6.44,1.091a5.326,5.326,0,0,1,0-7.531,5.326,5.326,0,0,1,7.531,0L11.742,4.211A5.326,5.326,0,0,1,7.977,13.3Z" transform="translate(8 8)" fill="#0abedc"/></g></g></svg>