<svg xmlns="http://www.w3.org/2000/svg" width="49" height="66" viewBox="0 0 49 66"><g transform="translate(-269 -166)"><path d="M16.133,38.134V27.866H5.868a5.867,5.867,0,0,1,0-11.733H16.133V5.865a5.867,5.867,0,1,1,11.733,0V16.132H38.132a5.867,5.867,0,0,1,0,11.733H27.867V38.134a5.867,5.867,0,0,1-11.733,0Z" transform="translate(274 166.002)" fill="#fff"/><path d="M6,0H38a6,6,0,0,1,0,12H6A6,6,0,0,1,6,0Z" transform="translate(274 182.002)" fill="#fff" opacity="0.1"/><path d="M6,0H38a6,6,0,0,1,0,12H6A6,6,0,0,1,6,0Z" transform="translate(302 166.002) rotate(90)" fill="#fff" opacity="0.1"/><path d="M5.9,28a5.9,5.9,0,0,1,0-11.79H22.1A5.9,5.9,0,0,1,22.1,28ZM16.211,5.9v0A5.895,5.895,0,0,1,28,5.894v0a5.895,5.895,0,1,1-11.789,0Z" transform="translate(274 166.002)" fill="#0abedc" opacity="0.35"/><path d="M7,0H39a7,7,0,0,1,0,14H7A7,7,0,0,1,7,0Z" transform="translate(269 218)" fill="#fff"/><path d="M7,0H39a7,7,0,0,1,0,14H7A7,7,0,0,1,7,0Z" transform="translate(269 218)" fill="#fff" opacity="0.1"/><path d="M7,0H22a7,7,0,0,1,0,14H7A7,7,0,0,1,7,0Z" transform="translate(286 218)" fill="#0abedc" opacity="0.35"/></g></svg>