<svg xmlns="http://www.w3.org/2000/svg" width="40" height="40" viewBox="0 0 40 40">
    <g data-name="그룹 12328">
        <g data-name="그룹 12326">
            <path data-name="패스 11728" d="M1 0h8a1 1 0 0 1 1 1v17.452a1 1 0 0 1-.282.7l-3.275 3.371a2 2 0 0 1-2.828.043l-.04-.04-3.291-3.378a1 1 0 0 1-.284-.7V1a1 1 0 0 1 1-1z" style="fill:none;stroke:#fff;stroke-linecap:round;stroke-linejoin:round;stroke-width:3px" transform="rotate(45 -4.217 31.183)"/>
        </g>
        <g data-name="그룹 12327">
            <path data-name="패스 11729" d="M1 0h8a1 1 0 0 1 1 1v2a1 1 0 0 1-1 1H1a1 1 0 0 1-1-1V1a1 1 0 0 1 1-1z" style="fill:none;stroke:#fff;stroke-linecap:round;stroke-linejoin:round;stroke-width:3px" transform="rotate(45 5.44 35.183)"/>
        </g>
    </g>
</svg>
