<?xml version="1.0" encoding="utf-8"?>
<!-- Generator: Adobe Illustrator 26.3.1, SVG Export Plug-In . SVG Version: 6.00 Build 0)  -->
<svg version="1.1" id="레이어_1" xmlns="http://www.w3.org/2000/svg" xmlns:xlink="http://www.w3.org/1999/xlink" x="0px"
	 y="0px" viewBox="0 0 32 32" style="enable-background:new 0 0 32 32;" xml:space="preserve">
<style type="text/css">
	.st0{clip-path:url(#사각형_2437_00000122708118850307492060000005244271779459832748_);}
	.st1{fill:#EAF3FF;}
	.st2{fill:#DAE2EE;}
	.st3{fill:url(#패스_432-2_00000013906188244513031120000001607945962689978284_);}
</style>
<g>
	<defs>
		<path id="사각형_2437" d="M0,0h32v32H0V0z"/>
	</defs>
	<clipPath id="사각형_2437_00000004525732260749659910000001403869009664493220_">
		<use xlink:href="#사각형_2437"  style="overflow:visible;"/>
	</clipPath>
	<g style="clip-path:url(#사각형_2437_00000004525732260749659910000001403869009664493220_);">
		
			<image style="overflow:visible;opacity:0.1;enable-background:new    ;" width="57" height="45" xlink:href="983B5364.png"  transform="matrix(1 0 0 1 -12.402 -4.068)">
		</image>
		<g>
			<g>
				<path id="패스_11968_00000105385508360236465790000006949554625188777395_" class="st1" d="M6.4,13.1h7c0.5,0,1,0.4,1,1
					c0,0.5-0.4,1-1,1H6.8C6.2,15.1,3.3,11.8,6.4,13.1z"/>
				<path id="패스_11967_00000060028213220672706390000000743070775673692800_" class="st2" d="M10.3,18.5h6.5c0.5,0,1,0.4,1,1
					c0,0.5-0.4,0.9-1,0.9l0,0h-6.6C9.6,20.4,7.3,16.7,10.3,18.5z"/>
				
					<linearGradient id="패스_432-2_00000154417742664537277970000004953570248844596103_" gradientUnits="userSpaceOnUse" x1="-540.2877" y1="58.9994" x2="-540.2877" y2="58.0003" gradientTransform="matrix(25.817 0 0 13.712 13964.6104 -785.5668)">
					<stop  offset="0" style="stop-color:#93C4FF"/>
					<stop  offset="1" style="stop-color:#A2CDFF"/>
				</linearGradient>
				
					<path id="패스_432-2_00000065794307017611828380000002536597519502398631_" style="fill:url(#패스_432-2_00000154417742664537277970000004953570248844596103_);" d="
					M27.7,23.4H12.8c-1.5-0.1-2.7-1.5-2.6-3h5.9c0.5,0,0.8-0.5,0.8-0.9c0-0.5-0.3-0.9-0.8-0.9H9.4c-1.6-0.1-2.7-1.5-2.6-3.1v-0.4
					h5.7c0.5,0,0.8-0.5,0.8-0.9c0-0.5-0.3-0.9-0.8-0.9H5.7C4.1,13,3,11.7,3.1,10.1V9.7h17.4c2.4,0,4.3,2.3,4.3,5.1V17
					c-0.1,1.7,1.1,3.3,2.9,3.5c0.7,0.1,1.3,0.7,1.2,1.5C29,22.7,28.4,23.4,27.7,23.4z"/>
			</g>
		</g>
	</g>
</g>
</svg>
