<?xml version="1.0" encoding="utf-8"?>
<!-- Generator: Adobe Illustrator 26.3.1, SVG Export Plug-In . SVG Version: 6.00 Build 0)  -->
<svg version="1.1" id="레이어_1" xmlns="http://www.w3.org/2000/svg" xmlns:xlink="http://www.w3.org/1999/xlink" x="0px"
	 y="0px" viewBox="0 0 40 40" style="enable-background:new 0 0 40 40;" xml:space="preserve">
<style type="text/css">
	.st0{fill:#EAF3FF;}
	.st1{fill:url(#패스_432-2_00000072277980492466360460000017276410864444417462_);}
	.st2{fill:none;}
</style>
<g>
	<path id="패스_11968" class="st0" d="M8,15.6h8.6c0.7,0,1.2,0.6,1.2,1.2S17.2,18,16.6,18l0,0H8.5C7.9,18.1,4.3,14,8,15.6z"/>
	<path id="패스_11967" class="st0" d="M12.9,22.3h8c0.7,0,1.2,0.5,1.2,1.2l0,0c0,0.6-0.5,1.2-1.2,1.1l0,0h-8.2
		C12.1,24.7,9.2,20.1,12.9,22.3z"/>
	
		<linearGradient id="패스_432-2_00000147182339661647684450000006744325298468159665_" gradientUnits="userSpaceOnUse" x1="-532.9343" y1="48.1044" x2="-532.9343" y2="47.1044" gradientTransform="matrix(32.0483 0 0 17.026 17099.5938 -790.5744)">
		<stop  offset="0" style="stop-color:#93C4FF"/>
		<stop  offset="1" style="stop-color:#A2CDFF"/>
	</linearGradient>
	<path id="패스_432-2" style="fill:url(#패스_432-2_00000147182339661647684450000006744325298468159665_);" d="M34.5,28.5H16
		c-1.9-0.2-3.4-1.8-3.2-3.8h7.3c0.6-0.1,1-0.6,1-1.2s-0.4-1.1-1-1.2h-8.3c-1.8,0-3.3-1.7-3.3-3.9V18h7c0.6-0.1,1-0.6,1-1.2
		s-0.4-1.1-1-1.2H7.2c-1.8,0-3.3-1.7-3.3-3.9v-0.4h21.7c2.9,0,5.3,2.8,5.3,6.3v2.7c0,2.4,1.6,4.3,3.6,4.4c0.9,0.1,1.6,0.9,1.5,1.8
		C36.1,27.5,35.4,28.4,34.5,28.5L34.5,28.5z"/>
</g>
<path id="사각형_2435" class="st2" d="M0,0h40v40H0V0z"/>
</svg>
