<?xml-stylesheet type="text/css" href="../../css/svg.css"?>

<svg class="dt_guide_icon predict_icon_40"  xmlns="http://www.w3.org/2000/svg" xmlns:xlink="http://www.w3.org/1999/xlink" x="0px"
	 y="0px" viewBox="0 0 40 40" style="enable-background:new 0 0 40 40;" xml:space="preserve">

<path class="st0" d="M10,6h14l8,8v18c0,1.1-0.9,2-2,2H10c-1.1,0-2-0.9-2-2V8C8,6.9,8.9,6,10,6z"/>
<path class="st1" d="M24,6l8,8h-6c-1.1,0-2-0.9-2-2V6z"/>
<g>
	<g>
		<path class="st1" d="M19.8,23.5c-0.6,0-1.2-0.4-1.4-1c-0.3-0.8,0.2-1.6,0.9-1.9c0.8-0.3,2-1,2-1.6c0-0.6-0.4-1.2-1-1.4
			c-0.8-0.3-1.6,0.1-1.9,0.9c-0.3,0.8-1.1,1.2-1.9,0.9c-0.8-0.3-1.2-1.1-0.9-1.9c0.8-2.3,3.4-3.6,5.7-2.8c1.8,0.6,3,2.3,3,4.3
			c0,3-3.6,4.3-4,4.4C20.1,23.5,20,23.5,19.8,23.5z"/>
	</g>
	<circle class="st1" cx="19.9" cy="27" r="1.5"/>
</g>
</svg>
