<?xml-stylesheet type="text/css" href="../../css/svg.css"?>

<svg class="dt_level" id="레이어_1" xmlns="http://www.w3.org/2000/svg" xmlns:xlink="http://www.w3.org/1999/xlink" x="0px"
	 y="0px" viewBox="0 0 68 33" style="enable-background:new 0 0 68 33;" xml:space="preserve">
<path class="st0" d="M5.5,13.6c0.9,1.2,2.5,1.6,3.8,1.1c1-0.3,1.9-0.7,2.8-1.2c-0.3,3.6-0.2,7.2,0.1,10.8c0,1.5,1.2,2.8,2.7,2.8
	c0.1,0,0.3,0,0.4,0c1.6,0.2,3.1-1,3.3-2.7c0,0,0-0.1,0-0.1c0.6-4.7,0.6-9.4,0.2-14.1C18.6,8.2,16.9,6.8,15,7c-2.5,0-6.5,1.7-8.6,3.1
	C5.3,10.9,4.5,12,5.5,13.6z"/>
<path class="st1" d="M27.6,21.7c-2,2-1.3,4.9,1.4,5.1c3.4,0.3,6.8,0.3,10.2,0c1.8-0.1,2.9-0.9,2.9-2.7s-1.1-2.5-2.9-2.7
	c-1.5-0.1-3.1-0.1-4.6,0l2.9-2.4c2-1.6,3.3-3.5,3.3-6.3c0-3.6-3.4-5.7-6.9-5.7c-3.3,0-5.9,1.2-7.1,3.4c-0.6,1.1-1,2.6,0.7,3.6
	c1.2,0.8,2.9,0.6,3.8-0.6c0.5-0.8,1-1.6,2-1.6c0.9-0.1,1.7,0.6,1.8,1.6c0,0,0,0,0,0c0,1.1-0.9,2-1.8,2.9L27.6,21.7z"/>
<path class="st0" d="M47.5,23.8C49,26,51.8,27,55.1,27c4.7,0,8-2.1,8-5.6c0.2-2.2-1.4-4.2-3.7-4.6v0c2.4-0.8,3.3-2.2,3.3-4.3
	c0-3.3-3.4-5.4-7.2-5.4c-3.5,0-6.2,1.3-7.6,3.4c-0.7,0.9-0.5,2.2,0.4,2.9c0.1,0.1,0.2,0.1,0.3,0.2c1.1,0.9,2.7,0.7,3.7-0.3
	c0.7-0.7,1.7-1,2.7-1.1c0.9,0,1.7,0.4,1.7,1.2s-0.8,1.2-1.7,1.2c-0.7,0-1,0-1.7,0c-1.2,0-2,0.8-2,2.3c0,1.4,0.7,2.6,2,2.5
	c0.7,0,1.2-0.1,1.9-0.1c1.1,0,1.9,0.5,1.9,1.3c0,0.8-0.8,1.3-1.9,1.3c-1.2,0-2.4-0.5-3.4-1.3c-0.9-0.9-2.4-1-3.3-0.1
	C47,21.5,46.8,22.7,47.5,23.8z"/>
</svg>
