<?xml-stylesheet type="text/css" href="../../css/svg.css"?>

<svg class="dt_level dt_level_04"  xmlns="http://www.w3.org/2000/svg" xmlns:xlink="http://www.w3.org/1999/xlink" x="0px"
	 y="0px" viewBox="0 0 78 33" style="enable-background:new 0 0 78 33;" xml:space="preserve">
<g>
	<path class="st0" d="M48,14h22c1.7,0,3,1.3,3,3s-1.3,3-3,3H48c-1.7,0-3-1.3-3-3S46.3,14,48,14z"/>
	<path class="st1" d="M60.2,3.7l3.2,6.3c0.3,0.7,0.1,1.5-0.6,1.8c0,0,0,0,0,0C62.6,12,62.4,12,62.2,12h-6.3c-0.7,0-1.3-0.6-1.3-1.3
		l0,0c0-0.2,0-0.4,0.1-0.6l3.2-6.3c0.3-0.7,1.1-0.9,1.8-0.6c0,0,0,0,0,0C59.9,3.3,60.1,3.5,60.2,3.7z"/>
	<path class="st1" d="M56.5,22h5c1.1,0,2,0.9,2,2v5c0,1.1-0.9,2-2,2h-5c-1.1,0-2-0.9-2-2v-5C54.5,22.9,55.4,22,56.5,22z"/>
</g>
<g>
	<path class="st1" d="M30.8,11.9l3.9,7.7c0.4,0.8,0.1,1.8-0.7,2.2c0,0,0,0,0,0c-0.2,0.1-0.5,0.2-0.7,0.2h-7.7
		c-0.9,0-1.6-0.7-1.6-1.6c0-0.3,0.1-0.5,0.2-0.7l3.9-7.7c0.4-0.8,1.4-1.1,2.2-0.7c0,0,0,0,0,0C30.4,11.3,30.7,11.6,30.8,11.9z"/>
	<circle class="st2" cx="10.5" cy="16.5" r="5.5"/>
	<path class="st2" d="M19.9,22.8c0.9,0,1.6-0.7,1.6-1.6c0-0.9-0.7-1.6-1.6-1.6c0,0,0,0,0,0c-0.9,0-1.6,0.7-1.6,1.6
		C18.4,22.1,19.1,22.8,19.9,22.8C19.9,22.8,19.9,22.8,19.9,22.8z"/>
</g>
</svg>
