<?xml-stylesheet type="text/css" href="../../css/svg.css"?>
<svg class="dt_level dt_level_05" xmlns="http://www.w3.org/2000/svg" width="42" height="33" viewBox="0 0 42 33">
    <defs>
        <clipPath id="rq5avxrrqa">
            <path data-name="패스 248" d="M31.823-14.547 36.048-6.1a1.774 1.774 0 0 1-.793 2.38 1.774 1.774 0 0 1-.793.187H26.01A1.774 1.774 0 0 1 24.236-5.3a1.774 1.774 0 0 1 .187-.793l4.226-8.451a1.774 1.774 0 0 1 2.38-.793 1.774 1.774 0 0 1 .794.79z" style="clip-rule:evenodd;fill:#fff"/>
        </clipPath>
        <clipPath id="j5mpiqgpeb">
            <path data-name="패스 247" d="M-13 13.857h54.857V-41H-13z" transform="translate(13 41)" style="fill:#fff"/>
        </clipPath>
    </defs>
    <g data-name="그룹 13644">
        <g data-name="그룹 188" transform="translate(2 26)">
            <g data-name="그룹 7558">
                <path data-name="패스 237" d="M0 10a2 2 0 0 1-2-2 2 2 0 0 1 2-2c.353 0 1-.76 1-2S.353 2 0 2a2 2 0 0 1-2-2 2 2 0 0 1 2-2A4.677 4.677 0 0 1 3.721-.029 6.733 6.733 0 0 1 5 4a6.733 6.733 0 0 1-1.279 4.028A4.677 4.677 0 0 1 0 10z" transform="translate(5 -13)" class="st0" />
                <path data-name="패스 238" d="M0 10a2 2 0 0 1-2-2 2 2 0 0 1 2-2c.353 0 1-.76 1-2S.353 2 0 2a2 2 0 0 1-2-2 2 2 0 0 1 2-2A4.677 4.677 0 0 1 3.721-.029 6.733 6.733 0 0 1 5 4a6.733 6.733 0 0 1-1.279 4.028A4.677 4.677 0 0 1 0 10z" transform="rotate(180 6.5 -2.5)"  class="st0" />
            </g>
            <g data-name="그룹 187" transform="translate(-1.236 .528)" style="clip-path:url(#rq5avxrrqa)">
                <g data-name="그룹 186" transform="translate(-7.681 -37.361)" style="clip-path:url(#j5mpiqgpeb)">
                    <path data-name="패스 246" d="M23.236-16.811h13.512v13.552H23.236z" transform="translate(7.823 37.544)"  class="st1" />
                </g>
            </g>
            <rect data-name="사각형 848" width="5" height="2" rx="1" transform="translate(17 -12)"  class="st0" />
            <rect data-name="사각형 849" width="5" height="2" rx="1" transform="translate(17 -8)"  class="st0" />
        </g>
    </g>
</svg>
