<svg xmlns="http://www.w3.org/2000/svg" xmlns:xlink="http://www.w3.org/1999/xlink" width="196.166" height="118.62" viewBox="0 0 196.166 118.62"><defs><clipPath id="a"><path d="M72.1,90.461A12.449,12.449,0,0,1,59.633,78.055V42.421a3.206,3.206,0,0,0-6.412,0v25.27a12.465,12.465,0,0,1-24.929,0V56.725l.043-.313a3.664,3.664,0,0,0-.652-2.4c-.738-.812-2.427-.933-3.369-.933H13.63a4.607,4.607,0,1,1,0-9.215H24.314c5.59,0,8.724,2.238,10.368,4.116A12.8,12.8,0,0,1,37.55,57.27V67.691a3.206,3.206,0,0,0,6.412,0V42.421a12.465,12.465,0,0,1,24.929,0V78.055a3.206,3.206,0,0,0,6.412,0V21.406a12.465,12.465,0,0,1,24.929,0l.008,47.775a3.206,3.206,0,0,0,6.412,0L106.636,33.6a12.465,12.465,0,0,1,24.929,0V49.547l-.022.221a3.142,3.142,0,0,0,.589,1.943,3.844,3.844,0,0,0,2.494.66h14.088a4.607,4.607,0,1,1,0,9.215H134.626c-4.952,0-7.826-2.012-9.366-3.7a12.342,12.342,0,0,1-2.954-8.711V33.6a3.206,3.206,0,0,0-6.412,0l.016,35.578a12.465,12.465,0,0,1-24.929,0l-.008-47.775a3.206,3.206,0,0,0-6.412,0V78.055A12.449,12.449,0,0,1,72.1,90.461Z" transform="translate(-9.001 -9.001)" fill="#ccf9fe"/></clipPath></defs><g transform="translate(6 25.288)" style="isolation:isolate"><g transform="translate(-6 11.872)" style="isolation:isolate"><path d="M72.1,90.461A12.449,12.449,0,0,1,59.633,78.055V42.421a3.206,3.206,0,0,0-6.412,0v25.27a12.465,12.465,0,0,1-24.929,0V56.725l.043-.313a3.664,3.664,0,0,0-.652-2.4c-.738-.812-2.427-.933-3.369-.933H13.63a4.607,4.607,0,1,1,0-9.215H24.314c5.59,0,8.724,2.238,10.368,4.116A12.8,12.8,0,0,1,37.55,57.27V67.691a3.206,3.206,0,0,0,6.412,0V42.421a12.465,12.465,0,0,1,24.929,0V78.055a3.206,3.206,0,0,0,6.412,0V21.406a12.465,12.465,0,0,1,24.929,0l.008,47.775a3.206,3.206,0,0,0,6.412,0L106.636,33.6a12.465,12.465,0,0,1,24.929,0V49.547l-.022.221a3.142,3.142,0,0,0,.589,1.943,3.844,3.844,0,0,0,2.494.66h14.088a4.607,4.607,0,1,1,0,9.215H134.626c-4.952,0-7.826-2.012-9.366-3.7a12.342,12.342,0,0,1-2.954-8.711V33.6a3.206,3.206,0,0,0-6.412,0l.016,35.578a12.465,12.465,0,0,1-24.929,0l-.008-47.775a3.206,3.206,0,0,0-6.412,0V78.055A12.449,12.449,0,0,1,72.1,90.461Z" transform="translate(-9.001 -9.001)" fill="#59b4bf"/><g transform="translate(0 0)" clip-path="url(#a)"><rect width="31.984" height="54.031" transform="translate(61.849 -5.026)" fill="#1fc4ff"/><rect width="13.888" height="27.225" transform="translate(49.645 59.895)" fill="#3c5a7d"/><rect width="14.308" height="45.235" transform="translate(63.533 41.884)" fill="#3c5a7d"/><rect width="28.196" height="28.481" transform="translate(111.508 30.157)" fill="#1fc3e1"/></g><ellipse cx="4.629" cy="4.629" rx="4.629" ry="4.629" transform="translate(81.923 46.045)" fill="#83efdb"/><ellipse cx="4.629" cy="4.629" rx="4.629" ry="4.629" transform="translate(66.352 38.175)" fill="#6ee6d0"/><ellipse cx="4.629" cy="4.629" rx="4.629" ry="4.629" transform="translate(50.613 55.254)" fill="#9fd7fc"/><ellipse cx="4.629" cy="4.629" rx="4.629" ry="4.629" transform="translate(113.318 25.952)" fill="#89ecf6"/><ellipse cx="4.629" cy="4.629" rx="4.629" ry="4.629" transform="translate(43.038 21.139)" fill="#abf6fe"/><ellipse cx="4.629" cy="4.629" rx="4.629" ry="4.629" transform="translate(0.113 34.827)" fill="#abf6fe"/></g><g transform="translate(122.335 28.328)"><rect width="67.83" height="65.004" transform="translate(0)" fill="#fff" opacity="0"/><path d="M12.717,46.631a9.9,9.9,0,0,1-9.89-9.89v-4.1H2.12a2.12,2.12,0,1,1,0-4.239h.707V24.162H2.12a2.12,2.12,0,1,1,0-4.239h.707V15.684H2.12a2.12,2.12,0,1,1,0-4.239h.707V9.891A9.9,9.9,0,0,1,12.717,0h21.2a9.9,9.9,0,0,1,9.894,9.891V21.9H39.567V9.891a5.659,5.659,0,0,0-5.653-5.652h-21.2A5.659,5.659,0,0,0,7.065,9.891v1.6a2.12,2.12,0,0,1,0,4.155v4.323a2.12,2.12,0,0,1,0,4.155v4.323a2.12,2.12,0,0,1,0,4.155v4.143a5.658,5.658,0,0,0,5.652,5.652h21.2a5.659,5.659,0,0,0,5.653-5.652V31.8h4.241v4.947a9.9,9.9,0,0,1-9.894,9.89Z" transform="translate(9.892 8.48)" fill="#fff" stroke="rgba(0,0,0,0)" stroke-miterlimit="10" stroke-width="1"/><path d="M29.877,33.4H24.52a2.12,2.12,0,0,1-2.12-2.12V25.929a2.123,2.123,0,0,1,.62-1.5l11.2-11.2a5.906,5.906,0,1,1,8.352,8.353l-11.2,11.2a2.123,2.123,0,0,1-1.5.62m-3.237-4.239H29l10.577-10.58a1.669,1.669,0,0,0,0-2.359,1.706,1.706,0,0,0-2.357,0l-5.291,5.291-5.289,5.289Z" transform="translate(18.92 12.097)" fill="#ccf9fe"/><g transform="translate(23.176 20.997)"><path d="M3.445,17.687a1.413,1.413,0,0,1-.4-1.676A13.17,13.17,0,0,0,4.109,8.96c-.031-.143-.062-.263-.095-.364a9.276,9.276,0,0,0-1.361,1.889A1.413,1.413,0,0,1,.172,9.135c.8-1.473,2.432-3.91,4.4-3.607C5.744,5.7,6.527,6.7,6.9,8.5a16.4,16.4,0,0,1-.048,4.535l2.916-2.108a1.413,1.413,0,1,1,1.656,2.29L5.166,17.738a1.414,1.414,0,0,1-1.722-.051Zm10.6-7.082A1.412,1.412,0,0,1,12.93,8.949l.369-1.9-2.435-.8a1.413,1.413,0,0,1,.885-2.685l2.095.69.6-3.109a1.413,1.413,0,1,1,2.774.539l-.673,3.461L22.053,6.96a1.414,1.414,0,0,1-.885,2.686L16,7.943l-.3,1.544A1.409,1.409,0,0,1,14.046,10.6Z" transform="translate(0 0)" fill="#fff"/></g><rect width="53.555" height="46.633" transform="translate(9.892 8.479)" fill="none"/></g><g transform="translate(126.853 -20.508) rotate(-17)"><path d="M17.789,10.6,9.247,25.3H26.331L17.789,10.6m0-10.6L35.577,30.623H0Z" transform="matrix(0.891, 0.454, -0.454, 0.891, 15.836, 0)" fill="#5fd0ba"/><circle cx="3.603" cy="3.603" r="3.603" transform="matrix(0.951, -0.309, 0.309, 0.951, 26.48, 7.419)" fill="#fff"/><circle cx="3.603" cy="3.603" r="3.603" transform="matrix(0.951, -0.309, 0.309, 0.951, 27.667, 38.76)" fill="#fff"/><circle cx="3.603" cy="3.603" r="3.603" transform="matrix(0.951, -0.309, 0.309, 0.951, 0, 25.02)" fill="#fff"/></g></g></svg>