<svg xmlns="http://www.w3.org/2000/svg" width="494.985" height="283.333" viewBox="0 0 494.985 283.333">
    <defs>
        <clipPath id="stoov8easa">
            <path data-name="패스 12279" d="M166.1 212.785a31.069 31.069 0 0 1-31.034-31.034V92.606a7.982 7.982 0 0 0-15.965 0v63.217a31.034 31.034 0 0 1-62.068 0v-27.432l.108-.782c.08-.843.01-4.191-1.623-6-1.836-2.031-6.043-2.335-8.388-2.335h-26.6a11.526 11.526 0 1 1 0-23.052h26.6c13.917 0 21.72 5.6 25.815 10.3 7.645 8.769 7.437 19.728 7.14 23.231v26.07a7.982 7.982 0 0 0 15.965 0V92.606a31.034 31.034 0 0 1 62.068 0v89.146a7.983 7.983 0 0 0 15.965 0V40.035a31.034 31.034 0 0 1 62.068 0l.02 119.517a7.982 7.982 0 1 0 15.965 0l-.041-89a31.034 31.034 0 1 1 62.068-.005v39.888l-.054.554c-.045.883.228 3.55 1.466 4.86 1.358 1.438 4.473 1.652 6.21 1.652h35.077a11.526 11.526 0 1 1 0 23.052h-35.079c-12.329 0-19.486-5.032-23.319-9.254-7.47-8.228-7.518-18.745-7.355-21.791V70.546a7.982 7.982 0 1 0-15.965 0l.041 89a31.034 31.034 0 1 1-62.068.005L213.1 40.037a7.983 7.983 0 1 0-15.965 0v141.714a31.069 31.069 0 0 1-31.035 31.034z" transform="translate(-9.001 -9.001)" style="fill:#ccf9fe"/>
        </clipPath>
        <clipPath id="jd0cyeuz0b">
            <path style="opacity:0;fill:#fff" d="M0 0h322.505v125.488H0z"/>
        </clipPath>
        <filter id="1cxidtcx6c" x="126.764" y="168.887" width="322.981" height="219.659" filterUnits="userSpaceOnUse">
            <feOffset dy="3"/>
            <feGaussianBlur stdDeviation="5.5" result="blur"/>
            <feFlood flood-opacity=".349"/>
            <feComposite operator="in" in2="blur"/>
            <feComposite in="SourceGraphic"/>
        </filter>
    </defs>
    <g data-name="그룹 15280">
        <g data-name="그룹 15279" style="isolation:isolate">
            <g transform="translate(0 7.854)" style="isolation:isolate">
                <path data-name="패스 12279" d="M166.1 212.785a31.069 31.069 0 0 1-31.034-31.034V92.606a7.982 7.982 0 0 0-15.965 0v63.217a31.034 31.034 0 0 1-62.068 0v-27.432l.108-.782c.08-.843.01-4.191-1.623-6-1.836-2.031-6.043-2.335-8.388-2.335h-26.6a11.526 11.526 0 1 1 0-23.052h26.6c13.917 0 21.72 5.6 25.815 10.3 7.645 8.769 7.437 19.728 7.14 23.231v26.07a7.982 7.982 0 0 0 15.965 0V92.606a31.034 31.034 0 0 1 62.068 0v89.146a7.983 7.983 0 0 0 15.965 0V40.035a31.034 31.034 0 0 1 62.068 0l.02 119.517a7.982 7.982 0 1 0 15.965 0l-.041-89a31.034 31.034 0 1 1 62.068-.005v39.888l-.054.554c-.045.883.228 3.55 1.466 4.86 1.358 1.438 4.473 1.652 6.21 1.652h35.077a11.526 11.526 0 1 1 0 23.052h-35.079c-12.329 0-19.486-5.032-23.319-9.254-7.47-8.228-7.518-18.745-7.355-21.791V70.546a7.982 7.982 0 1 0-15.965 0l.041 89a31.034 31.034 0 1 1-62.068.005L213.1 40.037a7.983 7.983 0 1 0-15.965 0v141.714a31.069 31.069 0 0 1-31.035 31.034z" transform="translate(-9.001 -9.001)" style="fill:#59b4bf"/>
                <g data-name="마스크 그룹 7342" style="clip-path:url(#stoov8easa)">
                    <path data-name="사각형 8816" transform="translate(153.993 -12.574)" style="fill:#1fc4ff" d="M0 0h79.633v135.167H0z"/>
                    <path data-name="사각형 8817" transform="translate(123.607 149.836)" style="fill:#3c5a7d" d="M0 0h34.577v68.107H0z"/>
                    <path data-name="사각형 8819" transform="translate(158.184 104.78)" style="fill:#3c5a7d" d="M0 0h35.625v113.163H0z"/>
                    <path data-name="사각형 8818" transform="translate(277.634 75.442)" style="fill:#1fc3e1" d="M0 0h70.203v71.251H0z"/>
                </g>
                <circle data-name="타원 13552" cx="11.526" cy="11.526" transform="translate(203.972 115.258)" style="fill:#83efdb" r="11.526"/>
                <circle data-name="타원 13553" cx="11.526" cy="11.526" transform="translate(165.204 95.56)" style="fill:#6ee6d0" r="11.526"/>
                <circle data-name="타원 13554" cx="11.526" cy="11.526" transform="translate(126.018 138.31)" style="fill:#9fd7fc" r="11.526"/>
                <circle data-name="타원 13555" cx="11.526" cy="11.526" transform="translate(282.14 64.964)" style="fill:#89ecf6" r="11.526"/>
                <circle data-name="타원 13556" cx="11.526" cy="11.526" transform="translate(107.157 52.914)" style="fill:#abf6fe" r="11.526"/>
                <circle data-name="타원 13557" cx="11.526" cy="11.526" transform="translate(.281 87.177)" style="fill:#abf6fe" r="11.526"/>
            </g>
            <g data-name="그룹 15243">
                <path data-name="합치기 658" d="M33.621 123.287A26.176 26.176 0 0 1 7.474 97.14V86.3H5.606a5.6 5.6 0 1 1 0-11.209h1.868v-11.21H5.606a5.6 5.6 0 1 1 0-11.208h1.868V41.465H5.606a5.6 5.6 0 1 1 0-11.209h1.868v-4.105A26.179 26.179 0 0 1 33.621 0h56.043a26.185 26.185 0 0 1 26.158 26.151V57.9h-11.213V26.151a14.962 14.962 0 0 0-14.945-14.945H33.621a14.961 14.961 0 0 0-14.942 14.945v4.217a5.606 5.606 0 0 1 0 10.986v11.43a5.606 5.606 0 0 1 0 10.986V75.2a5.606 5.606 0 0 1 0 10.986V97.14a14.96 14.96 0 0 0 14.943 14.944h56.042a14.96 14.96 0 0 0 14.945-14.944V84.062h11.214V97.14a26.182 26.182 0 0 1-26.158 26.147z" transform="translate(341.804 90.785)" style="stroke:transparent;stroke-miterlimit:10;fill:#fff"/>
                <path data-name="패스 12188" d="M42.168 69.41H28a5.6 5.6 0 0 1-5.6-5.6V49.646a5.614 5.614 0 0 1 1.64-3.964l29.616-29.613a15.615 15.615 0 1 1 22.08 22.084L46.132 67.77a5.614 5.614 0 0 1-3.964 1.64m-8.56-11.21h6.236l27.965-27.971a4.412 4.412 0 0 0 0-6.236 4.509 4.509 0 0 0-6.232 0L47.593 37.981 33.608 51.966z" transform="translate(402.495 119.255)" style="fill:#ccf9fe"/>
                <g data-name="그룹 15247">
                    <path data-name="합치기 659" d="M9.108 46.762a3.736 3.736 0 0 1-1.045-4.43 34.82 34.82 0 0 0 2.8-18.643 10.28 10.28 0 0 0-.25-.962 24.525 24.525 0 0 0-3.6 5 3.735 3.735 0 0 1-6.56-3.571c2.111-3.893 6.429-10.338 11.626-9.535 3.1.464 5.176 3.1 6.15 7.85a43.348 43.348 0 0 1-.127 11.99l7.711-5.574a3.736 3.736 0 1 1 4.379 6.055L13.659 46.9a3.738 3.738 0 0 1-4.552-.134zm28.028-18.724a3.732 3.732 0 0 1-2.951-4.379l.975-5.016-6.439-2.124a3.737 3.737 0 0 1 2.339-7.1l5.54 1.826 1.6-8.218a3.735 3.735 0 1 1 7.333 1.424L43.748 13.6 58.3 18.4a3.739 3.739 0 0 1-2.34 7.1L42.309 21l-.794 4.081a3.725 3.725 0 0 1-4.379 2.957z" transform="translate(376.926 123.877)" style="fill:#fff"/>
                </g>
                <path data-name="사각형 7946" transform="translate(341.805 90.782)" style="fill:none" d="M0 0h141.591v123.292H0z"/>
            </g>
            <g data-name="그룹 15245" transform="rotate(-17 185.6 -1065.702)">
                <path data-name="다각형 199" d="M28.65 17.066 14.893 40.75h27.515L28.65 17.066M28.65 0 57.3 49.322H0z" transform="rotate(27 12.753 53.117)" style="fill:#5fd0ba"/>
                <circle data-name="타원 13558" cx="5.803" cy="5.803" r="5.803" transform="rotate(-18.01 59.075 -128.655)" style="fill:#fff"/>
                <circle data-name="타원 13559" cx="5.803" cy="5.803" r="5.803" transform="rotate(-18.01 219.377 -109.42)" style="fill:#fff"/>
                <circle data-name="타원 13560" cx="5.803" cy="5.803" r="5.803" transform="rotate(-18.01 127.215 20.173)" style="fill:#fff"/>
            </g>
        </g>
        <g data-name="그룹 15246">
            <g style="clip-path:url(#jd0cyeuz0b)">
                <g style="filter:url(#1cxidtcx6c)" data-name="마스크 그룹 7559" transform="translate(111.11 157.845)">
                    <path data-name="모양 7" d="M294.82 614.754C277.993 596.56 254.742 567.1 209.1 567.8c-34.763.532-51-4.466-51-4.466s-11.4 0-17.92-4.807c0 0-1.629 20.83 13.032 28.841 0 0-40.7 17.888-46.215 72.105-.46 25.808 34.4 60.02 73.894 83.345 30.8 18.188 260.837-74.443 208.32-73.636-39.011.597-75.579-34.089-94.391-54.428z" transform="translate(-74.84 -533.99)" style="fill:#fff"/>
                </g>
            </g>
            <path data-name="모양 7 복사 2" d="M263.235 632.841c-2.058-40.646-31.541-59.876-58.5-71.412" transform="translate(73.186 -374.984)" style="stroke-width:2.5px;stroke:#ffc823;fill:none"/>
            <path data-name="모양 7 복사" d="M162.078 562.456s-11.2-2-16.738-7.856c0 0-5.364 20.169 7.595 30.6 0 0-36.3 17.013-39.551 67.108" transform="translate(38.863 -377.399)" style="stroke:#225782;stroke-width:2.5px;fill:none"/>
            <g data-name="character1 복사" transform="translate(212.247 221.019)">
                <ellipse data-name="타원 4" cx="5.937" cy="5.764" rx="5.937" ry="5.764" style="fill:#225782"/>
                <ellipse data-name="타원 4 복사 2" cx="5.937" cy="5.764" rx="5.937" ry="5.764" transform="translate(33.961)" style="fill:#225782"/>
                <path data-name="모양 2" d="M1045.706 327.187v11h8.481" transform="translate(-1025.497 -319.523)" style="stroke-linecap:round;stroke-width:3px;stroke:#225782;fill:none"/>
                <path data-name="모양 23" d="M1081.9 342.051c-12.638 20.393-28.812 18.4-28.812 18.4s-9.983.368-15.671-6.466" transform="translate(-1032.37 -322.648)" style="stroke-linecap:round;stroke-width:3px;stroke:#225782;fill:none"/>
                <path data-name="패스 12238" d="M-16734.33 4015.929s4.578-2.256 8.252 0" transform="translate(16784.773 -4005.551)" style="stroke:#cff0f5;stroke-linecap:round;stroke-width:3px;fill:none"/>
            </g>
        </g>
    </g>
</svg>
