<svg xmlns="http://www.w3.org/2000/svg" xmlns:xlink="http://www.w3.org/1999/xlink" width="176.782" height="68.787" viewBox="0 0 176.782 68.787"><defs><clipPath id="a"><rect width="176.782" height="68.787" fill="#fff" opacity="0"/></clipPath><filter id="b" x="1.126" y="-0.047" width="191.954" height="135.317" filterUnits="userSpaceOnUse"><feOffset dy="3" input="SourceAlpha"/><feGaussianBlur stdDeviation="5.5" result="c"/><feFlood flood-opacity="0.349"/><feComposite operator="in" in2="c"/><feComposite in="SourceGraphic"/></filter></defs><g transform="translate(0 0)" clip-path="url(#a)"><g transform="matrix(1, 0, 0, 1, 0, 0)" filter="url(#b)"><path d="M209.953,589.346c-9.224-9.973-21.969-26.122-46.985-25.739-19.056.292-27.956-2.448-27.956-2.448s-6.251,0-9.823-2.635c0,0-.893,11.418,7.144,15.81,0,0-22.312,9.805-25.333,39.525-.252,14.147,18.855,32.9,40.5,45.686,16.881,9.97,142.979-40.806,114.191-40.364C240.307,619.509,220.264,600.5,209.953,589.346Z" transform="translate(-89.37 -545.07)" fill="#fff"/></g></g><g transform="translate(22.548 10.61)"><path d="M236.8,600.574c-1.128-22.28-17.289-32.821-32.069-39.145" transform="translate(-135.844 -556.362)" fill="none" stroke="#ffc823" stroke-width="2.5"/><path d="M140.075,558.906s-6.142-1.094-9.175-4.306c0,0-2.94,11.056,4.163,16.774,0,0-19.9,9.326-21.68,36.785" transform="translate(-113.382 -554.6)" fill="none" stroke="#225782" stroke-width="2.5"/></g><g transform="translate(55.438 34.629)"><ellipse cx="3.254" cy="3.159" rx="3.254" ry="3.159" fill="#225782"/><ellipse cx="3.254" cy="3.159" rx="3.254" ry="3.159" transform="translate(18.616)" fill="#225782"/><path d="M1045.706,327.187v6.028h4.649" transform="translate(-1034.629 -322.986)" fill="none" stroke="#225782" stroke-linecap="round" stroke-width="3"/><path d="M1061.8,342.051C1054.87,353.23,1046,352.139,1046,352.139s-5.472.2-8.59-3.545" transform="translate(-1034.65 -331.415)" fill="none" stroke="#225782" stroke-linecap="round" stroke-width="3"/><path d="M-16734.332,4015.476s2.514-1.237,4.525,0" transform="translate(16761.982 -4009.787)" fill="none" stroke="#cff0f5" stroke-linecap="round" stroke-width="3"/></g></svg>