<svg data-name="구성 요소 755 – 22" xmlns="http://www.w3.org/2000/svg" width="36.416" height="29.333" viewBox="0 0 36.416 29.333">
    <g data-name="그룹 15377">
        <g data-name="그룹 15373">
            <g data-name="그룹 15375">
                <path data-name="패스 134563" d="M30.694 3.542h-3.775A2.79 2.79 0 0 1 24.593 2.3 5.147 5.147 0 0 0 20.3 0h-5.186a5.147 5.147 0 0 0-4.291 2.3A2.791 2.791 0 0 1 8.5 3.542H4.722A4.728 4.728 0 0 0 0 8.264v15.347a4.727 4.727 0 0 0 4.722 4.722h25.972a4.727 4.727 0 0 0 4.722-4.722V8.264a4.727 4.727 0 0 0-4.722-4.722m2.361 20.069a2.364 2.364 0 0 1-2.361 2.361H4.722a2.364 2.364 0 0 1-2.361-2.361V8.264A2.364 2.364 0 0 1 4.722 5.9H8.5a5.147 5.147 0 0 0 4.291-2.3 2.79 2.79 0 0 1 2.327-1.245H20.3A2.79 2.79 0 0 1 22.627 3.6a5.147 5.147 0 0 0 4.291 2.3h3.774a2.364 2.364 0 0 1 2.361 2.361z" style="fill:#fff" transform="translate(.5 .5)"/>
                <path data-name="패스 134563 - 윤곽선" d="M15.114-.5H20.3a5.646 5.646 0 0 1 4.707 2.519 2.291 2.291 0 0 0 1.91 1.023h3.774a5.228 5.228 0 0 1 5.222 5.222v15.347a5.228 5.228 0 0 1-5.222 5.222H4.722A5.228 5.228 0 0 1-.5 23.611V8.264a5.228 5.228 0 0 1 5.222-5.222H8.5a2.292 2.292 0 0 0 1.911-1.023A5.646 5.646 0 0 1 15.114-.5zm15.58 28.333a4.227 4.227 0 0 0 4.222-4.222V8.264a4.227 4.227 0 0 0-4.222-4.222h-3.775a3.289 3.289 0 0 1-2.742-1.468A4.648 4.648 0 0 0 20.3.5h-5.186a4.648 4.648 0 0 0-3.875 2.074A3.29 3.29 0 0 1 8.5 4.042H4.722A4.227 4.227 0 0 0 .5 8.264v15.347a4.227 4.227 0 0 0 4.222 4.222zM15.114 1.861H20.3a3.289 3.289 0 0 1 2.743 1.468A4.648 4.648 0 0 0 26.919 5.4h3.774a2.864 2.864 0 0 1 2.861 2.861v15.35a2.864 2.864 0 0 1-2.861 2.861H4.722a2.864 2.864 0 0 1-2.861-2.861V8.264A2.864 2.864 0 0 1 4.722 5.4H8.5a4.648 4.648 0 0 0 3.875-2.074 3.289 3.289 0 0 1 2.739-1.465zm15.58 23.611a1.863 1.863 0 0 0 1.861-1.861V8.264A1.863 1.863 0 0 0 30.694 6.4h-3.775a5.646 5.646 0 0 1-4.707-2.519 2.291 2.291 0 0 0-1.912-1.02h-5.186A2.291 2.291 0 0 0 13.2 3.884 5.646 5.646 0 0 1 8.5 6.4H4.722a1.863 1.863 0 0 0-1.861 1.864v15.347a1.863 1.863 0 0 0 1.861 1.861z" style="fill:#fff" transform="translate(.5 .5)"/>
                <path data-name="패스 134564" d="M70.051 47.251a7.969 7.969 0 1 0 7.969 7.969 7.978 7.978 0 0 0-7.969-7.969m0 14.166a6.2 6.2 0 1 1 6.2-6.2 6.2 6.2 0 0 1-6.2 6.2" transform="translate(-51.843 -39.338)" style="fill:#fff"/>
                <path data-name="패스 134565" d="M171.084 52.675a1.771 1.771 0 1 0 1.771 1.771 1.771 1.771 0 0 0-1.771-1.771" transform="translate(-142.251 -43.911)" style="fill:#fff"/>
            </g>
        </g>
        <g data-name="그룹 15376">
            <g data-name="그룹 15374">
                <path data-name="사각형 9618" transform="translate(14.94 15.445)" style="fill:#3c5a7d" d="M0 0h6.536v.715H0z"/>
                <path data-name="사각형 9618 - 윤곽선" d="M0 0h6.536v.715H0z" transform="translate(14.94 15.445)" style="fill:#3c5a7d"/>
                <path data-name="사각형 9618 - 윤곽선" d="M0 0h6.536v.715H0z" transform="translate(14.94 15.445)" style="fill:#3c5a7d"/>
                <path data-name="사각형 9618 - 윤곽선 - 윤곽선" d="M-.25-.25h7.036V.965H-.25zm6.536.5H.25v.215h6.036z" transform="translate(14.94 15.445)" style="fill:#3c5a7d"/>
                <path data-name="사각형 9619" transform="rotate(90 3.016 15.55)" style="fill:#3c5a7d" d="M0 0h6.536v.715H0z"/>
                <path data-name="사각형 9619 - 윤곽선" d="M0 0h6.536v.715H0z" transform="rotate(90 3.016 15.55)" style="fill:#3c5a7d"/>
                <path data-name="사각형 9619 - 윤곽선" d="M0 0h6.536v.715H0z" transform="rotate(90 3.016 15.55)" style="fill:#3c5a7d"/>
                <path data-name="사각형 9619 - 윤곽선 - 윤곽선" d="M-.25-.25h7.036V.965H-.25zm6.536.5H.25v.215h6.036z" transform="rotate(90 3.016 15.55)" style="fill:#3c5a7d"/>
            </g>
        </g>
    </g>
</svg>
