<svg id="_-g-btn_join_eye_off" data-name="-g-btn_join_eye_off" xmlns="http://www.w3.org/2000/svg" width="40" height="40" viewBox="0 0 40 40">
    <defs>
        <clipPath id="clip-path">
            <path id="패스_12218" data-name="패스 12218" d="m7.612 7.714 10.7 10.7h-6.945l-5.224-2.7v-4.245z" transform="translate(-6.143 -7.714)" style="fill:#fff"/>
        </clipPath>
        <style>
            .cls-3{fill:none;stroke-width:2.5px;stroke:#828ca0;stroke-linecap:round;stroke-linejoin:round}
        </style>
    </defs>
    <path id="area" style="fill:transparent" d="M0 0h40v40H0z"/>
    <g id="eye-off" transform="translate(7 9)">
        <path id="패스_12216" data-name="패스 12216" class="cls-3" d="M20.635 19.931a11.778 11.778 0 0 1-6.885 2.354C5.636 22.286 1 13.143 1 13.143a21.168 21.168 0 0 1 5.865-6.789m4.451-2.08A10.714 10.714 0 0 1 13.75 4c8.114 0 12.75 9.143 12.75 9.143a21.129 21.129 0 0 1-2.5 3.646m-7.789-1.223a3.509 3.509 0 0 1-3.4.985 3.453 3.453 0 0 1-2.509-2.474 3.4 3.4 0 0 1 1-3.357" transform="translate(-1 -1.714)"/>
        <path id="선_1066" data-name="선 1066" class="cls-3" transform="translate(1)" d="m0 0 24.357 24"/>
        <g id="마스크_그룹_7329" data-name="마스크 그룹 7329" transform="translate(6.039 6.53)" style="clip-path:url(#clip-path)">
            <circle id="타원_13522" data-name="타원 13522" cx="3" cy="3" r="3" transform="translate(3.123 2.47)" style="fill:#828ca0;stroke-width:2px;stroke:#828ca0;stroke-linecap:round;stroke-linejoin:round"/>
        </g>
    </g>
</svg>
