<svg xmlns="http://www.w3.org/2000/svg" id="_-g-ic_beststage_tv_th_24x24" width="24" height="24" viewBox="0 0 24 24">
    <defs>
        <style>
            .cls-1,.cls-2{fill:none;stroke:#788296;stroke-linecap:round;stroke-linejoin:round;stroke-width:1.8px}.cls-2{fill:#fff}
        </style>
    </defs>
    <g id="그룹_5124" transform="translate(3 3.999)">
        <g id="그룹_5123" transform="translate(0 1.529)">
            <g id="그룹_5122">
                <path id="패스_5333" d="M1395.2 753.524l-.021 2.217a3.046 3.046 0 0 0 2.82 3.1 2.985 2.985 0 0 0 3.149-2.952l.022-2.311a.963.963 0 0 0-.954-.972l-4.044-.039a.963.963 0 0 0-.972.957z" class="cls-1" transform="translate(-1383.811 -752.461)"/>
                <path id="패스_5334" d="M1375.2 753.332l-.021 2.217a3.047 3.047 0 0 0 2.82 3.1 2.986 2.986 0 0 0 3.149-2.952l.022-2.311a.963.963 0 0 0-.954-.972l-4.044-.039a.963.963 0 0 0-.972.957z" class="cls-1" transform="translate(-1375.183 -752.379)"/>
            </g>
        </g>
        <path id="패스_5335" d="M1379.939 752.505l-.034 3.507a6.182 6.182 0 0 0 5.8 6.222 5.97 5.97 0 0 0 6.138-5.91l.036-3.7a2.844 2.844 0 0 0-2.816-2.87l-6.254-.06a2.843 2.843 0 0 0-2.87 2.811z" class="cls-2" transform="translate(-1377.22 -749.69)"/>
        <path id="패스_5336" d="M1388.6 754.814l.623 1.292a.289.289 0 0 0 .217.161l1.417.219a.29.29 0 0 1 .156.5l-1.037.991a.29.29 0 0 0-.085.256l.229 1.416a.289.289 0 0 1-.423.3l-1.263-.679a.293.293 0 0 0-.27 0l-1.275.656a.29.29 0 0 1-.418-.31l.257-1.411a.292.292 0 0 0-.081-.258l-1.017-1.01a.29.29 0 0 1 .165-.493l1.421-.193a.29.29 0 0 0 .22-.156l.646-1.28a.29.29 0 0 1 .518-.001z" class="cls-1" transform="translate(-1379.651 -751.83)"/>
        <path id="사각형_3284" d="M2.7 0h2.57a2.7 2.7 0 0 1 2.7 2.7.5.5 0 0 1-.5.5H.5a.5.5 0 0 1-.5-.5A2.7 2.7 0 0 1 2.7 0z" class="cls-2" transform="translate(4.599 13.43)"/>
    </g>
    <path id="사각형_3286" fill="none" d="M0 0H24V24H0z"/>
</svg>
