<svg xmlns="http://www.w3.org/2000/svg" width="16" height="16" viewBox="0 0 16 16">
    <defs>
        <style>
            .cls-1{fill:none;stroke:#788296;stroke-linecap:round;stroke-linejoin:round}
        </style>
    </defs>
    <g id="_-g-ic_beststage_mo_pc_16x16" transform="translate(.255 .033)">
        <g id="그룹_5124" transform="translate(1.917 2.655)">
            <g id="그룹_5123" transform="translate(0 1.015)">
                <g id="그룹_5122">
                    <path id="패스_5333" d="M1395.2 753.2l-.014 1.472a2.022 2.022 0 0 0 1.872 2.06 1.982 1.982 0 0 0 2.09-1.96l.015-1.534a.639.639 0 0 0-.633-.645l-2.685-.026a.639.639 0 0 0-.645.633z" class="cls-1" transform="translate(-1387.633 -752.498)"/>
                    <path id="패스_5334" d="M1375.2 753.012l-.014 1.472a2.023 2.023 0 0 0 1.872 2.06 1.982 1.982 0 0 0 2.09-1.96l.015-1.534a.639.639 0 0 0-.633-.645l-2.685-.026a.639.639 0 0 0-.645.633z" class="cls-1" transform="translate(-1375.183 -752.379)"/>
                </g>
            </g>
            <path id="패스_5335" fill="#fff" stroke="#788296" stroke-linecap="round" stroke-linejoin="round" d="M1379.928 751.559l-.022 2.328a4.1 4.1 0 0 0 3.85 4.131 3.963 3.963 0 0 0 4.075-3.924l.024-2.46a1.888 1.888 0 0 0-1.869-1.905l-4.152-.04a1.887 1.887 0 0 0-1.906 1.87z" transform="translate(-1378.123 -749.69)"/>
            <path id="패스_5336" d="M1387.57 754.758l.413.858a.192.192 0 0 0 .144.107l.941.146a.192.192 0 0 1 .1.329l-.688.658a.193.193 0 0 0-.057.17l.152.94a.192.192 0 0 1-.281.2l-.838-.451a.2.2 0 0 0-.179 0l-.847.435a.193.193 0 0 1-.278-.206l.17-.937a.194.194 0 0 0-.054-.171l-.675-.671a.193.193 0 0 1 .11-.327l.943-.128a.192.192 0 0 0 .146-.1l.429-.85a.192.192 0 0 1 .349-.002z" class="cls-1" transform="translate(-1381.63 -752.777)"/>
            <path id="사각형_3284" d="M1.789 0H3.5a1.789 1.789 0 0 1 1.785 1.789.333.333 0 0 1-.333.333H.333A.333.333 0 0 1 0 1.789 1.789 1.789 0 0 1 1.789 0z" class="cls-1" transform="translate(3.053 8.916)"/>
        </g>
        <path id="사각형_3286" fill="none" d="M0 0H16V16H0z" transform="translate(-.255 -.033)"/>
    </g>
</svg>
