<svg id="_-g-ic_ctg_13" data-name="-g-ic_ctg_13" xmlns="http://www.w3.org/2000/svg" width="80" height="80" viewBox="0 0 80 80">
    <defs>
        <style>
            .cls-2{fill:#00c3e1;opacity:.6;stroke:#00c3e1}.cls-3{fill:#84efff;stroke:#84efff;opacity:.7;stroke-linecap:round;stroke-linejoin:round}
        </style>
    </defs>
    <g id="icon" transform="translate(-12 -2.461)">
        <path id="shape" class="cls-2" d="M-2235.168 4472.875c0-5.807 1.863-11.009 5.109-14.271a.709.709 0 0 0 .191-.5v-.625a.678.678 0 0 0-.258-.554.428.428 0 0 0-.516 0c-4.727 3.362-7.227 8.878-7.227 15.951 0 7.216 2.434 12.56 7.234 15.882a.444.444 0 0 0 .25.082.45.45 0 0 0 .262-.089.681.681 0 0 0 .254-.551v-.555a.711.711 0 0 0-.184-.488c-3.347-3.546-5.115-8.485-5.115-14.282z" transform="translate(2250.867 -4427.339)"/>
        <path id="shape-2" data-name="shape" class="cls-2" d="M-2206.725 4456.924a.43.43 0 0 0-.514 0 .682.682 0 0 0-.256.554v.625a.708.708 0 0 0 .191.5c3.246 3.263 5.107 8.464 5.107 14.272s-1.77 10.736-5.117 14.281a.726.726 0 0 0-.181.489v.555a.678.678 0 0 0 .254.55.441.441 0 0 0 .26.09.443.443 0 0 0 .251-.082c4.8-3.323 7.234-8.667 7.234-15.883-.004-7.075-2.498-12.589-7.229-15.951z" transform="translate(2280.496 -4427.34)"/>
        <path id="b" class="cls-3" d="M152.106 85.735a8.95 8.95 0 0 1-2.214 5.875 7.882 7.882 0 0 1-2.315 1.792 5.977 5.977 0 0 1-2.732.652 8.931 8.931 0 0 1-1.916-.183 5.39 5.39 0 0 1-1.41-.5 4.07 4.07 0 0 1-.987-.74 5.694 5.694 0 0 1-.708-.918l3.26-14.328.107-.5a2.041 2.041 0 0 0 .044-.424 1.347 1.347 0 0 0-.152-.7.957.957 0 0 0-.429-.373 2.243 2.243 0 0 0-.669-.152q-.4-.038-.821-.089l.176-.772 4.67-.278.126.189-1.911 8.4h.051a8.284 8.284 0 0 1 2.008-1.4 4.151 4.151 0 0 1 1.691-.386A3.745 3.745 0 0 1 151 82.209a5.3 5.3 0 0 1 1.106 3.526zm-2.606.065a7.691 7.691 0 0 0-.121-1.349 3.255 3.255 0 0 0-.4-1.134 2.1 2.1 0 0 0-.8-.76 2.579 2.579 0 0 0-1.255-.279 2.3 2.3 0 0 0-.837.152 5.185 5.185 0 0 0-.811.405 4.722 4.722 0 0 0-.716.551q-.349.323-.64.576l-1.683 7.509a1.493 1.493 0 0 0 .228.557 2.056 2.056 0 0 0 .481.532 2.548 2.548 0 0 0 .8.443 2.992 2.992 0 0 0 .976.152 3.326 3.326 0 0 0 1.882-.589 5.261 5.261 0 0 0 1.514-1.589 8.259 8.259 0 0 0 1.039-2.431 11.081 11.081 0 0 0 .343-2.746z" transform="translate(-80.893 -39.594)"/>
        <path id="a" class="cls-3" d="M142.324 153.482h-.088q-.278.228-.662.575a6.042 6.042 0 0 1-.9.664 6.4 6.4 0 0 1-1.072.55 3.342 3.342 0 0 1-1.261.234 3.457 3.457 0 0 1-2.869-1.315 5.635 5.635 0 0 1-1.041-3.59 8.266 8.266 0 0 1 .581-3.047 9.051 9.051 0 0 1 1.6-2.655 7.652 7.652 0 0 1 2.309-1.814 5.941 5.941 0 0 1 2.751-.689 6.013 6.013 0 0 1 1.71.24 4.979 4.979 0 0 1 1.281.543l2.318-.594.152.19-1.924 8.155q-.1.392-.208.955a4.937 4.937 0 0 0-.107.828 1.232 1.232 0 0 0 .3.974 1.614 1.614 0 0 0 1.025.253 4.362 4.362 0 0 0 .683-.076 4.07 4.07 0 0 0 .683-.164l-.19.808q-1.139.455-1.7.657a3.988 3.988 0 0 1-1.354.2 1.951 1.951 0 0 1-1.443-.531 2.015 2.015 0 0 1-.574-1.351zm1.82-7.99a3.507 3.507 0 0 0-.088-.8 1.684 1.684 0 0 0-.366-.708 1.753 1.753 0 0 0-.695-.506 2.836 2.836 0 0 0-1.112-.19 3.1 3.1 0 0 0-1.794.607 6.177 6.177 0 0 0-1.567 1.631 8.5 8.5 0 0 0-1.074 2.327 9.767 9.767 0 0 0-.329 4.135 3.494 3.494 0 0 0 .34 1.087 1.746 1.746 0 0 0 .693.746 2.245 2.245 0 0 0 1.147.265 3.243 3.243 0 0 0 1.481-.4 7.159 7.159 0 0 0 1.746-1.4z" transform="translate(-111.588 -101.044)"/>
        <path id="shape-3" data-name="shape" d="M24370.5 16675a1.5 1.5 0 0 1-1.5-1.5v-4.5h-4.5a1.5 1.5 0 0 1-1.5-1.5v-1a1.5 1.5 0 0 1 1.5-1.5h4.5v-4.5a1.5 1.5 0 0 1 1.5-1.5h1a1.5 1.5 0 0 1 1.5 1.5v4.5h4.5a1.5 1.5 0 0 1 1.5 1.5v1a1.5 1.5 0 0 1-1.5 1.5h-4.5v4.5a1.5 1.5 0 0 1-1.5 1.5z" transform="translate(-24323.502 -16620.543)" style="fill:#00c3e1;opacity:.6"/>
        <path id="패스_11562" data-name="패스 11562" d="M-2445.143 4551.885h-5.782a1.108 1.108 0 0 1-1.108-1.108 1.109 1.109 0 0 1 .3-.759l3.38-3.6a9.092 9.092 0 0 0 1.124-1.445 2.323 2.323 0 0 0 .363-1.172 1.737 1.737 0 0 0-.382-1.191 1.387 1.387 0 0 0-1.094-.434 1.494 1.494 0 0 0-1.207.527 2.1 2.1 0 0 0-.351.672.947.947 0 0 1-.886.712h-.412a.918.918 0 0 1-.871-1.2 3.784 3.784 0 0 1 .313-.7 3.5 3.5 0 0 1 1.4-1.348 4.27 4.27 0 0 1 2.053-.483 4.033 4.033 0 0 1 2.73.844 2.983 2.983 0 0 1 .973 2.387 3.829 3.829 0 0 1-.437 1.719 9.548 9.548 0 0 1-1.5 2.039l-2.586 2.722h3.98a.91.91 0 0 1 .91.91.909.909 0 0 1-.91.908z" transform="translate(2535.213 -4516.885)" style="fill:#84efff;stroke:#84efff;opacity:.7"/>
    </g>
</svg>
