<svg id="_-g-ic_ctg_09" data-name="-g-ic_ctg_09" xmlns="http://www.w3.org/2000/svg" width="80" height="80" viewBox="0 0 80 80">
    <defs>
        <style>
            .cls-3{fill:#00c3e1;opacity:.9}
        </style>
    </defs>
    <g id="icon" transform="translate(-12 -1)">
        <path id="합치기_256" data-name="합치기 256" d="M1.8 12.5A1.8 1.8 0 0 1 0 10.7v-.9A1.8 1.8 0 0 1 1.8 8h12.4A1.8 1.8 0 0 1 16 9.8v.9a1.8 1.8 0 0 1-1.8 1.8zm0-7.5A1.8 1.8 0 0 1 0 3.2v-.9A1.8 1.8 0 0 1 1.8.5h12.4A1.8 1.8 0 0 1 16 2.3v.9A1.8 1.8 0 0 1 14.2 5z" transform="translate(44 34.5)" style="fill:#84efff;opacity:.7"/>
        <path id="패스_6588" data-name="패스 6588" class="cls-3" d="M14.1 6.422a4.481 4.481 0 0 1 7.686 0L31.8 23.108a4.482 4.482 0 0 1-3.848 6.792H7.93a4.482 4.482 0 0 1-3.843-6.788z" transform="translate(59.559 23.754)"/>
        <path id="패스_6590" data-name="패스 6590" class="cls-3" d="M-300.206 90.423a1.614 1.614 0 0 1-.535.208 1.489 1.489 0 0 1-.232-.342 12.616 12.616 0 0 1-.888-2.772c-.241-1-.542-2.494-.9-4.443.9-1.337 1.75-2.631 2.509-3.841q1.467-2.281 2.086-3.2a10.444 10.444 0 0 1 .895-1.187c.146-.157.234-.225.24-.235a.493.493 0 0 1 .07-.009.883.883 0 0 1 .085.078 5.675 5.675 0 0 1 .35.575 2.9 2.9 0 0 0 3.647 1.214 2.821 2.821 0 0 0 1.144-4.345 7.3 7.3 0 0 0-1.311-1.407 6.136 6.136 0 0 0-3.3-.866 7.479 7.479 0 0 0-4.828 1.865 15.9 15.9 0 0 0-2.9 3.334 12.854 12.854 0 0 0-.652-2.036 5.579 5.579 0 0 0-1.243-1.891 4.3 4.3 0 0 0-1.784-1.037 6.789 6.789 0 0 0-1.851-.235 7.065 7.065 0 0 0-3.5.932 22.528 22.528 0 0 0-2.751 2.361 2.274 2.274 0 0 0 .029 3.337 2.36 2.36 0 0 0 3.226-.04c.6-.582 1.163-1.116 1.233-1.158a1.44 1.44 0 0 1 .53-.2 2.273 2.273 0 0 1 .419.761 17.459 17.459 0 0 1 .711 2.467c.234 1.02.511 2.392.828 4.084a202.868 202.868 0 0 0-2.641 4.062q-1.467 2.281-2.086 3.2a10.223 10.223 0 0 1-.9 1.19c-.143.155-.23.221-.236.231s-.035.006-.071.009a1.06 1.06 0 0 1-.085-.078 5.675 5.675 0 0 1-.35-.575 2.9 2.9 0 0 0-3.647-1.214 2.821 2.821 0 0 0-1.144 4.345 7.324 7.324 0 0 0 1.315 1.411 6.152 6.152 0 0 0 3.292.863 6.827 6.827 0 0 0 1.94-.281 7.849 7.849 0 0 0 1.852-.834 10.218 10.218 0 0 0 1.843-1.486 16.215 16.215 0 0 0 1.809-2.2c.136-.185.279-.39.432-.616.025.1.048.195.073.289a10.529 10.529 0 0 0 1.1 2.822 4.722 4.722 0 0 0 1.83 1.767 5.519 5.519 0 0 0 2.576.551 7.071 7.071 0 0 0 3.479-.921 22.374 22.374 0 0 0 2.775-2.372 2.275 2.275 0 0 0-.028-3.338 2.36 2.36 0 0 0-3.225.04c-.598.585-1.159 1.12-1.23 1.163z" transform="translate(333.631 -42.854)"/>
    </g>
</svg>
