<svg id="_-g-ic_ctg_10" data-name="-g-ic_ctg_10" xmlns="http://www.w3.org/2000/svg" width="80" height="80" viewBox="0 0 80 80">
    <defs>
        <style>
            .cls-3{fill:#00c3e1;opacity:.9}
        </style>
    </defs>
    <g id="icon" transform="translate(-39.499 -41.5)">
        <path id="합치기_257" data-name="합치기 257" d="M23793.7 17495.5a3.2 3.2 0 0 1-3.2-3.2v-1.605a3.2 3.2 0 0 1 3.2-3.2h1.6a3.2 3.2 0 0 1 3.2 3.2v1.605a3.2 3.2 0 0 1-3.2 3.2zm0-14a3.2 3.2 0 0 1-3.2-3.2v-1.607a3.2 3.2 0 0 1 3.2-3.2h1.6a3.2 3.2 0 0 1 3.2 3.2v1.607a3.2 3.2 0 0 1-3.2 3.2z" transform="translate(-23716 -17402.502)" style="fill:#84efff;opacity:.7"/>
        <path id="패스_6566" data-name="패스 6566" class="cls-3" d="M14.465 6.5a4.635 4.635 0 0 1 7.951 0l10.357 17.258A4.636 4.636 0 0 1 28.8 30.78H8.084a4.636 4.636 0 0 1-3.976-7.022z" transform="translate(85.059 64.254)"/>
        <rect id="사각형_4534" data-name="사각형 4534" class="cls-3" width="28" height="28" rx="14" transform="rotate(90 .5 68)"/>
    </g>
</svg>
