<svg id="_-g-ic_ctg_01" data-name="-g-ic_ctg_01" xmlns="http://www.w3.org/2000/svg" width="80" height="80" viewBox="0 0 80 80">
    <defs>
        <style>
            .cls-2{fill:#84efff;stroke:#84efff;stroke-width:3px;opacity:.7}.cls-3{fill:#00c3e1;opacity:.6}
        </style>
    </defs>
    <g id="icon" transform="translate(0 -166.5)">
        <path id="패스_6560" data-name="패스 6560" class="cls-2" d="M914.782 27.38c.831-.209 2.375-.209 2.834.752.459 1.128.25 3.093.25 4.3v19.346c0 1.17.292 2.758-.876 3.594a3.843 3.843 0 0 1-3.252.247c-1-.331-1.047-1.463-1.047-2.379-.372-7.31-.247-12.244-.247-19.679-.167.5-3.046.961-3.505.961-1.461.167-2.834-.167-3-1.877-.209-1.755.956-2.716 2.584-3.218 1.753-.585 3.464-1.3 5.217-1.8.371-.08.705-.206 1.042-.247z" transform="translate(-903.914 168.233)"/>
        <path id="패스_6561" data-name="패스 6561" class="cls-2" d="M911.1 34.959a9.07 9.07 0 0 1 2.932-5.2 11.379 11.379 0 0 1 9.846-1.986c4.21 1.311 6.669 4.167 6.669 8.7 0 4.287-1.469 6.587-6.272 10.519-.794.675-1.668 1.39-2.5 2.062-.556.44-3.531 1.867-1.625 2.026 1.152.079 1.625 0 2.777 0 1.35 0 2.7-.119 4.011 0 1.069.079 2.661-.2 3.5.516a3.051 3.051 0 0 1 .156 3.575c-.675.791-1.787.556-2.7.556h-14.257a5.716 5.716 0 0 1-1.668-.043c-.953-.235-.675-1.109-.675-1.9 0-2.7 2.9-4.449 4.806-6.034 1.387-1.231 3.055-2.423 4.484-3.654 3.73-3.095 5.081-4.843 5.081-7.262a4.042 4.042 0 0 0-4.366-4.21 5.545 5.545 0 0 0-4.607 2.344c-.318.556-.593 1.231-.953 1.744-1.549 2.454-4.839.788-4.639-1.753z" transform="translate(-884.065 168.13)"/>
        <path id="패스_6562" data-name="패스 6562" class="cls-2" d="M918.244 30.22a2.316 2.316 0 0 1 .611-1.617c1.212-1.094 2.508-1.053 4.087-1.134 1.212-.041 2.106 0 3.318 0 1.9 0 4.293.081 6.278.162 1.617.081 3.358.648 3.439 2.511.118 2.143-1.661 3.966-2.956 5.262-.659.684-1.487 1.471-2.521 2.462-.4.382-1.013.974-1.526 1.5 4.249.567 8.134 2.673 8.134 7.855s-4.209 9.107-10 9.107c-2.508 0-5.91-.807-7.769-2.711-1.3-1.256-2.025-3.926.162-4.7 1.617-.567 2.994.442 4.29 1.175a5.92 5.92 0 0 0 6.355.321 3.186 3.186 0 0 0-.162-5.667c-2.062-1.212-5.14-.483-6.8-2.346-1.822-2.106 2.025-4.9 3.277-6.316.81-.81 2.146-2.187 2.349-3 .324-.891-1.539-.608-2.183-.608h-2.714c-1.458 0-3.929.243-5.14-.807a1.8 1.8 0 0 1-.529-1.449z" transform="translate(-859.52 168.049)"/>
    </g>
    <circle id="타원_1203" data-name="타원 1203" class="cls-3" cx="4" cy="4" r="4" transform="translate(25 34)"/>
    <circle id="타원_1204" data-name="타원 1204" class="cls-3" cx="4" cy="4" r="4" transform="translate(57 48.8)"/>
    <circle id="타원_1205" data-name="타원 1205" class="cls-3" cx="4.25" cy="4.25" r="4.25" transform="translate(7 50.999)"/>
</svg>
