<svg data-name="-g-ic_ctg_02" xmlns="http://www.w3.org/2000/svg" width="80" height="80" viewBox="0 0 80 80">
    <path data-name="합치기 240" d="M24379 16712a7 7 0 0 1-7-7v-15h-15a7 7 0 0 1-7-7v-2a7 7 0 0 1 7-7h15v-15a6.994 6.994 0 0 1 7-7h2a6.994 6.994 0 0 1 7 7v15h15a7 7 0 0 1 7 7v2a7 7 0 0 1-7 7h-15v15a7 7 0 0 1-7 7z" transform="translate(-24340 -16642)" style="fill:#84efff;opacity:.7"/>
    <path data-name="합치기 239" d="M24357 16690a7 7 0 0 1-7-6.994v-2a7 7 0 0 1 7-7h24a7 7 0 0 1 7 7v2a7 7 0 0 1-7 6.994zm22-22a7 7 0 0 1-7-7v-2a7 7 0 0 1 7-7h2a7 7 0 0 1 7 7v2a7 7 0 0 1-7 7z" transform="translate(-24340 -16642)" style="fill:#00c3e1;opacity:.6"/>
</svg>
