<svg data-name="-g-ic_ctg_12" xmlns="http://www.w3.org/2000/svg" width="80" height="80" viewBox="0 0 80 80">
    <g transform="translate(-32.5 -42.889)">
        <path d="M2265.678 1733.687a5 5 0 0 1-4.068-2.094l-6.573-9.2a5 5 0 0 1-6.894-7.24l4-4a5 5 0 0 1 7.6.629l5.021 7.032 10.379-22.24a5 5 0 0 1 4.531-2.885h26a5 5 0 0 1 0 10h-22.816l-12.654 27.114a5 5 0 0 1-4.072 2.865q-.226.019-.454.019z" transform="translate(-2206.178 -1629.798)" style="fill:#84efff;stroke:#84efff;stroke-width:2px;opacity:.7"/>
        <rect data-name="shape" width="19" height="12" rx="5" transform="translate(86.5 62.889)" style="fill:#00c3e1;opacity:.6"/>
    </g>
</svg>
