<svg id="_-g-ic_ctg_14" data-name="-g-ic_ctg_14" xmlns="http://www.w3.org/2000/svg" width="80" height="80" viewBox="0 0 80 80">
    <defs>
        <style>
            .cls-3{opacity:.7;fill:#00c3e1;stroke:#00c3e1}
        </style>
    </defs>
    <g id="icon" transform="translate(-41.5 -39.948)">
        <path id="shape" d="M-2207.415 4461.01a6.007 6.007 0 0 0-1.122-1.192 5.2 5.2 0 0 0-2.762-.726 6.22 6.22 0 0 0-4.01 1.547 12.935 12.935 0 0 0-2.031 2.234 10.069 10.069 0 0 0-.385-1.1 4.681 4.681 0 0 0-1.051-1.6 3.692 3.692 0 0 0-1.532-.889 5.612 5.612 0 0 0-1.472-.2 5.846 5.846 0 0 0-3.007.791 18.234 18.234 0 0 0-2.216 1.9 2.059 2.059 0 0 0-.649 1.444 2.06 2.06 0 0 0 .563 1.482c.036.037.073.073.113.108a2.142 2.142 0 0 0 2.921-.036c.545-.53.889-.85.94-.889a.981.981 0 0 1 .18-.087 1.632 1.632 0 0 1 .195.4 13.853 13.853 0 0 1 .557 1.93c.177.773.391 1.829.637 3.138-.614.918-1.3 1.978-2.046 3.149q-1.166 1.812-1.66 2.546a7.8 7.8 0 0 1-.689.912l-.009.01a4.27 4.27 0 0 1-.169-.291 2.567 2.567 0 0 0-3.226-1.076 2.508 2.508 0 0 0-1.357 3.271 2.5 2.5 0 0 0 .334.577 6.087 6.087 0 0 0 1.125 1.195 5.159 5.159 0 0 0 2.635.725 5.916 5.916 0 0 0 1.737-.236 6.511 6.511 0 0 0 1.538-.692 8.365 8.365 0 0 0 1.513-1.221 13 13 0 0 0 1.465-1.778l.023-.033a8.665 8.665 0 0 0 .823 2 4.035 4.035 0 0 0 1.567 1.507 4.662 4.662 0 0 0 2.028.466 6.129 6.129 0 0 0 3.057-.783 18.232 18.232 0 0 0 2.235-1.911 2.073 2.073 0 0 0 .086-2.927 1.903 1.903 0 0 0-.112-.108 2.142 2.142 0 0 0-2.922.037c-.526.514-.873.841-.941.895a.982.982 0 0 1-.184.088.942.942 0 0 1-.049-.085 9.8 9.8 0 0 1-.69-2.16c-.182-.753-.415-1.9-.694-3.419a115.577 115.577 0 0 0 1.942-2.975q1.164-1.811 1.659-2.547a8.285 8.285 0 0 1 .685-.909l.011-.011c.058.093.114.188.168.291a2.576 2.576 0 0 0 3.226 1.076 2.508 2.508 0 0 0 1.358-3.271 2.443 2.443 0 0 0-.336-.567z" transform="translate(2314.389 -4380.551)" style="opacity:.7;fill:#84efff"/>
        <path id="shape-2" data-name="shape" class="cls-3" d="M-2235.168 4469.869a14.768 14.768 0 0 1 5.109-11.6.522.522 0 0 0 .191-.4v-.508a.519.519 0 0 0-.258-.45.508.508 0 0 0-.516 0c-4.727 2.731-7.227 7.213-7.227 12.96 0 5.863 2.434 10.2 7.234 12.9a.515.515 0 0 0 .25.066.519.519 0 0 0 .262-.073.52.52 0 0 0 .254-.447v-.451a.522.522 0 0 0-.184-.4 14.811 14.811 0 0 1-5.115-11.597z" transform="translate(2312.367 -4380.891)"/>
        <path id="shape-3" data-name="shape" class="cls-3" d="M-2206.725 4456.908a.511.511 0 0 0-.514 0 .521.521 0 0 0-.256.45v.508a.521.521 0 0 0 .191.4 14.768 14.768 0 0 1 5.107 11.6 14.812 14.812 0 0 1-5.117 11.6.53.53 0 0 0-.181.4v.451a.518.518 0 0 0 .254.447.512.512 0 0 0 .26.073.517.517 0 0 0 .251-.066c4.8-2.7 7.234-7.042 7.234-12.9-.004-5.749-2.498-10.231-7.229-12.963z" transform="translate(2316.996 -4380.891)"/>
        <path id="shape-4" data-name="shape" d="M-2235.5 4454.53v-.23a2 2 0 0 0-2-2h-3.717c.2-.806.36-1.37.476-1.788l.127-.463c1.366-4.591 3.3-6.831 4.068-7.578a6.112 6.112 0 0 1 2.381-1.456l.75 1.256a5.4 5.4 0 0 0 3.24 2.692 3.038 3.038 0 0 0 3.815-1.6l.03-.062v-.069c-.112-1.875-1.95-3.608-4.571-4.312a8.944 8.944 0 0 0-7.63 1c-1.9 1.185-5.338 4.144-7.08 10.639-.132.412-.292.953-.5 1.748h-4.177a2.113 2.113 0 0 0-2.113 2.112 2.112 2.112 0 0 0 2.113 2.112h3.207a302.482 302.482 0 0 0-.959 4.722c-1.425 7.3-2.139 9.877-2.523 11.261l-.128.468c-1.365 4.588-3.3 6.829-4.068 7.578a6.108 6.108 0 0 1-2.4 1.462l-.726-1.257a5.177 5.177 0 0 0-3.192-2.685 3.066 3.066 0 0 0-3.866 1.59l-.031.062v.069c.113 1.876 1.93 3.6 4.521 4.3a11.155 11.155 0 0 0 2.891.4 8.956 8.956 0 0 0 4.855-1.424c1.873-1.173 5.276-4.113 7.012-10.6a99.4 99.4 0 0 0 2.4-10.6 239.09 239.09 0 0 1 1.1-5.354h4.7a2 2 0 0 0 1.995-1.993z" transform="translate(2310.479 -4381.551)" style="stroke:#84efff;stroke-width:2px;opacity:.7;fill:#84efff"/>
    </g>
</svg>
