<svg xmlns="http://www.w3.org/2000/svg" width="24" height="24" viewBox="0 0 24 24">
    <path fill="#506e91" d="M3.065 15.452a1.818 1.818 0 0 1-.558-1.352 1.878 1.878 0 0 1 .553-1.377 2.112 2.112 0 0 1 1.554-.564 2.152 2.152 0 0 1 1.561.559 1.858 1.858 0 0 1 .57 1.382 1.8 1.8 0 0 1-.574 1.355A2.18 2.18 0 0 1 4.613 16a2.138 2.138 0 0 1-1.548-.548zm-.013-5.8c0-2.273 3.145-3.336 3.283-5.311.072-1.017-.641-1.541-1.651-1.469C2.932 3 3.166 4.661 1.649 4.661A1.5 1.5 0 0 1 0 3.137C0 1.59 1.976 0 4.684 0 7.261 0 9.6 1.192 9.6 4.248c0 2.9-2.31 3.713-3.216 5.372-.149.273-.167.558-.378.941-.192.349-.465.669-1.328.669a1.5 1.5 0 0 1-1.626-1.573z" transform="translate(7 4)"/>
</svg>
