<svg xmlns="http://www.w3.org/2000/svg" width="32" height="32" viewBox="0 0 32 32">
    <path fill="#ff6b5f" d="M2158.875 4411.875c6.576 0 8.958-4.881 8.958-8.295 0-5.474-4.882-8.347-6.417-10.372-1.828-2.412-1.307-3.333-1.956-3.333-.851 0-4.475 3.131-4.475 6.518 0 1.5.428 2.409-.088 2.576-1.028.333-2.569-2.273-2.888-2.273-.454 0-2.176 2.585-2.176 6.263 0 5.926 5.215 8.916 9.042 8.916z" transform="translate(-2142.832 -4384.876)"/>
    <path fill="#ff6b5f" stroke="#fb594b" stroke-miterlimit="10" d="M2158.875 4411.875c6.576 0 8.958-4.881 8.958-8.295 0-5.474-4.882-8.347-6.417-10.372-1.828-2.412-1.307-3.333-1.956-3.333-.851 0-4.475 3.131-4.475 6.518 0 1.5.428 2.409-.088 2.576-1.028.333-2.569-2.273-2.888-2.273-.454 0-2.176 2.585-2.176 6.263 0 5.926 5.215 8.916 9.042 8.916z" transform="translate(-2142.832 -4384.876)"/>
    <path fill="#fff" d="M2183.843 4455.776c3.289 0 4.479-2.219 4.479-3.771 0-2.488-2.441-3.793-3.208-4.714-.914-1.1-.654-1.515-.978-1.515a3.742 3.742 0 0 0-2.238 2.962c0 .679.214 1.1-.044 1.171-.514.151-1.284-1.033-1.444-1.033a3.515 3.515 0 0 0-1.088 2.847c0 2.694 2.608 4.053 4.521 4.053z" transform="translate(-2167.322 -4431.776)"/>
</svg>
