<svg data-name="-g-ic_home_inprogress_th" xmlns="http://www.w3.org/2000/svg" width="19.354" height="19.354" viewBox="0 0 19.354 19.354">
    <path data-name="패스 2882" d="M2157.631 4408.02c5.671 0 7.725-4.025 7.725-6.841 0-4.515-4.211-6.885-5.534-8.555-1.577-1.989-1.128-2.749-1.687-2.749-.734 0-3.86 2.583-3.86 5.376 0 1.233.369 1.986-.076 2.125-.886.274-2.216-1.875-2.49-1.875-.392 0-1.876 2.133-1.876 5.165 0 4.887 4.498 7.354 7.798 7.354z" transform="translate(-2147.486 -4389.234)" style="fill:#ff6b5f;stroke:#fb594b;stroke-miterlimit:10"/>
    <path data-name="패스 2814" d="M2183.229 4454.419c2.842 0 3.871-1.917 3.871-3.259 0-2.15-2.11-3.279-2.773-4.075-.79-.949-.565-1.31-.845-1.31a3.235 3.235 0 0 0-1.934 2.56c0 .587.185.947-.038 1.012-.444.131-1.11-.893-1.248-.893a3.039 3.039 0 0 0-.94 2.46c0 2.331 2.254 3.505 3.907 3.505z" transform="translate(-2173.064 -4437.878)" style="fill:#fff"/>
</svg>
