<svg xmlns="http://www.w3.org/2000/svg" id="_-g-ic_handremove" width="40" height="40" viewBox="0 0 40 40">
    <defs>
        <style>
            .cls-2{fill:none;stroke:#fff;stroke-linecap:round;stroke-miterlimit:10;stroke-width:3px}
        </style>
    </defs>
    <g id="ic" transform="translate(10.298 9.257)">
        <path id="선_932" d="M0 0L24 0" class="cls-2" transform="translate(-2.295 2.74)"/>
        <path id="패스_10326" d="M1553.844 1549.474l-1.363 17.055a3.2 3.2 0 0 1-3.189 2.945h-9.892a3.2 3.2 0 0 1-3.191-2.945l-1.363-17.055" class="cls-2" transform="translate(-1534.641 -1546.732)"/>
        <path id="선_933" d="M0 0L0.5 7" class="cls-2" transform="translate(6.703 8.74)"/>
        <path id="선_934" d="M0.5 0L0 7" class="cls-2" transform="translate(12.203 8.74)"/>
        <path id="패스_10325" d="M1548.106 1549.474h-8l.555-3.329a2 2 0 0 1 1.973-1.671h2.945a2 2 0 0 1 1.973 1.671z" class="cls-2" transform="translate(-1534.402 -1546.732)"/>
    </g>
</svg>
