<svg xmlns="http://www.w3.org/2000/svg" width="56" height="56" viewBox="0 0 56 56">
    <g>
        <path fill="#4d2d0d" d="M-16.586-20.183a2.408 2.408 0 0 1 1.39.377 1.368 1.368 0 0 1 .55 1.217V-.832A1.368 1.368 0 0 1-15.2.384a2.252 2.252 0 0 1-1.3.377 2.252 2.252 0 0 1-1.3-.377 1.368 1.368 0 0 1-.55-1.217v-15.005l-3.737 2.144a1.549 1.549 0 0 1-1.362.159 1.867 1.867 0 0 1-.985-.884 1.854 1.854 0 0 1-.2-1.246 1.458 1.458 0 0 1 .782-1.043l4.9-2.723a7.8 7.8 0 0 1 1.3-.579 3.55 3.55 0 0 1 1.066-.173zm17.149-.145a9.6 9.6 0 0 1 3.056.435 6.139 6.139 0 0 1 2.115 1.159 4.443 4.443 0 0 1 1.217 1.694 5.338 5.338 0 0 1 .391 2.013v.319a6.953 6.953 0 0 1-.768 3.172 11.849 11.849 0 0 1-2.245 3l-6.112 6.052h8.777a1.126 1.126 0 0 1 .985.449A1.828 1.828 0 0 1 8.3-.948 1.828 1.828 0 0 1 7.979.138a1.126 1.126 0 0 1-.985.449H-4.043a3.2 3.2 0 0 1-2-.492 1.823 1.823 0 0 1-.607-1.507 1.646 1.646 0 0 1 .25-.869 5.59 5.59 0 0 1 .71-.9l6.717-6.776a17.079 17.079 0 0 0 1.3-1.434 7.72 7.72 0 0 0 .782-1.173 3.946 3.946 0 0 0 .391-1.058 5.381 5.381 0 0 0 .1-1.057v-.145a1.976 1.976 0 0 0-.734-1.576 3.423 3.423 0 0 0-2.245-.623 4.357 4.357 0 0 0-2.173.492 5.483 5.483 0 0 0-1.622 1.477 1.494 1.494 0 0 1-1.014.637 1.623 1.623 0 0 1-1.188-.319 1.841 1.841 0 0 1-.753-1.014 1.515 1.515 0 0 1 .261-1.275 7.8 7.8 0 0 1 2.549-2.361 7.506 7.506 0 0 1 3.882-.942zm19 0a9.734 9.734 0 0 1 3.071.435 6.457 6.457 0 0 1 2.166 1.158 4.487 4.487 0 0 1 1.26 1.68 5.067 5.067 0 0 1 .406 2v.145a5.336 5.336 0 0 1-.232 1.55 5.068 5.068 0 0 1-.681 1.419 4.826 4.826 0 0 1-1.086 1.13 4.883 4.883 0 0 1-1.448.739 6.734 6.734 0 0 1 1.593.435A4.545 4.545 0 0 1 26-8.755a4.136 4.136 0 0 1 .97 1.39 4.841 4.841 0 0 1 .362 1.955v.29a5.513 5.513 0 0 1-.492 2.3A5.524 5.524 0 0 1 25.389-.9 7.2 7.2 0 0 1 23.014.413a9.973 9.973 0 0 1-3.274.493 12.649 12.649 0 0 1-3.128-.362A9.253 9.253 0 0 1 13.918-.63a1.588 1.588 0 0 1-.768-1.115 1.86 1.86 0 0 1 .275-1.289 1.642 1.642 0 0 1 .985-.811 1.611 1.611 0 0 1 1.246.261 7.342 7.342 0 0 0 1.883.927 6.742 6.742 0 0 0 1.941.257 7.371 7.371 0 0 0 1.941-.217 3.41 3.41 0 0 0 1.26-.608 2.308 2.308 0 0 0 .7-.927 3.016 3.016 0 0 0 .217-1.144v-.232a2.515 2.515 0 0 0-.985-2.187 5.618 5.618 0 0 0-3.215-.71h-1.54a1.143 1.143 0 0 1-1.014-.463 1.946 1.946 0 0 1-.319-1.13 1.946 1.946 0 0 1 .319-1.13 1.143 1.143 0 0 1 1.014-.463h1.217a4.507 4.507 0 0 0 2.853-.739 2.717 2.717 0 0 0 .913-2.245v-.087a2.164 2.164 0 0 0-.782-1.753 3.923 3.923 0 0 0-2.52-.652 4.158 4.158 0 0 0-1.782.348 6.384 6.384 0 0 0-1.492 1.014 1.481 1.481 0 0 1-1.188.42 1.489 1.489 0 0 1-1.043-.594 1.547 1.547 0 0 1-.391-1.13 1.911 1.911 0 0 1 .449-1.1 6.661 6.661 0 0 1 2.288-1.608 7.917 7.917 0 0 1 3.187-.591z" transform="translate(-883 -726) translate(909.67 764)"/>
    </g>
</svg>
