<svg xmlns="http://www.w3.org/2000/svg" id="ic_keypad_delete" width="48" height="48" viewBox="0 0 48 48">
    <defs>
        <style>
            .cls-3{fill:none;stroke:#00c3e1;stroke-width:3px;stroke-linecap:round;stroke-linejoin:round}
        </style>
    </defs>
    <g id="ic" transform="translate(3 9)">
        <path id="패스_6951" d="M333.3 714.387l-8.8-12a3 3 0 0 1 0-3.548l8.8-12a3 3 0 0 1 2.419-1.226h27.23a3 3 0 0 1 3 3v24a3 3 0 0 1-3 3h-27.226a3 3 0 0 1-2.423-1.226z" transform="translate(-323.92 -685.612)" style="isolation:isolate" fill="none" stroke="#00c3e1" stroke-miterlimit="10" stroke-width="3px" opacity="0.97"/>
        <path id="선_706" d="M0 0L10 10" class="cls-3" transform="translate(19.03 10)"/>
        <path id="선_707" d="M10 0L0 10" class="cls-3" transform="translate(19.03 10)"/>
    </g>
</svg>
