<svg xmlns="http://www.w3.org/2000/svg" width="48" height="46" viewBox="0 0 48 46">
    <g data-name="그룹 15041">
        <path data-name="패스 12186" d="M4.7 11.1H1.5a1.5 1.5 0 0 1 0-3h3.2a1.5 1.5 0 0 1 0 3" transform="translate(7 6)" style="fill:#fff"/>
        <path data-name="패스 12188" d="M27.691 27H23.9a1.5 1.5 0 0 1-1.5-1.5v-3.79a1.5 1.5 0 0 1 .439-1.061l7.927-7.926a4.179 4.179 0 1 1 5.91 5.911l-7.924 7.927a1.5 1.5 0 0 1-1.061.439M25.4 24h1.669l7.485-7.487a1.181 1.181 0 0 0 0-1.669 1.207 1.207 0 0 0-1.668 0l-3.744 3.744-3.742 3.744z" transform="translate(6.84 5.198)" style="fill:#fff"/>
        <path data-name="패스 12189" d="M4.7 17.1H1.5a1.5 1.5 0 0 1 0-3h3.2a1.5 1.5 0 0 1 0 3" transform="translate(7 6)" style="fill:#fff"/>
        <path data-name="패스 12190" d="M4.7 23.1H1.5a1.5 1.5 0 0 1 0-3h3.2a1.5 1.5 0 0 1 0 3" transform="translate(7 6)" style="fill:#fff"/>
        <path data-name="패스 12191" d="M12.47 23.668a1 1 0 0 1-.912-1.411 9.318 9.318 0 0 0 .75-4.99 2.823 2.823 0 0 0-.067-.257 6.547 6.547 0 0 0-.963 1.337 1 1 0 0 1-1.756-.956c.565-1.042 1.721-2.767 3.112-2.552.831.124 1.385.831 1.646 2.1a11.6 11.6 0 0 1-.034 3.209l2.064-1.492a1 1 0 1 1 1.172 1.621l-4.426 3.2a1 1 0 0 1-.586.189" transform="translate(7 3.932)" style="fill:#fff"/>
        <path data-name="패스 12192" d="M19.532 18.45a.976.976 0 0 1-.192-.019 1 1 0 0 1-.79-1.172l1.073-5.522a1 1 0 1 1 1.963.381l-1.074 5.522a1 1 0 0 1-.98.81" transform="translate(7 3.932)" style="fill:#fff"/>
        <path data-name="패스 12193" d="M25.577 18.609a1 1 0 0 1-.313-.05l-7.292-2.405a1 1 0 1 1 .626-1.9l7.292 2.4a1 1 0 0 1-.313 1.951" transform="translate(6.116 3.125)" style="fill:#fff"/>
        <path data-name="사각형 7946" transform="translate(7 6)" style="fill:none" d="M0 0h37.898v33H0z"/>
        <path data-name="빼기 1" d="M8097 6833h-15a7.007 7.007 0 0 1-7-7v-19a7.007 7.007 0 0 1 7-7h15a7.008 7.008 0 0 1 7 7v8.5h-3v-8.5a4 4 0 0 0-4-4h-15a4 4 0 0 0-4 4v19a4 4 0 0 0 4 4h15a4 4 0 0 0 4-4v-3.5h3v3.5a7.008 7.008 0 0 1-7 7z" transform="translate(-8066 -6794)" style="fill:#fff"/>
    </g>
</svg>
