<svg data-name="-g-ic_level_th" xmlns="http://www.w3.org/2000/svg" width="19" height="19.302" viewBox="0 0 19 19.302">
    <g data-name="모양 1136" style="fill:#228aff">
        <path d="M10.374 18.765H8c-4.135 0-7.5-3.364-7.5-7.5V8.904c0-1.494.438-2.936 1.265-4.171l.136-.203-.076-.231c-.523-1.594-.518-3.21-.428-3.556C1.44.583 1.51.5 1.557.5c.026 0 .07.017.116.066.682.724 1.592 1.264 2.707 1.607l.187.057.177-.085A7.43 7.43 0 0 1 8 1.404h2.374c4.136 0 7.5 3.364 7.5 7.5v2.361c0 4.136-3.364 7.5-7.5 7.5z" style="stroke:none" transform="translate(.472 .036)"/>
        <path d="M10.374 18.265c3.86 0 7-3.14 7-7V8.904c0-3.86-3.14-7-7-7H8a6.935 6.935 0 0 0-3.039.691l-.353.17-.375-.114c-.927-.285-1.725-.7-2.382-1.238.004.619.095 1.65.45 2.73l.151.463-.271.405A6.967 6.967 0 0 0 1 8.904v2.361c0 3.86 3.14 7 7 7h2.374m0 1H8a8 8 0 0 1-8-8V8.904c0-1.647.497-3.177 1.35-4.45C.794 2.762.798 1.059.914.618c.18-.694.77-.77 1.124-.394C2.75.98 3.662 1.43 4.527 1.695A7.97 7.97 0 0 1 8 .904h2.374a8 8 0 0 1 8 8v2.361a8 8 0 0 1-8 8z" style="fill:#1f81ef;stroke:none" transform="translate(.472 .036)"/>
    </g>
    <text transform="translate(5.095 12.845)" style="fill:#fff;font-size:8px;font-family:NanumSquareRoundEB,NanumSquareRound;letter-spacing:-.025em"><tspan x="0" y="0">LV</tspan></text>
</svg>
