<svg data-name="-g-ic_learningnote_th" xmlns="http://www.w3.org/2000/svg" width="29.587" height="29.563" viewBox="0 0 29.587 29.563">
    <ellipse data-name="타원 1" cx="14.794" cy="14.782" rx="14.794" ry="14.782" style="fill:#225782"/>
    <g data-name="벡터 고급 개체">
        <path data-name="패스 2" d="M1199.542 1472.68h-11.587a1.447 1.447 0 0 0-1.464 1.421v11.673a1.446 1.446 0 0 0 1.464 1.421h11.587a1.446 1.446 0 0 0 1.464-1.421V1474.1a1.447 1.447 0 0 0-1.464-1.42zm-8.95 11.35a.482.482 0 0 1-.488.474h-1.061a.483.483 0 0 1-.49-.474v-1.049a.483.483 0 0 1 .49-.474h1.061a.483.483 0 0 1 .488.474zm0-3.568a.482.482 0 0 1-.488.474h-1.061a.483.483 0 0 1-.49-.474v-1.048a.483.483 0 0 1 .49-.474h1.061a.483.483 0 0 1 .488.474zm0-3.566a.483.483 0 0 1-.488.474h-1.061a.483.483 0 0 1-.49-.474v-1.048a.484.484 0 0 1 .49-.475h1.061a.483.483 0 0 1 .488.475zm8.35 7.135a.482.482 0 0 1-.488.474h-6.016a.482.482 0 0 1-.488-.474v-1.049a.483.483 0 0 1 .488-.474h6.016a.482.482 0 0 1 .488.474zm0-3.568a.482.482 0 0 1-.488.474h-6.016a.482.482 0 0 1-.488-.474v-1.048a.483.483 0 0 1 .488-.474h6.016a.482.482 0 0 1 .488.474zm0-3.566a.482.482 0 0 1-.488.474h-6.016a.483.483 0 0 1-.488-.474v-1.048a.483.483 0 0 1 .488-.475h6.016a.483.483 0 0 1 .488.475z" transform="translate(-1178.761 -1465.543)" style="fill:#fff"/>
    </g>
</svg>
