<svg xmlns="http://www.w3.org/2000/svg" id="_-g-ic_result_4_80" width="80" height="80" viewBox="0 0 80 80">
    <defs>
        <style>
            .cls-3{fill:#fff}
        </style>
    </defs>
    <g id="icon">
        <rect id="bg" width="64" height="64" fill="#c887ff" rx="28" transform="translate(8 8)"/>
        <path id="패스_5608" d="M-631.914 283.917a1.026 1.026 0 0 1 1.061 1.308c-.767 2.268-3.366 6.692-11.948 6.692s-11.179-4.424-11.948-6.692a1.027 1.027 0 0 1 1.063-1.308z" class="cls-3" transform="translate(682.799 -239.921)"/>
        <path id="합치기_208" d="M20318.082 8452.622a62.989 62.989 0 0 0 8.807-3.521 3.284 3.284 0 0 1 3.193 3.521c0 3.873-5.576 6.878-6 6.878s-6-3-6-6.878zm-20 0a62.989 62.989 0 0 0 8.807-3.521 3.284 3.284 0 0 1 3.193 3.521c0 3.873-5.576 6.878-6 6.878s-6-3-6-6.878z" class="cls-3" transform="translate(-20274.082 -8421.1)"/>
    </g>
</svg>
