<svg xmlns="http://www.w3.org/2000/svg" width="40" height="40" viewBox="0 0 40 40">
    <g>
        <rect width="32" height="32" fill="#00d2aa" rx="14" transform="translate(4 4)"/>
        <path fill="#fff" d="M-5314.158 5630.029a.514.514 0 0 1 .532-.653h10.888a.512.512 0 0 1 .53.653c-.383 1.134-1.684 3.346-5.975 3.346s-5.59-2.212-5.975-3.346zm9.475-6.154a1.5 1.5 0 0 1 1.5-1.5 1.5 1.5 0 0 1 1.5 1.5 1.5 1.5 0 0 1-1.5 1.5 1.5 1.5 0 0 1-1.5-1.5zm-10 0a1.5 1.5 0 0 1 1.5-1.5 1.5 1.5 0 0 1 1.5 1.5 1.5 1.5 0 0 1-1.5 1.5 1.5 1.5 0 0 1-1.501-1.5z" transform="translate(5328.184 -5607.375)"/>
    </g>
</svg>
