<svg xmlns="http://www.w3.org/2000/svg" width="80" height="80" viewBox="0 0 80 80">
    <g>
        <rect width="64" height="64" fill="#c887ff" rx="28" transform="translate(8 8)"/>
        <path fill="#fff" d="M4.056 19.3A1.027 1.027 0 0 1 5.119 18h21.772a1.025 1.025 0 0 1 1.06 1.308C27.184 21.572 24.586 26 16 26S4.825 21.572 4.056 19.3zm17.454-8.478l.53-3.1-2.248-2.188a1 1 0 0 1 .554-1.71l3.11-.452L24.845.556a1 1 0 0 1 1.8 0l1.39 2.816 3.108.452a1 1 0 0 1 .555 1.71l-2.251 2.193.532 3.1A1 1 0 0 1 28.992 12a.991.991 0 0 1-.466-.117l-2.782-1.462-2.78 1.462a1 1 0 0 1-1.454-1.058zm-19.484 0l.533-3.1-2.25-2.188a1 1 0 0 1 .555-1.71l3.108-.452L5.362.556a1 1 0 0 1 1.8 0l1.39 2.816 3.108.452a1 1 0 0 1 .556 1.71L9.963 7.727l.532 3.1A1 1 0 0 1 9.508 12a.991.991 0 0 1-.466-.117L6.26 10.418 3.48 11.88a1 1 0 0 1-1.454-1.058z" transform="translate(24 26)"/>
    </g>
</svg>
