<svg xmlns="http://www.w3.org/2000/svg" id="ic_result_4_24" width="24" height="24" viewBox="0 0 24 24">
    <defs>
        <style>
            .cls-3{fill:#fff}
        </style>
    </defs>
    <path id="area" fill="none" d="M0 0H24V24H0z"/>
    <g id="icon" transform="translate(2.982 2.981)">
        <rect id="bg" width="18" height="18" fill="#c887ff" rx="8" transform="translate(.019 .019)"/>
        <path id="패스_5521" d="M-648.505 283.917a.282.282 0 0 1 .292.36c-.211.624-.926 1.84-3.286 1.84s-3.074-1.217-3.286-1.84a.283.283 0 0 1 .292-.36z" class="cls-3" transform="translate(660.518 -273.898)"/>
        <path id="패스_5625" d="M-48.079 715.395c-.124 0-1.75-.892-1.75-2.043a.968.968 0 0 1 .93-1.046.946.946 0 0 1 .82.384.946.946 0 0 1 .82-.384.969.969 0 0 1 .93 1.046c0 1.148-1.627 2.043-1.75 2.043z" class="cls-3" transform="translate(54.346 -706.787)"/>
        <path id="패스_5626" d="M-48.079 715.339c-.124 0-1.75-.876-1.75-2.006a.958.958 0 0 1 .93-1.027.95.95 0 0 1 .82.377.95.95 0 0 1 .82-.377.958.958 0 0 1 .93 1.027c0 1.13-1.627 2.006-1.75 2.006z" class="cls-3" transform="translate(59.846 -706.787)"/>
    </g>
</svg>
