<svg xmlns="http://www.w3.org/2000/svg" id="ic_result_4_64" width="64" height="64" viewBox="0 0 64 64">
    <defs>
        <style>
            .cls-3{fill:#fff}
        </style>
    </defs>
    <path id="area" fill="none" d="M0 0H64V64H0z"/>
    <g id="icon" transform="translate(-1 -1)">
        <rect id="bg" width="50" height="50" fill="#c887ff" rx="22" transform="translate(8 8)"/>
        <path id="패스_5608" d="M-636.68 283.917a.812.812 0 0 1 .84 1.036c-.607 1.8-2.665 5.3-9.46 5.3s-8.851-3.5-9.46-5.3a.813.813 0 0 1 .842-1.036z" class="cls-3" transform="translate(678.298 -247.917)"/>
        <path id="합치기_208" d="M15.625 2.75a2.62 2.62 0 0 1 4.687-1.74A2.544 2.544 0 0 1 22.507 0 2.566 2.566 0 0 1 25 2.75c0 3.027-4.358 5.373-4.687 5.373s-4.688-2.346-4.688-5.373zM0 2.75A2.565 2.565 0 0 1 2.49 0a2.546 2.546 0 0 1 2.2 1.011A2.544 2.544 0 0 1 6.882 0a2.566 2.566 0 0 1 2.492 2.75c0 3.027-4.358 5.373-4.687 5.373S0 5.777 0 2.75z" class="cls-3" transform="translate(20.5 23.501)"/>
    </g>
</svg>
