<svg xmlns="http://www.w3.org/2000/svg" id="ic_result_4_40" width="40" height="40" viewBox="0 0 40 40">
    <defs>
        <style>
            .cls-3{fill:#fff}
        </style>
    </defs>
    <g id="emoji">
        <rect id="bg" width="32" height="32" fill="#c887ff" rx="14" transform="translate(4 4)"/>
        <path id="패스_5521" d="M-643.356 283.917a.513.513 0 0 1 .531.654c-.383 1.134-1.683 3.346-5.975 3.346s-5.59-2.212-5.975-3.346a.514.514 0 0 1 .532-.654z" class="cls-3" transform="translate(668.801 -261.917)"/>
        <path id="패스_5625" d="M-46.829 717.506c-.212 0-3-1.5-3-3.439a1.641 1.641 0 0 1 1.594-1.761 1.629 1.629 0 0 1 1.406.647 1.628 1.628 0 0 1 1.4-.647 1.642 1.642 0 0 1 1.6 1.761c0 1.933-2.789 3.439-3 3.439z" class="cls-3" transform="translate(61.828 -698.306)"/>
        <path id="패스_5626" d="M-46.829 717.506c-.212 0-3-1.5-3-3.439a1.641 1.641 0 0 1 1.594-1.761 1.629 1.629 0 0 1 1.406.647 1.628 1.628 0 0 1 1.4-.647 1.642 1.642 0 0 1 1.6 1.761c0 1.933-2.789 3.439-3 3.439z" class="cls-3" transform="translate(71.828 -698.306)"/>
    </g>
</svg>
