<svg xmlns="http://www.w3.org/2000/svg" width="40" height="40" viewBox="0 0 40 40">
    <g transform="translate(724.158 -201.008)">
        <rect width="32" height="32" fill="#ff6b5f" rx="14" transform="translate(-720.159 205.007)"/>
        <path fill="#fff" d="M-5304.684 5623.874a1.5 1.5 0 0 1 1.5-1.5 1.5 1.5 0 0 1 1.5 1.5 1.5 1.5 0 0 1-1.5 1.5 1.5 1.5 0 0 1-1.5-1.5zm-10 0a1.5 1.5 0 0 1 1.5-1.5 1.5 1.5 0 0 1 1.5 1.5 1.5 1.5 0 0 1-1.5 1.5 1.5 1.5 0 0 1-1.5-1.5z" transform="translate(4604.024 -5406.368)"/>
        <path fill="none" stroke="#fff" stroke-linecap="round" stroke-linejoin="round" stroke-width="2px" d="M0 2L11 0" transform="translate(-709.659 223.007)"/>
    </g>
</svg>
