<svg xmlns="http://www.w3.org/2000/svg" width="32" height="32" viewBox="0 0 32 32">
    <g data-name="그룹 14503">
        <g data-name="그룹 14501">
            <path data-name="패스 12220" d="M-1892.441-1146.165a6.983 6.983 0 0 1-.334-2.141h0a7 7 0 0 1 7-7h6" style="fill:none;stroke:#00c3e1;stroke-linecap:round;stroke-linejoin:round;stroke-width:3px" transform="translate(1898.447 1164.679)"/>
            <path data-name="패스 12221" d="M-1881.182-1151.558v-8.231a1.067 1.067 0 0 1 1.744-.825l4.768 3.909a1.334 1.334 0 0 1 0 2.063l-4.768 3.909a1.067 1.067 0 0 1-1.744-.825z" style="fill:#00c3e1" transform="translate(1898.447 1164.679)"/>
            <path data-name="패스 12222" d="M-1873.515-1150.858a7.01 7.01 0 0 1 .333 2.141h0a7 7 0 0 1-7 7h-6" style="fill:none;stroke:#00c3e1;stroke-linecap:round;stroke-linejoin:round;stroke-width:3px" transform="translate(1898.447 1164.679)"/>
            <path data-name="패스 12223" d="M-1884.775-1145.465v8.231a1.067 1.067 0 0 1-1.743.825l-4.769-3.909a1.334 1.334 0 0 1 0-2.063l4.769-3.909a1.067 1.067 0 0 1 1.743.825z" style="fill:#00c3e1" transform="translate(1898.447 1164.679)"/>
        </g>
    </g>
</svg>
