<svg xmlns="http://www.w3.org/2000/svg" width="154" height="54" viewBox="0 0 154 54">
    <defs>
        <filter id="selected" x="0" y="0" width="154" height="54" filterUnits="userSpaceOnUse">
            <feOffset dy="3"/>
            <feGaussianBlur stdDeviation="3" result="blur"/>
            <feFlood flood-color="#05286e" flood-opacity=".102"/>
            <feComposite operator="in" in2="blur"/>
            <feComposite in="SourceGraphic"/>
        </filter>
        <style>
            .cls-1{fill:#fff}
        </style>
    </defs>
    <g id="_-g-ic_status_2_tv_th_eng" data-name="-g-ic_status_2_tv/th_eng" transform="translate(-295 -269.776)">
        <g transform="translate(295 269.78)" style="filter:url(#selected)">
            <rect id="selected-2" data-name="selected" class="cls-1" width="136" height="36" rx="18" transform="translate(9 6)"/>
        </g>
        <text id="In_Progress" data-name="In Progress" transform="translate(386 299.776)" style="fill:#00d3aa;font-size:16px;font-family:NotoSansCJKkr-Bold,Noto Sans CJK KR;font-weight:700;letter-spacing:-.05em"><tspan x="-40.056" y="0">In Progress</tspan></text>
        <g id="fire_32px" transform="translate(314 278.776)">
            <path id="패스_2813" data-name="패스 2813" d="M2158.469 4408.405c6.281 0 8.556-4.111 8.556-6.986 0-4.61-4.663-7.031-6.129-8.736-1.746-2.031-1.249-2.807-1.868-2.807-.812 0-4.274 2.638-4.274 5.49 0 1.259.408 2.029-.084 2.17-.982.281-2.454-1.914-2.759-1.914-.433 0-2.078 2.177-2.078 5.275 0 4.99 4.981 7.508 8.636 7.508z" transform="translate(-2143.147 -4385.1)" style="fill:#ff6b5f"/>
            <path id="패스_2882" data-name="패스 2882" d="M2158.469 4408.405c6.281 0 8.556-4.111 8.556-6.986 0-4.61-4.663-7.031-6.129-8.736-1.746-2.031-1.249-2.807-1.868-2.807-.812 0-4.274 2.638-4.274 5.49 0 1.259.408 2.029-.084 2.17-.982.281-2.454-1.914-2.759-1.914-.433 0-2.078 2.177-2.078 5.275 0 4.99 4.981 7.508 8.636 7.508z" transform="translate(-2143.147 -4385.1)" style="stroke:#fb594b;stroke-miterlimit:10;fill:#ff6b5f"/>
            <path id="패스_2814" data-name="패스 2814" class="cls-1" d="M2183.64 4455.328c3.141 0 4.278-2.119 4.278-3.6 0-2.376-2.331-3.624-3.065-4.5-.873-1.048-.624-1.447-.934-1.447a3.574 3.574 0 0 0-2.138 2.83c0 .648.205 1.047-.042 1.119-.491.145-1.227-.986-1.379-.986a3.357 3.357 0 0 0-1.039 2.719c.001 2.567 2.492 3.865 4.319 3.865z" transform="translate(-2167.86 -4433.951)"/>
        </g>
    </g>
</svg>
