<svg xmlns="http://www.w3.org/2000/svg" width="118" height="54" viewBox="0 0 118 54">
    <defs>
        <filter id="selected" width="118" height="54" x="0" y="0" filterUnits="userSpaceOnUse">
            <feOffset dy="3"/>
            <feGaussianBlur result="blur" stdDeviation="3"/>
            <feFlood flood-color="#05286e" flood-opacity=".102"/>
            <feComposite in2="blur" operator="in"/>
            <feComposite in="SourceGraphic"/>
        </filter>
        <style>
            .cls-1{fill:#fff}
        </style>
    </defs>
    <g id="_-g-ic_status_2_tv_th" transform="translate(-295 -269.776)">
        <g filter="url(#selected)" transform="translate(295 269.78)">
            <rect id="selected-2" width="100" height="36" class="cls-1" rx="18" transform="translate(9 6)"/>
        </g>
        <text id="학습중" fill="#00d3aa" font-family="NotoSansCJKkr-Bold, Noto Sans CJK KR" font-size="16px" font-weight="700" transform="translate(366 300.776)">
            <tspan x="-22.08" y="0">학습중</tspan>
        </text>
        <g id="fire_32px" transform="translate(314 278.776)">
            <path id="패스_2813" fill="#ff6b5f" d="M2158.469 4408.405c6.281 0 8.556-4.111 8.556-6.986 0-4.61-4.663-7.031-6.129-8.736-1.746-2.031-1.249-2.807-1.868-2.807-.812 0-4.274 2.638-4.274 5.49 0 1.259.408 2.029-.084 2.17-.982.281-2.454-1.914-2.759-1.914-.433 0-2.078 2.177-2.078 5.275 0 4.99 4.981 7.508 8.636 7.508z" transform="translate(-2143.147 -4385.1)"/>
            <path id="패스_2882" fill="#ff6b5f" stroke="#fb594b" stroke-miterlimit="10" d="M2158.469 4408.405c6.281 0 8.556-4.111 8.556-6.986 0-4.61-4.663-7.031-6.129-8.736-1.746-2.031-1.249-2.807-1.868-2.807-.812 0-4.274 2.638-4.274 5.49 0 1.259.408 2.029-.084 2.17-.982.281-2.454-1.914-2.759-1.914-.433 0-2.078 2.177-2.078 5.275 0 4.99 4.981 7.508 8.636 7.508z" transform="translate(-2143.147 -4385.1)"/>
            <path id="패스_2814" d="M2183.64 4455.328c3.141 0 4.278-2.119 4.278-3.6 0-2.376-2.331-3.624-3.065-4.5-.873-1.048-.624-1.447-.934-1.447a3.574 3.574 0 0 0-2.138 2.83c0 .648.205 1.047-.042 1.119-.491.145-1.227-.986-1.379-.986a3.357 3.357 0 0 0-1.039 2.719c.001 2.567 2.492 3.865 4.319 3.865z" class="cls-1" transform="translate(-2167.86 -4433.951)"/>
        </g>
    </g>
</svg>
