<svg xmlns="http://www.w3.org/2000/svg" width="24" height="24">
    <g data-name="-g-ic_ticket">
        <path data-name="빼기 37" d="M20 15H0a1 1 0 0 1-1-1V9a2 2 0 0 0 2-2 2 2 0 0 0-2-2V0a1 1 0 0 1 1-1h20a1 1 0 0 1 1 1v5a2 2 0 0 0 0 4v5a1 1 0 0 1-1 1z" transform="translate(2 5)" style="stroke-linecap:round;stroke-linejoin:round;fill:none;stroke:#323c46;stroke-width:1.5px"/>
        <path data-name="선 1066" transform="translate(8 4)" style="fill:none;stroke:#323c46;stroke-width:1.5px" d="M0 0v16"/>
    </g>
</svg>
