<svg xmlns="http://www.w3.org/2000/svg" id="_-g-ic_write_tip" width="32" height="32" viewBox="0 0 32 32">
    <defs>
        <clipPath id="clip-path">
            <path id="사각형_7794" fill="#fff" stroke="#707070" d="M0 0H32V32H0z"/>
        </clipPath>
        <style>
            .cls-4{fill:none;stroke:#fff;stroke-width:3px;stroke-miterlimit:10}
        </style>
    </defs>
    <g id="icon" clip-path="url(#clip-path)">
        <g id="icon-2" transform="translate(20.828 3) rotate(45)">
            <path id="패스_12064" d="M10.474 23.573l-3.5 3.819a2 2 0 0 1-2.948 0l-3.5-3.819A2 2 0 0 1 0 22.222V2.969A2.969 2.969 0 0 1 2.969 0h5.062A2.969 2.969 0 0 1 11 2.969v19.253a2 2 0 0 1-.526 1.351z" class="cls-4"/>
            <path id="선_1065" d="M0 0L11 0" class="cls-4" transform="translate(0 7)"/>
            <path id="패스_12065" fill="none" stroke="#fff" stroke-width="3px" d="M0 0v8" transform="translate(5.5 12)"/>
        </g>
    </g>
</svg>
