<svg xmlns="http://www.w3.org/2000/svg" width="43.09" height="38" viewBox="0 0 43.09 38">
    <g data-name="-g-img_logo">
        <g data-name="symbol" transform="translate(.499 9.663)">
            <path data-name="합치기 357" d="M19.91 20.808c-.988-.461-3.185-1.927-2.862-5.719A26.751 26.751 0 0 1 14.984 18c-2.007 2.39-3.917 3.064-5.437 3.064a5.353 5.353 0 0 1-2.264-.514l3.069-6.582-3.07 6.581c-1.011-.474-3.319-2.009-2.864-6.06a22.817 22.817 0 0 1 .855-3.774h-.1A5.169 5.169 0 1 1 6.042.451a5.7 5.7 0 0 1 4.533.072c1.035.481 3.362 2.02 3.119 5.994a30.018 30.018 0 0 1 2.4-3.523c3.085-3.743 5.96-3.176 7.4-2.5 1.044.488 3.372 2.036 3.077 6.043a30.649 30.649 0 0 1 2.412-3.483c3.125-3.755 6-3.194 7.431-2.523 1.08.5 3.539 2.143 3.035 6.467a28.487 28.487 0 0 1-1.28 5.087 3.592 3.592 0 0 1 2.083.608 3.633 3.633 0 0 1 1.01 5.034c-1.727 2.6-5.27 4.564-8.429 3.089-1-.47-3.245-1.965-2.852-5.869a29.277 29.277 0 0 1-2.331 3.292c-2.038 2.406-3.965 3.084-5.489 3.084a5.326 5.326 0 0 1-2.251-.515z" transform="translate(.001)" style="fill:#fff;stroke:transparent;stroke-miterlimit:10"/>
            <circle cx="5.169" cy="5.169" r="5.169" transform="translate(0 .377)" style="fill:#00cdff;opacity:.25"/>
        </g>
    </g>
</svg>
