<svg xmlns="http://www.w3.org/2000/svg" width="154.575" height="58.041" viewBox="0 0 154.575 58.041"><g transform="translate(2.122 0.559)"><path d="M22.906,21V0h-21V7.635H15.271v5.726H1.909v21H8.59v5.726H0v7.635H24.815V40.086h-8.59V34.359h6.681V26.724H9.544V21Z" transform="translate(81.327 9.261)" fill="#323c46" stroke="rgba(0,0,0,0)" stroke-miterlimit="10" stroke-width="1"/><path d="M0,40.086H7.635V27.678h5.727V20.043H7.635V0H0Z" transform="translate(65.1 9.261)" fill="#323c46" stroke="rgba(0,0,0,0)" stroke-miterlimit="10" stroke-width="1"/><path d="M0,28.633H22.906V0H15.271V21H7.635V14.926a3.8,3.8,0,0,0,2.863,1.3h0a3.818,3.818,0,0,0,3.818-3.818h0A3.818,3.818,0,0,0,10.5,8.59h0a3.806,3.806,0,0,0-2.863,1.3V0H0Z" transform="translate(37.424 20.715)" fill="#323c46" stroke="rgba(0,0,0,0)" stroke-miterlimit="10" stroke-width="1"/><rect width="7.635" height="21.952" transform="translate(144.317 8.306)" fill="#323c46" stroke="rgba(0,0,0,0)" stroke-miterlimit="10" stroke-width="1"/><path d="M4.772,21.952h7.635V0H4.772V4.772H0v7.635H4.772Z" transform="translate(129.047 8.307)" fill="#323c46" stroke="rgba(0,0,0,0)" stroke-miterlimit="10" stroke-width="1"/><path d="M0,21.951H22.906V0H0Zm15.27-7.635H7.635V7.635H15.27Z" transform="translate(126.184 35.031)" fill="#323c46" stroke="rgba(0,0,0,0)" stroke-miterlimit="10" stroke-width="1"/><path d="M12.244,0,0,12.244l5.4,5.4L12.244,10.8l6.845,6.845,5.4-5.4Z" transform="translate(106.206 13.407)" fill="#323c46" stroke="rgba(0,0,0,0)" stroke-miterlimit="10" stroke-width="1"/><rect width="7.598" height="4.738" transform="translate(144.356 3.789)" fill="#00c3e1" stroke="rgba(0,0,0,0)" stroke-miterlimit="10" stroke-width="1"/><rect width="7.598" height="4.738" transform="translate(133.909 3.789)" fill="#00c3e1" stroke="rgba(0,0,0,0)" stroke-miterlimit="10" stroke-width="1"/><path d="M30.391,7.581,15.2,0,0,7.581V28.43H0L22.793,39.8V32.221l7.6-3.791Z" transform="translate(0)" fill="#00c3e1" stroke="rgba(0,0,0,0)" stroke-miterlimit="10" stroke-width="1"/><circle cx="2.291" cy="2.291" r="2.291" transform="translate(21.379 9.479)" fill="#fff" stroke="rgba(0,0,0,0)" stroke-miterlimit="10" stroke-width="1"/><rect width="4.581" height="8.781" transform="translate(21.379 15.97)" fill="#fff" stroke="rgba(0,0,0,0)" stroke-miterlimit="10" stroke-width="1"/><path d="M8.59,7.241l3.575,8.029H17.18L10.381,0H6.8L0,15.271H5.015L8.59,7.241" transform="translate(3.054 9.48)" fill="#fff" stroke="rgba(0,0,0,0)" stroke-miterlimit="10" stroke-width="1"/></g></svg>