<svg xmlns="http://www.w3.org/2000/svg" width="26" height="26" viewBox="0 0 26 26">
    <defs>
        <clipPath id="3hk1z8vwga">
            <path data-name="사각형 9621" style="fill:none" d="M0 0h26v26H0z"/>
        </clipPath>
    </defs>
    <g data-name="그룹 15398">
        <g data-name="그룹 15382" style="clip-path:url(#3hk1z8vwga)">
            <path data-name="패스 134569" d="M20.66 0H5.34A5.34 5.34 0 0 0 0 5.34v15.32A5.34 5.34 0 0 0 5.34 26h15.32A5.34 5.34 0 0 0 26 20.66V5.34A5.34 5.34 0 0 0 20.66 0" style="fill:#070303"/>
            <path data-name="패스 134570" d="M28.5 31.853H17.227a2.116 2.116 0 0 1-2.114-2.114v-8.457a2.116 2.116 0 0 1 2.114-2.114H28.5a2.116 2.116 0 0 1 2.114 2.114v8.457a2.116 2.116 0 0 1-2.114 2.114M17.227 20.577a.705.705 0 0 0-.7.7v8.457a.705.705 0 0 0 .7.7H28.5a.7.7 0 0 0 .7-.7v-8.452a.705.705 0 0 0-.7-.7z" transform="translate(-9.864 -12.511)" style="fill:#fff"/>
            <path data-name="패스 134571" d="M22.865 29.569a.7.7 0 0 1-.4-.127l-7.047-4.933a.7.7 0 1 1 .808-1.155L22.865 28l6.643-4.65a.7.7 0 1 1 .808 1.155l-7.047 4.933a.7.7 0 0 1-.4.127" transform="translate(-9.864 -15.159)" style="fill:#fff"/>
        </g>
    </g>
</svg>
