<svg xmlns="http://www.w3.org/2000/svg" width="88" height="22.155" viewBox="0 0 88 22.155">
    <defs>
        <clipPath id="teh61v2h9a">
            <path data-name="사각형 9177" style="fill:none" d="M0 0h88v22.155H0z"/>
        </clipPath>
    </defs>
    <g data-name="그룹 15425" style="clip-path:url(#teh61v2h9a)">
        <path data-name="패스 134592" d="M13.085 11.132a4.375 4.375 0 0 1 2.084-3.672 4.479 4.479 0 0 0-3.53-1.908c-1.485-.156-2.924.889-3.681.889s-1.936-.873-3.19-.847A4.7 4.7 0 0 0 .812 8.006c-1.71 2.961-.434 7.312 1.2 9.706.82 1.172 1.777 2.481 3.031 2.434 1.226-.05 1.685-.782 3.165-.782s1.9.782 3.175.753c1.317-.021 2.145-1.177 2.937-2.36a9.687 9.687 0 0 0 1.342-2.735 4.229 4.229 0 0 1-2.581-3.89" transform="translate(0 -.641)" style="fill:#fff"/>
        <path data-name="패스 134593" d="M11.688 3.37a4.31 4.31 0 0 0 .986-3.087 4.385 4.385 0 0 0-2.836 1.468 4.1 4.1 0 0 0-1.012 2.972 3.624 3.624 0 0 0 2.862-1.353" transform="translate(-1.019 -.033)" style="fill:#fff"/>
        <path data-name="패스 134594" d="M31.419 17.654h-4.186l-1.005 2.968h-1.773L28.42 9.641h1.842l3.964 10.981h-1.8zm-3.752-1.37h3.318l-1.636-4.817H29.3z" transform="translate(-2.83 -1.116)" style="fill:#fff"/>
        <path data-name="패스 134595" d="M44.2 17c0 2.487-1.332 4.086-3.341 4.086a2.714 2.714 0 0 1-2.519-1.4h-.04v3.965h-1.64V13h1.591v1.332h.03a2.839 2.839 0 0 1 2.549-1.416c2.032 0 3.371 1.606 3.371 4.087m-1.689 0c0-1.621-.837-2.686-2.116-2.686-1.256 0-2.1 1.088-2.1 2.686s.844 2.694 2.1 2.694c1.279 0 2.116-1.058 2.116-2.694" transform="translate(-4.242 -1.494)" style="fill:#fff"/>
        <path data-name="패스 134596" d="M54.166 17c0 2.487-1.332 4.086-3.341 4.086a2.714 2.714 0 0 1-2.519-1.4h-.038v3.965h-1.643V13h1.591v1.332h.03a2.839 2.839 0 0 1 2.554-1.421c2.032 0 3.371 1.606 3.371 4.087m-1.689 0c0-1.621-.837-2.686-2.116-2.686-1.256 0-2.1 1.088-2.1 2.686s.844 2.694 2.1 2.694c1.279 0 2.116-1.058 2.116-2.694" transform="translate(-5.395 -1.494)" style="fill:#fff"/>
        <path data-name="패스 134597" d="M61.519 17.538c.122 1.089 1.18 1.8 2.625 1.8 1.385 0 2.381-.715 2.381-1.7 0-.852-.6-1.363-2.024-1.712l-1.423-.343c-2.017-.487-2.953-1.43-2.953-2.961 0-1.894 1.651-3.2 4-3.2 2.32 0 3.911 1.3 3.965 3.2h-1.662c-.1-1.1-1.005-1.757-2.329-1.757s-2.229.669-2.229 1.643c0 .776.578 1.234 1.993 1.583l1.211.3c2.252.533 3.189 1.438 3.189 3.045 0 2.054-1.637 3.341-4.239 3.341-2.435 0-4.079-1.257-4.185-3.243z" transform="translate(-6.924 -1.092)" style="fill:#fff"/>
        <path data-name="패스 134598" d="M73.007 10.863v1.9h1.523v1.3h-1.523v4.413c0 .686.305 1.005.974 1.005a5.04 5.04 0 0 0 .54-.038v1.294a4.494 4.494 0 0 1-.913.076c-1.621 0-2.253-.608-2.253-2.161v-4.593h-1.164v-1.3h1.165v-1.9z" transform="translate(-8.123 -1.257)" style="fill:#fff"/>
        <path data-name="패스 134599" d="M76.094 17c0-2.519 1.483-4.1 3.8-4.1s3.8 1.583 3.8 4.1-1.47 4.1-3.8 4.1-3.8-1.577-3.8-4.1m5.92 0c0-1.728-.792-2.747-2.123-2.747S77.768 15.276 77.768 17c0 1.735.791 2.747 2.123 2.747s2.123-1.016 2.123-2.747" transform="translate(-8.806 -1.492)" style="fill:#fff"/>
        <path data-name="패스 134600" d="M86.215 12.994h1.566v1.363h.038a1.911 1.911 0 0 1 1.926-1.447 2.489 2.489 0 0 1 .563.062v1.537a2.291 2.291 0 0 0-.738-.1 1.656 1.656 0 0 0-1.713 1.842V21h-1.642z" transform="translate(-9.977 -1.494)" style="fill:#fff"/>
        <path data-name="패스 134601" d="M98.467 18.647C98.246 20.1 96.832 21.1 95.02 21.1c-2.328 0-3.775-1.561-3.775-4.064s1.454-4.14 3.707-4.14c2.214 0 3.607 1.522 3.607 3.949v.563H92.9v.1a2.086 2.086 0 0 0 2.154 2.268 1.811 1.811 0 0 0 1.849-1.127zm-5.554-2.389h4a1.925 1.925 0 0 0-1.962-2.032 2.026 2.026 0 0 0-2.039 2.032" transform="translate(-10.559 -1.492)" style="fill:#fff"/>
        <path data-name="패스 134602" d="M27.606.294a2.334 2.334 0 0 1 2.482 2.622 2.345 2.345 0 0 1-2.482 2.654H25.7V.294zm-1.087 4.53h.995a1.659 1.659 0 0 0 1.74-1.9 1.664 1.664 0 0 0-1.74-1.887h-.995z" transform="translate(-2.974 -.034)" style="fill:#fff"/>
        <path data-name="패스 134603" d="M31.709 3.737a1.886 1.886 0 1 1 3.756 0 1.887 1.887 0 1 1-3.756 0m2.947 0c0-.863-.387-1.368-1.068-1.368s-1.067.5-1.067 1.368.385 1.371 1.067 1.371 1.068-.5 1.068-1.371" transform="translate(-3.669 -.194)" style="fill:#fff"/>
        <path data-name="패스 134604" d="M41.023 5.74h-.815l-.823-2.932h-.062L38.5 5.74h-.8l-1.1-3.982h.8l.708 3.042h.059l.818-3.038h.754l.819 3.038h.062l.71-3.038h.785z" transform="translate(-4.235 -.204)" style="fill:#fff"/>
        <path data-name="패스 134605" d="M43.882 1.748h.756v.632h.062a1.193 1.193 0 0 1 1.188-.709 1.3 1.3 0 0 1 1.378 1.481V5.73h-.785V3.349c0-.64-.279-.958-.86-.958a.913.913 0 0 0-.953 1.009v2.33h-.786z" transform="translate(-5.078 -.194)" style="fill:#fff"/>
        <path data-name="사각형 9176" transform="translate(43.438)" style="fill:#fff" d="M0 0h.786v5.536H0z"/>
        <path data-name="패스 134606" d="M51.246 3.737a1.887 1.887 0 1 1 3.756 0 1.887 1.887 0 1 1-3.756 0m2.947 0c0-.863-.387-1.368-1.068-1.368s-1.067.5-1.067 1.368.385 1.371 1.067 1.371 1.068-.5 1.068-1.371" transform="translate(-5.93 -.194)" style="fill:#fff"/>
        <path data-name="패스 134607" d="M56.429 4.6c0-.716.534-1.13 1.481-1.188l1.079-.062v-.341c0-.421-.278-.659-.815-.659-.439 0-.743.162-.829.444h-.761c.08-.684.724-1.124 1.627-1.124 1 0 1.562.5 1.562 1.339v2.72h-.757V5.17h-.062a1.339 1.339 0 0 1-1.2.624A1.2 1.2 0 0 1 56.429 4.6m2.56-.34v-.33l-.973.062c-.548.036-.8.224-.8.574s.311.568.738.568a.939.939 0 0 0 1.031-.871" transform="translate(-6.53 -.193)" style="fill:#fff"/>
        <path data-name="패스 134608" d="M61.377 3.543c0-1.258.646-2.055 1.653-2.055a1.312 1.312 0 0 1 1.221.7h.058V0h.791v5.536h-.753v-.629h-.067a1.382 1.382 0 0 1-1.25.7c-1.013 0-1.653-.8-1.653-2.059m.812 0c0 .844.4 1.353 1.064 1.353s1.072-.516 1.072-1.349-.414-1.353-1.072-1.353-1.064.512-1.064 1.349" transform="translate(-7.103)" style="fill:#fff"/>
        <path data-name="패스 134609" d="M69.258 3.737a1.886 1.886 0 1 1 3.756 0 1.887 1.887 0 1 1-3.756 0m2.947 0c0-.863-.387-1.368-1.068-1.368s-1.067.5-1.067 1.368.385 1.371 1.067 1.371 1.068-.5 1.068-1.371" transform="translate(-8.015 -.194)" style="fill:#fff"/>
        <path data-name="패스 134610" d="M74.7 1.748h.756v.632h.059a1.193 1.193 0 0 1 1.185-.709 1.3 1.3 0 0 1 1.378 1.481V5.73h-.785V3.349c0-.64-.279-.958-.86-.958a.913.913 0 0 0-.949 1.009v2.33H74.7z" transform="translate(-8.644 -.194)" style="fill:#fff"/>
        <path data-name="패스 134611" d="M83.358.637v1.01h.863v.661h-.863v2.048c0 .416.172.6.563.6a2.674 2.674 0 0 0 .3-.019v.655a2.63 2.63 0 0 1-.428.04c-.874 0-1.222-.308-1.222-1.075V2.308h-.631v-.661h.631V.637z" transform="translate(-9.482 -.074)" style="fill:#fff"/>
        <path data-name="패스 134612" d="M85.733 0h.779v2.194h.062a1.227 1.227 0 0 1 1.214-.713 1.312 1.312 0 0 1 1.372 1.485v2.57h-.787V3.16c0-.636-.3-.959-.852-.959a.93.93 0 0 0-1 1.01v2.325h-.786z" transform="translate(-9.921)" style="fill:#fff"/>
        <path data-name="패스 134613" d="M94.324 4.655A1.616 1.616 0 0 1 92.6 5.807a1.809 1.809 0 0 1-1.839-2.055 1.837 1.837 0 0 1 1.836-2.081c1.108 0 1.777.757 1.777 2.007v.274h-2.815V4a1.052 1.052 0 0 0 1.06 1.141.956.956 0 0 0 .948-.483zm-2.765-1.284h2.011a.961.961 0 0 0-.98-1.032 1.019 1.019 0 0 0-1.031 1.032" transform="translate(-10.503 -.194)" style="fill:#fff"/>
    </g>
</svg>
