<svg xmlns="http://www.w3.org/2000/svg" width="26" height="26" viewBox="0 0 26 26">
    <defs>
        <clipPath id="c2xrrbi0ca">
            <path data-name="사각형 9620" style="fill:none" d="M0 0h26v26H0z"/>
        </clipPath>
    </defs>
    <g data-name="그룹 15397">
        <g data-name="그룹 15380" style="clip-path:url(#c2xrrbi0ca)">
            <path data-name="패스 134566" d="M20.66 0H5.34A5.34 5.34 0 0 0 0 5.34v15.32A5.34 5.34 0 0 0 5.34 26h15.32A5.34 5.34 0 0 0 26 20.66V5.34A5.34 5.34 0 0 0 20.66 0" style="fill:#070303"/>
            <path data-name="패스 134567" d="M27.993 18.048h-.9v-1.78a1.4 1.4 0 0 0-1.4-1.4H17.8a1.4 1.4 0 0 0-1.4 1.4v1.78h-.9a2.11 2.11 0 0 0-2.1 2.108v5.535a2.11 2.11 0 0 0 2.105 2.109h.9v1.308a1.4 1.4 0 0 0 1.4 1.4H25.7a1.4 1.4 0 0 0 1.4-1.4V27.8h.9a2.109 2.109 0 0 0 2.1-2.108v-5.536a2.11 2.11 0 0 0-2.107-2.108M17.8 16.256l7.9.012v1.78h-7.906zm7.9 12.852a.012.012 0 0 1-.012.012l-7.905-.012V25.09H25.7zm3-3.416a.72.72 0 0 1-.719.72h-.9V24.4a.694.694 0 0 0-.681-.7h-9.3a.694.694 0 0 0-.694.694v2.016h-.9a.72.72 0 0 1-.719-.72v-5.534a.72.72 0 0 1 .719-.72h12.487a.72.72 0 0 1 .719.72z" transform="translate(-8.745 -9.704)" style="fill:#fff"/>
            <path data-name="패스 134568" d="M21.756 31.156a.809.809 0 1 0 .809.808.808.808 0 0 0-.809-.808" transform="translate(-13.672 -20.335)" style="fill:#fff"/>
        </g>
    </g>
</svg>
