<svg xmlns="http://www.w3.org/2000/svg" width="12.941" height="14.433" viewBox="0 0 12.941 14.433">
    <g data-name="그룹 15392">
        <g data-name="그룹 15390">
            <g data-name="그룹 15391">
                <path data-name="패스 134576" d="M12.17 356.863H.77a.77.77 0 0 1-.77-.77v-3.869a.77.77 0 1 1 1.54 0v3.1h9.86v-3.1a.77.77 0 1 1 1.54 0v3.869a.77.77 0 0 1-.77.77" transform="translate(0 -342.43)" style="fill:#00c3e1"/>
                <path data-name="패스 134577" d="M103 6.311a.77.77 0 0 0-1.089.035l-1.961 2.09V.77a.77.77 0 1 0-1.54 0v7.62l-1.917-2.044A.77.77 0 0 0 95.37 7.4l3.192 3.4a.768.768 0 0 0 .562.243H99.282a.768.768 0 0 0 .562-.243l3.192-3.4A.77.77 0 0 0 103 6.311" transform="translate(-92.718)" style="fill:#00c3e1"/>
            </g>
        </g>
    </g>
</svg>
