<svg xmlns="http://www.w3.org/2000/svg" width="82.63" height="85.592" viewBox="0 0 82.63 85.592"><path d="M33.182,83.521,2.96,67.136A5.655,5.655,0,1,1,8.38,57.21L38.6,73.6a5.671,5.671,0,0,0,5.419,0L74.247,57.21a5.655,5.655,0,1,1,5.422,9.927L49.447,83.521a17.005,17.005,0,0,1-16.264,0Zm0-20.993L2.96,46.144a5.655,5.655,0,1,1,5.42-9.927L38.6,52.6a5.671,5.671,0,0,0,5.419,0L74.247,36.218a5.655,5.655,0,1,1,5.422,9.927L49.447,62.526a17,17,0,0,1-16.262,0ZM31.615,41.111,5.5,26.821a5.622,5.622,0,0,1-1.969-1.677l-.006-.009-.032-.045c-.015-.021-.03-.041-.045-.063l0-.006a5.644,5.644,0,0,1,2.085-8.258L31.615,2.491a20.125,20.125,0,0,1,19.4,0L77.075,16.751a5.64,5.64,0,0,1,2.167,8.192l0,0c-.014.022-.029.045-.045.066l-.031.044-.021.029a5.629,5.629,0,0,1-2.026,1.743l-26.1,14.281a20.121,20.121,0,0,1-19.4,0Zm5.458-9.905a8.787,8.787,0,0,0,8.48,0l17.191-9.4L45.553,12.395a8.8,8.8,0,0,0-8.478,0L19.884,21.8Z" fill="#3ce6ff" opacity="0.8"/><path d="M3.2,6.18l-.163-.05a6.09,6.09,0,0,1-1.9-.929l-.008-.006L1.1,5.17l-.047-.037,0,0L.992,5.086h0C.9,5.006.807,4.925.725,4.84.678,4.794.635,4.747.593,4.7A2.184,2.184,0,0,1,0,3.268a2.182,2.182,0,0,1,.591-1.43c.043-.048.087-.1.134-.144a3.753,3.753,0,0,1,.382-.337l0,0,.052-.039.009-.008.051-.037.029-.021.018-.013A6.281,6.281,0,0,1,3.038.405L3.159.368A10.064,10.064,0,0,1,8.674.4l9.351,2.863L8.674,6.131a9.682,9.682,0,0,1-2.812.4A9.871,9.871,0,0,1,3.2,6.18Zm68.44-.048L62.289,3.267,71.641.4A10.06,10.06,0,0,1,77.116.356l.161.049c1.94.593,3.036,1.709,3.039,2.862s-1.1,2.269-3.039,2.863l-.167.052a9.9,9.9,0,0,1-2.655.354A9.705,9.705,0,0,1,71.641,6.131Z" transform="translate(1.157 18.755)" fill="#2dabb7"/></svg>