<svg xmlns="http://www.w3.org/2000/svg" xmlns:xlink="http://www.w3.org/1999/xlink" width="672" height="451" viewBox="0 0 672 451"><defs><clipPath id="a"><rect width="672" height="451" transform="translate(0 0.251)" fill="none" stroke="#707070" stroke-width="1"/></clipPath><clipPath id="b"><rect width="650" height="434" transform="translate(-0.016 -0.375)" fill="#fff" stroke="#707070" stroke-width="1"/></clipPath><filter id="c" x="13.3" y="11.998" width="645.608" height="427.122" filterUnits="userSpaceOnUse"><feOffset dy="10" input="SourceAlpha"/><feGaussianBlur stdDeviation="5" result="d"/><feFlood flood-opacity="0.161"/><feComposite operator="in" in2="d"/><feComposite in="SourceGraphic"/></filter><filter id="e" x="13.3" y="11.998" width="645.608" height="427.122" filterUnits="userSpaceOnUse"><feOffset dy="-6" input="SourceAlpha"/><feGaussianBlur stdDeviation="5" result="f"/><feFlood flood-opacity="0.161" result="g"/><feComposite operator="out" in="SourceGraphic" in2="f"/><feComposite operator="in" in="g"/><feComposite operator="in" in2="SourceGraphic"/></filter><clipPath id="h"><path d="M50.311,0H449.333c27.786,0,50.311,17.478,50.311,39.039V358.083c0,21.561-22.525,39.039-50.311,39.039H50.311C22.525,397.122,0,379.644,0,358.083V39.039C0,17.478,22.525,0,50.311,0Z" fill="#8d9cf6"/></clipPath><filter id="i" x="517.596" y="272.362" width="42.72" height="32.908" filterUnits="userSpaceOnUse"><feOffset input="SourceAlpha"/><feGaussianBlur stdDeviation="1" result="j"/><feFlood flood-color="#fff" flood-opacity="0.8"/><feComposite operator="in" in2="j"/><feComposite in="SourceGraphic"/></filter><filter id="k" x="403.261" y="82.745" width="41.175" height="39.254" filterUnits="userSpaceOnUse"><feOffset input="SourceAlpha"/><feGaussianBlur stdDeviation="1.5" result="l"/><feFlood flood-color="#fff"/><feComposite operator="in" in2="l"/><feComposite in="SourceGraphic"/></filter><filter id="m" x="-9.008" y="5.292" width="690.224" height="442.477" filterUnits="userSpaceOnUse"><feOffset dy="10" input="SourceAlpha"/><feGaussianBlur stdDeviation="5" result="n"/><feFlood flood-opacity="0.161"/><feComposite operator="in" in2="n"/><feComposite in="SourceGraphic"/></filter><filter id="o" x="-9.008" y="5.292" width="690.224" height="442.477" filterUnits="userSpaceOnUse"><feOffset dy="-6" input="SourceAlpha"/><feGaussianBlur stdDeviation="5" result="p"/><feFlood flood-opacity="0.161" result="q"/><feComposite operator="out" in="SourceGraphic" in2="p"/><feComposite operator="in" in="q"/><feComposite operator="in" in2="SourceGraphic"/></filter><clipPath id="r"><path d="M50.311,0H449.333c27.786,0,50.311,17.842,50.311,39.851V365.527c0,22.009-22.525,39.851-50.311,39.851H50.311C22.525,405.377,0,387.536,0,365.527V39.851C0,17.842,22.525,0,50.311,0Z" fill="#8d9cf6"/></clipPath><filter id="s" x="392.244" y="84.363" width="41.175" height="41.175" filterUnits="userSpaceOnUse"><feOffset input="SourceAlpha"/><feGaussianBlur stdDeviation="1.5" result="t"/><feFlood flood-color="#fff"/><feComposite operator="in" in2="t"/><feComposite in="SourceGraphic"/></filter><filter id="u" x="409.426" y="281.787" width="43.365" height="35.119" filterUnits="userSpaceOnUse"><feOffset input="SourceAlpha"/><feGaussianBlur stdDeviation="1" result="v"/><feFlood flood-color="#fff" flood-opacity="0.8"/><feComposite operator="in" in2="v"/><feComposite in="SourceGraphic"/></filter></defs><g transform="translate(-64 -254)"><g transform="translate(64 253.749)" clip-path="url(#a)"><g transform="translate(11.016 17.626)" clip-path="url(#b)"><g transform="translate(17.075 -0.377)"><g data-type="innerShadowGroup"><g transform="matrix(1, 0, 0, 1, -28.09, -17)" filter="url(#c)"><path d="M61.988,0H553.619c34.235,0,61.988,17.478,61.988,39.039V358.083c0,21.561-27.753,39.039-61.988,39.039H61.988C27.753,397.122,0,379.644,0,358.083V39.039C0,17.478,27.753,0,61.988,0Z" transform="translate(28.3 17)" fill="#90fac9"/></g><g transform="matrix(1, 0, 0, 1, -28.09, -17)" filter="url(#e)"><path d="M61.988,0H553.619c34.235,0,61.988,17.478,61.988,39.039V358.083c0,21.561-27.753,39.039-61.988,39.039H61.988C27.753,397.122,0,379.644,0,358.083V39.039C0,17.478,27.753,0,61.988,0Z" transform="translate(28.3 17)" fill="#fff"/></g></g><path d="M327.8,396.741A188.222,188.222,0,0,1,321,377.106a185.718,185.718,0,0,1-6.587-36.933A183.143,183.143,0,0,1,324.5,265.051,191.016,191.016,0,0,1,341.791,229,197.741,197.741,0,0,1,376.1,187.319a206.314,206.314,0,0,1,43.319-30.635,220.338,220.338,0,0,1,155.467-18.9,216.33,216.33,0,0,1,40.933,14.664V357.739c0,21.54-27.762,39-62.01,39ZM35.853,224.485A173.038,173.038,0,0,1,0,211.235V39C0,17.462,27.763,0,62.01,0h224.1a146.682,146.682,0,0,1-1.144,25.1,147.443,147.443,0,0,1-7.219,29.931,152.841,152.841,0,0,1-13.83,28.837l-41.584,67.639a158.218,158.218,0,0,1-27.446,33.347,165.026,165.026,0,0,1-34.655,24.508A176.276,176.276,0,0,1,35.853,224.485Z" transform="translate(0 0.392)" fill="#ffee04" stroke="rgba(0,0,0,0)" stroke-miterlimit="10" stroke-width="1" opacity="0.5"/><path d="M-827.824,601.724" transform="translate(1207.493 -304.15)" fill="none" stroke="#000" stroke-miterlimit="10" stroke-width="1"/><path d="M-827.824,601.724" transform="translate(1017.098 -269.06)" fill="none" stroke="#000" stroke-miterlimit="10" stroke-width="1"/><text transform="translate(68.928 244.158)" font-size="30" font-family="NotoSansCJKkr-Bold, Noto Sans CJK KR" letter-spacing="-0.03em" font-weight="700"><tspan x="32.049" y="35">진도</tspan><tspan y="35" font-family="NotoSansCJKkr-Regular, Noto Sans CJK KR" font-weight="400">학습</tspan></text><g transform="translate(68.928 307.912)"><rect width="171.797" height="43.078" rx="21.539" fill="#13be20"/><text transform="translate(15.414 1.346)" fill="#fff" font-size="18" font-family="NotoSansCJKkr-Bold, Noto Sans CJK KR" font-weight="700" letter-spacing="-0.03em"><tspan x="-32.31" y="21">학습하기</tspan></text><g transform="translate(125.741 3.99)"><g fill="none" stroke="#fff" stroke-width="2"><ellipse cx="16.563" cy="15.547" rx="16.563" ry="15.547" stroke="none"/><ellipse cx="16.563" cy="15.547" rx="15.563" ry="14.547" fill="none"/></g><path d="M6.353.769a.5.5,0,0,1,.87,0l5.931,10.479a.5.5,0,0,1-.435.746H.857a.5.5,0,0,1-.435-.746Z" transform="translate(24.57 8.692) rotate(90)" fill="#fff"/></g></g><g transform="translate(294.333 172.896)"><path d="M184,81.117a4.173,4.173,0,0,0-5.332.474c-.242.26-24.344,25.547-68.066,30.794l-3.635-5.406a10.416,10.416,0,0,0-4.262-3.586A30.2,30.2,0,0,0,98.37,100.5a26.3,26.3,0,0,0,8.247-2.6,23.279,23.279,0,0,0,5.941-4.316c32.919-5.571,51.119-24.525,51.889-25.341a3.029,3.029,0,0,0-.517-4.652,4.182,4.182,0,0,0-5.332.442c-.161.171-14.946,15.48-41.168,21.767a18.476,18.476,0,0,0-1.912-15.866,86.819,86.819,0,0,0,29.807-18.244,3.025,3.025,0,0,0-.35-4.666,4.188,4.188,0,0,0-5.346.3c-.125.123-12.079,11.84-28.987,17.147A24.987,24.987,0,0,0,100.535,59.7a26.8,26.8,0,0,0-18.128,2.2,24.341,24.341,0,0,0-4.146,2.691C60.092,59.3,45.773,47.318,45.565,47.14a4.191,4.191,0,0,0-5.36.066,3.019,3.019,0,0,0,.075,4.677A108.163,108.163,0,0,0,73.4,70.1a19.373,19.373,0,0,0-2.023,4.539A18.229,18.229,0,0,0,71.6,85.895C44.131,79.645,26.9,64.113,26.628,63.866a4.191,4.191,0,0,0-5.357-.126,3.023,3.023,0,0,0-.147,4.679c.881.812,21.7,19.711,55.37,25.206a22.987,22.987,0,0,0,4.638,3.585,18.138,18.138,0,0,0-2.968,1.044c-5.782,2.616-9.659,8.011-11.926,12.164C29.2,102.627,6.905,81.753,6.589,81.45a4.183,4.183,0,0,0-5.352-.213A3.02,3.02,0,0,0,.99,85.91c.978.938,23.677,22.332,62.545,30.747-1.32,4.414-8.1,27.749-9.158,44.159l-.639,3.247a11.292,11.292,0,0,0-.253,1.276L47.9,193.669,21.838,224.747c-3.07,3.859-4.187,7.562-3.229,10.7.559,1.82,2.109,4.355,6.333,6.1,1.161.48,7.152,2.779,11.3.935,3.468-1.54,6.346-3.356,10.812-8.091L71.2,208.677a10.926,10.926,0,0,0,1.009-1.251l1.764-2.546a18.71,18.71,0,0,0,3.054-7.218l1.739-9.18,19.92,12.031,13.968,37.065c1.9,5.485,7.694,9.037,13.952,9.037a16.422,16.422,0,0,0,4.157-.532,15.91,15.91,0,0,0,3.22-1.22c5.793-2.969,8.5-8.974,6.577-14.6l-.028-.08L124.64,187.592a13.611,13.611,0,0,0-8.383-8.081L98.273,169.225l1.5-4.9c.028-.095.053-.192.072-.288l4.574-22.984,5.443,8.095a11.061,11.061,0,0,0,7.208,4.528l38.8,6.957a4.2,4.2,0,0,0,1.023.061,12.2,12.2,0,0,0,4.8-1.3,9.8,9.8,0,0,0,5.182-6.269c1.256-5.168-2.534-10.267-8.45-11.369L126.348,135.8l-11.606-17.264c44.639-6.344,68.758-31.648,69.8-32.766A3.03,3.03,0,0,0,184,81.117M94.486,65.635a18.685,18.685,0,0,1,4.14.465,16.148,16.148,0,0,1,9.97,6.58,12.614,12.614,0,0,1,1.72,10.81A14.546,14.546,0,0,1,102.78,92.2,18.279,18.279,0,0,1,90.4,93.7a16.164,16.164,0,0,1-9.97-6.58,12.612,12.612,0,0,1-1.72-10.81A14.552,14.552,0,0,1,86.244,67.6a18.059,18.059,0,0,1,8.241-1.966m28.651,76.336,33.716,6.262a2.858,2.858,0,0,1,1.011,5.459,3.708,3.708,0,0,1-1.064.352L118.624,147.2a3.428,3.428,0,0,1-2.223-1.4l-10.673-15.879a4.016,4.016,0,0,0-3.946-1.581,3.575,3.575,0,0,0-3.057,2.69L92.41,162.758l-2.167,7.069a3.119,3.119,0,0,0,1.587,3.622l20.6,11.782a4.079,4.079,0,0,0,.736.327,6.559,6.559,0,0,1,4.229,3.964l.031.08,15.891,42.586a5.775,5.775,0,0,1-3.165,6.967,7.544,7.544,0,0,1-1.55.587c-3.693.963-7.594-.881-8.694-4.1-.011-.029-.019-.059-.033-.09l-14.38-38.16a3.4,3.4,0,0,0-1.445-1.686L78.161,180.068A4.19,4.19,0,0,0,76,179.481a4.283,4.283,0,0,0-1.481.262,3.425,3.425,0,0,0-2.259,2.507L69.55,196.582a12.631,12.631,0,0,1-2.062,4.871L65.724,204a3.759,3.759,0,0,1-.386.481L41.2,230.195c-3.971,4.209-6.049,5.347-8.328,6.364a11.369,11.369,0,0,1-4.685-.987c-1.287-.532-2.045-1.148-2.253-1.83-.353-1.15.445-3.1,2.076-5.153l26.528-31.638a3.1,3.1,0,0,0,.678-1.392l5.757-29.189c.011-.068.022-.134.031-.2a5.98,5.98,0,0,1,.142-.708c.017-.064.031-.126.044-.19l.695-3.52a3.594,3.594,0,0,0,.047-.384c1.056-17.116,9.061-43.456,9.117-43.642.181-.538.458-1.257.831-2.087.047-.09.089-.179.128-.273,1.664-3.631,5-9.139,9.642-11.235a9.784,9.784,0,0,1,7.111-.353,25.349,25.349,0,0,1,9.128,4.746,3.915,3.915,0,0,0,1.042.618,3.259,3.259,0,0,1,1.506,1.19l20.22,30.079a3.808,3.808,0,0,0,2.481,1.562" transform="translate(0 -46.204)" fill="#fff" stroke="#fff" stroke-width="1"/></g><rect width="14.567" height="13.697" rx="6.849" transform="translate(441.804 70.247)" fill="none"/><rect width="19.696" height="18.52" rx="7" transform="translate(85.564 25.287)" fill="none"/><g transform="translate(51.209 29.475)"><path d="M45.13,0c24.925,0,45.13,19.237,45.13,42.967S70.055,85.933,45.13,85.933,0,66.7,0,42.967,20.206,0,45.13,0Z" transform="translate(0 0)" fill="#9695f7"/><ellipse cx="45.097" cy="43.078" rx="45.097" ry="43.078" transform="translate(62.557 47.99)" fill="rgba(255,255,255,0.33)"/><g transform="matrix(0.978, -0.208, 0.208, 0.978, 8.999, 20.957)" style="isolation:isolate"><path d="M7.594,0,53.714.562a7.716,7.716,0,0,1,7.78,7.36l.012.969a7.263,7.263,0,0,1-7.593,7.173L7.793,15.5a7.716,7.716,0,0,1-7.78-7.36L0,7.173A7.263,7.263,0,0,1,7.594,0Z" transform="translate(0 21.04)" fill="#fff"/><path d="M7.373.562,50.972,0a7.263,7.263,0,0,1,7.173,7.593l-.012,1.025a7.716,7.716,0,0,1-7.36,7.78l-43.6.561A7.263,7.263,0,0,1,0,9.367L.013,8.342A7.716,7.716,0,0,1,7.373.562Z" transform="translate(39.235 0) rotate(90)" fill="#fff"/><path d="M7.594,0,31.166.288a7.716,7.716,0,0,1,7.78,7.36l.012.969a7.263,7.263,0,0,1-7.593,7.173L7.793,15.5a7.716,7.716,0,0,1-7.78-7.36L0,7.173A7.263,7.263,0,0,1,7.594,0Z" transform="translate(0 21.04)" fill="#2190ff" opacity="0.3"/></g><g transform="translate(77.078 90.215) rotate(-45)"><path d="M7.168,0S-.783,6.213.063,20.379,8.835,41.705,8.835,41.705" transform="translate(0 0)" fill="none" stroke="#fff" stroke-linecap="round" stroke-linejoin="round" stroke-width="10"/><path d="M0,0S8.752,7.21,9.6,21.376,3.317,41.8,3.317,41.8" transform="translate(32.22 1.495)" fill="none" stroke="#fff" stroke-linecap="round" stroke-linejoin="round" stroke-width="10"/></g></g><g transform="translate(473.751 238.28)"><ellipse cx="37.032" cy="34.821" rx="37.032" ry="34.821" transform="translate(0 0)" fill="#3ce6ff"/><path d="M-867.035,435.3a1.571,1.571,0,0,0-.5-2.995,105.16,105.16,0,0,0-15.1-1.044,105.166,105.166,0,0,0-15.1,1.044,1.571,1.571,0,0,0-.5,2.995,34.911,34.911,0,0,0,15.6,3.636A34.909,34.909,0,0,0-867.035,435.3Z" transform="translate(919.665 -373.655)" fill="#fff" opacity="0.64"/><g transform="matrix(1, 0, 0, 1, -501.84, -255.28)" filter="url(#i)"><path d="M26.207,25.948,29.483,8.475l5.78.958L31.987,26.908Zm-10.27-1.7-.42-5.49L8.331,17.571l-2.392,5.02L0,21.6,11.828,0l6.989,1.162,3.264,24.1ZM11.126,11.666l-.884,1.85,4.959.826-.159-2.025c-.226-2.382-.335-5.216-.549-7.663l-.131-.021C13.325,6.933,12.168,9.5,11.126,11.666ZM32.843,6.529c-1.961-.325-3.105-1.721-2.8-3.348.311-1.662,1.9-2.6,3.86-2.275,1.933.319,3.083,1.715,2.772,3.372a2.936,2.936,0,0,1-3.089,2.312A4.534,4.534,0,0,1,32.843,6.529Z" transform="translate(520.6 275.36)" fill="#fff"/></g></g><g transform="translate(434.308 22.222)"><g transform="translate(0 0)"><path d="M-833.44,377.8a3.825,3.825,0,0,1-2.576-1,4.144,4.144,0,0,1-.455-.522,3.708,3.708,0,0,1-.328-.591,3.1,3.1,0,0,1-.209-.642,3.318,3.318,0,0,1-.073-.667,3.375,3.375,0,0,1,1.065-2.423,3.828,3.828,0,0,1,3.286-.934,3.725,3.725,0,0,1,.683.2,3.5,3.5,0,0,1,.628.316,3.7,3.7,0,0,1,.555.42,3.379,3.379,0,0,1,1.065,2.423,3.322,3.322,0,0,1-.073.667,3.047,3.047,0,0,1-.21.642,3.66,3.66,0,0,1-.327.591,4.246,4.246,0,0,1-.455.522,4.52,4.52,0,0,1-.555.428,4.307,4.307,0,0,1-.628.309,3.731,3.731,0,0,1-.683.2A4.076,4.076,0,0,1-833.44,377.8Z" transform="translate(837.082 -302.952)" fill="#fff"/><path d="M-832.005,349.868a3.416,3.416,0,0,1-2.667-4.144h0a3.659,3.659,0,0,1,4.406-2.5h0a3.4,3.4,0,0,1,2.667,4.135h0a3.6,3.6,0,0,1-3.531,2.611h0A3.808,3.808,0,0,1-832.005,349.868Zm138.793-2.551a3.418,3.418,0,0,1,2.658-4.144h0a3.658,3.658,0,0,1,4.406,2.508h0a3.417,3.417,0,0,1-2.658,4.143h0a3.929,3.929,0,0,1-.874.1h0A3.6,3.6,0,0,1-693.212,347.316Zm-133.394-13.175a3.336,3.336,0,0,1-1.53-4.623h.008a3.751,3.751,0,0,1,4.917-1.439h0a3.335,3.335,0,0,1,1.529,4.623h0a3.69,3.69,0,0,1-3.231,1.832h0A3.883,3.883,0,0,1-826.606,334.142Zm127.468-1.473h0a3.327,3.327,0,0,1,1.53-4.63h0a3.771,3.771,0,0,1,4.916,1.437h0a3.323,3.323,0,0,1-1.53,4.624h0a3.708,3.708,0,0,1-1.693.394h0A3.66,3.66,0,0,1-699.139,332.668Zm-118.2-12.576a3.285,3.285,0,0,1-.31-4.837h0a3.817,3.817,0,0,1,5.144-.29h0a3.286,3.286,0,0,1,.3,4.837h0a3.729,3.729,0,0,1-2.723,1.156h0A3.789,3.789,0,0,1-817.338,320.093Zm108.7-.325v.009a3.293,3.293,0,0,1,.311-4.837h0a3.8,3.8,0,0,1,5.144.292h0a3.282,3.282,0,0,1-.31,4.827h0a3.743,3.743,0,0,1-2.414.866h0A3.719,3.719,0,0,1-708.635,319.767Zm-96.148-11.239a3.307,3.307,0,0,1,.929-4.769h0a3.789,3.789,0,0,1,5.062.873h0a3.3,3.3,0,0,1-.92,4.76h0a3.8,3.8,0,0,1-2.066.608h0A3.727,3.727,0,0,1-804.784,308.528Zm83.667.839a3.289,3.289,0,0,1-.928-4.76h0a3.787,3.787,0,0,1,5.061-.874h0a3.3,3.3,0,0,1,.93,4.768h0a3.713,3.713,0,0,1-3,1.473h0A3.768,3.768,0,0,1-721.117,309.367Zm-68.535-9.264a3.352,3.352,0,0,1,2.111-4.409h0a3.712,3.712,0,0,1,4.7,1.987h0a3.376,3.376,0,0,1-2.112,4.416h0a4.028,4.028,0,0,1-1.294.223h0A3.646,3.646,0,0,1-789.652,300.1Zm53.769,1.978h0A3.366,3.366,0,0,1-738,297.665h0a3.711,3.711,0,0,1,4.7-1.987h0a3.369,3.369,0,0,1,2.121,4.417h0A3.664,3.664,0,0,1-734.6,302.3h0A3.932,3.932,0,0,1-735.883,302.081Zm-36.937-6.719a3.468,3.468,0,0,1,3.178-3.809h0a3.6,3.6,0,0,1,4.052,2.987h0a3.483,3.483,0,0,1-3.177,3.809h0a3.909,3.909,0,0,1-.447.026h0A3.567,3.567,0,0,1-772.82,295.362Zm20.74,2.979a3.474,3.474,0,0,1-3.186-3.81h0a3.6,3.6,0,0,1,4.051-2.988h0a3.468,3.468,0,0,1,3.177,3.81h0a3.566,3.566,0,0,1-3.605,3.013h0A3.733,3.733,0,0,1-752.079,298.341Z" transform="translate(836.876 -291.519)" fill="#fff"/><path d="M-673.44,377.8a4.073,4.073,0,0,1-.71-.069,3.711,3.711,0,0,1-.683-.2,4.321,4.321,0,0,1-.628-.309,4.374,4.374,0,0,1-.555-.428,4.135,4.135,0,0,1-.455-.522,3.71,3.71,0,0,1-.328-.591,3.1,3.1,0,0,1-.209-.642,3.317,3.317,0,0,1-.073-.667,3.359,3.359,0,0,1,1.065-2.423,4.211,4.211,0,0,1,.555-.428,4.057,4.057,0,0,1,.628-.308,3.715,3.715,0,0,1,.683-.2,3.606,3.606,0,0,1,1.42,0,3.722,3.722,0,0,1,.683.2,4.061,4.061,0,0,1,.628.308,4.348,4.348,0,0,1,.555.428,3.379,3.379,0,0,1,1.065,2.423,3.317,3.317,0,0,1-.073.667,3.047,3.047,0,0,1-.21.642,3.07,3.07,0,0,1-.337.591,3.443,3.443,0,0,1-.445.522,4.521,4.521,0,0,1-.555.428,4.326,4.326,0,0,1-.628.309,3.718,3.718,0,0,1-.683.2A4.074,4.074,0,0,1-673.44,377.8Z" transform="translate(822.749 -302.951)" fill="#fff"/></g><g transform="translate(18.208 17.394)"><path d="M-813.44,377.8a4.075,4.075,0,0,1-.71-.069,3.719,3.719,0,0,1-.683-.2,4.319,4.319,0,0,1-.628-.309,4.366,4.366,0,0,1-.555-.428,4.131,4.131,0,0,1-.455-.522,3.719,3.719,0,0,1-.328-.591,3.1,3.1,0,0,1-.209-.642,3.317,3.317,0,0,1-.073-.667,3.36,3.36,0,0,1,1.065-2.423,4.2,4.2,0,0,1,.555-.428,4.055,4.055,0,0,1,.628-.308,3.724,3.724,0,0,1,.683-.2,3.607,3.607,0,0,1,1.42,0,3.72,3.72,0,0,1,.683.2,4.056,4.056,0,0,1,.628.308,4.353,4.353,0,0,1,.555.428,3.379,3.379,0,0,1,1.065,2.423,3.33,3.33,0,0,1-.073.667,3.047,3.047,0,0,1-.21.642,3.077,3.077,0,0,1-.337.591,3.457,3.457,0,0,1-.445.522,4.527,4.527,0,0,1-.555.428,4.321,4.321,0,0,1-.628.309,3.716,3.716,0,0,1-.683.2A4.072,4.072,0,0,1-813.44,377.8Z" transform="translate(817.082 -320.344)" fill="#fff"/><path d="M-811.087,351.508a3.372,3.372,0,0,1-2.167-4.392h0a3.7,3.7,0,0,1,4.661-2.038h0a3.359,3.359,0,0,1,2.175,4.383h0a3.623,3.623,0,0,1-3.422,2.251h0A3.763,3.763,0,0,1-811.087,351.508Zm100.491-2.1a3.375,3.375,0,0,1,2.177-4.391h0a3.713,3.713,0,0,1,4.67,2.037h0a3.368,3.368,0,0,1-2.176,4.392h0a3.707,3.707,0,0,1-1.247.214h0A3.657,3.657,0,0,1-710.6,349.41Zm-92.088-13.936a3.291,3.291,0,0,1-.446-4.828h0a3.788,3.788,0,0,1,5.126-.411h0a3.274,3.274,0,0,1,.446,4.819h0a3.731,3.731,0,0,1-2.786,1.225h0A3.765,3.765,0,0,1-802.684,335.474Zm83.211-.462a3.283,3.283,0,0,1,.447-4.82h0a3.789,3.789,0,0,1,5.126.412h0a3.284,3.284,0,0,1-.437,4.827h0a3.791,3.791,0,0,1-2.349.8h0A3.732,3.732,0,0,1-719.473,335.012Zm-69.5-11.916a3.3,3.3,0,0,1,1.329-4.675h0a3.755,3.755,0,0,1,4.97,1.251h0A3.3,3.3,0,0,1-784,324.345h0a3.767,3.767,0,0,1-1.821.462h0A3.687,3.687,0,0,1-788.973,323.1Zm55.936,1.223a3.327,3.327,0,0,1-1.338-4.682h0a3.774,3.774,0,0,1,4.98-1.25h0a3.308,3.308,0,0,1,1.329,4.674h0a3.67,3.67,0,0,1-3.159,1.712h0A3.809,3.809,0,0,1-733.037,324.318Zm-38.557-8.449a3.447,3.447,0,0,1,2.959-3.964h0a3.63,3.63,0,0,1,4.216,2.782h0a3.454,3.454,0,0,1-2.959,3.964h0a4,4,0,0,1-.637.051h0A3.59,3.59,0,0,1-771.594,315.869Zm21.923,2.774a3.461,3.461,0,0,1-2.959-3.963h0a3.63,3.63,0,0,1,4.215-2.792h0a3.455,3.455,0,0,1,2.959,3.964h0a3.589,3.589,0,0,1-3.586,2.843h0A3.877,3.877,0,0,1-749.671,318.643Z" transform="translate(816.759 -311.837)" fill="#fff"/><path d="M-693.44,377.8a4.077,4.077,0,0,1-.71-.068,3.723,3.723,0,0,1-.683-.2,4.306,4.306,0,0,1-.628-.309,4.366,4.366,0,0,1-.555-.428,3.376,3.376,0,0,1-1.065-2.422,3.344,3.344,0,0,1,.073-.669,3.168,3.168,0,0,1,.209-.642,3.871,3.871,0,0,1,.328-.591,4.255,4.255,0,0,1,.455-.521,4.218,4.218,0,0,1,.555-.428,4.06,4.06,0,0,1,.628-.308,3.717,3.717,0,0,1,.683-.2,3.829,3.829,0,0,1,3.287.934,3.525,3.525,0,0,1,.445.521,3.173,3.173,0,0,1,.337.591,3.122,3.122,0,0,1,.21.642,3.339,3.339,0,0,1,.073.669,3.322,3.322,0,0,1-.073.667,3.054,3.054,0,0,1-.21.642,3.069,3.069,0,0,1-.337.591,3.446,3.446,0,0,1-.445.522A3.825,3.825,0,0,1-693.44,377.8Z" transform="translate(806.332 -320.345)" fill="#fff"/></g><g transform="translate(36.417 33.754)"><path d="M-793.44,377.8a4.076,4.076,0,0,1-.71-.068,3.725,3.725,0,0,1-.683-.2,4.3,4.3,0,0,1-.628-.309,4.368,4.368,0,0,1-.555-.428,4.145,4.145,0,0,1-.455-.522,3.737,3.737,0,0,1-.328-.591,3.094,3.094,0,0,1-.209-.642,3.3,3.3,0,0,1-.073-.667,3.375,3.375,0,0,1,1.065-2.423,4.219,4.219,0,0,1,.555-.428,4.053,4.053,0,0,1,.628-.308,3.719,3.719,0,0,1,.683-.2,3.829,3.829,0,0,1,3.286.934,3.379,3.379,0,0,1,1.065,2.423,3.318,3.318,0,0,1-.073.667,3.054,3.054,0,0,1-.21.642,3.651,3.651,0,0,1-.327.591,4.22,4.22,0,0,1-.455.522A3.825,3.825,0,0,1-793.44,377.8Z" transform="translate(797.082 -336.706)" fill="#fff"/><path d="M-789.911,354.456a3.308,3.308,0,0,1-1.329-4.674h0a3.761,3.761,0,0,1,4.971-1.25h0a3.3,3.3,0,0,1,1.329,4.674h0a3.667,3.667,0,0,1-3.15,1.712h0A3.765,3.765,0,0,1-789.911,354.456Zm61.735-1.284h0a3.318,3.318,0,0,1,1.319-4.684h0a3.769,3.769,0,0,1,4.981,1.25h0a3.308,3.308,0,0,1-1.32,4.674h0a3.765,3.765,0,0,1-1.83.462h0A3.689,3.689,0,0,1-728.176,353.171Zm-49.745-12.5A3.309,3.309,0,0,1-776.592,336h0a3.759,3.759,0,0,1,4.97,1.24h0a3.314,3.314,0,0,1-1.319,4.683h0a3.751,3.751,0,0,1-1.821.463h0A3.7,3.7,0,0,1-777.921,340.673Zm37.737,1.232a3.327,3.327,0,0,1-1.338-4.683h0a3.784,3.784,0,0,1,4.98-1.25h0a3.309,3.309,0,0,1,1.329,4.674h0a3.672,3.672,0,0,1-3.159,1.712h0A3.835,3.835,0,0,1-740.184,341.9Zm-16.378-4.108Zm-3.651-3.424a3.537,3.537,0,0,1,3.642-3.424h0a3.537,3.537,0,0,1,3.642,3.424h0a3.535,3.535,0,0,1-3.633,3.424h0A3.551,3.551,0,0,1-760.213,334.372Z" transform="translate(796.603 -330.948)" fill="#fff"/><path d="M-713.44,377.8a3.824,3.824,0,0,1-2.577-1,3.376,3.376,0,0,1-1.065-2.422,2.79,2.79,0,0,1,.073-.669,2.686,2.686,0,0,1,.209-.642,3.17,3.17,0,0,1,.328-.591,4.255,4.255,0,0,1,.455-.521,3.82,3.82,0,0,1,2.577-1,3.82,3.82,0,0,1,2.576,1,4.341,4.341,0,0,1,.455.521,3.8,3.8,0,0,1,.327.591,3.122,3.122,0,0,1,.21.642,3.34,3.34,0,0,1,.073.669,3.38,3.38,0,0,1-1.065,2.422A3.824,3.824,0,0,1-713.44,377.8Z" transform="translate(789.915 -336.705)" fill="#fff"/></g><g transform="translate(54.625 53.157)"><path d="M-773.44,377.8a3.825,3.825,0,0,1-2.577-1,4.139,4.139,0,0,1-.455-.522,3.713,3.713,0,0,1-.328-.591,3.087,3.087,0,0,1-.209-.642,3.318,3.318,0,0,1-.073-.667,3.335,3.335,0,0,1,.073-.669,3.156,3.156,0,0,1,.209-.642,3.866,3.866,0,0,1,.328-.591,4.254,4.254,0,0,1,.455-.521,3.828,3.828,0,0,1,3.287-.934,3.722,3.722,0,0,1,.683.2,4.051,4.051,0,0,1,.628.308,4.336,4.336,0,0,1,.555.428,3.526,3.526,0,0,1,.445.521,3.176,3.176,0,0,1,.337.591,3.129,3.129,0,0,1,.21.642,3.344,3.344,0,0,1,.073.669,3.38,3.38,0,0,1-1.065,2.422,4.493,4.493,0,0,1-.555.428,4.3,4.3,0,0,1-.628.309,3.727,3.727,0,0,1-.683.2A4.079,4.079,0,0,1-773.44,377.8Z" transform="translate(777.082 -356.108)" fill="#fff"/><path d="M-766.6,358.761a3.31,3.31,0,0,1,1.329-4.674h0a3.755,3.755,0,0,1,4.971,1.25h0a3.305,3.305,0,0,1-1.32,4.674h0a3.756,3.756,0,0,1-1.821.462h0A3.681,3.681,0,0,1-766.6,358.761ZM-747.063,360a3.311,3.311,0,0,1-1.338-4.674h0a3.776,3.776,0,0,1,4.98-1.259h0a3.32,3.32,0,0,1,1.329,4.684h0a3.7,3.7,0,0,1-3.159,1.712h0A3.722,3.722,0,0,1-747.063,360Z" transform="translate(776.187 -353.613)" fill="#fff"/><path d="M-733.44,377.8a4.078,4.078,0,0,1-.71-.068,3.724,3.724,0,0,1-.683-.2,4.305,4.305,0,0,1-.628-.309,4.368,4.368,0,0,1-.555-.428,3.377,3.377,0,0,1-1.065-2.422,3.376,3.376,0,0,1,1.065-2.423,4.219,4.219,0,0,1,.555-.428,4.059,4.059,0,0,1,.628-.308,3.719,3.719,0,0,1,.683-.2,3.829,3.829,0,0,1,3.287.934,3.379,3.379,0,0,1,1.065,2.423,3.38,3.38,0,0,1-1.065,2.422A3.807,3.807,0,0,1-733.44,377.8Z" transform="translate(773.499 -356.108)" fill="#fff"/></g><g transform="translate(2.114 84.392)"><path d="M-769.585,448.525a3.481,3.481,0,0,1-3.187-3.81h0a3.6,3.6,0,0,1,4.05-2.987h0a3.476,3.476,0,0,1,3.187,3.8h0a3.573,3.573,0,0,1-3.613,3.021h0A3.719,3.719,0,0,1-769.585,448.525Zm14.375-3a3.473,3.473,0,0,1,3.176-3.81h0a3.605,3.605,0,0,1,4.052,2.989h0a3.467,3.467,0,0,1-3.178,3.809h0a4.028,4.028,0,0,1-.445.027h0A3.566,3.566,0,0,1-755.21,445.529Zm-32.293-1.139a3.37,3.37,0,0,1-2.112-4.417h0a3.72,3.72,0,0,1,4.7-1.986h0A3.358,3.358,0,0,1-782.8,442.4h0a3.63,3.63,0,0,1-3.406,2.208h0A3.783,3.783,0,0,1-787.5,444.389Zm49.544-1.995a3.373,3.373,0,0,1,2.113-4.417h0a3.7,3.7,0,0,1,4.7,1.987h0a3.37,3.37,0,0,1-2.112,4.417h0a3.983,3.983,0,0,1-1.293.222h0A3.662,3.662,0,0,1-737.958,442.395Zm-65.859-6.061a3.3,3.3,0,0,1-.929-4.768h0a3.789,3.789,0,0,1,5.062-.873h0a3.3,3.3,0,0,1,.929,4.768h0a3.719,3.719,0,0,1-3,1.481h0A3.763,3.763,0,0,1-803.817,436.334Zm81.81-.89a3.3,3.3,0,0,1,.919-4.768h0a3.8,3.8,0,0,1,5.071.866h0a3.306,3.306,0,0,1-.929,4.768h0a3.782,3.782,0,0,1-2.066.607h0A3.7,3.7,0,0,1-722.007,435.443Zm-95.613-10.606a3.271,3.271,0,0,1,.311-4.829h0a3.808,3.808,0,0,1,5.144.283h0a3.292,3.292,0,0,1-.31,4.836h0a3.743,3.743,0,0,1-2.422.865h0A3.712,3.712,0,0,1-817.62,424.837Zm109.324.265a3.294,3.294,0,0,1-.31-4.838h0a3.817,3.817,0,0,1,5.144-.291h0a3.286,3.286,0,0,1,.31,4.837h0a3.742,3.742,0,0,1-2.731,1.148h0A3.779,3.779,0,0,1-708.3,425.1Zm-119.811-14.511h0a3.318,3.318,0,0,1,1.529-4.622h0a3.757,3.757,0,0,1,4.916,1.43h0a3.329,3.329,0,0,1-1.53,4.631h0a3.84,3.84,0,0,1-1.693.394h0A3.691,3.691,0,0,1-828.107,410.592Zm130.517,1.4a3.321,3.321,0,0,1-1.529-4.623h0a3.763,3.763,0,0,1,4.916-1.438h0a3.322,3.322,0,0,1,1.529,4.624h0a3.668,3.668,0,0,1-3.223,1.831h0A3.826,3.826,0,0,1-697.589,411.987Zm-137.064-17.6A3.419,3.419,0,0,1-832,390.243h0a3.657,3.657,0,0,1,4.407,2.509h0a3.416,3.416,0,0,1-2.658,4.142h0a3.8,3.8,0,0,1-.875.094h0A3.607,3.607,0,0,1-834.653,394.386Zm144.12,2.466a3.418,3.418,0,0,1-2.667-4.144h0A3.654,3.654,0,0,1-688.8,390.2h0a3.417,3.417,0,0,1,2.668,4.134h0v.009h0a3.608,3.608,0,0,1-3.532,2.6h0A4.332,4.332,0,0,1-690.534,396.853Z" transform="translate(834.76 -390.1)" fill="#fff"/></g><g transform="translate(21.508 85.567)"><path d="M-768.569,431.3a3.455,3.455,0,0,1-2.959-3.963h0a3.637,3.637,0,0,1,4.215-2.792h0a3.457,3.457,0,0,1,2.959,3.964h0a3.591,3.591,0,0,1-3.587,2.842h0A3.886,3.886,0,0,1-768.569,431.3Zm16.005-2.8a3.454,3.454,0,0,1,2.959-3.963h0a3.64,3.64,0,0,1,4.215,2.782h0a3.445,3.445,0,0,1-2.959,3.963h0a3.89,3.89,0,0,1-.628.051h0A3.582,3.582,0,0,1-752.564,428.5Zm-35.024-3.7a3.308,3.308,0,0,1-1.329-4.674h0a3.765,3.765,0,0,1,4.971-1.259h0a3.329,3.329,0,0,1,1.338,4.684h0a3.714,3.714,0,0,1-3.159,1.712h0A3.861,3.861,0,0,1-787.588,424.8Zm53.278-1.276a3.31,3.31,0,0,1,1.329-4.682h0a3.763,3.763,0,0,1,4.971,1.25h0a3.309,3.309,0,0,1-1.329,4.674h0a3.756,3.756,0,0,1-1.821.462h0A3.676,3.676,0,0,1-734.31,423.527Zm-68.782-10.94h.009a3.273,3.273,0,0,1,.437-4.82h0a3.788,3.788,0,0,1,5.126.411h.009a3.29,3.29,0,0,1-.447,4.827h0a3.758,3.758,0,0,1-2.339.8h0A3.762,3.762,0,0,1-803.092,412.588Zm84.113.367a3.277,3.277,0,0,1-.455-4.82h0a3.811,3.811,0,0,1,5.136-.419h0a3.282,3.282,0,0,1,.446,4.82h0a3.7,3.7,0,0,1-2.786,1.224h0A3.763,3.763,0,0,1-718.979,412.955Zm-94.255-16.822a3.37,3.37,0,0,1,2.167-4.391h0a3.707,3.707,0,0,1,4.67,2.037h0a3.371,3.371,0,0,1-2.167,4.392h0a3.727,3.727,0,0,1-1.247.214h0A3.639,3.639,0,0,1-813.234,396.133Zm104.844,1.987a3.373,3.373,0,0,1-2.176-4.393h0a3.694,3.694,0,0,1,4.661-2.045h0a3.358,3.358,0,0,1,2.175,4.382h0v.009h0a3.633,3.633,0,0,1-3.414,2.251h0A3.943,3.943,0,0,1-708.39,398.12Z" transform="translate(813.457 -391.473)" fill="#fff"/></g><g transform="translate(41.313 85.116)"><path d="M-756.515,414.918a3.55,3.55,0,0,1-3.651-3.424h0a3.537,3.537,0,0,1,3.642-3.424h0a3.537,3.537,0,0,1,3.642,3.424h0a3.523,3.523,0,0,1-3.633,3.424Zm-20.029-5.025a3.312,3.312,0,0,1-1.338-4.674h0a3.776,3.776,0,0,1,4.98-1.259h0a3.311,3.311,0,0,1,1.329,4.674h0a3.679,3.679,0,0,1-3.159,1.721h0A3.854,3.854,0,0,1-776.544,409.892Zm35.069-1.276a3.315,3.315,0,0,1,1.329-4.674h0a3.773,3.773,0,0,1,4.98,1.242h0a3.322,3.322,0,0,1-1.329,4.682h0a3.755,3.755,0,0,1-1.821.462h0A3.7,3.7,0,0,1-741.474,408.616Zm-49.736-12.49a3.307,3.307,0,0,1,1.32-4.674h0a3.774,3.774,0,0,1,4.98,1.242h0a3.315,3.315,0,0,1-1.32,4.682h0a3.914,3.914,0,0,1-1.83.462h0A3.685,3.685,0,0,1-791.211,396.126Zm64.393,1.208a3.3,3.3,0,0,1-1.329-4.674h0a3.753,3.753,0,0,1,4.971-1.25h0a3.306,3.306,0,0,1,1.329,4.674h0A3.685,3.685,0,0,1-725,397.8h0A3.771,3.771,0,0,1-726.818,397.334Z" transform="translate(791.704 -390.946)" fill="#fff"/></g><g transform="translate(63.738 82.822)"><path d="M-765.251,394.663h0a3.309,3.309,0,0,1-1.329-4.675h0a3.763,3.763,0,0,1,4.971-1.25h0a3.319,3.319,0,0,1,1.338,4.674h0a3.681,3.681,0,0,1-3.159,1.712h0A3.764,3.764,0,0,1-765.251,394.663Zm16.87-1.251a3.323,3.323,0,0,1,1.329-4.682h0a3.768,3.768,0,0,1,4.98,1.249h0a3.316,3.316,0,0,1-1.329,4.674h0a3.748,3.748,0,0,1-1.821.462h0A3.691,3.691,0,0,1-748.381,393.412Z" transform="translate(767.072 -388.266)" fill="#fff"/></g><ellipse cx="3.642" cy="3.424" rx="3.642" ry="3.424" transform="translate(72.833 67.996)" fill="#fff"/></g><g transform="matrix(1, 0, 0, 1, -28.09, -17)" filter="url(#k)"><path d="M-775.32,335.713-782.8,337.6l-2-7.028a4.129,4.129,0,0,0-5.017-2.724l-.88.222a3.834,3.834,0,0,0-2.9,4.718l2,7.029-7.475,1.883a3.834,3.834,0,0,0-2.9,4.718l.236.827a4.13,4.13,0,0,0,5.017,2.724l7.475-1.883,2,7.028a4.131,4.131,0,0,0,5.018,2.724l.879-.222a3.834,3.834,0,0,0,2.9-4.718l-2-7.028,7.475-1.883a3.835,3.835,0,0,0,2.9-4.719l-.236-.827A4.13,4.13,0,0,0-775.32,335.713Z" transform="translate(1209.86 -240.47)" fill="#fff"/></g></g></g><g transform="translate(5.783 10.543)"><g transform="translate(0 0)"><g data-type="innerShadowGroup"><g transform="matrix(1, 0, 0, 1, -5.78, -10.29)" filter="url(#m)"><path d="M66.481,0H593.743c36.716,0,66.481,18.154,66.481,40.549v331.38c0,22.394-29.764,40.549-66.481,40.549H66.481C29.764,412.477,0,394.323,0,371.928V40.549C0,18.154,29.764,0,66.481,0Z" transform="translate(5.99 10.29)" fill="#90fac9"/></g><g transform="matrix(1, 0, 0, 1, -5.78, -10.29)" filter="url(#o)"><path d="M66.481,0H593.743c36.716,0,66.481,18.154,66.481,40.549v331.38c0,22.394-29.764,40.549-66.481,40.549H66.481C29.764,412.477,0,394.323,0,371.928V40.549C0,18.154,29.764,0,66.481,0Z" transform="translate(5.99 10.29)" fill="#fff"/></g></g><path d="M351.544,412.072a191.34,191.34,0,0,1-7.286-20.394,187.408,187.408,0,0,1-7.065-38.361,184.591,184.591,0,0,1,1.142-39.166,186.45,186.45,0,0,1,9.677-38.858,195.739,195.739,0,0,1,18.541-37.44,206.94,206.94,0,0,1,36.793-43.3A221.385,221.385,0,0,1,449.8,162.739a243.337,243.337,0,0,1,166.731-19.633,236.993,236.993,0,0,1,43.9,15.231V371.562c0,22.373-29.774,40.509-66.5,40.509ZM38.45,233.159A189.446,189.446,0,0,1,0,219.4V40.508C0,18.136,29.775,0,66.5,0H306.834a147.589,147.589,0,0,1-1.227,26.069,149.145,149.145,0,0,1-7.742,31.088,156.622,156.622,0,0,1-14.832,29.952l-44.6,70.253A165.579,165.579,0,0,1,209,192a177.082,177.082,0,0,1-37.166,25.455,193.488,193.488,0,0,1-88.057,21.057A194.138,194.138,0,0,1,38.45,233.159Z" transform="translate(0 0.416)" fill="#ffee04" stroke="rgba(0,0,0,0)" stroke-miterlimit="10" stroke-width="1" opacity="0.5"/></g><path d="M-827.824,601.724" transform="translate(1218.785 -290.822)" fill="none" stroke="#000" stroke-miterlimit="10" stroke-width="1"/><path d="M-827.824,601.724" transform="translate(1028.39 -257.798)" fill="none" stroke="#000" stroke-miterlimit="10" stroke-width="1"/><rect width="14.567" height="14.567" rx="7" transform="translate(453.095 78.71)" fill="none"/><rect width="19.696" height="19.696" rx="7" transform="translate(96.856 33.992)" fill="none"/><g transform="translate(43.454 38.446)"><path d="M45.13,0c24.925,0,45.13,20.458,45.13,45.695S70.055,91.389,45.13,91.389,0,70.931,0,45.695,20.206,0,45.13,0Z" fill="#9695f7"/><ellipse cx="45.097" cy="45.813" rx="45.097" ry="45.813" transform="translate(62.557 51.037)" fill="rgba(255,255,255,0.33)"/><g transform="matrix(0.978, -0.208, 0.208, 0.978, 8.563, 21.987)" style="isolation:isolate"><path d="M7.707,0h46.24a7.707,7.707,0,0,1,7.707,7.707V8.734a7.707,7.707,0,0,1-7.707,7.707H7.707A7.707,7.707,0,0,1,0,8.734V7.707A7.707,7.707,0,0,1,7.707,0Z" transform="translate(0 22.606)" fill="#fff"/><path d="M7.707,0h46.24a7.707,7.707,0,0,1,7.707,7.707V8.734a7.707,7.707,0,0,1-7.707,7.707H7.707A7.707,7.707,0,0,1,0,8.734V7.707A7.707,7.707,0,0,1,7.707,0Z" transform="translate(39.047 0) rotate(90)" fill="#fff"/><path d="M7.707,0H31.34a7.707,7.707,0,0,1,7.707,7.707V8.734a7.707,7.707,0,0,1-7.707,7.707H7.707A7.707,7.707,0,0,1,0,8.734V7.707A7.707,7.707,0,0,1,7.707,0Z" transform="translate(0 22.606)" fill="#2190ff" opacity="0.3"/></g><g transform="translate(76.495 96.204) rotate(-45)"><path d="M7.993,0S-.407,6.663.015,21.252,8.389,42.976,8.389,42.976" transform="translate(0 0)" fill="none" stroke="#fff" stroke-linecap="round" stroke-linejoin="round" stroke-width="10"/><path d="M0,0S8.8,7.161,9.223,21.75,2.095,43.026,2.095,43.026" transform="translate(33.793 0.747)" fill="none" stroke="#fff" stroke-linecap="round" stroke-linejoin="round" stroke-width="10"/></g></g><g transform="translate(445.599 30.732)"><g transform="translate(0 0)"><path d="M-833.44,378.232a3.7,3.7,0,0,1-2.576-1.066,4.336,4.336,0,0,1-.455-.555,4.021,4.021,0,0,1-.328-.628,3.446,3.446,0,0,1-.209-.683,3.744,3.744,0,0,1-.073-.709,3.7,3.7,0,0,1,1.065-2.576,3.674,3.674,0,0,1,3.286-.993,3.558,3.558,0,0,1,.683.21,3.424,3.424,0,0,1,.628.336,3.733,3.733,0,0,1,.555.447,3.7,3.7,0,0,1,1.065,2.576,3.749,3.749,0,0,1-.073.709,3.388,3.388,0,0,1-.21.683,3.97,3.97,0,0,1-.327.628,4.442,4.442,0,0,1-.455.555,4.564,4.564,0,0,1-.555.455,4.208,4.208,0,0,1-.628.329,3.558,3.558,0,0,1-.683.21A3.84,3.84,0,0,1-833.44,378.232Z" transform="translate(837.082 -298.634)" fill="#fff"/><path d="M-832.005,353.572a3.64,3.64,0,0,1-2.667-4.407h0a3.639,3.639,0,0,1,4.406-2.658h0a3.626,3.626,0,0,1,2.667,4.4h0a3.638,3.638,0,0,1-3.531,2.777h0A3.594,3.594,0,0,1-832.005,353.572Zm138.793-2.713a3.643,3.643,0,0,1,2.658-4.407h0a3.638,3.638,0,0,1,4.406,2.667h0a3.642,3.642,0,0,1-2.658,4.406h0a3.707,3.707,0,0,1-.874.109h0A3.632,3.632,0,0,1-693.212,350.859Zm-133.394-14.011a3.653,3.653,0,0,1-1.53-4.916h.008a3.634,3.634,0,0,1,4.917-1.53h0a3.652,3.652,0,0,1,1.529,4.916h0a3.651,3.651,0,0,1-3.231,1.948h0A3.692,3.692,0,0,1-826.606,336.848Zm127.468-1.567h0a3.643,3.643,0,0,1,1.53-4.924h0a3.653,3.653,0,0,1,4.916,1.529h0a3.639,3.639,0,0,1-1.53,4.917h0a3.527,3.527,0,0,1-1.693.419h0A3.622,3.622,0,0,1-699.139,335.281Zm-118.2-13.374a3.643,3.643,0,0,1-.31-5.144h0a3.653,3.653,0,0,1,5.144-.309h0a3.645,3.645,0,0,1,.3,5.144h0a3.625,3.625,0,0,1-2.723,1.229h0A3.653,3.653,0,0,1-817.338,321.907Zm108.7-.346v.009a3.653,3.653,0,0,1,.311-5.144h0a3.637,3.637,0,0,1,5.144.31h0a3.64,3.64,0,0,1-.31,5.134h0a3.609,3.609,0,0,1-2.414.92h0A3.614,3.614,0,0,1-708.635,321.561Zm-96.148-11.953a3.652,3.652,0,0,1,.929-5.072h0a3.642,3.642,0,0,1,5.062.929h0a3.639,3.639,0,0,1-.92,5.062h0a3.638,3.638,0,0,1-2.066.646h0A3.652,3.652,0,0,1-804.784,309.608Zm83.667.892a3.631,3.631,0,0,1-.928-5.062h0a3.639,3.639,0,0,1,5.061-.93h0a3.642,3.642,0,0,1,.93,5.071h0a3.639,3.639,0,0,1-3,1.567h0A3.606,3.606,0,0,1-721.117,310.5Zm-68.535-9.852a3.626,3.626,0,0,1,2.111-4.689h0a3.639,3.639,0,0,1,4.7,2.113h0a3.653,3.653,0,0,1-2.112,4.7h0a3.812,3.812,0,0,1-1.294.238h0A3.645,3.645,0,0,1-789.652,300.649Zm53.769,2.1h0a3.641,3.641,0,0,1-2.121-4.7h0a3.638,3.638,0,0,1,4.7-2.113h0a3.644,3.644,0,0,1,2.121,4.7h0a3.662,3.662,0,0,1-3.414,2.35h0A3.722,3.722,0,0,1-735.883,302.752Zm-36.937-7.146a3.634,3.634,0,0,1,3.178-4.051h0a3.637,3.637,0,0,1,4.052,3.176h0a3.649,3.649,0,0,1-3.177,4.051h0a3.683,3.683,0,0,1-.447.027h0A3.638,3.638,0,0,1-772.82,295.606Zm20.74,3.168a3.64,3.64,0,0,1-3.186-4.052h0a3.639,3.639,0,0,1,4.051-3.177h0a3.633,3.633,0,0,1,3.177,4.051h0a3.637,3.637,0,0,1-3.605,3.2h0A3.511,3.511,0,0,1-752.079,298.774Z" transform="translate(836.876 -291.519)" fill="#fff"/><path d="M-673.44,378.231a3.836,3.836,0,0,1-.71-.073,3.548,3.548,0,0,1-.683-.209,4.219,4.219,0,0,1-.628-.329,4.413,4.413,0,0,1-.555-.455,4.328,4.328,0,0,1-.455-.555,4.025,4.025,0,0,1-.328-.628,3.445,3.445,0,0,1-.209-.683,3.743,3.743,0,0,1-.073-.709,3.681,3.681,0,0,1,1.065-2.577,4.258,4.258,0,0,1,.555-.455,3.961,3.961,0,0,1,.628-.328,3.548,3.548,0,0,1,.683-.21,3.394,3.394,0,0,1,1.42,0,3.555,3.555,0,0,1,.683.21,3.965,3.965,0,0,1,.628.328,4.4,4.4,0,0,1,.555.455,3.7,3.7,0,0,1,1.065,2.577,3.743,3.743,0,0,1-.073.709,3.388,3.388,0,0,1-.21.683,3.325,3.325,0,0,1-.337.628,3.612,3.612,0,0,1-.445.555,4.562,4.562,0,0,1-.555.455,4.223,4.223,0,0,1-.628.329,3.555,3.555,0,0,1-.683.209A3.836,3.836,0,0,1-673.44,378.231Z" transform="translate(822.749 -298.634)" fill="#fff"/></g><g transform="translate(18.208 18.498)"><path d="M-813.44,378.231a3.837,3.837,0,0,1-.71-.073,3.556,3.556,0,0,1-.683-.209,4.217,4.217,0,0,1-.628-.329,4.4,4.4,0,0,1-.555-.455,4.324,4.324,0,0,1-.455-.555,4.035,4.035,0,0,1-.328-.628,3.445,3.445,0,0,1-.209-.683,3.743,3.743,0,0,1-.073-.709,3.681,3.681,0,0,1,1.065-2.577,4.251,4.251,0,0,1,.555-.455,3.96,3.96,0,0,1,.628-.328,3.556,3.556,0,0,1,.683-.21,3.4,3.4,0,0,1,1.42,0,3.553,3.553,0,0,1,.683.21,3.961,3.961,0,0,1,.628.328,4.4,4.4,0,0,1,.555.455,3.7,3.7,0,0,1,1.065,2.577,3.758,3.758,0,0,1-.073.709,3.388,3.388,0,0,1-.21.683,3.332,3.332,0,0,1-.337.628,3.626,3.626,0,0,1-.445.555,4.567,4.567,0,0,1-.555.455,4.218,4.218,0,0,1-.628.329,3.553,3.553,0,0,1-.683.209A3.835,3.835,0,0,1-813.44,378.231Z" transform="translate(817.082 -317.132)" fill="#fff"/><path d="M-811.087,354.027a3.642,3.642,0,0,1-2.167-4.671h0a3.632,3.632,0,0,1,4.661-2.167h0a3.627,3.627,0,0,1,2.175,4.661h0a3.626,3.626,0,0,1-3.422,2.394h0A3.56,3.56,0,0,1-811.087,354.027ZM-710.6,351.8a3.645,3.645,0,0,1,2.177-4.67h0a3.644,3.644,0,0,1,4.67,2.166h0a3.638,3.638,0,0,1-2.176,4.67h0a3.509,3.509,0,0,1-1.247.228h0A3.659,3.659,0,0,1-710.6,351.8Zm-92.088-14.821a3.648,3.648,0,0,1-.446-5.135h0A3.628,3.628,0,0,1-798,331.4h0a3.628,3.628,0,0,1,.446,5.125h0a3.633,3.633,0,0,1-2.786,1.3h0A3.623,3.623,0,0,1-802.684,336.975Zm83.211-.492a3.639,3.639,0,0,1,.447-5.127h0a3.629,3.629,0,0,1,5.126.438h0a3.64,3.64,0,0,1-.437,5.134h0a3.647,3.647,0,0,1-2.349.856h0A3.634,3.634,0,0,1-719.473,336.483Zm-69.5-12.673a3.627,3.627,0,0,1,1.329-4.972h0a3.627,3.627,0,0,1,4.97,1.33h0A3.629,3.629,0,0,1-784,325.139h0a3.59,3.59,0,0,1-1.821.492h0A3.638,3.638,0,0,1-788.973,323.81Zm55.936,1.3a3.654,3.654,0,0,1-1.338-4.979h0a3.645,3.645,0,0,1,4.98-1.329h0a3.634,3.634,0,0,1,1.329,4.971h0a3.621,3.621,0,0,1-3.159,1.821h0A3.629,3.629,0,0,1-733.037,325.111Zm-38.557-8.986a3.639,3.639,0,0,1,2.959-4.215h0a3.644,3.644,0,0,1,4.216,2.959h0a3.646,3.646,0,0,1-2.959,4.215h0a3.765,3.765,0,0,1-.637.055h0A3.645,3.645,0,0,1-771.594,316.125Zm21.923,2.95a3.654,3.654,0,0,1-2.959-4.214h0a3.644,3.644,0,0,1,4.215-2.969h0a3.647,3.647,0,0,1,2.959,4.215h0a3.645,3.645,0,0,1-3.586,3.023h0A3.661,3.661,0,0,1-749.671,319.075Z" transform="translate(816.759 -311.837)" fill="#fff"/><path d="M-693.44,378.232a3.841,3.841,0,0,1-.71-.073,3.55,3.55,0,0,1-.683-.21,4.207,4.207,0,0,1-.628-.329,4.409,4.409,0,0,1-.555-.455,3.7,3.7,0,0,1-1.065-2.576,3.773,3.773,0,0,1,.073-.711,3.521,3.521,0,0,1,.209-.683,4.2,4.2,0,0,1,.328-.628,4.452,4.452,0,0,1,.455-.554,4.258,4.258,0,0,1,.555-.455,3.961,3.961,0,0,1,.628-.328,3.55,3.55,0,0,1,.683-.21,3.674,3.674,0,0,1,3.287.993,3.7,3.7,0,0,1,.445.554,3.435,3.435,0,0,1,.337.628,3.47,3.47,0,0,1,.21.683,3.768,3.768,0,0,1,.073.711,3.749,3.749,0,0,1-.073.709,3.4,3.4,0,0,1-.21.683,3.323,3.323,0,0,1-.337.628,3.613,3.613,0,0,1-.445.555A3.7,3.7,0,0,1-693.44,378.232Z" transform="translate(806.332 -317.132)" fill="#fff"/></g><g transform="translate(36.417 35.897)"><path d="M-793.44,378.232a3.84,3.84,0,0,1-.71-.073,3.552,3.552,0,0,1-.683-.21,4.2,4.2,0,0,1-.628-.329,4.41,4.41,0,0,1-.555-.455,4.337,4.337,0,0,1-.455-.555,4.053,4.053,0,0,1-.328-.628,3.441,3.441,0,0,1-.209-.683,3.729,3.729,0,0,1-.073-.709,3.7,3.7,0,0,1,1.065-2.576,4.259,4.259,0,0,1,.555-.455,3.955,3.955,0,0,1,.628-.328,3.552,3.552,0,0,1,.683-.21,3.674,3.674,0,0,1,3.286.993,3.7,3.7,0,0,1,1.065,2.576,3.744,3.744,0,0,1-.073.709,3.4,3.4,0,0,1-.21.683,3.96,3.96,0,0,1-.327.628,4.415,4.415,0,0,1-.455.555A3.7,3.7,0,0,1-793.44,378.232Z" transform="translate(797.082 -334.532)" fill="#fff"/><path d="M-789.911,355.948a3.633,3.633,0,0,1-1.329-4.971h0a3.632,3.632,0,0,1,4.971-1.329h0a3.628,3.628,0,0,1,1.329,4.971h0a3.618,3.618,0,0,1-3.15,1.821h0A3.588,3.588,0,0,1-789.911,355.948Zm61.735-1.366h0a3.645,3.645,0,0,1,1.319-4.981h0a3.641,3.641,0,0,1,4.981,1.329h0a3.634,3.634,0,0,1-1.32,4.971h0a3.587,3.587,0,0,1-1.83.492h0A3.638,3.638,0,0,1-728.176,354.582Zm-49.745-13.292a3.635,3.635,0,0,1,1.329-4.971h0a3.63,3.63,0,0,1,4.97,1.319h0a3.641,3.641,0,0,1-1.319,4.98h0a3.575,3.575,0,0,1-1.821.493h0A3.652,3.652,0,0,1-777.921,341.29Zm37.737,1.31a3.654,3.654,0,0,1-1.338-4.98h0a3.654,3.654,0,0,1,4.98-1.329h0a3.634,3.634,0,0,1,1.329,4.971h0a3.622,3.622,0,0,1-3.159,1.821h0A3.653,3.653,0,0,1-740.184,342.6Zm-16.378-4.369Zm-3.651-3.642a3.641,3.641,0,0,1,3.642-3.642h0a3.641,3.641,0,0,1,3.642,3.642h0a3.639,3.639,0,0,1-3.633,3.642h0A3.654,3.654,0,0,1-760.213,334.59Z" transform="translate(796.603 -330.948)" fill="#fff"/><path d="M-713.44,378.231a3.7,3.7,0,0,1-2.577-1.066,3.7,3.7,0,0,1-1.065-2.576,3.148,3.148,0,0,1,.073-.711,2.986,2.986,0,0,1,.209-.683,3.442,3.442,0,0,1,.328-.628,4.453,4.453,0,0,1,.455-.554,3.7,3.7,0,0,1,2.577-1.065,3.7,3.7,0,0,1,2.576,1.065,4.543,4.543,0,0,1,.455.554,4.131,4.131,0,0,1,.327.628,3.471,3.471,0,0,1,.21.683,3.769,3.769,0,0,1,.073.711,3.7,3.7,0,0,1-1.065,2.576A3.7,3.7,0,0,1-713.44,378.231Z" transform="translate(789.915 -334.531)" fill="#fff"/></g><g transform="translate(54.625 56.532)"><path d="M-773.44,378.232a3.7,3.7,0,0,1-2.577-1.066,4.33,4.33,0,0,1-.455-.555,4.027,4.027,0,0,1-.328-.628,3.434,3.434,0,0,1-.209-.683,3.744,3.744,0,0,1-.073-.709,3.763,3.763,0,0,1,.073-.711,3.509,3.509,0,0,1,.209-.683,4.192,4.192,0,0,1,.328-.628,4.451,4.451,0,0,1,.455-.554,3.674,3.674,0,0,1,3.287-.993,3.555,3.555,0,0,1,.683.21,3.953,3.953,0,0,1,.628.328,4.376,4.376,0,0,1,.555.455,3.7,3.7,0,0,1,.445.554,3.439,3.439,0,0,1,.337.628,3.478,3.478,0,0,1,.21.683,3.773,3.773,0,0,1,.073.711,3.7,3.7,0,0,1-1.065,2.576,4.536,4.536,0,0,1-.555.455,4.2,4.2,0,0,1-.628.329,3.555,3.555,0,0,1-.683.21A3.844,3.844,0,0,1-773.44,378.232Z" transform="translate(777.082 -355.166)" fill="#fff"/><path d="M-766.6,359.088a3.636,3.636,0,0,1,1.329-4.971h0a3.627,3.627,0,0,1,4.971,1.329h0a3.631,3.631,0,0,1-1.32,4.971h0a3.58,3.58,0,0,1-1.821.492h0A3.632,3.632,0,0,1-766.6,359.088Zm19.537,1.321a3.637,3.637,0,0,1-1.338-4.971h0a3.648,3.648,0,0,1,4.98-1.339h0a3.647,3.647,0,0,1,1.329,4.981h0a3.654,3.654,0,0,1-3.159,1.821h0A3.548,3.548,0,0,1-747.063,360.409Z" transform="translate(776.187 -353.613)" fill="#fff"/><path d="M-733.44,378.232a3.843,3.843,0,0,1-.71-.073,3.552,3.552,0,0,1-.683-.21,4.206,4.206,0,0,1-.628-.329,4.41,4.41,0,0,1-.555-.455,3.7,3.7,0,0,1-1.065-2.576,3.7,3.7,0,0,1,1.065-2.576,4.259,4.259,0,0,1,.555-.455,3.961,3.961,0,0,1,.628-.328,3.551,3.551,0,0,1,.683-.21,3.674,3.674,0,0,1,3.287.993,3.7,3.7,0,0,1,1.065,2.576,3.7,3.7,0,0,1-1.065,2.576A3.685,3.685,0,0,1-733.44,378.232Z" transform="translate(773.499 -355.166)" fill="#fff"/></g><g transform="translate(2.114 89.75)"><path d="M-769.585,452.234a3.646,3.646,0,0,1-3.187-4.052h0a3.642,3.642,0,0,1,4.05-3.176h0a3.641,3.641,0,0,1,3.187,4.042h0a3.644,3.644,0,0,1-3.613,3.213h0A3.5,3.5,0,0,1-769.585,452.234Zm14.375-3.186A3.639,3.639,0,0,1-752.033,445h0a3.646,3.646,0,0,1,4.052,3.178h0a3.632,3.632,0,0,1-3.178,4.05h0a3.787,3.787,0,0,1-.445.028h0A3.636,3.636,0,0,1-755.21,449.048Zm-32.293-1.212a3.646,3.646,0,0,1-2.112-4.7h0a3.646,3.646,0,0,1,4.7-2.112h0a3.632,3.632,0,0,1,2.113,4.7h0a3.628,3.628,0,0,1-3.406,2.348h0A3.58,3.58,0,0,1-787.5,447.836Zm49.544-2.121a3.649,3.649,0,0,1,2.113-4.7h0a3.632,3.632,0,0,1,4.7,2.113h0a3.646,3.646,0,0,1-2.112,4.7h0a3.769,3.769,0,0,1-1.293.236h0A3.66,3.66,0,0,1-737.958,445.715Zm-65.859-6.446a3.643,3.643,0,0,1-.929-5.071h0a3.641,3.641,0,0,1,5.062-.929h0a3.643,3.643,0,0,1,.929,5.071h0a3.646,3.646,0,0,1-3,1.575h0A3.6,3.6,0,0,1-803.817,439.269Zm81.81-.947a3.64,3.64,0,0,1,.919-5.071h0a3.65,3.65,0,0,1,5.071.92h0a3.651,3.651,0,0,1-.929,5.071h0a3.619,3.619,0,0,1-2.066.646h0A3.623,3.623,0,0,1-722.007,438.322Zm-95.613-11.279a3.627,3.627,0,0,1,.311-5.136h0a3.644,3.644,0,0,1,5.144.3h0a3.651,3.651,0,0,1-.31,5.143h0a3.608,3.608,0,0,1-2.422.919h0A3.608,3.608,0,0,1-817.62,427.043Zm109.324.282a3.654,3.654,0,0,1-.31-5.145h0a3.652,3.652,0,0,1,5.144-.31h0a3.645,3.645,0,0,1,.31,5.144h0a3.635,3.635,0,0,1-2.731,1.221h0A3.641,3.641,0,0,1-708.3,427.325Zm-119.811-15.432h0a3.633,3.633,0,0,1,1.529-4.915h0a3.64,3.64,0,0,1,4.916,1.52h0a3.645,3.645,0,0,1-1.53,4.925h0a3.653,3.653,0,0,1-1.693.419h0A3.653,3.653,0,0,1-828.107,411.893Zm130.517,1.484a3.636,3.636,0,0,1-1.529-4.916h0a3.645,3.645,0,0,1,4.916-1.53h0a3.638,3.638,0,0,1,1.529,4.917h0A3.63,3.63,0,0,1-695.9,413.8h0A3.64,3.64,0,0,1-697.589,413.377Zm-137.064-18.718A3.644,3.644,0,0,1-832,390.252h0a3.638,3.638,0,0,1,4.407,2.668h0a3.641,3.641,0,0,1-2.658,4.405h0a3.586,3.586,0,0,1-.875.1h0A3.641,3.641,0,0,1-834.653,394.658Zm144.12,2.623a3.642,3.642,0,0,1-2.667-4.407h0a3.635,3.635,0,0,1,4.405-2.667h0a3.641,3.641,0,0,1,2.668,4.4h0v.01h0a3.642,3.642,0,0,1-3.532,2.768h0A4.087,4.087,0,0,1-690.534,397.281Z" transform="translate(834.76 -390.1)" fill="#fff"/></g><g transform="translate(21.508 91)"><path d="M-768.569,433.829a3.648,3.648,0,0,1-2.959-4.214h0a3.651,3.651,0,0,1,4.215-2.969h0a3.65,3.65,0,0,1,2.959,4.216h0a3.647,3.647,0,0,1-3.587,3.023h0A3.658,3.658,0,0,1-768.569,433.829Zm16.005-2.977a3.646,3.646,0,0,1,2.959-4.214h0a3.654,3.654,0,0,1,4.215,2.959h0a3.637,3.637,0,0,1-2.959,4.214h0a3.664,3.664,0,0,1-.628.055h0A3.637,3.637,0,0,1-752.564,430.852Zm-35.024-3.932a3.634,3.634,0,0,1-1.329-4.971h0a3.636,3.636,0,0,1,4.971-1.339h0a3.657,3.657,0,0,1,1.338,4.981h0a3.664,3.664,0,0,1-3.159,1.821h0A3.679,3.679,0,0,1-787.588,426.92Zm53.278-1.357a3.636,3.636,0,0,1,1.329-4.979h0a3.635,3.635,0,0,1,4.971,1.329h0a3.634,3.634,0,0,1-1.329,4.971h0a3.58,3.58,0,0,1-1.821.492h0A3.626,3.626,0,0,1-734.31,425.563Zm-68.782-11.634h.009a3.628,3.628,0,0,1,.437-5.126h0a3.628,3.628,0,0,1,5.126.437h.009a3.648,3.648,0,0,1-.447,5.134h0a3.616,3.616,0,0,1-2.339.856h0A3.662,3.662,0,0,1-803.092,413.928Zm84.113.391a3.632,3.632,0,0,1-.455-5.126h0a3.649,3.649,0,0,1,5.136-.445h0a3.638,3.638,0,0,1,.446,5.126h0a3.607,3.607,0,0,1-2.786,1.3h0A3.622,3.622,0,0,1-718.979,414.319Zm-94.255-17.89a3.64,3.64,0,0,1,2.167-4.67h0a3.638,3.638,0,0,1,4.67,2.167h0a3.642,3.642,0,0,1-2.167,4.67h0a3.527,3.527,0,0,1-1.247.228h0A3.641,3.641,0,0,1-813.234,396.429Zm104.844,2.113a3.643,3.643,0,0,1-2.176-4.671h0A3.627,3.627,0,0,1-705.9,391.7h0a3.626,3.626,0,0,1,2.175,4.66h0v.01h0a3.635,3.635,0,0,1-3.414,2.393h0A3.73,3.73,0,0,1-708.39,398.542Z" transform="translate(813.457 -391.473)" fill="#fff"/></g><g transform="translate(41.313 90.52)"><path d="M-756.515,416.44a3.654,3.654,0,0,1-3.651-3.642h0a3.641,3.641,0,0,1,3.642-3.642h0a3.641,3.641,0,0,1,3.642,3.642h0a3.627,3.627,0,0,1-3.633,3.642Zm-20.029-5.344a3.638,3.638,0,0,1-1.338-4.971h0a3.647,3.647,0,0,1,4.98-1.339h0a3.637,3.637,0,0,1,1.329,4.971h0a3.631,3.631,0,0,1-3.159,1.831h0A3.674,3.674,0,0,1-776.544,411.1Zm35.069-1.357a3.642,3.642,0,0,1,1.329-4.971h0a3.644,3.644,0,0,1,4.98,1.321h0a3.649,3.649,0,0,1-1.329,4.979h0a3.58,3.58,0,0,1-1.821.492h0A3.649,3.649,0,0,1-741.474,409.738Zm-49.736-13.283a3.633,3.633,0,0,1,1.32-4.971h0a3.645,3.645,0,0,1,4.98,1.321h0a3.643,3.643,0,0,1-1.32,4.979h0a3.73,3.73,0,0,1-1.83.492h0A3.636,3.636,0,0,1-791.211,396.455Zm64.393,1.285a3.63,3.63,0,0,1-1.329-4.971h0a3.625,3.625,0,0,1,4.971-1.329h0a3.632,3.632,0,0,1,1.329,4.971h0a3.636,3.636,0,0,1-3.15,1.821h0A3.594,3.594,0,0,1-726.818,397.74Z" transform="translate(791.704 -390.946)" fill="#fff"/></g><g transform="translate(63.738 88.081)"><path d="M-765.251,395.069h0a3.634,3.634,0,0,1-1.329-4.972h0a3.635,3.635,0,0,1,4.971-1.329h0a3.645,3.645,0,0,1,1.338,4.971h0a3.631,3.631,0,0,1-3.159,1.821h0A3.587,3.587,0,0,1-765.251,395.069Zm16.87-1.33a3.65,3.65,0,0,1,1.329-4.979h0a3.639,3.639,0,0,1,4.98,1.328h0a3.642,3.642,0,0,1-1.329,4.971h0a3.573,3.573,0,0,1-1.821.492h0A3.64,3.64,0,0,1-748.381,393.739Z" transform="translate(767.072 -388.266)" fill="#fff"/></g><ellipse cx="3.642" cy="3.642" rx="3.642" ry="3.642" transform="translate(72.833 72.314)" fill="#fff"/></g><g transform="matrix(1, 0, 0, 1, -5.78, -10.29)" filter="url(#s)"><path d="M-775.32,336.221l-7.476,2-2-7.475a4.1,4.1,0,0,0-5.017-2.9l-.88.236a4.1,4.1,0,0,0-2.9,5.017l2,7.475-7.475,2a4.1,4.1,0,0,0-2.9,5.017l.236.879a4.1,4.1,0,0,0,5.017,2.9l7.475-2,2,7.475a4.1,4.1,0,0,0,5.018,2.9l.879-.236a4.1,4.1,0,0,0,2.9-5.017l-2-7.475,7.475-2a4.1,4.1,0,0,0,2.9-5.018l-.236-.879A4.1,4.1,0,0,0-775.32,336.221Z" transform="translate(1198.85 -238.85)" fill="#fff"/></g></g></g><path d="M36.36,14.425H30.375V44.4H36.36Zm-8.595,20.3c-6.7-2.205-9.72-7.29-9.72-12.15v-.495h8.19v-4.68H3.69v4.68h8.325v.495c0,5.175-3.015,10.62-9.9,12.78L5.13,39.985a16.193,16.193,0,0,0,9.99-8.82,15.885,15.885,0,0,0,9.63,8.1Zm-13.05,15.7v-8.73H8.775V55.15H37.4V50.425Zm48.96-4.095V37.69H75.51V32.92H52.335V22.03H75.2V17.26H46.35V37.69H57.735v8.64H41.985v4.86h37.53V46.33Zm42.75-27.09H96.345v-4.5h-3.69v4.5H82.62v2.97h23.805ZM88.38,31.57c0-2.655,2.43-4.41,6.12-4.41s6.165,1.755,6.165,4.41c0,2.7-2.475,4.455-6.165,4.455S88.38,34.27,88.38,31.57Zm15.795,0c0-4.41-3.915-7.29-9.675-7.29-5.715,0-9.63,2.88-9.63,7.29,0,4.455,3.915,7.29,9.63,7.29C100.26,38.86,104.175,36.025,104.175,31.57ZM87.615,45.43h22.5v9.945h3.69V42.415H87.615ZM119.79,26.125h-5.985V15.01h-3.69v25.2h3.69V29.185h5.985Zm37.17,1.44c-7.155-.9-14.265-5.355-14.265-10.35v-1.8h-3.78v1.8c0,5.13-7.065,9.45-14.31,10.35l1.35,2.97c6.3-.99,12.33-4.14,14.85-8.64,2.565,4.5,8.55,7.65,14.805,8.64ZM150.615,51.82H130.77V46.69h19.845Zm0-7.965H130.77V39.13h-3.645V54.79H154.26V39.13h-3.645ZM122.49,33.37v2.97h36.54V33.37Z" transform="translate(125.5 495.5)"/><rect width="155" height="50" rx="25" transform="translate(124.112 573.009)" fill="#13be20"/><path d="M11.8,7.92H7.7V6.2H5.04V7.92H.96V10H11.8ZM4.38,13.96c0-.92.8-1.38,2-1.38,1.18,0,2,.46,2,1.38,0,.94-.82,1.4-2,1.4C5.18,15.36,4.38,14.9,4.38,13.96Zm6.52,0c0-2-1.86-3.38-4.52-3.38-2.64,0-4.52,1.38-4.52,3.38,0,2.02,1.88,3.4,4.52,3.4C9.04,17.36,10.9,15.98,10.9,13.96ZM3.18,20.72h9.64v4.02h2.64V18.6H3.18ZM17.9,11.04H15.46V6.32H12.82V17.84h2.64V13.22H17.9Zm16.68.42c-4.14-.46-6.14-2.54-6.14-4.4V6.5H25.72v.56c0,1.88-2,3.92-6.14,4.4l.92,2.04c3.14-.4,5.42-1.68,6.58-3.44,1.18,1.76,3.42,3.06,6.56,3.44Zm-3.88,11H23.32v-1.6H30.7Zm0-3.58H23.32V17.34H20.7V24.5H33.3V17.34H30.7ZM18.76,14.34v2.08H35.4V14.34ZM41.88,18.8a2.079,2.079,0,0,1-2.16-2.24,2.1,2.1,0,0,1,2.16-2.26,2.075,2.075,0,0,1,2.14,2.24A2.07,2.07,0,0,1,41.88,18.8Zm0-6.64a4.408,4.408,0,1,0,0,8.8,4.406,4.406,0,1,0,0-8.8Zm1.3-5.54H40.54v2.4H36.46v2.1H47.18V9.02h-4ZM53.66,13.5H51.02V6.3H48.38V24.72h2.64V15.68h2.64Zm1.72-5.3v2.1h6.14c-.38,4.08-2.42,6.96-7.12,9.22l1.38,2.08c6.54-3.16,8.44-7.76,8.44-13.4ZM67.04,6.28V24.7H69.7V6.28Z" transform="translate(145.112 583.009)" fill="#fff"/><g transform="translate(232.74 585.009)"><g fill="none" stroke="#fff" stroke-width="2"><ellipse cx="12.127" cy="12.42" rx="12.127" ry="12.42" stroke="none"/><ellipse cx="12.127" cy="12.42" rx="11.127" ry="11.42" fill="none"/></g><path d="M5,.689a.5.5,0,0,1,.851,0l4.526,7.33a.5.5,0,0,1-.425.763H.9a.5.5,0,0,1-.425-.763Z" transform="translate(17.989 6.944) rotate(90)" fill="#fff"/></g><g transform="translate(387.262 441.542) rotate(-21)"><g transform="translate(0 0)"><path d="M137.179,17.311C137.179,7.79,134.116,0,120.5,0c-9.158,0-11.272,4.63-14.3,14.838,0,0-.758,7.138-5.524,12.084-8.6,8.928-14.3-4.946-42.9-4.946,0,0-48.936-.716-57.2,49.461,0,0-8.293,42.114,38.05,69.245,11.741,6.874,14.381,14.838,9.615,24.73C31.055,201.079,24.491,239.6,91.222,239.6c26.216,0,47.665-22.257,47.665-49.461V101.113c0-1.573-.075-3.129-.215-4.665a17.876,17.876,0,0,0,.215-2.754Z" fill="#fff"/><path d="M0,2.473A2.43,2.43,0,0,0,2.383,4.946,2.43,2.43,0,0,0,4.766,2.473,2.43,2.43,0,0,0,2.383,0,2.43,2.43,0,0,0,0,2.473" transform="translate(48.241 51.652)" fill="#231815"/><path d="M0,2.473A2.43,2.43,0,0,0,2.383,4.946,2.43,2.43,0,0,0,4.766,2.473,2.43,2.43,0,0,0,2.383,0,2.43,2.43,0,0,0,0,2.473" transform="translate(38.708 51.652)" fill="#231815"/><path d="M2.72,0A2.569,2.569,0,0,1,5.37,2.581a2.736,2.736,0,0,1-2.72,2.65A2.569,2.569,0,0,1,0,2.651,2.736,2.736,0,0,1,2.72,0Z" transform="translate(42.631 65.271) rotate(-67.5)" fill="none" stroke="#231815" stroke-width="1.272"/></g></g><g transform="translate(457.344 517.054)"><ellipse cx="37.682" cy="37.682" rx="37.682" ry="37.682" transform="translate(0 0)" fill="#3ce6ff"/><path d="M-866.471,435.631a1.726,1.726,0,0,0-.509-3.241,100.733,100.733,0,0,0-15.363-1.129,100.737,100.737,0,0,0-15.364,1.129,1.726,1.726,0,0,0-.509,3.241,33.8,33.8,0,0,0,15.873,3.935A33.8,33.8,0,0,0-866.471,435.631Z" transform="translate(920.025 -368.922)" fill="#fff" opacity="0.64"/><g transform="matrix(1, 0, 0, 1, -393.34, -263.05)" filter="url(#u)"><path d="M26.667,28.08,30,9.171l5.882,1.037L32.549,29.119Zm-10.45-1.838L15.79,20.3,8.477,19.015,6.043,24.447,0,23.38,12.035,0l7.111,1.257,3.321,26.085Zm-4.9-13.618-.9,2,5.046.893-.162-2.192c-.23-2.578-.34-5.645-.559-8.292l-.133-.022C13.559,7.5,12.382,10.277,11.321,12.624Zm22.1-5.559a3.144,3.144,0,0,1-2.854-3.623A3.144,3.144,0,0,1,34.493.981a3.136,3.136,0,0,1,2.82,3.649,3.024,3.024,0,0,1-3.143,2.5A4.345,4.345,0,0,1,33.42,7.066Z" transform="translate(412.43 284.79)" fill="#fff"/></g></g></g></svg>