<svg xmlns="http://www.w3.org/2000/svg" width="145" height="168" viewBox="0 0 145 168">
    <defs>
        <linearGradient id="a" y1=".5" x2="1" y2=".5" gradientUnits="objectBoundingBox">
            <stop offset="0" stop-color="#00dcff"/>
            <stop offset="1" stop-color="#00c3e1"/>
        </linearGradient>
    </defs>
    <g data-name="-g-img_my_mail1">
        <path data-name="패스 6075" d="M1675.247 2651.333s35.058 15.024 27.645 36.66c-7.18 20.961-59.7 18.63-76.725 46.471" transform="translate(-1577.709 -2573.105)" style="fill:none;stroke:#00dcff;stroke-linecap:round;stroke-linejoin:round;stroke-width:4px;stroke-dasharray:12;opacity:.3"/>
        <path data-name="패스 6077" d="m2.85 41.461 72.333 32.258a4.809 4.809 0 0 0 6.766-4.392v-22a4.807 4.807 0 0 0-4.212-4.771L33.87 37.07l43.867-5.483a4.808 4.808 0 0 0 4.212-4.771v-22A4.808 4.808 0 0 0 75.183.422L2.85 32.68a4.807 4.807 0 0 0 0 8.781z" transform="rotate(30 18.538 69.93)" style="opacity:.65;fill:url(#a)"/>
    </g>
</svg>
