<svg xmlns="http://www.w3.org/2000/svg" width="80" height="80" viewBox="0 0 80 80"><g transform="translate(3 3)"><rect width="80" height="80" rx="40" transform="translate(-3 -3)" fill="#eafcfc"/><g transform="translate(15.491 14.637)"><path d="M2,0H16.264a0,0,0,0,1,0,0V30.5a0,0,0,0,1,0,0H0a0,0,0,0,1,0,0V2A2,2,0,0,1,2,0Z" transform="translate(13.376 14.231)" fill="#00d2aa"/><path d="M2,0H16.264a0,0,0,0,1,0,0V16.264a0,0,0,0,1,0,0H2a2,2,0,0,1-2-2V2A2,2,0,0,1,2,0Z" transform="translate(0 28.463)" fill="#00d2aa"/><path d="M2,0H14.264a2,2,0,0,1,2,2V42.727a2,2,0,0,1-2,2H0a0,0,0,0,1,0,0V2A2,2,0,0,1,2,0Z" transform="translate(26.753)" fill="#00b996"/></g></g></svg>