<svg xmlns="http://www.w3.org/2000/svg" id="_-g-img_popup_addproblem" width="320" height="56" viewBox="0 0 320 56">
    <defs>
        <clipPath id="clip-path">
            <path id="사각형_7014" fill="none" d="M0 0H208V48H0z" transform="translate(4630.36 3758.081)"/>
        </clipPath>
        <style>
            .cls-6{fill:none;stroke:#1e2328;stroke-linecap:round;stroke-linejoin:round;stroke-width:2.5px}.cls-8{fill:#00c0e1}
        </style>
    </defs>
    <g id="cha" transform="translate(-182.467 -954.795)">
        <g id="body" clip-path="url(#clip-path)" transform="translate(-4391.894 -2795.285)">
            <circle id="타원_1617" cx="132" cy="132" r="132" fill="#ff6b5f" transform="translate(4602.36 3758.081)"/>
        </g>
        <path id="cheek" fill="#ffa99a" stroke="rgba(0,0,0,0)" stroke-miterlimit="10" d="M-6089.731 26272.383a4.5 4.5 0 0 1 4.5-4.5 4.5 4.5 0 0 1 4.5 4.5 4.5 4.5 0 0 1-4.5 4.5 4.5 4.5 0 0 1-4.5-4.5zm-71 0a4.505 4.505 0 0 1 4.5-4.5 4.5 4.5 0 0 1 4.5 4.5 4.5 4.5 0 0 1-4.5 4.5 4.505 4.505 0 0 1-4.504-4.5z" transform="translate(6463.201 -25291.088)"/>
        <path id="eye" d="M4738.965 3770.325a3.75 3.75 0 0 1 6 0" class="cls-6" transform="translate(-4392.498 -2795.031)"/>
        <path id="eye-2" d="M4723.616 3770.325a3.75 3.75 0 0 1 6 0" class="cls-6" transform="translate(-4391.149 -2795.031)"/>
        <path id="mouth" fill="none" stroke="#1e2328" stroke-linecap="round" stroke-linejoin="round" stroke-width="3px" d="M4709.8 3776s4.5 12 24 12 24-12 24-12" transform="translate(-4391.335 -2795.199)"/>
    </g>
    <g id="notice" transform="matrix(0.94, 0.342, -0.342, 0.94, 228.92, 5)">
        <path id="패스_11525" d="M8.434 26.184A4.861 4.861 0 0 1 3.7 22.436L.163 7.4A6.018 6.018 0 0 1 6.021 0h4.826a6.018 6.018 0 0 1 5.858 7.4l-3.538 15.036a4.862 4.862 0 0 1-4.733 3.748z" class="cls-8" transform="translate(0 0)"/>
        <circle id="타원_1620" cx="6.931" cy="6.931" r="6.931" class="cls-8" transform="translate(1.503 30.035)"/>
    </g>
</svg>
