<svg xmlns="http://www.w3.org/2000/svg" width="81" height="84" viewBox="0 0 81 84">
    <defs>
        <linearGradient id="umq73mfq8b" x1=".5" x2=".5" y2="1" gradientUnits="objectBoundingBox">
            <stop offset="0" stop-color="#fff"/>
            <stop offset="1" stop-color="#dcf0fa"/>
        </linearGradient>
        <linearGradient id="3jc2v4egxd" x1=".5" x2=".5" y2="1" gradientUnits="objectBoundingBox">
            <stop offset="0" stop-color="#00dcff"/>
            <stop offset="1" stop-color="#00c3e1"/>
        </linearGradient>
        <filter id="anz7myj0ka" width="81" height="84" x="0" y="0" filterUnits="userSpaceOnUse">
            <feOffset dy="2"/>
            <feGaussianBlur result="blur" stdDeviation="2"/>
            <feFlood flood-color="#003273" flood-opacity=".078"/>
            <feComposite in2="blur" operator="in"/>
            <feComposite in="SourceGraphic"/>
        </filter>
        <filter id="fapcz9bf9c" width="55.001" height="47" x="13.005" y="22.505" filterUnits="userSpaceOnUse">
            <feOffset dy="4"/>
            <feGaussianBlur result="blur-2" stdDeviation="4"/>
            <feFlood flood-color="#00dcff" flood-opacity=".239"/>
            <feComposite in2="blur-2" operator="in"/>
            <feComposite in="SourceGraphic"/>
        </filter>
    </defs>
    <g>
        <g filter="url(#anz7myj0ka)" transform="translate(1084.722 -1088.644) translate(-1084.72 1088.64)">
            <path fill="url(#umq73mfq8b)" d="M-1041.221 1093.618l5.44 3.951a5.1 5.1 0 0 0 3 .975h6.724a5.105 5.105 0 0 1 4.856 3.527l2.078 6.393a5.108 5.108 0 0 0 1.855 2.552l5.44 3.951a5.1 5.1 0 0 1 1.855 5.706l-2.078 6.393a5.106 5.106 0 0 0 0 3.155l2.078 6.393a5.1 5.1 0 0 1-1.855 5.706l-5.44 3.951a5.108 5.108 0 0 0-1.855 2.552l-2.078 6.393a5.105 5.105 0 0 1-4.856 3.527h-6.724a5.1 5.1 0 0 0-3 .975l-5.44 3.951a5.106 5.106 0 0 1-6 0l-5.44-3.951a5.1 5.1 0 0 0-3-.975h-6.724a5.105 5.105 0 0 1-4.856-3.527l-2.078-6.393a5.108 5.108 0 0 0-1.855-2.552l-5.44-3.951a5.1 5.1 0 0 1-1.855-5.706l2.078-6.393a5.106 5.106 0 0 0 0-3.155l-2.078-6.393a5.1 5.1 0 0 1 1.855-5.706l5.44-3.951a5.108 5.108 0 0 0 1.855-2.552l2.078-6.393a5.105 5.105 0 0 1 4.856-3.527h6.724a5.1 5.1 0 0 0 3-.975l5.44-3.951a5.109 5.109 0 0 1 6 0z" transform="translate(1084.72 -1088.64)"/>
        </g>
        <g filter="url(#fapcz9bf9c)" transform="translate(1084.722 -1088.644) translate(-1084.72 1088.64)">
            <path fill="url(#3jc2v4egxd)" d="M2964.809 17018.625l-8-8a3.5 3.5 0 0 1 4.95-4.949l5.525 5.525 13.525-13.525a3.5 3.5 0 1 1 4.951 4.949l-16 16a3.5 3.5 0 0 1-4.95 0z" opacity="0.8" transform="translate(-2930.78 -16966.14)"/>
        </g>
    </g>
</svg>
