<svg xmlns="http://www.w3.org/2000/svg" width="480" height="224" viewBox="0 0 480 224">
    <defs>
        <clipPath id="clip-path">
            <path id="mask" d="M0 0H480V224H0z" class="cls-1" transform="translate(2464.129 3164.9)"/>
        </clipPath>
        <clipPath id="clip-path-2">
            <path id="사각형_6866" fill="none" d="M0 0H280V64H0z" transform="translate(2584.129 3324.901)"/>
        </clipPath>
        <clipPath id="clip-path-3">
            <path id="합치기_495" fill="rgba(0,0,0,0)" stroke="rgba(0,0,0,0)" stroke-miterlimit="10" d="M-19885.971 20276.316a10 10 0 0 1-9.9 8.584 10 10 0 0 1-10-10 10.006 10.006 0 0 1 10-10 10 10 0 0 1 9.9 8.59 10 10 0 0 1 9.9-8.59 10.006 10.006 0 0 1 10 10 10 10 0 0 1-10 10 10 10 0 0 1-9.9-8.584z" transform="translate(22609.816 -16932.311)"/>
        </clipPath>
        <clipPath id="clip-path-4">
            <path id="패스_11366" d="M3024.129 3152.894c-16.967 18-10.654 23.917-27.621 41.916s-23.28 12.082-40.248 30.082-10.654 23.917-27.622 41.917-23.281 12.082-40.249 30.083-10.655 23.918-27.623 41.919-23.282 12.083-40.25 30.084h-192.774c-16.969-18-23.282-12.083-40.25-30.084s-10.656-23.918-27.624-41.919-23.281-12.083-40.248-30.083-10.655-23.917-27.622-41.917-23.281-12.082-40.248-30.082-10.654-23.917-27.622-41.916z" class="cls-1" transform="translate(-20 12.006)"/>
        </clipPath>
        <linearGradient id="linear-gradient" x1=".5" x2=".5" y2="1.034" gradientUnits="objectBoundingBox">
            <stop offset="0" stop-color="#fff"/>
            <stop offset="1" stop-color="#323c46"/>
        </linearGradient>
        <style>
            .cls-1{fill:#fff}.cls-6{fill:#e3e4e6}.cls-16,.cls-17{fill:#bcbec2;opacity:.16;mix-blend-mode:multiply;isolation:isolate}.cls-16{stroke:#bcbec2;stroke-width:3px}
        </style>
    </defs>
    <g id="_-g-img_ocr_manual_1_1" clip-path="url(#clip-path)" transform="translate(-2464.129 -3164.9)">
        <path id="bg" fill="#dedfe1" d="M0 0H480V224H0z" transform="translate(2464.129 3164.9)"/>
        <g id="그룹_13874" transform="translate(4107.961 4610.285)">
            <circle id="타원_1558" cx="8.75" cy="8.75" r="8.75" class="cls-6" transform="translate(-1238.627 -1255.001)"/>
            <path id="패스_11375" d="M-1272.041-1313.506l-15.4 7.787a4.208 4.208 0 0 0-.461 7.238l13.6 9.219a4.207 4.207 0 0 0 6.544-3.043l1.791-17.006a4.208 4.208 0 0 0-6.074-4.195z" class="cls-6" transform="translate(-326 33.531)"/>
            <path id="패스_11377" d="M-1157.9-1378.617l-6.551 2.486a2.748 2.748 0 0 0-1.61 1.636l-2.383 6.589a2.749 2.749 0 0 1-5.156.041l-2.486-6.551a2.752 2.752 0 0 0-1.636-1.611l-6.589-2.382a2.75 2.75 0 0 1-.041-5.157l6.551-2.486a2.746 2.746 0 0 0 1.61-1.635l2.383-6.59a2.749 2.749 0 0 1 5.156-.04l2.486 6.551a2.753 2.753 0 0 0 1.636 1.61l6.589 2.382a2.75 2.75 0 0 1 .041 5.157z" class="cls-6" transform="translate(-23.75 92.562)"/>
        </g>
        <path id="패스_11348" fill="url(#linear-gradient)" d="M3024.129 3152.894c-16.967 18-10.654 23.917-27.621 41.916s-23.28 12.082-40.248 30.082-10.654 23.917-27.622 41.917-23.281 12.082-40.249 30.083-10.655 23.918-27.623 41.919-23.282 12.083-40.25 30.084h-192.774c-16.969-18-23.282-12.083-40.25-30.084s-10.656-23.918-27.624-41.919-23.281-12.083-40.248-30.083-10.655-23.917-27.622-41.917-23.281-12.082-40.248-30.082-10.654-23.917-27.622-41.916z" opacity="0.24" transform="translate(-20 12.006)"/>
        <g id="cha" transform="translate(-20)">
            <g id="그룹_13829" clip-path="url(#clip-path-2)">
                <circle id="타원_1529" cx="175.208" cy="175.208" r="175.208" fill="#ff6b5f" transform="translate(2548.922 3324.9)"/>
            </g>
            <path id="합치기_492" fill="#ffa99a" stroke="rgba(0,0,0,0)" stroke-miterlimit="10" d="M-19811.873 20271.9a7 7 0 0 1 7-7 7 7 0 0 1 7 7 7 7 0 0 1-7 7 7 7 0 0 1-7-7zm-94 0a7 7 0 0 1 7-7 7 7 0 0 1 7 7 7 7 0 0 1-7 7 7 7 0 0 1-7-7z" transform="translate(22576.145 -16922.045)"/>
            <path id="패스_11338" fill="#1e2328" d="M2724.13 3368.979c-2.272 0-3.988-1.542-5.5-2.9a3.356 3.356 0 0 0-5.407-.56c-1.779.833-3.615 1.7-5.493 1.092-2.308-.742-3.473-2.979-4.41-4.776a7.825 7.825 0 0 0-1.377-2.148 8.365 8.365 0 0 0-3.591-.505c-1.956-.022-3.979-.044-5.324-1.429a5.885 5.885 0 0 1-1.589-6.568 3.506 3.506 0 0 0 .1-2.5 2 2 0 1 1 3.746-1.405 7.319 7.319 0 0 1 0 5c-.356 1.258-.452 1.6.612 2.691a9.089 9.089 0 0 0 2.5.216 11 11 0 0 1 5.581 1.059 8.717 8.717 0 0 1 2.891 3.745c.629 1.209 1.343 2.579 2.088 2.819a7.759 7.759 0 0 0 2.569-.908c1.645-.772 3.5-1.649 5.473-1.378 1.684.23 3.017 1.427 4.305 2.585.932.837 2.093 1.879 2.831 1.879s1.9-1.041 2.827-1.878c1.289-1.159 2.621-2.356 4.306-2.585 1.965-.271 3.826.606 5.471 1.378a7.528 7.528 0 0 0 2.57.907c.747-.24 1.461-1.611 2.092-2.82a8.709 8.709 0 0 1 2.894-3.745 11 11 0 0 1 5.581-1.061 8.349 8.349 0 0 0 2.529-.244c1.031-1.067.935-1.405.578-2.66a7.323 7.323 0 0 1 0-5 2 2 0 0 1 3.747 1.405 3.5 3.5 0 0 0 .1 2.5 5.879 5.879 0 0 1-1.585 6.565c-1.344 1.386-3.367 1.409-5.323 1.432a8.371 8.371 0 0 0-3.595.507 7.837 7.837 0 0 0-1.38 2.149c-.937 1.8-2.1 4.034-4.413 4.777-1.877.606-3.715-.258-5.493-1.092a7.577 7.577 0 0 0-3.231-1.037 7.444 7.444 0 0 0-2.174 1.6c-1.52 1.351-3.236 2.893-5.506 2.893z"/>
            <path id="합치기_493" fill="#fff" stroke="rgba(0,0,0,0)" stroke-miterlimit="10" d="M-19885.971 20276.316a10 10 0 0 1-9.9 8.584 10 10 0 0 1-10-10 10.006 10.006 0 0 1 10-10 10 10 0 0 1 9.9 8.59 10 10 0 0 1 9.9-8.59 10.006 10.006 0 0 1 10 10 10 10 0 0 1-10 10 10 10 0 0 1-9.9-8.584z" transform="translate(22609.814 -16932.311)"/>
            <g id="마스크_그룹_7201" clip-path="url(#clip-path-3)">
                <path id="합치기_494" stroke="rgba(0,0,0,0)" stroke-miterlimit="10" d="M-19905.871 20284.217a8 8 0 0 1 8-8 8 8 0 0 1 8 8 8.006 8.006 0 0 1-8 8 8 8 0 0 1-8-8zm31.117-11.316a8 8 0 0 1 8-8 8 8 0 0 1 8 8 8 8 0 0 1-8 8 8 8 0 0 1-8-8.001z" transform="translate(22606.156 -16935.967)"/>
            </g>
        </g>
        <g id="마스크_그룹_7204" clip-path="url(#clip-path-4)">
            <path id="패스_11359" d="M2607.23 3245.706a7.033 7.033 0 0 1-5.717-2.941l-9.236-12.933a7.026 7.026 0 0 1-9.688-10.173l5.621-5.622a7.024 7.024 0 0 1 10.686.883l7.058 9.881 14.584-31.252a7.027 7.027 0 0 1 6.367-4.056h14.053a7.027 7.027 0 1 1 0 14.053h-9.579l-17.782 38.105a7.026 7.026 0 0 1-5.722 4.024q-.323.031-.645.031z" class="cls-16" transform="matrix(0.966, 0.259, -0.259, 0.966, 1099.727, -598.586)"/>
            <path id="합치기_502" d="M-19869.328 20447.465a7.642 7.642 0 0 1-7.619-7.654v-1.393a7.641 7.641 0 0 1 7.619-7.652h1.391a7.643 7.643 0 0 1 7.627 7.652v1.393a7.643 7.643 0 0 1-7.627 7.654zm-19.557-20.871a4.715 4.715 0 0 1-4.709-4.723v-1.68a4.712 4.712 0 0 1 4.709-4.727h40.506a4.715 4.715 0 0 1 4.705 4.727v1.68a4.717 4.717 0 0 1-4.705 4.723zm19.557-15.311a7.635 7.635 0 0 1-7.619-7.645v-1.393a7.635 7.635 0 0 1 7.619-7.654h1.391a7.637 7.637 0 0 1 7.627 7.654v1.393a7.636 7.636 0 0 1-7.627 7.645z" class="cls-17" transform="translate(30116.385 -4537.535) rotate(30)"/>
            <path id="패스_11365" d="M2934.531 3201.1h-17.5v-17.5a8.29 8.29 0 0 0-8.29-8.29h-1.841a8.288 8.288 0 0 0-8.29 8.29v17.5h-17.5a8.288 8.288 0 0 0-8.289 8.289v1.842a8.288 8.288 0 0 0 8.289 8.289h17.5v17.5a8.288 8.288 0 0 0 8.29 8.289h1.842a8.29 8.29 0 0 0 8.29-8.289v-17.5h17.5a8.29 8.29 0 0 0 8.29-8.289v-1.842a8.289 8.289 0 0 0-8.291-8.289z" class="cls-17" transform="translate(1251.222 -922.957) rotate(25)"/>
            <path id="패스_11379" d="M-287.4 103.323a2.627 2.627 0 0 1-.87.339 2.424 2.424 0 0 1-.377-.557 20.522 20.522 0 0 1-1.445-4.51c-.391-1.631-.881-4.058-1.461-7.229 1.472-2.175 2.847-4.281 4.082-6.251q2.387-3.711 3.394-5.2a17 17 0 0 1 1.456-1.932c.238-.256.38-.366.391-.382a.8.8 0 0 1 .114-.014 1.435 1.435 0 0 1 .139.126 9.244 9.244 0 0 1 .569.935 4.724 4.724 0 0 0 5.934 1.975 4.59 4.59 0 0 0 1.862-7.07 11.872 11.872 0 0 0-2.132-2.29 9.984 9.984 0 0 0-5.364-1.409 12.169 12.169 0 0 0-7.857 3.034 25.865 25.865 0 0 0-4.711 5.425A20.912 20.912 0 0 0-294.734 75a9.077 9.077 0 0 0-2.023-3.077 7 7 0 0 0-2.9-1.687 11.046 11.046 0 0 0-3.012-.382 11.5 11.5 0 0 0-5.7 1.517 36.663 36.663 0 0 0-4.477 3.842 3.7 3.7 0 0 0 .048 5.429 3.841 3.841 0 0 0 5.249-.065c.982-.948 1.893-1.816 2.006-1.885a2.343 2.343 0 0 1 .863-.328A3.7 3.7 0 0 1-304 79.6a28.409 28.409 0 0 1 1.158 4.014c.38 1.66.832 3.892 1.348 6.645-1.289 1.924-2.732 4.144-4.3 6.609q-2.387 3.711-3.394 5.2a16.628 16.628 0 0 1-1.461 1.937c-.232.252-.375.36-.384.377s-.057.009-.115.014a1.713 1.713 0 0 1-.139-.126 9.228 9.228 0 0 1-.569-.935 4.724 4.724 0 0 0-5.934-1.975 4.591 4.591 0 0 0-1.862 7.07 11.921 11.921 0 0 0 2.14 2.3 10.01 10.01 0 0 0 5.357 1.4 11.108 11.108 0 0 0 3.156-.458 12.771 12.771 0 0 0 3.014-1.357 16.628 16.628 0 0 0 3-2.418 26.385 26.385 0 0 0 2.944-3.573c.221-.3.454-.634.7-1 .04.16.079.317.119.47a17.134 17.134 0 0 0 1.783 4.591 7.683 7.683 0 0 0 2.977 2.876 8.98 8.98 0 0 0 4.192.9 11.506 11.506 0 0 0 5.66-1.5 36.4 36.4 0 0 0 4.515-3.86 3.7 3.7 0 0 0-.046-5.431 3.84 3.84 0 0 0-5.247.065c-.981.947-1.894 1.818-2.012 1.888z" class="cls-17" transform="translate(3192.719 3119.272)"/>
            <path id="패스_11381" d="M911.1 36.477a10.884 10.884 0 0 1 3.519-6.24 13.655 13.655 0 0 1 11.815-2.383c5.052 1.573 8 5 8 10.435 0 5.144-1.763 7.9-7.526 12.623-.953.81-2 1.668-3 2.475-.667.528-4.238 2.24-1.95 2.431 1.382.1 1.95 0 3.332 0 1.62 0 3.237-.143 4.813 0 1.283.1 3.193-.238 4.194.62a3.661 3.661 0 0 1 .187 4.29c-.811.949-2.145.667-3.237.667h-17.1a6.86 6.86 0 0 1-2-.052c-1.144-.282-.81-1.331-.81-2.284 0-3.241 3.475-5.338 5.767-7.241 1.664-1.478 3.666-2.908 5.381-4.385 4.476-3.714 6.1-5.811 6.1-8.715 0-3.194-2.236-5.052-5.239-5.052a6.654 6.654 0 0 0-5.528 2.812c-.382.667-.711 1.478-1.144 2.093-1.864 2.954-5.815.956-5.574-2.094z" class="cls-16" transform="matrix(0.985, 0.174, -0.174, 0.985, 1925.7, 3034.097)"/>
            <path id="패스_11382" d="M918.28 30.948a2.924 2.924 0 0 1 .772-2.042c1.53-1.381 3.168-1.33 5.163-1.433 1.531-.051 2.66 0 4.191 0 2.4 0 5.423.1 7.93.2 2.042.1 4.242.819 4.344 3.172.149 2.708-2.1 5.01-3.734 6.647-.833.864-1.878 1.858-3.184 3.11-.5.483-1.279 1.231-1.927 1.9 5.367.716 10.274 3.377 10.274 9.922s-5.316 11.5-12.628 11.5c-3.168 0-7.465-1.019-9.814-3.424-1.637-1.586-2.558-4.959.2-5.931 2.042-.716 3.782.559 5.419 1.484 2.507 1.535 5.368 1.991 8.028.405 3.069-1.838 2.554-5.573-.2-7.159-2.6-1.531-6.493-.61-8.59-2.963-2.3-2.661 2.558-6.187 4.14-7.978 1.023-1.023 2.711-2.763 2.967-3.786.41-1.126-1.944-.767-2.758-.767h-3.428c-1.842 0-4.962.307-6.493-1.019a2.269 2.269 0 0 1-.672-1.838z" class="cls-16" transform="translate(1728.223 3482.42) rotate(-20)"/>
        </g>
        <g id="그룹_13850" transform="translate(2588.539 3252.432)">
            <ellipse id="타원_1538" cx="113.818" cy="17.074" fill="none" stroke="#e5e5e5" stroke-miterlimit="10" stroke-width="4px" rx="113.818" ry="17.074" transform="matrix(0.998, 0.07, -0.07, 0.998, 2.382, 5.666)"/>
            <path id="패스_11343" d="M2709.683 3243.478l.984 4.8a2.123 2.123 0 0 0 1.252 1.528l4.509 1.909a2.122 2.122 0 0 1 .221 3.8l-4.259 2.418a2.126 2.126 0 0 0-1.066 1.663l-.422 4.878a2.122 2.122 0 0 1-3.545 1.384l-3.616-3.3a2.12 2.12 0 0 0-1.91-.5l-4.771 1.105a2.122 2.122 0 0 1-2.411-2.944l2.023-4.458a2.123 2.123 0 0 0-.114-1.973l-2.525-4.195a2.122 2.122 0 0 1 2.055-3.2l4.866.547a2.124 2.124 0 0 0 1.839-.718l3.209-3.7a2.122 2.122 0 0 1 3.681.956z" class="cls-1" transform="translate(-2622.414 -3241.779)"/>
            <path id="패스_11349" d="M2717.663 3244.326l1.476 7.194a3.183 3.183 0 0 0 1.878 2.292l6.763 2.865a3.183 3.183 0 0 1 .333 5.7l-6.389 3.627a3.186 3.186 0 0 0-1.6 2.494l-.633 7.318a3.182 3.182 0 0 1-5.317 2.075l-5.424-4.953a3.183 3.183 0 0 0-2.866-.75l-7.156 1.659a3.184 3.184 0 0 1-3.617-4.417l3.034-6.687a3.181 3.181 0 0 0-.171-2.959l-3.789-6.293a3.182 3.182 0 0 1 3.083-4.8l7.3.82a3.185 3.185 0 0 0 2.76-1.077l4.814-5.549a3.182 3.182 0 0 1 5.521 1.441z" class="cls-1" transform="translate(-2527.463 -3211.145)"/>
            <path id="패스_11353" d="M2701.7 3242.628l.492 2.4a1.059 1.059 0 0 0 .626.763l2.254.956a1.061 1.061 0 0 1 .11 1.9l-2.129 1.209a1.064 1.064 0 0 0-.533.832l-.211 2.44a1.06 1.06 0 0 1-1.772.691l-1.809-1.651a1.062 1.062 0 0 0-.955-.25l-2.385.553a1.061 1.061 0 0 1-1.206-1.473l1.011-2.229a1.06 1.06 0 0 0-.057-.986l-1.263-2.1a1.06 1.06 0 0 1 1.028-1.6l2.433.273a1.06 1.06 0 0 0 .919-.359l1.6-1.85a1.061 1.061 0 0 1 1.847.481z" class="cls-1" transform="translate(-2683.552 -3216.043)"/>
        </g>
    </g>
</svg>
