<svg xmlns="http://www.w3.org/2000/svg" width="216" height="48" viewBox="0 0 216 48">
    <defs>
        <clipPath id="025d3z9oga">
            <path d="M0 0H216V48H0z" transform="translate(-0.256)"/>
        </clipPath>
    </defs>
    <g>
        <g clip-path="url(#025d3z9oga)" transform="translate(0.256)">
            <circle cx="132" cy="132" r="132" fill="#ff6b5f" transform="translate(-24.256)"/>
        </g>
        <path fill="none" stroke="#1e2328" stroke-linecap="round" stroke-linejoin="round" stroke-width="3px" d="M3415 2026s4.687 12 25 12 25-12 25-12" transform="translate(0.256) translate(-3331.5 -2008)"/>
        <path fill="#ffa99a" stroke="rgba(0,0,0,0)" stroke-miterlimit="10" d="M71 4.5A4.5 4.5 0 1 1 75.5 9 4.5 4.5 0 0 1 71 4.5zm-71 0A4.5 4.5 0 1 1 4.5 9 4.5 4.5 0 0 1 0 4.5z" transform="translate(0.256) translate(68.001 14.502)"/>
        <path fill="#fff" d="M15 7.5a7.5 7.5 0 1 1 7.5 7.5A7.5 7.5 0 0 1 15 7.5zm-15 0A7.5 7.5 0 1 1 7.5 15 7.5 7.5 0 0 1 0 7.5z" transform="translate(0.256) translate(93.001 5.5)"/>
        <path fill="#1e2328" d="M15 6.346A7.5 7.5 0 0 1 18.5 0a7.5 7.5 0 0 1 0 12.7A7.5 7.5 0 0 1 15 6.346zm-15 0A7.5 7.5 0 0 1 3.5 0 7.488 7.488 0 0 1 7 6.346 7.5 7.5 0 0 1 3.5 12.7 7.5 7.5 0 0 1 0 6.346z" transform="translate(0.256) translate(93.001 6.656)"/>
    </g>
</svg>
