<svg xmlns="http://www.w3.org/2000/svg" width="240" height="145" viewBox="0 0 240 145">
    <defs>
        <linearGradient id="linear-gradient" x1=".5" x2=".5" y2=".5" gradientUnits="objectBoundingBox">
            <stop offset="0" stop-color="#fff" stop-opacity="0"/>
            <stop offset="1" stop-color="#fff"/>
        </linearGradient>
        <clipPath id="clip-path">
            <path id="사각형_7973" data-name="사각형 7973" class="cls-1" transform="translate(106 542.561)" d="M0 0h165v88H0z"/>
        </clipPath>
        <filter id="모양_7" x="31.665" y="57.464" width="236.301" height="170.712" filterUnits="userSpaceOnUse">
            <feOffset dy="3"/>
            <feGaussianBlur stdDeviation="5.5" result="blur"/>
            <feFlood flood-opacity=".349"/>
            <feComposite operator="in" in2="blur"/>
            <feComposite in="SourceGraphic"/>
        </filter>
        <style>
            .cls-1{fill:#fff}.cls-14,.cls-8,.cls-9{fill:none}.cls-9{stroke:#fff}.cls-8{stroke:#fd5c44;stroke-width:4.5px}.cls-14,.cls-8,.cls-9{stroke-linecap:round}.cls-9{stroke-width:2.813px}.cls-14{stroke:#225782}.cls-13{fill:#225782}.cls-14{stroke-width:5px}
        </style>
    </defs>
    <g id="_-g-img_popup_cha03" data-name="-g-img_popup_cha03" transform="translate(-66 -487.561)">
        <g id="그룹_14058" data-name="그룹 14058" transform="translate(7.596 397.217)">
            <circle id="타원_7" data-name="타원 7" cx="27" cy="27" r="27" transform="translate(168.9 120.32)" style="fill:#28d1e6"/>
            <path id="다각형_1" data-name="다각형 1" class="cls-1" d="M5.143 1.429a1 1 0 0 1 1.715 0l4.234 7.056A1 1 0 0 1 10.234 10H1.766a1 1 0 0 1-.857-1.514z" transform="rotate(90 31.03 171.374)"/>
            <g id="사각형_7162" data-name="사각형 7162" transform="translate(182.404 135.344)" style="stroke-width:2.5px;stroke:#fff;fill:none">
                <rect width="27" height="22" rx="7" style="stroke:none"/>
                <rect x="1.25" y="1.25" width="24.5" height="19.5" rx="5.75" style="fill:none"/>
            </g>
        </g>
        <g style="clip-path:url(#clip-path)">
            <g transform="translate(66 487.56)" style="filter:url(#모양_7)" id="마스크_그룹_7328" data-name="마스크 그룹 7328">
                <path id="모양_7-2" data-name="모양 7" class="cls-1" d="M243.32 600.009c-12.213-13.422-29.089-35.159-62.213-34.643-25.231.393-37.017-3.3-37.017-3.3s-8.277 0-13.006-3.546c0 0-1.182 15.368 9.459 21.278 0 0-25.586 8.4-26.374 53.275-.334 19.04 17.8 44.2 46.462 61.413 22.352 13.418 189.317-54.922 151.2-54.327-28.319.447-54.858-25.144-68.511-40.15z" transform="translate(-66 -487.56)"/>
            </g>
        </g>
        <path id="tran" transform="translate(106 603.561)" style="fill:url(#linear-gradient)" d="M0 0h165v27H0z"/>
        <path id="사각형_15" data-name="사각형 15" d="m198.659 524.294 12.407 12.4a5.8 5.8 0 1 1-8.208 8.206l-12.407-12.4a5.8 5.8 0 1 1 8.208-8.206z" transform="translate(-70 -30)" style="fill:#35539b"/>
        <g id="그룹_7541" data-name="그룹 7541">
            <path id="모양_14" data-name="모양 14" class="cls-8" transform="translate(106.31 526.68)" d="M0 0v7.87"/>
            <path id="모양_14_복사" data-name="모양 14 복사" class="cls-8" transform="translate(106.31 544.67)" d="M0 0v7.88"/>
            <path id="모양_14_복사_2" data-name="모양 14 복사 2" class="cls-8" transform="translate(93.37 539.61)" d="M0 0h7.88"/>
            <path id="모양_14_복사_2-2" data-name="모양 14 복사 2" class="cls-8" transform="translate(111.37 539.61)" d="M0 0h7.88"/>
        </g>
        <g id="그룹_7541_복사" data-name="그룹 7541 복사" transform="translate(14 -7.826)">
            <path id="모양_14-2" data-name="모양 14" class="cls-9" transform="translate(226.69 498.56)" d="M0 0v7.87"/>
            <path id="모양_14_복사-2" data-name="모양 14 복사" class="cls-9" transform="translate(226.69 516.55)" d="M0 0v7.88"/>
            <path id="모양_14_복사_2-3" data-name="모양 14 복사 2" class="cls-9" transform="translate(213.75 511.49)" d="M0 0h7.87"/>
            <path id="모양_14_복사_2-4" data-name="모양 14 복사 2" class="cls-9" transform="translate(231.75 511.49)" d="M0 0h7.87"/>
        </g>
        <g id="cha">
            <path id="모양_7_복사_2" data-name="모양 7 복사 2" d="M247.257 614.181c-1.5-30.025-22.926-44.23-42.525-52.752" style="stroke-width:3.375px;stroke:#ffc823;fill:none"/>
            <path id="모양_7_복사" data-name="모양 7 복사" d="M148.778 560.4s-8.144-1.474-12.167-5.8c0 0-3.9 14.9 5.52 22.606 0 0-26.387 12.568-28.749 49.573" style="stroke:#225782;stroke-width:3.375px;fill:none"/>
        </g>
        <path id="삼각형_1" data-name="삼각형 1" d="m240.963 554.766 22.725 8.752-18.933 15.3z" transform="translate(38 27)" style="fill:#ffc823"/>
        <g id="character1_복사" data-name="character1 복사" transform="translate(157 587)">
            <ellipse id="타원_4" data-name="타원 4" class="cls-13" cx="4.315" cy="4.258" rx="4.315" ry="4.258"/>
            <ellipse id="타원_4_복사_2" data-name="타원 4 복사 2" class="cls-13" cx="4.315" cy="4.258" rx="4.315" ry="4.258" transform="translate(25.686)"/>
            <path id="모양_23" data-name="모양 23" class="cls-14" d="M1044.7 354.588s3.382-2.643 9.715-1.643" transform="translate(-1027.749 -328.718)"/>
            <path id="모양_2" data-name="모양 2" class="cls-14" d="M1045.706 326.187v9.124h6.165" transform="translate(-1031.017 -321.526)"/>
        </g>
    </g>
</svg>
