<svg xmlns="http://www.w3.org/2000/svg" width="593" height="125" viewBox="0 0 593 125">
    <path d="m18682.383 14854.758 4.346-24.7h121.656l-4.346 24.7zm-39.721 0 19.561-111.151h25.035l-19.557 111.151zm-105.463 0 4.352-24.7h15.059l4.346-24.7h-12.8l4.346-24.7h91.533l-4.35 24.7h-15.064l-4.346 24.7h12.8l-4.35 24.7zm44.34-24.7h13.814l4.34-24.7h-13.812zm-223.758 24.7 8.7-49.4h-16.057l-8.691 49.4h-25.037l19.561-111.151h25.035l-6.521 37.049h16.061l6.52-37.049h25.035l-19.568 111.151zm-131.482 0 13.035-74.1h77.357l-13.031 74.1zm29.662-24.7h26.727l4.348-24.7h-26.736zm147.018-5.485 4.348-24.7h123.023l-4.346 24.7zm296.523-15.1 11.582-65.865h65.117l-4.346 24.7h-38.348l-2.9 16.47h60.654l-4.34 24.693zm-250.879-44.179-21.865 21.9-17.424-17.465 38.395-38.471 27.84 25.1 27.84-25.1 38.4 38.471-17.436 17.465-21.861-21.9-26.947 24.3z" transform="translate(-18220.297 -14730.26)" style="fill:#00c3e1" data-name="-g-img_logo_intro_tt"/>
</svg>
