<svg xmlns="http://www.w3.org/2000/svg" width="459.998" height="102.004" viewBox="0 0 459.998 102.004">
    <defs>
        <linearGradient id="ucwz7pgkea" x2="1" y2="1" gradientUnits="objectBoundingBox">
            <stop offset="0" stop-color="#f8fcfe"/>
            <stop offset="1" stop-color="#e4f6fa"/>
        </linearGradient>
        <linearGradient id="rg757s4trc" x2="1" y1="-.014" y2=".958" gradientUnits="objectBoundingBox">
            <stop offset="0" stop-color="#fcffff"/>
            <stop offset="1" stop-color="#e6f8fa"/>
        </linearGradient>
        <clipPath id="nc3yvajrlb">
            <path fill="url(#ucwz7pgkea)" d="M-6205 23175v-76a22 22 0 0 1 22-22h416a22 22 0 0 1 22 22v76s-76.635 4-230 4-230-4-230-4z" transform="translate(6615 -22818)"/>
        </clipPath>
        <clipPath id="gfh4shhh5d">
            <path fill="none" d="M0 0H208V48H0z" transform="translate(4630.36 3758.081)"/>
        </clipPath>
    </defs>
    <g clip-path="url(#nc3yvajrlb)" transform="translate(-410 -258.998)">
        <path fill="url(#rg757s4trc)" d="M-6205 23173v-76a22 22 0 0 1 22-22h416a22 22 0 0 1 22 22v76s-76.64 4-230 4-230-4-230-4z" transform="translate(6615 -22816)"/>
        <g>
            <path fill="#00c3e1" d="M45.383 22.691A22.692 22.692 0 1 0 13.757 43.55a5.629 5.629 0 0 1 2.37 1.918l4.828 6.817a2.127 2.127 0 0 0 3.472 0l4.828-6.815a5.681 5.681 0 0 1 2.4-1.93 22.692 22.692 0 0 0 13.728-20.849z" transform="translate(9.554 -33.232) translate(739.463 314.208) rotate(45)"/>
            <path fill="#fff" d="M1.266 21.371a3.9 3.9 0 1 1 3.9 3.9 3.9 3.9 0 0 1-3.9-3.9zm1.084-8.217L.077 3.486A2.835 2.835 0 0 1 2.835 0h4.552a2.838 2.838 0 0 1 2.763 3.486L7.9 13.05a2.916 2.916 0 0 1-2.181 2.226 2.834 2.834 0 0 1-3.369-2.122z" transform="translate(9.554 -33.232) translate(736.385 333.221) rotate(8)"/>
        </g>
        <g>
            <g clip-path="url(#gfh4shhh5d)" transform="translate(297.533 -649.795) translate(-4391.894 -2795.285)">
                <circle cx="132" cy="132" r="132" fill="#ff6b5f" transform="translate(4602.36 3758.081)"/>
            </g>
            <path fill="#ffa99a" stroke="rgba(0,0,0,0)" stroke-miterlimit="10" d="M-6089.731 26272.383a4.5 4.5 0 0 1 4.5-4.5 4.5 4.5 0 0 1 4.5 4.5 4.5 4.5 0 0 1-4.5 4.5 4.5 4.5 0 0 1-4.5-4.5zm-71 0a4.505 4.505 0 0 1 4.5-4.5 4.5 4.5 0 0 1 4.5 4.5 4.5 4.5 0 0 1-4.5 4.5 4.505 4.505 0 0 1-4.504-4.5z" transform="translate(297.533 -649.795) translate(6463.201 -25291.088)"/>
            <path fill="none" stroke="#1e2328" stroke-linecap="round" stroke-linejoin="round" stroke-width="3px" d="M4709.8 3776s4.5 12 24 12 24-12 24-12" transform="translate(297.533 -649.795) translate(-4391.335 -2795.199)"/>
            <path fill="#1e2328" stroke="rgba(0,0,0,0)" stroke-miterlimit="10" d="M9.5 3.749V2.25a2.25 2.25 0 1 1 4.5 0v1.5a2.25 2.25 0 1 1-4.5 0zm-9.5 0V2.25a2.25 2.25 0 1 1 4.5 0v1.5a2.25 2.25 0 1 1-4.5 0z" transform="translate(297.533 -649.795) translate(335.467 970.795)"/>
        </g>
    </g>
</svg>
