<svg xmlns="http://www.w3.org/2000/svg" width="367.995" height="96" viewBox="0 0 367.995 96">
    <g>
        <path fill="#0fd0ee" d="M-4373.753 14635.7c-3.413-3.983 15-62 27.3-71.673 0 0 59.444-5.691 59.444 0s-24.176 31.286-23.606 36.4 15.928 30.859 13.083 35.269c-1.385 2.147-18.706 3.147-36.5 3.147-18.721.007-37.968-1.101-39.721-3.143zm-270.725 0c-2.844-4.409 12.514-30.15 13.083-35.269s-23.606-30.717-23.606-36.4 59.445 0 59.445 0c12.3 9.671 30.716 67.689 27.3 71.673-1.75 2.04-21 3.147-39.726 3.147-17.788-.001-35.108-1.001-36.496-3.151z" transform="translate(3582.001 -1637.5) translate(1073 -12905.35)"/>
        <path fill="#00c3e1" d="M-4512.532 14634.486c-103.374.2-121.933 16.82-127.511 14.905-5.611-1.923-19.242-37.513-13.627-57.711 5.5-19.788 79.269-29.769 139.27-30.168v-.013h3.736v.013c60 .4 133.773 10.38 139.27 30.168 5.611 20.2-8.02 55.788-13.631 57.711a3.2 3.2 0 0 1-1.038.153c-6.81.003-28.722-14.869-126.469-15.058z" transform="translate(3582.001 -1637.5) translate(1116.336 -12924)"/>
    </g>
</svg>
