<svg data-name="-g-img_logo_intro" xmlns="http://www.w3.org/2000/svg" width="320" height="224" viewBox="0 0 320 224">
    <defs>
        <linearGradient id="a" y1=".5" x2="1" y2=".5" gradientUnits="objectBoundingBox">
            <stop offset="0" stop-color="#00d7ff"/>
            <stop offset=".626" stop-color="#00cdff"/>
        </linearGradient>
        <linearGradient id="b" y1=".5" x2="1" y2=".5" gradientUnits="objectBoundingBox">
            <stop offset="0" stop-color="#00cdff"/>
            <stop offset="1" stop-color="#00beff"/>
        </linearGradient>
    </defs>
    <g transform="translate(389.297 -174.438)">
        <path data-name="패스 6831" d="M-303.676 293.564c-5.37-2.5-17.6-10.64-15.214-31.991.851-7.615 3.34-15.909 5.747-23.932 1.542-5.145 3.934-13.117 4.581-17.75l-21.861-14.55c9.079-13.637 27.725-23.942 44.4-16.163 5.639 2.629 18.526 11.156 16.376 33.485-.816 8.485-3.516 17.483-6.126 26.186-1.7 5.682-4.557 15.192-4.42 18.259-.081-1.8-1.949-6.548-6.98-8.895zm-2.953-72.386a11.121 11.121 0 0 0 4.114 3.357 10.957 10.957 0 0 0 1.993.708z" transform="translate(3.439 .03)" style="fill:#00d7ff"/>
        <path data-name="패스 6832" d="M-300.572 296.324A28.46 28.46 0 0 1-312.6 293.6l16.5-35.35a10.1 10.1 0 0 0-8.8 0c4.4-2.89 13.42-18.383 18.811-27.64 5.916-10.161 12.035-20.666 18.479-28.48 16.221-19.662 31.421-16.638 39.04-13.085 5.715 2.665 18.73 11.33 16.085 34.115-1 8.587-3.9 17.758-6.713 26.628-1.871 5.907-5 15.8-4.9 18.981-.057-1.865-1.933-6.768-7.123-9.19l-16.494 35.353c-4.95-2.311-15.609-9.34-15.372-26.939A124.7 124.7 0 0 1-272 280.278c-10.509 12.512-20.567 16.046-28.572 16.046z" transform="translate(12.361)" style="fill:url(#a)"/>
        <path data-name="패스 6833" d="M-253.643 297.564a28.287 28.287 0 0 1-11.957-2.7 19.5 19.5 0 0 1-9.427-25.923 19.551 19.551 0 0 1 19.165-11.207c4.926-5.164 12.715-18.307 17.621-26.588 6.093-10.281 12.394-20.913 18.961-28.8 16.425-19.731 31.617-16.733 39.209-13.193 5.717 2.666 18.734 11.328 16.086 34.091-.945 8.122-3.6 16.76-6.267 25.168a19.419 19.419 0 0 1 10.011 3.254 19.506 19.506 0 0 1 5.43 27.045c-9.076 13.636-27.721 23.942-44.4 16.161-5.021-2.344-15.891-9.526-15.363-27.6a136.746 136.746 0 0 1-10.243 14.149c-10.668 12.595-20.799 16.143-28.826 16.143z" transform="translate(30.244 .065)" style="fill:url(#b)"/>
        <circle data-name="타원 1311" cx="26.551" cy="26.551" r="26.551" transform="translate(-337.297 189.24)" style="fill:#00ebff"/>
    </g>
    <path d="m24161.766 23147.131 7.566-43.088h10.469a19.437 19.437 0 0 1 6.828-1.23 19.7 19.7 0 0 1 0 39.395 19.473 19.473 0 0 1-12.059-4.17l-1.6 9.094zm16.277-24.621a8.586 8.586 0 1 0 8.586-8.619 8.616 8.616 0 0 0-8.586 8.619zm49.93 0a19.6 19.6 0 0 1 31.723-15.494l2.684-15.285h11.207l-8.652 49.252h-10.527a19.47 19.47 0 0 1-6.816 1.225 19.676 19.676 0 0 1-19.619-19.698zm11.031 0a8.586 8.586 0 1 0 8.586-8.619 8.619 8.619 0 0 0-8.59 8.619zm-30.777 18.473 6.488-36.939h11.207l-6.488 36.939zm-62.555 0 3.277-18.658c1.047-5.971.02-10.42-4.914-10.9a6.16 6.16 0 0 0-6.734 4.883l-4.332 24.672h-11.211l8.648-49.252h11.211l-2.164 12.313a27.108 27.108 0 0 1 6.746-1.23c11.234 0 16.293 6.23 14.559 16.084l-3.879 22.086zm-48.437 0 4.324-24.629h-5.434l1.727-9.85h5.438l1.512-8.617h11.2l-1.512 8.617h7.891l-1.73 9.85h-7.891l-4.324 24.629zm-22.066 0 .168-.961a19.708 19.708 0 1 1 6.02-34.258l.3-1.721h11.211l-6.492 36.939zm-14.477-19.705a8.586 8.586 0 1 0 8.586-8.617 8.611 8.611 0 0 0-8.587 8.616zm-30.555 19.705 5.012-28.512-15.348 6.512-11.848-11.23-5.836 33.23h-11.211l9.73-55.408 21.5 20.385 27.4-11.631-8.191 46.654zm185.391-48.02a6.736 6.736 0 1 1 6.734 6.76 6.747 6.747 0 0 1-6.735-6.76z" transform="translate(-23971.906 -22936.354)" style="fill:#00cdff;stroke:transparent;stroke-miterlimit:10"/>
</svg>
