<svg xmlns="http://www.w3.org/2000/svg" xmlns:xlink="http://www.w3.org/1999/xlink" width="672" height="365" viewBox="0 0 672 365"><defs><clipPath id="a"><rect width="672" height="365" transform="translate(64 291)" fill="none" stroke="#707070" stroke-width="1"/></clipPath><filter id="b" x="-1.473" y="14.699" width="672.233" height="359.301" filterUnits="userSpaceOnUse"><feOffset dy="10" input="SourceAlpha"/><feGaussianBlur stdDeviation="5" result="c"/><feFlood flood-opacity="0.361"/><feComposite operator="in" in2="c"/><feComposite in="SourceGraphic"/></filter><filter id="d" x="-1.473" y="14.699" width="672.233" height="359.301" filterUnits="userSpaceOnUse"><feOffset dy="-6" input="SourceAlpha"/><feGaussianBlur stdDeviation="2.5" result="e"/><feFlood flood-opacity="0.161" result="f"/><feComposite operator="out" in="SourceGraphic" in2="e"/><feComposite operator="in" in="f"/><feComposite operator="in" in2="SourceGraphic"/></filter></defs><g transform="translate(-64 -291)"><g clip-path="url(#a)"><g transform="translate(65.102 307.718)"><g transform="translate(12.425 2.981)"><g data-type="innerShadowGroup"><g transform="matrix(1, 0, 0, 1, -13.53, -19.7)" filter="url(#b)"><path d="M118.553,329.3c-28.263,0-51.174-23.464-51.174-52.409V87.348c0-7.065.414-18.309-10.08-18.89C46.116,67.839,34.893,67.1,34.893,67.1,14.472,66.715,0,51.524,0,33.192S14.51,0,32.41,0L485.251,7.045c117.761,0,156.982,90.723,156.982,211.325V303.1c0,14.472-11.456,26.2-25.587,26.2Z" transform="translate(13.53 19.7)" fill="#27e8fb"/></g><g transform="matrix(1, 0, 0, 1, -13.53, -19.7)" filter="url(#d)"><path d="M118.553,329.3c-28.263,0-51.174-23.464-51.174-52.409V87.348c0-7.065.414-18.309-10.08-18.89C46.116,67.839,34.893,67.1,34.893,67.1,14.472,66.715,0,51.524,0,33.192S14.51,0,32.41,0L485.251,7.045c117.761,0,156.982,90.723,156.982,211.325V303.1c0,14.472-11.456,26.2-25.587,26.2Z" transform="translate(13.53 19.7)" fill="#fff"/></g></g></g><g transform="matrix(0.978, -0.208, 0.208, 0.978, 67.704, 28.707)" style="mix-blend-mode:soft-light;isolation:isolate"><path d="M18.086.491,126.153.85a18.023,18.023,0,0,1,18.071,17.8l.008,2.366A17.734,17.734,0,0,1,126.281,38.7L18.214,38.34A18.023,18.023,0,0,1,.143,20.538L.135,18.172A17.734,17.734,0,0,1,18.086.491Z" transform="translate(0.361 51.863)" fill="#fff"/><path d="M17.681-.123l106.45-.36a17.734,17.734,0,0,1,17.682,17.951l-.008,2.4A18.023,18.023,0,0,1,124,37.941l-106.45.36A17.734,17.734,0,0,1-.129,20.35l.008-2.4A18.023,18.023,0,0,1,17.681-.123Z" transform="translate(91.454 0.616) rotate(90)" fill="#fff"/><path d="M18.085.31,73.319.494A18.023,18.023,0,0,1,91.39,18.3l.008,2.366A17.734,17.734,0,0,1,73.447,38.343l-55.234-.184A18.023,18.023,0,0,1,.142,20.358L.134,17.992A17.734,17.734,0,0,1,18.085.31Z" transform="translate(0.362 52.044)" fill="#2190ff" opacity="0.3"/></g><g transform="translate(483.924 56.306)"><g transform="translate(0 0)"><path d="M6.238.061a6.238,6.238,0,0,1,6.236,6.154A6.094,6.094,0,0,1,6.3,12.309,6.238,6.238,0,0,1,.062,6.155,6.094,6.094,0,0,1,6.238.061Z" transform="translate(0 14.606) rotate(-18)"/><path d="M6.238.061a6.238,6.238,0,0,1,6.236,6.154A6.094,6.094,0,0,1,6.3,12.309,6.238,6.238,0,0,1,.062,6.155,6.094,6.094,0,0,1,6.238.061Z" transform="translate(30.955 3.721) rotate(-18)"/></g><g transform="translate(23.125 32.325) rotate(-22)"><g transform="translate(0 0)"><path d="M8.139,9.325A8.289,8.289,0,0,1,2.506,6.994,8.022,8.022,0,0,1,.015,1.229,1.143,1.143,0,0,1,1.221.1a1.243,1.243,0,0,1,1.22,1.2A5.661,5.661,0,0,0,4.192,5.371,5.749,5.749,0,0,0,8.167,6.988a5.659,5.659,0,0,0,5.718-5.679A1.143,1.143,0,0,1,15.091.174a1.243,1.243,0,0,1,1.22,1.2,7.793,7.793,0,0,1-2.333,5.631A8.037,8.037,0,0,1,8.238,9.326Z" transform="translate(0 0)" fill="#707070"/><path d="M8.139,9.325A8.289,8.289,0,0,1,2.506,6.994,8.022,8.022,0,0,1,.015,1.229,1.143,1.143,0,0,1,1.221.1a1.243,1.243,0,0,1,1.22,1.2A5.661,5.661,0,0,0,4.192,5.371,5.749,5.749,0,0,0,8.167,6.988a5.659,5.659,0,0,0,5.718-5.679A1.143,1.143,0,0,1,15.091.174a1.243,1.243,0,0,1,1.22,1.2,7.793,7.793,0,0,1-2.333,5.631A8.037,8.037,0,0,1,8.238,9.326Z" transform="translate(0 0)" fill="#1a1311"/></g></g></g></g><g transform="matrix(1, -0.017, 0.017, 1, 276.026, 372.86)"><path d="M23.806.007A23.688,23.688,0,1,1,.007,23.688,23.764,23.764,0,0,1,23.806.007Z" transform="translate(0 0)" fill="#9695f7"/><ellipse cx="23.813" cy="23.695" rx="23.813" ry="23.695" transform="translate(32.741 26.33)" fill="rgba(175,242,180,0.62)"/><g transform="matrix(0.978, -0.208, 0.208, 0.978, 4.519, 11.398)" style="isolation:isolate"><path d="M4.062.018l24.37.092a4.068,4.068,0,0,1,4.077,4.014l0,.533a3.994,3.994,0,0,1-4.046,3.983L4.095,8.549A4.068,4.068,0,0,1,.018,4.535L.016,4A3.994,3.994,0,0,1,4.062.018Z" transform="translate(0.047 11.728)" fill="#fff"/><path d="M4-.016,27.99-.108a3.994,3.994,0,0,1,3.983,4.046l0,.542a4.068,4.068,0,0,1-4.014,4.077L3.965,8.649A3.994,3.994,0,0,1-.018,4.6l0-.542A4.068,4.068,0,0,1,4-.016Z" transform="translate(20.581 0.08) rotate(90)" fill="#fff"/><path d="M4.062.017,16.518.064A4.068,4.068,0,0,1,20.6,4.078l0,.533a3.994,3.994,0,0,1-4.046,3.983L4.095,8.547A4.068,4.068,0,0,1,.018,4.534L.016,4A3.994,3.994,0,0,1,4.062.017Z" transform="translate(0.046 11.729)" fill="#2190ff" opacity="0.3"/></g><g transform="translate(40.363 49.885) rotate(-45)"><path d="M4.181.037S-.18,3.485.107,11.118s4.476,11.4,4.476,11.4" transform="translate(0 0)" fill="none" stroke="#fff" stroke-linecap="round" stroke-linejoin="round" stroke-width="7"/><path d="M0,0A15.985,15.985,0,0,1,4.921,11.419c.287,7.633-3.63,11.1-3.63,11.1" transform="translate(17.673 0.546)" fill="none" stroke="#fff" stroke-linecap="round" stroke-linejoin="round" stroke-width="7"/></g></g><g transform="translate(596.795 528.558)"><g transform="matrix(0.966, 0.259, -0.259, 0.966, 1.476, -12.531)" opacity="0.678"><line x2="30.797" y2="37.75" transform="translate(13.837 14.239)" fill="none" stroke="#a8e8f2" stroke-width="8"/><line x1="29.825" y2="29.829" transform="translate(29.404 20.833)" fill="none" stroke="#a8e8f2" stroke-width="8"/><line x1="30.845" y1="35.013" transform="translate(78.99 20.849)" fill="none" stroke="#a8e8f2" stroke-width="8"/><path d="M13.557,0A13.358,13.358,0,0,1,27,13.439,13.642,13.642,0,0,1,13.442,27,13.358,13.358,0,0,1,0,13.559,13.642,13.642,0,0,1,13.557,0Z" transform="translate(0 0)" fill="#e5f9fc"/><path d="M13.557,0A13.358,13.358,0,0,1,27,13.439,13.642,13.642,0,0,1,13.442,27,13.358,13.358,0,0,1,0,13.559,13.642,13.642,0,0,1,13.557,0Z" transform="translate(15.455 38.079)" fill="#08d9fa"/><path d="M15.591,0A15.362,15.362,0,0,1,31.049,15.454a15.688,15.688,0,0,1-15.59,15.593A15.362,15.362,0,0,1,0,15.593,15.688,15.688,0,0,1,15.591,0Z" transform="translate(43.477 5.209)" fill="#08b3ce"/><path d="M15.591,0A15.362,15.362,0,0,1,31.049,15.454a15.688,15.688,0,0,1-15.59,15.593A15.362,15.362,0,0,1,0,15.593,15.688,15.688,0,0,1,15.591,0Z" transform="translate(93.939 40.563)" fill="#e5f9fc"/></g></g></g><path d="M36.36,14.425H30.375V44.4H36.36Zm-8.595,20.3c-6.7-2.205-9.72-7.29-9.72-12.15v-.495h8.19v-4.68H3.69v4.68h8.325v.495c0,5.175-3.015,10.62-9.9,12.78L5.13,39.985a16.193,16.193,0,0,0,9.99-8.82,15.885,15.885,0,0,0,9.63,8.1Zm-13.05,15.7v-8.73H8.775V55.15H37.4V50.425Zm48.96-4.095V37.69H75.51V32.92H52.335V22.03H75.2V17.26H46.35V37.69H57.735v8.64H41.985v4.86h37.53V46.33Zm42.75-27.09H96.345v-4.5h-3.69v4.5H82.62v2.97h23.805ZM88.38,31.57c0-2.655,2.43-4.41,6.12-4.41s6.165,1.755,6.165,4.41c0,2.7-2.475,4.455-6.165,4.455S88.38,34.27,88.38,31.57Zm15.795,0c0-4.41-3.915-7.29-9.675-7.29-5.715,0-9.63,2.88-9.63,7.29,0,4.455,3.915,7.29,9.63,7.29C100.26,38.86,104.175,36.025,104.175,31.57ZM87.615,45.43h22.5v9.945h3.69V42.415H87.615ZM119.79,26.125h-5.985V15.01h-3.69v25.2h3.69V29.185h5.985Zm37.17,1.44c-7.155-.9-14.265-5.355-14.265-10.35v-1.8h-3.78v1.8c0,5.13-7.065,9.45-14.31,10.35l1.35,2.97c6.3-.99,12.33-4.14,14.85-8.64,2.565,4.5,8.55,7.65,14.805,8.64ZM150.615,51.82H130.77V46.69h19.845Zm0-7.965H130.77V39.13h-3.645V54.79H154.26V39.13h-3.645ZM122.49,33.37v2.97h36.54V33.37Z" transform="translate(185.686 473.5)"/><g transform="translate(170.646 551.104)"><rect width="155" height="50" rx="25" transform="translate(13.651 -0.095)" fill="#13be20"/><path d="M11.8,7.92H7.7V6.2H5.04V7.92H.96V10H11.8ZM4.38,13.96c0-.92.8-1.38,2-1.38,1.18,0,2,.46,2,1.38,0,.94-.82,1.4-2,1.4C5.18,15.36,4.38,14.9,4.38,13.96Zm6.52,0c0-2-1.86-3.38-4.52-3.38-2.64,0-4.52,1.38-4.52,3.38,0,2.02,1.88,3.4,4.52,3.4C9.04,17.36,10.9,15.98,10.9,13.96ZM3.18,20.72h9.64v4.02h2.64V18.6H3.18ZM17.9,11.04H15.46V6.32H12.82V17.84h2.64V13.22H17.9Zm16.68.42c-4.14-.46-6.14-2.54-6.14-4.4V6.5H25.72v.56c0,1.88-2,3.92-6.14,4.4l.92,2.04c3.14-.4,5.42-1.68,6.58-3.44,1.18,1.76,3.42,3.06,6.56,3.44Zm-3.88,11H23.32v-1.6H30.7Zm0-3.58H23.32V17.34H20.7V24.5H33.3V17.34H30.7ZM18.76,14.34v2.08H35.4V14.34ZM41.88,18.8a2.079,2.079,0,0,1-2.16-2.24,2.1,2.1,0,0,1,2.16-2.26,2.075,2.075,0,0,1,2.14,2.24A2.07,2.07,0,0,1,41.88,18.8Zm0-6.64a4.408,4.408,0,1,0,0,8.8,4.406,4.406,0,1,0,0-8.8Zm1.3-5.54H40.54v2.4H36.46v2.1H47.18V9.02h-4ZM53.66,13.5H51.02V6.3H48.38V24.72h2.64V15.68h2.64Zm1.72-5.3v2.1h6.14c-.38,4.08-2.42,6.96-7.12,9.22l1.38,2.08c6.54-3.16,8.44-7.76,8.44-13.4ZM67.04,6.28V24.7H69.7V6.28Z" transform="translate(34.651 9.905)" fill="#fff"/><g transform="translate(122.279 11.905)"><g fill="none" stroke="#fff" stroke-width="2"><ellipse cx="12.127" cy="12.42" rx="12.127" ry="12.42" stroke="none"/><ellipse cx="12.127" cy="12.42" rx="11.127" ry="11.42" fill="none"/></g><path d="M5,.689a.5.5,0,0,1,.851,0l4.526,7.33a.5.5,0,0,1-.425.763H.9a.5.5,0,0,1-.425-.763Z" transform="translate(17.989 6.944) rotate(90)" fill="#fff"/></g></g></g></svg>