<svg xmlns="http://www.w3.org/2000/svg" width="327.999" height="224" viewBox="0 0 327.999 224">
    <defs>
        <clipPath id="clip-path">
            <path id="패스_127801" data-name="패스 127801" d="M33.028 0h261.944C313.212 0 328 9.859 328 22.02v179.96c0 12.161-14.787 22.02-33.028 22.02H33.028C14.787 224 0 214.141 0 201.98V22.02C0 9.859 14.787 0 33.028 0z" transform="translate(16 136)" style="fill:#90fac9"/>
        </clipPath>
        <clipPath id="clip-path-2">
            <path id="패스_127708" data-name="패스 127708" d="M25.558 0h202.7c14.115 0 25.558 9.443 25.558 21.091v172.363c0 11.648-11.443 21.091-25.558 21.091h-202.7C11.443 214.545 0 205.1 0 193.454V21.091C0 9.443 11.443 0 25.558 0z" style="fill:#8d9cf6"/>
        </clipPath>
        <filter id="패스_12131" x="195.537" y="33.451" width="25.345" height="25.345" filterUnits="userSpaceOnUse">
            <feOffset/>
            <feGaussianBlur stdDeviation="1.5" result="blur"/>
            <feFlood flood-color="#fff"/>
            <feComposite operator="in" in2="blur"/>
            <feComposite in="SourceGraphic"/>
        </filter>
        <filter id="합치기_648" x="204.097" y="130.032" width="24.654" height="20.537" filterUnits="userSpaceOnUse">
            <feOffset/>
            <feGaussianBlur stdDeviation="1" result="blur-2"/>
            <feFlood flood-color="#fff" flood-opacity=".8"/>
            <feComposite operator="in" in2="blur-2"/>
            <feComposite in="SourceGraphic"/>
        </filter>
        <style>
            
        </style>
    </defs>
    <g id="마스크_그룹_14528" data-name="마스크 그룹 14528" transform="translate(-16 -136)" style="clip-path:url(#clip-path)">
        <path id="교차_28" data-name="교차 28" d="M178.717 224q-.373-.721-.735-1.447a103.58 103.58 0 0 1-7.335-19.387 102.2 102.2 0 0 1-3.246-19.748 100.886 100.886 0 0 1 5.544-40.087 104.376 104.376 0 0 1 9.1-19.23 106.82 106.82 0 0 1 18.274-22.59 109.935 109.935 0 0 1 23.072-16.6A115.531 115.531 0 0 1 306.2 74.666a113.969 113.969 0 0 1 21.8 7.947V201.98c0 12.162-14.787 22.02-33.027 22.02zM19.1 121.651a91.133 91.133 0 0 1-19.1-7.18V22.02C0 9.859 14.787 0 33.028 0h119.359a80.865 80.865 0 0 1-.676 14.1 81.053 81.053 0 0 1-3.864 15.966 83.448 83.448 0 0 1-7.281 15.385L118.418 82.1a85.466 85.466 0 0 1-14.618 18.074 87.9 87.9 0 0 1-18.458 13.281 92.357 92.357 0 0 1-43.733 10.986 91.959 91.959 0 0 1-22.509-2.79z" transform="translate(16 136)" style="stroke-miterlimit:10;fill:#ffee04;stroke:transparent;opacity:.5"/>
        <rect id="사각형_9543" data-name="사각형 9543" width="10.006" height="10.006" rx="5.003" transform="translate(66.633 149.661)" style="fill:none"/>
        <g id="그룹_14835" data-name="그룹 14835" transform="translate(37.818 151.924)">
            <path id="패스_100964" data-name="패스 100964" d="M22.926 0a23.071 23.071 0 0 1 22.926 23.213 23.071 23.071 0 0 1-22.926 23.212A23.071 23.071 0 0 1 0 23.213 23.071 23.071 0 0 1 22.926 0z" style="fill:#9695f7"/>
            <ellipse id="타원_1857" data-name="타원 1857" cx="22.909" cy="23.273" rx="22.909" ry="23.273" transform="translate(31.779 25.927)" style="fill:rgba(255,255,255,.33)"/>
            <g id="icon" transform="rotate(-12.04 55.29 -15.065)" style="isolation:isolate">
                <path id="패스_6954" data-name="패스 6954" d="M3.915 0H27.4a3.915 3.915 0 0 1 3.92 3.915v.522a3.915 3.915 0 0 1-3.92 3.915H3.915A3.915 3.915 0 0 1 0 4.437v-.522A3.915 3.915 0 0 1 3.915 0z" transform="translate(0 11.484)" style="fill:#fff"/>
                <path id="패스_6953" data-name="패스 6953" d="M3.915 0H27.4a3.915 3.915 0 0 1 3.92 3.915v.522a3.915 3.915 0 0 1-3.92 3.915H3.915A3.915 3.915 0 0 1 0 4.437v-.522A3.915 3.915 0 0 1 3.915 0z" transform="rotate(90 9.918 9.918)" style="fill:#fff"/>
                <path id="패스_6951" data-name="패스 6951" d="M3.915 0h12.006a3.915 3.915 0 0 1 3.915 3.915v.522a3.915 3.915 0 0 1-3.915 3.915H3.915A3.915 3.915 0 0 1 0 4.437v-.522A3.915 3.915 0 0 1 3.915 0z" transform="translate(0 11.484)" style="fill:#2190ff;opacity:.3"/>
            </g>
            <g id="그룹_14794" data-name="그룹 14794" transform="rotate(-45 78.422 -22.471)">
                <path id="패스_6721" data-name="패스 6721" d="M4.06 0S-.207 3.385.008 10.8s4.254 11.032 4.254 11.032" style="stroke:#fff;stroke-linecap:round;stroke-linejoin:round;stroke-width:5px;fill:none"/>
                <path id="패스_6722" data-name="패스 6722" d="M0 0s4.471 3.638 4.685 11.049-3.621 10.808-3.621 10.808" transform="translate(17.167 .38)" style="stroke:#fff;stroke-linecap:round;stroke-linejoin:round;stroke-width:5px;fill:none"/>
            </g>
        </g>
        <g id="그룹_14423" data-name="그룹 14423" transform="translate(243.793 148.005)">
            <g id="그룹_14415" data-name="그룹 14415">
                <path id="패스_12115" data-name="패스 12115" d="M-835.232 374.65a1.88 1.88 0 0 1-1.309-.542 2.2 2.2 0 0 1-.231-.282 2.046 2.046 0 0 1-.167-.319 1.749 1.749 0 0 1-.106-.347 1.9 1.9 0 0 1-.037-.36 1.879 1.879 0 0 1 .541-1.309 1.866 1.866 0 0 1 1.67-.5 1.809 1.809 0 0 1 .347.107 1.742 1.742 0 0 1 .319.171 1.891 1.891 0 0 1 .282.227 1.881 1.881 0 0 1 .541 1.309 1.9 1.9 0 0 1-.037.36 1.722 1.722 0 0 1-.107.347 2.007 2.007 0 0 1-.166.319 2.248 2.248 0 0 1-.231.282 2.315 2.315 0 0 1-.282.231 2.138 2.138 0 0 1-.319.167 1.808 1.808 0 0 1-.347.106 1.95 1.95 0 0 1-.361.033z" transform="translate(837.082 -334.215)" style="fill:#fff"/>
                <path id="패스_12116" data-name="패스 12116" d="M-833.37 323.042a1.849 1.849 0 0 1-1.355-2.239 1.848 1.848 0 0 1 2.238-1.35 1.842 1.842 0 0 1 1.355 2.234 1.848 1.848 0 0 1-1.794 1.411 1.825 1.825 0 0 1-.444-.056zm70.507-1.378a1.851 1.851 0 0 1 1.35-2.239 1.848 1.848 0 0 1 2.238 1.355 1.85 1.85 0 0 1-1.35 2.238 1.881 1.881 0 0 1-.444.055 1.845 1.845 0 0 1-1.794-1.41zm-67.764-7.118a1.856 1.856 0 0 1-.777-2.5 1.846 1.846 0 0 1 2.5-.777 1.855 1.855 0 0 1 .777 2.5 1.855 1.855 0 0 1-1.641.99 1.876 1.876 0 0 1-.859-.213zm64.753-.8a1.851 1.851 0 0 1 .777-2.5 1.856 1.856 0 0 1 2.5.776 1.848 1.848 0 0 1-.777 2.5 1.792 1.792 0 0 1-.86.213 1.84 1.84 0 0 1-1.64-.985zm-60.045-6.794a1.851 1.851 0 0 1-.157-2.613 1.855 1.855 0 0 1 2.613-.157 1.852 1.852 0 0 1 .153 2.613 1.841 1.841 0 0 1-1.383.624 1.856 1.856 0 0 1-1.226-.463zm55.221-.176a1.855 1.855 0 0 1 .158-2.613 1.848 1.848 0 0 1 2.613.158 1.849 1.849 0 0 1-.157 2.608 1.833 1.833 0 0 1-1.226.468 1.836 1.836 0 0 1-1.39-.617zm-48.843-6.072a1.855 1.855 0 0 1 .472-2.577 1.85 1.85 0 0 1 2.571.472 1.849 1.849 0 0 1-.468 2.571 1.848 1.848 0 0 1-1.049.328 1.855 1.855 0 0 1-1.526-.79zm42.5.453a1.845 1.845 0 0 1-.471-2.571 1.849 1.849 0 0 1 2.571-.472 1.85 1.85 0 0 1 .472 2.576 1.849 1.849 0 0 1-1.522.8 1.832 1.832 0 0 1-1.048-.329zm-34.816-5a1.842 1.842 0 0 1 1.073-2.382 1.848 1.848 0 0 1 2.387 1.073 1.856 1.856 0 0 1-1.073 2.386 1.938 1.938 0 0 1-.657.121 1.852 1.852 0 0 1-1.728-1.198zm27.315 1.068a1.85 1.85 0 0 1-1.078-2.386 1.848 1.848 0 0 1 2.386-1.073 1.851 1.851 0 0 1 1.078 2.386 1.86 1.86 0 0 1-1.734 1.194 1.89 1.89 0 0 1-.65-.121zm-18.764-3.63a1.846 1.846 0 0 1 1.615-2.058 1.847 1.847 0 0 1 2.058 1.614 1.854 1.854 0 0 1-1.614 2.058 1.872 1.872 0 0 1-.227.014 1.848 1.848 0 0 1-1.826-1.628zm10.536 1.609a1.849 1.849 0 0 1-1.619-2.059 1.849 1.849 0 0 1 2.058-1.614 1.846 1.846 0 0 1 1.614 2.058 1.848 1.848 0 0 1-1.831 1.628 1.788 1.788 0 0 1-.22-.017z" transform="translate(835.844 -291.519)" style="fill:#fff"/>
                <path id="패스_12117" data-name="패스 12117" d="M-675.232 374.646a1.95 1.95 0 0 1-.361-.037 1.8 1.8 0 0 1-.347-.106 2.142 2.142 0 0 1-.319-.167 2.248 2.248 0 0 1-.282-.231 2.193 2.193 0 0 1-.231-.282 2.041 2.041 0 0 1-.167-.319 1.748 1.748 0 0 1-.106-.347 1.9 1.9 0 0 1-.037-.36 1.87 1.87 0 0 1 .541-1.309 2.167 2.167 0 0 1 .282-.231 2.011 2.011 0 0 1 .319-.167 1.806 1.806 0 0 1 .347-.107 1.724 1.724 0 0 1 .721 0 1.808 1.808 0 0 1 .347.107 2.013 2.013 0 0 1 .319.167 2.226 2.226 0 0 1 .282.231 1.881 1.881 0 0 1 .541 1.309 1.9 1.9 0 0 1-.037.36 1.729 1.729 0 0 1-.107.347 1.69 1.69 0 0 1-.171.319 1.839 1.839 0 0 1-.226.282 2.311 2.311 0 0 1-.282.231 2.144 2.144 0 0 1-.319.167 1.8 1.8 0 0 1-.347.106 1.95 1.95 0 0 1-.36.037z" transform="translate(751.08 -334.211)" style="fill:#fff"/>
            </g>
            <g id="그룹_14416" data-name="그룹 14416" transform="translate(9.25 9.397)">
                <path id="패스_12118" data-name="패스 12118" d="M-815.232 374.646a1.95 1.95 0 0 1-.361-.037 1.8 1.8 0 0 1-.347-.106 2.141 2.141 0 0 1-.319-.167 2.239 2.239 0 0 1-.282-.231 2.2 2.2 0 0 1-.231-.282 2.056 2.056 0 0 1-.167-.319 1.756 1.756 0 0 1-.106-.347 1.909 1.909 0 0 1-.037-.36 1.87 1.87 0 0 1 .541-1.309 2.159 2.159 0 0 1 .282-.231 2.01 2.01 0 0 1 .319-.167 1.807 1.807 0 0 1 .347-.107 1.724 1.724 0 0 1 .721 0 1.809 1.809 0 0 1 .347.107 2.015 2.015 0 0 1 .319.167 2.234 2.234 0 0 1 .282.231 1.881 1.881 0 0 1 .541 1.309 1.909 1.909 0 0 1-.037.36 1.726 1.726 0 0 1-.107.347 1.686 1.686 0 0 1-.171.319 1.839 1.839 0 0 1-.226.282 2.32 2.32 0 0 1-.282.231 2.147 2.147 0 0 1-.319.167 1.806 1.806 0 0 1-.347.106 1.95 1.95 0 0 1-.36.037z" transform="translate(817.082 -343.608)" style="fill:#fff"/>
                <path id="패스_12119" data-name="패스 12119" d="M-812.263 333.269a1.85 1.85 0 0 1-1.1-2.373A1.845 1.845 0 0 1-811 329.8a1.843 1.843 0 0 1 1.1 2.368 1.842 1.842 0 0 1-1.738 1.216 1.809 1.809 0 0 1-.625-.115zm51.049-1.134a1.852 1.852 0 0 1 1.106-2.372 1.851 1.851 0 0 1 2.373 1.1 1.848 1.848 0 0 1-1.105 2.373 1.783 1.783 0 0 1-.634.116 1.859 1.859 0 0 1-1.74-1.216zm-46.78-7.529a1.853 1.853 0 0 1-.227-2.608 1.843 1.843 0 0 1 2.6-.222 1.843 1.843 0 0 1 .227 2.6 1.846 1.846 0 0 1-1.415.662 1.841 1.841 0 0 1-1.185-.431zm42.271-.25a1.849 1.849 0 0 1 .227-2.6 1.843 1.843 0 0 1 2.6.222 1.849 1.849 0 0 1-.222 2.608 1.853 1.853 0 0 1-1.193.435 1.846 1.846 0 0 1-1.412-.664zm-35.306-6.438a1.843 1.843 0 0 1 .675-2.526 1.842 1.842 0 0 1 2.525.676 1.843 1.843 0 0 1-.675 2.525 1.823 1.823 0 0 1-.925.25 1.848 1.848 0 0 1-1.6-.924zm28.415.661a1.856 1.856 0 0 1-.68-2.529 1.852 1.852 0 0 1 2.53-.675 1.846 1.846 0 0 1 .675 2.525 1.839 1.839 0 0 1-1.6.925 1.844 1.844 0 0 1-.925-.245zm-19.587-4.565a1.849 1.849 0 0 1 1.5-2.141 1.851 1.851 0 0 1 2.142 1.5 1.852 1.852 0 0 1-1.5 2.141 1.91 1.91 0 0 1-.324.028 1.852 1.852 0 0 1-1.817-1.527zm11.137 1.5a1.856 1.856 0 0 1-1.5-2.141 1.851 1.851 0 0 1 2.141-1.508 1.853 1.853 0 0 1 1.5 2.141 1.852 1.852 0 0 1-1.822 1.536 1.864 1.864 0 0 1-.319-.028z" transform="translate(815.144 -311.837)" style="fill:#fff"/>
                <path id="패스_12120" data-name="패스 12120" d="M-695.232 374.65a1.95 1.95 0 0 1-.361-.037 1.8 1.8 0 0 1-.347-.106 2.139 2.139 0 0 1-.319-.167 2.243 2.243 0 0 1-.282-.231 1.88 1.88 0 0 1-.541-1.308 1.914 1.914 0 0 1 .037-.361 1.786 1.786 0 0 1 .106-.347 2.133 2.133 0 0 1 .167-.319 2.267 2.267 0 0 1 .231-.282 2.163 2.163 0 0 1 .282-.231 2.018 2.018 0 0 1 .319-.167 1.8 1.8 0 0 1 .347-.107 1.867 1.867 0 0 1 1.67.5 1.875 1.875 0 0 1 .226.282 1.745 1.745 0 0 1 .171.319 1.763 1.763 0 0 1 .107.347 1.914 1.914 0 0 1 .037.361 1.9 1.9 0 0 1-.037.36 1.726 1.726 0 0 1-.107.347 1.686 1.686 0 0 1-.171.319 1.833 1.833 0 0 1-.226.282 1.88 1.88 0 0 1-1.309.546z" transform="translate(752.581 -343.611)" style="fill:#fff"/>
            </g>
            <g id="그룹_14417" data-name="그룹 14417" transform="translate(18.5 18.236)">
                <path id="패스_12121" data-name="패스 12121" d="M-795.232 374.65a1.949 1.949 0 0 1-.361-.037 1.806 1.806 0 0 1-.347-.106 2.135 2.135 0 0 1-.319-.167 2.248 2.248 0 0 1-.282-.231 2.2 2.2 0 0 1-.231-.282 2.051 2.051 0 0 1-.167-.319 1.749 1.749 0 0 1-.106-.347 1.9 1.9 0 0 1-.037-.36 1.879 1.879 0 0 1 .541-1.309 2.168 2.168 0 0 1 .282-.231 2.015 2.015 0 0 1 .319-.167 1.807 1.807 0 0 1 .347-.107 1.867 1.867 0 0 1 1.67.5 1.881 1.881 0 0 1 .541 1.309 1.9 1.9 0 0 1-.037.36 1.726 1.726 0 0 1-.107.347 2.013 2.013 0 0 1-.166.319 2.248 2.248 0 0 1-.231.282 1.88 1.88 0 0 1-1.309.546z" transform="translate(797.082 -352.45)" style="fill:#fff"/>
                <path id="패스_12122" data-name="패스 12122" d="M-790.807 343.648a1.846 1.846 0 0 1-.675-2.525 1.845 1.845 0 0 1 2.525-.675 1.843 1.843 0 0 1 .675 2.525 1.838 1.838 0 0 1-1.6.925 1.823 1.823 0 0 1-.925-.25zm31.361-.694a1.852 1.852 0 0 1 .67-2.53 1.849 1.849 0 0 1 2.53.675 1.846 1.846 0 0 1-.671 2.525 1.823 1.823 0 0 1-.93.25 1.848 1.848 0 0 1-1.598-.92zm-25.27-6.752a1.846 1.846 0 0 1 .675-2.525 1.844 1.844 0 0 1 2.525.67 1.85 1.85 0 0 1-.67 2.53 1.816 1.816 0 0 1-.925.25 1.855 1.855 0 0 1-1.605-.927zm19.17.666a1.856 1.856 0 0 1-.68-2.53 1.856 1.856 0 0 1 2.53-.675 1.846 1.846 0 0 1 .675 2.525 1.84 1.84 0 0 1-1.6.925 1.856 1.856 0 0 1-.925-.246zm-8.32-2.219zm-1.855-1.85a1.849 1.849 0 0 1 1.85-1.85 1.849 1.849 0 0 1 1.85 1.85 1.848 1.848 0 0 1-1.845 1.85 1.856 1.856 0 0 1-1.854-1.849z" transform="translate(794.206 -330.948)" style="fill:#fff"/>
                <path id="패스_12123" data-name="패스 12123" d="M-715.232 374.648a1.88 1.88 0 0 1-1.309-.542 1.879 1.879 0 0 1-.541-1.308 1.6 1.6 0 0 1 .037-.361 1.52 1.52 0 0 1 .106-.347 1.749 1.749 0 0 1 .167-.319 2.271 2.271 0 0 1 .231-.282 1.878 1.878 0 0 1 1.309-.541 1.878 1.878 0 0 1 1.309.541 2.31 2.31 0 0 1 .231.282 2.093 2.093 0 0 1 .166.319 1.765 1.765 0 0 1 .107.347 1.914 1.914 0 0 1 .037.361 1.881 1.881 0 0 1-.541 1.308 1.88 1.88 0 0 1-1.309.542z" transform="translate(754.081 -352.448)" style="fill:#fff"/>
            </g>
            <g id="그룹_14418" data-name="그룹 14418" transform="translate(27.749 28.718)">
                <path id="패스_12124" data-name="패스 12124" d="M-775.232 374.65a1.88 1.88 0 0 1-1.309-.542 2.206 2.206 0 0 1-.231-.282 2.041 2.041 0 0 1-.167-.319 1.745 1.745 0 0 1-.106-.347 1.9 1.9 0 0 1-.037-.36 1.914 1.914 0 0 1 .037-.361 1.782 1.782 0 0 1 .106-.347 2.127 2.127 0 0 1 .167-.319 2.267 2.267 0 0 1 .231-.282 1.866 1.866 0 0 1 1.67-.5 1.809 1.809 0 0 1 .347.107 2.018 2.018 0 0 1 .319.167 2.23 2.23 0 0 1 .282.231 1.882 1.882 0 0 1 .226.282 1.745 1.745 0 0 1 .171.319 1.763 1.763 0 0 1 .107.347 1.914 1.914 0 0 1 .037.361 1.881 1.881 0 0 1-.541 1.308 2.315 2.315 0 0 1-.282.231 2.138 2.138 0 0 1-.319.167 1.808 1.808 0 0 1-.347.106 1.951 1.951 0 0 1-.361.033z" transform="translate(777.082 -362.932)" style="fill:#fff"/>
                <path id="패스_12125" data-name="패스 12125" d="M-766.842 356.394a1.847 1.847 0 0 1 .675-2.525 1.843 1.843 0 0 1 2.525.675 1.845 1.845 0 0 1-.671 2.525 1.819 1.819 0 0 1-.925.25 1.845 1.845 0 0 1-1.604-.925zm9.925.671a1.847 1.847 0 0 1-.68-2.525 1.853 1.853 0 0 1 2.53-.68 1.853 1.853 0 0 1 .675 2.53 1.856 1.856 0 0 1-1.6.925 1.8 1.8 0 0 1-.925-.25z" transform="translate(771.712 -353.613)" style="fill:#fff"/>
                <path id="패스_12126" data-name="패스 12126" d="M-735.232 374.65a1.95 1.95 0 0 1-.361-.037 1.8 1.8 0 0 1-.347-.106 2.136 2.136 0 0 1-.319-.167 2.247 2.247 0 0 1-.282-.231 1.88 1.88 0 0 1-.541-1.308 1.879 1.879 0 0 1 .541-1.309 2.167 2.167 0 0 1 .282-.231 2.016 2.016 0 0 1 .319-.167 1.806 1.806 0 0 1 .347-.107 1.867 1.867 0 0 1 1.67.5 1.881 1.881 0 0 1 .541 1.309 1.881 1.881 0 0 1-.541 1.308 1.872 1.872 0 0 1-1.309.546z" transform="translate(755.582 -362.932)" style="fill:#fff"/>
            </g>
            <g id="그룹_14419" data-name="그룹 14419" transform="translate(1.074 45.593)">
                <path id="패스_12127" data-name="패스 12127" d="M-801.651 421.664a1.852 1.852 0 0 1-1.619-2.059 1.85 1.85 0 0 1 2.058-1.614 1.85 1.85 0 0 1 1.619 2.053 1.851 1.851 0 0 1-1.836 1.632 1.775 1.775 0 0 1-.222-.012zm7.3-1.619a1.849 1.849 0 0 1 1.614-2.059 1.852 1.852 0 0 1 2.059 1.615 1.845 1.845 0 0 1-1.615 2.058 1.926 1.926 0 0 1-.226.014 1.847 1.847 0 0 1-1.83-1.628zm-16.4-.616a1.852 1.852 0 0 1-1.073-2.386 1.852 1.852 0 0 1 2.386-1.073 1.845 1.845 0 0 1 1.073 2.387 1.843 1.843 0 0 1-1.73 1.193 1.819 1.819 0 0 1-.658-.12zm25.168-1.078a1.853 1.853 0 0 1 1.073-2.386 1.845 1.845 0 0 1 2.386 1.073 1.852 1.852 0 0 1-1.073 2.386 1.915 1.915 0 0 1-.657.12 1.859 1.859 0 0 1-1.731-1.192zm-33.456-3.274a1.85 1.85 0 0 1-.472-2.576 1.85 1.85 0 0 1 2.571-.472 1.851 1.851 0 0 1 .472 2.576 1.852 1.852 0 0 1-1.522.8 1.829 1.829 0 0 1-1.051-.327zm41.559-.481a1.849 1.849 0 0 1 .467-2.576 1.854 1.854 0 0 1 2.576.468 1.855 1.855 0 0 1-.472 2.576 1.839 1.839 0 0 1-1.05.328 1.84 1.84 0 0 1-1.523-.792zm-48.571-5.73a1.842 1.842 0 0 1 .158-2.609 1.851 1.851 0 0 1 2.613.153 1.855 1.855 0 0 1-.157 2.613 1.833 1.833 0 0 1-1.23.467 1.833 1.833 0 0 1-1.386-.623zm55.536.143a1.856 1.856 0 0 1-.157-2.614 1.855 1.855 0 0 1 2.613-.157 1.852 1.852 0 0 1 .157 2.613 1.847 1.847 0 0 1-1.387.62 1.85 1.85 0 0 1-1.228-.461zm-60.864-7.84a1.846 1.846 0 0 1 .777-2.5 1.849 1.849 0 0 1 2.5.772 1.852 1.852 0 0 1-.777 2.5 1.856 1.856 0 0 1-.86.213 1.856 1.856 0 0 1-1.641-.983zm66.3.754a1.847 1.847 0 0 1-.777-2.5 1.852 1.852 0 0 1 2.5-.777 1.848 1.848 0 0 1 .777 2.5 1.844 1.844 0 0 1-1.637.989 1.849 1.849 0 0 1-.862-.211zm-69.628-9.509a1.851 1.851 0 0 1 1.35-2.238 1.848 1.848 0 0 1 2.239 1.356 1.85 1.85 0 0 1-1.35 2.238 1.82 1.82 0 0 1-.445.051 1.85 1.85 0 0 1-1.793-1.405zm73.212 1.332a1.85 1.85 0 0 1-1.355-2.239 1.846 1.846 0 0 1 2.238-1.355 1.849 1.849 0 0 1 1.355 2.233v.005a1.85 1.85 0 0 1-1.794 1.406 2.076 2.076 0 0 1-.443-.048z" transform="translate(834.76 -390.1)" style="fill:#fff"/>
            </g>
            <g id="그룹_14420" data-name="그룹 14420" transform="translate(10.926 46.228)">
                <path id="패스_12128" data-name="패스 12128" d="M-790.654 412.99a1.853 1.853 0 0 1-1.5-2.141 1.855 1.855 0 0 1 2.141-1.508 1.854 1.854 0 0 1 1.5 2.142 1.853 1.853 0 0 1-1.822 1.535 1.858 1.858 0 0 1-.319-.028zm8.131-1.512a1.852 1.852 0 0 1 1.5-2.141 1.856 1.856 0 0 1 2.141 1.5 1.848 1.848 0 0 1-1.5 2.141 1.862 1.862 0 0 1-.319.028 1.847 1.847 0 0 1-1.822-1.529zm-17.792-2a1.846 1.846 0 0 1-.675-2.525 1.847 1.847 0 0 1 2.525-.68 1.858 1.858 0 0 1 .68 2.53 1.861 1.861 0 0 1-1.6.925 1.869 1.869 0 0 1-.93-.248zm27.065-.69a1.847 1.847 0 0 1 .675-2.529 1.846 1.846 0 0 1 2.525.675 1.846 1.846 0 0 1-.675 2.525 1.819 1.819 0 0 1-.925.25 1.842 1.842 0 0 1-1.601-.919zm-34.941-5.91a1.843 1.843 0 0 1 .222-2.6 1.843 1.843 0 0 1 2.6.222 1.853 1.853 0 0 1-.227 2.608 1.837 1.837 0 0 1-1.188.435 1.86 1.86 0 0 1-1.408-.663zm42.729.2a1.845 1.845 0 0 1-.231-2.6 1.854 1.854 0 0 1 2.609-.226 1.848 1.848 0 0 1 .227 2.6 1.833 1.833 0 0 1-1.415.661 1.84 1.84 0 0 1-1.191-.434zm-47.881-9.088a1.849 1.849 0 0 1 1.1-2.373 1.848 1.848 0 0 1 2.373 1.1 1.85 1.85 0 0 1-1.1 2.373 1.792 1.792 0 0 1-.634.116 1.85 1.85 0 0 1-1.74-1.215zm53.26 1.073a1.85 1.85 0 0 1-1.105-2.373 1.842 1.842 0 0 1 2.368-1.1 1.842 1.842 0 0 1 1.1 2.367v.005a1.847 1.847 0 0 1-1.734 1.216 1.9 1.9 0 0 1-.63-.114z" transform="translate(813.457 -391.473)" style="fill:#fff"/>
            </g>
            <g id="그룹_14421" data-name="그룹 14421" transform="translate(20.987 45.984)">
                <path id="패스_12129" data-name="패스 12129" d="M-773.828 403.9a1.856 1.856 0 0 1-1.855-1.85 1.849 1.849 0 0 1 1.85-1.85 1.849 1.849 0 0 1 1.85 1.85 1.843 1.843 0 0 1-1.845 1.85zM-784 401.182a1.848 1.848 0 0 1-.68-2.525 1.853 1.853 0 0 1 2.53-.68 1.848 1.848 0 0 1 .675 2.525 1.844 1.844 0 0 1-1.6.93 1.866 1.866 0 0 1-.925-.25zm17.815-.69a1.85 1.85 0 0 1 .675-2.525 1.851 1.851 0 0 1 2.53.671 1.854 1.854 0 0 1-.675 2.529 1.819 1.819 0 0 1-.925.25 1.854 1.854 0 0 1-1.607-.925zm-25.266-6.748a1.846 1.846 0 0 1 .671-2.525 1.852 1.852 0 0 1 2.53.671 1.851 1.851 0 0 1-.671 2.529 1.9 1.9 0 0 1-.93.25 1.847 1.847 0 0 1-1.602-.925zm32.711.653a1.844 1.844 0 0 1-.675-2.525 1.841 1.841 0 0 1 2.525-.675 1.845 1.845 0 0 1 .675 2.525 1.847 1.847 0 0 1-1.6.925 1.826 1.826 0 0 1-.927-.247z" transform="translate(791.704 -390.946)" style="fill:#fff"/>
            </g>
            <g id="그룹_14422" data-name="그룹 14422" transform="translate(32.379 44.745)">
                <path id="패스_12130" data-name="패스 12130" d="M-766.147 391.722a1.846 1.846 0 0 1-.675-2.526 1.846 1.846 0 0 1 2.525-.675 1.852 1.852 0 0 1 .68 2.525 1.845 1.845 0 0 1-1.6.925 1.822 1.822 0 0 1-.93-.249zm8.57-.676a1.854 1.854 0 0 1 .675-2.529 1.849 1.849 0 0 1 2.53.675 1.85 1.85 0 0 1-.675 2.525 1.815 1.815 0 0 1-.925.25 1.849 1.849 0 0 1-1.605-.921z" transform="translate(767.072 -388.266)" style="fill:#fff"/>
            </g>
            <circle id="타원_1812" data-name="타원 1812" cx="1.85" cy="1.85" transform="translate(36.999 36.735)" style="fill:#fff" r="1.85"/>
        </g>
        <g transform="translate(16 136)" style="filter:url(#패스_12131)">
            <path id="패스_12131-2" data-name="패스 12131" d="m-788.5 332.034-3.8 1.017-1.017-3.8a2.081 2.081 0 0 0-2.549-1.472l-.447.12a2.081 2.081 0 0 0-1.472 2.549l1.017 3.8-3.8 1.017a2.081 2.081 0 0 0-1.472 2.549l.12.447a2.081 2.081 0 0 0 2.549 1.472l3.8-1.018 1.017 3.8a2.082 2.082 0 0 0 2.554 1.47l.447-.12a2.081 2.081 0 0 0 1.472-2.549l-1.017-3.8 3.8-1.017a2.082 2.082 0 0 0 1.472-2.549l-.12-.447a2.081 2.081 0 0 0-2.554-1.469z" transform="translate(1002.14 -289.76)" style="fill:#fff"/>
        </g>
        <g id="그룹_15143" data-name="그룹 15143" transform="rotate(-21 684.104 -371.532)">
            <g id="그룹_14738" data-name="그룹 14738">
                <path id="패스_72548" data-name="패스 72548" d="M68.484 8.642C68.484 3.889 66.955 0 60.156 0c-4.572 0-5.627 2.311-7.139 7.408a11.446 11.446 0 0 1-2.758 6.033c-4.295 4.457-7.139-2.469-21.416-2.469 0 0-24.43-.357-28.555 24.692 0 0-4.14 21.024 19 34.569 5.862 3.432 7.179 7.408 4.8 12.346-8.58 17.806-11.857 37.038 21.457 37.038 13.088 0 23.8-11.112 23.8-24.692V50.479c0-.785-.038-1.562-.107-2.329a8.924 8.924 0 0 0 .107-1.375z" style="fill:#fff"/>
                <path id="패스_72549" data-name="패스 72549" d="M0 1.235a1.213 1.213 0 0 0 1.19 1.234 1.213 1.213 0 0 0 1.19-1.234A1.213 1.213 0 0 0 1.19 0 1.213 1.213 0 0 0 0 1.235" transform="translate(24.083 25.786)" style="fill:#231815"/>
                <path id="패스_72550" data-name="패스 72550" d="M0 1.235a1.213 1.213 0 0 0 1.19 1.234 1.213 1.213 0 0 0 1.19-1.234A1.213 1.213 0 0 0 1.19 0 1.213 1.213 0 0 0 0 1.235" transform="translate(19.324 25.786)" style="fill:#231815"/>
                <path id="패스_100918" data-name="패스 100918" d="M1.358 0a1.283 1.283 0 0 1 1.323 1.289 1.366 1.366 0 0 1-1.358 1.323A1.283 1.283 0 0 1 0 1.323 1.366 1.366 0 0 1 1.358 0z" transform="rotate(-67.5 35.025 .366)" style="stroke:#231815;stroke-width:1.272px;fill:none"/>
            </g>
        </g>
        <g id="그룹_15059" data-name="그룹 15059" transform="translate(213.57 258.182)">
            <circle id="타원_1860" data-name="타원 1860" cx="18.812" cy="18.812" style="fill:#3ce6ff" r="18.812"/>
            <path id="패스_127705" data-name="패스 127705" d="M-882.837 433.443a.862.862 0 0 0-.254-1.618 50.288 50.288 0 0 0-7.67-.564 50.29 50.29 0 0 0-7.67.564.862.862 0 0 0-.254 1.618 16.873 16.873 0 0 0 7.924 1.964 16.872 16.872 0 0 0 7.924-1.964z" transform="translate(909.573 -400.139)" style="opacity:.64;fill:#fff"/>
            <g transform="translate(-197.57 -122.18)" style="filter:url(#합치기_648)">
                <path id="합치기_648-2" data-name="합치기 648" d="m13.313 14.018 1.664-9.44 2.936.517-1.663 9.442zM8.1 13.1l-.213-2.966-3.655-.641L3.017 12.2 0 11.672 6.008 0l3.55.628 1.659 13.022zM5.652 6.3l-.452 1 2.519.446-.078-1.092c-.115-1.287-.17-2.818-.279-4.14L7.3 2.5c-.531 1.246-1.119 2.631-1.648 3.8zm11.032-2.773a1.569 1.569 0 0 1-1.425-1.809A1.57 1.57 0 0 1 17.22.49a1.565 1.565 0 0 1 1.408 1.822 1.51 1.51 0 0 1-1.569 1.249 2.169 2.169 0 0 1-.375-.034z" transform="translate(207.1 133.03)" style="fill:#fff"/>
            </g>
        </g>
    </g>
</svg>
