<svg xmlns="http://www.w3.org/2000/svg" width="94" height="94" viewBox="0 0 94 94">
    <defs>
        <clipPath id="clip-path">
            <path id="패스_11739" data-name="패스 11739" d="M12.333 59.333c0-35.25 11.75-47 47-47s47 11.75 47 47-11.75 47-47 47-47-11.75-47-47" transform="translate(-12.334 -12.333)" style="fill:#2377a8"/>
        </clipPath>
        <clipPath id="clip-path-2">
            <path id="사각형_7924" data-name="사각형 7924" style="fill:none" d="M0 0h32.5v24.896H0z"/>
        </clipPath>
        <filter id="모양_1234" x="-27.653" y="-13.036" width="166.55" height="167.479" filterUnits="userSpaceOnUse">
            <feOffset dy="3"/>
            <feGaussianBlur stdDeviation="3" result="blur"/>
            <feFlood flood-opacity=".161"/>
            <feComposite operator="in" in2="blur"/>
            <feComposite in="SourceGraphic"/>
        </filter>
        <style>
            .cls-5{fill:#fff}.cls-7{fill:#225782}
        </style>
    </defs>
    <g id="_-g-img_profilecha_th_02" data-name="-g-img_profilecha_th_02" transform="translate(-22.999 -78)">
        <g id="마스크_그룹_7313" data-name="마스크 그룹 7313" transform="translate(23 78)" style="clip-path:url(#clip-path)">
            <path id="사각형_7935" data-name="사각형 7935" style="fill:#ffc823" d="M0 0h94v94H0z"/>
            <g style="filter:url(#모양_1234)">
                <path id="모양_1234-2" data-name="모양 1234" class="cls-5" d="M91.433 9.062C71.609-2.667 15.422-9.4 3.953 30.344c-6.926 24-3.708 33.275 1.693 45.9C16.82 99.4 62.921 100.409 85.5 88.615c38.682-19.17 37.505-60.873 5.933-79.553z" transform="rotate(133 52.243 57.466)"/>
            </g>
            <circle id="타원_13513" data-name="타원 13513" class="cls-5" cx="11.432" cy="11.432" r="11.432" transform="translate(20.324 10.162)"/>
        </g>
        <g id="face_svg_illust_outline_복붙" transform="translate(149.75 134.552)">
            <g id="그룹_14462" data-name="그룹 14462" transform="translate(-96 -15)" style="clip-path:url(#clip-path-2)">
                <path id="패스_12156" data-name="패스 12156" class="cls-7" d="M3.989 0A3.989 3.989 0 1 1 0 3.989 3.989 3.989 0 0 1 3.989 0"/>
                <path id="패스_12157" data-name="패스 12157" class="cls-7" d="M23.679 0a3.989 3.989 0 1 1-3.989 3.989A3.989 3.989 0 0 1 23.679 0" transform="translate(4.038)"/>
                <path id="패스_12158" data-name="패스 12158" class="cls-7" d="M16.567 22.087a24.1 24.1 0 0 1-6.9-.947 2.373 2.373 0 1 1 1.467-4.513c.081.024 8.661 2.662 15.977-2.495a2.373 2.373 0 0 1 2.733 3.879 22.806 22.806 0 0 1-13.28 4.076" transform="translate(1.647 2.81)"/>
                <path id="패스_12159" data-name="패스 12159" class="cls-7" d="M16.1 12.5H8.031V3.991a2.372 2.372 0 1 1 4.744 0v3.765H16.1a2.373 2.373 0 0 1 0 4.746" transform="translate(1.647 .332)"/>
            </g>
        </g>
    </g>
</svg>
