<svg xmlns="http://www.w3.org/2000/svg" width="593" height="125" viewBox="0 0 593 125">
    <defs>
        <clipPath id="a">
            <path transform="translate(343 319)" style="fill:#ff5a5a;opacity:0" d="M0 0h593v125H0z"/>
        </clipPath>
    </defs>
    <g style="clip-path:url(#a)" transform="translate(-343 -319)" data-name="-g-img_logo_intro_tt_eng">
        <path d="m24334.8 23209.131 15.23-86.486h21.072a39.149 39.149 0 0 1 13.742-2.473 39.537 39.537 0 1 1-24.268 70.7l-3.219 18.256zm32.766-49.42a17.28 17.28 0 1 0 17.279-17.3 17.32 17.32 0 0 0-17.281 17.3zm100.5 0a39.46 39.46 0 0 1 63.844-31.1l5.408-30.68h22.553l-17.412 98.859h-21.182a39.493 39.493 0 0 1-53.211-37.076zm22.2 0a17.284 17.284 0 1 0 17.293-17.3 17.328 17.328 0 0 0-17.301 17.3zm-61.941 37.076 13.057-74.143h22.563l-13.066 74.143zm-125.906 0 6.594-37.451c2.111-11.984.041-20.916-9.889-21.869-5.687-.537-12.295 2.867-13.553 9.8l-8.725 49.52h-22.559l17.406-98.859h22.563l-4.354 24.717c.047-.016 7.727-2.473 13.574-2.473 22.615 0 32.795 12.508 29.307 32.287l-7.807 44.328zm-97.5 0 8.7-49.436h-10.93l3.473-19.768h10.938l3.045-17.3h22.559l-3.049 17.3h15.887l-3.488 19.768h-15.883l-8.705 49.436zm-44.412 0 .338-1.93a39.553 39.553 0 1 1 12.117-68.756l.605-3.457h22.563l-13.064 74.143zm-29.137-39.551a17.279 17.279 0 1 0 17.281-17.3 17.313 17.313 0 0 0-17.286 17.3zm-61.494 39.551 10.076-57.227-30.887 13.072-23.848-22.547-11.742 66.7h-22.564l19.586-111.211 43.281 40.916 55.141-23.348-16.488 93.643zm373.139-96.383a13.558 13.558 0 1 1 13.551 13.568 13.561 13.561 0 0 1-13.556-13.572z" transform="translate(-23636.906 -22766.576)" style="fill:#00c3e1;stroke:transparent;stroke-miterlimit:10" data-name="마스크 그룹 7352"/>
    </g>
</svg>
