<svg id="_-g-img_login_logo" data-name="-g-img_login_logo" xmlns="http://www.w3.org/2000/svg" width="184" height="137" viewBox="0 0 184 137">
    <defs>
        <style>
            .cls-1,.cls-2{fill:#fff}.cls-1{opacity:0}.cls-2{stroke:transparent;stroke-miterlimit:10}
        </style>
    </defs>
    <path id="text" class="cls-2" d="m103.885 37.327 4.6-26.127h6.367a11.948 11.948 0 1 1-3.178 20.613l-.973 5.514zm9.9-14.931A5.22 5.22 0 1 0 119 17.17a5.234 5.234 0 0 0-5.217 5.23zm30.358 0A11.921 11.921 0 0 1 163.428 13l1.632-9.265h6.815L166.614 33.6h-6.4a11.924 11.924 0 0 1-16.072-11.2zm6.7 0a5.222 5.222 0 1 0 5.226-5.226 5.237 5.237 0 0 0-5.224 5.23zm-18.71 11.2 3.945-22.4h6.815L138.95 33.6zM94.1 33.6l1.991-11.314c.639-3.62.011-6.319-2.987-6.607a3.74 3.74 0 0 0-4.094 2.958L86.375 33.6H79.56l5.258-29.866h6.818L90.318 11.2a16.611 16.611 0 0 1 4.1-.747c6.832 0 9.9 3.78 8.855 9.753L100.915 33.6zm-29.451 0 2.63-14.934h-3.3l1.05-5.973h3.3l.919-5.226h6.812l-.919 5.226h4.8l-1.053 5.973h-4.8L71.462 33.6zm-13.419 0 .1-.585a11.741 11.741 0 0 1-3.683.585 11.947 11.947 0 1 1 7.343-21.358l.185-1.041h6.812L58.046 33.6zm-8.8-11.95a5.219 5.219 0 1 0 5.22-5.226 5.23 5.23 0 0 0-5.22 5.225zM23.851 33.6 26.9 16.309l-9.328 3.951-7.208-6.81L6.815 33.6H0L5.914 0 18.99 12.361l16.66-7.052L30.669 33.6zM136.573 4.482a4.095 4.095 0 1 1 4.094 4.1 4.1 4.1 0 0 1-4.094-4.1z" transform="translate(5.842 97.854)"/>
    <g id="_-g-logo_white" data-name="-g-logo_white" transform="translate(9)">
        <g id="symbol" transform="translate(1.12 2.264)">
            <path id="합치기_277" data-name="합치기 277" class="cls-2" d="M70.132 83.037c-3.787-1.768-11.945-7.15-11.765-20.617a95.374 95.374 0 0 1-6.825 9.4C43.5 81.4 35.806 84.1 29.677 84.1a21.782 21.782 0 0 1-9.2-2.084L33.1 54.964h-.006L20.473 82.013C16.363 80.1 7 73.872 8.83 57.528c.652-5.828 2.557-12.176 4.4-18.317a115.816 115.816 0 0 0 3.506-13.585L0 14.491C6.951 4.053 21.22-3.833 33.983 2.119c3.964 1.85 12.623 7.516 12.714 21.7a108.226 108.226 0 0 1 8.213-11.81C67.324-3.041 78.957-.725 84.789 2c4 1.864 12.67 7.567 12.577 21.863a110.564 110.564 0 0 1 8.216-11.634c12.57-15.1 24.2-12.805 30.011-10.1 4.376 2.042 14.338 8.67 12.311 26.093-.723 6.217-2.758 12.828-4.8 19.263a14.932 14.932 0 0 1 11.816 23.19C147.98 81.109 133.708 89 120.944 83.04c-3.841-1.794-12.161-7.29-11.757-21.126a104.483 104.483 0 0 1-7.841 10.829C93.179 82.385 85.426 85.1 79.284 85.1a21.672 21.672 0 0 1-9.152-2.063zM21.363 29.181a8.326 8.326 0 0 0 1.523.542l-4.673-3.111a8.52 8.52 0 0 0 3.15 2.569z" transform="translate(7.892)"/>
            <circle id="타원_1310" data-name="타원 1310" cx="20.321" cy="20.321" r="20.321" transform="translate(0 2.144)" style="fill:#98f4ff"/>
        </g>
    </g>
</svg>
