<svg xmlns="http://www.w3.org/2000/svg" width="480" height="224" viewBox="0 0 480 224">
    <defs>
        <clipPath id="clip-path">
            <path id="mask" d="M0 0H480V224H0z" class="cls-1" transform="translate(560 456)"/>
        </clipPath>
        <clipPath id="clip-path-2">
            <path id="사각형_6875" fill="none" d="M0 0H288V72H0z" transform="translate(2902.446 3536.084)"/>
        </clipPath>
        <linearGradient id="linear-gradient" x1=".5" x2=".5" y2="1" gradientUnits="objectBoundingBox">
            <stop offset="0" stop-color="#cecfd2"/>
            <stop offset="1" stop-color="#dedfe1"/>
        </linearGradient>
        <style>
            .cls-1,.cls-5{fill:#fff}.cls-7,.cls-8{fill:none}.cls-5{opacity:.5}.cls-6{fill:#e5e5e5;stroke:transparent}.cls-6,.cls-7{stroke-miterlimit:10}.cls-8{stroke:#babcc0;stroke-linecap:round;stroke-width:4px}.cls-9{fill:#eeeff0}.cls-18{fill:#e3e4e6}.cls-19,.cls-20{stroke:none}.cls-20{fill:#e5e5e5}
        </style>
    </defs>
    <g id="_-g-img_ocr_manual_1_2" clip-path="url(#clip-path)" transform="translate(-560 -456)">
        <path id="bg" fill="#dedfe1" d="M0 0H480V224H0z" transform="translate(560 456)"/>
        <g id="그룹_13864">
            <g id="그룹_13861" transform="translate(-2265.484 -2964.059)">
                <path id="패스_11358" d="M2835.485 3420.058a18 18 0 0 1 18 18v64a18 18 0 0 0 18 18h88a18 18 0 0 1-18-18v-64a18 18 0 0 0-18-18z" class="cls-5"/>
                <path id="합치기_503" d="M-19882.516 20333.059a2 2 0 0 1-2-2v-1a2 2 0 0 1 2-2h34a2 2 0 0 1 2 2v1a2 2 0 0 1-2 2zm0-9a2 2 0 0 1-2-2v-1a2 2 0 0 1 2-2h26a2 2 0 0 1 2 2v1a2 2 0 0 1-2 2zm0-19a2 2 0 0 1-2-2v-1a2 2 0 0 1 2-2h34a2 2 0 0 1 2 2v1a2 2 0 0 1-2 2zm24-9a2 2 0 0 1-2-2v-1a2 2 0 0 1 2-2h6a2 2 0 0 1 2 2v1a2 2 0 0 1-2 2zm-24 0a2 2 0 0 1-2-2v-1a2 2 0 0 1 2-2h16a2 2 0 0 1 2 2v1a2 2 0 0 1-2 2zm0-19a2 2 0 0 1-2-2v-1a2 2 0 0 1 2-2h34a2 2 0 0 1 2 2v1a2 2 0 0 1-2 2zm0-9a2 2 0 0 1-2-2v-1a2 2 0 0 1 2-2h6a2 2 0 0 1 2 2v1a2 2 0 0 1-2 2z" class="cls-6" transform="translate(22776 -16829)"/>
                <g id="합치기_504" class="cls-7">
                    <path d="M-19878.518 20337.059a6 6 0 0 1-6-6v-6a6 6 0 0 1 6-6h6a6 6 0 0 1 6 6v6a6 6 0 0 1-6 6zm0-28a6 6 0 0 1-6-6v-6a6 6 0 0 1 6-6h6a6 6 0 0 1 6 6v6a6 6 0 0 1-6 6zm0-28a6 6 0 0 1-6-6v-6a6 6 0 0 1 6-6h6a6 6 0 0 1 6 6v6a6 6 0 0 1-6 6z" class="cls-19" transform="translate(22750 -16831)"/>
                    <path d="M-19872.514 20333.059c1.102 0 1.996-.899 1.996-2.002v-5.996c0-1.106-.894-2.004-1.996-2.004h-6.004c-1.101 0-1.996.898-1.996 2.004v5.996c0 1.103.895 2.002 1.996 2.002h6.004m0-28c1.102 0 1.996-.899 1.996-2.002v-5.998c0-1.104-.894-2.002-1.996-2.002h-6.004c-1.101 0-1.996.898-1.996 2.002v5.998c0 1.103.895 2.002 1.996 2.002h6.004m0-28c1.102 0 1.996-.899 1.996-2.002v-5.998c0-1.104-.894-2.002-1.996-2.002h-6.004c-1.101 0-1.996.898-1.996 2.002v5.998c0 1.103.895 2.002 1.996 2.002h6.004m0 60h-6.004c-3.312 0-5.996-2.684-5.996-6.002v-5.996c0-3.319 2.684-6.004 5.996-6.004h6.004c3.313 0 5.996 2.685 5.996 6.004v5.996c0 3.318-2.683 6.002-5.996 6.002zm0-28h-6.004c-3.312 0-5.996-2.684-5.996-6.002v-5.998c0-3.317 2.684-6.002 5.996-6.002h6.004c3.313 0 5.996 2.685 5.996 6.002v5.998c0 3.318-2.683 6.002-5.996 6.002zm0-28h-6.004c-3.312 0-5.996-2.686-5.996-6.002v-5.998c0-3.317 2.684-6.002 5.996-6.002h6.004c3.313 0 5.996 2.685 5.996 6.002v5.998c0 3.316-2.683 6.002-5.996 6.002z" class="cls-20" transform="translate(22750 -16831)"/>
                </g>
                <g id="그룹_13857" transform="matrix(0.985, 0.174, -0.174, 0.985, 2873.525, 3492.058)">
                    <path id="선_1017" d="M0 6L6 0" class="cls-8" transform="translate(0 0)"/>
                    <path id="선_1018" d="M6 6L0 0" class="cls-8" transform="translate(0 0)"/>
                </g>
                <g id="그룹_13867" transform="matrix(0.985, 0.174, -0.174, 0.985, 2873.525, 3464.058)">
                    <path id="선_1017-2" d="M0 6L6 0" class="cls-8" transform="translate(0 0)"/>
                    <path id="선_1018-2" d="M6 6L0 0" class="cls-8" transform="translate(0 0)"/>
                </g>
                <g id="그룹_13868" transform="matrix(0.985, 0.174, -0.174, 0.985, 2873.525, 3436.058)">
                    <path id="선_1017-3" d="M0 6L6 0" class="cls-8" transform="translate(0 0)"/>
                    <path id="선_1018-3" d="M6 6L0 0" class="cls-8" transform="translate(0 0)"/>
                </g>
            </g>
            <g id="그룹_13870" transform="translate(908.001 425)">
                <path id="패스_11358-2" d="M2959.485 3420.058a18 18 0 0 0-18 18v64a18 18 0 0 1-18 18h-88a18 18 0 0 0 18-18v-64a18 18 0 0 1 18-18z" class="cls-5" transform="translate(-2835.485 -3420.058)"/>
                <path id="합치기_503-2" d="M2 70a2 2 0 0 1-2-2v-1a2 2 0 0 1 2-2h26a2 2 0 0 1 2 2v1a2 2 0 0 1-2 2zm0-9a2 2 0 0 1-2-2v-1a2 2 0 0 1 2-2h34a2 2 0 0 1 2 2v1a2 2 0 0 1-2 2zm18-19a2 2 0 0 1-2-2v-1a2 2 0 0 1 2-2h6a2 2 0 0 1 2 2v1a2 2 0 0 1-2 2zM2 42a2 2 0 0 1-2-2v-1a2 2 0 0 1 2-2h10a2 2 0 0 1 2 2v1a2 2 0 0 1-2 2zm0-9a2 2 0 0 1-2-2v-1a2 2 0 0 1 2-2h34a2 2 0 0 1 2 2v1a2 2 0 0 1-2 2zm0-19a2 2 0 0 1-2-2v-1a2 2 0 0 1 2-2h34a2 2 0 0 1 2 2v1a2 2 0 0 1-2 2zm0-9a2 2 0 0 1-2-2V2a2 2 0 0 1 2-2h34a2 2 0 0 1 2 2v1a2 2 0 0 1-2 2z" class="cls-6" transform="translate(56.003 14)"/>
                <g id="합치기_504-2" class="cls-7">
                    <path d="M6 74a6 6 0 0 1-6-6v-6a6 6 0 0 1 6-6h6a6 6 0 0 1 6 6v6a6 6 0 0 1-6 6zm0-28a6 6 0 0 1-6-6v-6a6 6 0 0 1 6-6h6a6 6 0 0 1 6 6v6a6 6 0 0 1-6 6zm0-28a6 6 0 0 1-6-6V6a6 6 0 0 1 6-6h6a6 6 0 0 1 6 6v6a6 6 0 0 1-6 6z" class="cls-19" transform="translate(30.004 12.001)"/>
                    <path d="M12 70c1.103 0 2-.898 2-2v-6c0-1.103-.897-2-2-2H6c-1.103 0-2 .897-2 2v6c0 1.102.897 2 2 2h6m0-28c1.103 0 2-.897 2-2v-6c0-1.103-.897-2-2-2H6c-1.103 0-2 .897-2 2v6c0 1.103.897 2 2 2h6m0-28c1.103 0 2-.897 2-2V6c0-1.103-.897-2-2-2H6c-1.103 0-2 .897-2 2v6c0 1.103.897 2 2 2h6m0 60H6c-3.313 0-6-2.687-6-6v-6c0-3.314 2.687-6 6-6h6c3.314 0 6 2.686 6 6v6c0 3.313-2.686 6-6 6zm0-28H6c-3.313 0-6-2.687-6-6v-6c0-3.314 2.687-6 6-6h6c3.314 0 6 2.686 6 6v6c0 3.313-2.686 6-6 6zm0-28H6c-3.313 0-6-2.686-6-6V6c0-3.313 2.687-6 6-6h6c3.314 0 6 2.687 6 6v6c0 3.314-2.686 6-6 6z" class="cls-20" transform="translate(30.004 12.001)"/>
                </g>
            </g>
            <g id="그룹_13869" transform="translate(-2215.484 -2875.059)">
                <path id="패스_11358-3" d="M2835.485 3420.058a18 18 0 0 1 18 18v64a18 18 0 0 0 18 18h88a18 18 0 0 1-18-18v-64a18 18 0 0 0-18-18z" class="cls-9"/>
                <path id="합치기_503-3" d="M2 70a2 2 0 0 1-2-2v-1a2 2 0 0 1 2-2h6a2 2 0 0 1 2 2v1a2 2 0 0 1-2 2zm0-9a2 2 0 0 1-2-2v-1a2 2 0 0 1 2-2h34a2 2 0 0 1 2 2v1a2 2 0 0 1-2 2zm24-19a2 2 0 0 1-2-2v-1a2 2 0 0 1 2-2h6a2 2 0 0 1 2 2v1a2 2 0 0 1-2 2zM2 42a2 2 0 0 1-2-2v-1a2 2 0 0 1 2-2h16a2 2 0 0 1 2 2v1a2 2 0 0 1-2 2zm0-9a2 2 0 0 1-2-2v-1a2 2 0 0 1 2-2h34a2 2 0 0 1 2 2v1a2 2 0 0 1-2 2zm0-19a2 2 0 0 1-2-2v-1a2 2 0 0 1 2-2h26a2 2 0 0 1 2 2v1a2 2 0 0 1-2 2zm0-9a2 2 0 0 1-2-2V2a2 2 0 0 1 2-2h34a2 2 0 0 1 2 2v1a2 2 0 0 1-2 2z" class="cls-6" transform="translate(2891.482 3434.057)"/>
                <g id="합치기_504-3" class="cls-7">
                    <path d="M-19878.518 20337.059a6 6 0 0 1-6-6v-6a6 6 0 0 1 6-6h6a6 6 0 0 1 6 6v6a6 6 0 0 1-6 6zm0-28a6 6 0 0 1-6-6v-6a6 6 0 0 1 6-6h6a6 6 0 0 1 6 6v6a6 6 0 0 1-6 6zm0-28a6 6 0 0 1-6-6v-6a6 6 0 0 1 6-6h6a6 6 0 0 1 6 6v6a6 6 0 0 1-6 6z" class="cls-19" transform="translate(22750 -16831)"/>
                    <path d="M-19872.514 20333.059c1.102 0 1.996-.899 1.996-2.002v-5.996c0-1.106-.894-2.004-1.996-2.004h-6.004c-1.101 0-1.996.898-1.996 2.004v5.996c0 1.103.895 2.002 1.996 2.002h6.004m0-28c1.102 0 1.996-.899 1.996-2.002v-5.998c0-1.104-.894-2.002-1.996-2.002h-6.004c-1.101 0-1.996.898-1.996 2.002v5.998c0 1.103.895 2.002 1.996 2.002h6.004m0-28c1.102 0 1.996-.899 1.996-2.002v-5.998c0-1.104-.894-2.002-1.996-2.002h-6.004c-1.101 0-1.996.898-1.996 2.002v5.998c0 1.103.895 2.002 1.996 2.002h6.004m0 60h-6.004c-3.312 0-5.996-2.684-5.996-6.002v-5.996c0-3.319 2.684-6.004 5.996-6.004h6.004c3.313 0 5.996 2.685 5.996 6.004v5.996c0 3.318-2.683 6.002-5.996 6.002zm0-28h-6.004c-3.312 0-5.996-2.684-5.996-6.002v-5.998c0-3.317 2.684-6.002 5.996-6.002h6.004c3.313 0 5.996 2.685 5.996 6.002v5.998c0 3.318-2.683 6.002-5.996 6.002zm0-28h-6.004c-3.312 0-5.996-2.686-5.996-6.002v-5.998c0-3.317 2.684-6.002 5.996-6.002h6.004c3.313 0 5.996 2.685 5.996 6.002v5.998c0 3.316-2.683 6.002-5.996 6.002z" class="cls-20" transform="translate(22750 -16831)"/>
                </g>
                <g id="그룹_13857-2" transform="matrix(0.985, 0.174, -0.174, 0.985, 2873.525, 3492.058)">
                    <path id="선_1017-4" d="M0 6L6 0" class="cls-8" transform="translate(0 0)"/>
                    <path id="선_1018-4" d="M6 6L0 0" class="cls-8" transform="translate(0 0)"/>
                </g>
                <g id="그룹_13867-2" transform="matrix(0.985, 0.174, -0.174, 0.985, 2873.525, 3464.058)">
                    <path id="선_1017-5" d="M0 6L6 0" class="cls-8" transform="translate(0 0)"/>
                    <path id="선_1018-5" d="M6 6L0 0" class="cls-8" transform="translate(0 0)"/>
                </g>
                <g id="그룹_13868-2" transform="matrix(0.985, 0.174, -0.174, 0.985, 2873.525, 3436.058)">
                    <path id="선_1017-6" d="M0 6L6 0" class="cls-8" transform="translate(0 0)"/>
                    <path id="선_1018-6" d="M6 6L0 0" class="cls-8" transform="translate(0 0)"/>
                </g>
            </g>
            <g id="그룹_13862" transform="translate(835 516)">
                <path id="패스_11358-4" d="M2835.485 3526.058a18 18 0 0 0 18-18v-94a18 18 0 0 1 18-18h104a18 18 0 0 0-18 18v94a18 18 0 0 1-18 18z" class="cls-9" transform="translate(-2835.485 -3420.058)"/>
                <path id="합치기_505" d="M2 98a2 2 0 0 1-2-2v-1a2 2 0 0 1 2-2h6a2 2 0 0 1 2 2v1a2 2 0 0 1-2 2zm0-9a2 2 0 0 1-2-2v-1a2 2 0 0 1 2-2h34a2 2 0 0 1 2 2v1a2 2 0 0 1-2 2zm0-19a2 2 0 0 1-2-2v-1a2 2 0 0 1 2-2h6a2 2 0 0 1 2 2v1a2 2 0 0 1-2 2zm0-9a2 2 0 0 1-2-2v-1a2 2 0 0 1 2-2h34a2 2 0 0 1 2 2v1a2 2 0 0 1-2 2zm24-19a2 2 0 0 1-2-2v-1a2 2 0 0 1 2-2h6a2 2 0 0 1 2 2v1a2 2 0 0 1-2 2zM2 42a2 2 0 0 1-2-2v-1a2 2 0 0 1 2-2h16a2 2 0 0 1 2 2v1a2 2 0 0 1-2 2zm0-9a2 2 0 0 1-2-2v-1a2 2 0 0 1 2-2h34a2 2 0 0 1 2 2v1a2 2 0 0 1-2 2zm0-19a2 2 0 0 1-2-2v-1a2 2 0 0 1 2-2h26a2 2 0 0 1 2 2v1a2 2 0 0 1-2 2zm0-9a2 2 0 0 1-2-2V2a2 2 0 0 1 2-2h34a2 2 0 0 1 2 2v1a2 2 0 0 1-2 2z" class="cls-6" transform="translate(59.994 -8)"/>
                <g id="합치기_506" fill="rgba(0,0,0,0)" stroke-miterlimit="10">
                    <path d="M-19872.516 20363.059h-6c-2.205 0-4-1.795-4-4v-6c0-2.205 1.795-4 4-4h6c2.205 0 4 1.795 4 4v6c0 2.205-1.795 4-4 4zm0-27.998h-6c-2.205 0-4-1.795-4-4v-6c0-2.206 1.795-4 4-4h6c2.205 0 4 1.794 4 4v6c0 2.205-1.795 4-4 4zm0-28.002h-6c-2.205 0-4-1.795-4-4v-6.002c0-2.205 1.795-4 4-4h6c2.205 0 4 1.795 4 4v6.002c0 2.205-1.795 4-4 4zm0-27.998h-6c-2.205 0-4-1.795-4-4v-6c0-2.207 1.795-4.002 4-4.002h6c2.205 0 4 1.795 4 4.002v6c0 2.205-1.795 4-4 4z" class="cls-19" transform="translate(19918.512 -20273.057)"/>
                    <path d="M-19872.516 20361.059c1.104 0 2-.897 2-2v-6c0-1.104-.896-2-2-2h-6c-1.103 0-2 .896-2 2v6c0 1.103.897 2 2 2h6m0-27.998c1.104 0 2-.897 2-2v-6c0-1.104-.896-2-2-2h-6c-1.103 0-2 .896-2 2v6c0 1.103.897 2 2 2h6m0-28.002c1.104 0 2-.897 2-2v-6.002c0-1.104-.896-2-2-2h-6c-1.103 0-2 .896-2 2v6.002c0 1.103.897 2 2 2h6m0-27.998c1.104 0 2-.897 2-2v-6c0-1.104-.896-2.002-2-2.002h-6c-1.103 0-2 .898-2 2.002v6c0 1.103.897 2 2 2h6m0 87.998h-6c-3.312 0-6-2.684-6-6v-6c0-3.313 2.688-6 6-6h6c3.317 0 6 2.687 6 6v6c0 3.316-2.683 6-6 6zm0-27.998h-6c-3.312 0-6-2.688-6-6v-6c0-3.317 2.688-6 6-6h6c3.317 0 6 2.683 6 6v6c0 3.312-2.683 6-6 6zm0-28.002h-6c-3.312 0-6-2.684-6-6v-6.002c0-3.31 2.688-6 6-6h6c3.317 0 6 2.69 6 6v6.002c0 3.316-2.683 6-6 6zm0-27.998h-6c-3.312 0-6-2.69-6-6v-6c0-3.319 2.688-6.002 6-6.002h6c3.317 0 6 2.683 6 6.002v6c0 3.31-2.683 6-6 6z" class="cls-20" transform="translate(19918.512 -20273.057)"/>
                </g>
            </g>
        </g>
        <g id="그룹_13856">
            <path id="사각형_6874" fill="url(#linear-gradient)" d="M0 0H480V39H0z" transform="translate(560 640)"/>
            <g id="그룹_13849" transform="translate(-2246.445 -2968.084)">
                <g id="그룹_13841" clip-path="url(#clip-path-2)">
                    <circle id="타원_1539" cx="160" cy="160" r="160" fill="#ff6b5f" transform="translate(2886.445 3536.084)"/>
                </g>
                <path id="합치기_488" fill="#ffa99a" stroke="rgba(0,0,0,0)" stroke-miterlimit="10" d="M-19809.838 20274.2a6.109 6.109 0 0 1 6.107-6.111 6.115 6.115 0 0 1 6.117 6.111 6.116 6.116 0 0 1-6.117 6.113 6.11 6.11 0 0 1-6.107-6.113zm-93.717 0a6.114 6.114 0 0 1 6.113-6.111 6.114 6.114 0 0 1 6.111 6.111 6.114 6.114 0 0 1-6.111 6.113 6.115 6.115 0 0 1-6.113-6.113z" transform="translate(22897.031 -16713.154)"/>
                <path id="합치기_498" fill="#1e2328" stroke="rgba(0,0,0,0)" stroke-miterlimit="10" d="M11.163 10.653v-1.86a2.79 2.79 0 1 1 5.581 0v1.86a2.79 2.79 0 1 1-5.581 0zM0 10.653v-1.86a2.791 2.791 0 1 1 5.582 0v1.86a2.791 2.791 0 1 1-5.582 0z" transform="translate(3038.074 3545.85)"/>
            </g>
            <rect id="사각형_6876" width="180" height="16" fill="#babcc0" rx="4" transform="translate(710 636)"/>
            <path id="패스_11350" fill="none" stroke="#1e2328" stroke-linecap="round" stroke-linejoin="round" stroke-width="4px" d="M3014.446 3560.161s6 12 32 12 32-12 32-12" transform="translate(-2246.445 -2966.084)"/>
            <path id="패스_11351" d="M3046.446 3594.413s13.9-9 28-9c28.017 0 52 15 52 15v10h-160v-10s23.982-15 52-15c14.096 0 28 9 28 9z" class="cls-1" transform="translate(-2246.445 -2967.412)"/>
        </g>
        <g id="그룹_13873" transform="translate(2202.832 1858.092)">
            <path id="패스_11374" d="M-1125.625-1318.665l-3.8 3.184a3.168 3.168 0 0 0-.4 4.456l13.535 16.231a3.168 3.168 0 0 0 4.536.34l4.13-3.667a3.169 3.169 0 0 0 .274-4.462l-13.869-15.748a3.166 3.166 0 0 0-4.406-.334z" class="cls-18" transform="translate(-224.322 -91.625)"/>
            <circle id="타원_1558" cx="8.75" cy="8.75" r="8.75" class="cls-18" transform="translate(-1197.627 -1260.595)"/>
            <circle id="타원_1559" cx="8.75" cy="8.75" r="8.75" class="cls-18" transform="translate(-1484.117 -1372.102)"/>
            <path id="패스_11375" d="M-1272.041-1313.506l-15.4 7.787a4.208 4.208 0 0 0-.461 7.238l13.6 9.219a4.207 4.207 0 0 0 6.544-3.043l1.791-17.006a4.208 4.208 0 0 0-6.074-4.195z" class="cls-18" transform="translate(-119 -26.996)"/>
            <path id="패스_11376" d="M-1642.351-1309.066l-6.413-6.413a3.643 3.643 0 0 1-.927-3.576l2.29-8.013a3.641 3.641 0 0 1 2.5-2.5l8.013-2.289a3.643 3.643 0 0 1 3.576.927l6.413 6.413a3.643 3.643 0 0 1 .927 3.576l-2.289 8.013a3.641 3.641 0 0 1-2.5 2.5l-8.013 2.29a3.643 3.643 0 0 1-3.577-.928z" class="cls-18" transform="translate(28 61.748)"/>
            <path id="패스_11377" d="M-1157.9-1378.617l-6.551 2.486a2.748 2.748 0 0 0-1.61 1.636l-2.383 6.589a2.749 2.749 0 0 1-5.156.041l-2.486-6.551a2.752 2.752 0 0 0-1.636-1.611l-6.589-2.382a2.75 2.75 0 0 1-.041-5.157l6.551-2.486a2.746 2.746 0 0 0 1.61-1.635l2.383-6.59a2.749 2.749 0 0 1 5.156-.04l2.486 6.551a2.753 2.753 0 0 0 1.636 1.61l6.589 2.382a2.75 2.75 0 0 1 .041 5.157z" class="cls-18" transform="translate(-52 59.562)"/>
        </g>
    </g>
</svg>
