<svg xmlns="http://www.w3.org/2000/svg" width="29.164" height="25.717" viewBox="0 0 29.164 25.717"><g transform="translate(0 0)"><path d="M3.87,0A3.909,3.909,0,0,1,7.777,3.856a3.818,3.818,0,0,1-3.87,3.818A3.909,3.909,0,0,1,0,3.818,3.818,3.818,0,0,1,3.87,0Z" transform="translate(0 9.224) rotate(-18)"/><path d="M3.87,0A3.909,3.909,0,0,1,7.777,3.856a3.818,3.818,0,0,1-3.87,3.818A3.909,3.909,0,0,1,0,3.818,3.818,3.818,0,0,1,3.87,0Z" transform="translate(19.396 2.403) rotate(-18)"/></g><g transform="translate(14.472 20.354) rotate(-22)"><g transform="translate(0 0)"><path d="M5.09,5.784a5.194,5.194,0,0,1-3.529-1.46A5.027,5.027,0,0,1,0,.711.716.716,0,0,1,.756,0,.779.779,0,0,1,1.52.755a3.547,3.547,0,0,0,1.1,2.551A3.6,3.6,0,0,0,5.108,4.319,3.546,3.546,0,0,0,8.691.76.716.716,0,0,1,9.447.05.779.779,0,0,1,10.211.8,4.883,4.883,0,0,1,8.749,4.332a5.036,5.036,0,0,1-3.6,1.452Z" transform="translate(0 0)" fill="#707070"/><path d="M5.09,5.784a5.194,5.194,0,0,1-3.529-1.46A5.027,5.027,0,0,1,0,.711.716.716,0,0,1,.756,0,.779.779,0,0,1,1.52.755a3.547,3.547,0,0,0,1.1,2.551A3.6,3.6,0,0,0,5.108,4.319,3.546,3.546,0,0,0,8.691.76.716.716,0,0,1,9.447.05.779.779,0,0,1,10.211.8,4.883,4.883,0,0,1,8.749,4.332a5.036,5.036,0,0,1-3.6,1.452Z" transform="translate(0 0)" fill="#1a1311"/></g></g></svg>