<svg xmlns="http://www.w3.org/2000/svg" width="320" height="56.001" viewBox="0 0 320 56.001">
    <defs>
        <clipPath id="qchyg6zzxa">
            <path fill="none" d="M0 0H208V48H0z" transform="translate(4630.36 3758.081)"/>
        </clipPath>
    </defs>
    <g>
        <g>
            <g clip-path="url(#qchyg6zzxa)" transform="translate(-429 -603) translate(246.533 -351.795) translate(-4391.894 -2795.285)">
                <circle cx="132" cy="132" r="132" fill="#ff6b5f" transform="translate(4602.36 3758.081)"/>
            </g>
            <path fill="#ffa99a" stroke="rgba(0,0,0,0)" stroke-miterlimit="10" d="M-6089.731 26272.383a4.5 4.5 0 0 1 4.5-4.5 4.5 4.5 0 0 1 4.5 4.5 4.5 4.5 0 0 1-4.5 4.5 4.5 4.5 0 0 1-4.5-4.5zm-71 0a4.505 4.505 0 0 1 4.5-4.5 4.5 4.5 0 0 1 4.5 4.5 4.5 4.5 0 0 1-4.5 4.5 4.505 4.505 0 0 1-4.504-4.5z" transform="translate(-429 -603) translate(246.533 -351.795) translate(6463.202 -25291.088)"/>
            <path fill="none" stroke="#1e2328" stroke-linecap="round" stroke-linejoin="round" stroke-width="3px" d="M4709.8 3776s4.5 12 24 12 24-12 24-12" transform="translate(-429 -603) translate(246.533 -351.795) translate(-4390.835 -2795.199)"/>
            <path fill="#1e2328" stroke="rgba(0,0,0,0)" stroke-miterlimit="10" d="M9.5 3.749V2.25a2.25 2.25 0 1 1 4.5 0v1.5a2.25 2.25 0 1 1-4.5 0zm-9.5 0V2.25a2.25 2.25 0 1 1 4.5 0v1.5a2.25 2.25 0 1 1-4.5 0z" transform="translate(-429 -603) translate(246.533 -351.795) translate(335.468 970.795)"/>
        </g>
        <g>
            <path fill="#00c3e1" d="M3400.094 1262.213a24 24 0 1 0-39.256-8.053 5.951 5.951 0 0 1 .338 3.207l-1.487 8.71a2.25 2.25 0 0 0 2.6 2.6l8.708-1.487a6 6 0 0 1 3.236.349 24 24 0 0 0 25.861-5.326z" transform="translate(-429 -603) translate(-61.446 284.879) translate(-2644.678 -903.141)"/>
            <g>
                <path fill="none" stroke="#fff" stroke-width="3px" d="M5.647 0h12.706A5.647 5.647 0 0 1 24 5.647v8.471a5.647 5.647 0 0 1-5.647 5.647H5.647A5.647 5.647 0 0 1 0 14.118V5.647A5.647 5.647 0 0 1 5.647 0z" transform="translate(-429 -603) translate(-61.446 284.879) translate(-1.825 -1.209) translate(727.771 333.33)"/>
                <path fill="#fff" d="M5.647 0h12.706A5.647 5.647 0 0 1 24 5.647v8.471a5.647 5.647 0 0 1-5.647 5.647H5.647A5.647 5.647 0 0 1 0 14.118V5.647A5.647 5.647 0 0 1 5.647 0z" opacity="0.2" transform="translate(-429 -603) translate(-61.446 284.879) translate(-1.825 -1.209) translate(727.771 333.33)"/>
                <path fill="#fff" d="M229.094 559.469v-4.935a1.289 1.289 0 0 1 2-1.073l3.7 2.468a1.289 1.289 0 0 1 0 2.145l-3.7 2.468a1.289 1.289 0 0 1-2-1.073z" transform="translate(-429 -603) translate(-61.446 284.879) translate(-1.825 -1.209) translate(508.274 -213.799)"/>
            </g>
        </g>
    </g>
</svg>
