<svg xmlns="http://www.w3.org/2000/svg" width="94" height="94" viewBox="0 0 94 94">
    <defs>
        <clipPath id="clip-path">
            <path id="패스_11718" data-name="패스 11718" d="M12.333 59.333c0-35.25 11.75-47 47-47s47 11.75 47 47-11.75 47-47 47-47-11.75-47-47" transform="translate(-12.333 -12.333)" style="fill:#8080ff"/>
        </clipPath>
        <clipPath id="clip-path-2">
            <path id="사각형_7934" data-name="사각형 7934" style="fill:none" d="M0 0h38.414v31.207H0z"/>
        </clipPath>
        <filter id="다각형_2" x="-42.346" y="-17.118" width="186.316" height="186.316" filterUnits="userSpaceOnUse">
            <feOffset dy="3"/>
            <feGaussianBlur stdDeviation="3" result="blur"/>
            <feFlood flood-opacity=".161"/>
            <feComposite operator="in" in2="blur"/>
            <feComposite in="SourceGraphic"/>
        </filter>
        <style>
            .cls-7{fill:#225782}
        </style>
    </defs>
    <g id="_-g-img_profilecha_th_03" data-name="-g-img_profilecha_th_03" transform="translate(-22.999 -78)">
        <g id="마스크_그룹_7312" data-name="마스크 그룹 7312" transform="translate(22.999 78)" style="clip-path:url(#clip-path)">
            <path id="사각형_7933" data-name="사각형 7933" style="fill:#1885c5" d="M0 0h94v94H0z"/>
            <g style="filter:url(#다각형_2)">
                <path id="다각형_2-2" data-name="다각형 2" d="M75.1 4.354a14 14 0 0 1 17.45 7.226l3.937 8.408a14 14 0 0 0 6.741 6.741l8.408 3.937a14 14 0 0 1 7.226 17.446l-3.162 8.729a14 14 0 0 0 0 9.534l3.161 8.729a14 14 0 0 1-7.226 17.446l-8.408 3.937a14 14 0 0 0-6.741 6.741l-3.937 8.408a14 14 0 0 1-17.449 7.226l-8.725-3.162a14 14 0 0 0-9.534 0l-8.729 3.161a14 14 0 0 1-17.446-7.226l-3.937-8.408a14 14 0 0 0-6.741-6.741L11.58 92.55A14 14 0 0 1 4.354 75.1l3.161-8.729a14 14 0 0 0 0-9.534l-3.161-8.725a14 14 0 0 1 7.226-17.446l8.408-3.937a14 14 0 0 0 6.741-6.741l3.937-8.408a14 14 0 0 1 17.446-7.226l8.729 3.161a14 14 0 0 0 9.534 0z" transform="rotate(30 34.88 47.174)" style="fill:#fff"/>
            </g>
        </g>
        <g id="face_svg_illust_outline_복붙" transform="translate(53 120.25)">
            <g id="그룹_14467" data-name="그룹 14467" style="clip-path:url(#clip-path-2)">
                <path id="패스_12160" data-name="패스 12160" class="cls-7" d="M4.028 2.231A4.028 4.028 0 1 1 0 6.259a4.028 4.028 0 0 1 4.028-4.028" transform="translate(0 .484)"/>
                <path id="패스_12161" data-name="패스 12161" class="cls-7" d="M11.125 28.725a2.4 2.4 0 0 1-.111-4.79c.224-.011 13.463-.826 21.167-11.5a2.4 2.4 0 1 1 3.887 2.8c-9.116 12.63-24.195 13.456-24.833 13.484h-.111" transform="translate(1.893 2.482)"/>
                <path id="패스_12162" data-name="패스 12162" class="cls-7" d="M21.813 6.917a2.4 2.4 0 0 1-1.7-4.087A9.617 9.617 0 0 1 30.419.657a2.4 2.4 0 0 1-1.741 4.465 4.817 4.817 0 0 0-5.166 1.089 2.389 2.389 0 0 1-1.7.706" transform="translate(4.211)"/>
                <path id="패스_12163" data-name="패스 12163" class="cls-7" d="M17.442 17.314H9.3V6.287a2.4 2.4 0 0 1 4.792 0v6.235h3.354a2.4 2.4 0 1 1 0 4.792" transform="translate(2.016 .844)"/>
            </g>
        </g>
    </g>
</svg>
