<svg xmlns="http://www.w3.org/2000/svg" xmlns:xlink="http://www.w3.org/1999/xlink" width="206" height="134" viewBox="0 0 206 134"><defs><clipPath id="a"><rect width="206" height="134" transform="translate(623 666)" fill="#fff" stroke="#707070" stroke-width="1"/></clipPath><filter id="b" x="55.454" y="7.986" width="150.408" height="231.963" filterUnits="userSpaceOnUse"><feOffset dx="-10" dy="15" input="SourceAlpha"/><feGaussianBlur stdDeviation="3" result="c"/><feFlood flood-opacity="0.314"/><feComposite operator="in" in2="c"/><feComposite in="SourceGraphic"/></filter><filter id="d" x="-13" y="35.971" width="165.258" height="201.615" filterUnits="userSpaceOnUse"><feOffset dx="-15" dy="15" input="SourceAlpha"/><feGaussianBlur stdDeviation="5" result="e"/><feFlood flood-opacity="0.204"/><feComposite operator="in" in2="e"/><feComposite in="SourceGraphic"/></filter></defs><g transform="translate(-623 -666)"><g clip-path="url(#a)"><g transform="translate(-93.001 -32.173)"><g transform="translate(790.456 706.158)"><g transform="translate(0 0.001)"><g transform="matrix(1, 0, 0, 1, -74.45, -7.99)" filter="url(#b)"><path d="M115.465.81c-19.244-1.823-25.82,0-38.73,0H43.541A43.67,43.67,0,0,0,0,44.352V144.9c0,109.073,19.594,43.541,43.541,43.541H76.735A43.67,43.67,0,0,0,120.276,144.9V109.642c0-5.144,0-43.3-4.811-57.733s4.811-14.433,9.622-19.244c9.622-9.622,9.622-30.031-9.622-31.854" transform="translate(74.45 7.99)" fill="#98d898"/></g><path d="M135,54.511a2.406,2.406,0,1,0,2.406-2.406A2.406,2.406,0,0,0,135,54.511" transform="translate(-62.834 -24.252)" fill="#231815"/><path d="M108,54.511a2.406,2.406,0,1,0,2.406-2.406A2.406,2.406,0,0,0,108,54.511" transform="translate(-50.267 -24.252)" fill="#231815"/><ellipse cx="2.406" cy="4.811" rx="2.406" ry="4.811" transform="translate(64.816 33.643)" fill="none" stroke="#231815" stroke-miterlimit="10" stroke-width="1.648"/></g></g><g transform="matrix(-0.934, -0.358, 0.358, -0.934, 814.372, 905.759)"><g transform="translate(0 0)"><g transform="matrix(-0.93, 0.36, -0.36, -0.93, 166.23, 158.55)" filter="url(#d)"><path d="M86.089,139.5c0,5.975-1.922,10.864-10.469,10.864-5.747,0-7.074-2.905-8.974-9.312a14.389,14.389,0,0,0-3.467-7.583c-5.4-5.6-8.974,3.1-26.922,3.1,0,0-30.71.449-35.9-31.04,0,0-5.2-26.429,23.879-43.456,7.369-4.314,9.025-9.312,6.034-15.52C19.489,24.177,15.369,0,57.247,0,73.7,0,87.16,13.968,87.16,31.04V86.912c0,.987-.047,1.963-.135,2.928a11.218,11.218,0,0,1,.135,1.728Z" transform="matrix(-0.93, -0.36, 0.36, -0.93, 98.37, 207.59)" fill="#fff"/></g><path d="M0,1.552A1.525,1.525,0,0,1,1.5,0a1.525,1.525,0,0,1,1.5,1.552A1.525,1.525,0,0,1,1.5,3.1,1.525,1.525,0,0,1,0,1.552" transform="translate(30.274 114.848)" fill="#231815"/><path d="M0,1.552A1.525,1.525,0,0,1,1.5,0a1.525,1.525,0,0,1,1.5,1.552A1.525,1.525,0,0,1,1.5,3.1,1.525,1.525,0,0,1,0,1.552" transform="translate(24.292 114.848)" fill="#231815"/><path d="M1.707,3.283A1.612,1.612,0,0,0,3.37,1.663,1.717,1.717,0,0,0,1.663,0,1.612,1.612,0,0,0,0,1.62,1.717,1.717,0,0,0,1.707,3.283Z" transform="translate(29.787 108.149) rotate(67.5)" fill="none" stroke="#231815" stroke-width="1.272"/></g></g></g></g></g></svg>