<svg xmlns="http://www.w3.org/2000/svg" xmlns:xlink="http://www.w3.org/1999/xlink" width="339.797" height="326.579" viewBox="0 0 339.797 326.579"><defs><clipPath id="a"><rect width="288" height="293" rx="29" transform="translate(521 242)" fill="#57b7f9"/></clipPath><filter id="b" x="0" y="0" width="339.797" height="326.579" filterUnits="userSpaceOnUse"><feOffset dy="10" input="SourceAlpha"/><feGaussianBlur stdDeviation="5" result="c"/><feFlood flood-opacity="0.161"/><feComposite operator="in" in2="c"/><feComposite in="SourceGraphic"/></filter><filter id="d" x="0" y="0" width="339.797" height="326.579" filterUnits="userSpaceOnUse"><feOffset dy="-6" input="SourceAlpha"/><feGaussianBlur stdDeviation="2.5" result="e"/><feFlood flood-opacity="0.161" result="f"/><feComposite operator="out" in="SourceGraphic" in2="e"/><feComposite operator="in" in="f"/><feComposite operator="in" in2="SourceGraphic"/></filter><clipPath id="g"><rect width="309.524" height="293.596" rx="29" transform="translate(0 0)" fill="#57b7f9"/></clipPath><clipPath id="h"><rect width="309.524" height="296.596" rx="29" fill="#57b7f9"/></clipPath><clipPath id="j"><rect width="309.524" height="293.858" rx="29" transform="translate(0 0)" fill="#57b7f9"/></clipPath><clipPath id="k"><path d="M31.195,0H278.6C295.83,0,309.8,13.053,309.8,29.155V267.424c0,16.1-13.966,29.155-31.195,29.155H31.195C13.966,296.579,0,283.526,0,267.424V29.155C0,13.053,13.966,0,31.195,0Z" transform="translate(-4580.771 -9519.109)" fill="#fff"/></clipPath><filter id="l" x="0" y="0" width="339.797" height="326.579" filterUnits="userSpaceOnUse"><feOffset dy="10" input="SourceAlpha"/><feGaussianBlur stdDeviation="5" result="m"/><feFlood flood-opacity="0.161"/><feComposite operator="in" in2="m"/><feComposite in="SourceGraphic"/></filter><filter id="n" x="0" y="0" width="339.797" height="326.579" filterUnits="userSpaceOnUse"><feOffset dy="-6" input="SourceAlpha"/><feGaussianBlur stdDeviation="2.5" result="o"/><feFlood flood-opacity="0.161" result="p"/><feComposite operator="out" in="SourceGraphic" in2="o"/><feComposite operator="in" in="p"/><feComposite operator="in" in2="SourceGraphic"/></filter></defs><g transform="translate(-552.203 -227.421)"><g transform="translate(553.738 223.64)"><g transform="translate(11.262 8.781)"><g transform="translate(2 -0.421)"><g data-type="innerShadowGroup"><g transform="matrix(1, 0, 0, 1, -14.8, -4.58)" filter="url(#b)"><path d="M31.195,0H278.6C295.83,0,309.8,13.053,309.8,29.155V267.424c0,16.1-13.966,29.155-31.195,29.155H31.195C13.966,296.579,0,283.526,0,267.424V29.155C0,13.053,13.966,0,31.195,0Z" transform="translate(15 5)" fill="#fff"/></g><g transform="matrix(1, 0, 0, 1, -14.8, -4.58)" filter="url(#d)"><path d="M31.195,0H278.6C295.83,0,309.8,13.053,309.8,29.155V267.424c0,16.1-13.966,29.155-31.195,29.155H31.195C13.966,296.579,0,283.526,0,267.424V29.155C0,13.053,13.966,0,31.195,0Z" transform="translate(15 5)" fill="#fff"/></g></g></g></g></g><g transform="translate(5148.236 9751.53)" clip-path="url(#k)"><rect width="240" height="240" rx="56" transform="matrix(0.883, 0.469, -0.469, 0.883, -4268.353, -9668.893)" fill="#1eb2f3" opacity="0.08" style="mix-blend-mode:multiply;isolation:isolate"/><rect width="240" height="240" rx="56" transform="matrix(0.883, 0.469, -0.469, 0.883, -4582.353, -9496.893)" fill="#1eb2f3" opacity="0.053" style="mix-blend-mode:multiply;isolation:isolate"/></g><g transform="translate(750.776 395.772)"><path d="M40.158,97.581,3.582,78.438A6.474,6.474,0,0,1,.835,69.487a7,7,0,0,1,9.306-2.646L46.72,85.986a7.079,7.079,0,0,0,6.558,0L89.855,66.84a7.007,7.007,0,0,1,9.308,2.646,6.47,6.47,0,0,1-2.747,8.951L59.841,97.581a21.229,21.229,0,0,1-19.683,0Zm0-24.527L3.582,53.912A6.477,6.477,0,0,1,.835,44.959a7,7,0,0,1,9.306-2.644L46.72,61.457a7.079,7.079,0,0,0,6.558,0L89.855,42.315a7,7,0,0,1,9.308,2.644,6.474,6.474,0,0,1-2.747,8.953L59.841,73.052a21.223,21.223,0,0,1-19.68,0Zm-1.9-25.023L6.653,31.336A6.747,6.747,0,0,1,4.27,29.377a.058.058,0,0,0-.008-.01l-.039-.053c-.018-.024-.037-.048-.054-.073l0-.007a6.491,6.491,0,0,1-.56-.931,6.373,6.373,0,0,1,.183-6.012,6.717,6.717,0,0,1,2.9-2.7L38.261,2.911a25.122,25.122,0,0,1,23.476,0l31.54,16.66a6.705,6.705,0,0,1,2.933,2.721,6.373,6.373,0,0,1,.2,5.987,6.528,6.528,0,0,1-.507.863s0,0,0,.006c-.017.026-.036.053-.054.077s-.025.034-.037.051-.017.024-.025.034a6.752,6.752,0,0,1-2.452,2.036L61.737,48.031a25.118,25.118,0,0,1-23.476,0Zm6.605-11.572a10.969,10.969,0,0,0,10.263,0l20.8-10.988-20.8-10.99a10.986,10.986,0,0,0-10.26,0l-20.8,10.99Z" transform="translate(0 0)" fill="#3ce6ff" opacity="0.8"/><path d="M3.866,8.828l-.2-.071a6.97,6.97,0,0,1-2.3-1.327l-.01-.009-.039-.035-.056-.052,0,0L1.2,7.266l0,0c-.113-.113-.221-.229-.32-.35-.056-.067-.109-.134-.159-.2A3.441,3.441,0,0,1,0,4.668,3.439,3.439,0,0,1,.713,2.626c.051-.069.1-.137.162-.205a4.882,4.882,0,0,1,.461-.482l0,0L1.4,1.88l.011-.011.061-.052.035-.029.022-.019A7.139,7.139,0,0,1,3.668.579L3.815.526a10.353,10.353,0,0,1,6.661.052l11.293,4.09L10.476,8.759a10.025,10.025,0,0,1-3.4.577A10.2,10.2,0,0,1,3.866,8.828Zm82.653-.069L75.225,4.667,86.519.577A10.348,10.348,0,0,1,93.131.509l.194.07c2.342.848,3.667,2.442,3.67,4.089s-1.327,3.241-3.67,4.089l-.2.074a10.236,10.236,0,0,1-3.206.505A10.049,10.049,0,0,1,86.519,8.759Z" transform="translate(1.502 21.509)" fill="#2dabb7"/></g><path d="M9.23,23.63c4.83-.66,8.22-2.73,9.87-5.55,1.65,2.82,5.04,4.89,9.87,5.55l1.41-3.09c-5.61-.69-8.52-3.39-8.91-6.03H29.3V11.36H8.81v3.15h7.95c-.39,2.64-3.33,5.34-8.97,6.03Zm22.35,1.59H6.62v3.15H17.03v9.27h3.96V28.37H31.58Zm10.47-9.3h4.02V12.71H33.77v3.21h4.44v1.35c0,4.74-1.44,9.69-5.46,12.24l2.34,2.91c2.49-1.56,4.11-4.26,5.07-7.41a11.541,11.541,0,0,0,4.92,6.75l2.31-2.88c-3.99-2.34-5.34-6.99-5.34-11.61Zm5.61,3.45H44.15v3.21h3.51V36.32h3.69V10.4H47.66Zm5.58-9.45V37.55h3.75V9.92Zm23.04,3.33H69.44V10.22H67.25v3.03H60.44v1.8H76.28ZM64.01,21.38c0-1.89,1.74-3.09,4.32-3.09s4.32,1.2,4.32,3.09c0,1.86-1.74,3.09-4.32,3.09S64.01,23.24,64.01,21.38Zm10.71,0c0-2.91-2.55-4.83-6.39-4.83s-6.39,1.92-6.39,4.83,2.55,4.83,6.39,4.83S74.72,24.29,74.72,21.38ZM63.74,30.44H78.89v6.75h2.19V28.64H63.74ZM85.1,17.84H81.08v-7.5H78.89V27.11h2.19V19.7H85.1Zm24.78,1.02c-4.53-.57-9.6-3.51-9.6-6.96V10.64H98.03V11.9c0,3.51-5.01,6.36-9.6,6.96l.81,1.77c4.08-.63,8.28-2.73,9.93-5.82,1.68,3.06,5.85,5.19,9.87,5.82ZM105.92,35H92.3V31.46h13.62Zm0-5.28H92.3V26.45H90.11V36.8h17.97V26.45h-2.16Zm-18.9-7.08v1.83h24.27V22.64Z" transform="translate(731 298.272)"/><g transform="translate(611.118 251.7) rotate(21)"><rect width="73.481" height="17.146" rx="8.573" transform="translate(50.5 58.668)" fill="#fff"/><rect width="22.044" height="22.044" rx="11.022" transform="translate(98.263 30.5) rotate(90)" fill="#a8e8f2"/><path d="M11.022,0A11.022,11.022,0,1,1,0,11.022,11.022,11.022,0,0,1,11.022,0Z" transform="translate(98.263 81.937) rotate(90)" fill="#a8e8f2"/></g><g transform="matrix(0.996, -0.087, 0.087, 0.996, -56.289, 52.382)"><path d="M12.962,0H95.915a12.962,12.962,0,0,1,12.962,12.962v5.185A12.962,12.962,0,0,1,95.915,31.108H12.962A12.962,12.962,0,0,1,0,18.146V12.962A12.962,12.962,0,0,1,12.962,0Z" transform="matrix(0.899, -0.438, 0.438, 0.899, 603.285, 466.502)" fill="#fff"/><path d="M12.962,0H95.915a12.962,12.962,0,0,1,12.962,12.962v5.185A12.962,12.962,0,0,1,95.915,31.108H12.962A12.962,12.962,0,0,1,0,18.146V12.962A12.962,12.962,0,0,1,12.962,0Z" transform="matrix(0.438, 0.899, -0.899, 0.438, 649.148, 400.87)" fill="#fff"/><path d="M12.962,0H57.031A12.962,12.962,0,0,1,69.992,12.962v5.185A12.962,12.962,0,0,1,57.031,31.108H12.962A12.962,12.962,0,0,1,0,18.146V12.962A12.962,12.962,0,0,1,12.962,0Z" transform="matrix(0.899, -0.438, 0.438, 0.899, 603.285, 466.502)" fill="#a8e8f2"/></g><g transform="translate(553.738 223.64)"><g transform="translate(11.262 8.781)"><g transform="translate(2 -0.421)"><g data-type="innerShadowGroup"><g transform="matrix(1, 0, 0, 1, -14.8, -4.58)" filter="url(#l)"><path d="M31.195,0H278.6C295.83,0,309.8,13.053,309.8,29.155V267.424c0,16.1-13.966,29.155-31.195,29.155H31.195C13.966,296.579,0,283.526,0,267.424V29.155C0,13.053,13.966,0,31.195,0Z" transform="translate(15 5)" fill="#fff"/></g><g transform="matrix(1, 0, 0, 1, -14.8, -4.58)" filter="url(#n)"><path d="M31.195,0H278.6C295.83,0,309.8,13.053,309.8,29.155V267.424c0,16.1-13.966,29.155-31.195,29.155H31.195C13.966,296.579,0,283.526,0,267.424V29.155C0,13.053,13.966,0,31.195,0Z" transform="translate(15 5)" fill="#fff"/></g></g></g></g></g><g transform="translate(5148.236 9751.53)" clip-path="url(#k)"><rect width="240" height="240" rx="56" transform="matrix(0.883, 0.469, -0.469, 0.883, -4268.353, -9668.893)" fill="#1eb2f3" opacity="0.08" style="mix-blend-mode:multiply;isolation:isolate"/><rect width="240" height="240" rx="56" transform="matrix(0.883, 0.469, -0.469, 0.883, -4582.353, -9496.893)" fill="#1eb2f3" opacity="0.053" style="mix-blend-mode:multiply;isolation:isolate"/></g><g transform="translate(750.776 395.772)"><path d="M40.158,97.581,3.582,78.438A6.474,6.474,0,0,1,.835,69.487a7,7,0,0,1,9.306-2.646L46.72,85.986a7.079,7.079,0,0,0,6.558,0L89.855,66.84a7.007,7.007,0,0,1,9.308,2.646,6.47,6.47,0,0,1-2.747,8.951L59.841,97.581a21.229,21.229,0,0,1-19.683,0Zm0-24.527L3.582,53.912A6.477,6.477,0,0,1,.835,44.959a7,7,0,0,1,9.306-2.644L46.72,61.457a7.079,7.079,0,0,0,6.558,0L89.855,42.315a7,7,0,0,1,9.308,2.644,6.474,6.474,0,0,1-2.747,8.953L59.841,73.052a21.223,21.223,0,0,1-19.68,0Zm-1.9-25.023L6.653,31.336A6.747,6.747,0,0,1,4.27,29.377a.058.058,0,0,0-.008-.01l-.039-.053c-.018-.024-.037-.048-.054-.073l0-.007a6.491,6.491,0,0,1-.56-.931,6.373,6.373,0,0,1,.183-6.012,6.717,6.717,0,0,1,2.9-2.7L38.261,2.911a25.122,25.122,0,0,1,23.476,0l31.54,16.66a6.705,6.705,0,0,1,2.933,2.721,6.373,6.373,0,0,1,.2,5.987,6.528,6.528,0,0,1-.507.863s0,0,0,.006c-.017.026-.036.053-.054.077s-.025.034-.037.051-.017.024-.025.034a6.752,6.752,0,0,1-2.452,2.036L61.737,48.031a25.118,25.118,0,0,1-23.476,0Zm6.605-11.572a10.969,10.969,0,0,0,10.263,0l20.8-10.988-20.8-10.99a10.986,10.986,0,0,0-10.26,0l-20.8,10.99Z" transform="translate(0 0)" fill="#3ce6ff" opacity="0.8"/><path d="M3.866,8.828l-.2-.071a6.97,6.97,0,0,1-2.3-1.327l-.01-.009-.039-.035-.056-.052,0,0L1.2,7.266l0,0c-.113-.113-.221-.229-.32-.35-.056-.067-.109-.134-.159-.2A3.441,3.441,0,0,1,0,4.668,3.439,3.439,0,0,1,.713,2.626c.051-.069.1-.137.162-.205a4.882,4.882,0,0,1,.461-.482l0,0L1.4,1.88l.011-.011.061-.052.035-.029.022-.019A7.139,7.139,0,0,1,3.668.579L3.815.526a10.353,10.353,0,0,1,6.661.052l11.293,4.09L10.476,8.759a10.025,10.025,0,0,1-3.4.577A10.2,10.2,0,0,1,3.866,8.828Zm82.653-.069L75.225,4.667,86.519.577A10.348,10.348,0,0,1,93.131.509l.194.07c2.342.848,3.667,2.442,3.67,4.089s-1.327,3.241-3.67,4.089l-.2.074a10.236,10.236,0,0,1-3.206.505A10.049,10.049,0,0,1,86.519,8.759Z" transform="translate(1.502 21.509)" fill="#2dabb7"/></g><path d="M29.426,25.493c5.313-.726,9.042-3,10.857-6.1,1.815,3.1,5.544,5.379,10.857,6.1l1.551-3.4c-6.171-.759-9.372-3.729-9.8-6.633H51.5V12H28.964v3.465h8.745c-.429,2.9-3.663,5.874-9.867,6.633Zm24.585,1.749H26.555v3.465H38.006V40.9h4.356v-10.2H54.011Zm11.517-10.23H69.95V13.481H56.42v3.531H61.3V18.5c0,5.214-1.584,10.659-6.006,13.464l2.574,3.2c2.739-1.716,4.521-4.686,5.577-8.151a12.7,12.7,0,0,0,5.412,7.425L71.4,31.268c-4.389-2.574-5.874-7.689-5.874-12.771Zm6.171,3.8H67.838v3.531H71.7V39.452h4.059V10.94H71.7Zm6.138-10.4V40.805h4.125V10.412Zm25.344,3.663H95.657V10.742H93.248v3.333H85.757v1.98h17.424Zm-13.5,8.943c0-2.079,1.914-3.4,4.752-3.4s4.752,1.32,4.752,3.4c0,2.046-1.914,3.4-4.752,3.4S89.684,25.064,89.684,23.018Zm11.781,0c0-3.2-2.805-5.313-7.029-5.313s-7.029,2.112-7.029,5.313,2.805,5.313,7.029,5.313S101.465,26.219,101.465,23.018ZM89.387,32.984h16.665v7.425h2.409V31H89.387Zm23.5-13.86h-4.422v-8.25h-2.409V29.321h2.409V21.17h4.422Zm27.258,1.122c-4.983-.627-10.56-3.861-10.56-7.656V11.2h-2.475V12.59c0,3.861-5.511,7-10.56,7.656l.891,1.947c4.488-.693,9.108-3,10.923-6.4,1.848,3.366,6.435,5.709,10.857,6.4ZM135.785,38H120.8V34.106h14.982Zm0-5.808H120.8v-3.6h-2.409V39.98h19.767V28.595h-2.376ZM115,24.4v2.013h26.7V24.4Z" transform="translate(700.427 298.272)"/><g transform="translate(611.118 251.7) rotate(21)"><rect width="73.481" height="17.146" rx="8.573" transform="translate(50.5 58.668)" fill="#fff"/><rect width="22.044" height="22.044" rx="11.022" transform="translate(98.263 30.5) rotate(90)" fill="#a8e8f2"/><path d="M11.022,0A11.022,11.022,0,1,1,0,11.022,11.022,11.022,0,0,1,11.022,0Z" transform="translate(98.263 81.937) rotate(90)" fill="#a8e8f2"/></g><g transform="matrix(0.996, -0.087, 0.087, 0.996, -56.289, 52.382)"><path d="M12.962,0H95.915a12.962,12.962,0,0,1,12.962,12.962v5.185A12.962,12.962,0,0,1,95.915,31.108H12.962A12.962,12.962,0,0,1,0,18.146V12.962A12.962,12.962,0,0,1,12.962,0Z" transform="matrix(0.899, -0.438, 0.438, 0.899, 603.285, 466.502)" fill="#fff"/><path d="M12.962,0H95.915a12.962,12.962,0,0,1,12.962,12.962v5.185A12.962,12.962,0,0,1,95.915,31.108H12.962A12.962,12.962,0,0,1,0,18.146V12.962A12.962,12.962,0,0,1,12.962,0Z" transform="matrix(0.438, 0.899, -0.899, 0.438, 649.148, 400.87)" fill="#fff"/><path d="M12.962,0H57.031A12.962,12.962,0,0,1,69.992,12.962v5.185A12.962,12.962,0,0,1,57.031,31.108H12.962A12.962,12.962,0,0,1,0,18.146V12.962A12.962,12.962,0,0,1,12.962,0Z" transform="matrix(0.899, -0.438, 0.438, 0.899, 603.285, 466.502)" fill="#a8e8f2"/></g></g></svg>