<svg xmlns="http://www.w3.org/2000/svg" xmlns:xlink="http://www.w3.org/1999/xlink" width="155.896" height="143.785" viewBox="0 0 155.896 143.785"><defs><clipPath id="a"><path d="M15.7,0H140.2c8.67,0,15.7,6.328,15.7,14.135V129.65c0,7.806-7.028,14.135-15.7,14.135H15.7c-8.67,0-15.7-6.328-15.7-14.135V14.135C0,6.328,7.028,0,15.7,0Z" transform="translate(16.104 376.215)" fill="#fff"/></clipPath></defs><g transform="translate(-16.104 -376.215)"><g clip-path="url(#a)"><rect width="117.054" height="117.054" rx="30" transform="matrix(0.883, 0.469, -0.469, 0.883, 108.1, 419.647)" fill="#1eb2f3" opacity="0.103" style="mix-blend-mode:multiply;isolation:isolate"/></g><g transform="matrix(-0.966, 0.259, -0.259, -0.966, 151.104, 497.147)"><path d="M4.7,0H34.754a4.7,4.7,0,0,1,4.7,4.7V6.575a4.7,4.7,0,0,1-4.7,4.7H4.7A4.7,4.7,0,0,1,0,6.575V4.7A4.7,4.7,0,0,1,4.7,0Z" transform="matrix(0.899, -0.438, 0.438, 0.899, 0, 23.781)" fill="rgba(99,235,255,0.44)"/><path d="M4.7,0H34.754a4.7,4.7,0,0,1,4.7,4.7V6.575a4.7,4.7,0,0,1-4.7,4.7H4.7A4.7,4.7,0,0,1,0,6.575V4.7A4.7,4.7,0,0,1,4.7,0Z" transform="matrix(0.438, 0.899, -0.899, 0.438, 16.618, 0)" fill="rgba(99,235,255,0.44)"/><path d="M4.7,0H20.664a4.7,4.7,0,0,1,4.7,4.7V6.575a4.7,4.7,0,0,1-4.7,4.7H4.7A4.7,4.7,0,0,1,0,6.575V4.7A4.7,4.7,0,0,1,4.7,0Z" transform="matrix(0.899, -0.438, 0.438, 0.899, 0, 23.781)" fill="#fff"/></g></g></svg>