<svg data-name="그룹 15429" xmlns="http://www.w3.org/2000/svg" width="99.191" height="15.393" viewBox="0 0 99.191 15.393">
    <defs>
        <clipPath id="3p7ju830pa">
            <path data-name="사각형 9639" style="fill:none" d="M0 0h99.191v15.393H0z"/>
        </clipPath>
    </defs>
    <g data-name="그룹 15428" style="clip-path:url(#3p7ju830pa)">
        <path data-name="패스 134624" d="M26.435 15.327a16.435 16.435 0 0 0 .741-2.939c.291-2.5-1.13-3.446-1.754-3.737-.829-.387-2.49-.712-4.3 1.458a17.871 17.871 0 0 0-1.4 2.023 3.278 3.278 0 0 0-1.773-3.5c-.831-.388-2.493-.716-4.277 1.446a17.381 17.381 0 0 0-1.393 2.043 3.306 3.306 0 0 0-1.8-3.471c-1.827-.852-3.875.284-4.874 1.785l2.468 1.643a18.07 18.07 0 0 1-.512 1.966 15.97 15.97 0 0 0-.643 2.676 3.134 3.134 0 0 0 1.657 3.5l1.773-3.8-1.774 3.8a3.1 3.1 0 0 0 1.309.3 4.137 4.137 0 0 0 3.147-1.77 15.251 15.251 0 0 0 1.193-1.682 3.058 3.058 0 0 0 1.656 3.3 3.084 3.084 0 0 0 1.3.293 4.2 4.2 0 0 0 3.172-1.782 16.757 16.757 0 0 0 1.348-1.9 3.076 3.076 0 0 0 1.648 3.391c1.828.852 3.875-.283 4.874-1.785a2.1 2.1 0 0 0-1.789-3.26" transform="translate(-4.368 -6.502)" style="fill:#fff"/>
        <path data-name="패스 134625" d="M2.988 9.33A2.988 2.988 0 1 1 0 12.318 2.988 2.988 0 0 1 2.988 9.33" transform="translate(0 -7.265)" style="fill:#aff7f9"/>
        <path data-name="패스 134626" d="m170.43 15.393 1.9-10.775h2.628a4.926 4.926 0 1 1-1.313 8.5l-.4 2.274zm4.087-6.157a2.155 2.155 0 1 0 2.155-2.155 2.155 2.155 0 0 0-2.155 2.155zm12.534 0a4.923 4.923 0 0 1 7.964-3.875l.674-3.822h2.811l-2.172 12.316h-2.642a4.927 4.927 0 0 1-6.637-4.619m2.769 0a2.156 2.156 0 1 0 2.156-2.155 2.156 2.156 0 0 0-2.156 2.155m-7.726 4.619 1.629-9.237h2.814l-1.629 9.237zm-15.7 0 .823-4.666c.263-1.493.005-2.606-1.233-2.725a1.546 1.546 0 0 0-1.691 1.221l-1.091 6.17h-2.814l2.171-12.316h2.814l-.543 3.079a6.812 6.812 0 0 1 1.693-.308c2.821 0 4.09 1.558 3.655 4.022l-.974 5.523zm-12.16 0 1.083-6.155h-1.364l.433-2.463h1.365l.38-2.155h2.813l-.38 2.155h1.981l-.434 2.463h-1.981l-1.086 6.159zm-5.54 0 .042-.24a4.927 4.927 0 1 1 1.511-8.566l.076-.43h2.814l-1.63 9.237zm-3.634-4.928a2.155 2.155 0 1 0 2.155-2.155 2.157 2.157 0 0 0-2.155 2.155m-7.671 4.928 1.257-7.13-3.854 1.629-2.975-2.809-1.465 8.31h-2.814L129.979 0l5.4 5.1 6.878-2.909-2.057 11.664zm46.54-12.008a1.691 1.691 0 1 1 1.692 1.691 1.691 1.691 0 0 1-1.691-1.691" transform="translate(-99.312)" style="fill:#fff"/>
    </g>
</svg>
