<svg xmlns="http://www.w3.org/2000/svg" width="202" height="49.66" viewBox="0 0 202 49.66">
    <g data-name="그룹 14896">
        <path data-name="패스 9470" d="M-10.894-36.814A1.554 1.554 0 0 1-12.1-37.3a1.785 1.785 0 0 1-.441-1.252 3.434 3.434 0 0 1 1.28-2.716 5.439 5.439 0 0 1 2.955-1.292h.427q1 0 1.252.028a6.906 6.906 0 0 1 1.906.6 4.236 4.236 0 0 1 2.36 2.672 2.768 2.768 0 0 1 .085.768 4.731 4.731 0 0 1-1.038 3 5.746 5.746 0 0 1-2.6 1.892l-.086.057q0 .028.27.1t.825.284a5.44 5.44 0 0 1 1.065.559 4.565 4.565 0 0 1 2.332 3.982 4.965 4.965 0 0 1-.54 2.247 5.638 5.638 0 0 1-2.233 2.4 6.468 6.468 0 0 1-3.456.953 6.8 6.8 0 0 1-3.328-.8 4.1 4.1 0 0 1-1.963-2.133 3.209 3.209 0 0 1-.284-1.394 1.7 1.7 0 0 1 .526-1.294 1.776 1.776 0 0 1 1.266-.5 1.772 1.772 0 0 1 1.308.512 1.737 1.737 0 0 1 .512 1.28 1.819 1.819 0 0 1-.37 1.138 1.679 1.679 0 0 1-1 .626l-.2.057a5.352 5.352 0 0 0 3.527 1.28 2.539 2.539 0 0 0 2.361-1.508 6.535 6.535 0 0 0 .484-2.873v-.569q0-2.7-1.82-3.612A5.959 5.959 0 0 0-8.448-33l-1.195-.028-.085-.057a1.057 1.057 0 0 1-.057-.455.675.675 0 0 1 .085-.43.233.233 0 0 1 .142-.085 10.034 10.034 0 0 0 1.65-.142A2.464 2.464 0 0 0-6-35.605a6.283 6.283 0 0 0 .654-2.972 2.7 2.7 0 0 0-1-2.475 2.357 2.357 0 0 0-1.337-.4 4.211 4.211 0 0 0-2.5.768 1.209 1.209 0 0 0-.256.185 1.734 1.734 0 0 0-.228.242l-.085.114q.085.028.2.057a1.355 1.355 0 0 1 .953.54 1.734 1.734 0 0 1 .384 1.109 1.566 1.566 0 0 1-.469 1.152 1.636 1.636 0 0 1-1.21.471z" transform="translate(18.84 72.679)" style="fill:#0a141e"/>
        <path data-name="패스 9471" d="M-11.093-35.883a1.588 1.588 0 0 1-1.252-.512 1.817 1.817 0 0 1-.455-1.252 4.664 4.664 0 0 1 1.55-3.513 5.215 5.215 0 0 1 3.712-1.465A6.167 6.167 0 0 1-3.484-41.3a5.552 5.552 0 0 1 1.977 3.456 8.553 8.553 0 0 1 .057.939 5.38 5.38 0 0 1-1 3.1 18.879 18.879 0 0 1-3.21 3.27q-1.024.882-2.844 2.617l-1.678 1.593 2.162.028a34.145 34.145 0 0 0 4.75-.142q.114-.028.284-.6a17.942 17.942 0 0 0 .4-1.934v-.085h1.138v.085q-.028.085-.384 2.6t-.412 2.6v.085H-12.8v-.54a1.915 1.915 0 0 1 .057-.654q.028-.057 2.389-2.7 3.1-3.442 3.982-4.551a8.247 8.247 0 0 0 1.906-4.75 4.976 4.976 0 0 0-.981-3.143 3.275 3.275 0 0 0-2.745-1.266 3.121 3.121 0 0 0-2.674 1.479q-.057.114-.171.313a.623.623 0 0 0-.085.171q0 .028.142.028a1.448 1.448 0 0 1 1.152.512 1.774 1.774 0 0 1 .441 1.195 1.7 1.7 0 0 1-.469 1.209 1.621 1.621 0 0 1-1.237.502z" transform="translate(18.555 42.937)" style="fill:#0a141e"/>
        <path data-name="패스 9472" d="M0 0h20.889" transform="translate(1 25.257)" style="fill:none;stroke:#0a141e;stroke-linecap:round;stroke-width:2px"/>
        <path data-name="패스 9473" d="M-3.9-40.775a2.684 2.684 0 0 0-1.764-.711 4.074 4.074 0 0 0-3.324 1.706q-1.337 1.849-1.337 5.746l.028.114.228-.37A3.638 3.638 0 0 1-6.912-36a4.754 4.754 0 0 1 2.3.54 5.882 5.882 0 0 1 1.369 1.16 7.167 7.167 0 0 1 1.11 1.6 7.645 7.645 0 0 1 .6 3.044v.512a5.032 5.032 0 0 1-.142 1.223 6.4 6.4 0 0 1-1.764 3.157 5.221 5.221 0 0 1-2.731 1.593 4.787 4.787 0 0 1-1.138.114 4.958 4.958 0 0 1-.967-.085 5.039 5.039 0 0 1-3.356-2.276 13.278 13.278 0 0 1-1.678-7.168 12.537 12.537 0 0 1 1.081-5.376 8.517 8.517 0 0 1 3.015-3.584 5.667 5.667 0 0 1 3.328-1.081 3.9 3.9 0 0 1 2.66.882 3.043 3.043 0 0 1 1.01 2.418 1.568 1.568 0 0 1-.412 1.138 1.453 1.453 0 0 1-1.1.427 1.51 1.51 0 0 1-1.1-.4 1.47 1.47 0 0 1-.412-1.109A1.407 1.407 0 0 1-3.9-40.775zm-1.252 6.827A2.481 2.481 0 0 0-7.2-34.972a2.308 2.308 0 0 0-1.707.654q-1.393 1.394-1.393 4.494a12.045 12.045 0 0 0 .341 3.5 3.27 3.27 0 0 0 .967 1.451 2.381 2.381 0 0 0 1.621.6 2.554 2.554 0 0 0 2.219-1.081 3.144 3.144 0 0 0 .54-1.422 18.791 18.791 0 0 0 .114-2.389v-.91a19.4 19.4 0 0 0-.114-2.446 3.144 3.144 0 0 0-.536-1.427z" transform="translate(197.951 72.715)" style="fill:#0a141e"/>
        <path data-name="패스 9474" d="M-1.863-24.071q-.4-.085-3.669-.085-3.413 0-3.812.085H-9.6v-1.309h.882a6.029 6.029 0 0 0 1.508-.142.509.509 0 0 0 .341-.284q.028-.057.028-1.536v-1.422h-7.367v-1.308l4.3-6.571q4.352-6.6 4.409-6.628a1.5 1.5 0 0 1 .6-.057h.512l.171.171v13.084h2.617v1.308h-2.625v1.451q0 1.166.014 1.365a.521.521 0 0 0 .156.341 3.617 3.617 0 0 0 1.621.228h.825v1.308zm-4.807-6v-9.5L-12.9-30.1l3.1.028z" transform="translate(198.449 43.328)" style="fill:#0a141e"/>
        <path data-name="패스 9475" d="M0 0h20.889" transform="translate(180.111 25.257)" style="fill:none;stroke:#0a141e;stroke-linecap:round;stroke-width:2px"/>
        <path data-name="패스 9476" d="M-10.894-36.814A1.554 1.554 0 0 1-12.1-37.3a1.785 1.785 0 0 1-.441-1.252 3.434 3.434 0 0 1 1.28-2.716 5.439 5.439 0 0 1 2.955-1.292h.427q1 0 1.252.028a6.906 6.906 0 0 1 1.906.6 4.236 4.236 0 0 1 2.36 2.672 2.768 2.768 0 0 1 .085.768 4.731 4.731 0 0 1-1.038 3 5.746 5.746 0 0 1-2.6 1.892l-.086.057q0 .028.27.1t.825.284a5.44 5.44 0 0 1 1.065.559 4.565 4.565 0 0 1 2.332 3.982 4.965 4.965 0 0 1-.54 2.247 5.638 5.638 0 0 1-2.233 2.4 6.468 6.468 0 0 1-3.456.953 6.8 6.8 0 0 1-3.328-.8 4.1 4.1 0 0 1-1.963-2.133 3.209 3.209 0 0 1-.284-1.394 1.7 1.7 0 0 1 .526-1.294 1.776 1.776 0 0 1 1.266-.5 1.772 1.772 0 0 1 1.308.512 1.737 1.737 0 0 1 .512 1.28 1.819 1.819 0 0 1-.37 1.138 1.679 1.679 0 0 1-1 .626l-.2.057a5.352 5.352 0 0 0 3.527 1.28 2.539 2.539 0 0 0 2.361-1.508 6.535 6.535 0 0 0 .484-2.873v-.569q0-2.7-1.82-3.612A5.959 5.959 0 0 0-8.448-33l-1.195-.028-.085-.057a1.057 1.057 0 0 1-.057-.455.675.675 0 0 1 .085-.43.233.233 0 0 1 .142-.085 10.034 10.034 0 0 0 1.65-.142A2.464 2.464 0 0 0-6-35.605a6.283 6.283 0 0 0 .654-2.972 2.7 2.7 0 0 0-1-2.475 2.357 2.357 0 0 0-1.337-.4 4.211 4.211 0 0 0-2.5.768 1.209 1.209 0 0 0-.256.185 1.734 1.734 0 0 0-.228.242l-.085.114q.085.028.2.057a1.355 1.355 0 0 1 .953.54 1.734 1.734 0 0 1 .384 1.109 1.566 1.566 0 0 1-.469 1.152 1.636 1.636 0 0 1-1.21.471z" transform="translate(84.396 72.679)" style="fill:#0a141e"/>
        <path data-name="패스 9477" d="M-1.749-18.283a.546.546 0 0 1-.171.4.579.579 0 0 1-.427.171q-.142 0-.626-.455t-2.674-2.645l-2.953-2.96-2.987 2.987q-3.015 2.958-3.1 3.015a.931.931 0 0 1-.228.057.546.546 0 0 1-.4-.171.546.546 0 0 1-.171-.4.931.931 0 0 1 .057-.228q.085-.171 3.015-3.1l2.958-2.958-2.958-2.958q-2.93-2.93-3.015-3.1a.931.931 0 0 1-.057-.228.546.546 0 0 1 .171-.4.546.546 0 0 1 .4-.171.931.931 0 0 1 .228.057q.085.057 3.1 3.015l2.987 2.99 2.958-2.958q2.19-2.19 2.674-2.645t.626-.455a.579.579 0 0 1 .427.171.546.546 0 0 1 .171.4.5.5 0 0 1-.057.228q-.057.114-3.015 3.072l-2.964 2.983 2.958 2.987q2.958 2.958 3.015 3.072a.5.5 0 0 1 .058.227z" transform="translate(109.16 63.826)" style="fill:#ff6e5f"/>
        <path data-name="패스 9478" d="M-11.093-35.883a1.588 1.588 0 0 1-1.252-.512 1.817 1.817 0 0 1-.455-1.252 4.664 4.664 0 0 1 1.55-3.513 5.215 5.215 0 0 1 3.712-1.465A6.167 6.167 0 0 1-3.484-41.3a5.552 5.552 0 0 1 1.977 3.456 8.553 8.553 0 0 1 .057.939 5.38 5.38 0 0 1-1 3.1 18.879 18.879 0 0 1-3.21 3.27q-1.024.882-2.844 2.617l-1.678 1.593 2.162.028a34.145 34.145 0 0 0 4.75-.142q.114-.028.284-.6a17.942 17.942 0 0 0 .4-1.934v-.085h1.138v.085q-.028.085-.384 2.6t-.412 2.6v.085H-12.8v-.54a1.915 1.915 0 0 1 .057-.654q.028-.057 2.389-2.7 3.1-3.442 3.982-4.551a8.247 8.247 0 0 0 1.906-4.75 4.976 4.976 0 0 0-.981-3.143 3.275 3.275 0 0 0-2.745-1.266 3.121 3.121 0 0 0-2.674 1.479q-.057.114-.171.313a.623.623 0 0 0-.085.171q0 .028.142.028a1.448 1.448 0 0 1 1.152.512 1.774 1.774 0 0 1 .441 1.195 1.7 1.7 0 0 1-.469 1.209 1.621 1.621 0 0 1-1.237.502z" transform="translate(131.222 72.715)" style="fill:#ff6e5f"/>
        <path data-name="패스 9479" d="M-11.093-35.883a1.588 1.588 0 0 1-1.252-.512 1.817 1.817 0 0 1-.455-1.252 4.664 4.664 0 0 1 1.55-3.513 5.215 5.215 0 0 1 3.712-1.465A6.167 6.167 0 0 1-3.484-41.3a5.552 5.552 0 0 1 1.977 3.456 8.553 8.553 0 0 1 .057.939 5.38 5.38 0 0 1-1 3.1 18.879 18.879 0 0 1-3.21 3.27q-1.024.882-2.844 2.617l-1.678 1.593 2.162.028a34.145 34.145 0 0 0 4.75-.142q.114-.028.284-.6a17.942 17.942 0 0 0 .4-1.934v-.085h1.138v.085q-.028.085-.384 2.6t-.412 2.6v.085H-12.8v-.54a1.915 1.915 0 0 1 .057-.654q.028-.057 2.389-2.7 3.1-3.442 3.982-4.551a8.247 8.247 0 0 0 1.906-4.75 4.976 4.976 0 0 0-.981-3.143 3.275 3.275 0 0 0-2.745-1.266 3.121 3.121 0 0 0-2.674 1.479q-.057.114-.171.313a.623.623 0 0 0-.085.171q0 .028.142.028a1.448 1.448 0 0 1 1.152.512 1.774 1.774 0 0 1 .441 1.195 1.7 1.7 0 0 1-.469 1.209 1.621 1.621 0 0 1-1.237.502z" transform="translate(84.111 42.937)" style="fill:#0a141e"/>
        <path data-name="패스 9480" d="M-1.749-18.283a.546.546 0 0 1-.171.4.579.579 0 0 1-.427.171q-.142 0-.626-.455t-2.674-2.645l-2.953-2.96-2.987 2.987q-3.015 2.958-3.1 3.015a.931.931 0 0 1-.228.057.546.546 0 0 1-.4-.171.546.546 0 0 1-.171-.4.931.931 0 0 1 .057-.228q.085-.171 3.015-3.1l2.958-2.958-2.958-2.958q-2.93-2.93-3.015-3.1a.931.931 0 0 1-.057-.228.546.546 0 0 1 .171-.4.546.546 0 0 1 .4-.171.931.931 0 0 1 .228.057q.085.057 3.1 3.015l2.987 2.99 2.958-2.958q2.19-2.19 2.674-2.645t.626-.455a.579.579 0 0 1 .427.171.546.546 0 0 1 .171.4.5.5 0 0 1-.057.228q-.057.114-3.015 3.072l-2.964 2.983 2.958 2.987q2.958 2.958 3.015 3.072a.5.5 0 0 1 .058.227z" transform="translate(109.16 34.048)" style="fill:#ff6e5f"/>
        <path data-name="패스 9481" d="M-11.093-35.883a1.588 1.588 0 0 1-1.252-.512 1.817 1.817 0 0 1-.455-1.252 4.664 4.664 0 0 1 1.55-3.513 5.215 5.215 0 0 1 3.712-1.465A6.167 6.167 0 0 1-3.484-41.3a5.552 5.552 0 0 1 1.977 3.456 8.553 8.553 0 0 1 .057.939 5.38 5.38 0 0 1-1 3.1 18.879 18.879 0 0 1-3.21 3.27q-1.024.882-2.844 2.617l-1.678 1.593 2.162.028a34.145 34.145 0 0 0 4.75-.142q.114-.028.284-.6a17.942 17.942 0 0 0 .4-1.934v-.085h1.138v.085q-.028.085-.384 2.6t-.412 2.6v.085H-12.8v-.54a1.915 1.915 0 0 1 .057-.654q.028-.057 2.389-2.7 3.1-3.442 3.982-4.551a8.247 8.247 0 0 0 1.906-4.75 4.976 4.976 0 0 0-.981-3.143 3.275 3.275 0 0 0-2.745-1.266 3.121 3.121 0 0 0-2.674 1.479q-.057.114-.171.313a.623.623 0 0 0-.085.171q0 .028.142.028a1.448 1.448 0 0 1 1.152.512 1.774 1.774 0 0 1 .441 1.195 1.7 1.7 0 0 1-.469 1.209 1.621 1.621 0 0 1-1.237.502z" transform="translate(131.222 42.937)" style="fill:#ff6e5f"/>
        <path data-name="패스 9482" d="M0 0h74.667" transform="translate(63.667 25.257)" style="fill:none;stroke:#0a141e;stroke-linecap:round;stroke-width:2px"/>
        <path data-name="패스 9483" d="M-21.312-22.919a.62.62 0 0 1 .4-.569h18.117a.622.622 0 0 1 .427.569.645.645 0 0 1-.4.54l-9.045.028h-9.045a.564.564 0 0 1-.454-.568zm0 5.518a.564.564 0 0 1 .455-.569h18.091a1.234 1.234 0 0 0 .128.1 1.21 1.21 0 0 1 .142.114.464.464 0 0 1 .085.142.536.536 0 0 1 .043.213.622.622 0 0 1-.427.569h-18.119a.62.62 0 0 1-.398-.568z" transform="translate(54.618 45.639)" style="fill:#0a141e"/>
        <path data-name="패스 9484" d="M-21.312-22.919a.62.62 0 0 1 .4-.569h18.117a.622.622 0 0 1 .427.569.645.645 0 0 1-.4.54l-9.045.028h-9.045a.564.564 0 0 1-.454-.568zm0 5.518a.564.564 0 0 1 .455-.569h18.091a1.234 1.234 0 0 0 .128.1 1.21 1.21 0 0 1 .142.114.464.464 0 0 1 .085.142.536.536 0 0 1 .043.213.622.622 0 0 1-.427.569h-18.119a.62.62 0 0 1-.398-.568z" transform="translate(171.062 45.639)" style="fill:#0a141e"/>
    </g>
</svg>
