<svg xmlns="http://www.w3.org/2000/svg" width="42" height="56" viewBox="0 0 42 56">
    <defs>
        <clipPath id="45pozqcaga">
            <path fill="none" d="M0 0H42V56H0z"/>
        </clipPath>
    </defs>
    <g clip-path="url(#45pozqcaga)">
        <g fill="#fff" stroke-miterlimit="10">
            <path d="M1647 2767H280c-3.86 0-7-3.14-7-7v-102c0-3.86 3.14-7 7-7h698c3.86 0 7-3.14 7-7v-16c0-4.186.82-8.245 2.436-12.066 1.561-3.692 3.796-7.007 6.644-9.854 2.847-2.848 6.163-5.083 9.854-6.644 3.82-1.617 7.88-2.436 12.066-2.436h305c4.185 0 8.245.82 12.066 2.436 3.691 1.561 7.007 3.796 9.854 6.644 2.848 2.847 5.083 6.162 6.644 9.854 1.617 3.82 2.436 7.88 2.436 12.066v16c0 3.86 3.14 7 7 7h288c3.86 0 7 3.14 7 7v102c0 3.86-3.14 7-7 7z" transform="translate(-1320 -2596)"/>
            <path fill="#323c46" d="M1016 2598c-4.05 0-7.98.793-11.677 2.357-3.572 1.51-6.78 3.674-9.536 6.43-2.756 2.755-4.92 5.964-6.43 9.536-1.564 3.698-2.357 7.626-2.357 11.677v16c0 4.411-3.589 8-8 8H280c-3.308 0-6 2.692-6 6v102c0 3.308 2.692 6 6 6h1367c3.308 0 6-2.692 6-6v-102c0-3.308-2.692-6-6-6h-288c-4.411 0-8-3.589-8-8v-16c0-4.051-.793-7.98-2.357-11.677-1.51-3.572-3.674-6.78-6.43-9.536-2.756-2.756-5.964-4.92-9.536-6.43-3.698-1.564-7.626-2.357-11.677-2.357h-305m0-2h305c17.673 0 32 14.327 32 32v16c0 3.314 2.686 6 6 6h288c4.418 0 8 3.582 8 8v102c0 4.418-3.582 8-8 8H280c-4.418 0-8-3.582-8-8v-102c0-4.418 3.582-8 8-8h698c3.314 0 6-2.686 6-6v-16c0-17.673 14.327-32 32-32z" transform="translate(-1320 -2596)"/>
        </g>
    </g>
</svg>
