<svg xmlns="http://www.w3.org/2000/svg" width="42" height="42" viewBox="0 0 42 42">
    <defs>
        <clipPath id="r3m32qvcba">
            <path fill="none" d="M0 0H42V42H0z"/>
        </clipPath>
    </defs>
    <g style="isolation:isolate" clip-path="url(#r3m32qvcba)">
        <g fill="#fff">
            <path d="M1319 2667H930v-30h185c3.86 0 7-3.14 7-7v-4c0-4.165.817-8.114 2.428-11.737 1.544-3.47 3.77-6.55 6.62-9.152 5.724-5.23 13.52-8.111 21.952-8.111h101c8.432 0 16.228 2.88 21.953 8.11 2.848 2.603 5.075 5.682 6.619 9.153 1.611 3.623 2.428 7.572 2.428 11.737v4c0 3.86 3.14 7 7 7h27v30z" transform="translate(-1252 -2596)"/>
            <path fill="#323c46" d="M1318 2666v-28h-26c-4.411 0-8-3.589-8-8v-4c0-4.024-.788-7.836-2.342-11.33-1.487-3.345-3.634-6.312-6.38-8.82-5.54-5.062-13.096-7.85-21.278-7.85h-101c-8.182 0-15.738 2.788-21.278 7.85-2.746 2.508-4.893 5.475-6.38 8.82-1.554 3.494-2.342 7.306-2.342 11.33v4c0 4.411-3.589 8-8 8H931v28h387m2 2H929v-32h186c3.314 0 6-2.687 6-6v-4c0-17.673 14.327-30 32-30h101c17.673 0 32 12.327 32 30v4c0 3.313 2.686 6 6 6h28v32z" transform="translate(-1252 -2596)"/>
        </g>
    </g>
</svg>
