<svg xmlns="http://www.w3.org/2000/svg" width="100" height="100" viewBox="0 0 100 100">
    <path data-name="사각형 7940" style="fill:#fff" d="M0 0h100v100H0z"/>
    <path data-name="패스 12182" d="M5 5h3.76v3.76H5zm3.76 0h3.76v3.76H8.76zm3.76 0h3.76v3.76h-3.76zm3.76 0h3.76v3.76h-3.76zm3.76 0h3.76v3.76h-3.76zm3.76 0h3.76v3.76H23.8zm3.76 0h3.76v3.76h-3.76zm11.28 0h3.76v3.76h-3.76zm11.28 0h3.76v3.76h-3.76zm3.76 0h3.76v3.76h-3.76zm3.76 0h3.76v3.76h-3.76zm3.76 0h3.76v3.76H61.4zm11.28 0h3.76v3.76h-3.76zm3.76 0h3.76v3.76h-3.76zm3.76 0h3.76v3.76H80.2zm3.76 0h3.76v3.76h-3.76zm3.76 0h3.76v3.76h-3.76zm3.76 0h3.76v3.76h-3.76zm3.76 0H99v3.76h-3.76zM5 8.76h3.76v3.76H5zm22.56 0h3.76v3.76h-3.76zm7.52 0h3.76v3.76h-3.76zm11.28 0h3.76v3.76h-3.76zm3.76 0h3.76v3.76h-3.76zm3.76 0h3.76v3.76h-3.76zm3.76 0h3.76v3.76h-3.76zm3.76 0h3.76v3.76H61.4zm3.76 0h3.76v3.76h-3.76zm7.52 0h3.76v3.76h-3.76zm22.56 0H99v3.76h-3.76zM5 12.52h3.76v3.76H5zm7.52 0h3.76v3.76h-3.76zm3.76 0h3.76v3.76h-3.76zm3.76 0h3.76v3.76h-3.76zm7.52 0h3.76v3.76h-3.76zm7.52 0h3.76v3.76h-3.76zm3.76 0h3.76v3.76h-3.76zm3.76 0h3.76v3.76H42.6zm3.76 0h3.76v3.76h-3.76zm3.76 0h3.76v3.76h-3.76zm7.52 0h3.76v3.76h-3.76zm15.04 0h3.76v3.76h-3.76zm7.52 0h3.76v3.76H80.2zm3.76 0h3.76v3.76h-3.76zm3.76 0h3.76v3.76h-3.76zm7.52 0H99v3.76h-3.76zM5 16.28h3.76v3.76H5zm7.52 0h3.76v3.76h-3.76zm3.76 0h3.76v3.76h-3.76zm3.76 0h3.76v3.76h-3.76zm7.52 0h3.76v3.76h-3.76zm11.28 0h3.76v3.76h-3.76zm3.76 0h3.76v3.76H42.6zm3.76 0h3.76v3.76h-3.76zm15.04 0h3.76v3.76H61.4zm3.76 0h3.76v3.76h-3.76zm7.52 0h3.76v3.76h-3.76zm7.52 0h3.76v3.76H80.2zm3.76 0h3.76v3.76h-3.76zm3.76 0h3.76v3.76h-3.76zm7.52 0H99v3.76h-3.76zM5 20.04h3.76v3.76H5zm7.52 0h3.76v3.76h-3.76zm3.76 0h3.76v3.76h-3.76zm3.76 0h3.76v3.76h-3.76zm7.52 0h3.76v3.76h-3.76zm7.52 0h3.76v3.76h-3.76zm22.56 0h3.76v3.76h-3.76zm3.76 0h3.76v3.76H61.4zm3.76 0h3.76v3.76h-3.76zm7.52 0h3.76v3.76h-3.76zm7.52 0h3.76v3.76H80.2zm3.76 0h3.76v3.76h-3.76zm3.76 0h3.76v3.76h-3.76zm7.52 0H99v3.76h-3.76zM5 23.8h3.76v3.76H5zm22.56 0h3.76v3.76h-3.76zm7.52 0h3.76v3.76h-3.76zm3.76 0h3.76v3.76h-3.76zm7.52 0h3.76v3.76h-3.76zm15.04 0h3.76v3.76H61.4zm11.28 0h3.76v3.76h-3.76zm22.56 0H99v3.76h-3.76zM5 27.56h3.76v3.76H5zm3.76 0h3.76v3.76H8.76zm3.76 0h3.76v3.76h-3.76zm3.76 0h3.76v3.76h-3.76zm3.76 0h3.76v3.76h-3.76zm3.76 0h3.76v3.76H23.8zm3.76 0h3.76v3.76h-3.76zm7.52 0h3.76v3.76h-3.76zm7.52 0h3.76v3.76H42.6zm7.52 0h3.76v3.76h-3.76zm7.52 0h3.76v3.76h-3.76zm7.52 0h3.76v3.76h-3.76zm7.52 0h3.76v3.76h-3.76zm3.76 0h3.76v3.76h-3.76zm3.76 0h3.76v3.76H80.2zm3.76 0h3.76v3.76h-3.76zm3.76 0h3.76v3.76h-3.76zm3.76 0h3.76v3.76h-3.76zm3.76 0H99v3.76h-3.76zm-60.16 3.76h3.76v3.76h-3.76zm3.76 0h3.76v3.76h-3.76zm11.28 0h3.76v3.76h-3.76zm7.52 0h3.76v3.76h-3.76zM5 35.08h3.76v3.76H5zm3.76 0h3.76v3.76H8.76zm7.52 0h3.76v3.76h-3.76zm11.28 0h3.76v3.76h-3.76zm3.76 0h3.76v3.76h-3.76zm11.28 0h3.76v3.76H42.6zm11.28 0h3.76v3.76h-3.76zm3.76 0h3.76v3.76h-3.76zm3.76 0h3.76v3.76H61.4zm3.76 0h3.76v3.76h-3.76zm7.52 0h3.76v3.76h-3.76zm3.76 0h3.76v3.76h-3.76zm3.76 0h3.76v3.76H80.2zm7.52 0h3.76v3.76h-3.76zm3.76 0h3.76v3.76h-3.76zm-75.2 3.76h3.76v3.76h-3.76zm3.76 0h3.76v3.76h-3.76zm3.76 0h3.76v3.76H23.8zm7.52 0h3.76v3.76h-3.76zm3.76 0h3.76v3.76h-3.76zm7.52 0h3.76v3.76H42.6zm3.76 0h3.76v3.76h-3.76zm7.52 0h3.76v3.76h-3.76zm3.76 0h3.76v3.76h-3.76zm11.28 0h3.76v3.76h-3.76zm3.76 0h3.76v3.76h-3.76zm22.56 0H99v3.76h-3.76zM12.52 42.6h3.76v3.76h-3.76zm7.52 0h3.76v3.76h-3.76zm7.52 0h3.76v3.76h-3.76zm7.52 0h3.76v3.76h-3.76zm3.76 0h3.76v3.76h-3.76zm3.76 0h3.76v3.76H42.6zm22.56 0h3.76v3.76h-3.76zm3.76 0h3.76v3.76h-3.76zm22.56 0h3.76v3.76h-3.76zm3.76 0H99v3.76h-3.76zM8.76 46.36h3.76v3.76H8.76zm7.52 0h3.76v3.76h-3.76zm3.76 0h3.76v3.76h-3.76zm3.76 0h3.76v3.76H23.8zm30.08 0h3.76v3.76h-3.76zm18.8 0h3.76v3.76h-3.76zM5 50.12h3.76v3.76H5zm3.76 0h3.76v3.76H8.76zm7.52 0h3.76v3.76h-3.76zm7.52 0h3.76v3.76H23.8zm3.76 0h3.76v3.76h-3.76zm3.76 0h3.76v3.76h-3.76zm18.8 0h3.76v3.76h-3.76zm3.76 0h3.76v3.76h-3.76zm7.52 0h3.76v3.76H61.4zm3.76 0h3.76v3.76h-3.76zm3.76 0h3.76v3.76h-3.76zm3.76 0h3.76v3.76h-3.76zm11.28 0h3.76v3.76h-3.76zm7.52 0h3.76v3.76h-3.76zm3.76 0H99v3.76h-3.76zm-82.72 3.76h3.76v3.76h-3.76zm3.76 0h3.76v3.76h-3.76zm7.52 0h3.76v3.76H23.8zm7.52 0h3.76v3.76h-3.76zm11.28 0h3.76v3.76H42.6zm3.76 0h3.76v3.76h-3.76zm3.76 0h3.76v3.76h-3.76zm18.8 0h3.76v3.76h-3.76zm3.76 0h3.76v3.76h-3.76zm3.76 0h3.76v3.76h-3.76zm7.52 0h3.76v3.76h-3.76zm3.76 0h3.76v3.76h-3.76zm7.52 0H99v3.76h-3.76zM5 57.64h3.76v3.76H5zm15.04 0h3.76v3.76h-3.76zm3.76 0h3.76v3.76H23.8zm3.76 0h3.76v3.76h-3.76zm3.76 0h3.76v3.76h-3.76zm3.76 0h3.76v3.76h-3.76zm3.76 0h3.76v3.76h-3.76zm3.76 0h3.76v3.76H42.6zm7.52 0h3.76v3.76h-3.76zm3.76 0h3.76v3.76h-3.76zm11.28 0h3.76v3.76h-3.76zm7.52 0h3.76v3.76h-3.76zm3.76 0h3.76v3.76h-3.76zm3.76 0h3.76v3.76H80.2zm7.52 0h3.76v3.76h-3.76zm7.52 0H99v3.76h-3.76zM8.76 61.4h3.76v3.76H8.76zm11.28 0h3.76v3.76h-3.76zm3.76 0h3.76v3.76H23.8zm7.52 0h3.76v3.76h-3.76zm3.76 0h3.76v3.76h-3.76zm3.76 0h3.76v3.76h-3.76zm11.28 0h3.76v3.76h-3.76zm3.76 0h3.76v3.76h-3.76zm3.76 0h3.76v3.76h-3.76zm7.52 0h3.76v3.76h-3.76zm15.04 0h3.76v3.76H80.2zm11.28 0h3.76v3.76h-3.76zM5 65.16h3.76v3.76H5zm3.76 0h3.76v3.76H8.76zm7.52 0h3.76v3.76h-3.76zm3.76 0h3.76v3.76h-3.76zm3.76 0h3.76v3.76H23.8zm3.76 0h3.76v3.76h-3.76zm3.76 0h3.76v3.76h-3.76zm7.52 0h3.76v3.76h-3.76zm3.76 0h3.76v3.76H42.6zm3.76 0h3.76v3.76h-3.76zm3.76 0h3.76v3.76h-3.76zm11.28 0h3.76v3.76H61.4zm3.76 0h3.76v3.76h-3.76zm3.76 0h3.76v3.76h-3.76zm3.76 0h3.76v3.76h-3.76zm3.76 0h3.76v3.76h-3.76zm3.76 0h3.76v3.76H80.2zm3.76 0h3.76v3.76h-3.76zm3.76 0h3.76v3.76h-3.76zm-52.64 3.76h3.76v3.76h-3.76zm3.76 0h3.76v3.76h-3.76zm15.04 0h3.76v3.76h-3.76zm3.76 0h3.76v3.76h-3.76zm3.76 0h3.76v3.76H61.4zm3.76 0h3.76v3.76h-3.76zm15.04 0h3.76v3.76H80.2zm3.76 0h3.76v3.76h-3.76zm11.28 0H99v3.76h-3.76zM5 72.68h3.76v3.76H5zm3.76 0h3.76v3.76H8.76zm3.76 0h3.76v3.76h-3.76zm3.76 0h3.76v3.76h-3.76zm3.76 0h3.76v3.76h-3.76zm3.76 0h3.76v3.76H23.8zm3.76 0h3.76v3.76h-3.76zm7.52 0h3.76v3.76h-3.76zm3.76 0h3.76v3.76h-3.76zm11.28 0h3.76v3.76h-3.76zm7.52 0h3.76v3.76h-3.76zm3.76 0h3.76v3.76H61.4zm3.76 0h3.76v3.76h-3.76zm7.52 0h3.76v3.76h-3.76zm7.52 0h3.76v3.76H80.2zm3.76 0h3.76v3.76h-3.76zm7.52 0h3.76v3.76h-3.76zm3.76 0H99v3.76h-3.76zM5 76.44h3.76v3.76H5zm22.56 0h3.76v3.76h-3.76zm11.28 0h3.76v3.76h-3.76zm3.76 0h3.76v3.76H42.6zm7.52 0h3.76v3.76h-3.76zm7.52 0h3.76v3.76h-3.76zm7.52 0h3.76v3.76h-3.76zm15.04 0h3.76v3.76H80.2zm3.76 0h3.76v3.76h-3.76zm3.76 0h3.76v3.76h-3.76zM5 80.2h3.76v3.76H5zm7.52 0h3.76v3.76h-3.76zm3.76 0h3.76v3.76h-3.76zm3.76 0h3.76v3.76h-3.76zm7.52 0h3.76v3.76h-3.76zm15.04 0h3.76v3.76H42.6zm3.76 0h3.76v3.76h-3.76zm3.76 0h3.76v3.76h-3.76zm3.76 0h3.76v3.76h-3.76zm3.76 0h3.76v3.76h-3.76zm7.52 0h3.76v3.76h-3.76zm3.76 0h3.76v3.76h-3.76zm3.76 0h3.76v3.76h-3.76zm3.76 0h3.76v3.76h-3.76zm3.76 0h3.76v3.76H80.2zm3.76 0h3.76v3.76h-3.76zm7.52 0h3.76v3.76h-3.76zM5 83.96h3.76v3.76H5zm7.52 0h3.76v3.76h-3.76zm3.76 0h3.76v3.76h-3.76zm3.76 0h3.76v3.76h-3.76zm7.52 0h3.76v3.76h-3.76zm7.52 0h3.76v3.76h-3.76zm3.76 0h3.76v3.76h-3.76zm11.28 0h3.76v3.76h-3.76zm3.76 0h3.76v3.76h-3.76zm3.76 0h3.76v3.76h-3.76zm18.8 0h3.76v3.76h-3.76zm3.76 0h3.76v3.76H80.2zm3.76 0h3.76v3.76h-3.76zm3.76 0h3.76v3.76h-3.76zM5 87.72h3.76v3.76H5zm7.52 0h3.76v3.76h-3.76zm3.76 0h3.76v3.76h-3.76zm3.76 0h3.76v3.76h-3.76zm7.52 0h3.76v3.76h-3.76zm11.28 0h3.76v3.76h-3.76zm3.76 0h3.76v3.76H42.6zm22.56 0h3.76v3.76h-3.76zm11.28 0h3.76v3.76h-3.76zm3.76 0h3.76v3.76H80.2zm7.52 0h3.76v3.76h-3.76zm7.52 0H99v3.76h-3.76zM5 91.48h3.76v3.76H5zm22.56 0h3.76v3.76h-3.76zm7.52 0h3.76v3.76h-3.76zm3.76 0h3.76v3.76h-3.76zm3.76 0h3.76v3.76H42.6zm7.52 0h3.76v3.76h-3.76zm3.76 0h3.76v3.76h-3.76zm3.76 0h3.76v3.76h-3.76zm3.76 0h3.76v3.76H61.4zm3.76 0h3.76v3.76h-3.76zm3.76 0h3.76v3.76h-3.76zm3.76 0h3.76v3.76h-3.76zm11.28 0h3.76v3.76h-3.76zM5 95.24h3.76V99H5zm3.76 0h3.76V99H8.76zm3.76 0h3.76V99h-3.76zm3.76 0h3.76V99h-3.76zm3.76 0h3.76V99h-3.76zm3.76 0h3.76V99H23.8zm3.76 0h3.76V99h-3.76zm7.52 0h3.76V99h-3.76zm7.52 0h3.76V99H42.6zm11.28 0h3.76V99h-3.76zm3.76 0h3.76V99h-3.76zm3.76 0h3.76V99H61.4zm3.76 0h3.76V99h-3.76zm7.52 0h3.76V99h-3.76zm3.76 0h3.76V99h-3.76zm15.04 0h3.76V99h-3.76zm3.76 0H99V99h-3.76z" transform="translate(-2 -1.999)" style="stroke:transparent"/>
</svg>
