<svg xmlns="http://www.w3.org/2000/svg" width="40" height="20.001" viewBox="0 0 40 20.001">
    <defs>
        <linearGradient id="zh28cthw4a" y1=".5" x2="1" y2=".5" gradientUnits="objectBoundingBox">
            <stop offset="0" stop-color="#00d7ff"/>
            <stop offset=".626" stop-color="#00cdff"/>
        </linearGradient>
        <linearGradient id="3rb3dm4gyb" y1=".5" x2="1" y2=".5" gradientUnits="objectBoundingBox">
            <stop offset="0" stop-color="#00cdff"/>
            <stop offset="1" stop-color="#00beff"/>
        </linearGradient>
    </defs>
    <path data-name="사각형 40" style="fill:none;opacity:.2" d="M0 0h40v20H0z"/>
    <g transform="translate(337.896 -186.438)">
        <path data-name="패스 6831" d="M-325.613 205.757c-.966-.45-3.166-1.914-2.737-5.754a25.65 25.65 0 0 1 1.034-4.3 27.246 27.246 0 0 0 .824-3.193l-3.932-2.617c1.633-2.453 4.987-4.307 7.986-2.907 1.014.473 3.332 2.007 2.946 6.023a25.6 25.6 0 0 1-1.1 4.71 17.812 17.812 0 0 0-.8 3.284 2.172 2.172 0 0 0-1.255-1.6zm-.531-13.02a2 2 0 0 0 .74.6 1.971 1.971 0 0 0 .358.127z" transform="translate(-5.018 -.044)" style="fill:#00d7ff"/>
        <path data-name="패스 6832" d="M-310.433 206.2a5.119 5.119 0 0 1-2.163-.49l2.967-6.358a1.817 1.817 0 0 0-1.582 0c.791-.52 2.414-3.307 3.384-4.972a40.171 40.171 0 0 1 3.324-5.123c2.918-3.537 5.652-2.993 7.022-2.354 1.028.479 3.369 2.038 2.893 6.136a26.832 26.832 0 0 1-1.207 4.79 18.557 18.557 0 0 0-.882 3.414 2.2 2.2 0 0 0-1.281-1.653l-2.967 6.359a4.915 4.915 0 0 1-2.765-4.846 22.432 22.432 0 0 1-1.6 2.21c-1.894 2.255-3.703 2.887-5.143 2.887z" transform="translate(-18.034)" style="fill:url(#zh28cthw4a)"/>
        <path data-name="패스 6833" d="M-272.685 206.533a5.088 5.088 0 0 1-2.151-.486 3.508 3.508 0 0 1-1.7-4.663 3.517 3.517 0 0 1 3.447-2.016 35.032 35.032 0 0 0 3.17-4.782 41.666 41.666 0 0 1 3.411-5.181c2.954-3.549 5.687-3.01 7.053-2.373 1.028.48 3.37 2.038 2.893 6.132a25.265 25.265 0 0 1-1.127 4.527 3.493 3.493 0 0 1 1.8.585 3.509 3.509 0 0 1 .977 4.865c-1.633 2.453-4.986 4.307-7.986 2.907a4.936 4.936 0 0 1-2.763-4.965 24.6 24.6 0 0 1-1.842 2.545c-1.916 2.267-3.738 2.905-5.182 2.905z" transform="translate(-44.125 -.095)" style="fill:url(#3rb3dm4gyb)"/>
        <circle data-name="타원 1311" cx="4.776" cy="4.776" r="4.776" transform="translate(-337.297 186.942)" style="fill:#00ebff"/>
    </g>
</svg>
