<svg xmlns="http://www.w3.org/2000/svg" xmlns:xlink="http://www.w3.org/1999/xlink" width="251.5" height="230" viewBox="0 0 251.5 230"><defs><linearGradient id="a" x1="0.884" y1="0.147" x2="0.198" y2="0.984" gradientUnits="objectBoundingBox"><stop offset="0" stop-color="#eafdff"/><stop offset="0.668" stop-color="#ebfdff"/><stop offset="1" stop-color="#fff"/></linearGradient><clipPath id="c"><path d="M387.8,120.424c5.226-10.379,19.507-14.139,29.261-7.783,18.215,11.869,35.914,14.615,56.571,7.783,11.062-3.658,22.973,4.2,25.359,15.567,4.455,21.224,17.611,35.033,37.064,44.755,10.418,5.206,14.182,19.469,7.8,29.188-11.914,18.148-14.658,37.794-7.8,58.376,3.671,11.021-4.2,22.918-15.606,25.3-21.305,4.441-37.057,15.641-46.818,35.025-5.226,10.379-17.557,14.139-27.31,7.783-18.215-11.869-37.865-14.615-58.522-7.783-11.062,3.658-22.974-4.2-25.359-15.567-4.455-21.224-15.66-35.033-35.113-44.755-10.418-5.207-14.183-19.469-7.8-29.188,11.914-18.148,14.658-37.794,7.8-58.376-3.671-11.021,2.248-22.918,13.655-25.3C362.288,151.008,378.04,139.808,387.8,120.424Z" transform="translate(-316.397 -109.527)" fill="url(#a)"/></clipPath><filter id="d" x="83.171" y="145.096" width="180.543" height="132.693" filterUnits="userSpaceOnUse"><feOffset dy="3" input="SourceAlpha"/><feGaussianBlur stdDeviation="5.5" result="e"/><feFlood flood-opacity="0.349"/><feComposite operator="in" in2="e"/><feComposite in="SourceGraphic"/></filter><clipPath id="f"><rect width="29.327" height="22.68" fill="none"/></clipPath></defs><g transform="translate(-54.655 -260.438)"><path d="M387.8,120.424c5.226-10.379,19.507-14.139,29.261-7.783,18.215,11.869,35.914,14.615,56.571,7.783,11.062-3.658,22.973,4.2,25.359,15.567,4.455,21.224,17.611,35.033,37.064,44.755,10.418,5.206,14.182,19.469,7.8,29.188-11.914,18.148-14.658,37.794-7.8,58.376,3.671,11.021-4.2,22.918-15.606,25.3-21.305,4.441-37.057,15.641-46.818,35.025-5.226,10.379-17.557,14.139-27.31,7.783-18.215-11.869-37.865-14.615-58.522-7.783-11.062,3.658-22.974-4.2-25.359-15.567-4.455-21.224-15.66-35.033-35.113-44.755-10.418-5.207-14.183-19.469-7.8-29.188,11.914-18.148,14.658-37.794,7.8-58.376-3.671-11.021,2.248-22.918,13.655-25.3C362.288,151.008,378.04,139.808,387.8,120.424Z" transform="translate(-247.835 150.911)" fill="url(#a)"/><rect width="22.984" height="29.775" rx="11.492" transform="translate(54.655 442.406)" fill="#ccf9fe"/><rect width="22.984" height="43.357" rx="11.492" transform="translate(86.52 428.824)" fill="#ccf9fe"/><g transform="translate(68.562 260.438)" clip-path="url(#c)"><g transform="translate(81.82 109.613)"><path d="M198.989,523.824l-9,8.979a4.206,4.206,0,1,0,5.957,5.941l9-8.98a4.206,4.206,0,1,0-5.957-5.941Z" transform="translate(-119.75 -496.575)" fill="#00d2aa"/><g transform="translate(0 0)"><line y2="5.697" transform="translate(34.636)" fill="none" stroke="#74e9d3" stroke-linecap="round" stroke-width="6"/><line y2="5.705" transform="translate(34.636 13.023)" fill="none" stroke="#74e9d3" stroke-linecap="round" stroke-width="6"/><line x2="5.719" transform="translate(25.245 9.36)" fill="none" stroke="#74e9d3" stroke-linecap="round" stroke-width="6"/><line x2="5.719" transform="translate(38.309 9.36)" fill="none" stroke="#74e9d3" stroke-linecap="round" stroke-width="6"/><rect width="22.875" height="75.716" rx="11.438" transform="translate(0 28.102)" fill="#ccf9fe"/></g><g transform="matrix(1, 0, 0, 1, -95.73, -109.61)" filter="url(#d)"><path d="M207.9,588.556c-8.864-9.717-21.111-25.452-45.15-25.079-18.311.284-26.864-2.385-26.864-2.385s-6.007,0-9.439-2.567c0,0-.858,11.125,6.865,15.4,0,0-18.569,6.078-19.14,38.567-.242,13.784,12.915,32,33.719,44.458,16.222,9.714,137.394-39.759,109.731-39.328C237.066,617.945,217.806,599.419,207.9,588.556Z" transform="translate(-14.49 -399.93)" fill="#fff"/></g><path d="M240.963,554.766l16.492,6.336-13.74,11.078Z" transform="translate(-144.997 -508.504)" fill="#25dcf9"/><g transform="translate(35.031 69.597)"><g clip-path="url(#f)"><path d="M3.075,0A3.075,3.075,0,1,1,0,3.075,3.075,3.075,0,0,1,3.075,0" transform="translate(0 0)" fill="#225782"/><path d="M22.765,0A3.075,3.075,0,1,1,19.69,3.075,3.075,3.075,0,0,1,22.765,0" transform="translate(-1.398 0)" fill="#225782"/><path d="M10.557,23.405a1.829,1.829,0,0,1-.084-3.656c.174-.008,10.279-.632,16.161-8.781A1.829,1.829,0,1,1,29.6,13.109C22.642,22.751,11.129,23.382,10.643,23.4c-.029,0-.058,0-.085,0" transform="translate(-0.62 -0.725)" fill="#225782"/><path d="M15.515,11.907H9.3V3.489a1.829,1.829,0,0,1,3.657,0V8.248h2.56a1.829,1.829,0,1,1,0,3.658" transform="translate(-0.66 -0.118)" fill="#225782"/></g></g><path d="M139.07,558.8s-5.911-1.067-8.83-4.2c0,0-2.829,10.786,4.006,16.365,0,0-19.15,9.1-20.864,35.887" transform="translate(-108.966 -506.384)" fill="none" stroke="#225782" stroke-width="4.5"/></g></g><path d="M235.741,599.895c-1.091-21.894-16.718-32.252-31.009-38.466" transform="translate(15.215 -140.796)" fill="none" stroke="#ffc823" stroke-width="4.5"/><g transform="translate(291.759 394.755)" opacity="0.32"><line y2="3.923" transform="translate(6.45)" fill="none" stroke="#00dcff" stroke-linecap="round" stroke-width="3"/><line y2="3.928" transform="translate(6.45 8.968)" fill="none" stroke="#00dcff" stroke-linecap="round" stroke-width="3"/><line x2="3.923" transform="translate(0 6.446)" fill="none" stroke="#00dcff" stroke-linecap="round" stroke-width="3"/><line x2="3.923" transform="translate(8.973 6.446)" fill="none" stroke="#00dcff" stroke-linecap="round" stroke-width="3"/></g><rect width="22.984" height="23.507" rx="11.492" transform="translate(86.52 448.674)" fill="#abf6fe"/><g transform="translate(118.078 413.153)"><rect width="22.984" height="59.028" rx="11.492" transform="translate(0 0)" fill="#ccf9fe"/><rect width="22.984" height="32.909" rx="11.492" transform="translate(0 0)" fill="#abf6fe"/></g></g></svg>