<svg xmlns="http://www.w3.org/2000/svg" width="33.309" height="34.957" viewBox="0 0 33.309 34.957"><g transform="translate(-163 -76)"><path d="M21.809.8h-9.62A11.844,11.844,0,0,0,.344,12.647v9.62A11.845,11.845,0,0,0,12.188,34.112h9.62A11.845,11.845,0,0,0,33.653,22.268v-9.62A11.845,11.845,0,0,0,21.809.8Z" transform="translate(162.656 75.197)" fill="#28d1e6"/><path d="M25.514,23.916V35.76l8.143-8.144Z" transform="translate(137.486 75.197)" fill="#28d1e6"/><path d="M14.132,17.957H.171l4.3-4.462q1.7-1.771,2.668-2.99A15.989,15.989,0,0,0,8.566,8.412a5.306,5.306,0,0,0,.6-1.38,4.34,4.34,0,0,0,.115-.9,2.145,2.145,0,0,0-.138-.759,1.842,1.842,0,0,0-.989-1.1,1.738,1.738,0,0,0-.828-.184,1.835,1.835,0,0,0-1.449.6,2.235,2.235,0,0,0-.506,1.495,5.644,5.644,0,0,0,.069.736H.516A7.558,7.558,0,0,1,1,4.157,6.4,6.4,0,0,1,2.4,2.018,6.17,6.17,0,0,1,4.518.638,7.426,7.426,0,0,1,7.232.155,7.5,7.5,0,0,1,9.9.615,6.379,6.379,0,0,1,12.039,1.9a6,6,0,0,1,1.909,4.439,5.743,5.743,0,0,1-.621,2.645A9.132,9.132,0,0,1,11.4,11.448L8.52,14.139h5.612Z" transform="translate(172.502 83.422)" fill="#fff"/></g></svg>