<svg xmlns="http://www.w3.org/2000/svg" width="33.309" height="34.957" viewBox="0 0 33.309 34.957"><g transform="translate(-163 -76)"><path d="M21.809.8h-9.62A11.844,11.844,0,0,0,.344,12.647v9.62A11.845,11.845,0,0,0,12.188,34.112h9.62A11.845,11.845,0,0,0,33.653,22.268v-9.62A11.845,11.845,0,0,0,21.809.8Z" transform="translate(162.656 75.197)" fill="#28d1e6"/><path d="M25.514,23.916V35.76l8.143-8.144Z" transform="translate(137.486 75.197)" fill="#28d1e6"/><path d="M6.4,7.335a2.517,2.517,0,0,0,.3.023h.23a1.914,1.914,0,0,0,1.38-.506,1.733,1.733,0,0,0,.529-1.311,1.669,1.669,0,0,0-.506-1.265,1.711,1.711,0,0,0-1.265-.483,1.724,1.724,0,0,0-1.334.552,2.028,2.028,0,0,0-.506,1.426H1.068a7.655,7.655,0,0,1,.667-2.415A5.793,5.793,0,0,1,3.069,1.585,5.281,5.281,0,0,1,4.955.481,6.989,6.989,0,0,1,7.347.09,6.9,6.9,0,0,1,9.67.458,4.885,4.885,0,0,1,11.464,1.47a4.115,4.115,0,0,1,1.15,1.587,4.99,4.99,0,0,1,.414,2.07,3.928,3.928,0,0,1-.483,2.047,4.16,4.16,0,0,1-1.334,1.357,3.769,3.769,0,0,1,2.07,1.5,4.382,4.382,0,0,1,.759,2.622,5.367,5.367,0,0,1-.506,2.346,5.29,5.29,0,0,1-1.426,1.817,6.372,6.372,0,0,1-2.162,1.173,8.614,8.614,0,0,1-2.737.414A8.158,8.158,0,0,1,3.6,17.616a5.908,5.908,0,0,1-2.576-2.484,5.21,5.21,0,0,1-.6-1.518,8.6,8.6,0,0,1-.138-1.541H4.748a2.617,2.617,0,0,0,.713,1.863,2.528,2.528,0,0,0,1.794.621A2.182,2.182,0,0,0,9,13.913a2.354,2.354,0,0,0,.552-1.587,2.124,2.124,0,0,0-.667-1.7A2.351,2.351,0,0,0,7.3,10.049a2.008,2.008,0,0,0-.437.046q-.207.023-.46.069Z" transform="translate(172.492 82.707)" fill="#fff"/></g></svg>