<svg xmlns="http://www.w3.org/2000/svg" xmlns:xlink="http://www.w3.org/1999/xlink" width="801" height="653.345" viewBox="0 0 801 653.345">
  <defs>
    <linearGradient id="linear-gradient" x1="0.099" y1="0.436" x2="1.022" y2="0.919" gradientUnits="objectBoundingBox">
      <stop offset="0" stop-color="#c7f6fc"/>
      <stop offset="0.686" stop-color="#e6fcff" stop-opacity="0.439"/>
      <stop offset="1" stop-color="#fff" stop-opacity="0.678"/>
    </linearGradient>
  </defs>
  <g id="그룹_14639" data-name="그룹 14639" transform="translate(0.501 -237.456)">
    <path id="Rt" d="M190.174,130.152c-1.905-2.515,1.112-6.018,4.247-5.663l8.495,1.416L210,120.241c2.515-1.9,6.019-.3,5.663,2.832l-1.416,8.495,5.663,7.079c1.905,2.515-1.112,6.018-4.247,5.663h-8.495l-7.079,4.247c-2.515,1.9-6.018.3-5.663-2.832l1.416-8.495Z" transform="translate(317.623 427.097)" fill="rgba(104,238,255,0.7)" opacity="0.2"/>
    <path id="Rt-2" data-name="Rt" d="M234.164,240.24a5.605,5.605,0,0,1-4.328-9.162l1.028-1.242a5.605,5.605,0,1,1,8.609,7.18l-.974,1.177A5.594,5.594,0,0,1,234.164,240.24Zm16.28-17.6a5.605,5.605,0,0,1-3.884-9.647l1.167-1.112a5.605,5.605,0,0,1,7.7,8.145l-1.1,1.052A5.587,5.587,0,0,1,250.444,222.638Zm265.337-13.124a5.58,5.58,0,0,1-3.418-1.166l-1.213-.928a5.605,5.605,0,1,1,6.778-8.929l1.279.979a5.605,5.605,0,0,1-3.427,10.044ZM268.7,207.093a5.605,5.605,0,0,1-3.376-10.082l1.291-.964a5.605,5.605,0,1,1,6.674,9.007l-1.22.912A5.581,5.581,0,0,1,268.7,207.093Zm227.285-11.1a5.579,5.579,0,0,1-2.883-.8l-1.31-.781a5.6,5.6,0,1,1,5.7-9.651l1.384.825a5.606,5.606,0,0,1-2.893,10.41Zm-207.3-2.146a5.606,5.606,0,0,1-2.815-10.455l1.4-.8a5.6,5.6,0,1,1,5.545,9.743l-1.32.758A5.579,5.579,0,0,1,288.68,193.848Zm186.073-8.987a5.585,5.585,0,0,1-2.305-.5l-1.391-.622a5.6,5.6,0,1,1,4.539-10.25l1.47.657a5.606,5.606,0,0,1-2.312,10.714ZM310.1,183.095a5.606,5.606,0,0,1-2.213-10.757l1.481-.629a5.605,5.605,0,1,1,4.34,10.336l-1.4.594A5.587,5.587,0,0,1,310.1,183.095Zm142.27-6.811a5.6,5.6,0,0,1-1.7-.264l-1.453-.455a5.605,5.605,0,1,1,3.309-10.71l1.535.481a5.606,5.606,0,0,1-1.694,10.949Zm-119.722-1.313a5.606,5.606,0,0,1-1.581-10.983l1.546-.449a5.6,5.6,0,0,1,3.083,10.778l-1.462.425A5.606,5.606,0,0,1,332.649,174.971Zm96.492-4.59a5.632,5.632,0,0,1-1.066-.1l-1.5-.282a5.605,5.605,0,0,1,2.036-11.024l1.58.3a5.606,5.606,0,0,1-1.054,11.11ZM356,169.568a5.606,5.606,0,0,1-.932-11.132l1.587-.264a5.605,5.605,0,0,1,1.793,11.066l-1.5.249A5.645,5.645,0,0,1,356,169.568Zm49.375-2.34q-.207,0-.417-.015l-1.52-.106a5.605,5.605,0,1,1,.737-11.186l1.6.112a5.605,5.605,0,0,1-.405,11.2Zm-25.545-.285a5.605,5.605,0,0,1-.282-11.2l1.607-.076a5.6,5.6,0,1,1,.487,11.2l-1.522.072Q379.977,166.943,379.832,166.943Z" transform="translate(212.868 509.05)" opacity="0.5" fill="url(#linear-gradient)"/>
    <path id="Lf" d="M101.422,49.231c.538-5.413,6.8-9.3,10.345-5.173l7.759,12.931h15.518c5.413.539,6.709,6.8,2.586,10.345L127.284,77.68V93.2c-.538,5.413-9.382,6.709-12.931,2.586l-7.759-10.345L91.076,82.852c-5.413-.538-6.709-6.8-2.586-10.345L98.835,62.162Z" transform="translate(5.031 629.387)" fill="rgba(104,238,255,0.95)" opacity="0.15"/>
    <path id="패스_12322" data-name="패스 12322" d="M1919.89,1294.335c-10.125-.035-18.43-2.987-27.785-7.409-10.073-4.717-18-10.7-24.232-18.281-9.985-12.15-14.92-27.813-14.668-46.552-6.612,10.419-13.979,19.587-22.228,29.638A135.167,135.167,0,0,1,1807,1274.544V1056.472c6.347,11.313,9.622,24.782,9.736,40.031,9.853-16.537,17.674-28.077,25.356-37.419a144.869,144.869,0,0,1,18.741-19.133,99.02,99.02,0,0,1,18.013-12.113,70.018,70.018,0,0,1,32.228-8.184,64.773,64.773,0,0,1,27.341,6.087,66.625,66.625,0,0,1,25.068,20.977,73.053,73.053,0,0,1,10.669,21.371,95.828,95.828,0,0,1,4.019,30.377c10.669-17.651,18.975-29.8,26.93-39.383a142.458,142.458,0,0,1,18.295-18.551,96.548,96.548,0,0,1,17.522-11.732,66.373,66.373,0,0,1,60.506-1.206,67.089,67.089,0,0,1,27.163,23.1,71.718,71.718,0,0,1,10.383,24.482,92.973,92.973,0,0,1,2.129,16.351,122.635,122.635,0,0,1-.774,19.424c-1.985,17.107-6.833,37.709-14.819,62.981a50.612,50.612,0,0,1,12.593,2,41.819,41.819,0,0,1,11.488,5.41,50.522,50.522,0,0,1,21.181,30.57,47.2,47.2,0,0,1,.615,18.437,45.174,45.174,0,0,1-6.976,17.678,105.6,105.6,0,0,1-15.013,17.868,108.271,108.271,0,0,1-18.933,14.5c-14.429,8.689-29.979,13.281-44.967,13.282a71.146,71.146,0,0,1-30.377-6.749,74.931,74.931,0,0,1-11.468-6.586,63.888,63.888,0,0,1-13.1-12.205c-10.073-12.527-14.9-28.641-14.334-47.894-.635,1.01-1.288,2.051-1.864,2.969-7.115,11.34-13.835,22.051-22.215,32.225a137.338,137.338,0,0,1-19.584,19.188,99.807,99.807,0,0,1-18.978,11.915A78.152,78.152,0,0,1,1919.89,1294.335Z" transform="translate(-1807 -691)" fill="#e1f6fb" stroke="rgba(0,0,0,0)" stroke-width="1"/>
    <path id="Lf-2" data-name="Lf" d="M101.43,12.275l37.261-35.881a17.472,17.472,0,0,1,24.841,0,17.454,17.454,0,0,1,0,24.841L126.27,37.115A17.565,17.565,0,0,1,101.43,12.275Z" transform="translate(267 266.246)" fill="#e4f7fb" opacity="0.8"/>
    <path id="Lf-3" data-name="Lf" d="M57.746,222.825l66.817-64.961c12.274-12.118,30.414-12.118,42.689,0a31.546,31.546,0,0,1,0,44.545L102.29,267.369a31.5,31.5,0,0,1-44.545-44.545Z" transform="translate(105.143 606.344)" fill="none" stroke="rgba(3,219,245,0.1)" stroke-width="16" opacity="0.54"/>
    <path id="패스_12323" data-name="패스 12323" d="M1488.338,1528.8a21.571,21.571,0,0,1-11.8-3.592c-13.43-8.773-27.619-13.222-42.172-13.222a80.084,80.084,0,0,0-25.183,4.241,20.525,20.525,0,0,1-6.471,1.046,22.766,22.766,0,0,1-14.468-5.415,24.269,24.269,0,0,1-8.248-13.593c-5.079-24.255-17.543-40.181-40.413-51.638a23.106,23.106,0,0,1-11.716-14.8,23.356,23.356,0,0,1,2.735-18.881c13.8-21.081,16.826-43.743,8.981-67.355a23.445,23.445,0,0,1,1.758-19.075,20.81,20.81,0,0,1,13.958-10.112c25.251-5.276,42.876-18.495,53.884-40.413a22.261,22.261,0,0,1,8.91-9.28,24.933,24.933,0,0,1,12.384-3.293,22.557,22.557,0,0,1,12.385,3.592c13.619,8.9,26.9,13.222,40.59,13.222a69.971,69.971,0,0,0,10.6-.829V1528A20.932,20.932,0,0,1,1488.338,1528.8Z" transform="translate(-694.052 -646)" fill="#e0f6fb" stroke="rgba(0,0,0,0)" stroke-width="1" opacity="0.8"/>
    <path id="Rt-3" data-name="Rt" d="M190.174,130.152c-1.905-2.515,1.112-6.018,4.247-5.663l8.495,1.416L210,120.241c2.515-1.9,6.019-.3,5.663,2.832l-1.416,8.495,5.663,7.079c1.905,2.515-1.112,6.018-4.247,5.663h-8.495l-7.079,4.247c-2.515,1.9-6.018.3-5.663-2.832l1.416-8.495Z" transform="translate(383.396 483.025)" fill="rgba(104,238,255,0.7)" opacity="0.2"/>
    <path id="패스_12319" data-name="패스 12319" d="M11.786,0h77.45a11.786,11.786,0,0,1,0,23.572H11.786A11.786,11.786,0,0,1,11.786,0Z" transform="translate(610.761 404.025) rotate(21)" fill="#e4f7fb"/>
    <path id="패스_12320" data-name="패스 12320" d="M15.153,0A15.153,15.153,0,1,1,0,15.153,15.153,15.153,0,0,1,15.153,0Z" transform="translate(685.942 391.404) rotate(111)" fill="#e4f7fb"/>
    <path id="패스_12321" data-name="패스 12321" d="M15.153,0A15.153,15.153,0,1,1,0,15.153,15.153,15.153,0,0,1,15.153,0Z" transform="translate(660.6 457.423) rotate(111)" fill="#e4f7fb"/>
    <path id="Rt-4" data-name="Rt" d="M234.164,240.24a5.605,5.605,0,0,1-4.328-9.162l1.028-1.242a5.605,5.605,0,1,1,8.609,7.18l-.974,1.177A5.594,5.594,0,0,1,234.164,240.24Zm16.28-17.6a5.605,5.605,0,0,1-3.884-9.647l1.167-1.112a5.605,5.605,0,0,1,7.7,8.145l-1.1,1.052A5.587,5.587,0,0,1,250.444,222.638Zm265.337-13.124a5.58,5.58,0,0,1-3.418-1.166l-1.213-.928a5.605,5.605,0,1,1,6.778-8.929l1.279.979a5.605,5.605,0,0,1-3.427,10.044ZM268.7,207.093a5.605,5.605,0,0,1-3.376-10.082l1.291-.964a5.605,5.605,0,1,1,6.674,9.007l-1.22.912A5.581,5.581,0,0,1,268.7,207.093Zm227.285-11.1a5.579,5.579,0,0,1-2.883-.8l-1.31-.781a5.6,5.6,0,1,1,5.7-9.651l1.384.825a5.606,5.606,0,0,1-2.893,10.41Zm-207.3-2.146a5.606,5.606,0,0,1-2.815-10.455l1.4-.8a5.6,5.6,0,1,1,5.545,9.743l-1.32.758A5.579,5.579,0,0,1,288.68,193.848Zm186.073-8.987a5.585,5.585,0,0,1-2.305-.5l-1.391-.622a5.6,5.6,0,1,1,4.539-10.25l1.47.657a5.606,5.606,0,0,1-2.312,10.714ZM310.1,183.095a5.606,5.606,0,0,1-2.213-10.757l1.481-.629a5.605,5.605,0,1,1,4.34,10.336l-1.4.594A5.587,5.587,0,0,1,310.1,183.095Zm142.27-6.811a5.6,5.6,0,0,1-1.7-.264l-1.453-.455a5.605,5.605,0,1,1,3.309-10.71l1.535.481a5.606,5.606,0,0,1-1.694,10.949Zm-119.722-1.313a5.606,5.606,0,0,1-1.581-10.983l1.546-.449a5.6,5.6,0,0,1,3.083,10.778l-1.462.425A5.606,5.606,0,0,1,332.649,174.971Zm96.492-4.59a5.632,5.632,0,0,1-1.066-.1l-1.5-.282a5.605,5.605,0,0,1,2.036-11.024l1.58.3a5.606,5.606,0,0,1-1.054,11.11ZM356,169.568a5.606,5.606,0,0,1-.932-11.132l1.587-.264a5.605,5.605,0,0,1,1.793,11.066l-1.5.249A5.645,5.645,0,0,1,356,169.568Zm49.375-2.34q-.207,0-.417-.015l-1.52-.106a5.605,5.605,0,1,1,.737-11.186l1.6.112a5.605,5.605,0,0,1-.405,11.2Zm-25.545-.285a5.605,5.605,0,0,1-.282-11.2l1.607-.076a5.6,5.6,0,1,1,.487,11.2l-1.522.072Q379.977,166.943,379.832,166.943Z" transform="translate(278.641 564.978)" opacity="0.5" fill="url(#linear-gradient)"/>
  </g>
</svg>
