<?xml version="1.0" encoding="utf-8"?>
<!-- Generator: Adobe Illustrator 26.3.1, SVG Export Plug-In . SVG Version: 6.00 Build 0)  -->
<svg version="1.1" id="레이어_1" xmlns="http://www.w3.org/2000/svg" xmlns:xlink="http://www.w3.org/1999/xlink" x="0px"
	 y="0px" viewBox="0 0 32 32" style="enable-background:new 0 0 32 32;" xml:space="preserve">
<style type="text/css">
	.st0{fill:#C3DAFD;}
</style>
<path class="st0" d="M23.2,7H11.1c-2,0-3.9,1-5,2.6l-2.3,3.6c-1.1,1.7-1.1,3.9,0,5.6l2.3,3.6c1.1,1.7,3,2.6,5,2.6h12.1
	c3.1,0.1,5.7-2.3,5.8-5.4v-7.2C28.9,9.3,26.3,6.9,23.2,7z M21.2,20.2c-0.4,0.4-1,0.4-1.4,0l-2.8-2.8l-2.8,2.8c-0.4,0.4-1,0.4-1.4,0
	c-0.4-0.4-0.4-1,0-1.4l2.8-2.8l-2.8-2.8c-0.4-0.4-0.4-1,0-1.4c0.4-0.4,1-0.4,1.4,0l2.8,2.8l2.8-2.8c0.4-0.4,1-0.4,1.4,0s0.4,1,0,1.4
	l-2.8,2.8l2.8,2.8C21.6,19.2,21.6,19.8,21.2,20.2z"/>
</svg>
