<?xml-stylesheet type="text/css" href="../../css/svg.css"?>
<svg class="market_icon" xmlns="http://www.w3.org/2000/svg" xmlns:xlink="http://www.w3.org/1999/xlink" x="0px" y="0px" viewBox="0 0 48 48" style="enable-background:new 0 0 48 48;" xml:space="preserve"> 
  <path class="st0" d="M8,17h32v17c0.1,3.2-2.4,5.9-5.6,6H13.6c-3.2-0.1-5.7-2.8-5.6-6V17z"/>
  <path class="st1" d="M8.2,15h31.5c1.3,0.1,2.3,1.2,2.2,2.5c0.1,1.3-0.9,2.4-2.2,2.5H8.2c-1.3-0.1-2.3-1.2-2.2-2.5 C5.9,16.2,6.9,15.1,8.2,15z"/>
  <path class="st2" d="M10.8,8.8c1-1,2.6-1,3.5,0c0,0,0,0,0,0l5.7,5.7c1,1,1,2.6,0,3.5c0,0,0,0,0,0c-1,1-2.6,1-3.5,0c0,0,0,0,0,0 l-5.7-5.7C9.8,11.3,9.8,9.7,10.8,8.8z"/>
  <path class="st2" d="M37,8.8c-1-1-2.6-1-3.5,0c0,0,0,0,0,0l-5.7,5.7c-1,1-1,2.6,0,3.5c0,0,0,0,0,0c1,1,2.6,1,3.5,0c0,0,0,0,0,0 l5.7-5.7C37.9,11.3,37.9,9.7,37,8.8z"/>
  <path class="st3" d="M19.5,24c0.8,0,1.5,0.7,1.5,1.5v8c0,0.8-0.7,1.5-1.5,1.5S18,34.3,18,33.5v-8C18,24.7,18.7,24,19.5,24z"/>
  <path class="st3" d="M28.5,24c0.8,0,1.5,0.7,1.5,1.5v8c0,0.8-0.7,1.5-1.5,1.5S27,34.3,27,33.5v-8C27,24.7,27.7,24,28.5,24z"/>
</svg>