<?xml-stylesheet type="text/css" href="../../css/svg.css"?>
<svg class="ocr_icon" xmlns="http://www.w3.org/2000/svg" xmlns:xlink="http://www.w3.org/1999/xlink" x="0px" y="0px" viewBox="0 0 48 48" style="enable-background:new 0 0 48 48;" xml:space="preserve">           
  <path class="st0" d="M42,18v18c0.1,3.2-2.5,5.9-5.7,6H11.7c-3.2-0.1-5.8-2.8-5.7-6V18c-0.1-3.2,2.5-5.9,5.7-6H13l1-3.3 C14.5,7.1,16,6,17.7,6h12.1c1.5,0,2.8,0.9,3.4,2.2L35,12h1.3C39.5,12.1,42.1,14.8,42,18z"/>
  <circle class="st1" cx="24" cy="27" r="10"/>
  <circle class="st2" cx="24" cy="27" r="7"/>
  <path class="st3" d="M40.5,11h-3V8c0-0.8-0.7-1.5-1.5-1.5S34.5,7.2,34.5,8v3h-3c-0.8,0-1.5,0.7-1.5,1.5s0.7,1.5,1.5,1.5h3v3 c0,0.8,0.7,1.5,1.5,1.5s1.5-0.7,1.5-1.5v-3h3c0.8,0,1.5-0.7,1.5-1.5S41.3,11,40.5,11z"/>
</svg>