<svg xmlns="http://www.w3.org/2000/svg" width="24" height="24" viewBox="0 0 24 24">
    <g data-name="그룹 9160">
        <path data-name="빼기 3" d="M15123 21867h-14a2 2 0 0 1-2-2v-10a2 2 0 0 1 2-2h14a2 2 0 0 1 2 2v10a2.007 2.007 0 0 1-2 2zm-3-6a1 1 0 1 0 0 2h2a1 1 0 0 0 0-2zm-5 0a1 1 0 1 0 0 2h2a1 1 0 0 0 0-2zm-5 0a1 1 0 0 0 0 2h2a1 1 0 0 0 0-2zm10-4a1 1 0 1 0 0 2h2a1 1 0 1 0 0-2zm-5 0a1 1 0 1 0 0 2h2a1 1 0 1 0 0-2zm-5 0a1 1 0 0 0 0 2h2a1 1 0 0 0 0-2z" transform="translate(-15104 -21848)" style="fill:#fff"/>
    </g>
</svg>
