<?xml-stylesheet type="text/css" href="../../css/svg.css"?> 
<svg class="pad_eraser" xmlns="http://www.w3.org/2000/svg" xmlns:xlink="http://www.w3.org/1999/xlink" x="0px"
	 y="0px" viewBox="0 0 24 24" style="enable-background:new 0 0 24 24;" xml:space="preserve">
<path class="eraser" d="M18.5,17.8h-4.3l4.6-4.6c1.2-1.2,1.2-3.1,0-4.2l-4.2-4.2v0c-1.2-1.2-3.1-1.2-4.2,0l-5.7,5.7
	c-1.2,1.2-1.2,3.1,0,4.2l4.2,4.2c0.3,0.3,0.5,0.4,0.9,0.6c0.2,0.2,0.4,0.3,0.7,0.3h8c0.6,0,1-0.4,1-1S19.1,17.8,18.5,17.8z
	 M12.5,5.8c0.3,0,0.5,0.1,0.7,0.3l4.2,4.2c0.4,0.4,0.4,1,0,1.4L16,13.2l-5.7-5.7l1.4-1.4C12,5.9,12.2,5.8,12.5,5.8z M6.1,13.2
	c-0.4-0.4-0.4-1,0-1.4L9,8.9l5.7,5.7l-2.9,2.9c-0.4,0.4-1,0.4-1.4,0L6.1,13.2z"/>
</svg>
