<?xml-stylesheet type="text/css" href="../../css/svg.css"?>
<svg xmlns="http://www.w3.org/2000/svg" xmlns:xlink="http://www.w3.org/1999/xlink" x="0px" y="0px" viewBox="0 0 48 48" style="enable-background:new 0 0 48 48;" xml:space="preserve">
                      <circle class="wm_circle_blue" cx="24" cy="24" r="18"/>
                      <circle class="wm_circle_white" cx="24" cy="24" r="12"/>
                      <circle class="wm_circle_blue" cx="24" cy="24" r="5"/>
                      <g class="weekly_arrow">
                        <path class="arrow_stick" d="M32.5,15.5L24,24"/>
                        <path class="arrow_feather" d="M34.6,6.7l-5.8,5.8c-0.3,0.3-0.4,0.7-0.3,1.1l1.5,3.9c0.1,0.2,0.3,0.4,0.5,0.5l3.9,1.5c0.4,0.1,0.8,0,1.1-0.3 l5.8-5.8c0.4-0.4,0.4-1,0.1-1.4c-0.1-0.1-0.2-0.2-0.4-0.2l-3.3-0.9c-0.3-0.1-0.5-0.3-0.6-0.6L36.3,7c-0.1-0.5-0.6-0.8-1.1-0.6  c0,0-0.1,0-0.1,0C34.9,6.5,34.7,6.5,34.6,6.7z"/>
                      </g>
                    </svg>
