<?xml version="1.0" encoding="utf-8"?>
<!-- Generator: Adobe Illustrator 26.4.1, SVG Export Plug-In . SVG Version: 6.00 Build 0)  -->
<svg version="1.1" id="레이어_1" xmlns="http://www.w3.org/2000/svg" xmlns:xlink="http://www.w3.org/1999/xlink" x="0px"
	 y="0px" viewBox="0 0 40 25" style="enable-background:new 0 0 40 25;" xml:space="preserve">
<style type="text/css">
	.st0{fill:#458EF1;}
</style>
<g>
	<path class="st0" d="M15.2,12.7c0-1.5-0.2-3-0.6-4.4c-0.3-1-0.8-1.9-1.6-2.6c-0.7-0.6-1.5-0.9-2.4-0.9C9.8,4.8,9,5.1,8.3,5.7
		C7.6,6.4,7,7.3,6.7,8.3c-0.4,1.4-0.6,2.9-0.6,4.4c-0.1,2,0.3,4.1,1.2,5.9c0.6,1.2,1.9,2,3.3,2c1.4,0,2.7-0.7,3.4-2
		C14.9,16.7,15.3,14.7,15.2,12.7z M10.7,24.5c-1.7,0-3.5-0.4-5-1.3c-1.5-0.9-2.7-2.3-3.4-4c-0.9-2.1-1.3-4.3-1.2-6.6
		C1.1,10.4,1.5,8.1,2.4,6c0.7-1.6,1.9-3,3.4-3.9C7.3,1.2,9,0.8,10.7,0.8c1.7,0,3.4,0.4,4.8,1.3C17,3.1,18.2,4.4,18.9,6
		c0.9,2.1,1.3,4.4,1.3,6.6c0.1,2.3-0.3,4.5-1.2,6.6c-0.7,1.6-1.9,3-3.4,4C14.1,24.1,12.4,24.6,10.7,24.5z M29.8,0.8
		c2.2-0.1,4.4,0.5,6.2,1.7c1.5,1.1,2.3,2.9,2.2,4.7c0,0.8-0.2,1.6-0.5,2.3c-0.3,0.6-0.8,1.2-1.3,1.7c-0.5,0.4-1,0.7-1.6,1
		c0.7,0.2,1.4,0.6,1.9,1.1c0.6,0.5,1.1,1.1,1.5,1.8c0.4,0.8,0.6,1.8,0.6,2.7c0,1.3-0.4,2.6-1.1,3.7c-0.8,1.1-1.9,1.9-3.2,2.3
		c-1.5,0.6-3,0.8-4.6,0.8c-1.4,0-2.7-0.1-4-0.5c-0.9-0.2-1.8-0.6-2.6-1.2c-0.5-0.4-0.9-1.1-0.9-1.7c0-0.5,0.1-1,0.4-1.4
		c0.3-0.4,0.6-0.7,1-0.9c0.7,0.5,1.4,0.9,2.2,1.2c1.1,0.4,2.3,0.6,3.4,0.6c1.2,0.1,2.3-0.2,3.3-0.8c0.8-0.5,1.2-1.4,1.2-2.3
		c0-0.9-0.3-1.7-1-2.2c-0.9-0.6-2.1-0.9-3.2-0.8h-3.3c-0.2-0.2-0.3-0.5-0.4-0.8c-0.1-0.4-0.1-0.7-0.1-1.1c0-0.4,0-0.8,0.1-1.2
		c0.1-0.3,0.2-0.6,0.4-0.8h3.2c1,0.1,2-0.2,2.8-0.7c0.6-0.5,0.9-1.2,0.9-2c0-0.8-0.4-1.6-1.1-2.1c-0.9-0.5-2-0.8-3-0.7
		c-1,0-1.9,0.1-2.9,0.4c-0.7,0.2-1.4,0.6-2.1,1c-0.3-0.2-0.6-0.6-0.9-0.9C23,5,22.9,4.5,22.9,4.1c0-0.7,0.3-1.3,0.9-1.7
		c0.7-0.5,1.5-0.9,2.4-1.1C27.4,0.9,28.6,0.8,29.8,0.8z"/>
</g>
</svg>
