<?xml version="1.0" encoding="utf-8"?>
<!-- Generator: Adobe Illustrator 26.4.1, SVG Export Plug-In . SVG Version: 6.00 Build 0)  -->
<svg version="1.1" id="레이어_1" xmlns="http://www.w3.org/2000/svg" xmlns:xlink="http://www.w3.org/1999/xlink" x="0px"
	 y="0px" viewBox="0 0 40 25" style="enable-background:new 0 0 40 25;" xml:space="preserve">
<style type="text/css">
	.st0{fill:#458EF1;}
</style>
<g>
	<path class="st0" d="M17.8,12.7c0-1.5-0.2-3-0.6-4.4c-0.3-1-0.8-1.9-1.6-2.6c-0.7-0.6-1.5-0.9-2.4-0.9c-0.9,0-1.7,0.3-2.3,0.9
		c-0.8,0.7-1.3,1.6-1.6,2.6c-0.4,1.4-0.6,2.9-0.6,4.4c-0.1,2,0.3,4.1,1.2,5.9c0.6,1.2,1.9,2,3.3,2c1.4,0,2.7-0.7,3.4-2
		C17.5,16.7,17.9,14.7,17.8,12.7z M13.3,24.5c-1.7,0-3.5-0.4-5-1.3c-1.5-0.9-2.7-2.3-3.4-4c-0.9-2.1-1.3-4.3-1.2-6.6
		C3.7,10.4,4.1,8.1,5,6C5.8,4.4,7,3,8.5,2.1c1.5-0.9,3.1-1.3,4.8-1.3c1.7,0,3.4,0.4,4.8,1.3c1.5,0.9,2.7,2.3,3.4,3.9
		c0.9,2.1,1.3,4.4,1.3,6.6c0.1,2.3-0.3,4.5-1.2,6.6c-0.7,1.6-1.9,3-3.4,4C16.7,24.1,15,24.6,13.3,24.5z M34.9,17.7h-4.9V6.1
		l-4.2,1.6c-0.4-0.2-0.7-0.5-1-0.8c-0.3-0.4-0.5-1-0.5-1.5c0-1.2,0.7-2,2.2-2.5l4.6-1.8h1.1c0.7,0,1.4,0.2,2,0.7
		c0.5,0.5,0.8,1.2,0.7,2L34.9,17.7z M29.9,14.2h4.9V24c-0.3,0.1-0.6,0.2-0.9,0.2c-0.4,0.1-0.9,0.1-1.3,0.1c-0.7,0.1-1.4-0.1-2.1-0.5
		c-0.5-0.5-0.7-1.1-0.7-1.8L29.9,14.2z"/>
</g>
</svg>
