<?xml version="1.0" encoding="utf-8"?>
<!-- Generator: Adobe Illustrator 26.4.0, SVG Export Plug-In . SVG Version: 6.00 Build 0)  -->
<svg version="1.1" id="레이어_1" xmlns="http://www.w3.org/2000/svg" xmlns:xlink="http://www.w3.org/1999/xlink" x="0px"
	 y="0px" viewBox="0 0 145 40" style="enable-background:new 0 0 145 40;" xml:space="preserve">
<style type="text/css">
	.st0{fill:none;}
	.st1{fill:#FDC93A;}
	.st2{enable-background:new    ;}
	.st3{fill:#303030;}
</style>
<rect class="st0" width="145" height="40"/>
<g>
	<g>
		<path class="st1" d="M4.3,9.8C-7.4,2.3,12.5,13.5,45,7.7s75.6-6.7,88.9,0s20.1,28.4-32.7,29.2S16,17.3,4.3,9.8z"/>
	</g>
</g>
<g class="st2">
	<path class="st3" d="M47.4,23.5c-0.8,0-1.4-0.2-1.9-0.7c-0.4-0.4-0.7-1.2-0.7-2.1c0-0.7,0.1-1.2,0.3-1.6s0.5-0.7,0.9-0.9
		s0.9-0.3,1.4-0.3c0.4,0,0.7,0,1,0.1c0.3,0.1,0.5,0.2,0.7,0.3l-0.4,1.2c-0.2-0.1-0.5-0.2-0.7-0.2c-0.2-0.1-0.4-0.1-0.6-0.1
		c-0.8,0-1.2,0.6-1.2,1.7c0,0.5,0.1,1,0.3,1.2c0.2,0.3,0.5,0.4,0.9,0.4c0.3,0,0.6,0,0.8-0.1c0.2-0.1,0.5-0.2,0.7-0.3v1.3
		c-0.2,0.1-0.5,0.3-0.7,0.3S47.7,23.5,47.4,23.5z"/>
	<path class="st3" d="M51.8,15.8v1.5c0,0.3,0,0.5,0,0.8c0,0.2,0,0.4,0,0.5h0.1c0.2-0.3,0.4-0.5,0.7-0.6c0.3-0.1,0.6-0.2,0.9-0.2
		c0.6,0,1.1,0.2,1.4,0.5c0.4,0.3,0.5,0.8,0.5,1.5v3.6h-1.5v-3.2c0-0.8-0.3-1.2-0.9-1.2c-0.4,0-0.8,0.2-0.9,0.5
		c-0.2,0.3-0.3,0.8-0.3,1.3v2.6h-1.5v-7.6H51.8z"/>
	<path class="st3" d="M59.1,17.9c0.8,0,1.4,0.2,1.8,0.6s0.7,1,0.7,1.8v0.7H58c0,0.4,0.1,0.8,0.4,1s0.6,0.4,1,0.4c0.3,0,0.7,0,1-0.1
		c0.3-0.1,0.6-0.2,0.9-0.3v1.2c-0.3,0.1-0.6,0.2-0.9,0.3s-0.6,0.1-1.1,0.1c-0.5,0-1-0.1-1.5-0.3c-0.4-0.2-0.8-0.5-1-0.9
		c-0.2-0.4-0.4-0.9-0.4-1.6c0-0.6,0.1-1.2,0.3-1.6s0.5-0.7,0.9-1C58.1,18,58.6,17.9,59.1,17.9z M59.1,18.9c-0.3,0-0.5,0.1-0.7,0.3
		s-0.3,0.5-0.3,0.9h2.1c0-0.3-0.1-0.6-0.3-0.8S59.5,18.9,59.1,18.9z"/>
	<path class="st3" d="M65,23.5c-0.8,0-1.4-0.2-1.9-0.7c-0.4-0.4-0.7-1.2-0.7-2.1c0-0.7,0.1-1.2,0.3-1.6s0.5-0.7,0.9-0.9
		s0.9-0.3,1.4-0.3c0.4,0,0.7,0,1,0.1c0.3,0.1,0.5,0.2,0.7,0.3l-0.4,1.2c-0.2-0.1-0.5-0.2-0.7-0.2c-0.2-0.1-0.4-0.1-0.6-0.1
		c-0.8,0-1.2,0.6-1.2,1.7c0,0.5,0.1,1,0.3,1.2c0.2,0.3,0.5,0.4,0.9,0.4c0.3,0,0.6,0,0.8-0.1c0.2-0.1,0.5-0.2,0.7-0.3v1.3
		c-0.2,0.1-0.5,0.3-0.7,0.3S65.4,23.5,65,23.5z"/>
	<path class="st3" d="M69.4,15.8v3.4c0,0.2,0,0.4,0,0.6s0,0.4-0.1,0.6h0c0.1-0.1,0.2-0.3,0.3-0.4c0.1-0.1,0.2-0.3,0.3-0.4l1.5-1.7
		h1.7L71,20.4l2.3,3.1h-1.7L70,21.2l-0.6,0.5v1.7h-1.5v-7.6H69.4z"/>
	<path class="st3" d="M79,22.4c0.2,0,0.3,0,0.5,0c0.2,0,0.3-0.1,0.5-0.1v1.1c-0.2,0.1-0.4,0.1-0.6,0.2c-0.2,0-0.5,0.1-0.8,0.1
		c-0.3,0-0.6-0.1-0.9-0.2c-0.3-0.1-0.5-0.3-0.6-0.6c-0.2-0.3-0.2-0.6-0.2-1.1v-2.6h-0.7v-0.6L77,18l0.4-1.2h1V18h1.5v1.1h-1.5v2.6
		c0,0.2,0.1,0.4,0.2,0.5C78.7,22.3,78.8,22.4,79,22.4z"/>
	<path class="st3" d="M82.5,15.8v1.5c0,0.3,0,0.5,0,0.8c0,0.2,0,0.4,0,0.5h0.1c0.2-0.3,0.4-0.5,0.7-0.6c0.3-0.1,0.6-0.2,0.9-0.2
		c0.6,0,1.1,0.2,1.4,0.5c0.4,0.3,0.5,0.8,0.5,1.5v3.6h-1.5v-3.2c0-0.8-0.3-1.2-0.9-1.2c-0.4,0-0.8,0.2-0.9,0.5
		c-0.2,0.3-0.3,0.8-0.3,1.3v2.6H81v-7.6H82.5z"/>
	<path class="st3" d="M89.9,17.9c0.8,0,1.4,0.2,1.8,0.6c0.4,0.4,0.7,1,0.7,1.8v0.7h-3.5c0,0.4,0.1,0.8,0.4,1c0.2,0.2,0.6,0.4,1,0.4
		c0.3,0,0.7,0,1-0.1c0.3-0.1,0.6-0.2,0.9-0.3v1.2c-0.3,0.1-0.6,0.2-0.9,0.3c-0.3,0.1-0.6,0.1-1.1,0.1c-0.5,0-1-0.1-1.5-0.3
		s-0.8-0.5-1-0.9s-0.4-0.9-0.4-1.6c0-0.6,0.1-1.2,0.3-1.6s0.5-0.7,0.9-1C88.9,18,89.4,17.9,89.9,17.9z M89.9,18.9
		c-0.3,0-0.5,0.1-0.7,0.3s-0.3,0.5-0.3,0.9h2.1c0-0.3-0.1-0.6-0.3-0.8S90.2,18.9,89.9,18.9z"/>
	<path class="st3" d="M98.4,17.9c0.7,0,1.3,0.2,1.7,0.5c0.4,0.3,0.6,0.8,0.6,1.5v3.6h-1l-0.3-0.7h0c-0.2,0.3-0.5,0.5-0.7,0.6
		c-0.3,0.1-0.6,0.2-1.1,0.2c-0.5,0-0.9-0.1-1.2-0.4c-0.3-0.3-0.5-0.7-0.5-1.3c0-0.6,0.2-1,0.6-1.3c0.4-0.3,1-0.4,1.8-0.5l1,0v-0.2
		c0-0.3-0.1-0.5-0.2-0.6C98.8,19,98.6,19,98.3,19s-0.5,0-0.8,0.1c-0.3,0.1-0.5,0.2-0.8,0.3l-0.5-1c0.3-0.1,0.6-0.3,1-0.4
		C97.6,17.9,98,17.9,98.4,17.9z M99.2,20.9l-0.6,0c-0.5,0-0.8,0.1-1,0.3s-0.3,0.4-0.3,0.6c0,0.2,0.1,0.4,0.2,0.5
		c0.1,0.1,0.3,0.1,0.5,0.1c0.3,0,0.6-0.1,0.8-0.3c0.2-0.2,0.3-0.5,0.3-0.8V20.9z"/>
	<path class="st3" d="M105.3,17.9c0.6,0,1.1,0.2,1.4,0.5s0.5,0.8,0.5,1.5v3.6h-1.5v-3.2c0-0.4-0.1-0.7-0.2-0.9
		c-0.1-0.2-0.4-0.3-0.7-0.3c-0.5,0-0.8,0.2-0.9,0.5c-0.2,0.3-0.2,0.8-0.2,1.3v2.6h-1.5V18h1.1l0.2,0.7h0.1c0.2-0.3,0.4-0.5,0.7-0.6
		C104.6,18,104.9,17.9,105.3,17.9z"/>
	<path class="st3" d="M112.5,21.8c0,0.6-0.2,1-0.6,1.3c-0.4,0.3-1,0.4-1.7,0.4c-0.4,0-0.7,0-1-0.1c-0.3-0.1-0.5-0.1-0.8-0.2V22
		c0.3,0.1,0.6,0.2,1,0.3s0.6,0.1,0.9,0.1c0.3,0,0.5,0,0.6-0.1c0.1-0.1,0.2-0.2,0.2-0.3c0-0.1,0-0.2-0.1-0.2c0-0.1-0.2-0.2-0.3-0.2
		c-0.2-0.1-0.4-0.2-0.8-0.4c-0.3-0.1-0.6-0.3-0.8-0.4c-0.2-0.1-0.4-0.3-0.5-0.5c-0.1-0.2-0.2-0.5-0.2-0.8c0-0.5,0.2-0.9,0.6-1.1
		c0.4-0.3,0.9-0.4,1.6-0.4c0.3,0,0.7,0,1,0.1s0.6,0.2,1,0.3l-0.5,1.1c-0.3-0.1-0.5-0.2-0.8-0.3c-0.2-0.1-0.5-0.1-0.7-0.1
		c-0.4,0-0.7,0.1-0.7,0.4c0,0.1,0,0.2,0.1,0.2c0.1,0.1,0.2,0.1,0.3,0.2c0.2,0.1,0.4,0.2,0.7,0.3c0.3,0.1,0.6,0.3,0.8,0.4
		s0.4,0.3,0.5,0.5C112.5,21.2,112.5,21.5,112.5,21.8z"/>
	<path class="st3" d="M118.2,23.4l-0.4-1.9c0-0.1-0.1-0.3-0.1-0.5s-0.1-0.5-0.2-0.7c-0.1-0.3-0.1-0.5-0.2-0.7
		c-0.1-0.2-0.1-0.4-0.1-0.5h0c0,0.1-0.1,0.3-0.1,0.5s-0.1,0.5-0.2,0.7c-0.1,0.3-0.1,0.5-0.2,0.7c-0.1,0.2-0.1,0.4-0.1,0.5l-0.4,1.9
		h-1.6L113,18h1.5l0.6,2.4c0,0.2,0.1,0.4,0.1,0.6c0,0.2,0.1,0.5,0.1,0.7c0,0.2,0.1,0.4,0.1,0.5h0c0-0.1,0-0.2,0-0.4
		c0-0.2,0-0.3,0.1-0.5c0-0.2,0.1-0.3,0.1-0.4c0-0.1,0-0.2,0.1-0.3l0.7-2.6h1.6l0.6,2.6c0,0.1,0,0.2,0.1,0.5c0,0.2,0.1,0.4,0.1,0.6
		c0,0.2,0,0.4,0,0.5h0c0-0.1,0-0.3,0.1-0.5c0-0.2,0.1-0.4,0.1-0.7c0-0.2,0.1-0.4,0.1-0.6l0.6-2.4h1.5l-1.6,5.5H118.2z"/>
	<path class="st3" d="M124.5,17.9c0.8,0,1.4,0.2,1.8,0.6c0.4,0.4,0.7,1,0.7,1.8v0.7h-3.5c0,0.4,0.1,0.8,0.4,1c0.2,0.2,0.6,0.4,1,0.4
		c0.3,0,0.7,0,1-0.1c0.3-0.1,0.6-0.2,0.9-0.3v1.2c-0.3,0.1-0.6,0.2-0.9,0.3c-0.3,0.1-0.6,0.1-1.1,0.1c-0.5,0-1-0.1-1.5-0.3
		s-0.8-0.5-1-0.9s-0.4-0.9-0.4-1.6c0-0.6,0.1-1.2,0.3-1.6s0.5-0.7,0.9-1C123.6,18,124,17.9,124.5,17.9z M124.5,18.9
		c-0.3,0-0.5,0.1-0.7,0.3s-0.3,0.5-0.3,0.9h2.1c0-0.3-0.1-0.6-0.3-0.8S124.9,18.9,124.5,18.9z"/>
	<path class="st3" d="M131.2,17.9c0.1,0,0.2,0,0.3,0c0.1,0,0.2,0,0.2,0l-0.1,1.4c-0.1,0-0.1,0-0.2,0c-0.1,0-0.2,0-0.2,0
		c-0.3,0-0.5,0-0.7,0.1s-0.4,0.2-0.6,0.4c-0.1,0.2-0.2,0.5-0.2,0.8v2.8h-1.5V18h1.1l0.2,0.9h0.1c0.2-0.3,0.4-0.5,0.7-0.7
		S130.9,17.9,131.2,17.9z"/>
</g>
</svg>
