<svg xmlns="http://www.w3.org/2000/svg" width="34" height="34" viewBox="0 0 34 34">
    <defs>
        <clipPath id="ldt0kh83ja">
            <path data-name="패스 248" d="M31.823-14.547 36.048-6.1a1.774 1.774 0 0 1-.793 2.38 1.774 1.774 0 0 1-.793.187H26.01A1.774 1.774 0 0 1 24.236-5.3a1.774 1.774 0 0 1 .187-.793l4.226-8.451a1.774 1.774 0 0 1 2.38-.793 1.774 1.774 0 0 1 .794.79z" style="clip-rule:evenodd;fill:#1b98f0"/>
        </clipPath>
        <clipPath id="09prrpobpb">
            <path data-name="패스 247" d="M-13 13.857h54.857V-41H-13z" transform="translate(13 41)" style="fill:#1b98f0"/>
        </clipPath>
    </defs>
    <g data-name="그룹 188" transform="translate(-2 26)">
        <g data-name="그룹 7558">
            <path data-name="패스 237" d="M0 10a2 2 0 0 1-2-2 2 2 0 0 1 2-2c.353 0 1-.76 1-2S.353 2 0 2a2 2 0 0 1-2-2 2 2 0 0 1 2-2A4.677 4.677 0 0 1 3.721-.029 6.734 6.734 0 0 1 5 4a6.734 6.734 0 0 1-1.279 4.029A4.677 4.677 0 0 1 0 10z" transform="translate(5 -13)" style="fill:#1b98f0"/>
            <path data-name="패스 238" d="M2 12a2 2 0 0 1 0-4c.353 0 1-.759 1-2s-.647-2-1-2a2 2 0 0 1 0-4 4.677 4.677 0 0 1 3.721 1.971A6.734 6.734 0 0 1 7 6a6.734 6.734 0 0 1-1.279 4.029A4.677 4.677 0 0 1 2 12z" transform="rotate(180 7.5 -1.5)" style="fill:#1b98f0"/>
        </g>
        <g data-name="그룹 187" transform="translate(-.236 .528)" style="opacity:.5;clip-path:url(#ldt0kh83ja)">
            <g data-name="그룹 186" transform="translate(-7.681 -37.361)" style="clip-path:url(#09prrpobpb)">
                <path data-name="패스 246" d="M23.236-16.811h13.512v13.552H23.236z" transform="translate(7.823 37.544)" style="fill:#1b98f0"/>
            </g>
        </g>
        <rect data-name="사각형 848" width="5" height="2" rx="1" transform="translate(17 -12)" style="fill:#1b98f0"/>
        <rect data-name="사각형 849" width="5" height="2" rx="1" transform="translate(17 -8)" style="fill:#1b98f0"/>
    </g>
</svg>
