<svg xmlns="http://www.w3.org/2000/svg" width="34" height="34" viewBox="0 0 34 34">
    <defs>
        <clipPath id="axwj3w041a">
            <path data-name="패스 218" d="m44.823-38.547 4.225 8.447a1.774 1.774 0 0 1-.793 2.38 1.774 1.774 0 0 1-.793.187H39.01a1.774 1.774 0 0 1-1.774-1.767 1.774 1.774 0 0 1 .187-.793l4.226-8.451a1.774 1.774 0 0 1 2.38-.793 1.774 1.774 0 0 1 .794.79z" style="clip-rule:evenodd;fill:#1b98f0"/>
        </clipPath>
        <clipPath id="rx80zccb3b">
            <path data-name="패스 217" d="M0-8.23h56.77V-65H0z" transform="translate(0 65)" style="fill:#1b98f0"/>
        </clipPath>
        <clipPath id="s25gfdq50c">
            <path data-name="패스 221" d="M20-28a6 6 0 0 0 6-6 6 6 0 0 0-6-6 6 6 0 0 0-6 6 6 6 0 0 0 6 6z" style="clip-rule:evenodd;fill:#1b98f0"/>
        </clipPath>
        <clipPath id="bfa41kh77d">
            <path data-name="패스 220" d="M0-10.143h54.857V-65H0z" transform="translate(0 65)" style="fill:#1b98f0"/>
        </clipPath>
        <clipPath id="htm1ueim5e">
            <path data-name="패스 224" d="M32-25a1.5 1.5 0 0 0 1.5-1.5A1.5 1.5 0 0 0 32-28a1.5 1.5 0 0 0-1.5 1.5A1.5 1.5 0 0 0 32-25z" style="clip-rule:evenodd;fill:#1b98f0"/>
        </clipPath>
        <clipPath id="e7iok5rw9f">
            <path data-name="패스 223" d="M0-1h64v-64H0z" style="fill:#1b98f0"/>
        </clipPath>
    </defs>
    <g data-name="그룹 169">
        <g data-name="그룹 164" transform="translate(-16.236 50.528)" style="opacity:.5;clip-path:url(#axwj3w041a)">
            <g data-name="그룹 163" transform="translate(4.207 -62.122)" style="clip-path:url(#rx80zccb3b)">
                <path data-name="패스 216" d="M36.236-40.811h13.983v14.025H36.236z" transform="translate(-4.094 62.267)" style="fill:#1b98f0"/>
            </g>
        </g>
        <g data-name="그룹 166" transform="translate(-13 51)" style="clip-path:url(#s25gfdq50c)">
            <g data-name="그룹 165" transform="translate(2 -61.429)" style="clip-path:url(#bfa41kh77d)">
                <path data-name="패스 219" d="M13-41h13.714v13.714H13z" transform="translate(-1.857 61.571)" style="fill:#1b98f0"/>
            </g>
        </g>
        <g data-name="그룹 168" transform="translate(-15 48)" style="clip-path:url(#htm1ueim5e)">
            <g data-name="그룹 167" style="clip-path:url(#e7iok5rw9f)">
                <path data-name="패스 222" d="M29.5-29h5v5h-5z" style="fill:#1b98f0"/>
            </g>
        </g>
    </g>
</svg>
