<svg xmlns="http://www.w3.org/2000/svg" width="34" height="34" viewBox="0 0 34 34">
    <defs>
        <clipPath id="uf5l093sia">
            <path data-name="패스 152" d="M.547-11.15a1.933 1.933 0 0 0 2.3.68 5.822 5.822 0 0 0 1.663-.773 38.23 38.23 0 0 0 .09 6.862c.121 1.113.624 1.793 1.889 1.793a1.839 1.839 0 0 0 1.994-1.793 43.2 43.2 0 0 0 .1-8.979A2.126 2.126 0 0 0 6.3-15.338a11.233 11.233 0 0 0-5.2 1.994 1.505 1.505 0 0 0-.553 2.194z" transform="translate(-.271 15.338)" style="fill:#1b98f0"/>
        </clipPath>
        <clipPath id="thxzfp18zb">
            <path data-name="패스 151" d="M-13 14.949h61.61V-40H-13z" transform="translate(13 40)" style="fill:#1b98f0"/>
        </clipPath>
        <clipPath id="dvrz800d5c">
            <path data-name="패스 155" d="M12.759-6.023c-1.191 1.258-.784 3.085.842 3.223a32.108 32.108 0 0 0 6.07-.031C20.717-2.923 21.4-3.4 21.4-4.519s-.683-1.611-1.728-1.719a13.8 13.8 0 0 0-2.759.015l1.728-1.519a5.056 5.056 0 0 0 1.975-3.975c0-2.271-2-3.622-4.139-3.622a4.563 4.563 0 0 0-4.27 2.133 1.577 1.577 0 0 0 .392 2.271 1.59 1.59 0 0 0 2.251-.384c.29-.506.581-.982 1.205-.982a1.019 1.019 0 0 1 1.06 1 3.007 3.007 0 0 1-1.1 1.842z" transform="translate(-11.9 15.338)" style="fill:#1b98f0"/>
        </clipPath>
        <clipPath id="rgbd4xbm8d">
            <path data-name="패스 154" d="M-13 14.563h51.636V-40H-13z" transform="translate(13 40)" style="fill:#1b98f0"/>
        </clipPath>
        <clipPath id="zg6o3xqkle">
            <path data-name="패스 158" d="M26.664-4.729a5.108 5.108 0 0 0 4.522 2.057c2.779 0 4.747-1.305 4.747-3.547a2.718 2.718 0 0 0-2.193-2.9v-.031a2.616 2.616 0 0 0 1.953-2.75c0-2.119-2.043-3.439-4.327-3.439a5.1 5.1 0 0 0-4.522 2.139 1.364 1.364 0 0 0 .391 1.95 1.611 1.611 0 0 0 2.208-.169 2.377 2.377 0 0 1 1.592-.676c.556 0 1.007.261 1.007.752s-.451.768-1.007.768c-.421 0-.586-.015-1.022-.015-.706 0-1.172.507-1.172 1.459 0 .86.406 1.627 1.172 1.6.436-.015.721-.046 1.142-.046.661 0 1.142.322 1.142.829 0 .491-.466.814-1.142.814a3.089 3.089 0 0 1-2.013-.8 1.379 1.379 0 0 0-2-.046 1.5 1.5 0 0 0-.478 2.051z" transform="translate(-26.433 15.338)" style="fill:#1b98f0"/>
        </clipPath>
        <clipPath id="oyf8k8dg0f">
            <path data-name="패스 157" d="M-13 14.59h53.414V-40H-13z" transform="translate(13 40)" style="fill:#1b98f0"/>
        </clipPath>
    </defs>
    <g data-name="그룹 118">
        <g data-name="그룹 113" transform="translate(1 11)" style="clip-path:url(#uf5l093sia)">
            <g data-name="그룹 112" transform="translate(-12.775 -21.174)" style="clip-path:url(#thxzfp18zb)">
                <path data-name="패스 150" d="M-1-16.338H9.762v14.467H-1z" transform="translate(12.552 36.654)" style="fill:#1b98f0"/>
            </g>
        </g>
        <g data-name="그룹 115" transform="translate(12 11)" style="opacity:.5;clip-path:url(#dvrz800d5c)">
            <g data-name="그룹 114" transform="translate(-20.09 -21.026)" style="clip-path:url(#rgbd4xbm8d)">
                <path data-name="패스 153" d="M10.489-16.338h11.445v14.427H10.489z" transform="translate(8.462 36.511)" style="fill:#1b98f0"/>
            </g>
        </g>
        <g data-name="그룹 117" transform="translate(23 11)" style="clip-path:url(#zg6o3xqkle)">
            <g data-name="그룹 116" transform="translate(-32.911 -21.036)" style="clip-path:url(#oyf8k8dg0f)">
                <path data-name="패스 156" d="M25.206-16.338h11.359v14.373H25.206z" transform="translate(6.681 36.521)" style="fill:#1b98f0"/>
            </g>
        </g>
    </g>
</svg>
