<?xml-stylesheet type="text/css" href="../../css/svg.css"?>

<svg class="main_grade_icon" xmlns="http://www.w3.org/2000/svg" xmlns:xlink="http://www.w3.org/1999/xlink" x="0px"
	 y="0px" viewBox="0 0 32 32" style="enable-background:new 0 0 32 32;" xml:space="preserve">
<style type="text/css">
	.st0{fill:url(#SVGID_1_);}
</style>
<linearGradient id="SVGID_1_" gradientUnits="userSpaceOnUse" x1="2.9164" y1="16.0009" x2="29.082" y2="16.0009">
	<stop  offset="0" />
	<stop  offset="1" />
</linearGradient> 
<path class="st0" d="M9,18c2.2,0,4,1.8,4,4s-1.8,4-4,4s-4-1.8-4-4S6.8,18,9,18z M23,18c2.2,0,4,1.8,4,4s-1.8,4-4,4s-4-1.8-4-4
	S20.8,18,23,18z M9,20c-1.1,0-2,0.9-2,2s0.9,2,2,2s2-0.9,2-2S10.1,20,9,20z M23,20c-1.1,0-2,0.9-2,2s0.9,2,2,2s2-0.9,2-2
	S24.1,20,23,20z M3.5,12.6L3.5,12.6l0.7,0.1l22.3,2l0,0l2,0.2c0.5,0,0.9,0.5,0.9,1v4.3c0.2,0.1,0.3,0.3,0.4,0.5c0,0,0,0,0,0
	c0,0.1,0.1,0.2,0.1,0.4v0l0,0.1c-0.1,0.5-0.5,0.9-1,0.9h-1c0-2.8-2.2-5-5-5s-5,2.2-5,5h-4c0-2.8-2.2-5-5-5s-5,2.2-5,5H3
	c-0.5,0-1-0.4-1-1v0c0-0.4,0.2-0.7,0.5-0.9v-6.5C2.5,13.1,2.9,12.6,3.5,12.6z M17.6,7c0.2,0,0.5,0.1,0.7,0.3l7,6.3l-11.4-1L12.5,7
	H17.6z M11.4,7l1.5,5.4L5,11.7l3-3.8l0.3-0.2c0.4-0.4,1-0.6,1.5-0.7L10,7H11.4z"/>
</svg>
