<?xml-stylesheet type="text/css" href="../../css/svg.css"?>

<svg class="main_grade_icon"  xmlns="http://www.w3.org/2000/svg" xmlns:xlink="http://www.w3.org/1999/xlink" x="0px"
	 y="0px" viewBox="0 0 32 32" style="enable-background:new 0 0 32 32;" xml:space="preserve">
<style type="text/css">
	.st0{fill:url(#SVGID_1_);}
</style>
<linearGradient id="SVGID_1_" gradientUnits="userSpaceOnUse" x1="2.9164" y1="16.0009" x2="29.082" y2="16.0009">
	<stop  offset="0" />
	<stop  offset="1" />
</linearGradient> 
<path class="st0" d="M7,16l0.3,0c0.1,0,0.2,0,0.3,0l-0.2,0c0.1,0,0.2,0,0.3,0l-0.1,0c0.1,0,0.2,0,0.3,0l-0.2,0c0.1,0,0.2,0,0.3,0.1
	l-0.1,0c0.1,0,0.2,0,0.3,0.1l-0.2,0c0.1,0,0.2,0,0.3,0.1l-0.1,0c0.1,0,0.2,0.1,0.3,0.1l-0.2-0.1c0.1,0,0.2,0,0.3,0.1h0
	c0.1,0,0.2,0.1,0.3,0.1l-0.2-0.1c0.1,0,0.2,0.1,0.3,0.1l-0.1,0c0.1,0,0.2,0.1,0.3,0.1c0.8,0.3,1.5,0.9,2,1.5l-0.1-0.1
	c0,0.1,0.1,0.1,0.1,0.2l0-0.1l0.1,0.2L11,18c0,0.1,0.1,0.1,0.1,0.2l0-0.1c0,0.1,0.1,0.1,0.1,0.2l-0.1-0.1c0,0.1,0.1,0.1,0.1,0.2
	c0.2,0.3,0.3,0.6,0.4,0.9l0,0c0,0.1,0.1,0.1,0.1,0.2l-0.1-0.2c0,0.1,0.1,0.2,0.1,0.2l0.1,0.2l0.1,0.2c0,0.1,0,0.2,0,0.3l0-0.1
	c0,0.1,0,0.2,0,0.2l0-0.1c0,0.1,0,0.1,0,0.2l0-0.1c0,0.1,0,0.2,0,0.3l0-0.1c0,0.1,0,0.1,0,0.2l0-0.1c0,0.1,0,0.1,0,0.2l0,0.3
	c0,2.7-2.1,4.9-4.8,5H7c-2.8,0-5-2.2-5-5S4.2,16,7,16z M25,16c2.8,0,5,2.2,5,5c0,2.7-2.1,4.9-4.8,5H25c-2.8,0-5-2.2-5-5
	c0-0.2,0-0.4,0-0.6l0,0.1c0-0.1,0-0.1,0-0.2l0,0.1c0-0.1,0-0.1,0-0.2l0,0.1c0-0.1,0-0.2,0-0.2l0,0.1c0-0.1,0-0.2,0-0.2
	c0.1-0.3,0.2-0.6,0.3-0.9l0,0.1c0-0.1,0.1-0.1,0.1-0.2l-0.1,0.2c0-0.1,0.1-0.1,0.1-0.2l0,0c0-0.1,0.1-0.1,0.1-0.2l-0.1,0.1
	c0-0.1,0.1-0.1,0.1-0.2l0,0.1c0-0.1,0.1-0.1,0.1-0.2l-0.1,0.1c0-0.1,0.1-0.1,0.1-0.2c0.1-0.2,0.3-0.4,0.4-0.6l-0.1,0.1
	c0-0.1,0.1-0.1,0.1-0.2l-0.1,0.1c0-0.1,0.1-0.1,0.1-0.2l-0.1,0.1c0-0.1,0.1-0.1,0.1-0.2l-0.1,0.1c0-0.1,0.1-0.1,0.1-0.2l-0.1,0.1
	c0.1-0.1,0.1-0.1,0.2-0.2l-0.1,0.1c0.1-0.1,0.1-0.1,0.2-0.1l0,0c0.1-0.1,0.1-0.1,0.2-0.1l-0.1,0.1c0.1,0,0.1-0.1,0.2-0.1l0,0
	c0.1,0,0.1-0.1,0.2-0.1L22,17l0.2-0.1l0.1-0.1c0.7-0.4,1.4-0.7,2.2-0.8l-0.1,0c0.1,0,0.1,0,0.2,0l-0.1,0c0.1,0,0.2,0,0.3,0l-0.2,0
	c0.1,0,0.2,0,0.2,0L25,16z M12,8c0.6,0,1,0.4,1,1s-0.4,1-1,1h-0.6l1.7,3h6.7l-1.2-2H21l2.4,4.2c-0.7,0.2-1.3,0.5-1.8,0.8L21,15h-6.7
	l2.4,4.1c0.8,0.3,1.3,1,1.3,1.9c0,1.1-0.9,2-2,2s-2-0.9-2-2c0-0.5,0.2-1.1,0.6-1.5l-2.2-3.8l-1.1,1.1c-0.5-0.5-1-0.9-1.6-1.2
	l1.7-1.7l-2.3-4l0.1,0H8c-0.6,0-1-0.4-1-1s0.4-1,1-1H12z M7,19c-1.1,0-2,0.9-2,2s0.9,2,2,2s2-0.9,2-2S8.1,19,7,19z M25,19
	c-1.1,0-2,0.9-2,2s0.9,2,2,2s2-0.9,2-2S26.1,19,25,19z M17.5,10c-0.6,0-1-0.4-1-1s0.4-1,1-1h5V7c0-0.6,0.4-1,1-1s1,0.4,1,1v2
	c0,0.6-0.4,1-1,1H17.5z"/>
</svg>
