<?xml-stylesheet type="text/css" href="../../css/svg.css"?>

<svg class="main_grade_icon" version="1.1" id="레이어_1" xmlns="http://www.w3.org/2000/svg" xmlns:xlink="http://www.w3.org/1999/xlink" x="0px"
	 y="0px" viewBox="0 0 32 32" style="enable-background:new 0 0 32 32;" xml:space="preserve">
 <style type="text/css">
	.st0{fill:url(#SVGID_1_);}
</style>

<linearGradient id="SVGID_1_" gradientUnits="userSpaceOnUse" x1="2.9164" y1="16.0009" x2="29.082" y2="16.0009">
	<stop  offset="0" />
	<stop  offset="1" />
</linearGradient> 
<path class="st0" d="M3.4,11.9l16.5,12v0h9.1c-0.1,1-1,1.8-2,1.8h-8L3.8,14.9c-0.9-0.6-1.1-1.9-0.5-2.8l0,0L3.4,11.9z M9.6,6.5
	l0.7,0.4c0.7,1.6,1.9,3,3.3,4c0.5,0.3,1,0.1,1.3-0.6c0.3-0.5,0.9-0.7,1.4-0.4c0,0,0,0,0,0c0,0,0,0,0.1,0l0.6,0.4
	c1,0.7,1.8,1.6,2.2,2.8h-4.1v1h4.5l0.6,1.5h-2.7v1h7.1c2.5,0,4.5,2,4.5,4.5V23h-8.8L4,11.1l3-4C7.6,6.3,8.7,6.1,9.6,6.5L9.6,6.5z"/>
</svg>
