<svg xmlns="http://www.w3.org/2000/svg" width="16" height="16" viewBox="0 0 16 16">
    <defs>
        <clipPath id="wcpqzmlgea">
            <path data-name="패스 9660" d="M.8-11.161 5-12l4.2.839a1 1 0 0 1 .8.981v5.488A3.977 3.977 0 0 1 7.5-1a6.731 6.731 0 0 1-5 0A3.977 3.977 0 0 1 0-4.693v-5.487a1 1 0 0 1 .8-.981z" style="clip-rule:evenodd;fill:#de4444"/>
        </clipPath>
        <clipPath id="abca991q9b">
            <path data-name="패스 9659" d="M-3 2h16v-16H-3z" style="fill:#de4444"/>
        </clipPath>
        <clipPath id="qsw10qn3gc">
            <path data-name="패스 9661" d="M-3 2h16v-16H-3z" style="fill:none"/>
        </clipPath>
    </defs>
    <g data-name="그룹 9005" transform="translate(3 14)" style="clip-path:url(#wcpqzmlgea)">
        <g data-name="그룹 9004" style="clip-path:url(#abca991q9b)">
            <path data-name="패스 9658" d="M-1-13h12V.642H-1z" style="fill:#de4444"/>
        </g>
    </g>
    <g data-name="그룹 9007" transform="translate(3 14)" style="clip-path:url(#qsw10qn3gc)">
        <g data-name="그룹 9006">
            <text data-name="10" transform="translate(1.127 -4)" style="fill:#fff;font-size:7px;font-family:NotoSans-Bold,Noto Sans;font-weight:700;letter-spacing:-.019em"><tspan x="0" y="0">10</tspan></text>
        </g>
    </g>
</svg>
