<svg xmlns="http://www.w3.org/2000/svg" width="16" height="16" viewBox="0 0 16 16">
    <defs>
        <clipPath id="ig3i5m0vpa">
            <path data-name="패스 9640" d="M.8-11.161 5-12l4.2.839a1 1 0 0 1 .8.981v5.488A3.977 3.977 0 0 1 7.5-1a6.731 6.731 0 0 1-5 0A3.977 3.977 0 0 1 0-4.693v-5.487a1 1 0 0 1 .8-.981z" style="clip-rule:evenodd;fill:#46d7e3"/>
        </clipPath>
        <clipPath id="urlpjuwekb">
            <path data-name="패스 9639" d="M-3 2h16v-16H-3z" style="fill:#46d7e3"/>
        </clipPath>
        <clipPath id="msi45dyvac">
            <path data-name="패스 9641" d="M-3 2h16v-16H-3z" style="fill:none"/>
        </clipPath>
    </defs>
    <g data-name="그룹 8980" transform="translate(3 14)" style="clip-path:url(#ig3i5m0vpa)">
        <g data-name="그룹 8979" style="clip-path:url(#urlpjuwekb)">
            <path data-name="패스 9638" d="M-1-13h12V.642H-1z" style="fill:#46d7e3"/>
        </g>
    </g>
    <g data-name="그룹 8982" transform="translate(3 14)" style="clip-path:url(#msi45dyvac)">
        <g data-name="그룹 8981">
            <text data-name="5" transform="translate(3.064 -4)" style="fill:#fff;font-size:7px;font-family:NotoSans-Bold,Noto Sans;font-weight:700"><tspan x="0" y="0">5</tspan></text>
        </g>
    </g>
</svg>
