<?xml-stylesheet type="text/css" href="../../css/svg.css"?>

<svg class="main_grade_icon" xmlns="http://www.w3.org/2000/svg" xmlns:xlink="http://www.w3.org/1999/xlink" x="0px"
	 y="0px" viewBox="0 0 32 32" style="enable-background:new 0 0 32 32;" xml:space="preserve">
<style type="text/css">
	.st0{fill:url(#SVGID_1_);}
</style>
<linearGradient id="SVGID_1_" gradientUnits="userSpaceOnUse" x1="2.9164" y1="16.0009" x2="29.082" y2="16.0009">
	<stop  offset="0" />
	<stop  offset="1" />
</linearGradient> 
<path class="st0" d="M9,20.1c0.9,0,1.7,0.4,2.2,1h0c0.5,0.5,0.8,1.3,0.8,2c0,1.7-1.3,3-3,3c-1.7,0-3-1.3-3-3C6,21.4,7.4,20.1,9,20.1
	z M23,20.1c0.9,0,1.7,0.4,2.2,1h0c0.5,0.5,0.8,1.3,0.8,2c0,1.7-1.3,3-3,3c-1.7,0-3-1.3-3-3C20,21.4,21.4,20.1,23,20.1z M23,22.1
	c-0.6,0-1,0.4-1,1s0.4,1,1,1s1-0.4,1-1S23.6,22.1,23,22.1z M9,22.1c-0.6,0-1,0.4-1,1s0.4,1,1,1c0.6,0,1-0.4,1-1S9.6,22.1,9,22.1z
	 M12.9,7C13.6,7.6,14,8.5,14,9.5v0.6l2.9,2.5h-2.4v1h3.6l1.8,1.5H17v1h8.2c1.6,0,2.8,1.3,2.8,2.8v1.2c0,0.6-0.4,1-1,1h-0.5
	c-0.7-1.2-2-2-3.5-2c-1.4,0-2.8,0.8-3.5,2H17l-5-5l-8,0v-4.2c0-0.9,0.4-1.7,1.1-2.3L8,7.1C9.3,5.7,11.6,5.6,12.9,7z M4,17.1l7.5,0
	l4,4h-3c-0.7-1.2-2-2-3.5-2c-1.4,0-2.7,0.7-3.4,2c-0.9-0.2-1.6-1-1.6-2v0L4,18V17.1z"/>
</svg>
