<?xml-stylesheet type="text/css" href="../../css/svg.css"?>

<svg class="main_grade_icon" xmlns="http://www.w3.org/2000/svg" xmlns:xlink="http://www.w3.org/1999/xlink" x="0px"
	 y="0px" viewBox="0 0 32 32" style="enable-background:new 0 0 32 32;" xml:space="preserve">
<style type="text/css">
	.st0{fill:url(#SVGID_1_);}
</style>
<linearGradient id="SVGID_1_" gradientUnits="userSpaceOnUse" x1="2.9164" y1="16.0009" x2="29.082" y2="16.0009">
	<stop  offset="0" />
	<stop  offset="1" />
</linearGradient> 
<path class="st0" d="M7.3,15.7l-1.3,6.2c-0.2,1,0.2,2,1.1,2.4c0.9,0.5,1.9,0.3,2.6-0.4l3.5-3.7C11.1,18.9,9.1,17.4,7.3,15.7z
	 M3.7,6.5C3.1,6.5,2.5,6.9,2.5,7.4C2.4,8.1,2.4,8.9,2.6,9.5l0.1,0.4c0.2,0.9,0.7,1.7,1.5,2.3l7.1,5.6c2.3,1.8,4.8,3.1,7.5,4.1
	l0.8,0.3c1.9,0.7,3.9,1.2,5.9,1.5l2.6,0.4c0.4,0.1,1-0.1,1.1-0.5l0-0.2c0.1-0.5-0.2-1-0.8-1.4l-1.3-1.1l1.3-1.7
	c0.3-0.4,0.2-0.9-0.1-1.2c0,0,0,0,0,0h0l-0.2-0.1c-0.3-0.3-0.8-0.3-1.1-0.1l-2.3,1.2l-10.7-8.7l-1.4-1.1c-1.3-1-2.9-1.6-4.6-1.6H7.2
	l2.6,2.1l-0.4,1L4.7,6.7L3.7,6.5z M24,8.6L15.1,10l6.7,5.4l5.5-4.5c0.5-0.4,0.5-1.1,0.2-1.5c0,0,0,0,0,0c-0.1-0.1-0.2-0.2-0.4-0.3
	C26.2,8.6,25.1,8.4,24,8.6z"/>
</svg>
