<?xml-stylesheet type="text/css" href="../../css/svg.css"?>

<svg class="main_grade_icon" xmlns="http://www.w3.org/2000/svg" xmlns:xlink="http://www.w3.org/1999/xlink" x="0px"
	 y="0px" viewBox="0 0 32 32" style="enable-background:new 0 0 32 32;" xml:space="preserve">
<style type="text/css">
	.st0{fill:url(#SVGID_1_);}
</style>
<linearGradient id="SVGID_1_" gradientUnits="userSpaceOnUse" x1="2.9164" y1="16.0009" x2="29.082" y2="16.0009">
	<stop  offset="0" />
	<stop  offset="1" />
</linearGradient> 
<path class="st0" d="M7.5,22h8v2h2v-2.1l4.9-4.9H29c0.6,0,1-0.4,1-1v-5.5c0-0.6-0.4-1-1-1h-0.4c-0.4,0-0.7,0.2-0.9,0.6l-1.4,2.9
	c-0.2,0.3-0.5,0.6-0.9,0.6h-2.9l-3-1.2c-1.4-0.6-2.9-0.9-4.5-1.1V8h10c0.6,0,1-0.4,1-1s-0.4-1-1-1H3C2.4,6,2,6.4,2,7s0.4,1,1,1h10v6
	c0,2.2-1.8,4-4,4H2.7l-0.4,0.4C2.1,18.6,2,18.8,2,19.1v1.2C2,21.3,2.7,22,3.7,22l0,0h1.8v2H3c-0.6,0-1,0.4-1,1s0.4,1,1,1h17
	c0.6,0,1-0.4,1-1s-0.4-1-1-1H7.5V22z M9.3,11c-1.8,0-3.4,0.9-4.3,2.4l-1.4,2.3c-0.1,0.2-0.1,0.3-0.1,0.5V17H9c1.6,0,2.9-1.2,3-2.8
	l0-0.2v-3H9.3z"/>
</svg>
