<?xml-stylesheet type="text/css" href="../../css/svg.css"?>

<svg class="main_grade_icon" xmlns="http://www.w3.org/2000/svg" xmlns:xlink="http://www.w3.org/1999/xlink" x="0px"
	 y="0px" viewBox="0 0 32 32" style="enable-background:new 0 0 32 32;" xml:space="preserve">
<style type="text/css">
	.st0{fill:url(#SVGID_1_);}
</style>
<linearGradient id="SVGID_1_" gradientUnits="userSpaceOnUse" x1="2.9164" y1="16.0009" x2="29.082" y2="16.0009">
	<stop  offset="0" />
	<stop  offset="1" />
</linearGradient>
<path class="st0" d="M18.5,16.7c0.2-0.3,0.5-0.4,0.8-0.5c0,0,0.1,0,0.1,0c0.4,0,0.8,0.1,1.1,0.3l2.8,2c0.5,0.3,0.9,0.7,1.3,1.2
	l0.1,0.1c0,0.1,0.1,0.1,0.1,0.2l0,0c0.1,0.2,0.3,0.3,0.4,0.5l0.3,0.4c0.3,0.5,0.3,1.1,0,1.6c-0.3,0.5-0.9,0.7-1.5,0.5l-0.4-0.1
	c-0.2-0.1-0.4-0.1-0.6-0.2h0c-0.3-0.1-0.6-0.2-0.9-0.4L22,22.2l-0.2-0.1L21.7,22l0,0c-0.2-0.1-0.4-0.2-0.6-0.4l-2.8-1.9
	c-0.3-0.2-0.6-0.6-0.7-1c0-0.1,0-0.1,0-0.2c-0.1-0.3,0-0.7,0.2-0.9L18.5,16.7z M22.2,13.2c0.5-0.2,1.1-0.3,1.6-0.1l3.5,1.1
	c0.5,0.2,0.8,0.7,0.6,1.3c0,0.1-0.1,0.2-0.2,0.3l-1.5,1.8L22.2,13.2z M11.4,6.7l9.5,6.6l4.9,5.2l-0.4,0.6c-0.5-0.5-1-1-1.6-1.4
	L21,15.8c-0.5-0.3-1.1-0.5-1.7-0.5c-0.7,0-1.3,0.3-1.7,0.9l-0.7,1c-0.4,0.6-0.5,1.3-0.3,1.9c0.2,0.6,0.6,1.2,1.1,1.5l2.8,1.9
	c0.6,0.4,1.2,0.8,1.9,1l-0.4,0.6l-6.5-2.9l-9.5-6.6L11.4,6.7z M16.6,22.9l4.6,1.9l-0.9,0.9c-0.4,0.4-1,0.4-1.4,0l-2-1.8
	C16.8,23.6,16.6,23.3,16.6,22.9L16.6,22.9z M9.4,11.2c-0.9,1.4-0.5,3.2,0.8,4.1c1.3,1,3.2,0.7,4.1-0.6c0.9-1.4,0.5-3.2-0.8-4.1
	C12.2,9.6,10.4,9.9,9.4,11.2z M10.2,11.8c0.6-0.9,1.9-1.1,2.7-0.4c0.9,0.6,1.1,1.8,0.5,2.7c-0.6,0.9-1.9,1.1-2.7,0.4
	C9.9,13.9,9.6,12.7,10.2,11.8C10.2,11.8,10.2,11.8,10.2,11.8L10.2,11.8z M4.3,6.2C4.5,6.1,4.8,6.1,5,6.1l5.6,0.1L5.1,14l-2-5.2
	C2.7,7.8,3.3,6.6,4.3,6.2L4.3,6.2z"/>
</svg>
