<?xml-stylesheet type="text/css" href="../../css/svg.css"?>

<svg class="main_grade_icon" xmlns="http://www.w3.org/2000/svg" xmlns:xlink="http://www.w3.org/1999/xlink" x="0px"
	 y="0px" viewBox="0 0 32 32" style="enable-background:new 0 0 32 32;" xml:space="preserve">
<style type="text/css">
	.st0{fill:url(#SVGID_1_);}
</style>
<linearGradient id="SVGID_1_" gradientUnits="userSpaceOnUse" x1="2.9164" y1="16.0009" x2="29.082" y2="16.0009">
	<stop  offset="0" />
	<stop  offset="1" />
</linearGradient> 
<path class="st0" d="M16,6c5,0,9,3.4,9,7.5c0,0.2,0,0.3,0,0.5H7c0-0.2,0-0.3,0-0.5C7,9.4,11,6,16,6z M29,17.5V19c0,0.6-0.4,1-1,1H4
	c-0.6,0-1-0.4-1-1v-1.5C3,16.1,4.1,15,5.5,15h21C27.9,15,29,16.1,29,17.5z M10,18.5c0.6,0,1-0.4,1-1s-0.4-1-1-1s-1,0.4-1,1
	S9.4,18.5,10,18.5z M16,18.5c0.6,0,1-0.4,1-1s-0.4-1-1-1c-0.6,0-1,0.4-1,1S15.4,18.5,16,18.5z M22,18.5c0.6,0,1-0.4,1-1s-0.4-1-1-1
	s-1,0.4-1,1S21.4,18.5,22,18.5z M26,21v0.4c0,0.7-0.3,1.3-0.8,1.8c-0.3,0.3-0.8,0.6-1.2,0.7V24c0,1.1-0.9,2-2,2s-2-0.9-2-2h-2
	c0,1.1-0.9,2-2,2s-2-0.9-2-2h-2c0,1.1-0.9,2-2,2s-2-0.9-2-2v-0.1c-0.5-0.1-0.9-0.3-1.2-0.7C6.3,22.8,6,22.1,6,21.4V21H26z"/>
</svg>
