<svg xmlns="http://www.w3.org/2000/svg" width="16" height="16" viewBox="0 0 16 16">
    <defs>
        <clipPath id="2jz5suh7oa">
            <path data-name="패스 9636" d="M.8-11.161 5-12l4.2.839a1 1 0 0 1 .8.981v5.488A3.977 3.977 0 0 1 7.5-1a6.731 6.731 0 0 1-5 0A3.977 3.977 0 0 1 0-4.693v-5.487a1 1 0 0 1 .8-.981z" style="clip-rule:evenodd;fill:#86e060"/>
        </clipPath>
        <clipPath id="13p7f1yi0b">
            <path data-name="패스 9635" d="M-3 2h16v-16H-3z" style="fill:#86e060"/>
        </clipPath>
        <clipPath id="t4fs3pn9ic">
            <path data-name="패스 9637" d="M-3 2h16v-16H-3z" style="fill:none"/>
        </clipPath>
    </defs>
    <g data-name="그룹 8975" transform="translate(3 14)" style="clip-path:url(#2jz5suh7oa)">
        <g data-name="그룹 8974" style="clip-path:url(#13p7f1yi0b)">
            <path data-name="패스 9634" d="M-1-13h12V.642H-1z" style="fill:#86e060"/>
        </g>
    </g>
    <g data-name="그룹 8977" transform="translate(3 14)" style="clip-path:url(#t4fs3pn9ic)">
        <g data-name="그룹 8976">
            <text data-name="4" transform="translate(3.064 -4)" style="fill:#fff;font-size:7px;font-family:NotoSans-Bold,Noto Sans;font-weight:700"><tspan x="0" y="0">4</tspan></text>
        </g>
    </g>
</svg>
