<svg xmlns="http://www.w3.org/2000/svg" width="70" height="70" viewBox="0 0 70 70">
    <g transform="translate(-139 -966.194)">
        <circle data-name="타원 1695" cx="35" cy="35" r="35" transform="translate(139 966.194)" style="fill:#0bcfff"/>
        <path data-name="패스 12555" d="M417.906 116.762a4.762 4.762 0 0 0-4.762-4.762H406v4.763h7.144v7.144h4.763z" transform="translate(-225.608 871.589)" style="fill:#fff"/>
        <path data-name="패스 12556" d="M417.906 336h-4.763v7.144H406v4.763h7.144a4.762 4.762 0 0 0 4.763-4.763z" transform="translate(-225.608 671.401)" style="fill:#fff"/>
        <path data-name="패스 12557" d="M182 343.145a4.762 4.762 0 0 0 4.763 4.763h7.144v-4.763h-7.144V336H182z" transform="translate(-25.42 671.4)" style="fill:#fff"/>
        <path data-name="패스 12558" d="M182 116.762v7.144h4.763v-7.144h7.144V112h-7.144a4.762 4.762 0 0 0-4.763 4.762z" transform="translate(-25.42 871.589)" style="fill:#fff"/>
        <path data-name="패스 12559" d="M260.4 199.924a9.526 9.526 0 1 0 2.79-6.735 9.524 9.524 0 0 0-2.79 6.735zm9.525-4.763a4.762 4.762 0 1 1-3.368 1.395 4.764 4.764 0 0 1 3.368-1.395z" transform="translate(-95.486 801.523)" style="fill:#fff"/>
    </g>
</svg>
