<svg xmlns="http://www.w3.org/2000/svg" width="63" height="40" viewBox="0 0 63 40">
    <g data-name="그룹 14062">
        <path data-name="패스 12564" d="M23.265-16.991a20.861 20.861 0 0 0-.881-6.6 8.551 8.551 0 0 0-2.411-3.887 5.33 5.33 0 0 0-3.545-1.293 5.2 5.2 0 0 0-3.5 1.308 8.594 8.594 0 0 0-2.381 3.922 21.2 21.2 0 0 0-.862 6.553q0 5.86 1.758 8.829a5.5 5.5 0 0 0 4.981 2.97 5.6 5.6 0 0 0 5.049-2.97q1.792-2.973 1.792-8.832zM16.465.817a13.923 13.923 0 0 1-7.428-1.978A13.073 13.073 0 0 1 4.007-7.1a23.87 23.87 0 0 1-1.8-9.892 23 23 0 0 1 1.893-9.97 13.378 13.378 0 0 1 5.127-5.879 13.792 13.792 0 0 1 7.241-1.942 13.748 13.748 0 0 1 7.241 1.95 13.492 13.492 0 0 1 5.139 5.895 22.847 22.847 0 0 1 1.9 9.947 23.607 23.607 0 0 1-1.823 9.877 13.252 13.252 0 0 1-5.041 5.946A13.841 13.841 0 0 1 16.465.817zM45.073-34.8q5.9 0 9.262 2.548a8.373 8.373 0 0 1 3.359 7.069 7.452 7.452 0 0 1-.764 3.43 7.827 7.827 0 0 1-1.93 2.48 9.205 9.205 0 0 1-2.367 1.48 9.407 9.407 0 0 1 2.889 1.581 8.293 8.293 0 0 1 2.211 2.719 8.689 8.689 0 0 1 .857 4.046A8.945 8.945 0 0 1 56.87-3.9a10.768 10.768 0 0 1-4.734 3.483A18.624 18.624 0 0 1 45.2.786a22.863 22.863 0 0 1-6.047-.7A9.715 9.715 0 0 1 35.3-1.785a3.45 3.45 0 0 1-1.334-2.623 3.6 3.6 0 0 1 .616-2.1 4.375 4.375 0 0 1 1.478-1.366 19.049 19.049 0 0 0 3.226 1.771 12.7 12.7 0 0 0 5.138.883 8.286 8.286 0 0 0 4.925-1.267A4.092 4.092 0 0 0 51.1-10a4.091 4.091 0 0 0-1.493-3.351 7.506 7.506 0 0 0-4.76-1.218h-5.021a3.9 3.9 0 0 1-.543-1.208 6.208 6.208 0 0 1-.212-1.693 6.511 6.511 0 0 1 .212-1.777 3.9 3.9 0 0 1 .543-1.2h4.855a6.5 6.5 0 0 0 4.2-1.106A3.723 3.723 0 0 0 50.2-24.57a3.579 3.579 0 0 0-1.6-3.1 7.8 7.8 0 0 0-4.515-1.117 12.922 12.922 0 0 0-4.3.657 13.113 13.113 0 0 0-3.083 1.5 5.539 5.539 0 0 1-1.32-1.347 3.282 3.282 0 0 1-.566-1.932 3.3 3.3 0 0 1 1.291-2.614 9.085 9.085 0 0 1 3.628-1.677 21.723 21.723 0 0 1 5.338-.6z" transform="translate(1.104 36.783)" style="fill:#518cef"/>
        <path data-name="사각형 2649" style="fill:none" d="M0 0h63v40H0z"/>
    </g>
</svg>
