<svg xmlns="http://www.w3.org/2000/svg" width="63" height="40" viewBox="0 0 63 40">
    <g data-name="그룹 14061">
        <path data-name="패스 12563" d="M23.265-16.991a20.861 20.861 0 0 0-.881-6.6 8.551 8.551 0 0 0-2.411-3.887 5.33 5.33 0 0 0-3.545-1.293 5.2 5.2 0 0 0-3.5 1.308 8.594 8.594 0 0 0-2.381 3.922 21.2 21.2 0 0 0-.862 6.553q0 5.86 1.758 8.829a5.5 5.5 0 0 0 4.981 2.97 5.6 5.6 0 0 0 5.049-2.97q1.792-2.973 1.792-8.832zM16.465.817a13.923 13.923 0 0 1-7.428-1.978A13.073 13.073 0 0 1 4.007-7.1a23.87 23.87 0 0 1-1.8-9.892 23 23 0 0 1 1.893-9.97 13.378 13.378 0 0 1 5.127-5.879 13.792 13.792 0 0 1 7.241-1.942 13.748 13.748 0 0 1 7.241 1.95 13.492 13.492 0 0 1 5.139 5.895 22.847 22.847 0 0 1 1.9 9.947 23.607 23.607 0 0 1-1.823 9.877 13.252 13.252 0 0 1-5.041 5.946A13.841 13.841 0 0 1 16.465.817zm19.074-30.47a3.56 3.56 0 0 1 1.261-2.718 8.6 8.6 0 0 1 3.494-1.78 18.677 18.677 0 0 1 5.084-.632 16.306 16.306 0 0 1 6.913 1.315 9.778 9.778 0 0 1 4.267 3.593A9.6 9.6 0 0 1 58-24.621a11.328 11.328 0 0 1-1.666 5.832 25.324 25.324 0 0 1-5.333 5.99l-8.063 6.936h14.721a5.9 5.9 0 0 1 .535 1.223 5.247 5.247 0 0 1 .258 1.662 3.114 3.114 0 0 1-.712 2.243A2.558 2.558 0 0 1 55.812 0H36.291a4.618 4.618 0 0 1-1.469-1.669A4.926 4.926 0 0 1 34.283-4a5.079 5.079 0 0 1 .6-2.524 6.972 6.972 0 0 1 1.389-1.787l8.747-7.855a25.708 25.708 0 0 0 4.28-4.6 6.492 6.492 0 0 0 1.162-3.525 3.973 3.973 0 0 0-1.483-3.219 6.564 6.564 0 0 0-4.28-1.226 10.9 10.9 0 0 0-4.17.753A15.83 15.83 0 0 0 37.5-26.39a4.92 4.92 0 0 1-1.363-1.3 3.251 3.251 0 0 1-.598-1.963z" transform="translate(.798 37)" style="fill:#518cef"/>
        <path data-name="사각형 2648" style="fill:none" d="M0 0h63v40H0z"/>
    </g>
</svg>
