<svg xmlns="http://www.w3.org/2000/svg" width="68" height="40" viewBox="0 0 68 40">
    <path data-name="패스 12565" d="M23.265-16.991a20.861 20.861 0 0 0-.881-6.6 8.551 8.551 0 0 0-2.411-3.887 5.33 5.33 0 0 0-3.545-1.293 5.2 5.2 0 0 0-3.5 1.308 8.594 8.594 0 0 0-2.381 3.922 21.2 21.2 0 0 0-.862 6.553q0 5.86 1.758 8.829a5.5 5.5 0 0 0 4.981 2.97 5.6 5.6 0 0 0 5.049-2.97q1.792-2.973 1.792-8.832zM16.465.817a13.923 13.923 0 0 1-7.428-1.978A13.073 13.073 0 0 1 4.007-7.1a23.87 23.87 0 0 1-1.8-9.892 23 23 0 0 1 1.893-9.97 13.378 13.378 0 0 1 5.127-5.879 13.792 13.792 0 0 1 7.241-1.942 13.748 13.748 0 0 1 7.241 1.95 13.492 13.492 0 0 1 5.139 5.895 22.847 22.847 0 0 1 1.9 9.947 23.607 23.607 0 0 1-1.823 9.877 13.252 13.252 0 0 1-5.041 5.946A13.841 13.841 0 0 1 16.465.817zm19.167-15.6L49.89-33.768a13.842 13.842 0 0 1 1.916-.438 12.187 12.187 0 0 1 1.939-.177 8.393 8.393 0 0 1 2.5.369 3.97 3.97 0 0 1 1.931 1.266 3.913 3.913 0 0 1 .742 2.559v16.84h4.895a6.133 6.133 0 0 1 .547 1.243 5.287 5.287 0 0 1 .269 1.7 3.24 3.24 0 0 1-.723 2.316 2.562 2.562 0 0 1-1.94.754h-3.045v7.329q-.445.092-1.384.265a10.229 10.229 0 0 1-1.862.173 6.17 6.17 0 0 1-2.946-.574q-1.038-.574-1.038-2.534v-4.656H37.248A4.5 4.5 0 0 1 35.533-8.9a4.479 4.479 0 0 1-.715-2.562 8.492 8.492 0 0 1 .188-1.733 4.786 4.786 0 0 1 .626-1.59zM52-13.35l.031-13.463h-.146l-9.2 13.463z" transform="translate(1.082 36.783)" style="fill:#518cef"/>
    <path data-name="사각형 2650" style="fill:none" d="M0 0h68v40H0z"/>
</svg>
