<?xml-stylesheet type="text/css" href="../../css/svg.css"?>

<svg class="accuracy_icon" version="1.1" id="레이어_1" xmlns="http://www.w3.org/2000/svg" xmlns:xlink="http://www.w3.org/1999/xlink" x="0px"
	 y="0px" viewBox="0 0 24 24" style="enable-background:new 0 0 24 24;" xml:space="preserve">
<style type="text/css">
	.st0{fill:#D4E5FF;}
	<!-- .st1{fill:#458EF1;} -->
</style>
<circle class="st0" cx="12" cy="12" r="9"/>
<path class="st1" d="M17.7,11.2h-1.1c-0.2,0-0.3,0.1-0.5,0.2c-0.3-1.9-1.7-3.3-3.6-3.6c0.1-0.1,0.2-0.3,0.2-0.5V6.3
	c0-0.4-0.3-0.8-0.8-0.8s-0.8,0.3-0.8,0.8v1.1c0,0.2,0.1,0.3,0.2,0.5c-1.9,0.2-3.3,1.7-3.6,3.5c-0.1-0.1-0.3-0.1-0.4-0.1H6.3
	c-0.4,0-0.8,0.3-0.8,0.8s0.3,0.8,0.8,0.8h1.1c0.2,0,0.3-0.1,0.4-0.1c0.3,1.9,1.7,3.3,3.6,3.6c-0.1,0.1-0.1,0.2-0.1,0.4v1.1
	c0,0.4,0.3,0.8,0.8,0.8s0.8-0.3,0.8-0.8v-1.1c0-0.1-0.1-0.3-0.1-0.4c1.9-0.3,3.3-1.8,3.5-3.6c0.1,0.1,0.3,0.2,0.4,0.2h1.1
	c0.4,0,0.8-0.3,0.8-0.8S18.1,11.2,17.7,11.2z M12,14.8c-1.5,0-2.8-1.2-2.8-2.7c0-1.5,1.2-2.8,2.8-2.8c1.5,0,2.7,1.2,2.7,2.8
	C14.7,13.6,13.5,14.8,12,14.8z"/>
<circle class="st1" cx="12" cy="12" r="1"/>
</svg>
