<?xml version="1.0" standalone="no"?>
<!DOCTYPE svg PUBLIC "-//W3C//DTD SVG 20010904//EN"
 "http://www.w3.org/TR/2001/REC-SVG-20010904/DTD/svg10.dtd">
<svg version="1.0" xmlns="http://www.w3.org/2000/svg"
 width="720.000000pt" height="412.000000pt" viewBox="0 0 720.000000 412.000000"
 preserveAspectRatio="xMidYMid meet">

<g transform="translate(0.000000,412.000000) scale(0.100000,-0.100000)"
fill="#000000" stroke="none">
<path d="M2501 3874 c-38 -19 -62 -40 -82 -72 l-29 -46 0 -682 c0 -375 -3
-689 -6 -698 -5 -14 -62 -16 -536 -16 l-530 0 -29 -29 -29 -29 0 -272 c0 -299
2 -308 62 -329 21 -7 204 -11 543 -11 l512 0 6 -67 c4 -38 7 -311 7 -608 0
-352 4 -535 10 -525 8 12 10 12 11 -5 1 -17 2 -16 9 5 7 22 8 22 10 5 1 -11 2
-24 1 -29 -1 -5 4 -4 13 3 10 8 16 9 21 1 8 -12 25 -4 25 13 0 8 -3 8 -9 -2
-6 -9 -11 -10 -15 -2 -4 6 -2 11 4 11 6 0 8 5 4 12 -5 7 -3 8 7 2 8 -5 23 -9
34 -9 14 0 20 -7 19 -22 0 -12 4 -21 10 -20 5 1 10 -5 11 -13 0 -19 75 -22 82
-3 4 11 8 10 18 -3 9 -14 14 -14 20 -4 6 9 4 11 -6 5 -8 -5 -11 -4 -6 1 15 16
160 14 179 -2 12 -12 18 -12 24 -3 4 7 3 10 -4 5 -6 -3 -13 -2 -16 2 -3 5 7 8
22 7 15 -1 35 6 44 16 34 35 83 35 149 0 34 -17 58 -28 55 -23 -6 10 74 9 91
-1 16 -10 29 16 48 101 12 53 23 77 42 92 30 24 81 26 109 5 18 -14 17 -14 -9
-5 -75 27 -101 4 -122 -104 -8 -43 -18 -82 -21 -87 -3 -5 0 -8 8 -7 7 2 12 -3
11 -10 -4 -17 2 -15 18 5 8 10 9 14 2 10 -6 -4 -14 -4 -17 1 -2 4 25 7 62 7
57 0 67 -3 72 -20 25 -83 84 -149 142 -160 18 -3 411 -5 874 -3 l840 3 37 25
c20 13 45 41 56 61 20 35 21 52 21 385 0 326 -1 350 -20 388 -11 23 -36 52
-57 66 -35 24 -43 25 -220 28 l-183 4 -1 1206 c0 664 -3 1234 -5 1266 -5 75
-40 137 -97 174 l-42 27 -1100 3 -1100 2 -54 -26z m1054 -124 c-3 -4 -1 -19 4
-32 l10 -23 0 23 c1 18 6 23 24 20 18 -2 23 -10 25 -40 l3 -38 -45 2 -46 2 0
47 c0 25 3 49 6 52 9 9 26 -2 19 -13z m375 -35 c0 -30 -4 -55 -9 -55 -9 0 -20
98 -12 106 14 14 21 -3 21 -51z m-1300 38 c0 -3 -7 -15 -17 -25 -15 -17 -14
-18 25 -18 22 0 44 -4 47 -10 4 -6 -12 -10 -41 -10 l-46 0 16 -25 c20 -31 10
-32 -21 -3 -28 26 -28 32 -2 69 19 27 39 38 39 22z m738 -25 l10 -33 1 33 c1
21 6 32 16 32 11 0 15 -12 15 -50 0 -46 -2 -50 -23 -50 -13 0 -28 5 -35 12 -9
9 -15 9 -24 0 -20 -20 -31 -14 -24 13 20 81 46 98 64 43z m140 20 c7 -7 12
-24 12 -38 0 -34 -17 -50 -52 -50 -27 0 -28 2 -28 50 0 48 1 50 28 50 15 0 33
-5 40 -12z m259 -24 c5 -15 7 -15 15 0 11 19 39 21 56 4 9 -9 12 -9 12 0 0 7
11 12 25 12 14 0 25 -4 25 -10 0 -5 -8 -10 -17 -10 -15 0 -15 -1 2 -14 32 -23
12 -44 -42 -44 -26 0 -54 5 -60 11 -9 6 -13 6 -13 -2 0 -6 -7 -11 -15 -11 -10
0 -15 11 -16 33 -1 29 -2 30 -8 7 -10 -39 -42 -70 -73 -70 -27 0 -28 2 -28 48
0 27 3 52 7 55 3 4 33 7 65 7 45 0 60 -4 65 -16z m219 -21 c-1 -31 -5 -39 -23
-41 -16 -2 -23 2 -23 13 0 10 5 13 13 9 8 -6 8 -3 -2 9 -17 21 -8 47 17 47 16
0 19 -7 18 -37z m-258 -545 c16 -16 16 -80 0 -96 -17 -17 -74 -15 -92 4 -9 8
-16 28 -16 44 0 16 7 36 16 44 18 19 75 21 92 4z m-785 -31 c13 -5 17 -15 15
-34 -2 -22 -9 -29 -30 -31 -27 -3 -28 -2 -28 50 1 44 3 50 13 37 7 -8 20 -18
30 -22z m-183 13 c0 -5 -6 -7 -14 -4 -21 8 -41 -33 -25 -52 15 -19 33 -18 25
1 -3 9 0 15 10 15 9 0 14 -7 12 -17 -2 -13 -13 -18 -33 -18 -25 0 -30 4 -33
28 -2 16 2 35 9 43 13 16 49 19 49 4z m42 -42 c2 -21 0 -38 -4 -38 -4 0 -8 21
-7 48 1 52 6 48 11 -10z m268 7 c0 -25 -4 -45 -10 -45 -5 0 -10 20 -10 45 0
25 5 45 10 45 6 0 10 -20 10 -45z m105 15 c0 -18 -6 -26 -22 -28 -12 -2 -24
-11 -26 -20 -3 -9 -5 5 -6 31 -1 47 0 48 27 45 21 -2 27 -8 27 -28z m212 -8
c-8 -10 -8 -19 1 -33 10 -15 9 -19 -2 -19 -14 0 -27 54 -19 77 4 9 8 9 18 0 9
-9 10 -16 2 -25z m563 4 c0 -32 -2 -34 -35 -33 -19 1 -35 2 -35 3 0 2 5 15 10
29 7 18 15 25 25 21 8 -3 17 -1 20 4 11 18 15 11 15 -24z m66 21 c8 3 14 1 14
-3 0 -5 31 -8 70 -7 60 3 70 1 71 -15 1 -16 2 -16 6 1 4 15 20 17 129 19 68 0
129 1 136 2 6 1 12 -11 12 -25 1 -21 -3 -26 -21 -26 -16 0 -23 6 -24 21 -2 20
-2 20 -6 -1 -4 -19 -10 -23 -44 -21 -28 1 -39 6 -40 17 0 12 -3 11 -9 -4 l-9
-20 -1 20 c-2 17 -3 17 -7 3 -3 -12 -14 -18 -34 -18 -20 0 -29 5 -30 18 -1 16
-2 16 -6 0 -4 -16 -18 -17 -129 -16 l-124 2 0 26 c0 31 10 44 23 31 5 -5 16
-7 23 -4z m-1141 -42 c0 -25 -4 -30 -25 -30 -28 0 -39 27 -19 51 20 24 44 13
44 -21z m153 -3 c3 -28 0 -32 -22 -32 -34 0 -41 16 -14 34 19 14 20 16 5 16
-10 0 -15 5 -12 11 14 21 40 4 43 -29z m217 3 c0 -25 -4 -30 -25 -30 -28 0
-39 27 -19 51 20 24 44 13 44 -21z m65 25 c0 -5 -7 -7 -15 -4 -8 4 -15 2 -15
-4 0 -5 7 -12 15 -16 24 -9 18 -36 -7 -35 -22 0 -22 1 -3 9 18 7 19 8 3 15
-25 10 -23 45 2 45 11 0 20 -4 20 -10z m40 -31 c0 -16 -4 -29 -10 -29 -5 0
-10 16 -10 36 0 21 4 33 10 29 6 -3 10 -19 10 -36z m77 -11 c-2 -13 -4 -5 -4
17 -1 22 1 32 4 23 2 -10 2 -28 0 -40z m78 17 c0 -25 -4 -30 -25 -30 -28 0
-39 27 -19 51 20 24 44 13 44 -21z m83 -2 c2 -19 -1 -33 -7 -33 -6 0 -11 14
-11 31 0 17 -4 28 -10 24 -5 -3 -10 -17 -10 -31 0 -13 -4 -24 -10 -24 -5 0
-10 16 -10 36 0 33 2 35 28 32 22 -2 28 -8 30 -35z m-828 -162 c0 -4 12 -6 26
-3 16 3 30 -1 35 -9 6 -10 9 -10 9 -1 0 8 18 12 55 12 30 0 55 -3 55 -7 0 -16
-18 -35 -27 -30 -5 3 -48 7 -95 8 -78 1 -85 3 -81 20 5 19 23 27 23 10z m1051
-164 c19 -12 55 -52 81 -87 26 -36 56 -74 68 -86 11 -12 20 -29 20 -38 0 -18
28 -66 45 -78 5 -4 6 -8 2 -8 -4 0 6 -21 23 -46 18 -25 30 -48 27 -50 -5 -5
-97 134 -97 147 0 4 -11 10 -25 13 -20 5 -25 12 -23 34 2 35 -37 104 -91 160
-45 46 -83 54 -126 26 -24 -16 -102 -124 -149 -209 -46 -82 -108 -176 -113
-171 -3 3 9 25 27 50 17 25 27 46 23 46 -4 0 -3 4 3 8 6 4 37 51 69 104 69
115 107 163 149 189 39 24 46 24 87 -4z m-1421 -537 c11 -11 20 -27 20 -35 0
-10 10 -15 30 -15 20 0 30 5 30 15 0 32 38 55 89 55 52 0 74 -13 86 -50 4 -13
15 -20 31 -20 l24 0 0 -145 0 -145 -65 0 -66 0 3 82 c3 71 5 81 22 84 10 1 26
11 35 20 15 17 15 17 -1 5 -11 -8 -40 -12 -82 -9 -62 3 -79 -7 -26 -15 24 -4
25 -7 28 -85 l3 -82 -111 0 -110 0 0 80 0 81 30 6 c54 10 40 18 -26 15 -42 -3
-71 1 -82 9 -16 12 -16 12 -1 -5 9 -9 25 -19 35 -20 17 -3 19 -13 22 -84 l3
-82 -415 0 c-364 0 -417 2 -430 16 -13 12 -16 39 -16 133 0 78 4 121 12 129 9
9 109 12 390 12 329 0 378 2 378 15 0 32 38 55 90 55 37 0 55 -5 70 -20z
m2135 -30 c36 -8 35 -9 -15 -4 -76 7 -220 35 -220 44 0 6 124 -16 235 -40z
m-939 -9 c121 -55 163 -225 78 -316 -23 -24 -27 -26 -40 -13 -13 13 -12 20 10
63 31 57 32 86 7 142 -44 95 -163 115 -239 40 -30 -30 -36 -44 -40 -91 -3 -44
0 -63 17 -91 24 -41 27 -61 9 -67 -23 -9 -38 3 -60 45 -41 80 -21 193 44 254
54 50 146 65 214 34z m272 -8 c-24 -6 -23 -20 2 -28 11 -3 20 -15 20 -26 0
-14 -7 -19 -27 -18 -24 2 -25 2 -5 6 28 6 28 17 0 35 -24 16 -17 39 10 37 15
-1 15 -2 0 -6z m292 -33 c0 -36 -3 -40 -24 -40 -13 0 -26 6 -29 13 -6 18 11
47 28 47 8 0 15 5 15 10 0 6 2 10 5 10 3 0 5 -18 5 -40z m-224 -30 c16 0 19
36 4 43 -6 3 -5 4 2 3 23 -4 22 -47 -1 -53 -11 -3 -22 -12 -24 -22 -3 -9 -5 7
-4 34 0 28 2 38 4 23 2 -16 11 -28 19 -28z m65 41 c-8 -5 -12 -18 -8 -30 3
-12 1 -19 -4 -15 -20 12 -8 54 15 54 6 0 5 -4 -3 -9z m84 -2 c11 -16 1 -19
-13 -3 -7 8 -8 14 -3 14 5 0 13 -5 16 -11z m-29 -34 c1 -8 -2 -13 -7 -9 -5 3
-9 12 -9 21 0 19 13 9 16 -12z m-481 -159 c60 -53 47 -68 -31 -38 -51 20 -71
55 -42 73 19 13 19 13 73 -35z m313 17 c-32 -5 -38 -33 -8 -33 11 0 20 -4 20
-10 0 -5 -9 -10 -19 -10 -12 0 -21 -8 -24 -22 -2 -13 -5 1 -6 30 l-1 52 33 -1
c30 -2 30 -2 5 -6z m224 -31 c-16 -5 -16 -49 1 -55 7 -3 5 -6 -5 -6 -21 -1
-33 38 -24 74 6 24 8 25 24 9 12 -13 13 -19 4 -22z m-134 -25 c3 -37 2 -38
-25 -35 -28 3 -39 28 -15 36 7 2 10 -2 6 -12 -4 -11 -1 -16 10 -16 12 0 16 7
13 28 -3 17 -10 27 -20 26 -9 -1 -14 2 -11 8 14 23 39 2 42 -35z m57 29 c-18
-13 -18 -14 3 -25 12 -6 22 -18 22 -25 0 -18 -23 -27 -41 -15 -10 6 -8 9 11 9
l25 1 -24 19 c-25 22 -22 50 6 50 15 0 15 -1 -2 -14z m-867 -548 c16 -16 16
-80 0 -96 -17 -17 -74 -15 -92 4 -18 18 -21 56 -6 85 12 22 78 27 98 7z m-472
-11 c-17 -12 -17 -14 9 -31 21 -14 24 -20 14 -32 -6 -8 -19 -13 -28 -13 -13 1
-13 2 2 6 23 6 22 19 -4 37 -25 17 -20 46 8 46 16 0 15 -1 -1 -13z m324 -30
c0 -38 -3 -43 -24 -45 -17 -1 -27 5 -31 19 -7 22 10 49 31 49 8 0 14 5 14 10
0 6 2 10 5 10 3 0 5 -19 5 -43z m341 21 c0 -10 2 -10 6 0 9 23 23 12 23 -19 0
-28 -2 -31 -25 -25 -15 4 -25 2 -25 -4 0 -6 -4 -9 -9 -5 -6 3 -6 17 1 35 10
30 27 41 29 18z m79 0 c0 -9 4 -8 11 2 6 9 12 11 15 5 2 -6 31 -9 65 -8 60 2
60 2 57 -25 -3 -23 -7 -26 -47 -28 -23 -1 -58 2 -77 6 -20 5 -34 4 -34 -2 0
-5 -4 -6 -10 -3 -16 10 -12 65 5 65 8 0 15 -6 15 -12z m454 -21 c0 -15 -3 -27
-7 -27 -4 0 -13 0 -21 0 -8 0 -17 8 -19 18 -4 14 -5 14 -6 -3 -1 -17 -8 -20
-51 -20 -43 0 -50 3 -51 20 -1 15 -2 16 -6 4 -6 -24 -45 -32 -59 -13 -7 8 -14
10 -15 5 -2 -6 -15 -12 -29 -13 -21 -3 -25 1 -27 27 -2 29 -2 29 7 5 8 -24 8
-24 9 -3 1 22 4 22 121 21 66 -1 123 2 127 5 13 14 27 0 27 -26z m-1118 -37
c16 0 20 46 4 53 -6 3 -5 4 2 3 7 -1 14 -15 16 -30 3 -21 -1 -29 -17 -33 -11
-3 -22 -12 -24 -22 -3 -9 -4 9 -4 39 0 31 2 41 4 23 3 -20 10 -33 19 -33z m88
51 c3 -5 -2 -8 -10 -7 -26 2 -26 -34 -1 -44 l22 -9 -22 0 c-13 -1 -24 7 -28
19 -10 31 24 66 39 41z m74 -3 c15 -15 16 -28 2 -28 -5 0 -9 6 -7 13 1 6 -4
12 -10 12 -7 0 -13 -3 -13 -7 0 -5 0 -14 0 -22 0 -8 6 -16 13 -19 8 -3 7 -4
-2 -3 -24 2 -37 32 -22 50 16 19 23 20 39 4z m-68 -200 c0 -12 -12 -17 -50
-20 -61 -4 -70 -1 -70 20 0 14 11 17 60 17 49 0 60 -3 60 -17z m1691 -195 c0
-16 3 -22 6 -15 6 16 73 16 73 0 0 -9 3 -9 12 0 7 7 27 12 45 12 23 0 33 5 33
15 0 8 5 15 10 15 6 0 10 -16 10 -35 0 -24 5 -35 14 -35 21 0 30 -20 17 -33
-9 -9 -14 -9 -20 1 -4 7 -23 13 -42 12 -78 0 -89 1 -89 10 0 6 -5 10 -11 10
-5 0 -8 -4 -5 -9 8 -13 -11 -18 -46 -13 -26 4 -28 8 -28 48 0 47 19 62 21 17z
m-461 6 c0 -8 5 -7 15 1 21 17 27 8 28 -37 1 -35 -1 -38 -24 -34 -13 1 -27 8
-30 13 -4 7 -9 6 -13 -1 -10 -16 -26 -14 -26 3 0 29 20 66 35 66 8 0 15 -5 15
-11z m406 -3 c10 -11 11 -15 1 -19 -9 -3 -9 -9 0 -25 13 -22 8 -33 -13 -25 -9
3 -14 20 -14 44 0 42 4 46 26 25z m-255 -28 l2 -23 4 23 c4 21 8 22 109 21
l104 -1 0 -29 c0 -34 -19 -40 -21 -6 -2 21 -2 21 -6 1 -3 -14 -14 -24 -30 -27
-36 -7 -53 1 -54 27 -2 20 -2 20 -6 -1 -2 -13 -11 -23 -19 -23 -8 0 -15 10
-15 23 l-2 22 -4 -22 c-2 -13 -12 -23 -21 -24 -98 -4 -105 -3 -115 12 -17 28
-1 49 38 49 29 0 35 -4 36 -22z m234 -144 c0 -34 -3 -39 -24 -42 -13 -2 -28 2
-32 10 -7 10 -9 10 -9 0 0 -9 -27 -12 -111 -11 -84 2 -113 -1 -119 -11 -6 -10
-12 -11 -22 -3 -7 7 -34 13 -58 15 -41 3 -45 6 -48 31 -2 15 0 27 5 28 56 5
206 2 210 -3 2 -5 13 -3 24 2 10 6 19 8 19 4 0 -3 7 -1 15 6 12 10 18 10 30 0
8 -6 19 -9 25 -5 6 4 17 2 25 -5 11 -9 18 -7 32 8 26 29 38 21 38 -24z m475
19 c0 -12 3 -13 15 -3 20 17 35 4 35 -31 0 -27 -3 -29 -35 -29 -35 0 -35 0
-35 46 0 27 4 43 10 39 6 -3 10 -13 10 -22z m-1035 -3 c3 -5 12 -7 20 -3 10 3
15 -2 16 -18 2 -22 2 -23 6 -3 2 13 14 24 28 26 28 6 53 -6 36 -16 -6 -4 -11
-16 -11 -26 0 -17 -8 -19 -70 -18 -57 0 -70 3 -71 17 0 9 -5 4 -11 -11 -12
-34 -36 -37 -35 -5 0 12 -4 31 -8 41 -7 15 -5 18 7 13 9 -3 29 -2 45 3 38 11
41 11 48 0z m986 -19 c5 -12 7 -27 3 -32 -3 -5 -36 -9 -73 -9 -61 0 -69 2 -79
23 -9 18 -11 19 -11 4 -1 -10 -7 -25 -15 -33 -19 -18 -66 -19 -66 0 0 9 -8 12
-25 8 -19 -3 -27 1 -34 19 l-10 24 0 -24 c-1 -15 -6 -21 -15 -18 -7 3 -26 -1
-41 -9 -15 -8 -29 -14 -31 -14 -5 0 -5 76 0 81 2 2 91 4 197 4 191 0 192 -1
200 -24z m-2113 -94 c6 3 12 0 12 -7 0 -15 -53 -7 -58 9 -3 10 1 10 14 3 11
-5 25 -7 32 -5z m86 -8 c-6 -10 -64 -8 -64 2 0 4 16 7 35 7 19 0 32 -4 29 -9z
m546 -39 c0 -6 -89 -9 -252 -8 l-253 2 250 6 c138 3 251 7 253 8 1 1 2 -2 2
-8z m328 -97 c2 -8 -5 -13 -17 -13 -12 0 -21 -4 -21 -10 0 -5 7 -10 15 -10 19
0 20 -19 1 -26 -8 -3 -16 -14 -19 -25 -3 -13 -11 -17 -21 -13 -20 8 -22 84 -4
102 16 16 60 12 66 -5z m281 5 c-4 -32 1 -42 13 -30 18 18 55 15 67 -5 10 -17
10 -17 11 -1 0 14 11 17 68 17 l69 0 0 -32 c0 -44 -12 -56 -55 -53 -31 3 -38
8 -43 32 l-7 29 -1 -27 c-1 -34 -21 -47 -28 -19 l-6 22 -14 -21 c-17 -24 -36
-26 -56 -5 -12 11 -16 12 -20 2 -3 -7 -20 -13 -38 -12 -29 0 -34 4 -39 29 -3
17 -8 29 -12 28 -5 -1 -15 -2 -23 -2 -22 0 -18 -21 5 -27 24 -6 26 -21 5 -30
-9 -3 -24 2 -34 11 -15 14 -19 14 -24 3 -3 -8 -18 -14 -34 -13 -25 1 -28 4
-26 34 1 41 -20 38 -27 -4 -7 -41 -24 -32 -28 16 l-3 40 54 0 c43 0 56 -4 62
-17 6 -17 7 -17 16 0 6 10 22 17 39 17 15 0 30 6 33 13 4 10 7 10 18 0 18 -17
29 -16 29 2 0 8 7 15 15 15 9 0 15 -6 14 -12z m499 -45 c-3 -50 -5 -56 -27
-60 -13 -2 -29 2 -36 7 -9 8 -15 8 -20 0 -12 -20 -25 -10 -25 20 0 36 -17 40
-22 5 -5 -42 -23 -33 -26 13 -3 42 -3 42 32 42 19 0 37 -6 40 -12 5 -10 7 -10
12 0 3 6 14 12 25 12 10 0 19 7 19 15 0 8 7 15 15 15 13 0 15 -11 13 -57z
m103 47 c10 -6 19 -18 19 -27 0 -13 3 -14 12 -5 16 16 58 16 58 0 0 -9 3 -9
12 0 14 14 58 16 58 2 0 -5 -7 -13 -16 -18 -19 -10 -11 -32 12 -32 10 0 14 12
14 45 0 34 4 45 15 45 13 0 15 -11 13 -56 l-3 -56 -37 -4 c-23 -2 -41 2 -49
12 -10 12 -13 12 -24 -2 -12 -17 -55 -12 -55 6 0 5 -13 2 -28 -7 -46 -26 -62
-13 -62 52 0 49 2 55 21 55 11 0 29 -5 40 -10z m439 -9 c0 -17 5 -19 33 -14
32 5 33 4 34 -36 2 -42 -9 -52 -52 -47 -37 4 -45 16 -45 67 0 37 4 49 15 49 8
0 15 -9 15 -19z m-715 -55 c0 -30 -4 -40 -19 -42 -42 -6 -52 17 -37 84 1 2 13
2 29 0 24 -3 27 -7 27 -42z m606 14 l7 -25 1 28 c1 23 5 27 31 27 29 0 30 -2
30 -43 0 -39 -2 -43 -25 -42 -14 0 -29 6 -34 13 -7 11 -9 10 -15 -3 -8 -23
-26 -9 -26 21 0 13 -4 24 -10 24 -5 0 -10 -13 -10 -30 0 -16 -4 -30 -10 -30
-5 0 -10 14 -10 30 0 38 -18 40 -22 3 -5 -43 -23 -33 -26 15 l-3 43 57 -3 c52
-3 59 -6 65 -28z m-2508 -35 c-3 -9 -8 -14 -10 -11 -3 3 -2 9 2 15 9 16 15 13
8 -4z m171 -56 c3 -2 -10 -5 -29 -5 -18 0 -32 3 -30 7 5 7 52 6 59 -2z"/>
<path d="M3470 3710 c0 -16 4 -30 9 -30 13 0 21 27 15 45 -10 25 -24 17 -24
-15z"/>
<path d="M3687 3700 c-3 -11 -1 -23 4 -26 5 -3 9 6 9 20 0 31 -6 34 -13 6z"/>
<path d="M3800 3700 c0 -19 3 -21 12 -12 9 9 9 15 0 24 -9 9 -12 7 -12 -12z"/>
<path d="M3846 3692 c-3 -5 1 -9 9 -9 8 0 12 4 9 9 -3 4 -7 8 -9 8 -2 0 -6 -4
-9 -8z"/>
<path d="M2927 3113 c-11 -10 -8 -43 3 -43 6 0 10 11 10 25 0 26 -2 29 -13 18z"/>
<path d="M3136 3133 c-12 -12 -6 -33 9 -33 8 0 15 6 15 14 0 17 -14 28 -24 19z"/>
<path d="M2840 3089 c0 -24 23 -21 28 4 2 10 -3 17 -12 17 -10 0 -16 -9 -16
-21z"/>
<path d="M2990 3080 c0 -5 5 -10 10 -10 6 0 10 5 10 10 0 6 -4 10 -10 10 -5 0
-10 -4 -10 -10z"/>
<path d="M3217 3114 c-11 -11 -8 -44 3 -44 15 0 24 30 13 41 -5 5 -12 6 -16 3z"/>
<path d="M3470 3090 c0 -13 5 -20 13 -17 6 2 12 10 12 17 0 7 -6 15 -12 18 -8
2 -13 -5 -13 -18z"/>
<path d="M4110 2140 c0 -11 7 -20 15 -20 8 0 15 9 15 20 0 11 -7 20 -15 20 -8
0 -15 -9 -15 -20z"/>
<path d="M2963 1364 c-8 -21 13 -42 28 -27 13 13 5 43 -11 43 -6 0 -13 -7 -17
-16z"/>
<path d="M4180 950 c0 -5 7 -10 15 -10 8 0 15 5 15 10 0 6 -7 10 -15 10 -8 0
-15 -4 -15 -10z"/>
<path d="M4300 805 c0 -8 7 -15 15 -15 8 0 15 4 15 9 0 5 -7 11 -15 15 -9 3
-15 0 -15 -9z"/>
<path d="M4351 804 c0 -11 3 -14 6 -6 3 7 2 16 -1 19 -3 4 -6 -2 -5 -13z"/>
<path d="M4441 804 c0 -11 3 -14 6 -6 3 7 2 16 -1 19 -3 4 -6 -2 -5 -13z"/>
<path d="M4950 800 c0 -5 5 -10 11 -10 5 0 7 5 4 10 -3 6 -8 10 -11 10 -2 0
-4 -4 -4 -10z"/>
<path d="M3890 806 c0 -9 5 -16 10 -16 6 0 10 4 10 9 0 6 -4 13 -10 16 -5 3
-10 -1 -10 -9z"/>
<path d="M4520 800 c0 -5 5 -10 10 -10 6 0 10 5 10 10 0 6 -4 10 -10 10 -5 0
-10 -4 -10 -10z"/>
<path d="M4620 800 c0 -5 5 -10 10 -10 6 0 10 5 10 10 0 6 -4 10 -10 10 -5 0
-10 -4 -10 -10z"/>
<path d="M3975 530 c-7 -12 2 -30 16 -30 5 0 9 9 9 20 0 21 -15 27 -25 10z"/>
<path d="M4060 521 c0 -6 5 -13 10 -16 6 -3 10 1 10 9 0 9 -4 16 -10 16 -5 0
-10 -4 -10 -9z"/>
<path d="M4480 521 c0 -6 5 -13 10 -16 6 -3 10 1 10 9 0 9 -4 16 -10 16 -5 0
-10 -4 -10 -9z"/>
<path d="M4600 530 c0 -18 4 -29 10 -25 6 3 10 15 10 25 0 10 -4 22 -10 25 -6
4 -10 -7 -10 -25z"/>
<path d="M5075 510 c3 -5 8 -10 11 -10 2 0 4 5 4 10 0 6 -5 10 -11 10 -5 0 -7
-4 -4 -10z"/>
<path d="M2504 480 c2 -16 20 -14 24 2 3 10 2 10 -6 -1 -7 -9 -11 -10 -15 -2
-4 7 -5 8 -3 1z"/>
<path d="M2950 451 c0 -4 -10 -8 -22 -7 -11 0 -23 -6 -25 -14 -4 -13 -3 -13 6
0 10 14 16 7 12 -14 -1 -5 4 -5 11 1 7 6 18 13 23 15 6 1 9 6 8 9 -3 9 45 4
54 -5 5 -5 2 -6 -6 -1 -10 6 -12 4 -6 -4 5 -9 11 -9 17 -3 6 6 7 15 4 21 -8
13 -76 15 -76 2z"/>
<path d="M2876 423 c-6 -14 -5 -15 5 -6 7 7 10 15 7 18 -3 3 -9 -2 -12 -12z"/>
<path d="M3135 429 c5 -7 52 -6 59 2 3 2 -10 5 -29 5 -18 0 -32 -3 -30 -7z"/>
<path d="M3336 429 c2 -4 12 -6 22 -4 9 1 22 -1 28 -6 6 -5 11 -4 11 4 0 8
-13 13 -33 13 -18 0 -31 -3 -28 -7z"/>
</g>
</svg>
