<?xml version="1.0" encoding="UTF-8"?>
<!DOCTYPE svg PUBLIC "-//W3C//DTD SVG 1.1//EN" "http://www.w3.org/Graphics/SVG/1.1/DTD/svg11.dtd">
<svg xmlns="http://www.w3.org/2000/svg" version="1.1" width="720px" height="414px" style="shape-rendering:geometricPrecision; text-rendering:geometricPrecision; image-rendering:optimizeQuality; fill-rule:evenodd; clip-rule:evenodd" xmlns:xlink="http://www.w3.org/1999/xlink">
<g><path style="opacity:0.046" fill="#000101" d="M 547.5,96.5 C 543.871,93.983 540.204,93.983 536.5,96.5C 536.667,82.8293 536.5,69.1626 536,55.5C 534.325,49.1587 530.492,44.6587 524.5,42C 434.833,41.3333 345.167,41.3333 255.5,42C 249.667,43.8333 245.833,47.6667 244,53.5C 243.5,63.1609 243.334,72.8276 243.5,82.5C 243.5,84.5 243.5,86.5 243.5,88.5C 212.995,88.1685 182.662,88.5019 152.5,89.5C 146.352,90.8087 142.186,94.4753 140,100.5C 139.333,144.167 139.333,187.833 140,231.5C 142.384,237.275 146.551,241.108 152.5,243C 175.164,243.5 197.831,243.667 220.5,243.5C 220.168,275.004 220.502,306.338 221.5,337.5C 223.387,344.22 227.72,348.387 234.5,350C 345.21,350.992 455.876,350.658 566.5,349C 571.59,346.249 574.757,342.083 576,336.5C 576.667,289.833 576.667,243.167 576,196.5C 575.27,191.607 572.77,187.94 568.5,185.5C 569.811,182.865 571.478,180.531 573.5,178.5C 580.971,181.766 585.471,187.1 587,194.5C 587.175,210.741 587.675,226.907 588.5,243C 588.318,275.751 587.818,308.584 587,341.5C 582.858,353.965 574.191,360.965 561,362.5C 455.466,362.189 349.8,362.189 244,362.5C 225.427,361.993 214.76,352.993 212,335.5C 211.667,309.167 211.333,282.833 211,256.5C 190.864,255.945 170.697,255.112 150.5,254C 148.521,252.792 146.355,251.959 144,251.5C 142.687,249.383 140.853,247.883 138.5,247C 134.141,240.263 131.141,232.93 129.5,225C 130.358,223.43 131.025,221.763 131.5,220C 130.173,189.356 130.173,158.523 131.5,127.5C 129.487,124.859 129.487,122.025 131.5,119C 131.014,115.469 130.68,111.636 130.5,107.5C 131.587,101.625 133.253,95.9588 135.5,90.5C 138.78,88.138 142.114,85.638 145.5,83C 149.543,81.2834 153.71,80.1167 158,79.5C 176.34,79.2455 193.84,79.5789 210.5,80.5C 218.118,79.6986 225.784,79.1986 233.5,79C 233.434,67.5491 235.267,56.3824 239,45.5C 243.114,39.7251 248.614,35.8917 255.5,34C 259.089,33.7931 262.589,33.2931 266,32.5C 350.734,33.6996 435.4,33.6996 520,32.5C 531.166,33.6379 539.499,38.9712 545,48.5C 547.848,64.8082 548.682,80.8082 547.5,96.5 Z"/></g>
<g><path style="opacity:1" fill="#fcfcfc" d="M 536.5,96.5 C 534.9,97.6444 533.233,98.8111 531.5,100C 527.167,100.333 522.833,100.667 518.5,101C 515.008,103.793 512.341,107.293 510.5,111.5C 507.337,113.916 504.004,116.082 500.5,118C 499.874,118.75 499.374,119.584 499,120.5C 499.627,128.337 497.627,135.337 493,141.5C 492.333,143.167 492.333,144.833 493,146.5C 497.72,153.044 499.72,160.377 499,168.5C 502.812,171.64 506.645,174.64 510.5,177.5C 510.631,178.239 510.464,178.906 510,179.5C 501.14,178.554 492.14,178.554 483,179.5C 478.016,178.017 475.516,174.684 475.5,169.5C 476.123,151.472 476.456,133.472 476.5,115.5C 477.237,100.107 470.404,90.1067 456,85.5C 385.68,84.8069 315.18,84.8069 244.5,85.5C 244.737,84.209 244.404,83.209 243.5,82.5C 243.334,72.8276 243.5,63.1609 244,53.5C 245.833,47.6667 249.667,43.8333 255.5,42C 345.167,41.3333 434.833,41.3333 524.5,42C 530.492,44.6587 534.325,49.1587 536,55.5C 536.5,69.1626 536.667,82.8293 536.5,96.5 Z"/></g>
<g><path style="opacity:1" fill="#c51438" d="M 347.5,57.5 C 348.5,57.5 349.5,57.5 350.5,57.5C 350.5,60.1667 350.5,62.8333 350.5,65.5C 353.287,66.4767 356.287,66.81 359.5,66.5C 359.5,67.5 359.5,68.5 359.5,69.5C 356.287,69.19 353.287,69.5233 350.5,70.5C 350.5,73.1667 350.5,75.8333 350.5,78.5C 349.209,78.7373 348.209,78.404 347.5,77.5C 347.768,74.8806 347.435,72.3806 346.5,70C 343.854,69.5026 341.187,69.3359 338.5,69.5C 338.5,68.5 338.5,67.5 338.5,66.5C 341.5,66.5 344.5,66.5 347.5,66.5C 347.5,63.5 347.5,60.5 347.5,57.5 Z"/></g>
<g><path style="opacity:1" fill="#242c7c" d="M 342.5,58.5 C 343.5,58.5 344.5,58.5 345.5,58.5C 346.331,63.1447 345.164,64.1447 342,61.5C 341.53,60.4232 341.697,59.4232 342.5,58.5 Z"/></g>
<g><path style="opacity:1" fill="#687093" d="M 354.5,58.5 C 353.414,58.62 352.747,59.2867 352.5,60.5C 352.833,61.1667 353.167,61.8333 353.5,62.5C 354.417,61.8728 355.417,61.5394 356.5,61.5C 356.027,62.9063 355.027,63.573 353.5,63.5C 351.692,62.0821 351.025,60.0821 351.5,57.5C 352.791,57.2627 353.791,57.596 354.5,58.5 Z"/></g>
<g><path style="opacity:1" fill="#1e267d" d="M 354.5,58.5 C 355.167,59.5 355.833,60.5 356.5,61.5C 355.417,61.5394 354.417,61.8728 353.5,62.5C 353.167,61.8333 352.833,61.1667 352.5,60.5C 352.747,59.2867 353.414,58.62 354.5,58.5 Z"/></g>
<g><path style="opacity:1" fill="#ffcc37" d="M 433.5,62.5 C 434.947,63.6222 435.947,65.1222 436.5,67C 441.401,67.58 441.735,69.2467 437.5,72C 438.96,76.8704 437.626,77.7037 433.5,74.5C 432.5,75.1667 431.5,75.8333 430.5,76.5C 430.016,73.3736 428.683,70.7069 426.5,68.5C 430.279,68.0755 432.612,66.0755 433.5,62.5 Z"/></g>
<g><path style="opacity:1" fill="#ffcd3c" d="M 468.5,62.5 C 469.965,63.4057 470.965,64.739 471.5,66.5C 473.167,67.1667 474.833,67.8333 476.5,68.5C 474.135,70.5877 473.135,73.2544 473.5,76.5C 471.61,76.7035 470.11,76.0368 469,74.5C 467.915,75.2931 466.748,75.9598 465.5,76.5C 464.692,74.5767 464.192,72.5767 464,70.5C 463.075,69.9535 462.242,69.2868 461.5,68.5C 465.687,68.5544 468.02,66.5544 468.5,62.5 Z"/></g>
<g><path style="opacity:1" fill="#ffcd3d" d="M 503.5,62.5 C 505.085,63.4737 506.085,64.9737 506.5,67C 508.256,67.2022 509.922,67.7022 511.5,68.5C 509.317,70.7069 507.984,73.3736 507.5,76.5C 504.866,75.484 502.2,75.484 499.5,76.5C 500.172,73.0921 499.172,70.4255 496.5,68.5C 500.68,68.554 503.013,66.554 503.5,62.5 Z"/></g>
<g><path style="opacity:1" fill="#657193" d="M 272.5,64.5 C 278.911,63.2187 280.578,65.2187 277.5,70.5C 278.167,71.5 278.833,72.5 279.5,73.5C 279.167,73.8333 278.833,74.1667 278.5,74.5C 277.52,73.0186 276.353,71.6853 275,70.5C 274.781,71.938 274.281,73.2713 273.5,74.5C 272.513,71.2317 272.18,67.8984 272.5,64.5 Z"/></g>
<g><path style="opacity:1" fill="#e38c9e" d="M 347.5,57.5 C 347.5,60.5 347.5,63.5 347.5,66.5C 344.5,66.5 341.5,66.5 338.5,66.5C 339.263,65.7321 340.263,65.2321 341.5,65C 340.044,64.5774 339.544,63.7441 340,62.5C 341.87,64.2189 344.037,65.2189 346.5,65.5C 346.194,62.6146 346.527,59.9479 347.5,57.5 Z"/></g>
<g><path style="opacity:1" fill="#e18395" d="M 356.5,61.5 C 357.376,61.3691 358.043,61.7025 358.5,62.5C 357.335,63.5836 356.002,64.4169 354.5,65C 356.382,65.1981 358.048,65.6981 359.5,66.5C 356.287,66.81 353.287,66.4767 350.5,65.5C 352.027,65.573 353.027,64.9063 353.5,63.5C 355.027,63.573 356.027,62.9063 356.5,61.5 Z"/></g>
<g><path style="opacity:1" fill="#ffcc3a" d="M 485.5,62.5 C 487.741,63.2998 488.741,64.9664 488.5,67.5C 490.288,67.2148 491.955,67.5481 493.5,68.5C 492.289,69.8745 491.289,71.3745 490.5,73C 491.26,77.0784 489.927,77.5784 486.5,74.5C 482.379,78.9658 481.046,78.2992 482.5,72.5C 481.751,70.9644 480.751,69.6311 479.5,68.5C 481.045,67.5481 482.712,67.2148 484.5,67.5C 484.629,65.7839 484.962,64.1172 485.5,62.5 Z"/></g>
<g><path style="opacity:1" fill="#ffcb36" d="M 450.5,63.5 C 452.409,66.0913 455.075,67.758 458.5,68.5C 457.289,69.8745 456.289,71.3745 455.5,73C 456.26,77.0784 454.927,77.5784 451.5,74.5C 450.032,76.3329 448.365,76.6662 446.5,75.5C 447.428,74.2322 447.595,72.8989 447,71.5C 443.67,68.4034 444.504,67.07 449.5,67.5C 449.433,66.0413 449.766,64.7079 450.5,63.5 Z"/></g>
<g><path style="opacity:1" fill="#626e8f" d="M 280.5,66.5 C 281.748,67.3339 282.415,68.6672 282.5,70.5C 282.167,71.8333 281.833,73.1667 281.5,74.5C 280.52,71.9135 280.187,69.2469 280.5,66.5 Z"/></g>
<g><path style="opacity:1" fill="#6a7696" d="M 289.5,63.5 C 291.048,63.8212 291.715,64.8212 291.5,66.5C 293.144,66.2865 294.644,66.6198 296,67.5C 296.667,69.8333 296.667,72.1667 296,74.5C 295.505,72.5273 295.338,70.5273 295.5,68.5C 294.167,68.5 292.833,68.5 291.5,68.5C 291.5,70.5 291.5,72.5 291.5,74.5C 284.893,76.251 282.393,73.9177 284,67.5C 285.699,66.5939 287.533,66.2606 289.5,66.5C 289.5,65.5 289.5,64.5 289.5,63.5 Z"/></g>
<g><path style="opacity:1" fill="#fdfdfd" d="M 285.5,68.5 C 286.833,68.5 288.167,68.5 289.5,68.5C 289.5,69.8333 289.5,71.1667 289.5,72.5C 288.167,72.5 286.833,72.5 285.5,72.5C 285.5,71.1667 285.5,69.8333 285.5,68.5 Z"/></g>
<g><path style="opacity:1" fill="#667394" d="M 315.5,63.5 C 317.414,66.6843 318.08,70.351 317.5,74.5C 312.069,75.9064 309.735,73.9064 310.5,68.5C 309.5,68.5 308.5,68.5 307.5,68.5C 307.799,70.604 307.466,72.604 306.5,74.5C 305.167,71.8333 305.167,69.1667 306.5,66.5C 309.329,67.5009 312.329,67.5009 315.5,66.5C 315.5,65.5 315.5,64.5 315.5,63.5 Z"/></g>
<g><path style="opacity:1" fill="#fcfcfc" d="M 312.5,68.5 C 313.5,68.5 314.5,68.5 315.5,68.5C 315.5,69.8333 315.5,71.1667 315.5,72.5C 314.5,72.5 313.5,72.5 312.5,72.5C 312.5,71.1667 312.5,69.8333 312.5,68.5 Z"/></g>
<g><path style="opacity:1" fill="#546287" d="M 322.5,64.5 C 328.167,64.6636 328.5,64.9969 323.5,65.5C 323.281,66.675 323.614,67.675 324.5,68.5C 328.554,69.4063 329.22,71.2397 326.5,74C 325.167,74.6667 323.833,74.6667 322.5,74C 327.765,72.1765 327.598,70.3432 322,68.5C 321.421,67.0715 321.588,65.7382 322.5,64.5 Z"/></g>
<g><path style="opacity:1" fill="#e798a8" d="M 350.5,70.5 C 353.287,69.5233 356.287,69.19 359.5,69.5C 358.535,70.8758 357.535,72.2092 356.5,73.5C 355.313,71.0246 353.313,70.0246 350.5,70.5 Z"/></g>
<g><path style="opacity:1" fill="#c6a2b4" d="M 338.5,69.5 C 341.187,69.3359 343.854,69.5026 346.5,70C 347.435,72.3806 347.768,74.8806 347.5,77.5C 345.901,77.7678 344.568,77.4345 343.5,76.5C 345.344,75.7961 345.844,74.4628 345,72.5C 344.329,73.2524 343.496,73.5858 342.5,73.5C 340.158,73.2252 340.158,72.3919 342.5,71C 340.942,70.79 339.609,70.29 338.5,69.5 Z"/></g>
<g><path style="opacity:1" fill="#1e267d" d="M 343.5,76.5 C 341.519,75.8946 341.185,74.8946 342.5,73.5C 343.496,73.5858 344.329,73.2524 345,72.5C 345.844,74.4628 345.344,75.7961 343.5,76.5 Z"/></g>
<g><path style="opacity:1" fill="#424786" d="M 356.5,73.5 C 356.033,76.2974 354.367,77.6308 351.5,77.5C 351.338,75.4727 351.505,73.4727 352,71.5C 353.11,73.0368 354.61,73.7035 356.5,73.5 Z"/></g>
<g><path style="opacity:1" fill="#828ca7" d="M 298.5,66.5 C 300.467,66.2606 302.301,66.5939 304,67.5C 304.497,69.8098 304.663,72.1432 304.5,74.5C 302.208,74.7564 300.041,74.4231 298,73.5C 298.031,70.7994 299.531,69.2994 302.5,69C 301.675,67.3117 300.675,67.1451 299.5,68.5C 298.702,68.0431 298.369,67.3764 298.5,66.5 Z"/></g>
<g><path style="opacity:1" fill="#fcfbfb" d="M 152.5,89.5 C 254.167,89.3333 355.834,89.5 457.5,90C 462.359,92.1921 465.859,95.6921 468,100.5C 468.5,143.165 468.667,185.832 468.5,228.5C 466.646,236.52 461.646,241.353 453.5,243C 375.834,243.5 298.167,243.667 220.5,243.5C 197.831,243.667 175.164,243.5 152.5,243C 146.551,241.108 142.384,237.275 140,231.5C 139.333,187.833 139.333,144.167 140,100.5C 142.186,94.4753 146.352,90.8087 152.5,89.5 Z"/></g>
<g><path style="opacity:0.991" fill="#17dbfd" d="M 547.5,96.5 C 553.308,99.9109 559.641,101.411 566.5,101C 570.092,103.669 572.592,107.169 574,111.5C 577.082,113.625 580.249,115.625 583.5,117.5C 584.584,118.665 585.417,119.998 586,121.5C 585.432,128.497 587.099,134.83 591,140.5C 591.667,143.167 591.667,145.833 591,148.5C 589.414,150.67 588.08,153.004 587,155.5C 586.881,160.282 586.215,164.949 585,169.5C 581.188,172.64 577.355,175.64 573.5,178.5C 571.478,180.531 569.811,182.865 568.5,185.5C 566.877,186.491 565.877,185.824 565.5,183.5C 564.766,182.292 564.433,180.959 564.5,179.5C 563.091,177.695 562.591,175.695 563,173.5C 578.734,159.563 581.734,143.23 572,124.5C 560.762,109.811 546.262,105.311 528.5,111C 505.462,124.648 500.629,143.148 514,166.5C 516.885,169.048 519.385,171.882 521.5,175C 520.383,179.025 518.883,182.858 517,186.5C 515.905,185.307 515.072,183.973 514.5,182.5C 513.136,180.809 511.803,179.142 510.5,177.5C 506.645,174.64 502.812,171.64 499,168.5C 499.72,160.377 497.72,153.044 493,146.5C 492.333,144.833 492.333,143.167 493,141.5C 497.627,135.337 499.627,128.337 499,120.5C 499.374,119.584 499.874,118.75 500.5,118C 504.004,116.082 507.337,113.916 510.5,111.5C 512.341,107.293 515.008,103.793 518.5,101C 522.833,100.667 527.167,100.333 531.5,100C 533.233,98.8111 534.9,97.6444 536.5,96.5C 540.204,93.983 543.871,93.983 547.5,96.5 Z"/></g>
<g><path style="opacity:1" fill="#5e5b7d" d="M 226.5,112.5 C 226.5,112.833 226.5,113.167 226.5,113.5C 225.662,113.842 225.328,114.508 225.5,115.5C 225.328,116.492 225.662,117.158 226.5,117.5C 229.008,119.237 232.008,120.07 235.5,120C 231.689,119.917 228.355,120.75 225.5,122.5C 225.833,123.167 226.167,123.833 226.5,124.5C 222.5,124.5 218.5,124.5 214.5,124.5C 214.879,116.787 218.879,112.787 226.5,112.5 Z"/></g>
<g><path style="opacity:1" fill="#e07482" d="M 226.5,112.5 C 228.429,112.231 230.095,112.731 231.5,114C 229.613,114.78 227.946,114.613 226.5,113.5C 226.5,113.167 226.5,112.833 226.5,112.5 Z"/></g>
<g><path style="opacity:1" fill="#ffce43" d="M 405.5,114.5 C 406.837,115.315 407.837,116.482 408.5,118C 413.459,118.028 414.293,119.528 411,122.5C 410.808,124.577 410.308,126.577 409.5,128.5C 407.116,126.278 404.449,125.944 401.5,127.5C 401.986,124.245 400.986,121.578 398.5,119.5C 402.051,119.359 404.384,117.692 405.5,114.5 Z"/></g>
<g><path style="opacity:1" fill="#ffcd3f" d="M 422.5,114.5 C 424.409,117.091 427.075,118.758 430.5,119.5C 428.317,121.707 426.984,124.374 426.5,127.5C 423.799,126.131 421.299,126.464 419,128.5C 420.505,124.52 419.338,121.52 415.5,119.5C 417.396,118.534 419.396,118.201 421.5,118.5C 421.433,117.041 421.766,115.708 422.5,114.5 Z"/></g>
<g><path style="opacity:1" fill="#ffcd3e" d="M 439.5,114.5 C 441.409,117.091 444.075,118.758 447.5,119.5C 446.855,120.646 446.022,121.646 445,122.5C 445.218,124.587 445.051,126.587 444.5,128.5C 442.417,126.396 440.083,126.062 437.5,127.5C 437.016,124.374 435.683,121.707 433.5,119.5C 435.167,118.833 436.833,118.167 438.5,117.5C 439.127,116.583 439.461,115.583 439.5,114.5 Z"/></g>
<g><path style="opacity:1" fill="#c52341" d="M 225.5,115.5 C 228.722,115.108 231.722,115.608 234.5,117C 231.854,117.497 229.187,117.664 226.5,117.5C 225.662,117.158 225.328,116.492 225.5,115.5 Z"/></g>
<g><path style="opacity:1" fill="#ffce44" d="M 370.5,114.5 C 372.409,117.091 375.075,118.758 378.5,119.5C 376.317,121.707 374.984,124.374 374.5,127.5C 371.917,126.062 369.583,126.396 367.5,128.5C 366.956,125.286 365.956,122.286 364.5,119.5C 366.045,118.548 367.712,118.215 369.5,118.5C 369.433,117.041 369.766,115.708 370.5,114.5 Z"/></g>
<g><path style="opacity:1" fill="#ffcd40" d="M 387.5,114.5 C 389.912,114.694 390.912,116.027 390.5,118.5C 392.288,118.215 393.955,118.548 395.5,119.5C 394.5,120.833 393.5,122.167 392.5,123.5C 393.681,125.198 393.681,126.865 392.5,128.5C 389.833,125.833 387.167,125.833 384.5,128.5C 384.167,128.167 383.833,127.833 383.5,127.5C 385.037,124.315 384.37,121.648 381.5,119.5C 383.167,118.833 384.833,118.167 386.5,117.5C 387.127,116.583 387.461,115.583 387.5,114.5 Z"/></g>
<g><path style="opacity:1" fill="#4b5a7f" d="M 183.5,116.5 C 184.787,117.871 185.453,119.705 185.5,122C 185.167,123.833 184.833,125.667 184.5,127.5C 183.511,123.893 183.177,120.226 183.5,116.5 Z"/></g>
<g><path style="opacity:1" fill="#4a5a82" d="M 197.5,117.5 C 198.477,120.287 198.81,123.287 198.5,126.5C 203.5,127.003 203.167,127.336 197.5,127.5C 197.5,124.167 197.5,120.833 197.5,117.5 Z"/></g>
<g><path style="opacity:1" fill="#606e90" d="M 167.5,119.5 C 171.329,119.937 174.995,120.104 178.5,120C 179.777,122.466 179.777,124.966 178.5,127.5C 177.534,125.604 177.201,123.604 177.5,121.5C 176.5,121.5 175.5,121.5 174.5,121.5C 173.833,129.5 173.167,129.5 172.5,121.5C 171.5,121.5 170.5,121.5 169.5,121.5C 169.799,123.604 169.466,125.604 168.5,127.5C 167.52,124.914 167.187,122.247 167.5,119.5 Z"/></g>
<g><path style="opacity:1" fill="#59688b" d="M 180.5,119.5 C 181.748,120.334 182.415,121.667 182.5,123.5C 182.167,124.833 181.833,126.167 181.5,127.5C 180.52,124.914 180.187,122.247 180.5,119.5 Z"/></g>
<g><path style="opacity:1" fill="#4b5b82" d="M 160.5,117.5 C 162.527,117.338 164.527,117.505 166.5,118C 165.207,118.49 163.873,118.657 162.5,118.5C 162.5,119.5 162.5,120.5 162.5,121.5C 167.833,121.833 167.833,122.167 162.5,122.5C 162.5,123.833 162.5,125.167 162.5,126.5C 163.873,126.343 165.207,126.51 166.5,127C 164.527,127.495 162.527,127.662 160.5,127.5C 160.5,124.167 160.5,120.833 160.5,117.5 Z"/></g>
<g><path style="opacity:1" fill="#d6576e" d="M 225.5,122.5 C 229.226,122.177 232.893,122.511 236.5,123.5C 233.232,124.487 229.898,124.82 226.5,124.5C 226.167,123.833 225.833,123.167 225.5,122.5 Z"/></g>
<g><path style="opacity:1" fill="#586689" d="M 186.5,119.5 C 187.479,120.765 188.479,122.099 189.5,123.5C 190.5,122.167 191.5,120.833 192.5,119.5C 192.833,119.833 193.167,120.167 193.5,120.5C 192.314,124.257 190.481,127.59 188,130.5C 187.5,130.333 187,130.167 186.5,130C 187.516,129.481 188.182,128.647 188.5,127.5C 187.238,124.978 186.571,122.311 186.5,119.5 Z"/></g>
<g><path style="opacity:1" fill="#d04152" d="M 215.5,125.5 C 222.2,125.17 228.866,125.503 235.5,126.5C 232.167,126.833 228.833,127.167 225.5,127.5C 221.761,127.486 218.428,126.82 215.5,125.5 Z"/></g>
<g><path style="opacity:1" fill="#db6371" d="M 217.5,130.5 C 222.68,129.185 228.014,129.185 233.5,130.5C 228.114,131.782 222.781,131.782 217.5,130.5 Z"/></g>
<g><path style="opacity:1" fill="#363636" d="M 187.5,153.5 C 188.5,153.5 189.5,153.5 190.5,153.5C 190.5,157.5 190.5,161.5 190.5,165.5C 189.5,165.5 188.5,165.5 187.5,165.5C 187.5,161.5 187.5,157.5 187.5,153.5 Z"/></g>
<g><path style="opacity:1" fill="#121212" d="M 209.5,153.5 C 209.5,154.833 209.5,156.167 209.5,157.5C 211.167,157.5 212.833,157.5 214.5,157.5C 215.8,160.024 215.8,162.691 214.5,165.5C 213.526,163.257 213.192,160.924 213.5,158.5C 212.178,158.33 211.011,158.663 210,159.5C 208.865,167.424 208.032,167.424 207.5,159.5C 207.539,157.048 208.206,155.048 209.5,153.5 Z"/></g>
<g><path style="opacity:1" fill="#3e3e3e" d="M 225.5,153.5 C 226.5,153.5 227.5,153.5 228.5,153.5C 228.5,157.5 228.5,161.5 228.5,165.5C 227.5,165.5 226.5,165.5 225.5,165.5C 225.5,161.5 225.5,157.5 225.5,153.5 Z"/></g>
<g><path style="opacity:1" fill="#343434" d="M 239.5,153.5 C 241.337,153.639 241.67,154.306 240.5,155.5C 239.702,155.043 239.369,154.376 239.5,153.5 Z"/></g>
<g><path style="opacity:1" fill="#505050" d="M 329.5,153.5 C 329.335,157.182 329.501,160.848 330,164.5C 330.198,162.618 330.698,160.952 331.5,159.5C 331.5,161.5 331.5,163.5 331.5,165.5C 330.5,165.5 329.5,165.5 328.5,165.5C 328.183,161.298 328.517,157.298 329.5,153.5 Z"/></g>
<g><path style="opacity:1" fill="#111111" d="M 329.5,153.5 C 330.434,154.568 330.768,155.901 330.5,157.5C 332.5,157.5 334.5,157.5 336.5,157.5C 336.813,160.247 336.48,162.914 335.5,165.5C 334.526,163.257 334.192,160.924 334.5,158.5C 333.209,158.263 332.209,158.596 331.5,159.5C 330.698,160.952 330.198,162.618 330,164.5C 329.501,160.848 329.335,157.182 329.5,153.5 Z"/></g>
<g><path style="opacity:1" fill="#363636" d="M 381.5,153.5 C 383.337,153.639 383.67,154.306 382.5,155.5C 381.702,155.043 381.369,154.376 381.5,153.5 Z"/></g>
<g><path style="opacity:1" fill="#818181" d="M 161.5,154.5 C 160.931,158.329 161.598,161.663 163.5,164.5C 162.791,165.404 161.791,165.737 160.5,165.5C 160.185,161.629 160.518,157.962 161.5,154.5 Z"/></g>
<g><path style="opacity:1" fill="#1b1b1b" d="M 161.5,154.5 C 167.626,153.121 169.626,155.288 167.5,161C 169.595,166.791 168.595,166.958 164.5,161.5C 163.614,162.325 163.281,163.325 163.5,164.5C 161.598,161.663 160.931,158.329 161.5,154.5 Z"/></g>
<g><path style="opacity:1" fill="#242424" d="M 343.5,158.5 C 342.5,158.5 341.5,158.5 340.5,158.5C 340.5,160.167 340.5,161.833 340.5,163.5C 341.5,163.5 342.5,163.5 343.5,163.5C 342.796,165.344 341.463,165.844 339.5,165C 338.833,162.667 338.167,160.333 337.5,158C 339.759,153.393 341.759,153.56 343.5,158.5 Z"/></g>
<g><path style="opacity:1" fill="#d7d7d7" d="M 163.5,156.5 C 166.957,156.667 167.29,157.667 164.5,159.5C 163.614,158.675 163.281,157.675 163.5,156.5 Z"/></g>
<g><path style="opacity:1" fill="#757575" d="M 209.5,153.5 C 210.404,154.209 210.737,155.209 210.5,156.5C 212.099,156.232 213.432,156.566 214.5,157.5C 212.833,157.5 211.167,157.5 209.5,157.5C 209.5,156.167 209.5,154.833 209.5,153.5 Z"/></g>
<g><path style="opacity:1" fill="#2b2b2b" d="M 363.5,155.5 C 364.931,156.082 366.264,156.915 367.5,158C 364.906,160.072 364.906,162.239 367.5,164.5C 365.994,165.747 364.494,165.747 363,164.5C 362.764,162.236 362.264,160.069 361.5,158C 362.381,157.292 363.047,156.458 363.5,155.5 Z"/></g>
<g><path style="opacity:1" fill="#515151" d="M 236.5,157.5 C 234.5,157.5 232.5,157.5 230.5,157.5C 230.335,161.182 230.501,164.848 231,168.5C 231.335,166.497 232.168,164.83 233.5,163.5C 233.833,163.5 234.167,163.5 234.5,163.5C 234.842,164.338 235.508,164.672 236.5,164.5C 235.432,165.434 234.099,165.768 232.5,165.5C 232.5,166.833 232.5,168.167 232.5,169.5C 231.5,169.5 230.5,169.5 229.5,169.5C 229.5,165.167 229.5,160.833 229.5,156.5C 232.059,156.198 234.393,156.532 236.5,157.5 Z"/></g>
<g><path style="opacity:1" fill="#b0b1b1" d="M 246.5,156.5 C 245.791,157.404 244.791,157.737 243.5,157.5C 243.5,160.167 243.5,162.833 243.5,165.5C 242.833,165.5 242.167,165.5 241.5,165.5C 240.833,154.833 240.167,154.833 239.5,165.5C 238.833,164.5 238.167,163.5 237.5,162.5C 237.5,161.167 237.5,159.833 237.5,158.5C 240.145,156.758 243.145,156.091 246.5,156.5 Z"/></g>
<g><path style="opacity:1" fill="#292929" d="M 241.5,165.5 C 240.833,165.5 240.167,165.5 239.5,165.5C 240.167,154.833 240.833,154.833 241.5,165.5 Z"/></g>
<g><path style="opacity:1" fill="#282828" d="M 253.5,156.5 C 255.674,156.92 257.674,156.92 259.5,156.5C 260.659,160.122 260.825,163.789 260,167.5C 257.782,169.619 255.282,169.952 252.5,168.5C 258.76,167.315 258.927,165.981 253,164.5C 252.278,161.739 252.445,159.073 253.5,156.5 Z"/></g>
<g><path style="opacity:1" fill="#2b2b2b" d="M 269.5,156.5 C 272.085,157.072 274.751,157.239 277.5,157C 278.444,159.719 278.777,162.552 278.5,165.5C 277.5,165.5 276.5,165.5 275.5,165.5C 274.833,156.167 274.167,156.167 273.5,165.5C 272.5,165.5 271.5,165.5 270.5,165.5C 269.938,156.43 268.605,156.43 266.5,165.5C 265.52,162.914 265.187,160.247 265.5,157.5C 267.099,157.768 268.432,157.434 269.5,156.5 Z"/></g>
<g><path style="opacity:1" fill="#262626" d="M 296.5,153.5 C 297.5,153.5 298.5,153.5 299.5,153.5C 299.824,157.555 299.491,161.555 298.5,165.5C 296.398,165.521 294.232,165.187 292,164.5C 291.333,162.167 291.333,159.833 292,157.5C 293.356,156.62 294.856,156.286 296.5,156.5C 296.5,155.5 296.5,154.5 296.5,153.5 Z"/></g>
<g><path style="opacity:1" fill="#666666" d="M 312.5,162.5 C 311.698,161.048 311.198,159.382 311,157.5C 310.503,159.81 310.337,162.143 310.5,164.5C 309.527,162.052 309.194,159.385 309.5,156.5C 310.5,156.5 311.5,156.5 312.5,156.5C 312.5,158.5 312.5,160.5 312.5,162.5 Z"/></g>
<g><path style="opacity:1" fill="#555555" d="M 354.5,157.5 C 353.371,159.628 353.204,161.961 354,164.5C 354.198,162.618 354.698,160.952 355.5,159.5C 355.5,161.5 355.5,163.5 355.5,165.5C 354.5,165.5 353.5,165.5 352.5,165.5C 352.183,162.428 352.516,159.428 353.5,156.5C 354.107,156.624 354.44,156.957 354.5,157.5 Z"/></g>
<g><path style="opacity:1" fill="#101010" d="M 355.5,159.5 C 354.698,160.952 354.198,162.618 354,164.5C 353.204,161.961 353.371,159.628 354.5,157.5C 359.064,156.39 359.398,157.057 355.5,159.5 Z"/></g>
<g><path style="opacity:1" fill="#2e2e2e" d="M 381.5,157.5 C 382.748,158.334 383.415,159.667 383.5,161.5C 383.167,162.833 382.833,164.167 382.5,165.5C 381.52,162.914 381.187,160.247 381.5,157.5 Z"/></g>
<g><path style="opacity:1" fill="#282828" d="M 385.5,156.5 C 389.586,157.091 393.586,157.257 397.5,157C 398.444,159.719 398.777,162.552 398.5,165.5C 397.5,165.5 396.5,165.5 395.5,165.5C 394.938,156.43 393.605,156.43 391.5,165.5C 390.526,163.257 390.192,160.924 390.5,158.5C 389.5,158.5 388.5,158.5 387.5,158.5C 387.808,160.924 387.474,163.257 386.5,165.5C 385.516,162.572 385.183,159.572 385.5,156.5 Z"/></g>
<g><path style="opacity:1" fill="#656565" d="M 406.5,157.5 C 404.5,157.5 402.5,157.5 400.5,157.5C 400.335,161.182 400.501,164.848 401,168.5C 401.219,167.062 401.719,165.729 402.5,164.5C 403.107,164.624 403.44,164.957 403.5,165.5C 402.566,166.568 402.232,167.901 402.5,169.5C 401.5,169.5 400.5,169.5 399.5,169.5C 399.5,165.167 399.5,160.833 399.5,156.5C 402.059,156.198 404.393,156.532 406.5,157.5 Z"/></g>
<g><path style="opacity:1" fill="#181818" d="M 406.5,157.5 C 407.167,157.5 407.5,157.833 407.5,158.5C 407.5,160.167 407.5,161.833 407.5,163.5C 406.713,165.104 405.38,165.771 403.5,165.5C 403.44,164.957 403.107,164.624 402.5,164.5C 401.719,165.729 401.219,167.062 401,168.5C 400.501,164.848 400.335,161.182 400.5,157.5C 402.5,157.5 404.5,157.5 406.5,157.5 Z"/></g>
<g><path style="opacity:1" fill="#a2a2a2" d="M 412.5,156.5 C 411.791,157.404 410.791,157.737 409.5,157.5C 409.5,160.167 409.5,162.833 409.5,165.5C 408.833,164.833 408.167,164.167 407.5,163.5C 407.5,161.833 407.5,160.167 407.5,158.5C 408.779,157.032 410.446,156.365 412.5,156.5 Z"/></g>
<g><path style="opacity:1" fill="#111111" d="M 412.5,156.5 C 414.934,157.354 414.767,158.354 412,159.5C 411.998,162.051 411.164,164.051 409.5,165.5C 409.5,162.833 409.5,160.167 409.5,157.5C 410.791,157.737 411.791,157.404 412.5,156.5 Z"/></g>
<g><path style="opacity:1" fill="#2f2f2f" d="M 218.5,156.5 C 222.349,156.019 224.349,157.686 224.5,161.5C 217.951,161.907 217.951,162.907 224.5,164.5C 216.785,166.119 214.785,163.452 218.5,156.5 Z"/></g>
<g><path style="opacity:1" fill="#131313" d="M 236.5,157.5 C 237.167,157.5 237.5,157.833 237.5,158.5C 237.5,159.833 237.5,161.167 237.5,162.5C 237.672,163.492 237.338,164.158 236.5,164.5C 235.508,164.672 234.842,164.338 234.5,163.5C 235.451,162.081 235.784,160.415 235.5,158.5C 234.5,158.5 233.5,158.5 232.5,158.5C 232.216,160.415 232.549,162.081 233.5,163.5C 232.168,164.83 231.335,166.497 231,168.5C 230.501,164.848 230.335,161.182 230.5,157.5C 232.5,157.5 234.5,157.5 236.5,157.5 Z"/></g>
<g><path style="opacity:1" fill="#222222" d="M 246.5,156.5 C 248.39,156.297 249.89,156.963 251,158.5C 251.497,160.81 251.663,163.143 251.5,165.5C 250.5,165.5 249.5,165.5 248.5,165.5C 248.5,163.167 248.5,160.833 248.5,158.5C 247.5,158.5 246.5,158.5 245.5,158.5C 246.01,161.388 245.344,163.721 243.5,165.5C 243.5,162.833 243.5,160.167 243.5,157.5C 244.791,157.737 245.791,157.404 246.5,156.5 Z"/></g>
<g><path style="opacity:1" fill="#373737" d="M 301.5,156.5 C 307.826,156.174 310.159,159.174 308.5,165.5C 305.881,165.768 303.381,165.435 301,164.5C 300.333,163.5 300.333,162.5 301,161.5C 302.509,160.91 304.009,160.244 305.5,159.5C 303.668,158.943 302.335,157.943 301.5,156.5 Z"/></g>
<g><path style="opacity:1" fill="#1d1d1d" d="M 370.5,156.5 C 376.643,157.026 377.976,159.86 374.5,165C 369.33,165.865 367.497,163.699 369,158.5C 369.717,157.956 370.217,157.289 370.5,156.5 Z"/></g>
<g><path style="opacity:1" fill="#222222" d="M 416.5,156.5 C 422.263,156.783 423.93,159.616 421.5,165C 414.413,165.558 412.746,162.724 416.5,156.5 Z"/></g>
<g><path style="opacity:1" fill="#2d2d2d" d="M 429.5,156.5 C 430.75,156.577 431.583,157.244 432,158.5C 436.161,155.332 438.661,156.332 439.5,161.5C 432.951,161.907 432.951,162.907 439.5,164.5C 434.317,166.816 431.483,165.149 431,159.5C 429.885,161 429.052,162.667 428.5,164.5C 427.675,165.386 426.675,165.719 425.5,165.5C 425.244,163.063 424.577,160.729 423.5,158.5C 423.833,158.167 424.167,157.833 424.5,157.5C 426.728,162.675 428.395,162.342 429.5,156.5 Z"/></g>
<g><path style="opacity:1" fill="#282828" d="M 171.5,156.5 C 175.938,155.425 177.938,157.092 177.5,161.5C 170.951,161.907 170.951,162.907 177.5,164.5C 175.579,165.641 173.579,165.808 171.5,165C 170.321,162.204 170.321,159.371 171.5,156.5 Z"/></g>
<g><path style="opacity:1" fill="#e5e5e5" d="M 234.5,163.5 C 234.167,163.5 233.833,163.5 233.5,163.5C 232.549,162.081 232.216,160.415 232.5,158.5C 233.5,158.5 234.5,158.5 235.5,158.5C 235.784,160.415 235.451,162.081 234.5,163.5 Z"/></g>
<g><path style="opacity:1" fill="#d7d7d7" d="M 255.5,158.5 C 258.389,158.999 259.056,160.499 257.5,163C 256.552,163.483 255.552,163.649 254.5,163.5C 254.366,161.708 254.699,160.042 255.5,158.5 Z"/></g>
<g><path style="opacity:1" fill="#d7d7d7" d="M 294.5,158.5 C 297.389,158.999 298.056,160.499 296.5,163C 295.552,163.483 294.552,163.649 293.5,163.5C 293.366,161.708 293.699,160.042 294.5,158.5 Z"/></g>
<g><path style="opacity:1" fill="#d7d7d7" d="M 370.5,158.5 C 374.161,158.35 375.161,159.85 373.5,163C 372.552,163.483 371.552,163.649 370.5,163.5C 370.5,161.833 370.5,160.167 370.5,158.5 Z"/></g>
<g><path style="opacity:1" fill="#2b2b2b" d="M 179.5,156.5 C 186.198,156.216 188.198,159.216 185.5,165.5C 183.674,165.08 181.674,165.08 179.5,165.5C 179.5,163.833 179.5,162.167 179.5,160.5C 180.978,160.762 182.311,160.429 183.5,159.5C 181.668,158.943 180.335,157.943 179.5,156.5 Z"/></g>
<g><path style="opacity:1" fill="#dddddd" d="M 343.5,158.5 C 343.5,160.167 343.5,161.833 343.5,163.5C 342.5,163.5 341.5,163.5 340.5,163.5C 340.5,161.833 340.5,160.167 340.5,158.5C 341.5,158.5 342.5,158.5 343.5,158.5 Z"/></g>
<g><path style="opacity:1" fill="#2a2a2a" d="M 343.5,163.5 C 343.5,161.833 343.5,160.167 343.5,158.5C 347.816,155.243 350.482,156.243 351.5,161.5C 344.951,161.907 344.951,162.907 351.5,164.5C 348.565,165.898 345.898,165.565 343.5,163.5 Z"/></g>
<g><path style="opacity:1" fill="#e7e7e7" d="M 417.5,158.5 C 418.5,158.5 419.5,158.5 420.5,158.5C 420.5,160.167 420.5,161.833 420.5,163.5C 419.5,163.5 418.5,163.5 417.5,163.5C 417.5,161.833 417.5,160.167 417.5,158.5 Z"/></g>
<g><path style="opacity:1" fill="#d7d7d7" d="M 402.5,158.5 C 403.5,158.5 404.5,158.5 405.5,158.5C 405.5,160.167 405.5,161.833 405.5,163.5C 404.5,163.5 403.5,163.5 402.5,163.5C 402.5,161.833 402.5,160.167 402.5,158.5 Z"/></g>
<g><path style="opacity:1" fill="#e5e5e5" d="M 181.5,161.5 C 183.337,161.639 183.67,162.306 182.5,163.5C 181.702,163.043 181.369,162.376 181.5,161.5 Z"/></g>
<g><path style="opacity:1" fill="#292929" d="M 191.5,153.5 C 192.5,153.5 193.5,153.5 194.5,153.5C 194.5,154.5 194.5,155.5 194.5,156.5C 195.5,156.5 196.5,156.5 197.5,156.5C 197.959,162.513 199.292,162.846 201.5,157.5C 202.54,162.425 201.04,166.425 197,169.5C 196.5,169.167 196,168.833 195.5,168.5C 197.935,165.125 197.769,161.792 195,158.5C 194.503,160.81 194.337,163.143 194.5,165.5C 193.5,165.5 192.5,165.5 191.5,165.5C 191.5,161.5 191.5,157.5 191.5,153.5 Z"/></g>
<g><path style="opacity:1" fill="#222222" d="M 279.5,156.5 C 281.662,156.897 282.995,158.231 283.5,160.5C 284.262,159.372 284.929,158.205 285.5,157C 286.483,156.409 287.15,156.743 287.5,158C 286.195,161.582 284.695,165.082 283,168.5C 281.817,169.731 280.651,169.731 279.5,168.5C 280.737,167.719 281.737,166.719 282.5,165.5C 280.895,162.686 279.895,159.686 279.5,156.5 Z"/></g>
<g><path style="opacity:1" fill="#1f1f1f" d="M 312.5,162.5 C 313.189,163.774 314.023,163.774 315,162.5C 315.202,160.744 315.702,159.078 316.5,157.5C 317.833,160.167 317.833,162.833 316.5,165.5C 314.463,165.502 312.463,165.168 310.5,164.5C 310.337,162.143 310.503,159.81 311,157.5C 311.198,159.382 311.698,161.048 312.5,162.5 Z"/></g>
<g><path style="opacity:1" fill="#252525" d="M 320.5,156.5 C 322.5,156.5 324.5,156.5 326.5,156.5C 326.665,160.182 326.499,163.848 326,167.5C 324.116,169.576 321.949,169.91 319.5,168.5C 321.167,167.833 322.833,167.167 324.5,166.5C 318.316,165.096 316.983,161.763 320.5,156.5 Z"/></g>
<g><path style="opacity:1" fill="#e3e3e3" d="M 321.5,158.5 C 322.5,158.5 323.5,158.5 324.5,158.5C 324.5,160.167 324.5,161.833 324.5,163.5C 323.5,163.5 322.5,163.5 321.5,163.5C 321.5,161.833 321.5,160.167 321.5,158.5 Z"/></g>
<g><path style="opacity:1" fill="#17dcfe" d="M 561.5,180.5 C 562.11,181.391 562.443,182.391 562.5,183.5C 566.09,193.1 569.59,202.767 573,212.5C 571.32,222.184 567.653,231.184 562,239.5C 559.037,232.096 556.204,224.762 553.5,217.5C 552.871,214.603 551.871,211.936 550.5,209.5C 548.97,204.078 547.137,198.745 545,193.5C 543.317,183.194 547.651,177.527 558,176.5C 559.856,177.202 561.023,178.536 561.5,180.5 Z"/></g>
<g><path style="opacity:0.054" fill="#1b1f1f" d="M 564.5,179.5 C 564.433,180.959 564.766,182.292 565.5,183.5C 564.5,183.5 563.5,183.5 562.5,183.5C 562.443,182.391 562.11,181.391 561.5,180.5C 562.609,180.443 563.609,180.11 564.5,179.5 Z"/></g>
<g><path style="opacity:1" fill="#161616" d="M 220.5,180.5 C 220.5,181.833 220.5,183.167 220.5,184.5C 222.167,184.5 223.833,184.5 225.5,184.5C 226.8,187.024 226.8,189.691 225.5,192.5C 224.526,190.257 224.192,187.924 224.5,185.5C 223.178,185.33 222.011,185.663 221,186.5C 219.865,194.424 219.032,194.424 218.5,186.5C 218.539,184.048 219.206,182.048 220.5,180.5 Z"/></g>
<g><path style="opacity:1" fill="#232323" d="M 247.5,180.5 C 249.337,180.639 249.67,181.306 248.5,182.5C 247.702,182.043 247.369,181.376 247.5,180.5 Z"/></g>
<g><path style="opacity:1" fill="#575757" d="M 251.5,180.5 C 252.5,180.5 253.5,180.5 254.5,180.5C 254.5,184.5 254.5,188.5 254.5,192.5C 253.5,192.5 252.5,192.5 251.5,192.5C 251.5,188.5 251.5,184.5 251.5,180.5 Z"/></g>
<g><path style="opacity:1" fill="#515151" d="M 255.5,180.5 C 256.5,180.5 257.5,180.5 258.5,180.5C 258.5,184.5 258.5,188.5 258.5,192.5C 257.5,192.5 256.5,192.5 255.5,192.5C 255.5,188.5 255.5,184.5 255.5,180.5 Z"/></g>
<g><path style="opacity:1" fill="#5f5f5f" d="M 282.5,180.5 C 282.335,184.182 282.501,187.848 283,191.5C 283.198,189.618 283.698,187.952 284.5,186.5C 284.5,188.5 284.5,190.5 284.5,192.5C 283.5,192.5 282.5,192.5 281.5,192.5C 281.183,188.298 281.517,184.298 282.5,180.5 Z"/></g>
<g><path style="opacity:1" fill="#2c2c2c" d="M 339.5,180.5 C 341.337,180.639 341.67,181.306 340.5,182.5C 339.702,182.043 339.369,181.376 339.5,180.5 Z"/></g>
<g><path style="opacity:1" fill="#171717" d="M 368.5,182.5 C 367.957,182.56 367.624,182.893 367.5,183.5C 368.243,184.182 368.909,184.849 369.5,185.5C 369.167,185.5 368.833,185.5 368.5,185.5C 367.691,187.292 367.191,189.292 367,191.5C 366.809,189.292 366.309,187.292 365.5,185.5C 365.062,185.565 364.728,185.399 364.5,185C 364.982,180.995 366.982,179.828 370.5,181.5C 370.043,182.298 369.376,182.631 368.5,182.5 Z"/></g>
<g><path style="opacity:1" fill="#121212" d="M 404.5,180.5 C 404.5,184.5 404.5,188.5 404.5,192.5C 403.206,190.952 402.539,188.952 402.5,186.5C 402.539,184.048 403.206,182.048 404.5,180.5 Z"/></g>
<g><path style="opacity:1" fill="#898989" d="M 404.5,180.5 C 405.167,183.167 405.833,185.833 406.5,188.5C 406.5,189.5 406.5,190.5 406.5,191.5C 405.833,191.833 405.167,192.167 404.5,192.5C 404.5,188.5 404.5,184.5 404.5,180.5 Z"/></g>
<g><path style="opacity:1" fill="#2d2d2d" d="M 423.5,180.5 C 425.337,180.639 425.67,181.306 424.5,182.5C 423.702,182.043 423.369,181.376 423.5,180.5 Z"/></g>
<g><path style="opacity:1" fill="#202020" d="M 213.5,182.5 C 214.627,183.122 215.627,183.955 216.5,185C 214.808,186.401 214.141,188.234 214.5,190.5C 215.675,190.281 216.675,190.614 217.5,191.5C 215.994,192.747 214.494,192.747 213,191.5C 212.764,189.236 212.264,187.069 211.5,185C 212.381,184.292 213.047,183.458 213.5,182.5 Z"/></g>
<g><path style="opacity:1" fill="#202020" d="M 275.5,180.5 C 282.138,181.379 282.138,182.546 275.5,184C 278.064,185.062 279.731,186.896 280.5,189.5C 280.392,190.442 280.059,191.275 279.5,192C 277.527,192.495 275.527,192.662 273.5,192.5C 273.351,191.448 273.517,190.448 274,189.5C 275.494,190.747 276.994,190.747 278.5,189.5C 276.295,188.129 274.628,186.296 273.5,184C 273.978,182.697 274.645,181.531 275.5,180.5 Z"/></g>
<g><path style="opacity:1" fill="#717171" d="M 220.5,180.5 C 221.404,181.209 221.737,182.209 221.5,183.5C 223.099,183.232 224.432,183.566 225.5,184.5C 223.833,184.5 222.167,184.5 220.5,184.5C 220.5,183.167 220.5,181.833 220.5,180.5 Z"/></g>
<g><path style="opacity:1" fill="#ececec" d="M 243.5,82.5 C 244.404,83.209 244.737,84.209 244.5,85.5C 315.18,84.8069 385.68,84.8069 456,85.5C 470.404,90.1067 477.237,100.107 476.5,115.5C 476.456,133.472 476.123,151.472 475.5,169.5C 475.516,174.684 478.016,178.017 483,179.5C 492.14,178.554 501.14,178.554 510,179.5C 510.464,178.906 510.631,178.239 510.5,177.5C 511.803,179.142 513.136,180.809 514.5,182.5C 502.116,182.187 489.783,182.52 477.5,183.5C 475.532,192.291 475.199,200.958 476.5,209.5C 476.5,210.5 476.5,211.5 476.5,212.5C 476.091,218.502 475.591,224.502 475,230.5C 471.587,242.555 463.587,249.222 451,250.5C 375.254,250.48 298.754,250.48 221.5,250.5C 221.343,249.127 221.51,247.793 222,246.5C 297.659,246.848 372.992,247.181 448,247.5C 461.058,247.433 469.058,241.099 472,228.5C 472.333,213.5 472.667,198.5 473,183.5C 474.067,182.809 475.234,182.309 476.5,182C 473.246,179.658 471.412,176.491 471,172.5C 470.667,150.5 470.333,128.5 470,106.5C 469.833,147.335 469.333,188.002 468.5,228.5C 468.667,185.832 468.5,143.165 468,100.5C 465.859,95.6921 462.359,92.1921 457.5,90C 355.834,89.5 254.167,89.3333 152.5,89.5C 182.662,88.5019 212.995,88.1685 243.5,88.5C 243.5,86.5 243.5,84.5 243.5,82.5 Z"/></g>
<g><path style="opacity:1" fill="#fafafa" d="M 564.5,179.5 C 563.609,180.11 562.609,180.443 561.5,180.5C 561.023,178.536 559.856,177.202 558,176.5C 547.651,177.527 543.317,183.194 545,193.5C 547.137,198.745 548.97,204.078 550.5,209.5C 548.396,209.201 546.396,209.534 544.5,210.5C 546.92,212.953 548.086,215.953 548,219.5C 549.584,218.139 551.418,217.472 553.5,217.5C 556.204,224.762 559.037,232.096 562,239.5C 567.653,231.184 571.32,222.184 573,212.5C 569.59,202.767 566.09,193.1 562.5,183.5C 563.5,183.5 564.5,183.5 565.5,183.5C 565.877,185.824 566.877,186.491 568.5,185.5C 572.77,187.94 575.27,191.607 576,196.5C 576.667,243.167 576.667,289.833 576,336.5C 574.757,342.083 571.59,346.249 566.5,349C 455.876,350.658 345.21,350.992 234.5,350C 227.72,348.387 223.387,344.22 221.5,337.5C 221.5,308.5 221.5,279.5 221.5,250.5C 298.754,250.48 375.254,250.48 451,250.5C 463.587,249.222 471.587,242.555 475,230.5C 475.591,224.502 476.091,218.502 476.5,212.5C 477.695,212.866 478.361,213.699 478.5,215C 477.852,216.44 477.519,217.94 477.5,219.5C 479.6,219.523 481.433,218.856 483,217.5C 484.285,217.95 485.452,218.617 486.5,219.5C 487.002,216.029 488.336,213.029 490.5,210.5C 486.907,210.258 484.241,208.591 482.5,205.5C 481.841,208.824 479.841,210.157 476.5,209.5C 475.199,200.958 475.532,192.291 477.5,183.5C 489.783,182.52 502.116,182.187 514.5,182.5C 515.072,183.973 515.905,185.307 517,186.5C 518.883,182.858 520.383,179.025 521.5,175C 519.385,171.882 516.885,169.048 514,166.5C 500.629,143.148 505.462,124.648 528.5,111C 546.262,105.311 560.762,109.811 572,124.5C 581.734,143.23 578.734,159.563 563,173.5C 562.591,175.695 563.091,177.695 564.5,179.5 Z"/></g>
<g><path style="opacity:1" fill="#1adcfe" d="M 535.5,205.5 C 533.266,209.522 531.599,213.856 530.5,218.5C 527.959,225.625 525.125,232.625 522,239.5C 517.773,231.545 513.94,223.378 510.5,215C 514.854,202.456 519.354,189.956 524,177.5C 524.561,176.978 525.228,176.645 526,176.5C 531.576,178.975 537.41,179.975 543.5,179.5C 541.038,188.221 538.371,196.888 535.5,205.5 Z"/></g>
<g><path style="opacity:1" fill="#1cdcfc" d="M 537.5,111.5 C 562.685,112.513 574.851,125.513 574,150.5C 568.234,170.24 555.067,178.74 534.5,176C 514.859,168.887 507.025,155.053 511,134.5C 515.944,122.288 524.777,114.622 537.5,111.5 Z"/></g>
<g><path style="opacity:1" fill="#fcbe08" d="M 541.5,118.5 C 542.496,118.414 543.329,118.748 544,119.5C 545.91,124.317 548.076,128.984 550.5,133.5C 555.447,134.283 560.447,134.783 565.5,135C 566.022,135.561 566.355,136.228 566.5,137C 562.69,140.975 558.69,144.809 554.5,148.5C 555.755,153.017 557.088,157.517 558.5,162C 557.941,164.188 556.607,164.854 554.5,164C 550.633,161.302 546.633,158.802 542.5,156.5C 537.879,159.976 532.879,162.642 527.5,164.5C 527.729,159.023 528.729,153.689 530.5,148.5C 526.354,144.854 522.354,141.021 518.5,137C 518.645,136.228 518.978,135.561 519.5,135C 524.553,134.783 529.553,134.283 534.5,133.5C 537.104,128.625 539.438,123.625 541.5,118.5 Z"/></g>
<g><path style="opacity:1" fill="#282828" d="M 160.5,180.5 C 161.5,180.5 162.5,180.5 163.5,180.5C 163.5,181.5 163.5,182.5 163.5,183.5C 165.144,183.286 166.644,183.62 168,184.5C 168.818,187.227 168.652,189.894 167.5,192.5C 166.526,190.257 166.192,187.924 166.5,185.5C 165.5,185.5 164.5,185.5 163.5,185.5C 163.5,187.833 163.5,190.167 163.5,192.5C 162.5,192.5 161.5,192.5 160.5,192.5C 160.5,188.5 160.5,184.5 160.5,180.5 Z"/></g>
<g><path style="opacity:1" fill="#9f9f9f" d="M 182.5,183.5 C 181.791,184.404 180.791,184.737 179.5,184.5C 179.5,187.167 179.5,189.833 179.5,192.5C 178.833,191.167 178.167,189.833 177.5,188.5C 177.5,187.5 177.5,186.5 177.5,185.5C 178.779,184.032 180.446,183.365 182.5,183.5 Z"/></g>
<g><path style="opacity:1" fill="#121212" d="M 182.5,183.5 C 184.934,184.354 184.767,185.354 182,186.5C 181.998,189.051 181.164,191.051 179.5,192.5C 179.5,189.833 179.5,187.167 179.5,184.5C 180.791,184.737 181.791,184.404 182.5,183.5 Z"/></g>
<g><path style="opacity:1" fill="#5b5b5b" d="M 195.5,184.5 C 193.5,184.5 191.5,184.5 189.5,184.5C 189.337,186.857 189.503,189.19 190,191.5C 190.198,189.618 190.698,187.952 191.5,186.5C 191.5,188.5 191.5,190.5 191.5,192.5C 190.5,192.5 189.5,192.5 188.5,192.5C 188.5,189.5 188.5,186.5 188.5,183.5C 191.059,183.198 193.393,183.532 195.5,184.5 Z"/></g>
<g><path style="opacity:1" fill="#151515" d="M 201.5,185.5 C 201.5,187.833 201.5,190.167 201.5,192.5C 199.938,190.628 198.938,188.295 198.5,185.5C 196.976,187.483 195.976,189.816 195.5,192.5C 194.526,190.257 194.192,187.924 194.5,185.5C 193.209,185.263 192.209,185.596 191.5,186.5C 190.698,187.952 190.198,189.618 190,191.5C 189.503,189.19 189.337,186.857 189.5,184.5C 191.5,184.5 193.5,184.5 195.5,184.5C 197.955,182.862 199.955,183.195 201.5,185.5 Z"/></g>
<g><path style="opacity:1" fill="#2c2c2c" d="M 203.5,191.5 C 203.5,190.5 203.5,189.5 203.5,188.5C 205.042,187.837 206.709,187.17 208.5,186.5C 203.323,184.435 203.656,183.602 209.5,184C 210.444,186.719 210.777,189.552 210.5,192.5C 207.941,192.802 205.607,192.468 203.5,191.5 Z"/></g>
<g><path style="opacity:1" fill="#323232" d="M 247.5,183.5 C 248.765,184.514 249.431,186.014 249.5,188C 249.167,189.5 248.833,191 248.5,192.5C 247.516,189.572 247.183,186.572 247.5,183.5 Z"/></g>
<g><path style="opacity:1" fill="#252525" d="M 260.5,183.5 C 266.261,183.709 266.594,184.542 261.5,186C 262.579,186.956 263.745,187.789 265,188.5C 265.684,189.784 265.517,190.951 264.5,192C 262.741,192.798 261.074,192.631 259.5,191.5C 264.639,190.803 264.805,189.47 260,187.5C 259.421,186.072 259.588,184.738 260.5,183.5 Z"/></g>
<g><path style="opacity:1" fill="#7f7f80" d="M 298.5,188.5 C 298.567,187.041 298.234,185.708 297.5,184.5C 298.249,183.469 298.915,182.302 299.5,181C 300.635,180.251 301.635,180.417 302.5,181.5C 300.873,183.765 299.539,186.099 298.5,188.5 Z"/></g>
<g><path style="opacity:1" fill="#2a2a2a" d="M 302.5,183.5 C 308.261,183.709 308.594,184.542 303.5,186C 304.563,187.188 305.897,187.688 307.5,187.5C 307.5,189.167 307.5,190.833 307.5,192.5C 305.396,192.799 303.396,192.466 301.5,191.5C 306.639,190.803 306.805,189.47 302,187.5C 301.421,186.072 301.588,184.738 302.5,183.5 Z"/></g>
<g><path style="opacity:1" fill="#252525" d="M 339.5,184.5 C 340.748,185.334 341.415,186.667 341.5,188.5C 341.167,189.833 340.833,191.167 340.5,192.5C 339.52,189.914 339.187,187.247 339.5,184.5 Z"/></g>
<g><path style="opacity:1" fill="#202020" d="M 346.5,183.5 C 348.39,183.297 349.89,183.963 351,185.5C 351.497,187.81 351.663,190.143 351.5,192.5C 350.5,192.5 349.5,192.5 348.5,192.5C 348.5,190.167 348.5,187.833 348.5,185.5C 347.5,185.5 346.5,185.5 345.5,185.5C 345.808,187.924 345.474,190.257 344.5,192.5C 343.52,189.914 343.187,187.247 343.5,184.5C 344.791,184.737 345.791,184.404 346.5,183.5 Z"/></g>
<g><path style="opacity:1" fill="#606060" d="M 368.5,182.5 C 369.919,183.451 371.585,183.784 373.5,183.5C 373.5,185.5 373.5,187.5 373.5,189.5C 372.698,188.048 372.198,186.382 372,184.5C 371.503,186.81 371.337,189.143 371.5,191.5C 370.833,189.5 370.167,187.5 369.5,185.5C 368.909,184.849 368.243,184.182 367.5,183.5C 367.624,182.893 367.957,182.56 368.5,182.5 Z"/></g>
<g><path style="opacity:1" fill="#1e1e1e" d="M 373.5,189.5 C 374.189,190.774 375.023,190.774 376,189.5C 376.202,187.744 376.702,186.078 377.5,184.5C 378.833,187.167 378.833,189.833 377.5,192.5C 375.463,192.502 373.463,192.168 371.5,191.5C 371.337,189.143 371.503,186.81 372,184.5C 372.198,186.382 372.698,188.048 373.5,189.5 Z"/></g>
<g><path style="opacity:1" fill="#252525" d="M 380.5,183.5 C 383.119,183.232 385.619,183.565 388,184.5C 388.497,187.146 388.664,189.813 388.5,192.5C 387.5,192.5 386.5,192.5 385.5,192.5C 384.938,183.43 383.605,183.43 381.5,192.5C 380.516,189.572 380.183,186.572 380.5,183.5 Z"/></g>
<g><path style="opacity:1" fill="#2a2a2a" d="M 423.5,183.5 C 424.765,184.514 425.431,186.014 425.5,188C 425.167,189.5 424.833,191 424.5,192.5C 423.516,189.572 423.183,186.572 423.5,183.5 Z"/></g>
<g><path style="opacity:1" fill="#1e1e1e" d="M 438.5,184.5 C 440.5,184.5 442.5,184.5 444.5,184.5C 444.5,187.833 444.5,191.167 444.5,194.5C 442.433,196.512 440.1,196.846 437.5,195.5C 439.51,194.935 441.176,193.935 442.5,192.5C 441.005,192.522 439.338,192.189 437.5,191.5C 435.922,188.75 436.255,186.417 438.5,184.5 Z"/></g>
<g><path style="opacity:1" fill="#a7a7a7" d="M 438.5,184.5 C 440.607,183.532 442.941,183.198 445.5,183.5C 445.815,187.371 445.482,191.038 444.5,194.5C 444.5,191.167 444.5,187.833 444.5,184.5C 442.5,184.5 440.5,184.5 438.5,184.5 Z"/></g>
<g><path style="opacity:1" fill="#191919" d="M 282.5,180.5 C 284.048,180.821 284.715,181.821 284.5,183.5C 286.698,183.12 288.365,183.787 289.5,185.5C 289.5,187.833 289.5,190.167 289.5,192.5C 287.656,190.721 286.99,188.388 287.5,185.5C 286.209,185.263 285.209,185.596 284.5,186.5C 283.698,187.952 283.198,189.618 283,191.5C 282.501,187.848 282.335,184.182 282.5,180.5 Z"/></g>
<g><path style="opacity:1" fill="#5d5d5d" d="M 297.5,184.5 C 295.352,184.389 295.019,185.056 296.5,186.5C 294.994,187.747 293.494,187.747 292,186.5C 291.51,187.793 291.343,189.127 291.5,190.5C 290.833,191.167 290.167,191.833 289.5,192.5C 289.5,190.167 289.5,187.833 289.5,185.5C 291.228,184.621 293.061,183.954 295,183.5C 296.07,183.528 296.903,183.861 297.5,184.5 Z"/></g>
<g><path style="opacity:1" fill="#272727" d="M 312.5,180.5 C 314.045,181.23 314.878,182.563 315,184.5C 316.667,183.167 318.333,183.167 320,184.5C 320.497,187.146 320.664,189.813 320.5,192.5C 319.5,192.5 318.5,192.5 317.5,192.5C 316.938,183.43 315.605,183.43 313.5,192.5C 312.509,188.555 312.176,184.555 312.5,180.5 Z"/></g>
<g><path style="opacity:1" fill="#2a2a2a" d="M 322.5,183.5 C 325.914,184.247 329.247,184.247 332.5,183.5C 332.959,189.513 334.292,189.846 336.5,184.5C 337.294,186.856 336.961,189.189 335.5,191.5C 334.675,192.386 333.675,192.719 332.5,192.5C 330.634,183.391 329.301,183.391 328.5,192.5C 326.657,192.245 324.657,192.078 322.5,192C 321.483,190.951 321.316,189.784 322,188.5C 323.509,187.91 325.009,187.244 326.5,186.5C 324.668,185.943 323.335,184.943 322.5,183.5 Z"/></g>
<g><path style="opacity:1" fill="#1c1c1c" d="M 396.5,183.5 C 399.585,183.418 401.252,184.918 401.5,188C 401.116,191.745 399.282,192.911 396,191.5C 395.781,192.938 395.281,194.271 394.5,195.5C 393.511,191.893 393.177,188.226 393.5,184.5C 394.791,184.737 395.791,184.404 396.5,183.5 Z"/></g>
<g><path style="opacity:1" fill="#2a2a2a" d="M 427.5,183.5 C 429.932,183.636 432.432,183.969 435,184.5C 435.818,187.227 435.652,189.894 434.5,192.5C 433.526,190.257 433.192,187.924 433.5,185.5C 432.5,185.5 431.5,185.5 430.5,185.5C 430.5,187.833 430.5,190.167 430.5,192.5C 429.5,192.5 428.5,192.5 427.5,192.5C 427.5,189.5 427.5,186.5 427.5,183.5 Z"/></g>
<g><path style="opacity:1" fill="#2a2a2a" d="M 177.5,185.5 C 177.5,186.5 177.5,187.5 177.5,188.5C 170.951,188.907 170.951,189.907 177.5,191.5C 175.305,192.769 173.139,192.769 171,191.5C 170.231,188.901 170.398,186.401 171.5,184C 173.989,183.059 175.989,183.559 177.5,185.5 Z"/></g>
<g><path style="opacity:1" fill="#7e7d7e" d="M 201.5,185.5 C 202.167,186.5 202.833,187.5 203.5,188.5C 203.5,189.5 203.5,190.5 203.5,191.5C 202.833,191.833 202.167,192.167 201.5,192.5C 201.5,190.167 201.5,187.833 201.5,185.5 Z"/></g>
<g><path style="opacity:1" fill="#1c1c1c" d="M 238.5,180.5 C 240.197,182.305 241.03,184.639 241,187.5C 242.34,186.132 243.674,184.799 245,183.5C 245.5,183.667 246,183.833 246.5,184C 245.313,185.019 244.313,186.186 243.5,187.5C 247.5,192.833 246.833,193.5 241.5,189.5C 240.833,190.5 240.167,191.5 239.5,192.5C 238.509,188.555 238.176,184.555 238.5,180.5 Z"/></g>
<g><path style="opacity:1" fill="#292929" d="M 353.5,183.5 C 355.674,183.92 357.674,183.92 359.5,183.5C 360.659,187.122 360.825,190.789 360,194.5C 357.782,196.619 355.282,196.952 352.5,195.5C 358.76,194.315 358.927,192.981 353,191.5C 352.278,188.739 352.445,186.073 353.5,183.5 Z"/></g>
<g><path style="opacity:1" fill="#d6d6d6" d="M 354.5,185.5 C 358.161,185.35 359.161,186.85 357.5,190C 356.552,190.483 355.552,190.649 354.5,190.5C 354.5,188.833 354.5,187.167 354.5,185.5 Z"/></g>
<g><path style="opacity:1" fill="#565656" d="M 365.5,185.5 C 366.309,187.292 366.809,189.292 367,191.5C 367.191,189.292 367.691,187.292 368.5,185.5C 368.5,187.833 368.5,190.167 368.5,192.5C 367.5,192.5 366.5,192.5 365.5,192.5C 365.5,190.167 365.5,187.833 365.5,185.5 Z"/></g>
<g><path style="opacity:1" fill="#f1f1f1" d="M 396.5,185.5 C 397.649,185.791 398.316,186.624 398.5,188C 397.706,191.122 396.706,191.122 395.5,188C 395.743,187.098 396.077,186.265 396.5,185.5 Z"/></g>
<g><path style="opacity:1" fill="#2d2d2d" d="M 406.5,191.5 C 406.5,190.5 406.5,189.5 406.5,188.5C 408.042,187.837 409.709,187.17 411.5,186.5C 406.323,184.435 406.656,183.602 412.5,184C 413.435,186.381 413.768,188.881 413.5,191.5C 410.995,192.417 408.662,192.417 406.5,191.5 Z"/></g>
<g><path style="opacity:1" fill="#eceded" d="M 439.5,185.5 C 440.5,185.5 441.5,185.5 442.5,185.5C 442.5,187.167 442.5,188.833 442.5,190.5C 441.5,190.5 440.5,190.5 439.5,190.5C 439.5,188.833 439.5,187.167 439.5,185.5 Z"/></g>
<g><path style="opacity:1" fill="#272727" d="M 231.5,183.5 C 233.604,183.201 235.604,183.534 237.5,184.5C 232.361,185.197 232.195,186.53 237,188.5C 237.684,189.784 237.517,190.951 236.5,192C 234.741,192.798 233.074,192.631 231.5,191.5C 236.74,190.413 236.74,189.413 231.5,188.5C 231.5,186.833 231.5,185.167 231.5,183.5 Z"/></g>
<g><path style="opacity:1" fill="#1e1e1e" d="M 297.5,184.5 C 298.234,185.708 298.567,187.041 298.5,188.5C 291.951,188.907 291.951,189.907 298.5,191.5C 297.5,191.833 296.5,192.167 295.5,192.5C 293.645,192.66 292.312,191.993 291.5,190.5C 291.343,189.127 291.51,187.793 292,186.5C 293.494,187.747 294.994,187.747 296.5,186.5C 295.019,185.056 295.352,184.389 297.5,184.5 Z"/></g>
<g><path style="opacity:1" fill="#ebebeb" d="M 324.5,188.5 C 326.337,188.639 326.67,189.306 325.5,190.5C 324.702,190.043 324.369,189.376 324.5,188.5 Z"/></g>
<g><path style="opacity:1" fill="#1b1b1b" d="M 414.5,183.5 C 415.496,183.414 416.329,183.748 417,184.5C 418.44,190.961 419.44,190.961 420,184.5C 421.156,183.007 421.99,183.174 422.5,185C 421.137,188.09 419.97,191.256 419,194.5C 417.759,196.421 416.259,196.754 414.5,195.5C 416.012,194.751 417.012,193.584 417.5,192C 416.591,189.105 415.591,186.272 414.5,183.5 Z"/></g>
<g><path style="opacity:1" fill="#404040" d="M 266.5,190.5 C 267.675,190.281 268.675,190.614 269.5,191.5C 267.948,192.798 266.948,192.465 266.5,190.5 Z"/></g>
<g><path style="opacity:1" fill="#ffcf48" d="M 476.5,212.5 C 476.5,211.5 476.5,210.5 476.5,209.5C 479.841,210.157 481.841,208.824 482.5,205.5C 484.241,208.591 486.907,210.258 490.5,210.5C 488.336,213.029 487.002,216.029 486.5,219.5C 485.452,218.617 484.285,217.95 483,217.5C 481.433,218.856 479.6,219.523 477.5,219.5C 477.519,217.94 477.852,216.44 478.5,215C 478.361,213.699 477.695,212.866 476.5,212.5 Z"/></g>
<g><path style="opacity:1" fill="#ffce45" d="M 499.5,205.5 C 501.48,208.107 504.147,209.774 507.5,210.5C 505.014,212.578 504.014,215.245 504.5,218.5C 501.427,216.862 498.594,217.195 496,219.5C 496.086,215.953 494.92,212.953 492.5,210.5C 496.051,210.359 498.384,208.692 499.5,205.5 Z"/></g>
<g><path style="opacity:1" fill="#fccb39" d="M 535.5,205.5 C 535.539,206.583 535.873,207.583 536.5,208.5C 538.5,209.167 540.5,209.833 542.5,210.5C 541.653,211.845 540.487,212.845 539,213.5C 539.218,215.587 539.051,217.587 538.5,219.5C 536.09,217.232 533.423,216.899 530.5,218.5C 531.599,213.856 533.266,209.522 535.5,205.5 Z"/></g>
<g><path style="opacity:1" fill="#303030" d="M 160.5,207.5 C 161.675,207.281 162.675,207.614 163.5,208.5C 161.948,209.798 160.948,209.465 160.5,207.5 Z"/></g>
<g><path style="opacity:1" fill="#0a0a0a" d="M 205.5,207.5 C 206.794,209.048 207.461,211.048 207.5,213.5C 207.167,215.5 206.833,217.5 206.5,219.5C 205.509,215.555 205.176,211.555 205.5,207.5 Z"/></g>
<g><path style="opacity:1" fill="#232323" d="M 242.5,207.5 C 244.337,207.639 244.67,208.306 243.5,209.5C 242.702,209.043 242.369,208.376 242.5,207.5 Z"/></g>
<g><path style="opacity:1" fill="#1f1f1f" d="M 293.5,207.5 C 295.045,208.23 295.878,209.563 296,211.5C 297.667,210.167 299.333,210.167 301,211.5C 301.497,214.146 301.664,216.813 301.5,219.5C 300.5,219.5 299.5,219.5 298.5,219.5C 297.938,210.43 296.605,210.43 294.5,219.5C 293.509,215.555 293.176,211.555 293.5,207.5 Z"/></g>
<g><path style="opacity:1" fill="#242424" d="M 288.5,208.5 C 289.66,209.611 290.993,210.611 292.5,211.5C 291.675,212.386 290.675,212.719 289.5,212.5C 289.5,214.167 289.5,215.833 289.5,217.5C 290.675,217.281 291.675,217.614 292.5,218.5C 290.994,219.747 289.494,219.747 288,218.5C 287.713,216.109 287.213,213.776 286.5,211.5C 287.193,210.482 287.859,209.482 288.5,208.5 Z"/></g>
<g><path style="opacity:1" fill="#242424" d="M 359.5,208.5 C 360.007,209.859 361.007,210.859 362.5,211.5C 361.675,212.386 360.675,212.719 359.5,212.5C 359.5,214.167 359.5,215.833 359.5,217.5C 361.179,217.285 362.179,217.952 362.5,219.5C 360.856,219.714 359.356,219.38 358,218.5C 357.713,216.109 357.213,213.776 356.5,211.5C 357.548,210.452 358.548,209.452 359.5,208.5 Z"/></g>
<g><path style="opacity:1" fill="#1b1b1b" d="M 165.5,209.5 C 169.902,210.054 170.569,211.887 167.5,215C 167.844,216.365 168.511,217.532 169.5,218.5C 168.349,219.731 167.183,219.731 166,218.5C 165.13,215.385 164.964,212.385 165.5,209.5 Z"/></g>
<g><path style="opacity:1" fill="#222222" d="M 278.5,219.5 C 278.632,216.43 278.299,213.43 277.5,210.5C 278.151,209.909 278.818,209.243 279.5,208.5C 280.5,209.5 281.5,210.5 282.5,211.5C 279.833,213.833 279.833,216.167 282.5,218.5C 281.311,219.429 279.978,219.762 278.5,219.5 Z"/></g>
<g><path style="opacity:1" fill="#fbce43" d="M 550.5,209.5 C 551.871,211.936 552.871,214.603 553.5,217.5C 551.418,217.472 549.584,218.139 548,219.5C 548.086,215.953 546.92,212.953 544.5,210.5C 546.396,209.534 548.396,209.201 550.5,209.5 Z"/></g>
<g><path style="opacity:1" fill="#3b3b3b" d="M 160.5,210.5 C 161.5,210.5 162.5,210.5 163.5,210.5C 163.5,213.5 163.5,216.5 163.5,219.5C 162.5,219.5 161.5,219.5 160.5,219.5C 160.5,216.5 160.5,213.5 160.5,210.5 Z"/></g>
<g><path style="opacity:1" fill="#444444" d="M 242.5,210.5 C 243.5,210.5 244.5,210.5 245.5,210.5C 245.5,213.5 245.5,216.5 245.5,219.5C 244.5,219.5 243.5,219.5 242.5,219.5C 242.5,216.5 242.5,213.5 242.5,210.5 Z"/></g>
<g><path style="opacity:1" fill="#5c5c5c" d="M 253.5,211.5 C 251.5,211.5 249.5,211.5 247.5,211.5C 247.337,213.857 247.503,216.19 248,218.5C 248.198,216.618 248.698,214.952 249.5,213.5C 249.5,215.5 249.5,217.5 249.5,219.5C 248.5,219.5 247.5,219.5 246.5,219.5C 246.5,216.5 246.5,213.5 246.5,210.5C 249.059,210.198 251.393,210.532 253.5,211.5 Z"/></g>
<g><path style="opacity:1" fill="#111111" d="M 253.5,211.5 C 254.8,214.024 254.8,216.691 253.5,219.5C 252.526,217.257 252.192,214.924 252.5,212.5C 251.209,212.263 250.209,212.596 249.5,213.5C 248.698,214.952 248.198,216.618 248,218.5C 247.503,216.19 247.337,213.857 247.5,211.5C 249.5,211.5 251.5,211.5 253.5,211.5 Z"/></g>
<g><path style="opacity:1" fill="#151515" d="M 260.5,210.5 C 261.209,211.404 262.209,211.737 263.5,211.5C 263.665,214.85 263.498,218.183 263,221.5C 260.959,222.423 258.792,222.756 256.5,222.5C 257.919,221.549 259.585,221.216 261.5,221.5C 261.649,220.448 261.483,219.448 261,218.5C 257.595,220.11 256.095,218.944 256.5,215C 255.932,211.737 257.266,210.237 260.5,210.5 Z"/></g>
<g><path style="opacity:1" fill="#1e1e1e" d="M 330.5,210.5 C 334.669,210.852 338.669,211.018 342.5,211C 343.777,213.466 343.777,215.966 342.5,218.5C 341.534,216.604 341.201,214.604 341.5,212.5C 340.5,212.5 339.5,212.5 338.5,212.5C 337.833,220.5 337.167,220.5 336.5,212.5C 335.5,212.5 334.5,212.5 333.5,212.5C 333.5,214.833 333.5,217.167 333.5,219.5C 332.5,219.5 331.5,219.5 330.5,219.5C 330.5,216.5 330.5,213.5 330.5,210.5 Z"/></g>
<g><path style="opacity:1" fill="#cdcdcd" d="M 363.5,207.5 C 364.167,210.167 364.833,210.167 365.5,207.5C 366.74,208.659 368.074,209.659 369.5,210.5C 367.612,212.988 366.945,215.988 367.5,219.5C 366.833,219.5 366.167,219.5 365.5,219.5C 364.833,207.5 364.167,207.5 363.5,219.5C 363.167,219.5 362.833,219.5 362.5,219.5C 362.179,217.952 361.179,217.285 359.5,217.5C 359.5,215.833 359.5,214.167 359.5,212.5C 360.675,212.719 361.675,212.386 362.5,211.5C 361.007,210.859 360.007,209.859 359.5,208.5C 361.195,209.826 362.528,209.493 363.5,207.5 Z"/></g>
<g><path style="opacity:1" fill="#2b2b2b" d="M 365.5,219.5 C 364.833,219.5 364.167,219.5 363.5,219.5C 364.167,207.5 364.833,207.5 365.5,219.5 Z"/></g>
<g><path style="opacity:1" fill="#1a1a1a" d="M 363.5,207.5 C 364.167,207.5 364.833,207.5 365.5,207.5C 364.833,210.167 364.167,210.167 363.5,207.5 Z"/></g>
<g><path style="opacity:1" fill="#2b2b2b" d="M 369.5,210.5 C 372.665,210.927 375.998,211.094 379.5,211C 380.783,213.795 380.783,216.628 379.5,219.5C 378.526,217.257 378.192,214.924 378.5,212.5C 377.5,212.5 376.5,212.5 375.5,212.5C 375.5,214.833 375.5,217.167 375.5,219.5C 374.5,219.5 373.5,219.5 372.5,219.5C 371.833,210.167 371.167,210.167 370.5,219.5C 369.5,219.5 368.5,219.5 367.5,219.5C 366.945,215.988 367.612,212.988 369.5,210.5 Z"/></g>
<g><path style="opacity:1" fill="#292929" d="M 197.5,207.5 C 198.5,207.5 199.5,207.5 200.5,207.5C 200.5,211.5 200.5,215.5 200.5,219.5C 198.143,219.663 195.81,219.497 193.5,219C 192.126,215.59 191.459,215.757 191.5,219.5C 190.5,219.5 189.5,219.5 188.5,219.5C 188.5,217.167 188.5,214.833 188.5,212.5C 187.5,212.5 186.5,212.5 185.5,212.5C 185.799,214.604 185.466,216.604 184.5,218.5C 183.526,216.257 183.192,213.924 183.5,211.5C 185.199,211.38 186.865,211.046 188.5,210.5C 190.425,210.59 191.592,211.59 192,213.5C 192.928,210.965 194.762,209.965 197.5,210.5C 197.5,209.5 197.5,208.5 197.5,207.5 Z"/></g>
<g><path style="opacity:1" fill="#2a2a2a" d="M 232.5,210.5 C 232.5,211.167 232.5,211.833 232.5,212.5C 231.504,212.414 230.671,212.748 230,213.5C 229.505,215.473 229.338,217.473 229.5,219.5C 228.5,219.5 227.5,219.5 226.5,219.5C 226.5,216.5 226.5,213.5 226.5,210.5C 228.5,210.5 230.5,210.5 232.5,210.5 Z"/></g>
<g><path style="opacity:1" fill="#8a8a8a" d="M 232.5,210.5 C 233.833,210.5 235.167,210.5 236.5,210.5C 235.791,211.404 234.791,211.737 233.5,211.5C 232.99,214.388 233.656,216.721 235.5,218.5C 234.791,219.404 233.791,219.737 232.5,219.5C 232.5,217.167 232.5,214.833 232.5,212.5C 232.5,211.833 232.5,211.167 232.5,210.5 Z"/></g>
<g><path style="opacity:1" fill="#212121" d="M 236.5,210.5 C 238.39,210.297 239.89,210.963 241,212.5C 241.497,214.81 241.663,217.143 241.5,219.5C 240.5,219.5 239.5,219.5 238.5,219.5C 238.5,217.167 238.5,214.833 238.5,212.5C 237.5,212.5 236.5,212.5 235.5,212.5C 235.5,214.5 235.5,216.5 235.5,218.5C 233.656,216.721 232.99,214.388 233.5,211.5C 234.791,211.737 235.791,211.404 236.5,210.5 Z"/></g>
<g><path style="opacity:1" fill="#ededed" d="M 258.5,212.5 C 259.5,212.5 260.5,212.5 261.5,212.5C 261.5,214.167 261.5,215.833 261.5,217.5C 260.5,217.5 259.5,217.5 258.5,217.5C 258.5,215.833 258.5,214.167 258.5,212.5 Z"/></g>
<g><path style="opacity:1" fill="#c0c0c0" d="M 274.5,210.5 C 275.5,210.5 276.5,210.5 277.5,210.5C 278.299,213.43 278.632,216.43 278.5,219.5C 276.5,219.5 274.5,219.5 272.5,219.5C 273.209,218.596 274.209,218.263 275.5,218.5C 275.721,215.721 275.388,213.054 274.5,210.5 Z"/></g>
<g><path style="opacity:1" fill="#2d2d2d" d="M 304.5,210.5 C 308.349,210.019 310.349,211.686 310.5,215.5C 304.627,215.598 304.294,216.598 309.5,218.5C 302.409,219.531 300.742,216.864 304.5,210.5 Z"/></g>
<g><path style="opacity:1" fill="#d4d4d4" d="M 194.5,212.5 C 198.161,212.35 199.161,213.85 197.5,217C 196.552,217.483 195.552,217.649 194.5,217.5C 194.5,215.833 194.5,214.167 194.5,212.5 Z"/></g>
<g><path style="opacity:1" fill="#1f1f1f" d="M 224.5,212.5 C 224.5,214.5 224.5,216.5 224.5,218.5C 222.058,218.881 221.391,218.214 222.5,216.5C 221.5,215.167 220.5,215.167 219.5,216.5C 220.981,217.944 220.648,218.611 218.5,218.5C 217.393,215.381 218.726,213.547 222.5,213C 221.062,212.781 219.729,212.281 218.5,211.5C 220.912,210.051 222.912,210.384 224.5,212.5 Z"/></g>
<g><path style="opacity:1" fill="#3f3f3f" d="M 174.5,210.5 C 176.792,210.244 178.959,210.577 181,211.5C 181.497,214.146 181.664,216.813 181.5,219.5C 178.881,219.768 176.381,219.435 174,218.5C 173.558,215.26 175.058,213.427 178.5,213C 176.563,212.878 175.23,212.045 174.5,210.5 Z"/></g>
<g><path style="opacity:1" fill="#2c2c2c" d="M 210.5,210.5 C 214.938,209.425 216.938,211.092 216.5,215.5C 209.951,215.907 209.951,216.907 216.5,218.5C 214.579,219.641 212.579,219.808 210.5,219C 209.214,216.168 209.214,213.335 210.5,210.5 Z"/></g>
<g><path style="opacity:1" fill="#272727" d="M 328.5,212.5 C 328.662,214.527 328.495,216.527 328,218.5C 327.221,217.272 326.221,216.272 325,215.5C 323.174,216.01 323.007,216.844 324.5,218C 323.906,218.464 323.239,218.631 322.5,218.5C 319.792,219.449 317.126,219.449 314.5,218.5C 319.639,217.803 319.805,216.47 315,214.5C 314.333,213.5 314.333,212.5 315,211.5C 316.814,210.24 318.647,210.24 320.5,211.5C 319.271,212.281 317.938,212.781 316.5,213C 317.891,214.02 319.391,214.853 321,215.5C 322.648,214.283 324.481,213.45 326.5,213C 325.062,212.781 323.729,212.281 322.5,211.5C 324.912,210.051 326.912,210.384 328.5,212.5 Z"/></g>
<g><path style="opacity:1" fill="#232323" d="M 274.5,210.5 C 275.388,213.054 275.721,215.721 275.5,218.5C 274.209,218.263 273.209,218.596 272.5,219.5C 268.839,219.65 267.839,218.15 269.5,215C 274.73,214.091 274.73,212.925 269.5,211.5C 271.045,210.548 272.712,210.215 274.5,210.5 Z"/></g>
<g><path style="opacity:1" fill="#e8e8e8" d="M 271.5,215.5 C 273.337,215.639 273.67,216.306 272.5,217.5C 271.702,217.043 271.369,216.376 271.5,215.5 Z"/></g>
<g><path style="opacity:1" fill="#292929" d="M 346.5,210.5 C 350.938,209.425 352.938,211.092 352.5,215.5C 345.864,216.022 345.864,216.855 352.5,218C 350.728,219.487 348.728,219.82 346.5,219C 345.214,216.168 345.214,213.335 346.5,210.5 Z"/></g>
<g><path style="opacity:1" fill="#2a2a2a" d="M 383.5,210.5 C 387.938,209.425 389.938,211.092 389.5,215.5C 382.864,216.022 382.864,216.855 389.5,218C 387.728,219.487 385.728,219.82 383.5,219C 382.214,216.168 382.214,213.335 383.5,210.5 Z"/></g>
<g><path style="opacity:1" fill="#787878" d="M 224.5,212.5 C 225.468,214.607 225.802,216.941 225.5,219.5C 222.941,219.802 220.607,219.468 218.5,218.5C 220.648,218.611 220.981,217.944 219.5,216.5C 220.5,215.167 221.5,215.167 222.5,216.5C 221.391,218.214 222.058,218.881 224.5,218.5C 224.5,216.5 224.5,214.5 224.5,212.5 Z"/></g>
<g><path style="opacity:1" fill="#7c7c7c" d="M 328.5,212.5 C 329.468,214.607 329.802,216.941 329.5,219.5C 326.941,219.802 324.607,219.468 322.5,218.5C 323.239,218.631 323.906,218.464 324.5,218C 323.007,216.844 323.174,216.01 325,215.5C 326.221,216.272 327.221,217.272 328,218.5C 328.495,216.527 328.662,214.527 328.5,212.5 Z"/></g>
<g><path style="opacity:1" fill="#a4a4a4" d="M 260.5,210.5 C 261.833,210.5 263.167,210.5 264.5,210.5C 264.666,214.514 264.499,218.514 264,222.5C 261.395,223.814 258.895,223.814 256.5,222.5C 258.792,222.756 260.959,222.423 263,221.5C 263.498,218.183 263.665,214.85 263.5,211.5C 262.209,211.737 261.209,211.404 260.5,210.5 Z"/></g>
<g><path style="opacity:1" fill="#e0e0e0" d="M 221.5,250.5 C 221.5,279.5 221.5,308.5 221.5,337.5C 220.502,306.338 220.168,275.004 220.5,243.5C 298.167,243.667 375.834,243.5 453.5,243C 461.646,241.353 466.646,236.52 468.5,228.5C 469.333,188.002 469.833,147.335 470,106.5C 470.333,128.5 470.667,150.5 471,172.5C 471.412,176.491 473.246,179.658 476.5,182C 475.234,182.309 474.067,182.809 473,183.5C 472.667,198.5 472.333,213.5 472,228.5C 469.058,241.099 461.058,247.433 448,247.5C 372.992,247.181 297.659,246.848 222,246.5C 221.51,247.793 221.343,249.127 221.5,250.5 Z"/></g>
<g><path style="opacity:1" fill="#191919" d="M 253.5,262.5 C 255.048,262.821 255.715,263.821 255.5,265.5C 257.467,265.261 259.301,265.594 261,266.5C 261.818,269.227 261.652,271.894 260.5,274.5C 259.526,272.257 259.192,269.924 259.5,267.5C 258.167,267.5 256.833,267.5 255.5,267.5C 255.799,269.604 255.466,271.604 254.5,273.5C 253.511,269.893 253.177,266.226 253.5,262.5 Z"/></g>
<g><path style="opacity:1" fill="#171717" d="M 304.5,266.5 C 305.01,269.388 304.344,271.721 302.5,273.5C 302.5,271.5 302.5,269.5 302.5,267.5C 301.5,267.5 300.5,267.5 299.5,267.5C 298.981,274.968 298.315,275.134 297.5,268C 297.833,266.167 298.167,264.333 298.5,262.5C 299.386,263.325 299.719,264.325 299.5,265.5C 301.415,265.216 303.081,265.549 304.5,266.5 Z"/></g>
<g><path style="opacity:1" fill="#a6a6a6" d="M 341.5,262.5 C 339.586,265.684 338.92,269.351 339.5,273.5C 338.833,273.5 338.167,273.5 337.5,273.5C 334.833,270.833 334.833,268.167 337.5,265.5C 338.434,264.432 338.768,263.099 338.5,261.5C 339.791,261.263 340.791,261.596 341.5,262.5 Z"/></g>
<g><path style="opacity:1" fill="#1c1c1c" d="M 341.5,262.5 C 341.5,263.5 341.5,264.5 341.5,265.5C 343.167,265.5 344.833,265.5 346.5,265.5C 346.813,268.247 346.48,270.914 345.5,273.5C 344.534,271.604 344.201,269.604 344.5,267.5C 343.5,267.5 342.5,267.5 341.5,267.5C 341.808,269.924 341.474,272.257 340.5,274.5C 339.893,274.376 339.56,274.043 339.5,273.5C 338.92,269.351 339.586,265.684 341.5,262.5 Z"/></g>
<g><path style="opacity:1" fill="#161616" d="M 244.5,262.5 C 247.247,262.187 249.914,262.52 252.5,263.5C 251.675,264.386 250.675,264.719 249.5,264.5C 248.833,276.5 248.167,276.5 247.5,264.5C 245.821,264.715 244.821,264.048 244.5,262.5 Z"/></g>
<g><path style="opacity:1" fill="#222222" d="M 451.5,263.5 C 453.078,264.066 454.412,265.066 455.5,266.5C 452.833,268.833 452.833,271.167 455.5,273.5C 454.349,274.731 453.183,274.731 452,273.5C 451.028,270.087 450.862,266.753 451.5,263.5 Z"/></g>
<g><path style="opacity:1" fill="#1d1d1d" d="M 268.5,267.5 C 267.5,267.5 266.5,267.5 265.5,267.5C 265.808,269.924 265.474,272.257 264.5,274.5C 263.516,271.572 263.183,268.572 263.5,265.5C 265.781,265.077 267.448,265.744 268.5,267.5 Z"/></g>
<g><path style="opacity:1" fill="#202020" d="M 268.5,267.5 C 274.711,263.702 277.211,265.369 276,272.5C 273.368,275.192 271.034,274.859 269,271.5C 268.51,270.207 268.343,268.873 268.5,267.5 Z"/></g>
<g><path style="opacity:1" fill="#181818" d="M 285.5,265.5 C 285.806,268.385 285.473,271.052 284.5,273.5C 282.609,274.536 280.776,274.536 279,273.5C 278.182,270.773 278.348,268.106 279.5,265.5C 280.474,267.743 280.808,270.076 280.5,272.5C 281.5,272.5 282.5,272.5 283.5,272.5C 282.99,269.612 283.656,267.279 285.5,265.5 Z"/></g>
<g><path style="opacity:1" fill="#7c7c7c" d="M 285.5,265.5 C 286.167,266.167 286.833,266.833 287.5,267.5C 287.5,268.833 287.5,270.167 287.5,271.5C 286.842,272.398 286.176,273.398 285.5,274.5C 284.893,274.376 284.56,274.043 284.5,273.5C 285.473,271.052 285.806,268.385 285.5,265.5 Z"/></g>
<g><path style="opacity:1" fill="#232323" d="M 287.5,271.5 C 287.5,270.167 287.5,268.833 287.5,267.5C 287.611,266.883 287.944,266.383 288.5,266C 290.657,265.922 292.657,265.755 294.5,265.5C 295.657,268.784 295.824,272.118 295,275.5C 292.782,277.619 290.282,277.952 287.5,276.5C 289.167,275.833 290.833,275.167 292.5,274.5C 290.375,274.922 288.708,273.922 287.5,271.5 Z"/></g>
<g><path style="opacity:1" fill="#2f2f2f" d="M 310.5,262.5 C 311.822,262.33 312.989,262.663 314,263.5C 315.338,272.67 316.838,272.67 318.5,263.5C 319.689,262.571 321.022,262.238 322.5,262.5C 322.824,266.555 322.491,270.555 321.5,274.5C 319.869,272.941 319.036,270.941 319,268.5C 317.991,270.025 317.491,271.692 317.5,273.5C 316.325,273.719 315.325,273.386 314.5,272.5C 313.811,270.556 313.311,268.556 313,266.5C 312.814,268.9 312.314,271.234 311.5,273.5C 310.511,269.893 310.177,266.226 310.5,262.5 Z"/></g>
<g><path style="opacity:1" fill="#1d1d1d" d="M 348.5,265.5 C 355.107,263.749 357.607,266.082 356,272.5C 354.89,274.037 353.39,274.703 351.5,274.5C 351.5,275.5 351.5,276.5 351.5,277.5C 350.5,277.5 349.5,277.5 348.5,277.5C 348.5,273.5 348.5,269.5 348.5,265.5 Z"/></g>
<g><path style="opacity:1" fill="#525252" d="M 357.5,262.5 C 358.5,262.5 359.5,262.5 360.5,262.5C 360.5,266.5 360.5,270.5 360.5,274.5C 359.5,274.5 358.5,274.5 357.5,274.5C 357.5,270.5 357.5,266.5 357.5,262.5 Z"/></g>
<g><path style="opacity:1" fill="#101010" d="M 382.5,267.5 C 381.691,269.292 381.191,271.292 381,273.5C 380.809,271.292 380.309,269.292 379.5,267.5C 378.5,267.5 377.5,267.5 376.5,267.5C 376.799,269.604 376.466,271.604 375.5,273.5C 374.52,270.914 374.187,268.247 374.5,265.5C 378.669,265.852 382.669,266.018 386.5,266C 387.777,268.466 387.777,270.966 386.5,273.5C 385.534,271.604 385.201,269.604 385.5,267.5C 384.5,267.5 383.5,267.5 382.5,267.5 Z"/></g>
<g><path style="opacity:1" fill="#747474" d="M 412.5,265.5 C 413.167,265.5 413.833,265.5 414.5,265.5C 414.5,267.833 414.5,270.167 414.5,272.5C 413.833,272.833 413.167,273.167 412.5,273.5C 411.833,272.833 411.167,272.167 410.5,271.5C 411.5,271.5 412.5,271.5 413.5,271.5C 413.5,270.167 413.5,268.833 413.5,267.5C 412.5,267.5 411.5,267.5 410.5,267.5C 411.167,266.833 411.833,266.167 412.5,265.5 Z"/></g>
<g><path style="opacity:1" fill="#141414" d="M 414.5,265.5 C 416.344,267.279 417.01,269.612 416.5,272.5C 417.5,272.5 418.5,272.5 419.5,272.5C 419.192,270.076 419.526,267.743 420.5,265.5C 421.48,268.086 421.813,270.753 421.5,273.5C 419.94,273.519 418.44,273.852 417,274.5C 415.699,274.361 414.866,273.695 414.5,272.5C 414.5,270.167 414.5,267.833 414.5,265.5 Z"/></g>
<g><path style="opacity:1" fill="#242424" d="M 428.5,261.5 C 429.5,261.5 430.5,261.5 431.5,261.5C 431.5,265.5 431.5,269.5 431.5,273.5C 425.064,275.567 422.564,273.234 424,266.5C 425.356,265.62 426.856,265.286 428.5,265.5C 428.5,264.167 428.5,262.833 428.5,261.5 Z"/></g>
<g><path style="opacity:1" fill="#262626" d="M 476.5,265.5 C 480.6,266.217 484.6,266.384 488.5,266C 490.037,267.11 490.703,268.61 490.5,270.5C 483.431,270.743 483.097,271.577 489.5,273C 488.07,274.44 486.403,274.774 484.5,274C 482.372,272.333 481.039,270.166 480.5,267.5C 479.012,269.149 478.012,271.149 477.5,273.5C 476.52,270.914 476.187,268.247 476.5,265.5 Z"/></g>
<g><path style="opacity:1" fill="#e4e4e4" d="M 271.5,267.5 C 272.5,267.5 273.5,267.5 274.5,267.5C 274.5,269.167 274.5,270.833 274.5,272.5C 273.5,272.5 272.5,272.5 271.5,272.5C 271.5,270.833 271.5,269.167 271.5,267.5 Z"/></g>
<g><path style="opacity:1" fill="#7e7e7e" d="M 304.5,266.5 C 305.473,268.948 305.806,271.615 305.5,274.5C 304.209,274.737 303.209,274.404 302.5,273.5C 304.344,271.721 305.01,269.388 304.5,266.5 Z"/></g>
<g><path style="opacity:1" fill="#151515" d="M 337.5,265.5 C 334.833,268.167 334.833,270.833 337.5,273.5C 336.458,274.791 335.292,274.791 334,273.5C 333.713,271.109 333.213,268.776 332.5,266.5C 332.919,265.328 333.585,264.328 334.5,263.5C 335.265,264.612 336.265,265.279 337.5,265.5 Z"/></g>
<g><path style="opacity:1" fill="#dadada" d="M 351.5,267.5 C 352.5,267.5 353.5,267.5 354.5,267.5C 354.884,269.665 354.217,271.332 352.5,272.5C 351.548,270.955 351.215,269.288 351.5,267.5 Z"/></g>
<g><path style="opacity:1" fill="#f8f8f8" d="M 410.5,267.5 C 411.5,267.5 412.5,267.5 413.5,267.5C 413.5,268.833 413.5,270.167 413.5,271.5C 412.5,271.5 411.5,271.5 410.5,271.5C 410.5,270.167 410.5,268.833 410.5,267.5 Z"/></g>
<g><path style="opacity:1" fill="#e1e1e1" d="M 425.5,267.5 C 426.5,267.5 427.5,267.5 428.5,267.5C 428.785,269.288 428.452,270.955 427.5,272.5C 425.783,271.332 425.116,269.665 425.5,267.5 Z"/></g>
<g><path style="opacity:1" fill="#2e2e2e" d="M 433.5,265.5 C 435.527,265.338 437.527,265.505 439.5,266C 440.38,267.356 440.714,268.856 440.5,270.5C 434.739,270.709 434.406,271.542 439.5,273C 435.383,275.548 433.049,274.381 432.5,269.5C 432.623,268.075 432.957,266.742 433.5,265.5 Z"/></g>
<g><path style="opacity:1" fill="#cdcdcd" d="M 289.5,267.5 C 290.833,267.5 292.167,267.5 293.5,267.5C 293.884,269.665 293.217,271.332 291.5,272.5C 289.783,271.332 289.116,269.665 289.5,267.5 Z"/></g>
<g><path style="opacity:1" fill="#3e3e3e" d="M 324.5,265.5 C 330.905,264.406 333.238,267.073 331.5,273.5C 328.894,274.136 326.394,274.136 324,273.5C 322.863,269.63 324.363,267.797 328.5,268C 326.563,267.878 325.23,267.045 324.5,265.5 Z"/></g>
<g><path style="opacity:1" fill="#131313" d="M 441.5,265.5 C 448.878,263.874 451.211,266.541 448.5,273.5C 447.534,271.604 447.201,269.604 447.5,267.5C 446.167,267.5 444.833,267.5 443.5,267.5C 443.799,269.604 443.466,271.604 442.5,273.5C 441.52,270.914 441.187,268.247 441.5,265.5 Z"/></g>
<g><path style="opacity:1" fill="#545454" d="M 379.5,267.5 C 380.309,269.292 380.809,271.292 381,273.5C 381.191,271.292 381.691,269.292 382.5,267.5C 382.5,269.833 382.5,272.167 382.5,274.5C 381.5,274.5 380.5,274.5 379.5,274.5C 379.5,272.167 379.5,269.833 379.5,267.5 Z"/></g>
<g><path style="opacity:1" fill="#282828" d="M 457.5,265.5 C 459.288,265.215 460.955,265.548 462.5,266.5C 458.519,267.494 458.519,268.494 462.5,269.5C 463.856,272.447 462.856,274.113 459.5,274.5C 458.263,274.444 457.263,273.944 456.5,273C 457.938,272.781 459.271,272.281 460.5,271.5C 457.479,270.227 456.479,268.227 457.5,265.5 Z"/></g>
<g><path style="opacity:1" fill="#222222" d="M 468.5,265.5 C 470.5,265.5 472.5,265.5 474.5,265.5C 474.5,268.167 474.5,270.833 474.5,273.5C 472.248,274.333 470.081,274.333 468,273.5C 466.863,269.63 468.363,267.797 472.5,268C 471.464,266.383 470.297,266.216 469,267.5C 468.536,266.906 468.369,266.239 468.5,265.5 Z"/></g>
<g><path style="opacity:1" fill="#171717" d="M 367.5,262.5 C 369.414,265.684 370.08,269.351 369.5,273.5C 363.064,275.567 360.564,273.234 362,266.5C 363.699,265.594 365.533,265.261 367.5,265.5C 367.5,264.5 367.5,263.5 367.5,262.5 Z"/></g>
<g><path style="opacity:1" fill="#cacaca" d="M 363.5,267.5 C 364.833,267.5 366.167,267.5 367.5,267.5C 367.884,269.665 367.217,271.332 365.5,272.5C 363.783,271.332 363.116,269.665 363.5,267.5 Z"/></g>
<g><path style="opacity:1" fill="#232323" d="M 412.5,265.5 C 411.833,266.167 411.167,266.833 410.5,267.5C 410.5,268.833 410.5,270.167 410.5,271.5C 411.167,272.167 411.833,272.833 412.5,273.5C 411.458,274.791 410.292,274.791 409,273.5C 408.505,271.527 408.338,269.527 408.5,267.5C 406.801,267.34 405.134,267.506 403.5,268C 406.473,269.224 407.14,271.224 405.5,274C 399.656,274.398 399.323,273.565 404.5,271.5C 403.672,270.585 402.672,269.919 401.5,269.5C 400.417,268.635 400.251,267.635 401,266.5C 404.018,266.019 406.852,265.019 409.5,263.5C 410.265,264.612 411.265,265.279 412.5,265.5 Z"/></g>
<g><path style="opacity:1" fill="#1a1a1a" d="M 388.5,265.5 C 389.5,265.5 390.5,265.5 391.5,265.5C 391.238,266.978 391.571,268.311 392.5,269.5C 393.5,268.167 394.5,266.833 395.5,265.5C 395.833,266 396.167,266.5 396.5,267C 395.195,269.776 394.029,272.61 393,275.5C 391.759,277.421 390.259,277.754 388.5,276.5C 389.325,275.614 390.325,275.281 391.5,275.5C 390.901,272.037 389.901,268.704 388.5,265.5 Z"/></g>
<g><path style="opacity:1" fill="#bfbfbf" d="M 469.5,270.5 C 472.797,270.329 473.131,270.995 470.5,272.5C 469.702,272.043 469.369,271.376 469.5,270.5 Z"/></g>
<g><path style="opacity:1" fill="#787878" d="M 500.5,289.5 C 499.213,290.871 498.547,292.705 498.5,295C 498.547,297.295 499.213,299.129 500.5,300.5C 499.791,301.404 498.791,301.737 497.5,301.5C 497.5,297.167 497.5,292.833 497.5,288.5C 498.791,288.263 499.791,288.596 500.5,289.5 Z"/></g>
<g><path style="opacity:1" fill="#1b1b1b" d="M 500.5,289.5 C 500.5,293.167 500.5,296.833 500.5,300.5C 499.213,299.129 498.547,297.295 498.5,295C 498.547,292.705 499.213,290.871 500.5,289.5 Z"/></g>
<g><path style="opacity:1" fill="#151515" d="M 343.5,292.5 C 340.939,295.01 340.939,297.51 343.5,300C 342.552,300.483 341.552,300.649 340.5,300.5C 339.734,298.316 339.067,295.982 338.5,293.5C 338.919,292.328 339.585,291.328 340.5,290.5C 341.265,291.612 342.265,292.279 343.5,292.5 Z"/></g>
<g><path style="opacity:1" fill="#1d1d1d" d="M 371.5,293.5 C 370.5,293.5 369.5,293.5 368.5,293.5C 367.855,296.547 368.855,298.713 371.5,300C 370.207,300.49 368.873,300.657 367.5,300.5C 366.468,297.98 365.968,295.314 366,292.5C 366.667,291.833 367.333,291.167 368,290.5C 368.985,291.814 370.152,292.814 371.5,293.5 Z"/></g>
<g><path style="opacity:1" fill="#2c2c2c" d="M 480.5,290.5 C 481.66,291.611 482.993,292.611 484.5,293.5C 481.833,295.833 481.833,298.167 484.5,300.5C 482.741,301.754 481.241,301.421 480,299.5C 478.519,296.185 478.686,293.185 480.5,290.5 Z"/></g>
<g><path style="opacity:1" fill="#111111" d="M 253.5,292.5 C 260.878,290.874 263.211,293.541 260.5,300.5C 259.534,298.604 259.201,296.604 259.5,294.5C 258.167,294.5 256.833,294.5 255.5,294.5C 255.799,296.604 255.466,298.604 254.5,300.5C 253.52,297.914 253.187,295.247 253.5,292.5 Z"/></g>
<g><path style="opacity:1" fill="#222222" d="M 331.5,292.5 C 337.067,291.753 338.9,294.087 337,299.5C 334.321,302.172 331.988,301.838 330,298.5C 329.252,296.16 329.752,294.16 331.5,292.5 Z"/></g>
<g><path style="opacity:1" fill="#111111" d="M 345.5,292.5 C 347.369,294.635 348.036,297.302 347.5,300.5C 345.631,298.365 344.964,295.698 345.5,292.5 Z"/></g>
<g><path style="opacity:1" fill="#242424" d="M 373.5,300.5 C 372.631,298.283 372.298,295.95 372.5,293.5C 377.09,291.257 379.424,292.59 379.5,297.5C 372.864,298.022 372.864,298.855 379.5,300C 377.635,301.8 375.635,301.966 373.5,300.5 Z"/></g>
<g><path style="opacity:1" fill="#171717" d="M 409.5,293.5 C 409.663,295.857 409.497,298.19 409,300.5C 408.809,298.292 408.309,296.292 407.5,294.5C 406.5,294.5 405.5,294.5 404.5,294.5C 404.799,296.604 404.466,298.604 403.5,300.5C 402.52,297.914 402.187,295.247 402.5,292.5C 405.059,292.198 407.393,292.532 409.5,293.5 Z"/></g>
<g><path style="opacity:1" fill="#8e8e8e" d="M 450.5,292.5 C 448.631,294.635 447.964,297.302 448.5,300.5C 447.833,300.5 447.167,300.5 446.5,300.5C 445.5,299.833 444.5,299.167 443.5,298.5C 444.833,298.5 446.167,298.5 447.5,298.5C 447.5,297.167 447.5,295.833 447.5,294.5C 446.167,294.5 444.833,294.5 443.5,294.5C 444.263,293.732 445.263,293.232 446.5,293C 445.207,292.51 443.873,292.343 442.5,292.5C 445.057,291.412 447.724,290.412 450.5,289.5C 450.5,290.5 450.5,291.5 450.5,292.5 Z"/></g>
<g><path style="opacity:1" fill="#090a09" d="M 450.5,292.5 C 451.036,295.698 450.369,298.365 448.5,300.5C 447.964,297.302 448.631,294.635 450.5,292.5 Z"/></g>
<g><path style="opacity:1" fill="#252525" d="M 453.5,290.5 C 454.66,291.611 455.993,292.611 457.5,293.5C 456.675,294.386 455.675,294.719 454.5,294.5C 454.022,297.278 455.022,299.278 457.5,300.5C 455.994,301.747 454.494,301.747 453,300.5C 452.713,298.109 452.213,295.776 451.5,293.5C 452.193,292.482 452.859,291.482 453.5,290.5 Z"/></g>
<g><path style="opacity:1" fill="#1f1f1f" d="M 281.5,292.5 C 283.833,292.5 286.167,292.5 288.5,292.5C 288.665,296.182 288.499,299.848 288,303.5C 285.861,304.769 283.695,304.769 281.5,303.5C 288.167,302.167 288.167,300.833 281.5,299.5C 280.328,297.177 280.328,294.844 281.5,292.5 Z"/></g>
<g><path style="opacity:1" fill="#252525" d="M 304.5,288.5 C 306.423,292.029 307.089,296.029 306.5,300.5C 302.288,301.055 298.621,300.055 295.5,297.5C 294.5,297.833 293.5,298.167 292.5,298.5C 294.078,299.298 295.744,299.798 297.5,300C 295.191,302.051 293.024,301.884 291,299.5C 289.596,292.457 291.929,290.79 298,294.5C 299.733,292.398 301.733,292.065 304,293.5C 304.494,291.866 304.66,290.199 304.5,288.5 Z"/></g>
<g><path style="opacity:1" fill="#212121" d="M 315.5,292.5 C 319.669,292.852 323.669,293.018 327.5,293C 328.777,295.466 328.777,297.966 327.5,300.5C 326.534,298.604 326.201,296.604 326.5,294.5C 325.5,294.5 324.5,294.5 323.5,294.5C 323.5,296.833 323.5,299.167 323.5,301.5C 322.5,301.5 321.5,301.5 320.5,301.5C 320.5,299.167 320.5,296.833 320.5,294.5C 319.5,294.5 318.5,294.5 317.5,294.5C 317.799,296.604 317.466,298.604 316.5,300.5C 315.52,297.914 315.187,295.247 315.5,292.5 Z"/></g>
<g><path style="opacity:1" fill="#191919" d="M 386.5,289.5 C 388.414,292.684 389.08,296.351 388.5,300.5C 382.046,302.549 379.546,300.215 381,293.5C 382.699,292.594 384.533,292.261 386.5,292.5C 386.5,291.5 386.5,290.5 386.5,289.5 Z"/></g>
<g><path style="opacity:1" fill="#1b1b1b" d="M 417.5,289.5 C 419.414,292.684 420.08,296.351 419.5,300.5C 413.064,302.567 410.564,300.234 412,293.5C 413.699,292.594 415.533,292.261 417.5,292.5C 417.5,291.5 417.5,290.5 417.5,289.5 Z"/></g>
<g><path style="opacity:1" fill="#1c1c1c" d="M 442.5,292.5 C 443.873,292.343 445.207,292.51 446.5,293C 445.263,293.232 444.263,293.732 443.5,294.5C 442.167,295.833 442.167,297.167 443.5,298.5C 444.5,299.167 445.5,299.833 446.5,300.5C 441.161,301.632 439.327,299.299 441,293.5C 441.383,292.944 441.883,292.611 442.5,292.5 Z"/></g>
<g><path style="opacity:1" fill="#272727" d="M 472.5,289.5 C 474.414,292.684 475.08,296.351 474.5,300.5C 472.738,300.357 471.071,300.691 469.5,301.5C 467.876,299.559 465.876,298.226 463.5,297.5C 462.5,297.833 461.5,298.167 460.5,298.5C 462.078,299.298 463.744,299.798 465.5,300C 463.191,302.051 461.024,301.884 459,299.5C 457.596,292.457 459.929,290.79 466,294.5C 467.733,292.398 469.733,292.065 472,293.5C 472.49,292.207 472.657,290.873 472.5,289.5 Z"/></g>
<g><path style="opacity:1" fill="#272727" d="M 486.5,292.5 C 492.487,291.977 494.487,294.477 492.5,300C 485.841,301.822 483.841,299.322 486.5,292.5 Z"/></g>
<g><path style="opacity:1" fill="#1e1e1e" d="M 519.5,292.5 C 521.288,292.215 522.955,292.548 524.5,293.5C 522.205,295.2 520.872,297.534 520.5,300.5C 519.52,297.914 519.187,295.247 519.5,292.5 Z"/></g>
<g><path style="opacity:1" fill="#141414" d="M 528.5,294.5 C 528.06,296.844 527.06,298.844 525.5,300.5C 525.5,297.833 525.5,295.167 525.5,292.5C 532.878,290.874 535.211,293.541 532.5,300.5C 531.534,298.604 531.201,296.604 531.5,294.5C 530.5,294.5 529.5,294.5 528.5,294.5 Z"/></g>
<g><path style="opacity:1" fill="#272727" d="M 245.5,292.5 C 247.527,292.338 249.527,292.505 251.5,293C 252.38,294.356 252.714,295.856 252.5,297.5C 246.739,297.709 246.406,298.542 251.5,300C 249.586,301.827 247.586,301.827 245.5,300C 244.221,297.502 244.221,295.002 245.5,292.5 Z"/></g>
<g><path style="opacity:1" fill="#242424" d="M 263.5,292.5 C 265.833,292.5 268.167,292.5 270.5,292.5C 270.665,296.182 270.499,299.848 270,303.5C 267.861,304.769 265.695,304.769 263.5,303.5C 270.167,302.167 270.167,300.833 263.5,299.5C 262.178,297.135 262.178,294.802 263.5,292.5 Z"/></g>
<g><path style="opacity:1" fill="#eeeeee" d="M 265.5,294.5 C 266.5,294.5 267.5,294.5 268.5,294.5C 268.5,295.833 268.5,297.167 268.5,298.5C 267.5,298.5 266.5,298.5 265.5,298.5C 265.5,297.167 265.5,295.833 265.5,294.5 Z"/></g>
<g><path style="opacity:1" fill="#dedede" d="M 283.5,294.5 C 284.5,294.5 285.5,294.5 286.5,294.5C 286.884,296.665 286.217,298.332 284.5,299.5C 283.548,297.955 283.215,296.288 283.5,294.5 Z"/></g>
<g><path style="opacity:1" fill="#efefef" d="M 301.5,294.5 C 302.5,294.5 303.5,294.5 304.5,294.5C 304.5,295.833 304.5,297.167 304.5,298.5C 303.5,298.5 302.5,298.5 301.5,298.5C 301.5,297.167 301.5,295.833 301.5,294.5 Z"/></g>
<g><path style="opacity:1" fill="#f3f3f3" d="M 332.5,294.5 C 333.5,294.5 334.5,294.5 335.5,294.5C 335.5,295.833 335.5,297.167 335.5,298.5C 334.5,298.5 333.5,298.5 332.5,298.5C 332.5,297.167 332.5,295.833 332.5,294.5 Z"/></g>
<g><path style="opacity:1" fill="#acacac" d="M 343.5,292.5 C 344.167,292.5 344.833,292.5 345.5,292.5C 344.964,295.698 345.631,298.365 347.5,300.5C 345.167,301.833 342.833,301.833 340.5,300.5C 341.552,300.649 342.552,300.483 343.5,300C 340.939,297.51 340.939,295.01 343.5,292.5 Z"/></g>
<g><path style="opacity:1" fill="#a7a7a8" d="M 350.5,292.5 C 349.624,292.369 348.957,292.702 348.5,293.5C 349.127,294.417 349.461,295.417 349.5,296.5C 348.833,297.833 348.167,299.167 347.5,300.5C 348.036,297.302 347.369,294.635 345.5,292.5C 345.238,291.022 345.571,289.689 346.5,288.5C 347.854,289.854 349.188,291.188 350.5,292.5 Z"/></g>
<g><path style="opacity:1" fill="#191919" d="M 434.5,292.5 C 435.562,294.879 436.895,294.879 438.5,292.5C 438.833,292.833 439.167,293.167 439.5,293.5C 438.167,295.5 438.167,297.5 439.5,299.5C 438.132,300.594 436.965,300.26 436,298.5C 435.283,299.044 434.783,299.711 434.5,300.5C 433.624,300.631 432.957,300.298 432.5,299.5C 435.044,297.389 435.044,295.222 432.5,293C 433.094,292.536 433.761,292.369 434.5,292.5 Z"/></g>
<g><path style="opacity:1" fill="#e8e8e8" d="M 443.5,294.5 C 444.833,294.5 446.167,294.5 447.5,294.5C 447.5,295.833 447.5,297.167 447.5,298.5C 446.167,298.5 444.833,298.5 443.5,298.5C 442.167,297.167 442.167,295.833 443.5,294.5 Z"/></g>
<g><path style="opacity:1" fill="#f5f5f5" d="M 487.5,294.5 C 488.5,294.5 489.5,294.5 490.5,294.5C 490.5,295.833 490.5,297.167 490.5,298.5C 489.5,298.5 488.5,298.5 487.5,298.5C 487.5,297.167 487.5,295.833 487.5,294.5 Z"/></g>
<g><path style="opacity:1" fill="#292929" d="M 502.5,292.5 C 504.527,292.338 506.527,292.505 508.5,293C 509.38,294.356 509.714,295.856 509.5,297.5C 503.739,297.709 503.406,298.542 508.5,300C 506.586,301.827 504.586,301.827 502.5,300C 501.221,297.502 501.221,295.002 502.5,292.5 Z"/></g>
<g><path style="opacity:1" fill="#d5d5d5" d="M 382.5,294.5 C 383.833,294.5 385.167,294.5 386.5,294.5C 386.5,295.833 386.5,297.167 386.5,298.5C 385.167,298.5 383.833,298.5 382.5,298.5C 382.5,297.167 382.5,295.833 382.5,294.5 Z"/></g>
<g><path style="opacity:1" fill="#6c6c6c" d="M 409.5,293.5 C 410.473,295.948 410.806,298.615 410.5,301.5C 409.5,301.5 408.5,301.5 407.5,301.5C 407.5,299.167 407.5,296.833 407.5,294.5C 408.309,296.292 408.809,298.292 409,300.5C 409.497,298.19 409.663,295.857 409.5,293.5 Z"/></g>
<g><path style="opacity:1" fill="#d5d5d5" d="M 413.5,294.5 C 414.833,294.5 416.167,294.5 417.5,294.5C 417.5,295.833 417.5,297.167 417.5,298.5C 416.167,298.5 414.833,298.5 413.5,298.5C 413.5,297.167 413.5,295.833 413.5,294.5 Z"/></g>
<g><path style="opacity:1" fill="#1a1a1a" d="M 430.5,292.5 C 431.301,294.042 431.634,295.708 431.5,297.5C 424.864,298.022 424.864,298.855 431.5,300C 429.866,300.494 428.199,300.66 426.5,300.5C 425.883,300.389 425.383,300.056 425,299.5C 423.1,294.087 424.933,291.753 430.5,292.5 Z"/></g>
<g><path style="opacity:1" fill="#cfcfcf" d="M 469.5,294.5 C 470.5,294.5 471.5,294.5 472.5,294.5C 472.884,296.665 472.217,298.332 470.5,299.5C 468.296,298.218 467.962,296.551 469.5,294.5 Z"/></g>
<g><path style="opacity:1" fill="#2e2d2e" d="M 358.5,293.5 C 360.223,292.193 362.057,292.193 364,293.5C 364.497,295.81 364.663,298.143 364.5,300.5C 362.248,301.333 360.081,301.333 358,300.5C 356.948,296.707 358.448,294.707 362.5,294.5C 361.311,293.571 359.978,293.238 358.5,293.5 Z"/></g>
<g><path style="opacity:1" fill="#212121" d="M 511.5,292.5 C 513.467,292.261 515.301,292.594 517,293.5C 517.497,295.81 517.663,298.143 517.5,300.5C 515.248,301.333 513.081,301.333 511,300.5C 509.863,296.63 511.363,294.797 515.5,295C 513.563,294.878 512.23,294.045 511.5,292.5 Z"/></g>
<g><path style="opacity:1" fill="#727272" d="M 528.5,294.5 C 528.5,296.833 528.5,299.167 528.5,301.5C 527.209,301.737 526.209,301.404 525.5,300.5C 527.06,298.844 528.06,296.844 528.5,294.5 Z"/></g>
<g><path style="opacity:1" fill="#2c2c2c" d="M 272.5,293.5 C 278.838,291.165 281.171,293.498 279.5,300.5C 277.488,301.014 275.488,301.18 273.5,301C 271.531,296.953 272.864,294.953 277.5,295C 276.095,293.731 274.429,293.231 272.5,293.5 Z"/></g>
<g><path style="opacity:1" fill="#2d2d2d" d="M 393.5,292.5 C 399.905,291.406 402.238,294.073 400.5,300.5C 398.248,301.333 396.081,301.333 394,300.5C 392.794,297.162 393.96,295.329 397.5,295C 395.563,294.878 394.23,294.045 393.5,292.5 Z"/></g>
<g><path style="opacity:1" fill="#bebebf" d="M 434.5,292.5 C 433.761,292.369 433.094,292.536 432.5,293C 435.044,295.222 435.044,297.389 432.5,299.5C 432.957,300.298 433.624,300.631 434.5,300.5C 431.833,301.833 429.167,301.833 426.5,300.5C 428.199,300.66 429.866,300.494 431.5,300C 424.864,298.855 424.864,298.022 431.5,297.5C 431.634,295.708 431.301,294.042 430.5,292.5C 431.961,291.314 433.295,291.314 434.5,292.5 Z"/></g>
<g><path style="opacity:1" fill="#1b1b1b" d="M 350.5,292.5 C 351.6,297.385 352.933,297.551 354.5,293C 355.332,292.312 355.998,292.479 356.5,293.5C 355.423,295.729 354.756,298.063 354.5,300.5C 351.656,300.657 349.989,299.324 349.5,296.5C 349.461,295.417 349.127,294.417 348.5,293.5C 348.957,292.702 349.624,292.369 350.5,292.5 Z"/></g>
<g><path style="opacity:1" fill="#bababa" d="M 512.5,297.5 C 515.797,297.329 516.131,297.995 513.5,299.5C 512.702,299.043 512.369,298.376 512.5,297.5 Z"/></g>
<g><path style="opacity:1" fill="#b1b1b1" d="M 371.5,293.5 C 371.833,293.5 372.167,293.5 372.5,293.5C 372.298,295.95 372.631,298.283 373.5,300.5C 371.389,301.742 369.389,301.742 367.5,300.5C 368.873,300.657 370.207,300.49 371.5,300C 368.855,298.713 367.855,296.547 368.5,293.5C 369.5,293.5 370.5,293.5 371.5,293.5 Z"/></g>
<g><path style="opacity:1" fill="#888888" d="M 308.5,298.5 C 310.256,299.552 310.923,301.219 310.5,303.5C 309.5,303.5 308.5,303.5 307.5,303.5C 307.629,301.784 307.962,300.117 308.5,298.5 Z"/></g>
<g><path style="opacity:1" fill="#656565" d="M 535.5,299.5 C 536.239,299.369 536.906,299.536 537.5,300C 535.326,304.559 534.66,304.392 535.5,299.5 Z"/></g>
<g><path style="opacity:1" fill="#6f6f6f" d="M 295.5,319.5 C 294.583,319.506 294.083,318.506 294,316.5C 293.333,320.167 293.333,323.833 294,327.5C 294.198,325.618 294.698,323.952 295.5,322.5C 295.5,324.5 295.5,326.5 295.5,328.5C 294.041,328.567 292.708,328.234 291.5,327.5C 290.833,326.833 290.167,326.167 289.5,325.5C 290.5,325.5 291.5,325.5 292.5,325.5C 292.5,322.167 292.5,318.833 292.5,315.5C 293.5,315.5 294.5,315.5 295.5,315.5C 295.5,316.833 295.5,318.167 295.5,319.5 Z"/></g>
<g><path style="opacity:1" fill="#838383" d="M 378.5,316.5 C 379.568,315.566 380.901,315.232 382.5,315.5C 382.567,316.959 382.234,318.292 381.5,319.5C 382.234,318.292 382.567,316.959 382.5,315.5C 380.901,315.232 379.568,315.566 378.5,316.5 Z"/></g>
<g><path style="opacity:1" fill="#757575" d="M 245.5,319.5 C 244.964,322.698 245.631,325.365 247.5,327.5C 246.791,328.404 245.791,328.737 244.5,328.5C 244.19,325.287 244.523,322.287 245.5,319.5 Z"/></g>
<g><path style="opacity:1" fill="#151515" d="M 245.5,319.5 C 249.702,319.183 253.702,319.517 257.5,320.5C 257.663,322.857 257.497,325.19 257,327.5C 256.809,325.292 256.309,323.292 255.5,321.5C 254.5,321.5 253.5,321.5 252.5,321.5C 251.833,329.5 251.167,329.5 250.5,321.5C 249.5,321.5 248.5,321.5 247.5,321.5C 247.5,323.5 247.5,325.5 247.5,327.5C 245.631,325.365 244.964,322.698 245.5,319.5 Z"/></g>
<g><path style="opacity:1" fill="#171717" d="M 295.5,319.5 C 297.167,319.5 298.833,319.5 300.5,319.5C 300.813,322.247 300.48,324.914 299.5,327.5C 298.534,325.604 298.201,323.604 298.5,321.5C 297.209,321.263 296.209,321.596 295.5,322.5C 294.698,323.952 294.198,325.618 294,327.5C 293.333,323.833 293.333,320.167 294,316.5C 294.083,318.506 294.583,319.506 295.5,319.5 Z"/></g>
<g><path style="opacity:1" fill="#272727" d="M 311.5,319.5 C 318.5,317.833 321.167,320.5 319.5,327.5C 318.5,327.5 317.5,327.5 316.5,327.5C 316.5,325.5 316.5,323.5 316.5,321.5C 315.5,321.5 314.5,321.5 313.5,321.5C 313.799,323.604 313.466,325.604 312.5,327.5C 311.52,324.914 311.187,322.247 311.5,319.5 Z"/></g>
<g><path style="opacity:1" fill="#202020" d="M 331.5,320.5 C 332.209,319.596 333.209,319.263 334.5,319.5C 334.491,321.308 334.991,322.975 336,324.5C 336.098,322.381 336.931,320.714 338.5,319.5C 338.833,320 339.167,320.5 339.5,321C 338.391,323.047 337.724,325.213 337.5,327.5C 336.178,327.67 335.011,327.337 334,326.5C 333.434,324.277 332.6,322.277 331.5,320.5 Z"/></g>
<g><path style="opacity:1" fill="#121212" d="M 349.5,319.5 C 350.94,320.363 352.274,320.363 353.5,319.5C 353.833,319.833 354.167,320.167 354.5,320.5C 353.675,321.386 352.675,321.719 351.5,321.5C 351.799,323.604 351.466,325.604 350.5,327.5C 349.614,326.675 349.281,325.675 349.5,324.5C 349.5,322.833 349.5,321.167 349.5,319.5 Z"/></g>
<g><path style="opacity:1" fill="#141414" d="M 391.5,319.5 C 392.94,320.363 394.274,320.363 395.5,319.5C 395.833,319.833 396.167,320.167 396.5,320.5C 395.675,321.386 394.675,321.719 393.5,321.5C 393.799,323.604 393.466,325.604 392.5,327.5C 391.52,324.914 391.187,322.247 391.5,319.5 Z"/></g>
<g><path style="opacity:1" fill="#1b1b1b" d="M 260.5,319.5 C 267.158,318.344 269.158,320.844 266.5,327C 259.75,328.469 257.75,325.969 260.5,319.5 Z"/></g>
<g><path style="opacity:1" fill="#2a2a2a" d="M 268.5,319.5 C 272.825,320.646 277.158,320.813 281.5,320C 282.38,321.356 282.714,322.856 282.5,324.5C 276.739,324.709 276.406,325.542 281.5,327C 276.296,329.32 273.963,327.487 274.5,321.5C 273.5,321.5 272.5,321.5 271.5,321.5C 271.5,323.833 271.5,326.167 271.5,328.5C 270.5,328.5 269.5,328.5 268.5,328.5C 268.5,325.5 268.5,322.5 268.5,319.5 Z"/></g>
<g><path style="opacity:1" fill="#141414" d="M 289.5,325.5 C 290.167,326.167 290.833,326.833 291.5,327.5C 290.458,328.791 289.292,328.791 288,327.5C 287.713,325.109 287.213,322.776 286.5,320.5C 287.68,316.802 289.347,316.635 291.5,320C 289.808,321.401 289.141,323.234 289.5,325.5 Z"/></g>
<g><path style="opacity:1" fill="#1f1f1f" d="M 347.5,320.5 C 347.5,321.5 347.5,322.5 347.5,323.5C 345.712,323.215 344.045,323.548 342.5,324.5C 342.624,325.107 342.957,325.44 343.5,325.5C 344.609,326.29 345.942,326.79 347.5,327C 345.191,329.051 343.024,328.884 341,326.5C 339.743,320.456 341.91,318.456 347.5,320.5 Z"/></g>
<g><path style="opacity:1" fill="#cccccc" d="M 261.5,321.5 C 262.833,321.5 264.167,321.5 265.5,321.5C 265.884,323.665 265.217,325.332 263.5,326.5C 261.783,325.332 261.116,323.665 261.5,321.5 Z"/></g>
<g><path style="opacity:1" fill="#b6b6b6" d="M 277.5,320.5 C 278.376,320.369 279.043,320.702 279.5,321.5C 277.192,322.873 276.525,322.54 277.5,320.5 Z"/></g>
<g><path style="opacity:1" fill="#b7b7b7" d="M 343.5,320.5 C 344.376,320.369 345.043,320.702 345.5,321.5C 343.192,322.873 342.525,322.54 343.5,320.5 Z"/></g>
<g><path style="opacity:1" fill="#8d8d8d" d="M 349.5,319.5 C 349.5,321.167 349.5,322.833 349.5,324.5C 347.265,324.205 345.265,324.539 343.5,325.5C 342.957,325.44 342.624,325.107 342.5,324.5C 344.045,323.548 345.712,323.215 347.5,323.5C 347.5,322.5 347.5,321.5 347.5,320.5C 348.167,320.167 348.833,319.833 349.5,319.5 Z"/></g>
<g><path style="opacity:1" fill="#212121" d="M 359.5,315.5 C 361.176,316.183 361.843,317.517 361.5,319.5C 363.821,319.229 365.821,319.896 367.5,321.5C 372.172,318.077 374.839,319.077 375.5,324.5C 369.627,324.598 369.294,325.598 374.5,327.5C 373.833,327.833 373.167,328.167 372.5,328.5C 370.595,327.935 368.929,326.935 367.5,325.5C 365.132,327.223 362.466,327.89 359.5,327.5C 359.5,323.5 359.5,319.5 359.5,315.5 Z"/></g>
<g><path style="opacity:1" fill="#efeff0" d="M 361.5,321.5 C 362.5,321.5 363.5,321.5 364.5,321.5C 364.5,322.833 364.5,324.167 364.5,325.5C 363.5,325.5 362.5,325.5 361.5,325.5C 361.5,324.167 361.5,322.833 361.5,321.5 Z"/></g>
<g><path style="opacity:1" fill="#b6b6b6" d="M 370.5,320.5 C 371.675,320.281 372.675,320.614 373.5,321.5C 371.948,322.798 370.948,322.465 370.5,320.5 Z"/></g>
<g><path style="opacity:1" fill="#1d1d1d" d="M 398.5,319.5 C 402.938,318.425 404.938,320.092 404.5,324.5C 397.864,325.022 397.864,325.855 404.5,327C 400.383,329.548 398.049,328.381 397.5,323.5C 397.623,322.075 397.957,320.742 398.5,319.5 Z"/></g>
<g><path style="opacity:1" fill="#b5b5b5" d="M 399.5,320.5 C 400.675,320.281 401.675,320.614 402.5,321.5C 400.948,322.798 399.948,322.465 399.5,320.5 Z"/></g>
<g><path style="opacity:1" fill="#666666" d="M 257.5,320.5 C 258.473,322.948 258.806,325.615 258.5,328.5C 257.5,328.5 256.5,328.5 255.5,328.5C 255.5,326.167 255.5,323.833 255.5,321.5C 256.309,323.292 256.809,325.292 257,327.5C 257.497,325.19 257.663,322.857 257.5,320.5 Z"/></g>
<g><path style="opacity:1" fill="#202020" d="M 378.5,316.5 C 381.797,316.329 382.131,316.995 379.5,318.5C 379.957,319.298 380.624,319.631 381.5,319.5C 388.107,317.749 390.607,320.082 389,326.5C 387.867,328.211 386.367,328.711 384.5,328C 382.372,326.333 381.039,324.166 380.5,321.5C 379.833,323.5 379.167,325.5 378.5,327.5C 377.786,324.973 377.12,322.473 376.5,320C 377.085,318.698 377.751,317.531 378.5,316.5 Z"/></g>
<g><path style="opacity:1" fill="#f4f4f4" d="M 384.5,321.5 C 385.5,321.5 386.5,321.5 387.5,321.5C 387.5,322.833 387.5,324.167 387.5,325.5C 386.5,325.5 385.5,325.5 384.5,325.5C 384.5,324.167 384.5,322.833 384.5,321.5 Z"/></g>
<g><path style="opacity:1" fill="#141414" d="M 307.5,327.5 C 307.762,326.022 307.429,324.689 306.5,323.5C 303.875,324.865 303.875,326.198 306.5,327.5C 305.167,327.5 303.833,327.5 302.5,327.5C 301.959,323.705 303.625,321.705 307.5,321.5C 306.271,320.719 304.938,320.219 303.5,320C 305.473,319.505 307.473,319.338 309.5,319.5C 310.036,322.698 309.369,325.365 307.5,327.5 Z"/></g>
<g><path style="opacity:1" fill="#363636" d="M 331.5,320.5 C 331.5,321.833 331.5,323.167 331.5,324.5C 324.959,324.538 324.959,325.204 331.5,326.5C 327.608,329.514 324.942,328.514 323.5,323.5C 324.946,319.534 327.613,318.534 331.5,320.5 Z"/></g>
<g><path style="opacity:1" fill="#7c7c7c" d="M 307.5,327.5 C 307.167,327.5 306.833,327.5 306.5,327.5C 303.875,326.198 303.875,324.865 306.5,323.5C 307.429,324.689 307.762,326.022 307.5,327.5 Z"/></g>
</svg>
