<svg xmlns="http://www.w3.org/2000/svg" width="310" height="334" viewBox="0 0 310 334"><g transform="translate(-25 -160)"><path d="M38.5,0h233a38.5,38.5,0,0,1,0,77H38.5a38.5,38.5,0,0,1,0-77Z" transform="translate(25 417)" fill="#eafdff"/><path d="M3.648,14.156c1.836,0,2.988-1.1,2.988-2.5A2.45,2.45,0,0,0,4.824,9.308l-1.26-.54C2.88,8.48,2.112,8.156,2.112,7.3c0-.792.648-1.3,1.644-1.3a2.85,2.85,0,0,1,2,.828l.588-.708A3.607,3.607,0,0,0,3.756,5.036,2.5,2.5,0,0,0,.984,7.376,2.485,2.485,0,0,0,2.772,9.632l1.272.552c.828.372,1.464.66,1.464,1.56,0,.864-.7,1.44-1.848,1.44a3.407,3.407,0,0,1-2.424-1.092l-.672.756A4.2,4.2,0,0,0,3.648,14.156Zm5.748,0a4.1,4.1,0,0,0,1.2-.24L10.38,13.1a2.309,2.309,0,0,1-.744.168c-.756,0-1.008-.456-1.008-1.26V8.372h1.764V7.484H8.628V5.648H7.716L7.584,7.484l-1.02.06v.828h.972v3.612C7.536,13.28,8,14.156,9.4,14.156Zm3.768,0a2.8,2.8,0,0,0,2.16-1.176h.036L15.444,14h.912V7.484H15.264V12.1c-.624.78-1.092,1.1-1.764,1.1-.864,0-1.224-.516-1.224-1.728v-4H11.184v4.128C11.184,13.268,11.8,14.156,13.164,14.156Zm7.008,0a2.906,2.906,0,0,0,1.98-.924h.036l.1.768h.888V4.448h-1.08V6.956l.048,1.128A2.651,2.651,0,0,0,20.3,7.316c-1.488,0-2.82,1.32-2.82,3.432C17.484,12.92,18.54,14.156,20.172,14.156Zm.24-.912c-1.152,0-1.8-.936-1.8-2.508,0-1.488.828-2.5,1.884-2.5a2.335,2.335,0,0,1,1.6.684v3.42A2.281,2.281,0,0,1,20.412,13.244ZM24.9,16.808c1.3,0,1.98-.984,2.424-2.268l2.46-7.056H28.716l-1.164,3.624c-.18.576-.372,1.236-.552,1.824h-.06c-.2-.588-.432-1.26-.624-1.824L24.984,7.484h-1.14l2.616,6.528-.144.492c-.264.8-.732,1.4-1.476,1.4a1.557,1.557,0,0,1-.492-.108l-.216.876A2.006,2.006,0,0,0,24.9,16.808ZM32.532,14h1.092V9.272a2.407,2.407,0,0,1,1.644-1c.828,0,1.212.516,1.212,1.74V14h1.092V9.272a2.407,2.407,0,0,1,1.644-1c.828,0,1.212.516,1.212,1.74V14H41.52V9.872c0-1.668-.636-2.556-1.98-2.556a3.08,3.08,0,0,0-2.148,1.248,1.718,1.718,0,0,0-1.8-1.248,2.863,2.863,0,0,0-2.028,1.116h-.036l-.1-.948h-.9Zm12.012.156a3.491,3.491,0,0,0,2.16-.936h.036l.1.78h.9V9.992c0-1.608-.672-2.676-2.256-2.676a4.9,4.9,0,0,0-2.568.852l.432.756a3.59,3.59,0,0,1,1.956-.7c1.068,0,1.344.8,1.344,1.644-2.772.312-4.008,1.02-4.008,2.436A1.767,1.767,0,0,0,44.544,14.156Zm.312-.876c-.648,0-1.152-.3-1.152-1.044,0-.84.744-1.38,2.94-1.644v1.824A2.663,2.663,0,0,1,44.856,13.28Zm6.228.876a4.1,4.1,0,0,0,1.2-.24l-.216-.816a2.308,2.308,0,0,1-.744.168c-.756,0-1.008-.456-1.008-1.26V8.372H52.08V7.484H50.316V5.648H49.4l-.132,1.836-1.02.06v.828h.972v3.612C49.224,13.28,49.692,14.156,51.084,14.156ZM52.956,14h1.092V9.272a2.478,2.478,0,0,1,1.788-1c.864,0,1.236.516,1.236,1.74V14h1.092V9.872c0-1.668-.624-2.556-1.992-2.556a3.059,3.059,0,0,0-2.16,1.092l.036-1.344V4.448H52.956Zm10.272.156a3.491,3.491,0,0,0,2.16-.936h.036l.1.78h.9V9.992c0-1.608-.672-2.676-2.256-2.676a4.9,4.9,0,0,0-2.568.852l.432.756a3.59,3.59,0,0,1,1.956-.7c1.068,0,1.344.8,1.344,1.644-2.772.312-4.008,1.02-4.008,2.436A1.767,1.767,0,0,0,63.228,14.156Zm.312-.876c-.648,0-1.152-.3-1.152-1.044,0-.84.744-1.38,2.94-1.644v1.824A2.663,2.663,0,0,1,63.54,13.28ZM67.9,14h1.092V9.272a2.478,2.478,0,0,1,1.788-1c.864,0,1.236.516,1.236,1.74V14H73.1V9.872c0-1.668-.624-2.556-1.992-2.556a3.125,3.125,0,0,0-2.184,1.1h-.036l-.1-.936h-.9Zm6.84,2.808c1.3,0,1.98-.984,2.424-2.268l2.46-7.056H78.552l-1.164,3.624c-.18.576-.372,1.236-.552,1.824h-.06c-.2-.588-.432-1.26-.624-1.824L74.82,7.484H73.68L76.3,14.012l-.144.492c-.264.8-.732,1.4-1.476,1.4a1.557,1.557,0,0,1-.492-.108l-.216.876A2.006,2.006,0,0,0,74.736,16.808Zm7.6-2.652a4.1,4.1,0,0,0,1.2-.24l-.216-.816a2.308,2.308,0,0,1-.744.168c-.756,0-1.008-.456-1.008-1.26V8.372h1.764V7.484H81.564V5.648h-.912L80.52,7.484l-1.02.06v.828h.972v3.612C80.472,13.28,80.94,14.156,82.332,14.156ZM84.2,14H85.3V7.484H84.2Zm.552-7.86a.693.693,0,0,0,.732-.732.732.732,0,0,0-1.464,0A.693.693,0,0,0,84.756,6.14ZM86.9,14H88V9.272a2.407,2.407,0,0,1,1.644-1c.828,0,1.212.516,1.212,1.74V14h1.092V9.272a2.407,2.407,0,0,1,1.644-1c.828,0,1.212.516,1.212,1.74V14h1.092V9.872c0-1.668-.636-2.556-1.98-2.556a3.08,3.08,0,0,0-2.148,1.248,1.718,1.718,0,0,0-1.8-1.248,2.863,2.863,0,0,0-2.028,1.116H87.9l-.1-.948h-.9Zm13.14.156a3.878,3.878,0,0,0,2.16-.672l-.4-.72a2.809,2.809,0,0,1-1.632.516A2.159,2.159,0,0,1,98.016,11h4.392a4.263,4.263,0,0,0,.048-.624c0-1.86-.936-3.06-2.592-3.06a3.152,3.152,0,0,0-2.94,3.432A3.114,3.114,0,0,0,100.044,14.156ZM98,10.208a2,2,0,0,1,1.872-2.016c1.02,0,1.62.708,1.62,2.016Zm5.256,6.072a2.67,2.67,0,0,0,1.752-2.508c0-.8-.348-1.3-.924-1.3a.78.78,0,0,0-.828.768.752.752,0,0,0,.8.768A.492.492,0,0,0,104.2,14a1.8,1.8,0,0,1-1.2,1.632Zm6.528-2.124a3.491,3.491,0,0,0,2.16-.936h.036l.1.78h.9V9.992c0-1.608-.672-2.676-2.256-2.676a4.9,4.9,0,0,0-2.568.852l.432.756a3.59,3.59,0,0,1,1.956-.7c1.068,0,1.344.8,1.344,1.644-2.772.312-4.008,1.02-4.008,2.436A1.767,1.767,0,0,0,109.788,14.156Zm.312-.876c-.648,0-1.152-.3-1.152-1.044,0-.84.744-1.38,2.94-1.644v1.824A2.663,2.663,0,0,1,110.1,13.28Zm4.356.72h1.092V9.272a2.478,2.478,0,0,1,1.788-1c.864,0,1.236.516,1.236,1.74V14h1.092V9.872c0-1.668-.624-2.556-1.992-2.556a3.125,3.125,0,0,0-2.184,1.1h-.036l-.1-.936h-.9Zm6.84,2.808c1.3,0,1.98-.984,2.424-2.268l2.46-7.056h-1.068l-1.164,3.624c-.18.576-.372,1.236-.552,1.824h-.06c-.2-.588-.432-1.26-.624-1.824L121.38,7.484h-1.14l2.616,6.528-.144.492c-.264.8-.732,1.4-1.476,1.4a1.557,1.557,0,0,1-.492-.108l-.216.876A2.006,2.006,0,0,0,121.3,16.808ZM127.872,14h1.284l.912-3.492c.168-.624.3-1.236.444-1.9h.06c.156.66.276,1.26.444,1.872L131.964,14h1.32l1.752-6.516H134l-.96,3.768c-.144.624-.264,1.212-.408,1.824h-.048c-.156-.612-.3-1.2-.456-1.824l-1.02-3.768h-1.068l-1.008,3.768c-.168.612-.3,1.212-.444,1.824h-.06c-.12-.612-.252-1.2-.384-1.824l-.972-3.768H126.06Zm7.992,0h1.092V9.272a2.478,2.478,0,0,1,1.788-1c.864,0,1.236.516,1.236,1.74V14h1.092V9.872c0-1.668-.624-2.556-1.992-2.556a3.059,3.059,0,0,0-2.16,1.092l.036-1.344V4.448h-1.092Zm9.312.156a3.878,3.878,0,0,0,2.16-.672l-.4-.72a2.809,2.809,0,0,1-1.632.516,2.159,2.159,0,0,1-2.16-2.28h4.392a4.263,4.263,0,0,0,.048-.624c0-1.86-.936-3.06-2.592-3.06a3.152,3.152,0,0,0-2.94,3.432A3.114,3.114,0,0,0,145.176,14.156Zm-2.04-3.948a2,2,0,0,1,1.872-2.016c1.02,0,1.62.708,1.62,2.016ZM148.6,14h1.092V9.812c.432-1.116,1.1-1.5,1.644-1.5a1.542,1.542,0,0,1,.636.108l.2-.96a1.389,1.389,0,0,0-.7-.144,2.25,2.25,0,0,0-1.848,1.356h-.036l-.1-1.188h-.9Zm6.552.156a3.878,3.878,0,0,0,2.16-.672l-.4-.72a2.809,2.809,0,0,1-1.632.516A2.159,2.159,0,0,1,153.12,11h4.392a4.263,4.263,0,0,0,.048-.624c0-1.86-.936-3.06-2.592-3.06a3.152,3.152,0,0,0-2.94,3.432A3.114,3.114,0,0,0,155.148,14.156Zm-2.04-3.948a2,2,0,0,1,1.872-2.016c1.02,0,1.62.708,1.62,2.016ZM161.688,14h1.284l.912-3.492c.168-.624.3-1.236.444-1.9h.06c.156.66.276,1.26.444,1.872L165.78,14h1.32l1.752-6.516H167.82l-.96,3.768c-.144.624-.264,1.212-.408,1.824H166.4c-.156-.612-.3-1.2-.456-1.824l-1.02-3.768H163.86l-1.008,3.768c-.168.612-.3,1.212-.444,1.824h-.06c-.12-.612-.252-1.2-.384-1.824l-.972-3.768h-1.116Zm7.992,0h1.092V7.484H169.68Zm.552-7.86a.693.693,0,0,0,.732-.732.732.732,0,0,0-1.464,0A.693.693,0,0,0,170.232,6.14Zm4.2,8.016a4.1,4.1,0,0,0,1.2-.24l-.216-.816a2.309,2.309,0,0,1-.744.168c-.756,0-1.008-.456-1.008-1.26V8.372h1.764V7.484h-1.764V5.648h-.912l-.132,1.836-1.02.06v.828h.972v3.612C172.572,13.28,173.04,14.156,174.432,14.156ZM176.3,14H177.4V9.272a2.478,2.478,0,0,1,1.788-1c.864,0,1.236.516,1.236,1.74V14h1.092V9.872c0-1.668-.624-2.556-1.992-2.556a3.059,3.059,0,0,0-2.16,1.092l.036-1.344V4.448H176.3Zm9.216.156a3.111,3.111,0,0,0,3.024-3.408,3.048,3.048,0,1,0-6.048,0A3.111,3.111,0,0,0,185.52,14.156Zm0-.912c-1.128,0-1.884-1-1.884-2.5s.756-2.52,1.884-2.52,1.9,1.02,1.9,2.52S186.648,13.244,185.52,13.244Zm6.036.912a2.8,2.8,0,0,0,2.16-1.176h.036l.084,1.02h.912V7.484h-1.092V12.1c-.624.78-1.092,1.1-1.764,1.1-.864,0-1.224-.516-1.224-1.728v-4h-1.092v4.128C189.576,13.268,190.188,14.156,191.556,14.156Zm6.84,0a4.1,4.1,0,0,0,1.2-.24l-.216-.816a2.309,2.309,0,0,1-.744.168c-.756,0-1.008-.456-1.008-1.26V8.372h1.764V7.484h-1.764V5.648h-.912l-.132,1.836-1.02.06v.828h.972v3.612C196.536,13.28,197,14.156,198.4,14.156ZM2.136,29H3.42l.912-3.492c.168-.624.3-1.236.444-1.9h.06c.156.66.276,1.26.444,1.872L6.228,29h1.32L9.3,22.484H8.268l-.96,3.768c-.144.624-.264,1.212-.408,1.824H6.852c-.156-.612-.3-1.2-.456-1.824l-1.02-3.768H4.308L3.3,26.252c-.168.612-.3,1.212-.444,1.824H2.8c-.12-.612-.252-1.2-.384-1.824L1.44,22.484H.324Zm10.476.156a3.111,3.111,0,0,0,3.024-3.408,3.126,3.126,0,0,0-3.024-3.432,3.126,3.126,0,0,0-3.024,3.432A3.111,3.111,0,0,0,12.612,29.156Zm0-.912c-1.128,0-1.884-1-1.884-2.5s.756-2.52,1.884-2.52,1.9,1.02,1.9,2.52S13.74,28.244,12.612,28.244Zm4.14.756h1.092V24.812c.432-1.116,1.1-1.5,1.644-1.5a1.542,1.542,0,0,1,.636.108l.2-.96a1.389,1.389,0,0,0-.7-.144,2.25,2.25,0,0,0-1.848,1.356h-.036l-.1-1.188h-.9Zm4.056,0h1.08V27.284l1.224-1.428L25.02,29h1.188l-2.46-3.888,2.172-2.628H24.7l-2.772,3.444h-.036v-6.48h-1.08Zm8.892.156c1.5,0,2.832-1.284,2.832-3.528,0-1.992-.912-3.312-2.6-3.312a3.283,3.283,0,0,0-2.04.924l.036-1.176V19.448H26.832V29h.876l.1-.672h.048A2.894,2.894,0,0,0,29.7,29.156Zm-.18-.912a2.5,2.5,0,0,1-1.6-.684V24.14a2.691,2.691,0,0,1,1.752-.9c1.236,0,1.716.972,1.716,2.412C31.392,27.272,30.6,28.244,29.52,28.244Zm6.66.912A3.111,3.111,0,0,0,39.2,25.748a3.048,3.048,0,1,0-6.048,0A3.111,3.111,0,0,0,36.18,29.156Zm0-.912c-1.128,0-1.884-1-1.884-2.5s.756-2.52,1.884-2.52,1.9,1.02,1.9,2.52S37.308,28.244,36.18,28.244Zm6.672.912a3.111,3.111,0,0,0,3.024-3.408,3.048,3.048,0,1,0-6.048,0A3.111,3.111,0,0,0,42.852,29.156Zm0-.912c-1.128,0-1.884-1-1.884-2.5s.756-2.52,1.884-2.52,1.9,1.02,1.9,2.52S43.98,28.244,42.852,28.244Zm4.14.756h1.08V27.284L49.3,25.856,51.2,29h1.188l-2.46-3.888L52.1,22.484H50.88l-2.772,3.444h-.036v-6.48h-1.08Zm7.728.156c1.536,0,2.376-.876,2.376-1.932,0-1.236-1.044-1.62-1.992-1.98-.732-.276-1.4-.5-1.4-1.128,0-.5.384-.936,1.212-.936a2.386,2.386,0,0,1,1.476.576l.528-.708a3.312,3.312,0,0,0-2.016-.732c-1.416,0-2.256.816-2.256,1.848,0,1.1,1,1.548,1.908,1.884.72.276,1.488.564,1.488,1.236,0,.564-.42,1.02-1.284,1.02a2.955,2.955,0,0,1-1.932-.768l-.54.72A3.93,3.93,0,0,0,54.72,29.156Zm3.108,2.124a2.67,2.67,0,0,0,1.752-2.508c0-.8-.348-1.3-.924-1.3a.78.78,0,0,0-.828.768.752.752,0,0,0,.8.768A.492.492,0,0,0,58.764,29a1.8,1.8,0,0,1-1.2,1.632Zm5.028.468h1.092V29.54l-.024-1.14a2.94,2.94,0,0,0,1.8.756c1.5,0,2.832-1.284,2.832-3.516,0-2-.912-3.324-2.592-3.324a3.475,3.475,0,0,0-2.076.912h-.036l-.1-.744h-.9Zm2.688-3.5a2.525,2.525,0,0,1-1.6-.684V24.14a2.717,2.717,0,0,1,1.752-.9c1.236,0,1.716.972,1.716,2.412C67.416,27.272,66.624,28.244,65.544,28.244Zm5.46.912a3.491,3.491,0,0,0,2.16-.936H73.2l.1.78h.9V24.992c0-1.608-.672-2.676-2.256-2.676a4.9,4.9,0,0,0-2.568.852l.432.756a3.59,3.59,0,0,1,1.956-.7c1.068,0,1.344.8,1.344,1.644-2.772.312-4.008,1.02-4.008,2.436A1.767,1.767,0,0,0,71,29.156Zm.312-.876c-.648,0-1.152-.3-1.152-1.044,0-.84.744-1.38,2.94-1.644v1.824A2.663,2.663,0,0,1,71.316,28.28Zm4.356,3.468h1.092V29.54L76.74,28.4a2.94,2.94,0,0,0,1.8.756c1.5,0,2.832-1.284,2.832-3.516,0-2-.912-3.324-2.592-3.324a3.475,3.475,0,0,0-2.076.912h-.036l-.1-.744h-.9Zm2.688-3.5a2.525,2.525,0,0,1-1.6-.684V24.14a2.717,2.717,0,0,1,1.752-.9c1.236,0,1.716.972,1.716,2.412C80.232,27.272,79.44,28.244,78.36,28.244Zm6.78.912a3.878,3.878,0,0,0,2.16-.672l-.4-.72a2.809,2.809,0,0,1-1.632.516A2.159,2.159,0,0,1,83.112,26H87.5a4.263,4.263,0,0,0,.048-.624c0-1.86-.936-3.06-2.592-3.06a3.152,3.152,0,0,0-2.94,3.432A3.114,3.114,0,0,0,85.14,29.156ZM83.1,25.208a2,2,0,0,1,1.872-2.016c1.02,0,1.62.708,1.62,2.016ZM88.56,29h1.092V24.812c.432-1.116,1.1-1.5,1.644-1.5a1.542,1.542,0,0,1,.636.108l.2-.96a1.389,1.389,0,0,0-.7-.144,2.25,2.25,0,0,0-1.848,1.356h-.036l-.1-1.188h-.9ZM94.7,29H95.8V24.272a2.478,2.478,0,0,1,1.788-1c.864,0,1.236.516,1.236,1.74V29h1.092V24.872c0-1.668-.624-2.556-1.992-2.556a3.125,3.125,0,0,0-2.184,1.1H95.7l-.1-.936h-.9Zm9.264.156a3.111,3.111,0,0,0,3.024-3.408,3.048,3.048,0,1,0-6.048,0A3.111,3.111,0,0,0,103.968,29.156Zm0-.912c-1.128,0-1.884-1-1.884-2.5s.756-2.52,1.884-2.52,1.9,1.02,1.9,2.52S105.1,28.244,103.968,28.244Zm5.964.912a4.1,4.1,0,0,0,1.2-.24l-.216-.816a2.308,2.308,0,0,1-.744.168c-.756,0-1.008-.456-1.008-1.26V23.372h1.764v-.888h-1.764V20.648h-.912l-.132,1.836-1.02.06v.828h.972v3.612C108.072,28.28,108.54,29.156,109.932,29.156Zm4.32,0a3.878,3.878,0,0,0,2.16-.672l-.4-.72a2.809,2.809,0,0,1-1.632.516,2.159,2.159,0,0,1-2.16-2.28h4.392a4.263,4.263,0,0,0,.048-.624c0-1.86-.936-3.06-2.592-3.06a3.152,3.152,0,0,0-2.94,3.432A3.114,3.114,0,0,0,114.252,29.156Zm-2.04-3.948a2,2,0,0,1,1.872-2.016c1.02,0,1.62.708,1.62,2.016Zm7.164,3.948c1.536,0,2.376-.876,2.376-1.932,0-1.236-1.044-1.62-1.992-1.98-.732-.276-1.4-.5-1.4-1.128,0-.5.384-.936,1.212-.936a2.386,2.386,0,0,1,1.476.576l.528-.708a3.312,3.312,0,0,0-2.016-.732c-1.416,0-2.256.816-2.256,1.848,0,1.1,1,1.548,1.908,1.884.72.276,1.488.564,1.488,1.236,0,.564-.42,1.02-1.284,1.02a2.955,2.955,0,0,1-1.932-.768l-.54.72A3.93,3.93,0,0,0,119.376,29.156Zm3.108,2.124a2.67,2.67,0,0,0,1.752-2.508c0-.8-.348-1.3-.924-1.3a.78.78,0,0,0-.828.768.752.752,0,0,0,.8.768A.492.492,0,0,0,123.42,29a1.8,1.8,0,0,1-1.2,1.632Zm7.56-2.124a3.111,3.111,0,0,0,3.024-3.408,3.048,3.048,0,1,0-6.048,0A3.111,3.111,0,0,0,130.044,29.156Zm0-.912c-1.128,0-1.884-1-1.884-2.5s.756-2.52,1.884-2.52,1.9,1.02,1.9,2.52S131.172,28.244,130.044,28.244Zm4.14.756h1.092V24.812c.432-1.116,1.1-1.5,1.644-1.5a1.542,1.542,0,0,1,.636.108l.2-.96a1.389,1.389,0,0,0-.7-.144,2.25,2.25,0,0,0-1.848,1.356h-.036l-.1-1.188h-.9Zm6.144,2.748h1.092V29.54L141.4,28.4a2.94,2.94,0,0,0,1.8.756c1.5,0,2.832-1.284,2.832-3.516,0-2-.912-3.324-2.592-3.324a3.475,3.475,0,0,0-2.076.912h-.036l-.1-.744h-.9Zm2.688-3.5a2.525,2.525,0,0,1-1.6-.684V24.14a2.717,2.717,0,0,1,1.752-.9c1.236,0,1.716.972,1.716,2.412C144.888,27.272,144.1,28.244,143.016,28.244Zm6.78.912a3.878,3.878,0,0,0,2.16-.672l-.4-.72a2.809,2.809,0,0,1-1.632.516,2.159,2.159,0,0,1-2.16-2.28h4.392a4.263,4.263,0,0,0,.048-.624c0-1.86-.936-3.06-2.592-3.06a3.152,3.152,0,0,0-2.94,3.432A3.114,3.114,0,0,0,149.8,29.156Zm-2.04-3.948a2,2,0,0,1,1.872-2.016c1.02,0,1.62.708,1.62,2.016ZM153.216,29h1.092V24.272a2.478,2.478,0,0,1,1.788-1c.864,0,1.236.516,1.236,1.74V29h1.092V24.872c0-1.668-.624-2.556-1.992-2.556a3.125,3.125,0,0,0-2.184,1.1h-.036l-.1-.936h-.9Zm9.3.156a3.159,3.159,0,0,0,2.112-.828l-.48-.732a2.3,2.3,0,0,1-1.536.648c-1.2,0-2.016-1-2.016-2.5s.864-2.52,2.052-2.52a1.927,1.927,0,0,1,1.3.576l.564-.72a2.786,2.786,0,0,0-1.908-.768,3.172,3.172,0,0,0-3.144,3.432C159.456,27.908,160.788,29.156,162.516,29.156Zm2.94-.156h1.092V22.484h-1.092Zm.552-7.86a.72.72,0,1,0-.732-.732A.693.693,0,0,0,166.008,21.14Zm3.3,8.016a1.681,1.681,0,0,0,.636-.1l-.156-.84a.959.959,0,0,1-.228.024c-.168,0-.312-.132-.312-.468V19.448h-1.092V27.7C168.156,28.628,168.492,29.156,169.308,29.156Zm3.372,0c1.536,0,2.376-.876,2.376-1.932,0-1.236-1.044-1.62-1.992-1.98-.732-.276-1.4-.5-1.4-1.128,0-.5.384-.936,1.212-.936a2.386,2.386,0,0,1,1.476.576l.528-.708a3.312,3.312,0,0,0-2.016-.732c-1.416,0-2.256.816-2.256,1.848,0,1.1,1,1.548,1.908,1.884.72.276,1.488.564,1.488,1.236,0,.564-.42,1.02-1.284,1.02a2.955,2.955,0,0,1-1.932-.768l-.54.72A3.93,3.93,0,0,0,172.68,29.156Zm3.876,0a.793.793,0,0,0,.792-.828.794.794,0,1,0-1.584,0A.793.793,0,0,0,176.556,29.156Z" transform="translate(95 451)" fill="#323c46"/><path d="M1.456,0H8.9V-1.984H3.824V-5.152h4.16V-7.136H3.824V-9.872h4.9v-1.984H1.456ZM13.312.224a4.213,4.213,0,0,0,2.7-1.184h.064l.16.96h1.92V-5.232c0-2.592-1.168-3.952-3.44-3.952A7.158,7.158,0,0,0,10.976-8l.848,1.552A5.062,5.062,0,0,1,14.288-7.3c1.1,0,1.488.672,1.536,1.552-3.616.384-5.168,1.392-5.168,3.312A2.545,2.545,0,0,0,13.312.224Zm.768-1.84c-.688,0-1.184-.3-1.184-1.008,0-.8.736-1.408,2.928-1.68V-2.5A2.435,2.435,0,0,1,14.08-1.616ZM23.12.224c2.336,0,3.568-1.264,3.568-2.832,0-1.664-1.312-2.256-2.5-2.7-.944-.352-1.776-.592-1.776-1.248,0-.512.384-.864,1.2-.864a3.335,3.335,0,0,1,1.92.768L26.592-8.08a4.966,4.966,0,0,0-3.04-1.1c-2.048,0-3.344,1.136-3.344,2.736,0,1.5,1.264,2.192,2.4,2.624.944.368,1.872.672,1.872,1.344,0,.56-.4.944-1.3.944a3.89,3.89,0,0,1-2.4-.976L19.712-1.04A5.683,5.683,0,0,0,23.12.224ZM29.264,3.6c2,0,2.96-1.216,3.744-3.328L36.192-8.96H33.936L32.7-4.8c-.208.832-.432,1.7-.64,2.528h-.08C31.728-3.136,31.5-4,31.232-4.8L29.808-8.96H27.44l3.488,8.8-.16.528a1.715,1.715,0,0,1-1.68,1.36,2.41,2.41,0,0,1-.624-.112l-.432,1.808A3.794,3.794,0,0,0,29.264,3.6ZM42.784,0h2.688l.912-3.9c.192-.832.32-1.664.5-2.608h.08c.176.944.32,1.76.512,2.608L48.416,0h2.768l2.208-8.96H51.216L50.24-4.544c-.16.88-.288,1.728-.448,2.624h-.08c-.192-.9-.352-1.744-.56-2.624L48.032-8.96h-2.08L44.864-4.544c-.224.864-.384,1.728-.56,2.624H44.24c-.16-.9-.272-1.744-.448-2.624L42.816-8.96H40.464ZM57.12.224a4.213,4.213,0,0,0,2.7-1.184h.064l.16.96h1.92V-5.232c0-2.592-1.168-3.952-3.44-3.952A7.158,7.158,0,0,0,54.784-8l.848,1.552A5.062,5.062,0,0,1,58.1-7.3c1.1,0,1.488.672,1.536,1.552-3.616.384-5.168,1.392-5.168,3.312A2.545,2.545,0,0,0,57.12.224Zm.768-1.84c-.688,0-1.184-.3-1.184-1.008,0-.8.736-1.408,2.928-1.68V-2.5A2.435,2.435,0,0,1,57.888-1.616ZM65.152,3.6c2,0,2.96-1.216,3.744-3.328L72.08-8.96H69.824L68.592-4.8c-.208.832-.432,1.7-.64,2.528h-.08C67.616-3.136,67.392-4,67.12-4.8L65.7-8.96H63.328l3.488,8.8-.16.528a1.715,1.715,0,0,1-1.68,1.36,2.41,2.41,0,0,1-.624-.112L63.92,3.424A3.794,3.794,0,0,0,65.152,3.6ZM80.464.224a5.79,5.79,0,0,0,1.888-.336l-.384-1.712a2.618,2.618,0,0,1-.88.192c-.8,0-1.216-.48-1.216-1.5V-7.1H82.08V-8.96H79.872v-2.416H77.92L77.648-8.96l-1.392.112V-7.1H77.52v3.968C77.52-1.136,78.336.224,80.464.224Zm6.88,0a4.371,4.371,0,0,0,4.3-4.7,4.371,4.371,0,0,0-4.3-4.7,4.371,4.371,0,0,0-4.3,4.7A4.371,4.371,0,0,0,87.344.224Zm0-1.92c-1.216,0-1.9-1.088-1.9-2.784,0-1.68.688-2.784,1.9-2.784s1.9,1.1,1.9,2.784C89.248-2.784,88.56-1.7,87.344-1.7ZM99.456.224a3.14,3.14,0,0,0,1.216-.208l-.288-1.744a1.325,1.325,0,0,1-.32.032c-.224,0-.464-.176-.464-.72V-12.768H97.248V-2.512C97.248-.848,97.824.224,99.456.224Zm6.736,0a5.641,5.641,0,0,0,3.12-.992l-.8-1.44a3.693,3.693,0,0,1-2.016.624,2.354,2.354,0,0,1-2.48-2.24h5.52a4.422,4.422,0,0,0,.112-1.088c0-2.464-1.28-4.272-3.744-4.272a4.391,4.391,0,0,0-4.176,4.7A4.35,4.35,0,0,0,106.192.224Zm-2.208-5.616a2.017,2.017,0,0,1,1.952-1.968c1.152,0,1.7.768,1.7,1.968ZM113.568.224a4.213,4.213,0,0,0,2.7-1.184h.064l.16.96h1.92V-5.232c0-2.592-1.168-3.952-3.44-3.952A7.158,7.158,0,0,0,111.232-8l.848,1.552a5.062,5.062,0,0,1,2.464-.848c1.1,0,1.488.672,1.536,1.552-3.616.384-5.168,1.392-5.168,3.312A2.545,2.545,0,0,0,113.568.224Zm.768-1.84c-.688,0-1.184-.3-1.184-1.008,0-.8.736-1.408,2.928-1.68V-2.5A2.435,2.435,0,0,1,114.336-1.616ZM120.816,0h2.352V-5.344c.5-1.3,1.344-1.76,2.048-1.76a2.993,2.993,0,0,1,.944.144l.4-2.032a2.535,2.535,0,0,0-1.056-.192,3.1,3.1,0,0,0-2.544,1.808h-.048l-.176-1.584h-1.92Zm6.976,0h2.352V-6.16A2.518,2.518,0,0,1,132-7.168c.88,0,1.264.48,1.264,1.872V0h2.352V-5.584c0-2.256-.832-3.6-2.768-3.6a4.13,4.13,0,0,0-2.912,1.408h-.048l-.176-1.184h-1.92Z" transform="translate(95 445)" fill="#00c3e1"/><path d="M6.5,0C10.09,0,13,1.567,13,3.5S10.09,7,6.5,7,0,5.433,0,3.5,2.91,0,6.5,0Z" transform="translate(57 465)" fill="#00c3e1" opacity="0.2"/><path d="M-4306.759,1677.752c-.886,0-9.778-8.919-9.778-15.376a9.7,9.7,0,0,1,9.778-9.61,9.7,9.7,0,0,1,9.777,9.61C-4296.982,1668.832-4305.873,1677.752-4306.759,1677.752Z" transform="translate(4370.279 -1210.884)" fill="#fff" stroke="#46505a" stroke-miterlimit="10" stroke-width="2"/><path d="M3,0A3,3,0,1,1,0,3,3,3,0,0,1,3,0Z" transform="translate(61 448)" fill="none" stroke="#46505a" stroke-width="2"/><path d="M38.5,0h233a38.5,38.5,0,0,1,0,77H38.5a38.5,38.5,0,0,1,0-77Z" transform="translate(25 331)" fill="#eafdff"/><path d="M4.524.156a3.4,3.4,0,0,0,2.7-1.26l-.612-.7a2.674,2.674,0,0,1-2.04.984c-1.68,0-2.736-1.392-2.736-3.612,0-2.2,1.1-3.564,2.772-3.564a2.4,2.4,0,0,1,1.8.84l.6-.72A3.252,3.252,0,0,0,4.6-8.964C2.364-8.964.7-7.236.7-4.392S2.34.156,4.524.156ZM8.46,0H9.552V-4.728a2.478,2.478,0,0,1,1.788-1c.864,0,1.236.516,1.236,1.74V0h1.092V-4.128c0-1.668-.624-2.556-1.992-2.556a3.059,3.059,0,0,0-2.16,1.092l.036-1.344V-9.552H8.46Zm9.516.156A3.111,3.111,0,0,0,21-3.252a3.126,3.126,0,0,0-3.024-3.432,3.126,3.126,0,0,0-3.024,3.432A3.111,3.111,0,0,0,17.976.156Zm0-.912c-1.128,0-1.884-1-1.884-2.5s.756-2.52,1.884-2.52,1.9,1.02,1.9,2.52S19.1-.756,17.976-.756Zm6.972.912a3.111,3.111,0,0,0,3.024-3.408,3.126,3.126,0,0,0-3.024-3.432,3.126,3.126,0,0,0-3.024,3.432A3.111,3.111,0,0,0,24.948.156Zm0-.912c-1.128,0-1.884-1-1.884-2.5s.756-2.52,1.884-2.52,1.9,1.02,1.9,2.52S26.076-.756,24.948-.756Zm6.144.912c1.536,0,2.376-.876,2.376-1.932,0-1.236-1.044-1.62-1.992-1.98-.732-.276-1.4-.5-1.4-1.128,0-.5.384-.936,1.212-.936a2.386,2.386,0,0,1,1.476.576l.528-.708a3.312,3.312,0,0,0-2.016-.732c-1.416,0-2.256.816-2.256,1.848,0,1.1,1,1.548,1.908,1.884.72.276,1.488.564,1.488,1.236,0,.564-.42,1.02-1.284,1.02A2.955,2.955,0,0,1,29.2-1.464l-.54.72A3.93,3.93,0,0,0,31.092.156Zm6.24,0a3.878,3.878,0,0,0,2.16-.672l-.4-.72a2.809,2.809,0,0,1-1.632.516A2.159,2.159,0,0,1,35.3-3H39.7a4.263,4.263,0,0,0,.048-.624c0-1.86-.936-3.06-2.592-3.06a3.152,3.152,0,0,0-2.94,3.432A3.114,3.114,0,0,0,37.332.156Zm-2.04-3.948a2,2,0,0,1,1.872-2.016c1.02,0,1.62.708,1.62,2.016ZM45.972.156A3.111,3.111,0,0,0,49-3.252a3.126,3.126,0,0,0-3.024-3.432,3.126,3.126,0,0,0-3.024,3.432A3.111,3.111,0,0,0,45.972.156Zm0-.912c-1.128,0-1.884-1-1.884-2.5s.756-2.52,1.884-2.52,1.9,1.02,1.9,2.52S47.1-.756,45.972-.756ZM50.412,0H51.5V-4.728a2.478,2.478,0,0,1,1.788-1c.864,0,1.236.516,1.236,1.74V0H55.62V-4.128c0-1.668-.624-2.556-1.992-2.556a3.125,3.125,0,0,0-2.184,1.1h-.036l-.1-.936h-.9ZM58.6.156a1.681,1.681,0,0,0,.636-.1l-.156-.84a.959.959,0,0,1-.228.024c-.168,0-.312-.132-.312-.468V-9.552H57.444V-1.3C57.444-.372,57.78.156,58.6.156Zm2.076,2.652c1.3,0,1.98-.984,2.424-2.268l2.46-7.056H64.488L63.324-2.892c-.18.576-.372,1.236-.552,1.824h-.06c-.2-.588-.432-1.26-.624-1.824L60.756-6.516h-1.14L62.232.012,62.088.5c-.264.8-.732,1.4-1.476,1.4A1.557,1.557,0,0,1,60.12,1.8l-.216.876A2.006,2.006,0,0,0,60.672,2.808ZM70.956.156a4.1,4.1,0,0,0,1.2-.24L71.94-.9a2.308,2.308,0,0,1-.744.168c-.756,0-1.008-.456-1.008-1.26V-5.628h1.764v-.888H70.188V-8.352h-.912l-.132,1.836-1.02.06v.828H69.1v3.612C69.1-.72,69.564.156,70.956.156ZM73.128,0H74.22V-4.728a2.478,2.478,0,0,1,1.788-1c.864,0,1.236.516,1.236,1.74V0h1.092V-4.128c0-1.668-.624-2.556-1.992-2.556a3.059,3.059,0,0,0-2.16,1.092l.036-1.344V-9.552H73.128ZM82.74.156A3.878,3.878,0,0,0,84.9-.516l-.4-.72a2.809,2.809,0,0,1-1.632.516A2.159,2.159,0,0,1,80.712-3H85.1a4.263,4.263,0,0,0,.048-.624c0-1.86-.936-3.06-2.592-3.06a3.152,3.152,0,0,0-2.94,3.432A3.114,3.114,0,0,0,82.74.156ZM80.7-3.792a2,2,0,0,1,1.872-2.016c1.02,0,1.62.708,1.62,2.016Zm8.148,6.54H89.94V.54L89.916-.6a2.94,2.94,0,0,0,1.8.756c1.5,0,2.832-1.284,2.832-3.516,0-2-.912-3.324-2.592-3.324a3.475,3.475,0,0,0-2.076.912h-.036l-.1-.744h-.9Zm2.688-3.5a2.525,2.525,0,0,1-1.6-.684V-4.86a2.717,2.717,0,0,1,1.752-.9c1.236,0,1.716.972,1.716,2.412C93.408-1.728,92.616-.756,91.536-.756ZM97.3.156a3.491,3.491,0,0,0,2.16-.936h.036l.1.78h.9V-4.008c0-1.608-.672-2.676-2.256-2.676a4.9,4.9,0,0,0-2.568.852l.432.756a3.59,3.59,0,0,1,1.956-.7c1.068,0,1.344.8,1.344,1.644-2.772.312-4.008,1.02-4.008,2.436A1.767,1.767,0,0,0,97.3.156Zm.312-.876c-.648,0-1.152-.3-1.152-1.044,0-.84.744-1.38,2.94-1.644v1.824A2.663,2.663,0,0,1,97.608-.72Zm4.656.72h1.092V-4.188c.432-1.116,1.1-1.5,1.644-1.5a1.542,1.542,0,0,1,.636.108l.2-.96a1.389,1.389,0,0,0-.7-.144A2.25,2.25,0,0,0,103.3-5.328h-.036l-.1-1.188h-.9Zm6.408.156a4.1,4.1,0,0,0,1.2-.24L109.656-.9a2.308,2.308,0,0,1-.744.168c-.756,0-1.008-.456-1.008-1.26V-5.628h1.764v-.888H107.9V-8.352h-.912l-.132,1.836-1.02.06v.828h.972v3.612C106.812-.72,107.28.156,108.672.156Zm3.744,0c1.536,0,2.376-.876,2.376-1.932,0-1.236-1.044-1.62-1.992-1.98-.732-.276-1.4-.5-1.4-1.128,0-.5.384-.936,1.212-.936a2.386,2.386,0,0,1,1.476.576l.528-.708a3.312,3.312,0,0,0-2.016-.732c-1.416,0-2.256.816-2.256,1.848,0,1.1,1,1.548,1.908,1.884.72.276,1.488.564,1.488,1.236,0,.564-.42,1.02-1.284,1.02a2.955,2.955,0,0,1-1.932-.768l-.54.72A3.93,3.93,0,0,0,112.416.156Zm6.108,2.652c1.3,0,1.98-.984,2.424-2.268l2.46-7.056H122.34l-1.164,3.624c-.18.576-.372,1.236-.552,1.824h-.06c-.2-.588-.432-1.26-.624-1.824l-1.332-3.624h-1.14L120.084.012,119.94.5c-.264.8-.732,1.4-1.476,1.4a1.557,1.557,0,0,1-.492-.108l-.216.876A2.006,2.006,0,0,0,118.524,2.808ZM126.852.156a3.111,3.111,0,0,0,3.024-3.408,3.126,3.126,0,0,0-3.024-3.432,3.126,3.126,0,0,0-3.024,3.432A3.111,3.111,0,0,0,126.852.156Zm0-.912c-1.128,0-1.884-1-1.884-2.5s.756-2.52,1.884-2.52,1.9,1.02,1.9,2.52S127.98-.756,126.852-.756Zm6.336.912a2.8,2.8,0,0,0,2.16-1.176h.036L135.468,0h.912V-6.516h-1.092V-1.9c-.624.78-1.092,1.1-1.764,1.1-.864,0-1.224-.516-1.224-1.728v-4h-1.092v4.128C131.208-.732,131.82.156,133.188.156ZM140.664,0h1.092V-4.728a2.478,2.478,0,0,1,1.788-1c.864,0,1.236.516,1.236,1.74V0h1.092V-4.128c0-1.668-.624-2.556-1.992-2.556a3.125,3.125,0,0,0-2.184,1.1h-.036l-.1-.936h-.9Zm9.66.156a3.878,3.878,0,0,0,2.16-.672l-.4-.72a2.809,2.809,0,0,1-1.632.516A2.159,2.159,0,0,1,148.3-3h4.392a4.263,4.263,0,0,0,.048-.624c0-1.86-.936-3.06-2.592-3.06a3.152,3.152,0,0,0-2.94,3.432A3.114,3.114,0,0,0,150.324.156Zm-2.04-3.948a2,2,0,0,1,1.872-2.016c1.02,0,1.62.708,1.62,2.016ZM156.672.156a3.878,3.878,0,0,0,2.16-.672l-.4-.72A2.809,2.809,0,0,1,156.8-.72,2.159,2.159,0,0,1,154.644-3h4.392a4.263,4.263,0,0,0,.048-.624c0-1.86-.936-3.06-2.592-3.06a3.152,3.152,0,0,0-2.94,3.432A3.114,3.114,0,0,0,156.672.156Zm-2.04-3.948A2,2,0,0,1,156.5-5.808c1.02,0,1.62.708,1.62,2.016Zm7.98,3.948a2.906,2.906,0,0,0,1.98-.924h.036l.1.768h.888V-9.552h-1.08v2.508l.048,1.128a2.651,2.651,0,0,0-1.836-.768c-1.488,0-2.82,1.32-2.82,3.432C159.924-1.08,160.98.156,162.612.156Zm.24-.912c-1.152,0-1.8-.936-1.8-2.508,0-1.488.828-2.5,1.884-2.5a2.335,2.335,0,0,1,1.6.684v3.42A2.281,2.281,0,0,1,162.852-.756ZM2.6,15.156a3.491,3.491,0,0,0,2.16-.936H4.8l.1.78h.9V10.992c0-1.608-.672-2.676-2.256-2.676a4.9,4.9,0,0,0-2.568.852l.432.756a3.59,3.59,0,0,1,1.956-.7c1.068,0,1.344.8,1.344,1.644C1.932,11.184.7,11.892.7,13.308A1.767,1.767,0,0,0,2.6,15.156Zm.312-.876c-.648,0-1.152-.3-1.152-1.044,0-.84.744-1.38,2.94-1.644v1.824A2.663,2.663,0,0,1,2.916,14.28ZM7.572,15H8.664V10.272a2.478,2.478,0,0,1,1.788-1c.864,0,1.236.516,1.236,1.74V15H12.78V10.872c0-1.668-.624-2.556-1.992-2.556A3.125,3.125,0,0,0,8.6,9.42H8.568l-.1-.936h-.9Zm9.252.156a2.906,2.906,0,0,0,1.98-.924h.036l.1.768h.888V5.448h-1.08V7.956l.048,1.128a2.651,2.651,0,0,0-1.836-.768c-1.488,0-2.82,1.32-2.82,3.432C14.136,13.92,15.192,15.156,16.824,15.156Zm.24-.912c-1.152,0-1.8-.936-1.8-2.508,0-1.488.828-2.5,1.884-2.5a2.335,2.335,0,0,1,1.6.684v3.42A2.281,2.281,0,0,1,17.064,14.244Zm7.068,3.5h1.092V15.54L25.2,14.4a2.94,2.94,0,0,0,1.8.756c1.5,0,2.832-1.284,2.832-3.516,0-2-.912-3.324-2.592-3.324a3.475,3.475,0,0,0-2.076.912h-.036l-.1-.744h-.9Zm2.688-3.5a2.525,2.525,0,0,1-1.6-.684V10.14a2.717,2.717,0,0,1,1.752-.9c1.236,0,1.716.972,1.716,2.412C28.692,13.272,27.9,14.244,26.82,14.244ZM31.272,15h1.092V10.812c.432-1.116,1.1-1.5,1.644-1.5a1.542,1.542,0,0,1,.636.108l.2-.96a1.389,1.389,0,0,0-.7-.144A2.25,2.25,0,0,0,32.3,9.672h-.036l-.1-1.188h-.9Zm5.532.156a3.491,3.491,0,0,0,2.16-.936H39l.1.78H40V10.992c0-1.608-.672-2.676-2.256-2.676a4.9,4.9,0,0,0-2.568.852l.432.756a3.59,3.59,0,0,1,1.956-.7c1.068,0,1.344.8,1.344,1.644-2.772.312-4.008,1.02-4.008,2.436A1.767,1.767,0,0,0,36.8,15.156Zm.312-.876c-.648,0-1.152-.3-1.152-1.044,0-.84.744-1.38,2.94-1.644v1.824A2.663,2.663,0,0,1,37.116,14.28Zm7.224.876a3.159,3.159,0,0,0,2.112-.828l-.48-.732a2.3,2.3,0,0,1-1.536.648c-1.2,0-2.016-1-2.016-2.5s.864-2.52,2.052-2.52a1.927,1.927,0,0,1,1.3.576l.564-.72a2.786,2.786,0,0,0-1.908-.768,3.172,3.172,0,0,0-3.144,3.432C41.28,13.908,42.612,15.156,44.34,15.156Zm5.16,0a4.1,4.1,0,0,0,1.2-.24l-.216-.816a2.308,2.308,0,0,1-.744.168c-.756,0-1.008-.456-1.008-1.26V9.372H50.5V8.484H48.732V6.648H47.82l-.132,1.836-1.02.06v.828h.972v3.612C47.64,14.28,48.108,15.156,49.5,15.156ZM51.672,15h1.092V8.484H51.672Zm.552-7.86a.72.72,0,1,0-.732-.732A.693.693,0,0,0,52.224,7.14Zm5.016,8.016a3.159,3.159,0,0,0,2.112-.828l-.48-.732a2.3,2.3,0,0,1-1.536.648c-1.2,0-2.016-1-2.016-2.5s.864-2.52,2.052-2.52a1.927,1.927,0,0,1,1.3.576l.564-.72a2.786,2.786,0,0,0-1.908-.768,3.172,3.172,0,0,0-3.144,3.432C54.18,13.908,55.512,15.156,57.24,15.156Zm5.58,0a3.878,3.878,0,0,0,2.16-.672l-.4-.72a2.809,2.809,0,0,1-1.632.516A2.159,2.159,0,0,1,60.792,12h4.392a4.263,4.263,0,0,0,.048-.624c0-1.86-.936-3.06-2.592-3.06a3.152,3.152,0,0,0-2.94,3.432A3.114,3.114,0,0,0,62.82,15.156Zm-2.04-3.948a2,2,0,0,1,1.872-2.016c1.02,0,1.62.708,1.62,2.016ZM68.928,15H70.02V8.484H68.928Zm.552-7.86a.72.72,0,1,0-.732-.732A.693.693,0,0,0,69.48,7.14ZM71.928,15H73.02V10.272a2.478,2.478,0,0,1,1.788-1c.864,0,1.236.516,1.236,1.74V15h1.092V10.872c0-1.668-.624-2.556-1.992-2.556a3.125,3.125,0,0,0-2.184,1.1h-.036l-.1-.936h-.9Zm9.084.156a4.1,4.1,0,0,0,1.2-.24L82,14.1a2.308,2.308,0,0,1-.744.168c-.756,0-1.008-.456-1.008-1.26V9.372h1.764V8.484H80.244V6.648h-.912L79.2,8.484l-1.02.06v.828h.972v3.612C79.152,14.28,79.62,15.156,81.012,15.156Zm4.62,0a3.878,3.878,0,0,0,2.16-.672l-.4-.72a2.809,2.809,0,0,1-1.632.516A2.159,2.159,0,0,1,83.6,12H88a4.263,4.263,0,0,0,.048-.624c0-1.86-.936-3.06-2.592-3.06a3.152,3.152,0,0,0-2.94,3.432A3.114,3.114,0,0,0,85.632,15.156Zm-2.04-3.948a2,2,0,0,1,1.872-2.016c1.02,0,1.62.708,1.62,2.016ZM89.352,15h1.092V10.272a2.478,2.478,0,0,1,1.788-1c.864,0,1.236.516,1.236,1.74V15H94.56V10.872c0-1.668-.624-2.556-1.992-2.556a3.125,3.125,0,0,0-2.184,1.1h-.036l-.1-.936h-.9Zm8.736.156c1.536,0,2.376-.876,2.376-1.932,0-1.236-1.044-1.62-1.992-1.98-.732-.276-1.4-.5-1.4-1.128,0-.5.384-.936,1.212-.936a2.386,2.386,0,0,1,1.476.576l.528-.708a3.312,3.312,0,0,0-2.016-.732c-1.416,0-2.256.816-2.256,1.848,0,1.1,1,1.548,1.908,1.884.72.276,1.488.564,1.488,1.236,0,.564-.42,1.02-1.284,1.02a2.955,2.955,0,0,1-1.932-.768l-.54.72A3.93,3.93,0,0,0,98.088,15.156ZM101.7,15h1.092V8.484H101.7Zm.552-7.86a.72.72,0,1,0-.732-.732A.693.693,0,0,0,102.252,7.14ZM106.1,15h1.272l2.316-6.516h-1.08l-1.236,3.708c-.192.636-.4,1.308-.6,1.92h-.048c-.2-.612-.408-1.284-.612-1.92l-1.224-3.708h-1.14Zm7.128.156a3.878,3.878,0,0,0,2.16-.672l-.4-.72a2.809,2.809,0,0,1-1.632.516A2.159,2.159,0,0,1,111.2,12H115.6a4.263,4.263,0,0,0,.048-.624c0-1.86-.936-3.06-2.592-3.06a3.152,3.152,0,0,0-2.94,3.432A3.114,3.114,0,0,0,113.232,15.156Zm-2.04-3.948a2,2,0,0,1,1.872-2.016c1.02,0,1.62.708,1.62,2.016Zm6.912,3.948a1.681,1.681,0,0,0,.636-.1l-.156-.84a.959.959,0,0,1-.228.024c-.168,0-.312-.132-.312-.468V5.448h-1.092V13.7C116.952,14.628,117.288,15.156,118.1,15.156Zm2.076,2.652c1.3,0,1.98-.984,2.424-2.268l2.46-7.056H124l-1.164,3.624c-.18.576-.372,1.236-.552,1.824h-.06c-.2-.588-.432-1.26-.624-1.824l-1.332-3.624h-1.14l2.616,6.528-.144.492c-.264.8-.732,1.4-1.476,1.4a1.557,1.557,0,0,1-.492-.108l-.216.876A2.006,2.006,0,0,0,120.18,17.808Zm5.952-2.652a.793.793,0,0,0,.792-.828.794.794,0,1,0-1.584,0A.793.793,0,0,0,126.132,15.156Z" transform="translate(85 380)" fill="#323c46"/><path d="M1.456,0H4.832C8.32,0,10.56-1.984,10.56-5.968c0-4-2.24-5.888-5.856-5.888H1.456ZM3.824-1.9V-9.952H4.56c2.208,0,3.584,1.088,3.584,3.984C8.144-3.088,6.768-1.9,4.56-1.9ZM14.9.224A4.213,4.213,0,0,0,17.6-.96h.064l.16.96h1.92V-5.232c0-2.592-1.168-3.952-3.44-3.952A7.158,7.158,0,0,0,12.56-8l.848,1.552A5.062,5.062,0,0,1,15.872-7.3c1.1,0,1.488.672,1.536,1.552-3.616.384-5.168,1.392-5.168,3.312A2.545,2.545,0,0,0,14.9.224Zm.768-1.84c-.688,0-1.184-.3-1.184-1.008,0-.8.736-1.408,2.928-1.68V-2.5A2.435,2.435,0,0,1,15.664-1.616ZM22.144,0H24.5V-8.96H22.144Zm1.184-10.4a1.261,1.261,0,0,0,1.36-1.3,1.257,1.257,0,0,0-1.36-1.28,1.262,1.262,0,0,0-1.376,1.28A1.265,1.265,0,0,0,23.328-10.4ZM29.216.224A3.14,3.14,0,0,0,30.432.016l-.288-1.744a1.325,1.325,0,0,1-.32.032c-.224,0-.464-.176-.464-.72V-12.768H27.008V-2.512C27.008-.848,27.584.224,29.216.224ZM32.832,3.6c2,0,2.96-1.216,3.744-3.328L39.76-8.96H37.5L36.272-4.8c-.208.832-.432,1.7-.64,2.528h-.08C35.3-3.136,35.072-4,34.8-4.8L33.376-8.96H31.008L34.5-.16l-.16.528a1.715,1.715,0,0,1-1.68,1.36,2.41,2.41,0,0,1-.624-.112L31.6,3.424A3.794,3.794,0,0,0,32.832,3.6ZM48.144.224a5.79,5.79,0,0,0,1.888-.336l-.384-1.712a2.618,2.618,0,0,1-.88.192c-.8,0-1.216-.48-1.216-1.5V-7.1H49.76V-8.96H47.552v-2.416H45.6L45.328-8.96l-1.392.112V-7.1H45.2v3.968C45.2-1.136,46.016.224,48.144.224Zm6.88,0a4.371,4.371,0,0,0,4.3-4.7,4.371,4.371,0,0,0-4.3-4.7,4.371,4.371,0,0,0-4.3,4.7A4.371,4.371,0,0,0,55.024.224Zm0-1.92c-1.216,0-1.9-1.088-1.9-2.784,0-1.68.688-2.784,1.9-2.784s1.9,1.1,1.9,2.784C56.928-2.784,56.24-1.7,55.024-1.7ZM61.3,3.44h2.352V.72l-.08-1.472a3.33,3.33,0,0,0,2.224.976C67.76.224,69.6-1.552,69.6-4.624c0-2.752-1.312-4.56-3.52-4.56a4.254,4.254,0,0,0-2.64,1.152h-.048l-.176-.928H61.3Zm3.968-5.152a2.441,2.441,0,0,1-1.616-.672V-6.32a2.468,2.468,0,0,1,1.76-.928c1.232,0,1.776.944,1.776,2.656C67.184-2.64,66.352-1.712,65.264-1.712ZM71.6,0h2.352V-8.96H71.6Zm1.184-10.4a1.261,1.261,0,0,0,1.36-1.3,1.257,1.257,0,0,0-1.36-1.28,1.262,1.262,0,0,0-1.376,1.28A1.265,1.265,0,0,0,72.784-10.4ZM80.272.224A4.516,4.516,0,0,0,83.216-.864l-.944-1.552a2.782,2.782,0,0,1-1.744.72C79.248-1.7,78.3-2.784,78.3-4.48c0-1.68.928-2.784,2.3-2.784a2.039,2.039,0,0,1,1.36.592l1.12-1.52a3.917,3.917,0,0,0-2.608-.992A4.469,4.469,0,0,0,75.9-4.48C75.9-1.5,77.792.224,80.272.224Z" transform="translate(85 360)" fill="#00c3e1"/><path d="M0,0H29V28H0Z" transform="translate(49 355)" fill="#fff" opacity="0"/><path d="M4,0h8a4,4,0,0,1,4,4v7a4,4,0,0,1-4,4H4a4,4,0,0,1-4-4V4A4,4,0,0,1,4,0Z" transform="translate(55 356)" fill="rgba(0,195,225,0.2)" stroke="#46505a" stroke-width="2"/><path d="M1.815,7.6.595,9.129a2.716,2.716,0,0,0-.431,2.625l1,2.754A2.717,2.717,0,0,0,3.717,16.3h4.7a2.716,2.716,0,0,0,2.624-2.016l.557-2.089A4.346,4.346,0,0,0,8.68,6.918L5.617,5.975V1.9A1.9,1.9,0,0,0,3.716,0h0a1.9,1.9,0,0,0-1.9,1.9Z" transform="matrix(0.966, 0.259, -0.259, 0.966, 60.767, 366.308)" fill="#fff" stroke="#46505a" stroke-linecap="round" stroke-linejoin="round" stroke-width="2"/><path d="M-1446.277,2380.536h1.087a1.63,1.63,0,0,1,1.63,1.629v8.148a1.629,1.629,0,0,1-1.63,1.629h-1.087" transform="translate(1521.031 -2022.219)" fill="none" stroke="#46505a" stroke-linecap="round" stroke-miterlimit="10" stroke-width="2"/><path d="M-1443.561,2380.536h-1.087a1.63,1.63,0,0,0-1.63,1.629v8.148a1.629,1.629,0,0,0,1.63,1.629h1.087" transform="translate(1495.5 -2022.219)" fill="none" stroke="#46505a" stroke-linecap="round" stroke-miterlimit="10" stroke-width="2"/><path d="M38.5,0h233a38.5,38.5,0,0,1,0,77H38.5a38.5,38.5,0,0,1,0-77Z" transform="translate(25 247)" fill="#eafdff"/><path d="M1.2,0H2.316V-8.808H1.2ZM6.372.156a4.1,4.1,0,0,0,1.2-.24L7.356-.9a2.308,2.308,0,0,1-.744.168c-.756,0-1.008-.456-1.008-1.26V-5.628H7.368v-.888H5.6V-8.352H4.692L4.56-6.516l-1.02.06v.828h.972v3.612C4.512-.72,4.98.156,6.372.156ZM10.932,0h1.092V-6.516H10.932Zm.552-7.86a.693.693,0,0,0,.732-.732.687.687,0,0,0-.732-.708.687.687,0,0,0-.732.708A.693.693,0,0,0,11.484-7.86ZM15.636.156c1.536,0,2.376-.876,2.376-1.932,0-1.236-1.044-1.62-1.992-1.98-.732-.276-1.4-.5-1.4-1.128,0-.5.384-.936,1.212-.936a2.386,2.386,0,0,1,1.476.576l.528-.708a3.312,3.312,0,0,0-2.016-.732c-1.416,0-2.256.816-2.256,1.848,0,1.1,1,1.548,1.908,1.884.72.276,1.488.564,1.488,1.236,0,.564-.42,1.02-1.284,1.02a2.955,2.955,0,0,1-1.932-.768l-.54.72A3.93,3.93,0,0,0,15.636.156ZM21.816,0h1.092V-5.628h1.38v-.888h-1.38V-7.548c0-.84.3-1.284.924-1.284a1.85,1.85,0,0,1,.732.168l.24-.828a2.81,2.81,0,0,0-1.092-.216c-1.3,0-1.9.828-1.9,2.148v1.044l-.888.06v.828h.888Zm5.316.156a2.8,2.8,0,0,0,2.16-1.176h.036L29.412,0h.912V-6.516H29.232V-1.9c-.624.78-1.092,1.1-1.764,1.1-.864,0-1.224-.516-1.224-1.728v-4H25.152v4.128C25.152-.732,25.764.156,27.132.156Zm6.24,0a1.681,1.681,0,0,0,.636-.1l-.156-.84a.959.959,0,0,1-.228.024c-.168,0-.312-.132-.312-.468V-9.552H32.22V-1.3C32.22-.372,32.556.156,33.372.156Zm3.12,0a1.681,1.681,0,0,0,.636-.1l-.156-.84a.959.959,0,0,1-.228.024c-.168,0-.312-.132-.312-.468V-9.552H35.34V-1.3C35.34-.372,35.676.156,36.492.156Zm6.888,0A3.111,3.111,0,0,0,46.4-3.252,3.126,3.126,0,0,0,43.38-6.684a3.126,3.126,0,0,0-3.024,3.432A3.111,3.111,0,0,0,43.38.156Zm0-.912c-1.128,0-1.884-1-1.884-2.5s.756-2.52,1.884-2.52,1.9,1.02,1.9,2.52S44.508-.756,43.38-.756ZM48,0h1.092V-5.628h1.38v-.888h-1.38V-7.548c0-.84.3-1.284.924-1.284a1.85,1.85,0,0,1,.732.168l.24-.828A2.81,2.81,0,0,0,49.9-9.708c-1.3,0-1.9.828-1.9,2.148v1.044l-.888.06v.828H48Zm5.808,0H54.9V-4.728a2.478,2.478,0,0,1,1.788-1c.864,0,1.236.516,1.236,1.74V0h1.092V-4.128c0-1.668-.624-2.556-1.992-2.556a3.125,3.125,0,0,0-2.184,1.1H54.8l-.1-.936h-.9Zm9.66.156a3.878,3.878,0,0,0,2.16-.672l-.4-.72A2.809,2.809,0,0,1,63.6-.72,2.159,2.159,0,0,1,61.44-3h4.392a4.263,4.263,0,0,0,.048-.624c0-1.86-.936-3.06-2.592-3.06a3.152,3.152,0,0,0-2.94,3.432A3.114,3.114,0,0,0,63.468.156Zm-2.04-3.948A2,2,0,0,1,63.3-5.808c1.02,0,1.62.708,1.62,2.016ZM68.28,0h1.284l.912-3.492c.168-.624.3-1.236.444-1.9h.06c.156.66.276,1.26.444,1.872L72.372,0h1.32l1.752-6.516H74.412l-.96,3.768c-.144.624-.264,1.212-.408,1.824H73c-.156-.612-.3-1.2-.456-1.824L71.52-6.516H70.452L69.444-2.748c-.168.612-.3,1.212-.444,1.824h-.06c-.12-.612-.252-1.2-.384-1.824l-.972-3.768H66.468ZM78.96,2.748h1.092V.54L80.028-.6a2.94,2.94,0,0,0,1.8.756c1.5,0,2.832-1.284,2.832-3.516,0-2-.912-3.324-2.592-3.324a3.475,3.475,0,0,0-2.076.912h-.036l-.1-.744h-.9Zm2.688-3.5a2.525,2.525,0,0,1-1.6-.684V-4.86a2.717,2.717,0,0,1,1.752-.9c1.236,0,1.716.972,1.716,2.412C83.52-1.728,82.728-.756,81.648-.756ZM86.1,0h1.092V-4.188c.432-1.116,1.1-1.5,1.644-1.5a1.542,1.542,0,0,1,.636.108l.2-.96a1.389,1.389,0,0,0-.7-.144,2.25,2.25,0,0,0-1.848,1.356H87.1L87-6.516h-.9Zm6.756.156A3.111,3.111,0,0,0,95.88-3.252a3.126,3.126,0,0,0-3.024-3.432,3.126,3.126,0,0,0-3.024,3.432A3.111,3.111,0,0,0,92.856.156Zm0-.912c-1.128,0-1.884-1-1.884-2.5s.756-2.52,1.884-2.52,1.9,1.02,1.9,2.52S93.984-.756,92.856-.756Zm7.308.912c1.5,0,2.832-1.284,2.832-3.528,0-1.992-.912-3.312-2.6-3.312a3.283,3.283,0,0,0-2.04.924l.036-1.176V-9.552H97.3V0h.876l.1-.672h.048A2.894,2.894,0,0,0,100.164.156Zm-.18-.912a2.5,2.5,0,0,1-1.6-.684V-4.86a2.691,2.691,0,0,1,1.752-.9c1.236,0,1.716.972,1.716,2.412C101.856-1.728,101.064-.756,99.984-.756Zm5.58.912a1.681,1.681,0,0,0,.636-.1l-.156-.84a.959.959,0,0,1-.228.024c-.168,0-.312-.132-.312-.468V-9.552h-1.092V-1.3C104.412-.372,104.748.156,105.564.156Zm4.6,0a3.878,3.878,0,0,0,2.16-.672l-.4-.72a2.809,2.809,0,0,1-1.632.516A2.159,2.159,0,0,1,108.132-3h4.392a4.263,4.263,0,0,0,.048-.624c0-1.86-.936-3.06-2.592-3.06a3.152,3.152,0,0,0-2.94,3.432A3.114,3.114,0,0,0,110.16.156Zm-2.04-3.948a2,2,0,0,1,1.872-2.016c1.02,0,1.62.708,1.62,2.016ZM113.88,0h1.092V-4.728a2.407,2.407,0,0,1,1.644-1c.828,0,1.212.516,1.212,1.74V0h1.092V-4.728a2.407,2.407,0,0,1,1.644-1c.828,0,1.212.516,1.212,1.74V0h1.092V-4.128c0-1.668-.636-2.556-1.98-2.556a3.08,3.08,0,0,0-2.148,1.248,1.718,1.718,0,0,0-1.8-1.248,2.863,2.863,0,0,0-2.028,1.116h-.036l-.1-.948h-.9ZM126.4.156c1.536,0,2.376-.876,2.376-1.932,0-1.236-1.044-1.62-1.992-1.98-.732-.276-1.4-.5-1.4-1.128,0-.5.384-.936,1.212-.936a2.386,2.386,0,0,1,1.476.576l.528-.708a3.312,3.312,0,0,0-2.016-.732c-1.416,0-2.256.816-2.256,1.848,0,1.1,1,1.548,1.908,1.884.72.276,1.488.564,1.488,1.236,0,.564-.42,1.02-1.284,1.02a2.955,2.955,0,0,1-1.932-.768l-.54.72A3.93,3.93,0,0,0,126.4.156ZM133.428,0h1.284l.912-3.492c.168-.624.3-1.236.444-1.9h.06c.156.66.276,1.26.444,1.872L137.52,0h1.32l1.752-6.516H139.56l-.96,3.768c-.144.624-.264,1.212-.408,1.824h-.048c-.156-.612-.3-1.2-.456-1.824l-1.02-3.768H135.6l-1.008,3.768c-.168.612-.3,1.212-.444,1.824h-.06c-.12-.612-.252-1.2-.384-1.824l-.972-3.768h-1.116Zm8.292,0h1.092V-6.516H141.72Zm.552-7.86A.693.693,0,0,0,143-8.592a.687.687,0,0,0-.732-.708.687.687,0,0,0-.732.708A.693.693,0,0,0,142.272-7.86Zm4.5,8.016a4.1,4.1,0,0,0,1.2-.24L147.756-.9a2.309,2.309,0,0,1-.744.168c-.756,0-1.008-.456-1.008-1.26V-5.628h1.764v-.888H146V-8.352h-.912l-.132,1.836-1.02.06v.828h.972v3.612C144.912-.72,145.38.156,146.772.156ZM148.944,0h1.092V-4.728a2.478,2.478,0,0,1,1.788-1c.864,0,1.236.516,1.236,1.74V0h1.092V-4.128c0-1.668-.624-2.556-1.992-2.556A3.059,3.059,0,0,0,150-5.592l.036-1.344V-9.552h-1.092Zm9.516.156a3.111,3.111,0,0,0,3.024-3.408,3.126,3.126,0,0,0-3.024-3.432,3.126,3.126,0,0,0-3.024,3.432A3.111,3.111,0,0,0,158.46.156Zm0-.912c-1.128,0-1.884-1-1.884-2.5s.756-2.52,1.884-2.52,1.9,1.02,1.9,2.52S159.588-.756,158.46-.756ZM164.8.156a2.8,2.8,0,0,0,2.16-1.176h.036L167.076,0h.912V-6.516H166.9V-1.9c-.624.78-1.092,1.1-1.764,1.1-.864,0-1.224-.516-1.224-1.728v-4h-1.092v4.128C162.816-.732,163.428.156,164.8.156Zm7.14,0a4.1,4.1,0,0,0,1.2-.24L172.92-.9a2.309,2.309,0,0,1-.744.168c-.756,0-1.008-.456-1.008-1.26V-5.628h1.764v-.888h-1.764V-8.352h-.912l-.132,1.836-1.02.06v.828h.972v3.612C170.076-.72,170.544.156,171.936.156Zm-168.612,15a2.906,2.906,0,0,0,1.98-.924H5.34l.1.768h.888V5.448H5.244V7.956l.048,1.128a2.651,2.651,0,0,0-1.836-.768c-1.488,0-2.82,1.32-2.82,3.432C.636,13.92,1.692,15.156,3.324,15.156Zm.24-.912c-1.152,0-1.8-.936-1.8-2.508,0-1.488.828-2.5,1.884-2.5a2.335,2.335,0,0,1,1.6.684v3.42A2.281,2.281,0,0,1,3.564,14.244Zm6.576.912A2.8,2.8,0,0,0,12.3,13.98h.036L12.42,15h.912V8.484H12.24V13.1c-.624.78-1.092,1.1-1.764,1.1-.864,0-1.224-.516-1.224-1.728v-4H8.16v4.128C8.16,14.268,8.772,15.156,10.14,15.156Zm5.088,2.592H16.32V15.54L16.3,14.4a2.94,2.94,0,0,0,1.8.756c1.5,0,2.832-1.284,2.832-3.516,0-2-.912-3.324-2.592-3.324a3.475,3.475,0,0,0-2.076.912h-.036l-.1-.744h-.9Zm2.688-3.5a2.525,2.525,0,0,1-1.6-.684V10.14a2.717,2.717,0,0,1,1.752-.9c1.236,0,1.716.972,1.716,2.412C19.788,13.272,19,14.244,17.916,14.244Zm5.6.912a1.681,1.681,0,0,0,.636-.1L24,14.22a.959.959,0,0,1-.228.024c-.168,0-.312-.132-.312-.468V5.448H22.368V13.7C22.368,14.628,22.7,15.156,23.52,15.156ZM25.488,15H26.58V8.484H25.488Zm.552-7.86a.72.72,0,1,0-.732-.732A.693.693,0,0,0,26.04,7.14Zm5.016,8.016a3.159,3.159,0,0,0,2.112-.828l-.48-.732a2.3,2.3,0,0,1-1.536.648c-1.2,0-2.016-1-2.016-2.5s.864-2.52,2.052-2.52a1.927,1.927,0,0,1,1.3.576l.564-.72a2.786,2.786,0,0,0-1.908-.768A3.172,3.172,0,0,0,28,11.748C28,13.908,29.328,15.156,31.056,15.156Zm4.608,0a3.491,3.491,0,0,0,2.16-.936h.036l.1.78h.9V10.992c0-1.608-.672-2.676-2.256-2.676a4.9,4.9,0,0,0-2.568.852l.432.756a3.59,3.59,0,0,1,1.956-.7c1.068,0,1.344.8,1.344,1.644-2.772.312-4.008,1.02-4.008,2.436A1.767,1.767,0,0,0,35.664,15.156Zm.312-.876c-.648,0-1.152-.3-1.152-1.044,0-.84.744-1.38,2.94-1.644v1.824A2.663,2.663,0,0,1,35.976,14.28Zm6.528.876a4.1,4.1,0,0,0,1.2-.24l-.216-.816a2.308,2.308,0,0,1-.744.168c-.756,0-1.008-.456-1.008-1.26V9.372H43.5V8.484H41.736V6.648h-.912l-.132,1.836-1.02.06v.828h.972v3.612C40.644,14.28,41.112,15.156,42.5,15.156ZM44.676,15h1.092V8.484H44.676Zm.552-7.86a.72.72,0,1,0-.732-.732A.693.693,0,0,0,45.228,7.14Zm4.98,8.016a3.111,3.111,0,0,0,3.024-3.408,3.048,3.048,0,1,0-6.048,0A3.111,3.111,0,0,0,50.208,15.156Zm0-.912c-1.128,0-1.884-1-1.884-2.5s.756-2.52,1.884-2.52,1.9,1.02,1.9,2.52S51.336,14.244,50.208,14.244Zm4.44.756H55.74V10.272a2.478,2.478,0,0,1,1.788-1c.864,0,1.236.516,1.236,1.74V15h1.092V10.872c0-1.668-.624-2.556-1.992-2.556a3.125,3.125,0,0,0-2.184,1.1h-.036l-.1-.936h-.9Zm7.6.156a.793.793,0,0,0,.792-.828.794.794,0,1,0-1.584,0A.793.793,0,0,0,62.244,15.156Z" transform="translate(94.892 294.69)" fill="#323c46"/><path d="M6,.224c2.9,0,4.576-1.616,4.576-5.552v-6.528H8.3V-5.12c0,2.464-.9,3.3-2.3,3.3-1.376,0-2.24-.832-2.24-3.3v-6.736H1.392v6.528C1.392-1.392,3.12.224,6,.224ZM13.232,0h2.352V-6.16A2.518,2.518,0,0,1,17.44-7.168c.88,0,1.264.48,1.264,1.872V0h2.352V-5.584c0-2.256-.832-3.6-2.768-3.6a4.13,4.13,0,0,0-2.912,1.408h-.048L15.152-8.96h-1.92ZM25.7.224A3.14,3.14,0,0,0,26.912.016l-.288-1.744a1.325,1.325,0,0,1-.32.032c-.224,0-.464-.176-.464-.72V-12.768H23.488V-2.512C23.488-.848,24.064.224,25.7.224ZM28.528,0H30.88V-8.96H28.528Zm1.184-10.4a1.261,1.261,0,0,0,1.36-1.3,1.257,1.257,0,0,0-1.36-1.28,1.262,1.262,0,0,0-1.376,1.28A1.265,1.265,0,0,0,29.712-10.4ZM33.392,0h2.352V-6.16a2.554,2.554,0,0,1,1.712-1.008c.848,0,1.264.48,1.264,1.872V0h2.336V-6.16a2.614,2.614,0,0,1,1.728-1.008c.848,0,1.248.48,1.248,1.872V0h2.352V-5.584c0-2.256-.88-3.6-2.784-3.6a3.974,3.974,0,0,0-2.848,1.568,2.439,2.439,0,0,0-2.464-1.568A3.773,3.773,0,0,0,35.536-7.76h-.048l-.176-1.2h-1.92ZM48.816,0h2.352V-8.96H48.816ZM50-10.4a1.261,1.261,0,0,0,1.36-1.3A1.257,1.257,0,0,0,50-12.976a1.262,1.262,0,0,0-1.376,1.28A1.265,1.265,0,0,0,50-10.4ZM56.96.224a5.79,5.79,0,0,0,1.888-.336l-.384-1.712a2.618,2.618,0,0,1-.88.192c-.8,0-1.216-.48-1.216-1.5V-7.1h2.208V-8.96H56.368v-2.416H54.416L54.144-8.96l-1.392.112V-7.1h1.264v3.968C54.016-1.136,54.832.224,56.96.224Zm7.04,0a5.641,5.641,0,0,0,3.12-.992l-.8-1.44a3.693,3.693,0,0,1-2.016.624,2.354,2.354,0,0,1-2.48-2.24h5.52a4.422,4.422,0,0,0,.112-1.088c0-2.464-1.28-4.272-3.744-4.272a4.391,4.391,0,0,0-4.176,4.7A4.35,4.35,0,0,0,64,.224ZM61.792-5.392A2.017,2.017,0,0,1,63.744-7.36c1.152,0,1.7.768,1.7,1.968ZM72.544.224a3.716,3.716,0,0,0,2.48-1.152h.064L75.264,0h1.9V-12.768H74.832v3.152l.08,1.408a3.084,3.084,0,0,0-2.272-.976c-1.936,0-3.76,1.792-3.76,4.7C68.88-1.536,70.32.224,72.544.224Zm.608-1.936C71.968-1.712,71.3-2.64,71.3-4.5c0-1.792.848-2.752,1.856-2.752a2.416,2.416,0,0,1,1.68.672V-2.64A2.039,2.039,0,0,1,73.152-1.712ZM83.328,0H85.68V-6.16a2.518,2.518,0,0,1,1.856-1.008c.88,0,1.264.48,1.264,1.872V0h2.352V-5.584c0-2.256-.832-3.6-2.768-3.6a4.13,4.13,0,0,0-2.912,1.408h-.048L85.248-8.96h-1.92ZM96.256.224A3.6,3.6,0,0,0,99.1-1.28h.064L99.344,0h1.92V-8.96H98.912v6.048a2.159,2.159,0,0,1-1.824,1.12c-.864,0-1.248-.5-1.248-1.872v-5.3H93.488v5.6C93.488-1.12,94.32.224,96.256.224ZM103.776,0h2.352V-6.16a2.554,2.554,0,0,1,1.712-1.008c.848,0,1.264.48,1.264,1.872V0h2.336V-6.16a2.614,2.614,0,0,1,1.728-1.008c.848,0,1.248.48,1.248,1.872V0h2.352V-5.584c0-2.256-.88-3.6-2.784-3.6a3.974,3.974,0,0,0-2.848,1.568,2.439,2.439,0,0,0-2.464-1.568A3.773,3.773,0,0,0,105.92-7.76h-.048l-.176-1.2h-1.92ZM123.7.224c1.968,0,3.808-1.776,3.808-4.864,0-2.736-1.328-4.544-3.536-4.544a3.823,3.823,0,0,0-2.48,1.072l.064-1.44v-3.216H119.2V0h1.84l.208-.944h.064A3.423,3.423,0,0,0,123.7.224Zm-.528-1.936a2.441,2.441,0,0,1-1.616-.672V-6.32a2.468,2.468,0,0,1,1.76-.928c1.232,0,1.776.944,1.776,2.656C125.088-2.64,124.256-1.712,123.168-1.712ZM133.408.224a5.641,5.641,0,0,0,3.12-.992l-.8-1.44a3.693,3.693,0,0,1-2.016.624,2.354,2.354,0,0,1-2.48-2.24h5.52a4.421,4.421,0,0,0,.112-1.088c0-2.464-1.28-4.272-3.744-4.272a4.391,4.391,0,0,0-4.176,4.7A4.35,4.35,0,0,0,133.408.224ZM131.2-5.392a2.017,2.017,0,0,1,1.952-1.968c1.152,0,1.7.768,1.7,1.968ZM138.8,0h2.352V-5.344c.5-1.3,1.344-1.76,2.048-1.76a2.993,2.993,0,0,1,.944.144l.4-2.032a2.535,2.535,0,0,0-1.056-.192,3.1,3.1,0,0,0-2.544,1.808H140.9L140.72-8.96H138.8Zm14.352.224a4.371,4.371,0,0,0,4.3-4.7,4.371,4.371,0,0,0-4.3-4.7,4.371,4.371,0,0,0-4.3,4.7A4.371,4.371,0,0,0,153.152.224Zm0-1.92c-1.216,0-1.9-1.088-1.9-2.784,0-1.68.688-2.784,1.9-2.784s1.9,1.1,1.9,2.784C155.056-2.784,154.368-1.7,153.152-1.7ZM159.744,0H162.1V-7.1h1.68V-8.96H162.1v-.768c0-.992.384-1.408,1.088-1.408a2.551,2.551,0,0,1,.944.192l.432-1.744a5.112,5.112,0,0,0-1.7-.3c-2.256,0-3.12,1.44-3.12,3.312v.736l-1.2.1V-7.1h1.2Zm9.184,0h2.352V-8.96h-2.352Zm1.184-10.4a1.261,1.261,0,0,0,1.36-1.3,1.257,1.257,0,0,0-1.36-1.28,1.262,1.262,0,0,0-1.376,1.28A1.265,1.265,0,0,0,170.112-10.4ZM177.072.224a5.79,5.79,0,0,0,1.888-.336l-.384-1.712a2.618,2.618,0,0,1-.88.192c-.8,0-1.216-.48-1.216-1.5V-7.1h2.208V-8.96H176.48v-2.416h-1.952l-.272,2.416-1.392.112V-7.1h1.264v3.968C174.128-1.136,174.944.224,177.072.224Zm7.04,0a5.641,5.641,0,0,0,3.12-.992l-.8-1.44a3.693,3.693,0,0,1-2.016.624,2.354,2.354,0,0,1-2.48-2.24h5.52a4.421,4.421,0,0,0,.112-1.088c0-2.464-1.28-4.272-3.744-4.272a4.391,4.391,0,0,0-4.176,4.7A4.35,4.35,0,0,0,184.112.224ZM181.9-5.392a2.017,2.017,0,0,1,1.952-1.968c1.152,0,1.7.768,1.7,1.968ZM189.5,0h2.352V-6.16a2.554,2.554,0,0,1,1.712-1.008c.848,0,1.264.48,1.264,1.872V0h2.336V-6.16A2.614,2.614,0,0,1,198.9-7.168c.848,0,1.248.48,1.248,1.872V0H202.5V-5.584c0-2.256-.88-3.6-2.784-3.6a3.974,3.974,0,0,0-2.848,1.568A2.439,2.439,0,0,0,194.4-9.184a3.773,3.773,0,0,0-2.752,1.424H191.6l-.176-1.2H189.5Zm17.984.224c2.336,0,3.568-1.264,3.568-2.832,0-1.664-1.312-2.256-2.5-2.7-.944-.352-1.776-.592-1.776-1.248,0-.512.384-.864,1.2-.864a3.335,3.335,0,0,1,1.92.768L210.96-8.08a4.966,4.966,0,0,0-3.04-1.1c-2.048,0-3.344,1.136-3.344,2.736,0,1.5,1.264,2.192,2.4,2.624.944.368,1.872.672,1.872,1.344,0,.56-.4.944-1.3.944a3.89,3.89,0,0,1-2.4-.976L204.08-1.04A5.683,5.683,0,0,0,207.488.224Z" transform="translate(94.892 276.311)" fill="#00c3e1"/><path d="M0,0H27V29H0Z" transform="translate(49.892 271.5)" fill="#fff" opacity="0"/><path d="M4,0h7a4,4,0,0,1,4,4V14a4,4,0,0,1-4,4H4a4,4,0,0,1-4-4V4A4,4,0,0,1,4,0Z" transform="translate(61.892 274.5)" fill="rgba(0,195,225,0.2)" stroke="#46505a" stroke-linecap="round" stroke-width="2"/><path d="M299.911,1157.942v2.173a2.173,2.173,0,0,0,2.173,2.173h10.864a2.173,2.173,0,0,0,2.173-2.173v-15.209a2.173,2.173,0,0,0-2.173-2.173H302.084a2.173,2.173,0,0,0-2.173,2.173v2.173" transform="translate(-242.909 -864.481)" fill="#fff" stroke="#46505a" stroke-linecap="round" stroke-linejoin="round" stroke-width="2"/><path d="M-4325.618,1516.245a2.989,2.989,0,0,0-4.226,0,2.988,2.988,0,0,0,0,4.225,2.988,2.988,0,0,0,4.225,0l3.991-4.225a2.988,2.988,0,0,1,4.225,0,2.988,2.988,0,0,1,0,4.225,2.988,2.988,0,0,1-4.225,0l-2-2.113" transform="translate(4380.658 -1230.6)" fill="#fff" stroke="#46505a" stroke-linecap="round" stroke-linejoin="round" stroke-width="2"/><path d="M38.5,0h233a38.5,38.5,0,0,1,0,77H38.5a38.5,38.5,0,0,1,0-77Z" transform="translate(25 160)" fill="#eafdff"/><path d="M2.172,0h1.32L4.8-5.3c.144-.7.3-1.332.444-2h.048c.144.672.276,1.308.432,2L7.056,0H8.388l1.824-8.808H9.144l-.924,4.8q-.252,1.4-.5,2.844h-.06c-.2-.96-.408-1.908-.624-2.844l-1.224-4.8H4.788l-1.212,4.8c-.216.948-.432,1.9-.636,2.844H2.892c-.168-.948-.348-1.9-.516-2.844l-.924-4.8H.312ZM11.34,0h1.092V-4.188c.432-1.116,1.1-1.5,1.644-1.5a1.542,1.542,0,0,1,.636.108l.2-.96a1.389,1.389,0,0,0-.7-.144,2.25,2.25,0,0,0-1.848,1.356h-.036l-.1-1.188h-.9ZM15.7,0h1.092V-6.516H15.7Zm.552-7.86a.693.693,0,0,0,.732-.732.687.687,0,0,0-.732-.708.687.687,0,0,0-.732.708A.693.693,0,0,0,16.248-7.86Zm4.5,8.016a4.1,4.1,0,0,0,1.2-.24L21.732-.9a2.308,2.308,0,0,1-.744.168c-.756,0-1.008-.456-1.008-1.26V-5.628h1.764v-.888H19.98V-8.352h-.912l-.132,1.836-1.02.06v.828h.972v3.612C18.888-.72,19.356.156,20.748.156Zm4.62,0a3.878,3.878,0,0,0,2.16-.672l-.4-.72A2.809,2.809,0,0,1,25.5-.72,2.159,2.159,0,0,1,23.34-3h4.392a4.263,4.263,0,0,0,.048-.624c0-1.86-.936-3.06-2.592-3.06a3.152,3.152,0,0,0-2.94,3.432A3.114,3.114,0,0,0,25.368.156Zm-2.04-3.948A2,2,0,0,1,25.2-5.808c1.02,0,1.62.708,1.62,2.016ZM32.976.156a3.491,3.491,0,0,0,2.16-.936h.036l.1.78h.9V-4.008c0-1.608-.672-2.676-2.256-2.676a4.9,4.9,0,0,0-2.568.852l.432.756a3.59,3.59,0,0,1,1.956-.7c1.068,0,1.344.8,1.344,1.644-2.772.312-4.008,1.02-4.008,2.436A1.767,1.767,0,0,0,32.976.156Zm.312-.876c-.648,0-1.152-.3-1.152-1.044,0-.84.744-1.38,2.94-1.644v1.824A2.663,2.663,0,0,1,33.288-.72ZM37.944,0h1.092V-4.728a2.478,2.478,0,0,1,1.788-1c.864,0,1.236.516,1.236,1.74V0h1.092V-4.128c0-1.668-.624-2.556-1.992-2.556a3.125,3.125,0,0,0-2.184,1.1H38.94l-.1-.936h-.9ZM47.2.156a2.906,2.906,0,0,0,1.98-.924h.036l.1.768H50.2V-9.552h-1.08v2.508l.048,1.128a2.651,2.651,0,0,0-1.836-.768c-1.488,0-2.82,1.32-2.82,3.432C44.508-1.08,45.564.156,47.2.156Zm.24-.912c-1.152,0-1.8-.936-1.8-2.508,0-1.488.828-2.5,1.884-2.5a2.335,2.335,0,0,1,1.6.684v3.42A2.281,2.281,0,0,1,47.436-.756Zm8.772.912c1.536,0,2.376-.876,2.376-1.932,0-1.236-1.044-1.62-1.992-1.98-.732-.276-1.4-.5-1.4-1.128,0-.5.384-.936,1.212-.936a2.386,2.386,0,0,1,1.476.576l.528-.708a3.312,3.312,0,0,0-2.016-.732c-1.416,0-2.256.816-2.256,1.848,0,1.1,1,1.548,1.908,1.884.72.276,1.488.564,1.488,1.236,0,.564-.42,1.02-1.284,1.02a2.955,2.955,0,0,1-1.932-.768l-.54.72A3.93,3.93,0,0,0,56.208.156Zm6.144,0a3.111,3.111,0,0,0,3.024-3.408,3.126,3.126,0,0,0-3.024-3.432,3.126,3.126,0,0,0-3.024,3.432A3.111,3.111,0,0,0,62.352.156Zm0-.912c-1.128,0-1.884-1-1.884-2.5s.756-2.52,1.884-2.52,1.9,1.02,1.9,2.52S63.48-.756,62.352-.756Zm5.592.912a1.681,1.681,0,0,0,.636-.1l-.156-.84a.959.959,0,0,1-.228.024c-.168,0-.312-.132-.312-.468V-9.552H66.792V-1.3C66.792-.372,67.128.156,67.944.156ZM71.316,0h1.272L74.9-6.516h-1.08L72.588-2.808c-.192.636-.4,1.308-.6,1.92H71.94c-.2-.612-.408-1.284-.612-1.92L70.1-6.516h-1.14Zm7.128.156A3.878,3.878,0,0,0,80.6-.516l-.4-.72a2.809,2.809,0,0,1-1.632.516A2.159,2.159,0,0,1,76.416-3h4.392a4.263,4.263,0,0,0,.048-.624c0-1.86-.936-3.06-2.592-3.06a3.152,3.152,0,0,0-2.94,3.432A3.114,3.114,0,0,0,78.444.156ZM76.4-3.792a2,2,0,0,1,1.872-2.016c1.02,0,1.62.708,1.62,2.016Zm8.148,6.54h1.092V.54L85.62-.6a2.94,2.94,0,0,0,1.8.756c1.5,0,2.832-1.284,2.832-3.516,0-2-.912-3.324-2.592-3.324a3.475,3.475,0,0,0-2.076.912h-.036l-.1-.744h-.9Zm2.688-3.5a2.525,2.525,0,0,1-1.6-.684V-4.86a2.717,2.717,0,0,1,1.752-.9c1.236,0,1.716.972,1.716,2.412C89.112-1.728,88.32-.756,87.24-.756ZM91.692,0h1.092V-4.188c.432-1.116,1.1-1.5,1.644-1.5a1.542,1.542,0,0,1,.636.108l.2-.96a1.389,1.389,0,0,0-.7-.144,2.25,2.25,0,0,0-1.848,1.356h-.036l-.1-1.188h-.9Zm6.756.156a3.111,3.111,0,0,0,3.024-3.408,3.126,3.126,0,0,0-3.024-3.432,3.126,3.126,0,0,0-3.024,3.432A3.111,3.111,0,0,0,98.448.156Zm0-.912c-1.128,0-1.884-1-1.884-2.5s.756-2.52,1.884-2.52,1.9,1.02,1.9,2.52S99.576-.756,98.448-.756Zm7.308.912c1.5,0,2.832-1.284,2.832-3.528,0-1.992-.912-3.312-2.6-3.312a3.283,3.283,0,0,0-2.04.924l.036-1.176V-9.552h-1.092V0h.876l.1-.672h.048A2.894,2.894,0,0,0,105.756.156Zm-.18-.912a2.5,2.5,0,0,1-1.6-.684V-4.86a2.691,2.691,0,0,1,1.752-.9c1.236,0,1.716.972,1.716,2.412C107.448-1.728,106.656-.756,105.576-.756Zm5.58.912a1.681,1.681,0,0,0,.636-.1l-.156-.84a.959.959,0,0,1-.228.024c-.168,0-.312-.132-.312-.468V-9.552H110V-1.3C110-.372,110.34.156,111.156.156Zm4.6,0a3.878,3.878,0,0,0,2.16-.672l-.4-.72a2.809,2.809,0,0,1-1.632.516A2.159,2.159,0,0,1,113.724-3h4.392a4.263,4.263,0,0,0,.048-.624c0-1.86-.936-3.06-2.592-3.06a3.152,3.152,0,0,0-2.94,3.432A3.114,3.114,0,0,0,115.752.156Zm-2.04-3.948a2,2,0,0,1,1.872-2.016c1.02,0,1.62.708,1.62,2.016ZM119.472,0h1.092V-4.728a2.407,2.407,0,0,1,1.644-1c.828,0,1.212.516,1.212,1.74V0h1.092V-4.728a2.407,2.407,0,0,1,1.644-1c.828,0,1.212.516,1.212,1.74V0h1.092V-4.128c0-1.668-.636-2.556-1.98-2.556a3.08,3.08,0,0,0-2.148,1.248,1.718,1.718,0,0,0-1.8-1.248A2.863,2.863,0,0,0,120.5-5.568h-.036l-.1-.948h-.9Zm12.516.156c1.536,0,2.376-.876,2.376-1.932,0-1.236-1.044-1.62-1.992-1.98-.732-.276-1.4-.5-1.4-1.128,0-.5.384-.936,1.212-.936a2.386,2.386,0,0,1,1.476.576l.528-.708a3.312,3.312,0,0,0-2.016-.732c-1.416,0-2.256.816-2.256,1.848,0,1.1,1,1.548,1.908,1.884.72.276,1.488.564,1.488,1.236,0,.564-.42,1.02-1.284,1.02a2.955,2.955,0,0,1-1.932-.768l-.54.72A3.93,3.93,0,0,0,131.988.156Zm8.22,0a2.906,2.906,0,0,0,1.98-.924h.036l.1.768h.888V-9.552h-1.08v2.508l.048,1.128a2.651,2.651,0,0,0-1.836-.768c-1.488,0-2.82,1.32-2.82,3.432C137.52-1.08,138.576.156,140.208.156Zm.24-.912c-1.152,0-1.8-.936-1.8-2.508,0-1.488.828-2.5,1.884-2.5a2.335,2.335,0,0,1,1.6.684v3.42A2.281,2.281,0,0,1,140.448-.756Zm4.68.756h1.092V-6.516h-1.092Zm.552-7.86a.693.693,0,0,0,.732-.732.687.687,0,0,0-.732-.708.687.687,0,0,0-.732.708A.693.693,0,0,0,145.68-7.86ZM148.128,0h1.092V-4.188c.432-1.116,1.1-1.5,1.644-1.5a1.542,1.542,0,0,1,.636.108l.2-.96a1.389,1.389,0,0,0-.7-.144,2.25,2.25,0,0,0-1.848,1.356h-.036l-.1-1.188h-.9Zm6.852.156a3.878,3.878,0,0,0,2.16-.672l-.4-.72a2.809,2.809,0,0,1-1.632.516A2.159,2.159,0,0,1,152.952-3h4.392a4.263,4.263,0,0,0,.048-.624c0-1.86-.936-3.06-2.592-3.06a3.152,3.152,0,0,0-2.94,3.432A3.114,3.114,0,0,0,154.98.156Zm-2.04-3.948a2,2,0,0,1,1.872-2.016c1.02,0,1.62.708,1.62,2.016ZM161.268.156a3.159,3.159,0,0,0,2.112-.828L162.9-1.4a2.3,2.3,0,0,1-1.536.648c-1.2,0-2.016-1-2.016-2.5s.864-2.52,2.052-2.52a1.927,1.927,0,0,1,1.3.576l.564-.72a2.786,2.786,0,0,0-1.908-.768,3.172,3.172,0,0,0-3.144,3.432C158.208-1.092,159.54.156,161.268.156Zm5.16,0a4.1,4.1,0,0,0,1.2-.24L167.412-.9a2.309,2.309,0,0,1-.744.168c-.756,0-1.008-.456-1.008-1.26V-5.628h1.764v-.888H165.66V-8.352h-.912l-.132,1.836-1.02.06v.828h.972v3.612C164.568-.72,165.036.156,166.428.156Zm3.324,0a1.681,1.681,0,0,0,.636-.1l-.156-.84A.959.959,0,0,1,170-.756c-.168,0-.312-.132-.312-.468V-9.552H168.6V-1.3C168.6-.372,168.936.156,169.752.156Zm2.076,2.652c1.3,0,1.98-.984,2.424-2.268l2.46-7.056h-1.068L174.48-2.892c-.18.576-.372,1.236-.552,1.824h-.06c-.2-.588-.432-1.26-.624-1.824l-1.332-3.624h-1.14L173.388.012,173.244.5c-.264.8-.732,1.4-1.476,1.4a1.557,1.557,0,0,1-.492-.108l-.216.876A2.006,2.006,0,0,0,171.828,2.808ZM2.136,15H3.42l.912-3.492c.168-.624.3-1.236.444-1.9h.06c.156.66.276,1.26.444,1.872L6.228,15h1.32L9.3,8.484H8.268l-.96,3.768c-.144.624-.264,1.212-.408,1.824H6.852c-.156-.612-.3-1.2-.456-1.824L5.376,8.484H4.308L3.3,12.252c-.168.612-.3,1.212-.444,1.824H2.8c-.12-.612-.252-1.2-.384-1.824L1.44,8.484H.324Zm8.292,0H11.52V8.484H10.428Zm.552-7.86a.72.72,0,1,0-.732-.732A.693.693,0,0,0,10.98,7.14Zm4.5,8.016a4.1,4.1,0,0,0,1.2-.24l-.216-.816a2.309,2.309,0,0,1-.744.168c-.756,0-1.008-.456-1.008-1.26V9.372h1.764V8.484H14.712V6.648H13.8l-.132,1.836-1.02.06v.828h.972v3.612C13.62,14.28,14.088,15.156,15.48,15.156ZM17.652,15h1.092V10.272a2.478,2.478,0,0,1,1.788-1c.864,0,1.236.516,1.236,1.74V15H22.86V10.872c0-1.668-.624-2.556-1.992-2.556a3.059,3.059,0,0,0-2.16,1.092l.036-1.344V5.448H17.652Zm9.48,2.808c1.3,0,1.98-.984,2.424-2.268l2.46-7.056H30.948l-1.164,3.624c-.18.576-.372,1.236-.552,1.824h-.06c-.2-.588-.432-1.26-.624-1.824L27.216,8.484h-1.14l2.616,6.528-.144.492c-.264.8-.732,1.4-1.476,1.4a1.557,1.557,0,0,1-.492-.108l-.216.876A2.006,2.006,0,0,0,27.132,17.808Zm8.328-2.652a3.111,3.111,0,0,0,3.024-3.408,3.048,3.048,0,1,0-6.048,0A3.111,3.111,0,0,0,35.46,15.156Zm0-.912c-1.128,0-1.884-1-1.884-2.5s.756-2.52,1.884-2.52,1.9,1.02,1.9,2.52S36.588,14.244,35.46,14.244Zm6.336.912a2.8,2.8,0,0,0,2.16-1.176h.036L44.076,15h.912V8.484H43.9V13.1c-.624.78-1.092,1.1-1.764,1.1-.864,0-1.224-.516-1.224-1.728v-4H39.816v4.128C39.816,14.268,40.428,15.156,41.8,15.156ZM46.884,15h1.092V10.812c.432-1.116,1.1-1.5,1.644-1.5a1.542,1.542,0,0,1,.636.108l.2-.96a1.389,1.389,0,0,0-.7-.144,2.25,2.25,0,0,0-1.848,1.356H47.88l-.1-1.188h-.9Zm6.924,0H54.9V9.372h1.38V8.484H54.9V7.452c0-.84.3-1.284.924-1.284a1.85,1.85,0,0,1,.732.168l.24-.828A2.81,2.81,0,0,0,55.7,5.292c-1.3,0-1.9.828-1.9,2.148V8.484l-.888.06v.828h.888Zm3.72,0h1.1V8.484h-1.1Zm.552-7.86a.72.72,0,1,0,0-1.44.684.684,0,0,0-.72.708A.69.69,0,0,0,58.08,7.14ZM60.528,15H61.62V10.272a2.478,2.478,0,0,1,1.788-1c.864,0,1.236.516,1.236,1.74V15h1.092V10.872c0-1.668-.624-2.556-1.992-2.556a3.125,3.125,0,0,0-2.184,1.1h-.036l-.1-.936h-.9Zm9.228,3c2.016,0,3.3-1.044,3.3-2.256,0-1.068-.768-1.548-2.28-1.548H69.5c-.876,0-1.14-.288-1.14-.708a.97.97,0,0,1,.42-.78,2.266,2.266,0,0,0,.972.228,2.234,2.234,0,0,0,2.376-2.268A1.861,1.861,0,0,0,71.6,9.324h1.332v-.84H70.668a2.688,2.688,0,0,0-.912-.168,2.321,2.321,0,0,0-2.448,2.328A2.288,2.288,0,0,0,68.16,12.4v.048a1.59,1.59,0,0,0-.732,1.212,1.178,1.178,0,0,0,.6,1.068v.048a1.829,1.829,0,0,0-.96,1.476C67.068,17.376,68.16,18,69.756,18Zm0-5.808a1.428,1.428,0,0,1-1.392-1.548,1.4,1.4,0,1,1,2.784,0A1.435,1.435,0,0,1,69.756,12.192Zm.156,5.064c-1.176,0-1.884-.456-1.884-1.152a1.358,1.358,0,0,1,.66-1.1,3.665,3.665,0,0,0,.84.108h1.128c.864,0,1.332.2,1.332.8C71.988,16.6,71.16,17.256,69.912,17.256Zm6.552-2.1a3.878,3.878,0,0,0,2.16-.672l-.4-.72a2.809,2.809,0,0,1-1.632.516A2.159,2.159,0,0,1,74.436,12h4.392a4.263,4.263,0,0,0,.048-.624c0-1.86-.936-3.06-2.592-3.06a3.152,3.152,0,0,0-2.94,3.432A3.114,3.114,0,0,0,76.464,15.156Zm-2.04-3.948A2,2,0,0,1,76.3,9.192c1.02,0,1.62.708,1.62,2.016ZM80.184,15h1.092V10.812c.432-1.116,1.1-1.5,1.644-1.5a1.542,1.542,0,0,1,.636.108l.2-.96a1.389,1.389,0,0,0-.7-.144,2.25,2.25,0,0,0-1.848,1.356H81.18l-.1-1.188h-.9Zm9.276.156a3.111,3.111,0,0,0,3.024-3.408,3.048,3.048,0,1,0-6.048,0A3.111,3.111,0,0,0,89.46,15.156Zm0-.912c-1.128,0-1.884-1-1.884-2.5s.756-2.52,1.884-2.52,1.9,1.02,1.9,2.52S90.588,14.244,89.46,14.244ZM93.9,15h1.092V10.812c.432-1.116,1.1-1.5,1.644-1.5a1.542,1.542,0,0,1,.636.108l.2-.96a1.389,1.389,0,0,0-.7-.144,2.25,2.25,0,0,0-1.848,1.356H94.9l-.1-1.188h-.9Zm6.744,2.748h1.092V15.54l-.024-1.14a2.94,2.94,0,0,0,1.8.756c1.5,0,2.832-1.284,2.832-3.516,0-2-.912-3.324-2.592-3.324a3.475,3.475,0,0,0-2.076.912h-.036l-.1-.744h-.9Zm2.688-3.5a2.525,2.525,0,0,1-1.6-.684V10.14a2.717,2.717,0,0,1,1.752-.9c1.236,0,1.716.972,1.716,2.412C105.2,13.272,104.412,14.244,103.332,14.244Zm7.08.912a3.878,3.878,0,0,0,2.16-.672l-.4-.72a2.809,2.809,0,0,1-1.632.516,2.159,2.159,0,0,1-2.16-2.28h4.392a4.263,4.263,0,0,0,.048-.624c0-1.86-.936-3.06-2.592-3.06a3.152,3.152,0,0,0-2.94,3.432A3.114,3.114,0,0,0,110.412,15.156Zm-2.04-3.948a2,2,0,0,1,1.872-2.016c1.02,0,1.62.708,1.62,2.016ZM114.132,15h1.092V10.272a2.478,2.478,0,0,1,1.788-1c.864,0,1.236.516,1.236,1.74V15h1.092V10.872c0-1.668-.624-2.556-1.992-2.556a3.125,3.125,0,0,0-2.184,1.1h-.036l-.1-.936h-.9Zm7.6.156a.793.793,0,0,0,.792-.828.794.794,0,1,0-1.584,0A.793.793,0,0,0,121.728,15.156Z" transform="translate(95 207)" fill="#323c46"/><path d="M1.312,0h7.12V-1.9H6.208v-9.632H4.464a7.68,7.68,0,0,1-2.752.992v1.456H3.856V-1.9H1.312ZM14.144.224c2.432,0,4-2.128,4-6.048,0-3.888-1.568-5.936-4-5.936s-4.016,2.032-4.016,5.936C10.128-1.9,11.712.224,14.144.224Zm0-1.84c-1.024,0-1.792-.992-1.792-4.208,0-3.2.768-4.1,1.792-4.1s1.776.9,1.776,4.1C15.92-2.608,15.168-1.616,14.144-1.616ZM23.568.224c2.432,0,4-2.128,4-6.048,0-3.888-1.568-5.936-4-5.936s-4.016,2.032-4.016,5.936C19.552-1.9,21.136.224,23.568.224Zm0-1.84c-1.024,0-1.792-.992-1.792-4.208,0-3.2.768-4.1,1.792-4.1s1.776.9,1.776,4.1C25.344-2.608,24.592-1.616,23.568-1.616Zm8.1-2.944c1.7,0,2.9-1.392,2.9-3.776,0-2.368-1.2-3.728-2.9-3.728s-2.88,1.36-2.88,3.728C28.784-5.952,29.968-4.56,31.664-4.56Zm0-1.328c-.688,0-1.216-.7-1.216-2.448s.528-2.4,1.216-2.4,1.232.656,1.232,2.4S32.352-5.888,31.664-5.888Zm.4,6.112h1.392l6.432-12.288H38.5Zm8.208,0c1.68,0,2.9-1.408,2.9-3.776,0-2.384-1.216-3.744-2.9-3.744s-2.88,1.36-2.88,3.744C37.392-1.184,38.592.224,40.272.224Zm0-1.344c-.688,0-1.216-.688-1.216-2.432s.528-2.416,1.216-2.416S41.5-5.3,41.5-3.552,40.96-1.12,40.272-1.12ZM51.136.224C53.472.224,54.7-1.04,54.7-2.608c0-1.664-1.312-2.256-2.5-2.7-.944-.352-1.776-.592-1.776-1.248,0-.512.384-.864,1.2-.864a3.335,3.335,0,0,1,1.92.768L54.608-8.08a4.966,4.966,0,0,0-3.04-1.1c-2.048,0-3.344,1.136-3.344,2.736,0,1.5,1.264,2.192,2.4,2.624.944.368,1.872.672,1.872,1.344,0,.56-.4.944-1.3.944a3.89,3.89,0,0,1-2.4-.976L47.728-1.04A5.683,5.683,0,0,0,51.136.224Zm8.032,0a3.6,3.6,0,0,0,2.848-1.5h.064L62.256,0h1.92V-8.96H61.824v6.048A2.159,2.159,0,0,1,60-1.792c-.864,0-1.248-.5-1.248-1.872v-5.3H56.4v5.6C56.4-1.12,57.232.224,59.168.224Zm12.016,0c1.968,0,3.808-1.776,3.808-4.864,0-2.736-1.328-4.544-3.536-4.544a3.823,3.823,0,0,0-2.48,1.072l.064-1.44v-3.216H66.688V0h1.84l.208-.944H68.8A3.423,3.423,0,0,0,71.184.224Zm-.528-1.936a2.441,2.441,0,0,1-1.616-.672V-6.32a2.468,2.468,0,0,1,1.76-.928c1.232,0,1.776.944,1.776,2.656C72.576-2.64,71.744-1.712,70.656-1.712Zm5.712,5.376c2.256,0,2.992-1.52,2.992-3.44V-8.96H77.008V.288c0,1.008-.224,1.52-.976,1.52a2.318,2.318,0,0,1-.752-.128l-.416,1.744A4.245,4.245,0,0,0,76.368,3.664ZM78.176-10.4a1.265,1.265,0,0,0,1.376-1.3,1.262,1.262,0,0,0-1.376-1.28,1.257,1.257,0,0,0-1.36,1.28A1.261,1.261,0,0,0,78.176-10.4ZM85.792.224a5.641,5.641,0,0,0,3.12-.992l-.8-1.44a3.693,3.693,0,0,1-2.016.624,2.354,2.354,0,0,1-2.48-2.24h5.52a4.422,4.422,0,0,0,.112-1.088c0-2.464-1.28-4.272-3.744-4.272a4.391,4.391,0,0,0-4.176,4.7A4.35,4.35,0,0,0,85.792.224ZM83.584-5.392A2.017,2.017,0,0,1,85.536-7.36c1.152,0,1.7.768,1.7,1.968ZM94.992.224A4.516,4.516,0,0,0,97.936-.864l-.944-1.552a2.782,2.782,0,0,1-1.744.72c-1.28,0-2.224-1.088-2.224-2.784,0-1.68.928-2.784,2.3-2.784a2.039,2.039,0,0,1,1.36.592l1.12-1.52A3.917,3.917,0,0,0,95.2-9.184a4.469,4.469,0,0,0-4.576,4.7C90.624-1.5,92.512.224,94.992.224Zm7.712,0a5.79,5.79,0,0,0,1.888-.336l-.384-1.712a2.618,2.618,0,0,1-.88.192c-.8,0-1.216-.48-1.216-1.5V-7.1h2.208V-8.96h-2.208v-2.416H100.16L99.888-8.96,98.5-8.848V-7.1H99.76v3.968C99.76-1.136,100.576.224,102.7.224ZM106.144,0H108.5V-8.96h-2.352Zm1.184-10.4a1.261,1.261,0,0,0,1.36-1.3,1.257,1.257,0,0,0-1.36-1.28,1.262,1.262,0,0,0-1.376,1.28A1.265,1.265,0,0,0,107.328-10.4Zm5.7,10.4h2.72l2.992-8.96H116.48L115.168-4.5c-.24.88-.48,1.808-.72,2.72h-.08c-.24-.912-.48-1.84-.72-2.72L112.336-8.96h-2.368ZM124,.224a5.641,5.641,0,0,0,3.12-.992l-.8-1.44a3.693,3.693,0,0,1-2.016.624,2.354,2.354,0,0,1-2.48-2.24h5.52a4.422,4.422,0,0,0,.112-1.088c0-2.464-1.28-4.272-3.744-4.272a4.391,4.391,0,0,0-4.176,4.7A4.35,4.35,0,0,0,124,.224Zm-2.208-5.616a2.017,2.017,0,0,1,1.952-1.968c1.152,0,1.7.768,1.7,1.968ZM133.024,0h2.352V-8.96h-2.352Zm1.184-10.4a1.261,1.261,0,0,0,1.36-1.3,1.257,1.257,0,0,0-1.36-1.28,1.262,1.262,0,0,0-1.376,1.28A1.265,1.265,0,0,0,134.208-10.4ZM141.168.224a5.79,5.79,0,0,0,1.888-.336l-.384-1.712a2.618,2.618,0,0,1-.88.192c-.8,0-1.216-.48-1.216-1.5V-7.1h2.208V-8.96h-2.208v-2.416h-1.952l-.272,2.416-1.392.112V-7.1h1.264v3.968C138.224-1.136,139.04.224,141.168.224Zm7.04,0a5.641,5.641,0,0,0,3.12-.992l-.8-1.44a3.693,3.693,0,0,1-2.016.624,2.354,2.354,0,0,1-2.48-2.24h5.52a4.421,4.421,0,0,0,.112-1.088c0-2.464-1.28-4.272-3.744-4.272a4.391,4.391,0,0,0-4.176,4.7A4.35,4.35,0,0,0,148.208.224ZM146-5.392a2.017,2.017,0,0,1,1.952-1.968c1.152,0,1.7.768,1.7,1.968ZM153.6,0h2.352V-6.16a2.554,2.554,0,0,1,1.712-1.008c.848,0,1.264.48,1.264,1.872V0h2.336V-6.16a2.614,2.614,0,0,1,1.728-1.008c.848,0,1.248.48,1.248,1.872V0h2.352V-5.584c0-2.256-.88-3.6-2.784-3.6a3.974,3.974,0,0,0-2.848,1.568A2.439,2.439,0,0,0,158.5-9.184a3.773,3.773,0,0,0-2.752,1.424H155.7l-.176-1.2H153.6Zm17.984.224c2.336,0,3.568-1.264,3.568-2.832,0-1.664-1.312-2.256-2.5-2.7-.944-.352-1.776-.592-1.776-1.248,0-.512.384-.864,1.2-.864a3.335,3.335,0,0,1,1.92.768l1.056-1.424a4.966,4.966,0,0,0-3.04-1.1c-2.048,0-3.344,1.136-3.344,2.736,0,1.5,1.264,2.192,2.4,2.624.944.368,1.872.672,1.872,1.344,0,.56-.4.944-1.3.944a3.89,3.89,0,0,1-2.4-.976L168.176-1.04A5.683,5.683,0,0,0,171.584.224Z" transform="translate(95 189)" fill="#00c3e1"/><path d="M-4652.38,1518.578c-3.454,2.278-10.97.5-10.427,4.776.615,3.926,11.188-2.029,10.876,2.186-.17,2.1-4.059,2.29-3.851,4.735s4.788,1.821,4.788,1.821" transform="translate(4714.232 -1334.083)" fill="none" stroke="#46505a" stroke-linecap="round" stroke-linejoin="round" stroke-width="2"/><path d="M1.815,7.6.595,9.129a2.716,2.716,0,0,0-.431,2.625l1,2.754A2.717,2.717,0,0,0,3.717,16.3h4.7a2.716,2.716,0,0,0,2.624-2.016l.557-2.089A4.346,4.346,0,0,0,8.68,6.918L5.617,5.975V1.9A1.9,1.9,0,0,0,3.716,0h0a1.9,1.9,0,0,0-1.9,1.9Z" transform="matrix(0.819, -0.574, 0.574, 0.819, 59.234, 198.301)" fill="#fff" stroke="#46505a" stroke-linecap="round" stroke-linejoin="round" stroke-width="2"/></g></svg>