<svg xmlns="http://www.w3.org/2000/svg" xmlns:xlink="http://www.w3.org/1999/xlink" width="252.726" height="157.17" viewBox="0 0 252.726 157.17"><defs><linearGradient id="a" x1="0.045" y1="0.441" x2="1.127" y2="0.827" gradientUnits="objectBoundingBox"><stop offset="0" stop-color="#f5b400"/><stop offset="1" stop-color="#ffc823"/></linearGradient></defs><g transform="translate(-50.274 -108.83)"><path d="M1.1,0H2.123V-8.074H1.1ZM5.841.143a3.76,3.76,0,0,0,1.1-.22l-.2-.748a2.116,2.116,0,0,1-.682.154c-.693,0-.924-.418-.924-1.155V-5.159H6.754v-.814H5.137V-7.656H4.3L4.18-5.973l-.935.055v.759h.891v3.311C4.136-.66,4.565.143,5.841.143ZM10.021,0h1V-4.334a2.272,2.272,0,0,1,1.639-.913c.792,0,1.133.473,1.133,1.6V0h1V-3.784c0-1.529-.572-2.343-1.826-2.343a2.8,2.8,0,0,0-1.98,1l.033-1.232v-2.4h-1Zm8.811.143a3.555,3.555,0,0,0,1.98-.616l-.363-.66a2.575,2.575,0,0,1-1.5.473,1.979,1.979,0,0,1-1.98-2.09H21a3.908,3.908,0,0,0,.044-.572c0-1.705-.858-2.805-2.376-2.805a2.889,2.889,0,0,0-2.7,3.146A2.855,2.855,0,0,0,18.832.143Zm-1.87-3.619a1.835,1.835,0,0,1,1.716-1.848c.935,0,1.485.649,1.485,1.848ZM23.3.143a1.541,1.541,0,0,0,.583-.088l-.143-.77a.879.879,0,0,1-.209.022c-.154,0-.286-.121-.286-.429V-8.756h-1v7.568C22.242-.341,22.55.143,23.3.143Zm1.8,2.376h1V.5L26.081-.55a2.7,2.7,0,0,0,1.65.693c1.375,0,2.6-1.177,2.6-3.223,0-1.837-.836-3.047-2.376-3.047a3.185,3.185,0,0,0-1.9.836h-.033l-.088-.682H25.1ZM27.566-.693A2.315,2.315,0,0,1,26.1-1.32V-4.455a2.49,2.49,0,0,1,1.606-.825c1.133,0,1.573.891,1.573,2.211C29.282-1.584,28.556-.693,27.566-.693Zm5.643.836c1.408,0,2.178-.8,2.178-1.771,0-1.133-.957-1.485-1.826-1.815-.671-.253-1.287-.462-1.287-1.034,0-.462.352-.858,1.111-.858a2.187,2.187,0,0,1,1.353.528l.484-.649a3.036,3.036,0,0,0-1.848-.671c-1.3,0-2.068.748-2.068,1.694,0,1.012.913,1.419,1.749,1.727.66.253,1.364.517,1.364,1.133,0,.517-.385.935-1.177.935a2.709,2.709,0,0,1-1.771-.7l-.5.66A3.6,3.6,0,0,0,33.209.143Zm6.556,0a1.541,1.541,0,0,0,.583-.088L40.2-.715A.879.879,0,0,1,40-.693c-.154,0-.286-.121-.286-.429V-8.756h-1v7.568C38.709-.341,39.017.143,39.765.143Zm4.213,0a3.555,3.555,0,0,0,1.98-.616l-.363-.66a2.575,2.575,0,0,1-1.5.473,1.979,1.979,0,0,1-1.98-2.09h4.026a3.908,3.908,0,0,0,.044-.572c0-1.705-.858-2.805-2.376-2.805a2.889,2.889,0,0,0-2.695,3.146A2.855,2.855,0,0,0,43.978.143Zm-1.87-3.619a1.835,1.835,0,0,1,1.716-1.848c.935,0,1.485.649,1.485,1.848ZM48.587.143a3.2,3.2,0,0,0,1.98-.858H50.6L50.688,0h.825V-3.674c0-1.474-.616-2.453-2.068-2.453a4.493,4.493,0,0,0-2.354.781l.4.693a3.291,3.291,0,0,1,1.793-.638c.979,0,1.232.737,1.232,1.507-2.541.286-3.674.935-3.674,2.233A1.619,1.619,0,0,0,48.587.143Zm.286-.8c-.594,0-1.056-.275-1.056-.957,0-.77.682-1.265,2.695-1.507v1.672A2.441,2.441,0,0,1,48.873-.66ZM53.141,0h1V-3.839c.4-1.023,1.012-1.375,1.507-1.375a1.413,1.413,0,0,1,.583.1L56.419-6a1.273,1.273,0,0,0-.638-.132,2.062,2.062,0,0,0-1.694,1.243h-.033l-.088-1.089h-.825Zm3.993,0h1V-4.334a2.272,2.272,0,0,1,1.639-.913c.792,0,1.133.473,1.133,1.6V0h1V-3.784c0-1.529-.572-2.343-1.826-2.343a2.864,2.864,0,0,0-2,1.012h-.033l-.088-.858h-.825Zm8.855.143a3.555,3.555,0,0,0,1.98-.616l-.363-.66a2.575,2.575,0,0,1-1.5.473,1.979,1.979,0,0,1-1.98-2.09h4.026a3.908,3.908,0,0,0,.044-.572c0-1.705-.858-2.805-2.376-2.805a2.889,2.889,0,0,0-2.695,3.146A2.855,2.855,0,0,0,65.989.143Zm-1.87-3.619a1.835,1.835,0,0,1,1.716-1.848c.935,0,1.485.649,1.485,1.848ZM69.4,0h1V-3.839c.4-1.023,1.012-1.375,1.507-1.375a1.413,1.413,0,0,1,.583.1L72.677-6a1.273,1.273,0,0,0-.638-.132,2.062,2.062,0,0,0-1.694,1.243h-.033l-.088-1.089H69.4ZM74.91.143c1.408,0,2.178-.8,2.178-1.771,0-1.133-.957-1.485-1.826-1.815-.671-.253-1.287-.462-1.287-1.034,0-.462.352-.858,1.111-.858a2.187,2.187,0,0,1,1.353.528l.484-.649a3.036,3.036,0,0,0-1.848-.671c-1.3,0-2.068.748-2.068,1.694,0,1.012.913,1.419,1.749,1.727.66.253,1.364.517,1.364,1.133,0,.517-.385.935-1.177.935a2.709,2.709,0,0,1-1.771-.7l-.495.66A3.6,3.6,0,0,0,74.91.143Zm7.381,0a3.76,3.76,0,0,0,1.1-.22l-.2-.748a2.116,2.116,0,0,1-.682.154c-.693,0-.924-.418-.924-1.155V-5.159H83.2v-.814H81.587V-7.656h-.836L80.63-5.973l-.935.055v.759h.891v3.311C80.586-.66,81.015.143,82.291.143Zm4.147,0A2.852,2.852,0,0,0,89.21-2.981a2.866,2.866,0,0,0-2.772-3.146,2.866,2.866,0,0,0-2.772,3.146A2.852,2.852,0,0,0,86.438.143Zm0-.836c-1.034,0-1.727-.913-1.727-2.288s.693-2.31,1.727-2.31,1.738.935,1.738,2.31S87.472-.693,86.438-.693Zm7.821.836c1.408,0,2.178-.8,2.178-1.771,0-1.133-.957-1.485-1.826-1.815-.671-.253-1.287-.462-1.287-1.034,0-.462.352-.858,1.111-.858a2.187,2.187,0,0,1,1.353.528l.484-.649a3.036,3.036,0,0,0-1.848-.671c-1.3,0-2.068.748-2.068,1.694,0,1.012.913,1.419,1.749,1.727.66.253,1.364.517,1.364,1.133,0,.517-.385.935-1.177.935a2.709,2.709,0,0,1-1.771-.7l-.495.66A3.6,3.6,0,0,0,94.259.143Zm5.632,0a2.852,2.852,0,0,0,2.772-3.124,2.866,2.866,0,0,0-2.772-3.146,2.866,2.866,0,0,0-2.772,3.146A2.852,2.852,0,0,0,99.891.143Zm0-.836c-1.034,0-1.727-.913-1.727-2.288s.693-2.31,1.727-2.31,1.738.935,1.738,2.31S100.925-.693,99.891-.693Zm5.126.836A1.541,1.541,0,0,0,105.6.055l-.143-.77a.879.879,0,0,1-.209.022c-.154,0-.286-.121-.286-.429V-8.756h-1v7.568C103.961-.341,104.269.143,105.017.143ZM108.108,0h1.166L111.4-5.973h-.99l-1.133,3.4c-.176.583-.363,1.2-.55,1.76h-.044c-.187-.561-.374-1.177-.561-1.76L107-5.973h-1.045Zm6.534.143a3.555,3.555,0,0,0,1.98-.616l-.363-.66a2.575,2.575,0,0,1-1.5.473,1.979,1.979,0,0,1-1.98-2.09h4.026a3.907,3.907,0,0,0,.044-.572c0-1.705-.858-2.805-2.376-2.805a2.889,2.889,0,0,0-2.695,3.146A2.855,2.855,0,0,0,114.642.143Zm-1.87-3.619a1.835,1.835,0,0,1,1.716-1.848c.935,0,1.485.649,1.485,1.848Zm7.469,6h1V.5L121.22-.55a2.7,2.7,0,0,0,1.65.693c1.375,0,2.6-1.177,2.6-3.223,0-1.837-.836-3.047-2.376-3.047a3.185,3.185,0,0,0-1.9.836h-.033l-.088-.682h-.825Zm2.464-3.212a2.315,2.315,0,0,1-1.463-.627V-4.455a2.49,2.49,0,0,1,1.606-.825c1.133,0,1.573.891,1.573,2.211C124.421-1.584,123.7-.693,122.705-.693ZM126.786,0h1V-3.839c.4-1.023,1.012-1.375,1.507-1.375a1.413,1.413,0,0,1,.583.1l.187-.88a1.273,1.273,0,0,0-.638-.132,2.062,2.062,0,0,0-1.694,1.243H127.7l-.088-1.089h-.825Zm6.193.143a2.852,2.852,0,0,0,2.772-3.124,2.866,2.866,0,0,0-2.772-3.146,2.866,2.866,0,0,0-2.772,3.146A2.852,2.852,0,0,0,132.979.143Zm0-.836c-1.034,0-1.727-.913-1.727-2.288s.693-2.31,1.727-2.31,1.738.935,1.738,2.31S134.013-.693,132.979-.693Zm6.7.836c1.375,0,2.6-1.177,2.6-3.234,0-1.826-.836-3.036-2.387-3.036a3.009,3.009,0,0,0-1.87.847l.033-1.078v-2.4h-1V0h.8l.088-.616h.044A2.653,2.653,0,0,0,139.678.143Zm-.165-.836a2.293,2.293,0,0,1-1.463-.627V-4.455a2.467,2.467,0,0,1,1.606-.825c1.133,0,1.573.891,1.573,2.211C141.229-1.584,140.5-.693,139.513-.693Zm5.115.836a1.541,1.541,0,0,0,.583-.088l-.143-.77a.879.879,0,0,1-.209.022c-.154,0-.286-.121-.286-.429V-8.756h-1v7.568C143.572-.341,143.88.143,144.628.143Zm4.213,0a3.555,3.555,0,0,0,1.98-.616l-.363-.66a2.575,2.575,0,0,1-1.5.473,1.979,1.979,0,0,1-1.98-2.09h4.026a3.907,3.907,0,0,0,.044-.572c0-1.705-.858-2.805-2.376-2.805a2.889,2.889,0,0,0-2.695,3.146A2.855,2.855,0,0,0,148.841.143Zm-1.87-3.619a1.835,1.835,0,0,1,1.716-1.848c.935,0,1.485.649,1.485,1.848ZM152.251,0h1V-4.334a2.206,2.206,0,0,1,1.507-.913c.759,0,1.111.473,1.111,1.6V0h1V-4.334a2.206,2.206,0,0,1,1.507-.913c.759,0,1.111.473,1.111,1.6V0h1V-3.784c0-1.529-.583-2.343-1.815-2.343a2.824,2.824,0,0,0-1.969,1.144,1.575,1.575,0,0,0-1.65-1.144A2.625,2.625,0,0,0,153.2-5.1h-.033l-.088-.869h-.825Zm11.473.143c1.408,0,2.178-.8,2.178-1.771,0-1.133-.957-1.485-1.826-1.815-.671-.253-1.287-.462-1.287-1.034,0-.462.352-.858,1.111-.858a2.187,2.187,0,0,1,1.353.528l.484-.649a3.036,3.036,0,0,0-1.848-.671c-1.3,0-2.068.748-2.068,1.694,0,1.012.913,1.419,1.749,1.727.66.253,1.364.517,1.364,1.133,0,.517-.385.935-1.177.935a2.709,2.709,0,0,1-1.771-.7l-.495.66A3.6,3.6,0,0,0,163.724.143Zm7.821,0a2.852,2.852,0,0,0,2.772-3.124,2.866,2.866,0,0,0-2.772-3.146,2.866,2.866,0,0,0-2.772,3.146A2.852,2.852,0,0,0,171.545.143Zm0-.836c-1.034,0-1.727-.913-1.727-2.288s.693-2.31,1.727-2.31,1.738.935,1.738,2.31S172.579-.693,171.545-.693Zm4.07.693h1V-4.334a2.272,2.272,0,0,1,1.639-.913c.792,0,1.133.473,1.133,1.6V0h1V-3.784c0-1.529-.572-2.343-1.826-2.343a2.864,2.864,0,0,0-2,1.012h-.033l-.088-.858h-.825Zm10.516.143a3.76,3.76,0,0,0,1.1-.22l-.2-.748a2.116,2.116,0,0,1-.682.154c-.693,0-.924-.418-.924-1.155V-5.159h1.617v-.814h-1.617V-7.656h-.836l-.121,1.683-.935.055v.759h.891v3.311C184.426-.66,184.855.143,186.131.143ZM188.122,0h1V-4.334a2.272,2.272,0,0,1,1.639-.913c.792,0,1.133.473,1.133,1.6V0h1V-3.784c0-1.529-.572-2.343-1.826-2.343a2.8,2.8,0,0,0-1.98,1l.033-1.232v-2.4h-1Zm8.811.143a3.555,3.555,0,0,0,1.98-.616l-.363-.66a2.575,2.575,0,0,1-1.5.473,1.979,1.979,0,0,1-1.98-2.09H199.1a3.907,3.907,0,0,0,.044-.572c0-1.705-.858-2.805-2.376-2.805a2.889,2.889,0,0,0-2.695,3.146A2.855,2.855,0,0,0,196.933.143Zm-1.87-3.619a1.835,1.835,0,0,1,1.716-1.848c.935,0,1.485.649,1.485,1.848ZM200.343,0h1V-5.973h-1Zm.506-7.205a.635.635,0,0,0,.671-.671.63.63,0,0,0-.671-.649.63.63,0,0,0-.671.649A.635.635,0,0,0,200.849-7.205ZM203.093,0h1V-3.839c.4-1.023,1.012-1.375,1.507-1.375a1.413,1.413,0,0,1,.583.1l.187-.88a1.273,1.273,0,0,0-.638-.132,2.062,2.062,0,0,0-1.694,1.243h-.033l-.088-1.089h-.825Zm8.5.143a2.852,2.852,0,0,0,2.772-3.124A2.866,2.866,0,0,0,211.6-6.127a2.866,2.866,0,0,0-2.772,3.146A2.852,2.852,0,0,0,211.6.143Zm0-.836c-1.034,0-1.727-.913-1.727-2.288s.693-2.31,1.727-2.31,1.738.935,1.738,2.31S212.63-.693,211.6-.693ZM216.568,0h1.177l.836-3.2c.154-.572.275-1.133.407-1.738h.055c.143.605.253,1.155.407,1.716L220.319,0h1.21l1.606-5.973h-.946l-.88,3.454c-.132.572-.242,1.111-.374,1.672h-.044c-.143-.561-.275-1.1-.418-1.672l-.935-3.454h-.979l-.924,3.454c-.154.561-.275,1.111-.407,1.672h-.055c-.11-.561-.231-1.1-.352-1.672l-.891-3.454h-1.023Zm7.6,0h1V-4.334a2.272,2.272,0,0,1,1.639-.913c.792,0,1.133.473,1.133,1.6V0h1V-3.784c0-1.529-.572-2.343-1.826-2.343a2.864,2.864,0,0,0-2,1.012h-.033l-.088-.858h-.825ZM3.641,17.143c1.375,0,2.6-1.177,2.6-3.234,0-1.826-.836-3.036-2.387-3.036a3.009,3.009,0,0,0-1.87.847l.033-1.078v-2.4h-1V17h.8l.088-.616h.044A2.653,2.653,0,0,0,3.641,17.143Zm-.165-.836a2.293,2.293,0,0,1-1.463-.627V12.545a2.467,2.467,0,0,1,1.606-.825c1.133,0,1.573.891,1.573,2.211C5.192,15.416,4.466,16.307,3.476,16.307ZM7.59,19.574c1.188,0,1.815-.9,2.222-2.079l2.255-6.468h-.979l-1.067,3.322c-.165.528-.341,1.133-.506,1.672H9.46c-.187-.539-.4-1.155-.572-1.672L7.667,11.027H6.622l2.4,5.984-.132.451c-.242.737-.671,1.287-1.353,1.287a1.427,1.427,0,0,1-.451-.1l-.2.8A1.839,1.839,0,0,0,7.59,19.574Zm8.921-2.431a3.2,3.2,0,0,0,1.98-.858h.033l.088.715h.825V13.326c0-1.474-.616-2.453-2.068-2.453a4.493,4.493,0,0,0-2.354.781l.4.693a3.291,3.291,0,0,1,1.793-.638c.979,0,1.232.737,1.232,1.507-2.541.286-3.674.935-3.674,2.233A1.619,1.619,0,0,0,16.511,17.143Zm.286-.8c-.594,0-1.056-.275-1.056-.957,0-.77.682-1.265,2.7-1.507v1.672A2.441,2.441,0,0,1,16.8,16.34Zm4.268.66h1V12.666a2.272,2.272,0,0,1,1.639-.913c.792,0,1.133.473,1.133,1.595V17h1V13.216c0-1.529-.572-2.343-1.826-2.343a2.864,2.864,0,0,0-2,1.012h-.033l-.088-.858h-.825Zm7.821.143a3.2,3.2,0,0,0,1.98-.858H30.9l.088.715h.825V13.326c0-1.474-.616-2.453-2.068-2.453a4.493,4.493,0,0,0-2.354.781l.4.693a3.291,3.291,0,0,1,1.793-.638c.979,0,1.232.737,1.232,1.507-2.541.286-3.674.935-3.674,2.233A1.619,1.619,0,0,0,28.886,17.143Zm.286-.8c-.594,0-1.056-.275-1.056-.957,0-.77.682-1.265,2.695-1.507v1.672A2.441,2.441,0,0,1,29.172,16.34Zm5.324.8a1.541,1.541,0,0,0,.583-.088l-.143-.77a.879.879,0,0,1-.209.022c-.154,0-.286-.121-.286-.429V8.244h-1v7.568C33.44,16.659,33.748,17.143,34.5,17.143Zm1.9,2.431c1.188,0,1.815-.9,2.222-2.079l2.255-6.468H39.9L38.83,14.349c-.165.528-.341,1.133-.506,1.672h-.055c-.187-.539-.4-1.155-.572-1.672l-1.221-3.322H35.431l2.4,5.984-.132.451c-.242.737-.671,1.287-1.353,1.287a1.427,1.427,0,0,1-.451-.1l-.2.8A1.839,1.839,0,0,0,36.4,19.574ZM40.832,17h4.521v-.814H42.1l3.146-4.62v-.539h-4.07v.814h2.805l-3.146,4.62ZM46.4,17h1V11.027h-1ZM46.9,9.8a.66.66,0,1,0-.671-.671A.635.635,0,0,0,46.9,9.8ZM49.148,17h1V12.666a2.272,2.272,0,0,1,1.639-.913c.792,0,1.133.473,1.133,1.595V17h1V13.216c0-1.529-.572-2.343-1.826-2.343a2.864,2.864,0,0,0-2,1.012h-.033l-.088-.858h-.825Zm8.459,2.75c1.848,0,3.025-.957,3.025-2.068,0-.979-.7-1.419-2.09-1.419H57.376c-.8,0-1.045-.264-1.045-.649a.889.889,0,0,1,.385-.715,2.078,2.078,0,0,0,.891.209,2.048,2.048,0,0,0,2.178-2.079A1.706,1.706,0,0,0,59.3,11.8h1.221v-.77H58.443a2.464,2.464,0,0,0-.836-.154,2.128,2.128,0,0,0-2.244,2.134,2.1,2.1,0,0,0,.781,1.606v.044a1.457,1.457,0,0,0-.671,1.111,1.08,1.08,0,0,0,.55.979v.044a1.676,1.676,0,0,0-.88,1.353C55.143,19.178,56.144,19.75,57.607,19.75Zm0-5.324a1.309,1.309,0,0,1-1.276-1.419,1.281,1.281,0,1,1,2.552,0A1.315,1.315,0,0,1,57.607,14.426Zm.143,4.642c-1.078,0-1.727-.418-1.727-1.056a1.245,1.245,0,0,1,.6-1.012,3.36,3.36,0,0,0,.77.1h1.034c.792,0,1.221.187,1.221.737C59.653,18.463,58.894,19.068,57.75,19.068ZM63.7,17h1V11.027h-1Zm.506-7.2a.66.66,0,1,0-.671-.671A.635.635,0,0,0,64.207,9.8ZM66.451,17h1V12.666a2.272,2.272,0,0,1,1.639-.913c.792,0,1.133.473,1.133,1.595V17h1V13.216c0-1.529-.572-2.343-1.826-2.343a2.864,2.864,0,0,0-2,1.012h-.033l-.088-.858h-.825Zm8.8.143a2.9,2.9,0,0,0,1.936-.759l-.44-.671a2.106,2.106,0,0,1-1.408.594c-1.1,0-1.848-.913-1.848-2.288s.792-2.31,1.881-2.31a1.766,1.766,0,0,1,1.188.528l.517-.66a2.554,2.554,0,0,0-1.749-.7,2.908,2.908,0,0,0-2.882,3.146A2.809,2.809,0,0,0,75.251,17.143Zm5.027,0a2.852,2.852,0,0,0,2.772-3.124,2.794,2.794,0,1,0-5.544,0A2.852,2.852,0,0,0,80.278,17.143Zm0-.836c-1.034,0-1.727-.913-1.727-2.288s.693-2.31,1.727-2.31,1.738.935,1.738,2.31S81.312,16.307,80.278,16.307Zm4.07.693h1V13.161c.4-1.023,1.012-1.375,1.507-1.375a1.413,1.413,0,0,1,.583.1l.187-.88a1.273,1.273,0,0,0-.638-.132,2.062,2.062,0,0,0-1.694,1.243h-.033l-.088-1.089h-.825Zm3.993,0h1V13.161c.4-1.023,1.012-1.375,1.507-1.375a1.413,1.413,0,0,1,.583.1l.187-.88a1.273,1.273,0,0,0-.638-.132,2.062,2.062,0,0,0-1.694,1.243h-.033l-.088-1.089h-.825Zm6.281.143a3.555,3.555,0,0,0,1.98-.616l-.363-.66a2.575,2.575,0,0,1-1.5.473,1.979,1.979,0,0,1-1.98-2.09h4.026a3.907,3.907,0,0,0,.044-.572c0-1.7-.858-2.805-2.376-2.805a2.889,2.889,0,0,0-2.695,3.146A2.855,2.855,0,0,0,94.622,17.143Zm-1.87-3.619a1.835,1.835,0,0,1,1.716-1.848c.935,0,1.485.649,1.485,1.848Zm7.634,3.619a2.9,2.9,0,0,0,1.936-.759l-.44-.671a2.106,2.106,0,0,1-1.408.594c-1.1,0-1.848-.913-1.848-2.288s.792-2.31,1.881-2.31a1.766,1.766,0,0,1,1.188.528l.517-.66a2.554,2.554,0,0,0-1.749-.7,2.908,2.908,0,0,0-2.882,3.146A2.809,2.809,0,0,0,100.386,17.143Zm4.73,0a3.76,3.76,0,0,0,1.1-.22l-.2-.748a2.116,2.116,0,0,1-.682.154c-.693,0-.924-.418-.924-1.155V11.841h1.617v-.814h-1.617V9.344h-.836l-.121,1.683-.935.055v.759h.891v3.311C103.411,16.34,103.84,17.143,105.116,17.143Zm5.555,0a3.2,3.2,0,0,0,1.98-.858h.033l.088.715h.825V13.326c0-1.474-.616-2.453-2.068-2.453a4.493,4.493,0,0,0-2.354.781l.4.693a3.291,3.291,0,0,1,1.793-.638c.979,0,1.232.737,1.232,1.507-2.541.286-3.674.935-3.674,2.233A1.619,1.619,0,0,0,110.671,17.143Zm.286-.8c-.594,0-1.056-.275-1.056-.957,0-.77.682-1.265,2.7-1.507v1.672A2.441,2.441,0,0,1,110.957,16.34Zm4.268.66h1V12.666a2.272,2.272,0,0,1,1.639-.913c.792,0,1.133.473,1.133,1.595V17h1V13.216c0-1.529-.572-2.343-1.826-2.343a2.864,2.864,0,0,0-2,1.012h-.033l-.088-.858h-.825Zm8.008.143c1.408,0,2.178-.8,2.178-1.771,0-1.133-.957-1.485-1.826-1.815-.671-.253-1.287-.462-1.287-1.034,0-.462.352-.858,1.111-.858a2.187,2.187,0,0,1,1.353.528l.484-.649a3.036,3.036,0,0,0-1.848-.671c-1.3,0-2.068.748-2.068,1.694,0,1.012.913,1.419,1.749,1.727.66.253,1.364.517,1.364,1.133,0,.517-.385.935-1.177.935a2.709,2.709,0,0,1-1.771-.7l-.495.66A3.6,3.6,0,0,0,123.233,17.143ZM127.49,17h1.177l.836-3.2c.154-.572.275-1.133.407-1.738h.055c.143.605.253,1.155.407,1.716L131.241,17h1.21l1.606-5.973h-.946l-.88,3.454c-.132.572-.242,1.111-.374,1.672h-.044c-.143-.561-.275-1.1-.418-1.672l-.935-3.454h-.979l-.924,3.454c-.154.561-.275,1.111-.407,1.672H128.1c-.11-.561-.231-1.1-.352-1.672l-.891-3.454h-1.023Zm9.966.143a3.555,3.555,0,0,0,1.98-.616l-.363-.66a2.575,2.575,0,0,1-1.5.473,1.979,1.979,0,0,1-1.98-2.09h4.026a3.907,3.907,0,0,0,.044-.572c0-1.7-.858-2.805-2.376-2.805a2.889,2.889,0,0,0-2.695,3.146A2.855,2.855,0,0,0,137.456,17.143Zm-1.87-3.619a1.835,1.835,0,0,1,1.716-1.848c.935,0,1.485.649,1.485,1.848ZM140.866,17h1V13.161c.4-1.023,1.012-1.375,1.507-1.375a1.413,1.413,0,0,1,.583.1l.187-.88a1.273,1.273,0,0,0-.638-.132,2.062,2.062,0,0,0-1.694,1.243h-.033l-.088-1.089h-.825Zm5.511.143c1.408,0,2.178-.8,2.178-1.771,0-1.133-.957-1.485-1.826-1.815-.671-.253-1.287-.462-1.287-1.034,0-.462.352-.858,1.111-.858a2.187,2.187,0,0,1,1.353.528l.484-.649a3.036,3.036,0,0,0-1.848-.671c-1.3,0-2.068.748-2.068,1.694,0,1.012.913,1.419,1.749,1.727.66.253,1.364.517,1.364,1.133,0,.517-.385.935-1.177.935a2.709,2.709,0,0,1-1.771-.7l-.495.66A3.6,3.6,0,0,0,146.377,17.143Zm6.875,0a3.2,3.2,0,0,0,1.98-.858h.033l.088.715h.825V13.326c0-1.474-.616-2.453-2.068-2.453a4.493,4.493,0,0,0-2.354.781l.4.693a3.291,3.291,0,0,1,1.793-.638c.979,0,1.232.737,1.232,1.507-2.541.286-3.674.935-3.674,2.233A1.619,1.619,0,0,0,153.252,17.143Zm.286-.8c-.594,0-1.056-.275-1.056-.957,0-.77.682-1.265,2.695-1.507v1.672A2.441,2.441,0,0,1,153.538,16.34Zm4.268.66h1V12.666a2.272,2.272,0,0,1,1.639-.913c.792,0,1.133.473,1.133,1.595V17h1V13.216c0-1.529-.572-2.343-1.826-2.343a2.864,2.864,0,0,0-2,1.012h-.033l-.088-.858h-.825Zm8.481.143A2.664,2.664,0,0,0,168.1,16.3h.033l.088.7h.814V8.244h-.99v2.3l.044,1.034a2.43,2.43,0,0,0-1.683-.7c-1.364,0-2.585,1.21-2.585,3.146C163.823,16.01,164.791,17.143,166.287,17.143Zm.22-.836c-1.056,0-1.65-.858-1.65-2.3,0-1.364.759-2.288,1.727-2.288a2.14,2.14,0,0,1,1.463.627v3.135A2.091,2.091,0,0,1,166.507,16.307Zm6.479.693h1V12.666a2.206,2.206,0,0,1,1.507-.913c.759,0,1.111.473,1.111,1.595V17h1V12.666a2.206,2.206,0,0,1,1.507-.913c.759,0,1.111.473,1.111,1.595V17h1V13.216c0-1.529-.583-2.343-1.815-2.343a2.824,2.824,0,0,0-1.969,1.144,1.575,1.575,0,0,0-1.65-1.144,2.625,2.625,0,0,0-1.859,1.023H173.9l-.088-.869h-.825Zm12.32.143a3.555,3.555,0,0,0,1.98-.616l-.363-.66a2.575,2.575,0,0,1-1.5.473,1.979,1.979,0,0,1-1.98-2.09h4.026a3.907,3.907,0,0,0,.044-.572c0-1.7-.858-2.805-2.376-2.805a2.889,2.889,0,0,0-2.695,3.146A2.855,2.855,0,0,0,185.306,17.143Zm-1.87-3.619a1.835,1.835,0,0,1,1.716-1.848c.935,0,1.485.649,1.485,1.848Zm7.04,3.619a3.76,3.76,0,0,0,1.1-.22l-.2-.748a2.116,2.116,0,0,1-.682.154c-.693,0-.924-.418-.924-1.155V11.841h1.617v-.814h-1.617V9.344h-.836l-.121,1.683-.935.055v.759h.891v3.311C188.771,16.34,189.2,17.143,190.476,17.143ZM192.467,17h1V12.666a2.272,2.272,0,0,1,1.639-.913c.792,0,1.133.473,1.133,1.595V17h1V13.216c0-1.529-.572-2.343-1.826-2.343a2.8,2.8,0,0,0-1.98,1l.033-1.232v-2.4h-1Zm8.723.143a2.852,2.852,0,0,0,2.772-3.124,2.794,2.794,0,1,0-5.544,0A2.852,2.852,0,0,0,201.19,17.143Zm0-.836c-1.034,0-1.727-.913-1.727-2.288s.693-2.31,1.727-2.31,1.738.935,1.738,2.31S202.224,16.307,201.19,16.307Zm6.105.836a2.664,2.664,0,0,0,1.815-.847h.033l.088.7h.814V8.244h-.99v2.3l.044,1.034a2.43,2.43,0,0,0-1.683-.7c-1.364,0-2.585,1.21-2.585,3.146C204.831,16.01,205.8,17.143,207.295,17.143Zm.22-.836c-1.056,0-1.65-.858-1.65-2.3,0-1.364.759-2.288,1.727-2.288a2.14,2.14,0,0,1,1.463.627v3.135A2.091,2.091,0,0,1,207.515,16.307Zm5.852.836c1.408,0,2.178-.8,2.178-1.771,0-1.133-.957-1.485-1.826-1.815-.671-.253-1.287-.462-1.287-1.034,0-.462.352-.858,1.111-.858a2.187,2.187,0,0,1,1.353.528l.484-.649a3.036,3.036,0,0,0-1.848-.671c-1.3,0-2.068.748-2.068,1.694,0,1.012.913,1.419,1.749,1.727.66.253,1.364.517,1.364,1.133,0,.517-.385.935-1.177.935a2.709,2.709,0,0,1-1.771-.7l-.495.66A3.6,3.6,0,0,0,213.367,17.143Zm3.828,0a.727.727,0,0,0,.726-.759.728.728,0,1,0-1.452,0A.727.727,0,0,0,217.195,17.143Z" transform="translate(57 246)" fill="#323c46"/><path d="M5.448,18.16c.624-1.992,1.2-3.888,1.752-5.952h.1c.576,2.04,1.128,3.96,1.776,5.952l.84,2.688H4.584ZM.072,28H2.328l1.7-5.376h6.432L12.144,28H14.5L8.52,10.384H6.048Zm15.7,0H18V10.384H15.768Zm14.256.312a5.813,5.813,0,0,0,3.96-1.848h.072L34.248,28h1.776V8.9h-2.16v5.016l.1,2.256a5.3,5.3,0,0,0-3.672-1.536c-2.976,0-5.64,2.64-5.64,6.864C24.648,25.84,26.76,28.312,30.024,28.312Zm.48-1.824c-2.3,0-3.6-1.872-3.6-5.016,0-2.976,1.656-4.992,3.768-4.992a4.669,4.669,0,0,1,3.192,1.368v6.84A4.561,4.561,0,0,1,30.5,26.488ZM44.52,28.312a7.757,7.757,0,0,0,4.32-1.344l-.792-1.44a5.618,5.618,0,0,1-3.264,1.032c-2.472,0-4.176-1.776-4.32-4.56h8.784a8.526,8.526,0,0,0,.1-1.248c0-3.72-1.872-6.12-5.184-6.12-3.024,0-5.88,2.64-5.88,6.864C38.28,25.792,41.064,28.312,44.52,28.312Zm-4.08-7.9c.264-2.544,1.9-4.032,3.744-4.032,2.04,0,3.24,1.416,3.24,4.032Zm14.76,7.9a8.2,8.2,0,0,0,2.4-.48L57.168,26.2a4.617,4.617,0,0,1-1.488.336c-1.512,0-2.016-.912-2.016-2.52V16.744h3.528V14.968H53.664V11.3H51.84l-.264,3.672-2.04.12v1.656H51.48v7.224C51.48,26.56,52.416,28.312,55.2,28.312Zm8.64,0a7.757,7.757,0,0,0,4.32-1.344l-.792-1.44A5.618,5.618,0,0,1,64.1,26.56c-2.472,0-4.176-1.776-4.32-4.56h8.784a8.527,8.527,0,0,0,.1-1.248c0-3.72-1.872-6.12-5.184-6.12-3.024,0-5.88,2.64-5.88,6.864C57.6,25.792,60.384,28.312,63.84,28.312Zm-4.08-7.9c.264-2.544,1.9-4.032,3.744-4.032,2.04,0,3.24,1.416,3.24,4.032Zm16.056,7.9a6.319,6.319,0,0,0,4.224-1.656l-.96-1.464a4.6,4.6,0,0,1-3.072,1.3c-2.4,0-4.032-1.992-4.032-4.992s1.728-5.04,4.1-5.04a3.853,3.853,0,0,1,2.592,1.152l1.128-1.44a5.572,5.572,0,0,0-3.816-1.536c-3.336,0-6.288,2.52-6.288,6.864C69.7,25.816,72.36,28.312,75.816,28.312Zm9.72,0a8.2,8.2,0,0,0,2.4-.48L87.5,26.2a4.617,4.617,0,0,1-1.488.336c-1.512,0-2.016-.912-2.016-2.52V16.744h3.528V14.968H84V11.3H82.176l-.264,3.672-2.04.12v1.656h1.944v7.224C81.816,26.56,82.752,28.312,85.536,28.312Zm6.888,0c3.072,0,4.752-1.752,4.752-3.864,0-2.472-2.088-3.24-3.984-3.96-1.464-.552-2.808-1.008-2.808-2.256,0-1.008.768-1.872,2.424-1.872a4.771,4.771,0,0,1,2.952,1.152L96.816,16.1a6.623,6.623,0,0,0-4.032-1.464c-2.832,0-4.512,1.632-4.512,3.7,0,2.208,1.992,3.1,3.816,3.768,1.44.552,2.976,1.128,2.976,2.472,0,1.128-.84,2.04-2.568,2.04a5.911,5.911,0,0,1-3.864-1.536l-1.08,1.44A7.861,7.861,0,0,0,92.424,28.312ZM105.288,28h2.568l1.824-6.984c.336-1.248.6-2.472.888-3.792h.12c.312,1.32.552,2.52.888,3.744l1.9,7.032h2.64l3.5-13.032h-2.064l-1.92,7.536c-.288,1.248-.528,2.424-.816,3.648h-.1c-.312-1.224-.6-2.4-.912-3.648l-2.04-7.536h-2.136L107.616,22.5c-.336,1.224-.6,2.424-.888,3.648h-.12c-.24-1.224-.5-2.4-.768-3.648L103.9,14.968h-2.232Zm15.984,0h2.184V18.544c1.32-1.32,2.232-1.992,3.576-1.992,1.728,0,2.472,1.032,2.472,3.48V28h2.184V19.744c0-3.336-1.248-5.112-3.984-5.112a6.119,6.119,0,0,0-4.32,2.184l.072-2.688V8.9h-2.184Zm13.584,5.616c2.592,0,3.96-1.968,4.848-4.536l4.92-14.112h-2.136l-2.328,7.248c-.36,1.152-.744,2.472-1.1,3.648h-.12c-.408-1.176-.864-2.52-1.248-3.648l-2.664-7.248h-2.28l5.232,13.056-.288.984c-.528,1.608-1.464,2.808-2.952,2.808a3.114,3.114,0,0,1-.984-.216l-.432,1.752A4.012,4.012,0,0,0,134.856,33.616Zm18.672-5.3c3.072,0,4.752-1.752,4.752-3.864,0-2.472-2.088-3.24-3.984-3.96-1.464-.552-2.808-1.008-2.808-2.256,0-1.008.768-1.872,2.424-1.872a4.771,4.771,0,0,1,2.952,1.152L157.92,16.1a6.623,6.623,0,0,0-4.032-1.464c-2.832,0-4.512,1.632-4.512,3.7,0,2.208,1.992,3.1,3.816,3.768,1.44.552,2.976,1.128,2.976,2.472,0,1.128-.84,2.04-2.568,2.04a5.911,5.911,0,0,1-3.864-1.536l-1.08,1.44A7.861,7.861,0,0,0,153.528,28.312Zm10.2,0a8.2,8.2,0,0,0,2.4-.48L165.7,26.2a4.617,4.617,0,0,1-1.488.336c-1.512,0-2.016-.912-2.016-2.52V16.744h3.528V14.968h-3.528V11.3h-1.824l-.264,3.672-2.04.12v1.656h1.944v7.224C160.008,26.56,160.944,28.312,163.728,28.312Zm7.536,0a5.591,5.591,0,0,0,4.32-2.352h.072l.168,2.04h1.824V14.968h-2.184v9.24c-1.248,1.56-2.184,2.208-3.528,2.208-1.728,0-2.448-1.032-2.448-3.456V14.968H167.3v8.256C167.3,26.536,168.528,28.312,171.264,28.312Zm14.016,0a5.813,5.813,0,0,0,3.96-1.848h.072L189.5,28h1.776V8.9h-2.16v5.016l.1,2.256a5.3,5.3,0,0,0-3.672-1.536c-2.976,0-5.64,2.64-5.64,6.864C179.9,25.84,182.016,28.312,185.28,28.312Zm.48-1.824c-2.3,0-3.6-1.872-3.6-5.016,0-2.976,1.656-4.992,3.768-4.992a4.669,4.669,0,0,1,3.192,1.368v6.84A4.561,4.561,0,0,1,185.76,26.488Zm14.016,1.824a7.756,7.756,0,0,0,4.32-1.344l-.792-1.44a5.618,5.618,0,0,1-3.264,1.032c-2.472,0-4.176-1.776-4.32-4.56H204.5a8.526,8.526,0,0,0,.1-1.248c0-3.72-1.872-6.12-5.184-6.12-3.024,0-5.88,2.64-5.88,6.864C193.536,25.792,196.32,28.312,199.776,28.312Zm-4.08-7.9c.264-2.544,1.9-4.032,3.744-4.032,2.04,0,3.24,1.416,3.24,4.032ZM206.616,28H208.8V18.544c1.32-1.32,2.232-1.992,3.576-1.992,1.728,0,2.472,1.032,2.472,3.48V28h2.184V19.744c0-3.336-1.248-5.112-3.984-5.112a6.25,6.25,0,0,0-4.368,2.208h-.072l-.192-1.872h-1.8Zm17.568.312a8.2,8.2,0,0,0,2.4-.48l-.432-1.632a4.617,4.617,0,0,1-1.488.336c-1.512,0-2.016-.912-2.016-2.52V16.744h3.528V14.968h-3.528V11.3h-1.824l-.264,3.672-2.04.12v1.656h1.944v7.224C220.464,26.56,221.4,28.312,224.184,28.312Zm6.888,0c3.072,0,4.752-1.752,4.752-3.864,0-2.472-2.088-3.24-3.984-3.96-1.464-.552-2.808-1.008-2.808-2.256,0-1.008.768-1.872,2.424-1.872a4.771,4.771,0,0,1,2.952,1.152l1.056-1.416a6.623,6.623,0,0,0-4.032-1.464c-2.832,0-4.512,1.632-4.512,3.7,0,2.208,1.992,3.1,3.816,3.768,1.44.552,2.976,1.128,2.976,2.472,0,1.128-.84,2.04-2.568,2.04a5.911,5.911,0,0,1-3.864-1.536l-1.08,1.44A7.861,7.861,0,0,0,231.072,28.312Zm-225.864,28a6.982,6.982,0,0,0,4.32-1.872H9.6L9.792,56h1.8V47.984c0-3.216-1.344-5.352-4.512-5.352a9.8,9.8,0,0,0-5.136,1.7l.864,1.512A7.18,7.18,0,0,1,6.72,44.456c2.136,0,2.688,1.608,2.688,3.288-5.544.624-8.016,2.04-8.016,4.872A3.533,3.533,0,0,0,5.208,56.312Zm.624-1.752c-1.3,0-2.3-.6-2.3-2.088,0-1.68,1.488-2.76,5.88-3.288v3.648A5.326,5.326,0,0,1,5.832,54.56ZM14.544,56h2.184V47.624c.864-2.232,2.208-3,3.288-3a3.083,3.083,0,0,1,1.272.216l.408-1.92a2.778,2.778,0,0,0-1.392-.288c-1.464,0-2.784,1.056-3.7,2.712h-.072l-.192-2.376h-1.8Zm13.1.312a7.757,7.757,0,0,0,4.32-1.344l-.792-1.44a5.618,5.618,0,0,1-3.264,1.032c-2.472,0-4.176-1.776-4.32-4.56h8.784a8.526,8.526,0,0,0,.1-1.248c0-3.72-1.872-6.12-5.184-6.12-3.024,0-5.88,2.64-5.88,6.864C21.408,53.792,24.192,56.312,27.648,56.312Zm-4.08-7.9c.264-2.544,1.9-4.032,3.744-4.032,2.04,0,3.24,1.416,3.24,4.032ZM43.056,62c4.032,0,6.6-2.088,6.6-4.512,0-2.136-1.536-3.1-4.56-3.1H42.552c-1.752,0-2.28-.576-2.28-1.416a1.94,1.94,0,0,1,.84-1.56,4.533,4.533,0,0,0,1.944.456,4.469,4.469,0,0,0,4.752-4.536,3.722,3.722,0,0,0-1.056-2.688h2.664v-1.68H44.88a5.376,5.376,0,0,0-1.824-.336,4.642,4.642,0,0,0-4.9,4.656,4.575,4.575,0,0,0,1.7,3.5v.1A3.18,3.18,0,0,0,38.4,53.312a2.357,2.357,0,0,0,1.2,2.136v.1A3.657,3.657,0,0,0,37.68,58.5C37.68,60.752,39.864,62,43.056,62Zm0-11.616a2.856,2.856,0,0,1-2.784-3.1,2.8,2.8,0,1,1,5.568,0A2.87,2.87,0,0,1,43.056,50.384Zm.312,10.128c-2.352,0-3.768-.912-3.768-2.3A2.716,2.716,0,0,1,40.92,56a7.33,7.33,0,0,0,1.68.216h2.256c1.728,0,2.664.408,2.664,1.608C47.52,59.192,45.864,60.512,43.368,60.512Zm12.5-4.2a7.757,7.757,0,0,0,4.32-1.344l-.792-1.44a5.618,5.618,0,0,1-3.264,1.032c-2.472,0-4.176-1.776-4.32-4.56H60.6a8.526,8.526,0,0,0,.1-1.248c0-3.72-1.872-6.12-5.184-6.12-3.024,0-5.88,2.64-5.88,6.864C49.632,53.792,52.416,56.312,55.872,56.312Zm-4.08-7.9c.264-2.544,1.9-4.032,3.744-4.032,2.04,0,3.24,1.416,3.24,4.032Zm14.76,7.9a8.2,8.2,0,0,0,2.4-.48L68.52,54.2a4.617,4.617,0,0,1-1.488.336c-1.512,0-2.016-.912-2.016-2.52V44.744h3.528V42.968H65.016V39.3H63.192l-.264,3.672-2.04.12v1.656h1.944v7.224C62.832,54.56,63.768,56.312,66.552,56.312Zm7.32,0a8.2,8.2,0,0,0,2.4-.48L75.84,54.2a4.617,4.617,0,0,1-1.488.336c-1.512,0-2.016-.912-2.016-2.52V44.744h3.528V42.968H72.336V39.3H70.512l-.264,3.672-2.04.12v1.656h1.944v7.224C70.152,54.56,71.088,56.312,73.872,56.312ZM77.616,56H79.8V42.968H77.616Zm1.1-15.72a1.44,1.44,0,1,0-1.464-1.464A1.386,1.386,0,0,0,78.72,40.28ZM83.016,56H85.2V46.544c1.32-1.32,2.232-1.992,3.576-1.992,1.728,0,2.472,1.032,2.472,3.48V56h2.184V47.744c0-3.336-1.248-5.112-3.984-5.112A6.25,6.25,0,0,0,85.08,44.84h-.072l-.192-1.872h-1.8Zm17.856,6c4.032,0,6.6-2.088,6.6-4.512,0-2.136-1.536-3.1-4.56-3.1h-2.544c-1.752,0-2.28-.576-2.28-1.416a1.94,1.94,0,0,1,.84-1.56,4.533,4.533,0,0,0,1.944.456,4.469,4.469,0,0,0,4.752-4.536,3.722,3.722,0,0,0-1.056-2.688h2.664v-1.68H102.7a5.376,5.376,0,0,0-1.824-.336,4.642,4.642,0,0,0-4.9,4.656,4.575,4.575,0,0,0,1.7,3.5v.1a3.18,3.18,0,0,0-1.464,2.424,2.357,2.357,0,0,0,1.2,2.136v.1A3.657,3.657,0,0,0,95.5,58.5C95.5,60.752,97.68,62,100.872,62Zm0-11.616a2.856,2.856,0,0,1-2.784-3.1,2.8,2.8,0,1,1,5.568,0A2.87,2.87,0,0,1,100.872,50.384Zm.312,10.128c-2.352,0-3.768-.912-3.768-2.3A2.716,2.716,0,0,1,98.736,56a7.33,7.33,0,0,0,1.68.216h2.256c1.728,0,2.664.408,2.664,1.608C105.336,59.192,103.68,60.512,101.184,60.512Zm15.888-4.2a8.2,8.2,0,0,0,2.4-.48L119.04,54.2a4.617,4.617,0,0,1-1.488.336c-1.512,0-2.016-.912-2.016-2.52V44.744h3.528V42.968h-3.528V39.3h-1.824l-.264,3.672-2.04.12v1.656h1.944v7.224C113.352,54.56,114.288,56.312,117.072,56.312ZM120.816,56H123V46.544c1.32-1.32,2.232-1.992,3.576-1.992,1.728,0,2.472,1.032,2.472,3.48V56h2.184V47.744c0-3.336-1.248-5.112-3.984-5.112a6.119,6.119,0,0,0-4.32,2.184L123,42.128V36.9h-2.184Zm18.624.312a7.756,7.756,0,0,0,4.32-1.344l-.792-1.44A5.618,5.618,0,0,1,139.7,54.56c-2.472,0-4.176-1.776-4.32-4.56h8.784a8.526,8.526,0,0,0,.1-1.248c0-3.72-1.872-6.12-5.184-6.12-3.024,0-5.88,2.64-5.88,6.864C133.2,53.792,135.984,56.312,139.44,56.312Zm-4.08-7.9c.264-2.544,1.9-4.032,3.744-4.032,2.04,0,3.24,1.416,3.24,4.032ZM146.28,56h2.184V46.544c1.2-1.344,2.3-1.992,3.288-1.992,1.656,0,2.424,1.032,2.424,3.48V56h2.184V46.544c1.224-1.344,2.28-1.992,3.288-1.992,1.656,0,2.424,1.032,2.424,3.48V56h2.184V47.744c0-3.336-1.272-5.112-3.96-5.112-1.584,0-2.952,1.032-4.3,2.5a3.437,3.437,0,0,0-3.6-2.5,5.726,5.726,0,0,0-4.056,2.232h-.072l-.192-1.9h-1.8Zm27.264,0h2.568l1.824-6.984c.336-1.248.6-2.472.888-3.792h.12c.312,1.32.552,2.52.888,3.744l1.9,7.032h2.64l3.5-13.032h-2.064l-1.92,7.536c-.288,1.248-.528,2.424-.816,3.648h-.1c-.312-1.224-.6-2.4-.912-3.648l-2.04-7.536h-2.136L175.872,50.5c-.336,1.224-.6,2.424-.888,3.648h-.12c-.24-1.224-.5-2.4-.768-3.648l-1.944-7.536H169.92Zm15.984,0h2.184V47.624c.864-2.232,2.208-3,3.288-3a3.083,3.083,0,0,1,1.272.216l.408-1.92a2.778,2.778,0,0,0-1.392-.288c-1.464,0-2.784,1.056-3.7,2.712h-.072l-.192-2.376h-1.8Zm12.912.312c3.192,0,6.048-2.5,6.048-6.816,0-4.344-2.856-6.864-6.048-6.864s-6.048,2.52-6.048,6.864C196.392,53.816,199.248,56.312,202.44,56.312Zm0-1.824c-2.256,0-3.768-1.992-3.768-4.992s1.512-5.04,3.768-5.04,3.792,2.04,3.792,5.04S204.7,54.488,202.44,54.488ZM210.72,56H212.9V46.544c1.32-1.32,2.232-1.992,3.576-1.992,1.728,0,2.472,1.032,2.472,3.48V56h2.184V47.744c0-3.336-1.248-5.112-3.984-5.112a6.25,6.25,0,0,0-4.368,2.208h-.072l-.192-1.872h-1.8Zm17.856,6c4.032,0,6.6-2.088,6.6-4.512,0-2.136-1.536-3.1-4.56-3.1h-2.544c-1.752,0-2.28-.576-2.28-1.416a1.94,1.94,0,0,1,.84-1.56,4.533,4.533,0,0,0,1.944.456,4.469,4.469,0,0,0,4.752-4.536,3.722,3.722,0,0,0-1.056-2.688h2.664v-1.68H230.4a5.376,5.376,0,0,0-1.824-.336,4.642,4.642,0,0,0-4.9,4.656,4.575,4.575,0,0,0,1.7,3.5v.1a3.18,3.18,0,0,0-1.464,2.424,2.357,2.357,0,0,0,1.2,2.136v.1A3.657,3.657,0,0,0,223.2,58.5C223.2,60.752,225.384,62,228.576,62Zm0-11.616a2.856,2.856,0,0,1-2.784-3.1,2.8,2.8,0,1,1,5.568,0A2.87,2.87,0,0,1,228.576,50.384Zm.312,10.128c-2.352,0-3.768-.912-3.768-2.3A2.716,2.716,0,0,1,226.44,56a7.33,7.33,0,0,0,1.68.216h2.256c1.728,0,2.664.408,2.664,1.608C233.04,59.192,231.384,60.512,228.888,60.512Zm8.736-4.2a1.585,1.585,0,0,0,1.584-1.656,1.588,1.588,0,1,0-3.168,0A1.585,1.585,0,0,0,237.624,56.312Z" transform="translate(57 163.058)" fill="#00c3e1"/><path d="M16.127,0H27.639a16.127,16.127,0,0,1,0,32.253H16.127A16.127,16.127,0,0,1,16.127,0Z" transform="translate(50.274 139.777) rotate(-45)" fill="url(#a)"/><path d="M-8.562-21.63a1.353,1.353,0,0,1,.738.2,1.569,1.569,0,0,1,.541.771l3.69,9.512a.972.972,0,0,1,0,.82.965.965,0,0,1-.59.476,1.469,1.469,0,0,1-.812.033.853.853,0,0,1-.582-.623l-.951-2.624h-4.133l-.968,2.69a.815.815,0,0,1-.549.566,1.354,1.354,0,0,1-.763-.041,1,1,0,0,1-.574-.443.862.862,0,0,1,0-.771l3.69-9.594a1.466,1.466,0,0,1,.533-.771A1.364,1.364,0,0,1-8.562-21.63Zm-.033,2.624q-.131.492-.254.877t-.32.943l-.869,2.378h2.886L-8-17.186q-.213-.574-.336-.984T-8.595-19.006ZM-.51-21.63a1.275,1.275,0,0,1,.738.213.775.775,0,0,1,.312.689v10.053a.775.775,0,0,1-.312.689,1.275,1.275,0,0,1-.738.213,1.275,1.275,0,0,1-.738-.213.775.775,0,0,1-.312-.689V-20.728a.775.775,0,0,1,.312-.689A1.275,1.275,0,0,1-.51-21.63Z" transform="translate(83.421 151.045)" fill="#fff" stroke="#fff" stroke-width="1.5"/><path d="M0,0H41V41H0Z" transform="translate(56.834 115)" fill="#fff" opacity="0"/><path d="M1.568-5.936a3.467,3.467,0,0,0,2.1-3.248c0-1.19-.476-1.89-1.358-1.89A1.1,1.1,0,0,0,1.19-9.9,1.062,1.062,0,0,0,2.31-8.82a.574.574,0,0,0,.154-.014,2.182,2.182,0,0,1-1.372,2ZM6.566.2C8.61.2,9.688-.91,9.688-2.282c0-1.456-1.148-1.974-2.184-2.366C6.678-4.956,5.95-5.166,5.95-5.74c0-.448.336-.756,1.05-.756a2.918,2.918,0,0,1,1.68.672L9.6-7.07a4.346,4.346,0,0,0-2.66-.966c-1.792,0-2.926.994-2.926,2.394,0,1.316,1.106,1.918,2.1,2.3.826.322,1.638.588,1.638,1.176,0,.49-.35.826-1.134.826a3.4,3.4,0,0,1-2.1-.854L3.584-.91A4.973,4.973,0,0,0,6.566.2Zm8.4,0A3.686,3.686,0,0,0,17.332-.84h.056l.14.84h1.68V-4.578c0-2.268-1.022-3.458-3.01-3.458A6.263,6.263,0,0,0,12.922-7l.742,1.358a4.43,4.43,0,0,1,2.156-.742c.966,0,1.3.588,1.344,1.358-3.164.336-4.522,1.218-4.522,2.9A2.227,2.227,0,0,0,14.966.2Zm.672-1.61c-.6,0-1.036-.266-1.036-.882,0-.7.644-1.232,2.562-1.47v1.582A2.13,2.13,0,0,1,15.638-1.414ZM20.608,0h2.058V-5.39a2.2,2.2,0,0,1,1.624-.882c.77,0,1.106.42,1.106,1.638V0h2.058V-4.886c0-1.974-.728-3.15-2.422-3.15A3.613,3.613,0,0,0,22.484-6.8h-.042L22.288-7.84h-1.68ZM30.814.2A3.686,3.686,0,0,0,33.18-.84h.056l.14.84h1.68V-4.578c0-2.268-1.022-3.458-3.01-3.458A6.263,6.263,0,0,0,28.77-7l.742,1.358a4.43,4.43,0,0,1,2.156-.742c.966,0,1.3.588,1.344,1.358-3.164.336-4.522,1.218-4.522,2.9A2.227,2.227,0,0,0,30.814.2Zm.672-1.61c-.6,0-1.036-.266-1.036-.882,0-.7.644-1.232,2.562-1.47v1.582A2.13,2.13,0,0,1,31.486-1.414ZM38.388.2A2.748,2.748,0,0,0,39.452.014L39.2-1.512a1.16,1.16,0,0,1-.28.028c-.2,0-.406-.154-.406-.63v-9.058H36.456V-2.2C36.456-.742,36.96.2,38.388.2ZM40.852,3.15c1.75,0,2.59-1.064,3.276-2.912L46.914-7.84H44.94L43.862-4.2c-.182.728-.378,1.484-.56,2.212h-.07c-.224-.756-.42-1.512-.658-2.212L41.328-7.84H39.256l3.052,7.7-.14.462a1.5,1.5,0,0,1-1.47,1.19,2.108,2.108,0,0,1-.546-.1L39.774,3A3.32,3.32,0,0,0,40.852,3.15ZM49.742.2c2.044,0,3.122-1.106,3.122-2.478,0-1.456-1.148-1.974-2.184-2.366-.826-.308-1.554-.518-1.554-1.092,0-.448.336-.756,1.05-.756a2.918,2.918,0,0,1,1.68.672L52.78-7.07a4.345,4.345,0,0,0-2.66-.966c-1.792,0-2.926.994-2.926,2.394,0,1.316,1.106,1.918,2.1,2.3.826.322,1.638.588,1.638,1.176,0,.49-.35.826-1.134.826A3.4,3.4,0,0,1,47.7-2.2L46.76-.91A4.973,4.973,0,0,0,49.742.2Zm3.99-.2H55.79V-7.84H53.732Zm1.036-9.1a1.1,1.1,0,0,0,1.19-1.134,1.1,1.1,0,0,0-1.19-1.12,1.1,1.1,0,0,0-1.2,1.12A1.107,1.107,0,0,0,54.768-9.1ZM59.528.2C61.572.2,62.65-.91,62.65-2.282c0-1.456-1.148-1.974-2.184-2.366-.826-.308-1.554-.518-1.554-1.092,0-.448.336-.756,1.05-.756a2.918,2.918,0,0,1,1.68.672l.924-1.246a4.345,4.345,0,0,0-2.66-.966c-1.792,0-2.926.994-2.926,2.394,0,1.316,1.106,1.918,2.1,2.3.826.322,1.638.588,1.638,1.176,0,.49-.35.826-1.134.826a3.4,3.4,0,0,1-2.1-.854L56.546-.91A4.973,4.973,0,0,0,59.528.2Zm9.744,0A3.825,3.825,0,0,0,73.038-3.92a3.825,3.825,0,0,0-3.766-4.116A3.825,3.825,0,0,0,65.506-3.92,3.825,3.825,0,0,0,69.272.2Zm0-1.68c-1.064,0-1.666-.952-1.666-2.436s.6-2.436,1.666-2.436,1.666.966,1.666,2.436S70.336-1.484,69.272-1.484ZM74.34,0H76.4V-6.216h1.47V-7.84H76.4v-.672c0-.868.336-1.232.952-1.232a2.232,2.232,0,0,1,.826.168l.378-1.526a4.473,4.473,0,0,0-1.484-.266c-1.974,0-2.73,1.26-2.73,2.9v.644l-1.05.084v1.526h1.05Zm6.636,0h2.058V-7.84H80.976Zm1.036-9.1a1.1,1.1,0,0,0,1.19-1.134,1.1,1.1,0,0,0-1.19-1.12,1.1,1.1,0,0,0-1.2,1.12A1.107,1.107,0,0,0,82.012-9.1ZM84.532,0H86.59V-5.39a2.2,2.2,0,0,1,1.624-.882c.77,0,1.106.42,1.106,1.638V0h2.058V-4.886c0-1.974-.728-3.15-2.422-3.15A3.613,3.613,0,0,0,86.408-6.8h-.042L86.212-7.84h-1.68ZM96.138.2a3.951,3.951,0,0,0,2.576-.952l-.826-1.358a2.435,2.435,0,0,1-1.526.63c-1.12,0-1.946-.952-1.946-2.436s.812-2.436,2.016-2.436a1.784,1.784,0,0,1,1.19.518l.98-1.33a3.427,3.427,0,0,0-2.282-.868,3.911,3.911,0,0,0-4,4.116C92.316-1.316,93.968.2,96.138.2Zm6.2,0a3.825,3.825,0,0,0,3.766-4.116,3.825,3.825,0,0,0-3.766-4.116A3.825,3.825,0,0,0,98.574-3.92,3.825,3.825,0,0,0,102.34.2Zm0-1.68c-1.064,0-1.666-.952-1.666-2.436s.6-2.436,1.666-2.436,1.666.966,1.666,2.436S103.4-1.484,102.34-1.484ZM107.128,0h2.058V-4.676c.434-1.134,1.176-1.54,1.792-1.54a2.619,2.619,0,0,1,.826.126l.35-1.778a2.218,2.218,0,0,0-.924-.168A2.716,2.716,0,0,0,109-6.454h-.042l-.154-1.386h-1.68Zm5.4,0h2.058V-4.676c.434-1.134,1.176-1.54,1.792-1.54a2.619,2.619,0,0,1,.826.126l.35-1.778a2.218,2.218,0,0,0-.924-.168,2.716,2.716,0,0,0-2.226,1.582h-.042l-.154-1.386h-1.68Zm8.652.2a4.936,4.936,0,0,0,2.73-.868l-.7-1.26a3.231,3.231,0,0,1-1.764.546,2.06,2.06,0,0,1-2.17-1.96h4.83a3.869,3.869,0,0,0,.1-.952c0-2.156-1.12-3.738-3.276-3.738a3.842,3.842,0,0,0-3.654,4.116A3.806,3.806,0,0,0,121.184.2Zm-1.932-4.914A1.764,1.764,0,0,1,120.96-6.44c1.008,0,1.484.672,1.484,1.722ZM128.534.2a3.951,3.951,0,0,0,2.576-.952l-.826-1.358a2.435,2.435,0,0,1-1.526.63c-1.12,0-1.946-.952-1.946-2.436s.812-2.436,2.016-2.436a1.784,1.784,0,0,1,1.19.518l.98-1.33a3.428,3.428,0,0,0-2.282-.868,3.911,3.911,0,0,0-4,4.116C124.712-1.316,126.364.2,128.534.2Zm6.048,0A5.067,5.067,0,0,0,136.234-.1L135.9-1.6a2.291,2.291,0,0,1-.77.168c-.7,0-1.064-.42-1.064-1.316V-6.216H136V-7.84h-1.932V-9.954h-1.708l-.238,2.114-1.218.1v1.526h1.106v3.472C132.006-.994,132.72.2,134.582.2Zm6.72,0A3.687,3.687,0,0,0,143.668-.84h.056l.14.84h1.68V-4.578c0-2.268-1.022-3.458-3.01-3.458A6.263,6.263,0,0,0,139.258-7L140-5.642a4.43,4.43,0,0,1,2.156-.742c.966,0,1.3.588,1.344,1.358-3.164.336-4.522,1.218-4.522,2.9A2.227,2.227,0,0,0,141.3.2Zm.672-1.61c-.6,0-1.036-.266-1.036-.882,0-.7.644-1.232,2.562-1.47v1.582A2.13,2.13,0,0,1,141.974-1.414ZM146.944,0H149V-5.39a2.2,2.2,0,0,1,1.624-.882c.77,0,1.106.42,1.106,1.638V0h2.058V-4.886c0-1.974-.728-3.15-2.422-3.15A3.613,3.613,0,0,0,148.82-6.8h-.042l-.154-1.036h-1.68Zm10.514.2C159.5.2,160.58-.91,160.58-2.282c0-1.456-1.148-1.974-2.184-2.366-.826-.308-1.554-.518-1.554-1.092,0-.448.336-.756,1.05-.756a2.919,2.919,0,0,1,1.68.672L160.5-7.07a4.346,4.346,0,0,0-2.66-.966c-1.792,0-2.926.994-2.926,2.394,0,1.316,1.106,1.918,2.1,2.3.826.322,1.638.588,1.638,1.176,0,.49-.35.826-1.134.826a3.4,3.4,0,0,1-2.1-.854L154.476-.91A4.973,4.973,0,0,0,157.458.2ZM162.75,0H165.1l.8-3.416c.168-.728.28-1.456.434-2.282h.07c.154.826.28,1.54.448,2.282L167.678,0H170.1l1.932-7.84h-1.9l-.854,3.864c-.14.77-.252,1.512-.392,2.3h-.07c-.168-.784-.308-1.526-.49-2.3l-.98-3.864h-1.82l-.952,3.864c-.2.756-.336,1.512-.49,2.3h-.056c-.14-.784-.238-1.526-.392-2.3l-.854-3.864H160.72Zm13.384.2a4.936,4.936,0,0,0,2.73-.868l-.7-1.26a3.231,3.231,0,0,1-1.764.546,2.06,2.06,0,0,1-2.17-1.96h4.83a3.869,3.869,0,0,0,.1-.952c0-2.156-1.12-3.738-3.276-3.738a3.842,3.842,0,0,0-3.654,4.116A3.806,3.806,0,0,0,176.134.2ZM174.2-4.718A1.764,1.764,0,0,1,175.91-6.44c1.008,0,1.484.672,1.484,1.722ZM180.152,0h2.058V-4.676c.434-1.134,1.176-1.54,1.792-1.54a2.619,2.619,0,0,1,.826.126l.35-1.778a2.218,2.218,0,0,0-.924-.168,2.716,2.716,0,0,0-2.226,1.582h-.042l-.154-1.386h-1.68Zm7.532.2c2.044,0,3.122-1.106,3.122-2.478,0-1.456-1.148-1.974-2.184-2.366-.826-.308-1.554-.518-1.554-1.092,0-.448.336-.756,1.05-.756a2.919,2.919,0,0,1,1.68.672l.924-1.246a4.346,4.346,0,0,0-2.66-.966c-1.792,0-2.926.994-2.926,2.394,0,1.316,1.106,1.918,2.1,2.3.826.322,1.638.588,1.638,1.176,0,.49-.35.826-1.134.826a3.4,3.4,0,0,1-2.1-.854L184.7-.91A4.973,4.973,0,0,0,187.684.2Z" transform="translate(105 139)" fill="#f5b400"/><rect width="246" height="151" transform="translate(57 115)" fill="none"/></g></svg>