<svg xmlns="http://www.w3.org/2000/svg" width="246" height="47.224" viewBox="0 0 246 47.224"><g transform="translate(-57 -104.584)"><path d="M-102.948,0h1.022V-4.872c0-.756-.085-1.824-.134-2.592h.049l.705,2,1.691,4.572h.754l1.691-4.572.705-2h.049c-.061.768-.146,1.836-.146,2.592V0H-95.5V-8.808h-1.362l-1.7,4.716c-.207.612-.4,1.224-.608,1.836h-.061c-.219-.612-.426-1.224-.632-1.836l-1.715-4.716h-1.362Zm11.117.156A3.562,3.562,0,0,0-89.642-.78h.036l.1.78h.912V-4.008c0-1.608-.681-2.676-2.287-2.676a5.012,5.012,0,0,0-2.6.852l.438.756a3.67,3.67,0,0,1,1.983-.7c1.082,0,1.362.8,1.362,1.644-2.81.312-4.062,1.02-4.062,2.436A1.78,1.78,0,0,0-91.831.156Zm.316-.876c-.657,0-1.168-.3-1.168-1.044,0-.84.754-1.38,2.98-1.644v1.824A2.714,2.714,0,0,1-91.515-.72Zm6.738.876a4.207,4.207,0,0,0,1.216-.24L-83.78-.9a2.367,2.367,0,0,1-.754.168c-.766,0-1.022-.456-1.022-1.26V-5.628h1.788v-.888h-1.788V-8.352h-.924l-.134,1.836-1.034.06v.828h.985v3.612C-86.662-.72-86.188.156-84.777.156ZM-82.454,0h1.107V-4.728a2.522,2.522,0,0,1,1.812-1c.876,0,1.253.516,1.253,1.74V0h1.107V-4.128c0-1.668-.632-2.556-2.019-2.556a3.115,3.115,0,0,0-2.189,1.092l.036-1.344V-9.552h-1.107Zm7.2,2.748h1.107V.54L-74.171-.6a3,3,0,0,0,1.824.756c1.52,0,2.87-1.284,2.87-3.516,0-2-.924-3.324-2.627-3.324a3.545,3.545,0,0,0-2.1.912h-.036l-.1-.744h-.912Zm2.724-3.5a2.578,2.578,0,0,1-1.618-.684V-4.86a2.767,2.767,0,0,1,1.776-.9c1.253,0,1.739.972,1.739,2.412C-70.632-1.728-71.435-.756-72.529-.756ZM-67.9,0h1.107V-6.516H-67.9Zm.559-7.86a.7.7,0,0,0,.742-.732.692.692,0,0,0-.742-.708.692.692,0,0,0-.742.708A.7.7,0,0,0-67.336-7.86ZM-62.483.156a2.962,2.962,0,0,0,2.007-.924h.036l.1.768h.9V-9.552h-1.095v2.508l.049,1.128a2.705,2.705,0,0,0-1.861-.768c-1.508,0-2.858,1.32-2.858,3.432C-65.208-1.08-64.137.156-62.483.156Zm.243-.912c-1.168,0-1.824-.936-1.824-2.508,0-1.488.839-2.5,1.91-2.5a2.383,2.383,0,0,1,1.618.684v3.42A2.321,2.321,0,0,1-62.24-.756ZM-53.787,0h1.3l.924-3.492c.17-.624.3-1.236.45-1.9h.061c.158.66.28,1.26.45,1.872L-49.639,0H-48.3l1.776-6.516h-1.046l-.973,3.768c-.146.624-.268,1.212-.414,1.824h-.049c-.158-.612-.3-1.2-.462-1.824L-50.5-6.516h-1.082l-1.022,3.768c-.17.612-.3,1.212-.45,1.824h-.061c-.122-.612-.255-1.2-.389-1.824l-.985-3.768h-1.131Zm8.526,0h1.107V-6.516h-1.107Zm.559-7.86a.7.7,0,0,0,.742-.732A.692.692,0,0,0-44.7-9.3a.692.692,0,0,0-.742.708A.7.7,0,0,0-44.7-7.86Zm3.77,8.016a1.725,1.725,0,0,0,.645-.1l-.158-.84a.984.984,0,0,1-.231.024c-.17,0-.316-.132-.316-.468V-9.552H-42.1V-1.3C-42.1-.372-41.758.156-40.931.156Zm3.284,0A1.725,1.725,0,0,0-37,.06l-.158-.84a.984.984,0,0,1-.231.024c-.17,0-.316-.132-.316-.468V-9.552h-1.107V-1.3C-38.815-.372-38.474.156-37.647.156ZM-32.989,0h1.107V-4.728a2.522,2.522,0,0,1,1.812-1c.876,0,1.253.516,1.253,1.74V0h1.107V-4.128c0-1.668-.632-2.556-2.019-2.556a3.115,3.115,0,0,0-2.189,1.092l.036-1.344V-9.552h-1.107Zm9.864.156a3.968,3.968,0,0,0,2.189-.672l-.4-.72a2.873,2.873,0,0,1-1.654.516A2.173,2.173,0,0,1-25.181-3h4.451a4.207,4.207,0,0,0,.049-.624c0-1.86-.949-3.06-2.627-3.06a3.168,3.168,0,0,0-2.98,3.432A3.133,3.133,0,0,0-23.125.156Zm-2.068-3.948a2.014,2.014,0,0,1,1.9-2.016c1.034,0,1.642.708,1.642,2.016ZM-18.065.156a1.725,1.725,0,0,0,.645-.1l-.158-.84a.984.984,0,0,1-.231.024c-.17,0-.316-.132-.316-.468V-9.552h-1.107V-1.3C-19.233-.372-18.893.156-18.065.156Zm2.116,2.592h1.107V.54L-14.867-.6a3,3,0,0,0,1.824.756c1.52,0,2.87-1.284,2.87-3.516,0-2-.924-3.324-2.627-3.324a3.545,3.545,0,0,0-2.1.912h-.036l-.1-.744h-.912Zm2.724-3.5a2.578,2.578,0,0,1-1.618-.684V-4.86a2.767,2.767,0,0,1,1.776-.9c1.253,0,1.739.972,1.739,2.412C-11.327-1.728-12.13-.756-13.225-.756Zm7.285,3.564c1.314,0,2.007-.984,2.457-2.268L-.989-6.516H-2.072l-1.18,3.624c-.182.576-.377,1.236-.559,1.824h-.061c-.207-.588-.438-1.26-.632-1.824l-1.35-3.624H-7.01L-4.358.012-4.5.5c-.268.8-.742,1.4-1.5,1.4A1.6,1.6,0,0,1-6.5,1.8l-.219.876A2.058,2.058,0,0,0-5.939,2.808ZM2.623.156A3.128,3.128,0,0,0,5.688-3.252,3.143,3.143,0,0,0,2.623-6.684,3.143,3.143,0,0,0-.442-3.252,3.128,3.128,0,0,0,2.623.156Zm0-.912c-1.143,0-1.91-1-1.91-2.5s.766-2.52,1.91-2.52,1.922,1.02,1.922,2.52S3.766-.756,2.623-.756ZM9.167.156A2.844,2.844,0,0,0,11.356-1.02h.036L11.477,0H12.4V-6.516H11.295V-1.9c-.632.78-1.107,1.1-1.788,1.1-.876,0-1.241-.516-1.241-1.728v-4H7.16v4.128C7.16-.732,7.78.156,9.167.156Zm8.988,0A1.725,1.725,0,0,0,18.8.06l-.158-.84a.984.984,0,0,1-.231.024c-.17,0-.316-.132-.316-.468V-9.552H16.987V-1.3C16.987-.372,17.328.156,18.155.156Zm4.78,0a3.968,3.968,0,0,0,2.189-.672l-.4-.72a2.873,2.873,0,0,1-1.654.516A2.173,2.173,0,0,1,20.879-3h4.451a4.207,4.207,0,0,0,.049-.624c0-1.86-.949-3.06-2.627-3.06a3.168,3.168,0,0,0-2.98,3.432A3.133,3.133,0,0,0,22.935.156ZM20.867-3.792a2.014,2.014,0,0,1,1.9-2.016c1.034,0,1.642.708,1.642,2.016ZM28.152.156A3.562,3.562,0,0,0,30.342-.78h.036l.1.78h.912V-4.008c0-1.608-.681-2.676-2.287-2.676a5.012,5.012,0,0,0-2.6.852l.438.756a3.67,3.67,0,0,1,1.982-.7c1.082,0,1.362.8,1.362,1.644-2.81.312-4.062,1.02-4.062,2.436A1.78,1.78,0,0,0,28.152.156Zm.316-.876c-.657,0-1.168-.3-1.168-1.044,0-.84.754-1.38,2.98-1.644v1.824A2.714,2.714,0,0,1,28.469-.72ZM33.309,0h1.107V-4.188c.438-1.116,1.119-1.5,1.666-1.5a1.582,1.582,0,0,1,.645.108l.207-.96a1.424,1.424,0,0,0-.705-.144,2.279,2.279,0,0,0-1.873,1.356h-.036l-.1-1.188h-.912Zm4.537,0h1.107V-4.728a2.522,2.522,0,0,1,1.812-1c.876,0,1.253.516,1.253,1.74V0h1.107V-4.128c0-1.668-.632-2.556-2.019-2.556a3.182,3.182,0,0,0-2.214,1.1h-.036l-.1-.936h-.912ZM49.157.156A3.562,3.562,0,0,0,51.346-.78h.036l.1.78h.912V-4.008c0-1.608-.681-2.676-2.287-2.676a5.012,5.012,0,0,0-2.6.852l.438.756a3.67,3.67,0,0,1,1.982-.7c1.082,0,1.362.8,1.362,1.644-2.81.312-4.062,1.02-4.062,2.436A1.78,1.78,0,0,0,49.157.156Zm.316-.876c-.657,0-1.168-.3-1.168-1.044,0-.84.754-1.38,2.98-1.644v1.824A2.714,2.714,0,0,1,49.473-.72ZM54.314,0h1.107V-4.188c.438-1.116,1.119-1.5,1.666-1.5a1.582,1.582,0,0,1,.645.108l.207-.96a1.424,1.424,0,0,0-.705-.144A2.279,2.279,0,0,0,55.36-5.328h-.036l-.1-1.188h-.912Zm4.537,0h1.107V-6.516H58.851Zm.559-7.86a.7.7,0,0,0,.742-.732A.692.692,0,0,0,59.41-9.3a.692.692,0,0,0-.742.708A.7.7,0,0,0,59.41-7.86ZM64.093.156a4.207,4.207,0,0,0,1.216-.24L65.09-.9a2.367,2.367,0,0,1-.754.168c-.766,0-1.022-.456-1.022-1.26V-5.628H65.1v-.888H63.314V-8.352H62.39l-.134,1.836-1.034.06v.828h.985v3.612C62.207-.72,62.682.156,64.093.156ZM66.416,0h1.107V-4.728a2.522,2.522,0,0,1,1.812-1c.876,0,1.253.516,1.253,1.74V0h1.107V-4.128c0-1.668-.632-2.556-2.019-2.556a3.115,3.115,0,0,0-2.189,1.092l.036-1.344V-9.552H66.416Zm7.2,0h1.107V-4.728a2.447,2.447,0,0,1,1.666-1c.839,0,1.228.516,1.228,1.74V0h1.107V-4.728a2.447,2.447,0,0,1,1.666-1c.839,0,1.228.516,1.228,1.74V0h1.107V-4.128c0-1.668-.645-2.556-2.007-2.556a3.132,3.132,0,0,0-2.177,1.248,1.74,1.74,0,0,0-1.824-1.248,2.913,2.913,0,0,0-2.055,1.116h-.036l-.1-.948h-.912ZM87.36.156a3.968,3.968,0,0,0,2.189-.672l-.4-.72a2.874,2.874,0,0,1-1.654.516A2.173,2.173,0,0,1,85.3-3h4.451a4.208,4.208,0,0,0,.049-.624c0-1.86-.949-3.06-2.627-3.06A3.168,3.168,0,0,0,84.2-3.252,3.133,3.133,0,0,0,87.36.156ZM85.292-3.792a2.014,2.014,0,0,1,1.9-2.016c1.034,0,1.642.708,1.642,2.016ZM93.2.156a4.207,4.207,0,0,0,1.216-.24L94.195-.9a2.366,2.366,0,0,1-.754.168c-.766,0-1.022-.456-1.022-1.26V-5.628h1.788v-.888H92.419V-8.352h-.924l-.134,1.836-1.034.06v.828h.985v3.612C91.312-.72,91.787.156,93.2.156ZM95.521,0h1.107V-6.516H95.521Zm.559-7.86a.7.7,0,0,0,.742-.732A.692.692,0,0,0,96.08-9.3a.692.692,0,0,0-.742.708A.7.7,0,0,0,96.08-7.86ZM101.286.156a3.226,3.226,0,0,0,2.141-.828L102.94-1.4a2.344,2.344,0,0,1-1.557.648c-1.216,0-2.043-1-2.043-2.5s.876-2.52,2.08-2.52a1.965,1.965,0,0,1,1.314.576l.572-.72a2.843,2.843,0,0,0-1.934-.768,3.191,3.191,0,0,0-3.187,3.432A3.082,3.082,0,0,0,101.286.156Zm3.977,0a.8.8,0,0,0,.8-.828.811.811,0,0,0-.8-.852.811.811,0,0,0-.8.852A.8.8,0,0,0,105.263.156Z" transform="translate(173.917 149)" fill="#323c46"/><path d="M-121.308,0h10.557V-1.9h-8.295V-8.3h6.762v-1.9h-6.762v-5.52h8.027v-1.9h-10.29ZM-99.1,0h2.214V-11.256h2.8v-1.776h-2.8V-15.1c0-1.68.608-2.568,1.873-2.568a4,4,0,0,1,1.508.336l.462-1.656a5.731,5.731,0,0,0-2.189-.432c-2.651,0-3.868,1.656-3.868,4.3v2.088h-5.522v-1.68c0-1.728.754-2.688,2.068-2.688a4.074,4.074,0,0,1,1.776.384l.462-1.68a6.415,6.415,0,0,0-2.408-.456c-2.749,0-4.111,1.68-4.111,4.368v1.752l-1.8.12v1.656h1.8V0h2.214V-11.256H-99.1Zm12.6.312A7.935,7.935,0,0,0-82.12-1.032l-.8-1.44A5.747,5.747,0,0,1-86.231-1.44c-2.505,0-4.233-1.776-4.379-4.56h8.9a8.414,8.414,0,0,0,.1-1.248c0-3.72-1.9-6.12-5.254-6.12-3.065,0-5.96,2.64-5.96,6.864C-92.823-2.208-90,.312-86.5.312Zm-4.135-7.9c.268-2.544,1.922-4.032,3.795-4.032,2.068,0,3.284,1.416,3.284,4.032Zm17.49,7.9a6.453,6.453,0,0,0,4.281-1.656l-.973-1.464a4.689,4.689,0,0,1-3.114,1.3c-2.433,0-4.087-1.992-4.087-4.992s1.751-5.04,4.16-5.04a3.93,3.93,0,0,1,2.627,1.152l1.143-1.44a5.687,5.687,0,0,0-3.868-1.536c-3.381,0-6.373,2.52-6.373,6.864C-79.347-2.184-76.647.312-73.144.312Zm11.068,0a8.414,8.414,0,0,0,2.433-.48L-60.082-1.8a4.733,4.733,0,0,1-1.508.336c-1.532,0-2.043-.912-2.043-2.52v-7.272h3.576v-1.776h-3.576V-16.7h-1.849l-.268,3.672-2.068.12v1.656h1.97v7.224C-65.847-1.44-64.9.312-62.076.312ZM-57.065,0h2.214V-13.032h-2.214Zm1.119-15.72a1.4,1.4,0,0,0,1.484-1.464A1.384,1.384,0,0,0-55.946-18.6a1.384,1.384,0,0,0-1.484,1.416A1.4,1.4,0,0,0-55.946-15.72ZM-47.53,0h2.578l4.695-13.032h-2.189l-2.505,7.416c-.389,1.272-.8,2.616-1.216,3.84h-.1c-.414-1.224-.827-2.568-1.241-3.84l-2.481-7.416H-52.3Zm15.057.312a7.935,7.935,0,0,0,4.379-1.344l-.8-1.44A5.747,5.747,0,0,1-32.205-1.44c-2.505,0-4.233-1.776-4.379-4.56h8.9a8.415,8.415,0,0,0,.1-1.248c0-3.72-1.9-6.12-5.254-6.12-3.065,0-5.96,2.64-5.96,6.864C-38.8-2.208-35.975.312-32.473.312Zm-4.135-7.9c.268-2.544,1.922-4.032,3.795-4.032,2.068,0,3.284,1.416,3.284,4.032Zm14.619,7.9A3.449,3.449,0,0,0-20.7.12l-.316-1.68a1.968,1.968,0,0,1-.462.048c-.341,0-.632-.264-.632-.936V-19.1h-2.214V-2.592C-24.324-.744-23.643.312-21.989.312Zm4.816,5.3c2.627,0,4.014-1.968,4.914-4.536l4.987-14.112H-9.437L-11.8-5.784c-.365,1.152-.754,2.472-1.119,3.648h-.122c-.414-1.176-.876-2.52-1.265-3.648L-17-13.032h-2.311L-14.01.024l-.292.984c-.535,1.608-1.484,2.808-2.992,2.808a3.193,3.193,0,0,1-1-.216l-.438,1.752A4.115,4.115,0,0,0-17.172,5.616ZM-3.793-5.3h1.532l.292-10.176.073-2.5H-4.158l.073,2.5ZM-3.039.312A1.581,1.581,0,0,0-1.434-1.344a1.608,1.608,0,0,0-1.605-1.7,1.623,1.623,0,0,0-1.605,1.7A1.6,1.6,0,0,0-3.039.312ZM8.783,0H19.34V-1.9H11.045V-8.3h6.762v-1.9H11.045v-5.52h8.027v-1.9H8.783ZM30.992,0h2.214V-11.256H36v-1.776h-2.8V-15.1c0-1.68.608-2.568,1.873-2.568a4,4,0,0,1,1.508.336l.462-1.656a5.731,5.731,0,0,0-2.189-.432c-2.651,0-3.868,1.656-3.868,4.3v2.088H25.47v-1.68c0-1.728.754-2.688,2.068-2.688a4.074,4.074,0,0,1,1.776.384l.462-1.68a6.415,6.415,0,0,0-2.408-.456c-2.749,0-4.111,1.68-4.111,4.368v1.752l-1.8.12v1.656h1.8V0H25.47V-11.256h5.522Zm7.565,0H40.77V-13.032H38.557Zm1.095-15.72a1.415,1.415,0,0,0,1.508-1.464A1.4,1.4,0,0,0,39.651-18.6a1.377,1.377,0,0,0-1.46,1.416A1.389,1.389,0,0,0,39.651-15.72ZM50.427.312a6.453,6.453,0,0,0,4.281-1.656l-.973-1.464a4.689,4.689,0,0,1-3.114,1.3c-2.433,0-4.087-1.992-4.087-4.992s1.751-5.04,4.16-5.04a3.93,3.93,0,0,1,2.627,1.152l1.143-1.44A5.687,5.687,0,0,0,50.6-13.368c-3.381,0-6.373,2.52-6.373,6.864C44.224-2.184,46.925.312,50.427.312ZM57.6,0h2.214V-13.032H57.6Zm1.119-15.72a1.4,1.4,0,0,0,1.484-1.464A1.384,1.384,0,0,0,58.722-18.6a1.384,1.384,0,0,0-1.484,1.416A1.4,1.4,0,0,0,58.722-15.72ZM69.62.312A7.935,7.935,0,0,0,74-1.032l-.8-1.44A5.747,5.747,0,0,1,69.887-1.44c-2.505,0-4.233-1.776-4.379-4.56h8.9a8.415,8.415,0,0,0,.1-1.248c0-3.72-1.9-6.12-5.254-6.12-3.065,0-5.96,2.64-5.96,6.864C63.3-2.208,66.117.312,69.62.312Zm-4.135-7.9c.268-2.544,1.922-4.032,3.795-4.032,2.068,0,3.284,1.416,3.284,4.032ZM77.769,0h2.214V-9.456c1.338-1.32,2.262-1.992,3.624-1.992,1.751,0,2.505,1.032,2.505,3.48V0h2.214V-8.256c0-3.336-1.265-5.112-4.038-5.112a6.364,6.364,0,0,0-4.427,2.208h-.073l-.195-1.872H77.769ZM96.791.312a8.414,8.414,0,0,0,2.433-.48L98.786-1.8a4.733,4.733,0,0,1-1.508.336c-1.532,0-2.043-.912-2.043-2.52v-7.272H98.81v-1.776H95.234V-16.7H93.386l-.268,3.672-2.068.12v1.656h1.97v7.224C93.021-1.44,93.969.312,96.791.312Zm7.346,0A3.449,3.449,0,0,0,105.426.12l-.316-1.68a1.968,1.968,0,0,1-.462.048c-.341,0-.632-.264-.632-.936V-19.1H101.8V-2.592C101.8-.744,102.483.312,104.137.312Zm4.816,5.3c2.627,0,4.014-1.968,4.914-4.536l4.987-14.112h-2.165l-2.36,7.248c-.365,1.152-.754,2.472-1.119,3.648h-.122c-.414-1.176-.876-2.52-1.265-3.648l-2.7-7.248h-2.311l5.3,13.056-.292.984c-.535,1.608-1.484,2.808-2.992,2.808a3.193,3.193,0,0,1-1-.216L107.4,5.352A4.115,4.115,0,0,0,108.954,5.616ZM122.332-5.3h1.532l.292-10.176.073-2.5h-2.262l.073,2.5Zm.754,5.616a1.581,1.581,0,0,0,1.605-1.656,1.608,1.608,0,0,0-1.605-1.7,1.623,1.623,0,0,0-1.605,1.7A1.6,1.6,0,0,0,123.087.312Z" transform="translate(178.308 124)" fill="#00c3e1"/></g></svg>