<?xml version="1.0" encoding="UTF-8"?>
<!DOCTYPE svg PUBLIC "-//W3C//DTD SVG 1.1//EN" "http://www.w3.org/Graphics/SVG/1.1/DTD/svg11.dtd">
<svg xmlns="http://www.w3.org/2000/svg" version="1.1" width="720px" height="412px" style="shape-rendering:geometricPrecision; text-rendering:geometricPrecision; image-rendering:optimizeQuality; fill-rule:evenodd; clip-rule:evenodd" xmlns:xlink="http://www.w3.org/1999/xlink">
<g><path style="opacity:0.012" fill="#04aeda" d="M 301.5,9.5 C 331.29,8.90346 360.623,8.90346 389.5,9.5C 392.891,9.64914 396.057,9.31581 399,8.5C 402.158,10.4327 405.491,10.4327 409,8.5C 414.667,9.83333 420.333,9.83333 426,8.5C 426.308,9.30806 426.808,9.97473 427.5,10.5C 432.127,9.18904 436.627,8.52237 441,8.5C 441.691,10.8912 442.691,10.8912 444,8.5C 447.131,9.20612 450.298,9.87279 453.5,10.5C 455.059,9.92644 456.559,9.25978 458,8.5C 460.864,9.57058 464.03,9.57058 467.5,8.5C 469.402,10.1511 471.402,10.4845 473.5,9.5C 492.975,13.6084 503.309,25.2751 504.5,44.5C 504.434,52.8276 504.434,60.8276 504.5,68.5C 503.709,70.6907 503.709,72.6907 504.5,74.5C 504.195,77.414 504.195,80.0807 504.5,82.5C 504.044,92.7109 504.044,102.711 504.5,112.5C 503.942,119.842 503.942,126.509 504.5,132.5C 504.434,140.828 504.434,148.828 504.5,156.5C 504.5,157.833 504.5,159.167 504.5,160.5C 503.609,159.89 502.609,159.557 501.5,159.5C 501.667,119.832 501.5,80.1653 501,40.5C 496.913,20.6398 484.58,10.9732 464,11.5C 395.115,12.3967 326.115,12.3967 257,11.5C 237.384,11.1225 225.384,20.4559 221,39.5C 220.5,54.1629 220.333,68.8295 220.5,83.5C 219.5,83.5 218.5,83.5 217.5,83.5C 217.819,73.5837 217.486,63.7504 216.5,54C 215.687,38.9721 220.02,26.4721 229.5,16.5C 235.212,13.3746 241.212,11.0413 247.5,9.5C 264.709,9.63576 282.709,9.63576 301.5,9.5 Z"/></g>
<g><path style="opacity:0.012" fill="#04aeda" d="M 301.5,9.5 C 300.833,8.16667 300.833,8.16667 301.5,9.5 Z"/></g>
<g><path style="opacity:0.012" fill="#04aeda" d="M 389.5,9.5 C 388.833,8.16667 388.833,8.16667 389.5,9.5 Z"/></g>
<g><path style="opacity:0.027" fill="#07b5da" d="M 501.5,159.5 C 499.621,158.659 497.621,158.325 495.5,158.5C 495.667,116.832 495.5,75.1653 495,33.5C 492.271,22.1043 485.104,15.6043 473.5,14C 398.5,13.3333 323.5,13.3333 248.5,14C 241.715,14.7258 236.048,17.5592 231.5,22.5C 230.833,22.5 230.5,22.8333 230.5,23.5C 229.25,26.0668 228.083,28.7334 227,31.5C 226.5,48.8301 226.333,66.1635 226.5,83.5C 224.389,84.3799 222.389,84.3799 220.5,83.5C 220.333,68.8295 220.5,54.1629 221,39.5C 225.384,20.4559 237.384,11.1225 257,11.5C 326.115,12.3967 395.115,12.3967 464,11.5C 484.58,10.9732 496.913,20.6398 501,40.5C 501.5,80.1653 501.667,119.832 501.5,159.5 Z"/></g>
<g><path style="opacity:0.996" fill="#989ea3" d="M 495.5,158.5 C 495.5,171.167 495.5,183.833 495.5,196.5C 495.5,211.167 495.5,225.833 495.5,240.5C 416.166,240.333 336.833,240.5 257.5,241C 252,242.5 248.5,246 247,251.5C 246.5,260.827 246.334,270.161 246.5,279.5C 239.833,279.5 233.167,279.5 226.5,279.5C 226.5,225.5 226.5,171.5 226.5,117.5C 226.5,106.167 226.5,94.8333 226.5,83.5C 226.333,66.1635 226.5,48.8301 227,31.5C 228.083,28.7334 229.25,26.0668 230.5,23.5C 231.167,23.5 231.5,23.1667 231.5,22.5C 236.048,17.5592 241.715,14.7258 248.5,14C 323.5,13.3333 398.5,13.3333 473.5,14C 485.104,15.6043 492.271,22.1043 495,33.5C 495.5,75.1653 495.667,116.832 495.5,158.5 Z"/></g>
<g><path style="opacity:1" fill="#386388" d="M 361.5,33.5 C 363.665,33.1159 365.332,33.7826 366.5,35.5C 364.722,35.5693 362.889,35.9026 361,36.5C 360.242,38.7695 360.409,40.9361 361.5,43C 363.445,42.8718 365.278,43.0385 367,43.5C 368.109,41.1853 369.943,39.6853 372.5,39C 367.441,38.5579 367.274,37.7246 372,36.5C 373.107,36.5852 374.107,36.9186 375,37.5C 375.818,40.2272 375.652,42.8938 374.5,45.5C 370.005,44.6561 365.338,44.4894 360.5,45C 356.376,40.6949 356.709,36.8615 361.5,33.5 Z"/></g>
<g><path style="opacity:0.233" fill="#05bfe1" d="M 158.5,34.5 C 177.467,32.968 186.301,41.6346 185,60.5C 181.882,69.5707 175.548,74.9041 166,76.5C 152.468,73.9774 144.968,66.1441 143.5,53C 145.801,44.543 150.801,38.3763 158.5,34.5 Z"/></g>
<g><path style="opacity:1" fill="#2d5d85" d="M 337.5,38.5 C 338.975,33.9795 340.975,33.6462 343.5,37.5C 340.767,40.0707 340.934,42.404 344,44.5C 344.499,40.5138 344.666,36.5138 344.5,32.5C 345.5,32.5 346.5,32.5 347.5,32.5C 347.34,34.1992 347.506,35.8659 348,37.5C 349.333,36.1667 350.667,36.1667 352,37.5C 352.818,40.2272 352.652,42.8938 351.5,45.5C 350.526,43.2573 350.192,40.924 350.5,38.5C 349.5,38.5 348.5,38.5 347.5,38.5C 347.5,40.8333 347.5,43.1667 347.5,45.5C 345.143,45.6633 342.81,45.4966 340.5,45C 340.141,42.3695 339.141,40.2029 337.5,38.5 Z"/></g>
<g><path style="opacity:1" fill="#3a6488" d="M 337.5,38.5 C 337.5,40.8333 337.5,43.1667 337.5,45.5C 335.143,45.6633 332.81,45.4966 330.5,45C 329.978,44.4387 329.645,43.772 329.5,43C 330.52,40.9743 332.187,39.6409 334.5,39C 333.062,38.7811 331.729,38.2811 330.5,37.5C 333.1,36.1544 335.433,36.4877 337.5,38.5 Z"/></g>
<g><path style="opacity:1" fill="#305f86" d="M 377.5,36.5 C 381.388,36.9335 385.388,37.1002 389.5,37C 390.444,39.7191 390.777,42.5525 390.5,45.5C 389.5,45.5 388.5,45.5 387.5,45.5C 386.938,36.4304 385.605,36.4304 383.5,45.5C 382.041,36.3897 380.374,36.3897 378.5,45.5C 377.516,42.5719 377.183,39.5719 377.5,36.5 Z"/></g>
<g><path style="opacity:1" fill="#3b6489" d="M 393.5,36.5 C 397.512,35.8874 399.512,37.5541 399.5,41.5C 393.627,41.5981 393.294,42.5981 398.5,44.5C 391.409,45.5311 389.742,42.8644 393.5,36.5 Z"/></g>
<g><path style="opacity:1" fill="#265a83" d="M 401.5,36.5 C 403.225,37.278 404.891,37.6114 406.5,37.5C 405.758,38.2868 404.925,38.9535 404,39.5C 403.808,41.5767 403.308,43.5767 402.5,45.5C 401.516,42.5719 401.183,39.5719 401.5,36.5 Z"/></g>
<g><path style="opacity:1" fill="#396488" d="M 408.5,36.5 C 410.467,36.2606 412.301,36.5939 414,37.5C 414.818,40.2272 414.652,42.8938 413.5,45.5C 411.398,45.5207 409.232,45.1874 407,44.5C 406.333,43.5 406.333,42.5 407,41.5C 408.419,40.5399 409.919,39.7065 411.5,39C 410.167,38.6667 408.833,38.3333 407.5,38C 408.056,37.6174 408.389,37.1174 408.5,36.5 Z"/></g>
<g><path style="opacity:0.996" fill="#eff0f2" d="M 244.5,36.5 C 246.858,37.1136 249.192,37.4469 251.5,37.5C 249.078,39.0478 249.078,40.7145 251.5,42.5C 248.897,42.6796 246.231,42.6796 243.5,42.5C 244.167,41.5 244.833,40.5 245.5,39.5C 244.873,38.5832 244.539,37.5832 244.5,36.5 Z"/></g>
<g><path style="opacity:1" fill="#346187" d="M 316.5,33.5 C 319.888,33.8739 321.722,35.8739 322,39.5C 323.663,37.8421 324.496,35.8421 324.5,33.5C 325.5,33.5 326.5,33.5 327.5,33.5C 327.824,37.5546 327.491,41.5546 326.5,45.5C 325.692,43.5767 325.192,41.5767 325,39.5C 323.753,45.3454 322.087,45.6788 320,40.5C 319.506,42.1341 319.34,43.8008 319.5,45.5C 318.5,45.5 317.5,45.5 316.5,45.5C 316.5,41.5 316.5,37.5 316.5,33.5 Z"/></g>
<g><path style="opacity:0.012" fill="#04aeda" d="M 504.5,43.5 C 505.833,44.1667 505.833,44.1667 504.5,43.5 Z"/></g>
<g><path style="opacity:0.996" fill="#bfc2c6" d="M 309.5,59.5 C 347.167,59.5 384.833,59.5 422.5,59.5C 423.234,60.7079 423.567,62.0413 423.5,63.5C 385.344,61.1682 347.011,60.8349 308.5,62.5C 308.557,61.391 308.89,60.391 309.5,59.5 Z"/></g>
<g><path style="opacity:1" fill="#34c2db" d="M 309.5,59.5 C 308.89,60.391 308.557,61.391 308.5,62.5C 303.833,62.5 299.167,62.5 294.5,62.5C 294.5,67.1667 294.5,71.8333 294.5,76.5C 293.167,76.5 291.833,76.5 290.5,76.5C 289.883,76.3893 289.383,76.056 289,75.5C 288.091,69.3877 288.424,63.3877 290,57.5C 290.75,56.8742 291.584,56.3742 292.5,56C 297.823,55.5006 303.156,55.334 308.5,55.5C 308.232,57.099 308.566,58.4324 309.5,59.5 Z"/></g>
<g><path style="opacity:1" fill="#3abed6" d="M 441.5,77.5 C 440.167,77.5 438.833,77.5 437.5,77.5C 437.5,72.8333 437.5,68.1667 437.5,63.5C 432.833,63.5 428.167,63.5 423.5,63.5C 423.567,62.0413 423.234,60.7079 422.5,59.5C 422.414,58.5041 422.748,57.6708 423.5,57C 440.89,52.6452 447.557,59.1452 443.5,76.5C 442.817,76.8627 442.15,77.1961 441.5,77.5 Z"/></g>
<g><path style="opacity:0.996" fill="#dcdddf" d="M 423.5,63.5 C 428.167,63.5 432.833,63.5 437.5,63.5C 437.5,68.1667 437.5,72.8333 437.5,77.5C 438.833,77.5 440.167,77.5 441.5,77.5C 441.5,122.5 441.5,167.5 441.5,212.5C 440.167,212.5 438.833,212.5 437.5,212.5C 437.5,217.167 437.5,221.833 437.5,226.5C 432.637,226.181 427.97,226.514 423.5,227.5C 422.711,227.783 422.044,228.283 421.5,229C 384.331,229.167 347.331,229.667 310.5,230.5C 310.167,230.5 309.833,230.5 309.5,230.5C 309.461,229.417 309.127,228.417 308.5,227.5C 303.88,226.507 299.214,226.173 294.5,226.5C 294.5,221.833 294.5,217.167 294.5,212.5C 293.167,212.5 291.833,212.5 290.5,212.5C 290.5,167.167 290.5,121.833 290.5,76.5C 291.833,76.5 293.167,76.5 294.5,76.5C 294.5,71.8333 294.5,67.1667 294.5,62.5C 299.167,62.5 303.833,62.5 308.5,62.5C 347.011,60.8349 385.344,61.1682 423.5,63.5 Z"/></g>
<g><path style="opacity:0.012" fill="#04aeda" d="M 504.5,63.5 C 505.833,64.1667 505.833,64.1667 504.5,63.5 Z"/></g>
<g><path style="opacity:0.012" fill="#04aeda" d="M 504.5,67.5 C 505.833,68.1667 505.833,68.1667 504.5,67.5 Z"/></g>
<g><path style="opacity:0.012" fill="#04aeda" d="M 215.5,72.5 C 216.833,73.1667 216.833,73.1667 215.5,72.5 Z"/></g>
<g><path style="opacity:0.012" fill="#04aeda" d="M 504.5,73.5 C 505.833,74.1667 505.833,74.1667 504.5,73.5 Z"/></g>
<g><path style="opacity:0.012" fill="#04aeda" d="M 215.5,74.5 C 216.833,75.1667 216.833,75.1667 215.5,74.5 Z"/></g>
<g><path style="opacity:0.012" fill="#04aeda" d="M 504.5,81.5 C 505.833,82.1667 505.833,82.1667 504.5,81.5 Z"/></g>
<g><path style="opacity:0.18" fill="#80ecfd" d="M 217.5,83.5 C 218.5,83.5 219.5,83.5 220.5,83.5C 222.389,84.3799 224.389,84.3799 226.5,83.5C 226.5,94.8333 226.5,106.167 226.5,117.5C 223.761,116.777 221.094,117.11 218.5,118.5C 218.167,118.5 217.833,118.5 217.5,118.5C 185.221,122.491 152.221,126.491 118.5,130.5C 105.678,128.857 99.6778,121.691 100.5,109C 102.526,102.974 106.526,98.9739 112.5,97C 147.469,92.2538 182.469,87.7538 217.5,83.5 Z"/></g>
<g><path style="opacity:0.012" fill="#04aeda" d="M 504.5,95.5 C 505.833,96.1667 505.833,96.1667 504.5,95.5 Z"/></g>
<g><path style="opacity:0.996" fill="#524e52" d="M 375.5,106.5 C 376.833,106.5 378.167,106.5 379.5,106.5C 379.5,115.5 379.5,124.5 379.5,133.5C 378.167,133.5 376.833,133.5 375.5,133.5C 375.5,124.5 375.5,115.5 375.5,106.5 Z"/></g>
<g><path style="opacity:0.012" fill="#04aeda" d="M 504.5,109.5 C 505.833,110.167 505.833,110.167 504.5,109.5 Z"/></g>
<g><path style="opacity:0.012" fill="#04aeda" d="M 504.5,111.5 C 505.833,112.167 505.833,112.167 504.5,111.5 Z"/></g>
<g><path style="opacity:0.996" fill="#656972" d="M 274.5,112.5 C 278.724,112.052 280.391,113.719 279.5,117.5C 277.593,115.24 275.593,115.073 273.5,117C 279.189,117.882 281.189,121.049 279.5,126.5C 276.06,128.125 273.227,127.458 271,124.5C 269.593,119.643 270.76,115.643 274.5,112.5 Z"/></g>
<g><path style="opacity:0.996" fill="#646972" d="M 283.5,112.5 C 288.378,117.416 288.711,122.749 284.5,128.5C 283.89,125.699 284.224,122.865 285.5,120C 284.521,117.567 283.855,115.067 283.5,112.5 Z"/></g>
<g><path style="opacity:0.996" fill="#514c4f" d="M 405.5,128.5 C 405.029,129.901 404.362,131.234 403.5,132.5C 403.167,132.167 402.833,131.833 402.5,131.5C 403.393,128.916 403.726,126.249 403.5,123.5C 395.344,124.179 391.844,120.512 393,112.5C 394.049,110.382 395.549,108.716 397.5,107.5C 401.797,106.488 406.13,106.488 410.5,107.5C 408.99,114.541 407.323,121.541 405.5,128.5 Z"/></g>
<g><path style="opacity:0.996" fill="#c7cace" d="M 399.5,108.5 C 403.145,107.68 405.478,109.013 406.5,112.5C 405.811,114.444 405.311,116.444 405,118.5C 397.929,122.42 394.929,120.42 396,112.5C 397.376,111.295 398.542,109.962 399.5,108.5 Z"/></g>
<g><path style="opacity:0.996" fill="#656b75" d="M 265.5,112.5 C 266.239,112.369 266.906,112.536 267.5,113C 266.412,118.16 266.246,123.327 267,128.5C 262.95,123.541 262.45,118.207 265.5,112.5 Z"/></g>
<g><path style="opacity:0.012" fill="#04aeda" d="M 217.5,118.5 C 217.833,118.5 218.167,118.5 218.5,118.5C 220.176,127.69 221.176,137.19 221.5,147C 220.833,161.667 220.167,176.333 219.5,191C 219.962,205.516 220.629,220.183 221.5,235C 220.833,239.333 220.167,243.667 219.5,248C 220.201,261.975 220.201,275.641 219.5,289C 220.167,300.333 220.833,311.667 221.5,323C 220.833,327.333 220.167,331.667 219.5,336C 220.297,360.925 220.63,386.091 220.5,411.5C 219.5,411.5 218.5,411.5 217.5,411.5C 217.362,313.847 217.362,216.18 217.5,118.5 Z"/></g>
<g><path style="opacity:1" fill="#9cadb9" d="M 405.5,128.5 C 407.323,121.541 408.99,114.541 410.5,107.5C 406.13,106.488 401.797,106.488 397.5,107.5C 397.611,106.883 397.944,106.383 398.5,106C 402.848,105.585 407.181,105.751 411.5,106.5C 411.31,113.664 410.143,120.664 408,127.5C 407.329,128.252 406.496,128.586 405.5,128.5 Z"/></g>
<g><path style="opacity:0.259" fill="#81eefe" d="M 518.5,255.5 C 517.582,248.961 514.249,244.295 508.5,241.5C 510.163,228.938 513.497,216.438 518.5,204C 514.583,202.415 510.583,200.915 506.5,199.5C 505.817,199.863 505.15,200.196 504.5,200.5C 504.672,199.508 504.338,198.842 503.5,198.5C 500.888,197.629 498.221,196.963 495.5,196.5C 495.5,183.833 495.5,171.167 495.5,158.5C 497.621,158.325 499.621,158.659 501.5,159.5C 502.609,159.557 503.609,159.89 504.5,160.5C 512.577,162.52 520.577,164.853 528.5,167.5C 532.414,156.259 536.247,144.925 540,133.5C 549.076,122.949 559.076,121.949 570,130.5C 574.073,135.859 575.406,141.859 574,148.5C 571.026,158.423 567.859,168.256 564.5,178C 576.197,181.788 587.864,185.788 599.5,190C 606.564,195.523 609.064,202.69 607,211.5C 603.683,219.496 597.683,223.83 589,224.5C 577.459,221.392 565.625,218.059 553.5,214.5C 550.826,224.193 547.993,233.859 545,243.5C 539.815,255.508 530.982,259.508 518.5,255.5 Z"/></g>
<g><path style="opacity:0.012" fill="#04aeda" d="M 504.5,131.5 C 505.833,132.167 505.833,132.167 504.5,131.5 Z"/></g>
<g><path style="opacity:0.234" fill="#06bfe1" d="M 171.5,136.5 C 185.462,134.311 194.295,139.978 198,153.5C 197.662,168.804 190.329,177.137 176,178.5C 159.01,173.458 153.343,162.792 159,146.5C 162.231,141.825 166.397,138.492 171.5,136.5 Z"/></g>
<g><path style="opacity:0.996" fill="#b9bec3" d="M 410.5,177.5 C 407.102,177.82 403.768,177.487 400.5,176.5C 404.238,172.931 407.404,168.931 410,164.5C 412.394,155.229 408.894,151.395 399.5,153C 396.444,154.988 394.777,157.822 394.5,161.5C 393.182,158.435 393.182,155.269 394.5,152C 399.5,151.333 404.5,151.333 409.5,152C 410,152.5 410.5,153 411,153.5C 411.232,157.555 411.732,161.555 412.5,165.5C 409.081,168.767 405.747,172.267 402.5,176C 405.365,176.183 408.031,176.683 410.5,177.5 Z"/></g>
<g><path style="opacity:0.012" fill="#04aeda" d="M 504.5,151.5 C 505.833,152.167 505.833,152.167 504.5,151.5 Z"/></g>
<g><path style="opacity:0.012" fill="#04aeda" d="M 504.5,155.5 C 505.833,156.167 505.833,156.167 504.5,155.5 Z"/></g>
<g><path style="opacity:0.012" fill="#04aeda" d="M 215.5,160.5 C 216.833,161.167 216.833,161.167 215.5,160.5 Z"/></g>
<g><path style="opacity:0.012" fill="#04aeda" d="M 215.5,162.5 C 216.833,163.167 216.833,163.167 215.5,162.5 Z"/></g>
<g><path style="opacity:0.996" fill="#9f9187" d="M 405.5,155.5 C 406.117,155.611 406.617,155.944 407,156.5C 408.461,161.716 407.295,166.05 403.5,169.5C 404.779,166.605 405.779,163.605 406.5,160.5C 406.272,158.793 405.938,157.126 405.5,155.5 Z"/></g>
<g><path style="opacity:0.996" fill="#8e8f92" d="M 324.5,155.5 C 325.5,155.5 326.5,155.5 327.5,155.5C 327.335,158.85 327.502,162.183 328,165.5C 341.995,167.214 341.828,168.214 327.5,168.5C 327.214,182.828 326.214,182.995 324.5,169C 320.848,168.501 317.182,168.335 313.5,168.5C 313.5,167.5 313.5,166.5 313.5,165.5C 317.167,165.5 320.833,165.5 324.5,165.5C 324.5,162.167 324.5,158.833 324.5,155.5 Z"/></g>
<g><path style="opacity:0.996" fill="#48464c" d="M 410.5,177.5 C 410.833,177.5 411.167,177.5 411.5,177.5C 408.913,178.816 405.913,179.483 402.5,179.5C 399.314,179.498 396.314,179.165 393.5,178.5C 396.751,175.519 400.085,172.519 403.5,169.5C 407.295,166.05 408.461,161.716 407,156.5C 406.617,155.944 406.117,155.611 405.5,155.5C 403.473,155.338 401.473,155.505 399.5,156C 397.746,157.936 396.079,159.77 394.5,161.5C 394.777,157.822 396.444,154.988 399.5,153C 408.894,151.395 412.394,155.229 410,164.5C 407.404,168.931 404.238,172.931 400.5,176.5C 403.768,177.487 407.102,177.82 410.5,177.5 Z"/></g>
<g><path style="opacity:0.996" fill="#a8abaf" d="M 411.5,177.5 C 412.791,178.542 412.791,179.708 411.5,181C 405.175,181.5 398.842,181.666 392.5,181.5C 392.263,180.209 392.596,179.209 393.5,178.5C 396.314,179.165 399.314,179.498 402.5,179.5C 405.913,179.483 408.913,178.816 411.5,177.5 Z"/></g>
<g><path style="opacity:0.996" fill="#8e8d90" d="M 306.5,188.5 C 345.506,188.167 384.506,188.5 423.5,189.5C 404,189.833 384.5,190.167 365,190.5C 345.155,190.5 325.655,189.833 306.5,188.5 Z"/></g>
<g><path style="opacity:0.055" fill="#07b6db" d="M 495.5,196.5 C 498.221,196.963 500.888,197.629 503.5,198.5C 503.328,199.492 503.662,200.158 504.5,200.5C 503.883,213.553 503.549,226.886 503.5,240.5C 500.833,240.5 498.167,240.5 495.5,240.5C 495.5,225.833 495.5,211.167 495.5,196.5 Z"/></g>
<g><path style="opacity:0.992" fill="#35bed6" d="M 441.5,212.5 C 442.117,212.611 442.617,212.944 443,213.5C 446.924,231.408 440.091,237.742 422.5,232.5C 422.629,230.784 422.962,229.117 423.5,227.5C 427.97,226.514 432.637,226.181 437.5,226.5C 437.5,221.833 437.5,217.167 437.5,212.5C 438.833,212.5 440.167,212.5 441.5,212.5 Z"/></g>
<g><path style="opacity:1" fill="#3ac1d9" d="M 290.5,212.5 C 291.833,212.5 293.167,212.5 294.5,212.5C 294.5,217.167 294.5,221.833 294.5,226.5C 299.214,226.173 303.88,226.507 308.5,227.5C 309.127,228.417 309.461,229.417 309.5,230.5C 308.596,231.209 308.263,232.209 308.5,233.5C 303.156,233.666 297.823,233.499 292.5,233C 291.376,232.751 290.376,232.251 289.5,231.5C 288.376,225.552 288.21,219.552 289,213.5C 289.383,212.944 289.883,212.611 290.5,212.5 Z"/></g>
<g><path style="opacity:0.996" fill="#abafb3" d="M 423.5,227.5 C 422.962,229.117 422.629,230.784 422.5,232.5C 386.259,231.592 350.092,231.592 314,232.5C 312.698,231.915 311.531,231.249 310.5,230.5C 347.331,229.667 384.331,229.167 421.5,229C 422.044,228.283 422.711,227.783 423.5,227.5 Z"/></g>
<g><path style="opacity:1" fill="#12c3e0" d="M 495.5,240.5 C 498.167,240.5 500.833,240.5 503.5,240.5C 505.292,240.366 506.958,240.699 508.5,241.5C 514.249,244.295 517.582,248.961 518.5,255.5C 518.667,274.836 518.5,294.17 518,313.5C 517.262,316.648 515.762,319.315 513.5,321.5C 512.21,322.058 511.377,323.058 511,324.5C 508.842,324.605 506.675,324.605 504.5,324.5C 501.5,324.5 498.5,324.5 495.5,324.5C 493.143,324.663 490.81,324.497 488.5,324C 484.008,321.002 479.675,317.835 475.5,314.5C 473.06,303.734 466.727,297.068 456.5,294.5C 461.419,297.557 465.919,301.224 470,305.5C 470.791,306.745 471.291,308.078 471.5,309.5C 467.279,304.795 462.279,300.962 456.5,298C 446.874,296.802 437.207,295.968 427.5,295.5C 427.369,294.624 427.702,293.957 428.5,293.5C 432.144,294.025 431.81,293.358 427.5,291.5C 426.478,291.855 425.811,292.522 425.5,293.5C 423.799,293.966 422.299,293.966 421,293.5C 420.56,296.221 420.726,299.054 421.5,302C 419.263,305.114 416.597,307.781 413.5,310C 414.634,311.016 414.301,311.683 412.5,312C 413.634,313.016 413.301,313.683 411.5,314C 411.833,314.333 412.167,314.667 412.5,315C 408.931,321.092 406.597,320.592 405.5,313.5C 404.5,313.5 403.5,313.5 402.5,313.5C 402.5,317.167 402.5,320.833 402.5,324.5C 386.5,324.5 370.5,324.5 354.5,324.5C 354.167,324.5 353.833,324.5 353.5,324.5C 349.5,324.5 345.5,324.5 341.5,324.5C 341.167,324.5 340.833,324.5 340.5,324.5C 312.165,324.667 283.831,324.5 255.5,324C 252,321.833 249.167,319 247,315.5C 246.5,303.505 246.333,291.505 246.5,279.5C 246.334,270.161 246.5,260.827 247,251.5C 248.5,246 252,242.5 257.5,241C 336.833,240.5 416.166,240.333 495.5,240.5 Z"/></g>
<g><path style="opacity:0.012" fill="#04aeda" d="M 215.5,248.5 C 216.833,249.167 216.833,249.167 215.5,248.5 Z"/></g>
<g><path style="opacity:0.012" fill="#04aeda" d="M 215.5,250.5 C 216.833,251.167 216.833,251.167 215.5,250.5 Z"/></g>
<g><path style="opacity:1" fill="#cdf4fa" d="M 350.5,267.5 C 351.201,270.563 351.868,273.73 352.5,277C 352.167,277.167 351.833,277.333 351.5,277.5C 350.513,274.232 350.18,270.898 350.5,267.5 Z"/></g>
<g><path style="opacity:1" fill="#9ee4f1" d="M 389.5,267.5 C 390.404,268.209 390.737,269.209 390.5,270.5C 394.841,270.519 396.175,272.519 394.5,276.5C 392.955,277.452 391.288,277.785 389.5,277.5C 389.5,274.167 389.5,270.833 389.5,267.5 Z"/></g>
<g><path style="opacity:1" fill="#edfafc" d="M 463.5,269.5 C 463.98,272.166 464.98,274.666 466.5,277C 465.552,277.483 464.552,277.649 463.5,277.5C 463.5,274.833 463.5,272.167 463.5,269.5 Z"/></g>
<g><path style="opacity:1" fill="#abe9f3" d="M 285.5,270.5 C 288.5,270.167 289.833,271.5 289.5,274.5C 284.407,274.612 284.407,275.445 289.5,277C 284.57,277.427 283.237,275.26 285.5,270.5 Z"/></g>
<g><path style="opacity:1" fill="#c8f2f9" d="M 341.5,271.5 C 342.189,270.226 343.023,270.226 344,271.5C 344.667,273.5 344.667,275.5 344,277.5C 343.963,275.026 343.13,273.026 341.5,271.5 Z"/></g>
<g><path style="opacity:1" fill="#caf2f9" d="M 341.5,271.5 C 340.815,273.414 340.315,275.414 340,277.5C 339.907,274.993 339.074,272.826 337.5,271C 338.819,270.805 340.153,270.972 341.5,271.5 Z"/></g>
<g><path style="opacity:1" fill="#7edcec" d="M 407.5,270.5 C 410.518,270.335 413.518,270.502 416.5,271C 417,271.5 417.5,272 418,272.5C 419.555,270.485 421.389,270.152 423.5,271.5C 422.603,271.669 421.603,272.002 420.5,272.5C 422.68,274.09 425.013,275.424 427.5,276.5C 423.893,277.489 420.226,277.823 416.5,277.5C 416.5,275.833 416.5,274.167 416.5,272.5C 415.5,272.5 414.5,272.5 413.5,272.5C 413.093,279.049 412.093,279.049 410.5,272.5C 409.833,274.167 409.167,275.833 408.5,277.5C 407.526,275.257 407.192,272.924 407.5,270.5 Z"/></g>
<g><path style="opacity:1" fill="#b5ecf5" d="M 277.5,268.5 C 278.935,269.79 279.935,271.456 280.5,273.5C 281.281,272.271 281.781,270.938 282,269.5C 282.667,271.833 282.667,274.167 282,276.5C 281.586,276.957 281.086,277.291 280.5,277.5C 279.376,275.631 278.543,273.631 278,271.5C 277.767,273.78 276.934,275.78 275.5,277.5C 274.034,274.979 273.534,272.312 274,269.5C 275.731,274.705 276.898,274.372 277.5,268.5 Z"/></g>
<g><path style="opacity:1" fill="#9be3f0" d="M 294.5,267.5 C 295.404,268.209 295.737,269.209 295.5,270.5C 300.378,270.535 301.711,272.868 299.5,277.5C 298.167,270.833 296.833,270.833 295.5,277.5C 294.513,274.232 294.18,270.898 294.5,267.5 Z"/></g>
<g><path style="opacity:1" fill="#a3e7f2" d="M 302.5,270.5 C 304.144,270.286 305.644,270.62 307,271.5C 307.495,273.473 307.662,275.473 307.5,277.5C 300.693,277.578 300.026,275.911 305.5,272.5C 304.726,271.289 303.893,271.289 303,272.5C 302.536,271.906 302.369,271.239 302.5,270.5 Z"/></g>
<g><path style="opacity:1" fill="#a6e7f2" d="M 354.5,270.5 C 356.144,270.286 357.644,270.62 359,271.5C 359.495,273.473 359.662,275.473 359.5,277.5C 352.693,277.578 352.026,275.911 357.5,272.5C 356.726,271.289 355.893,271.289 355,272.5C 354.536,271.906 354.369,271.239 354.5,270.5 Z"/></g>
<g><path style="opacity:1" fill="#aceaf4" d="M 317.5,270.5 C 320.5,270.167 321.833,271.5 321.5,274.5C 317.029,274.672 316.696,275.506 320.5,277C 315.148,277.175 314.148,275.009 317.5,270.5 Z"/></g>
<g><path style="opacity:1" fill="#83dded" d="M 401.5,270.5 C 405.803,270.735 407.47,273.069 406.5,277.5C 401.144,277.786 399.477,275.452 401.5,270.5 Z"/></g>
<g><path style="opacity:1" fill="#a5e8f3" d="M 467.5,270.5 C 469.527,270.338 471.527,270.505 473.5,271C 474.289,274.097 475.456,274.264 477,271.5C 477.198,274.578 476.365,277.412 474.5,280C 473.833,280.667 473.167,280.667 472.5,280C 474.831,277.21 474.664,274.376 472,271.5C 470.255,273.089 469.088,275.089 468.5,277.5C 467.526,275.257 467.192,272.924 467.5,270.5 Z"/></g>
<g><path style="opacity:1" fill="#c3f0f7" d="M 382.5,272.5 C 383.204,270.656 384.537,270.156 386.5,271C 388.678,275.623 387.344,277.623 382.5,277C 381.199,275.384 381.199,273.884 382.5,272.5 Z"/></g>
<g><path style="opacity:1" fill="#47cee6" d="M 382.5,272.5 C 385.57,271.064 386.737,272.064 386,275.5C 383.342,276.694 382.176,275.694 382.5,272.5 Z"/></g>
<g><path style="opacity:1" fill="#91e1ef" d="M 432.5,268.5 C 433.468,270.607 433.802,272.941 433.5,275.5C 434.833,275.5 436.167,275.5 437.5,275.5C 438.555,269.924 440.889,269.257 444.5,273.5C 438.619,274.159 438.286,275.326 443.5,277C 439.875,276.446 436.208,276.613 432.5,277.5C 432.5,274.5 432.5,271.5 432.5,268.5 Z"/></g>
<g><path style="opacity:1" fill="#d1f3f9" d="M 369.5,271.5 C 370.808,278.105 372.308,278.105 374,271.5C 374.667,273.167 374.667,274.833 374,276.5C 372.324,277.061 370.991,278.061 370,279.5C 369.503,276.854 369.336,274.187 369.5,271.5 Z"/></g>
<g><path style="opacity:1" fill="#a2e6f2" d="M 278.5,286.5 C 283.584,287.671 285.25,290.671 283.5,295.5C 282.167,288.833 280.833,288.833 279.5,295.5C 278.516,292.572 278.183,289.572 278.5,286.5 Z"/></g>
<g><path style="opacity:1" fill="#8ee0ef" d="M 295.5,288.5 C 301.674,287.173 303.841,289.506 302,295.5C 300.932,289.095 299.432,289.095 297.5,295.5C 296.719,294.271 296.219,292.938 296,291.5C 295.798,293.256 295.298,294.922 294.5,296.5C 293.121,293.533 293.454,290.866 295.5,288.5 Z"/></g>
<g><path style="opacity:1" fill="#a8e9f3" d="M 286.5,289.5 C 289.95,288.756 291.616,290.09 291.5,293.5C 290.127,293.343 288.793,293.51 287.5,294C 288.696,294.654 288.696,295.154 287.5,295.5C 285.454,293.719 285.12,291.719 286.5,289.5 Z"/></g>
<g><path style="opacity:0.992" fill="#2bb0cb" d="M 425.5,293.5 C 425.318,295.591 425.652,297.591 426.5,299.5C 423.22,302.103 421.22,305.436 420.5,309.5C 419.029,313.38 417.862,317.38 417,321.5C 416.667,319.5 416.333,317.5 416,315.5C 415.163,318.365 414.33,321.198 413.5,324C 409.848,324.499 406.182,324.665 402.5,324.5C 402.5,320.833 402.5,317.167 402.5,313.5C 403.5,313.5 404.5,313.5 405.5,313.5C 406.597,320.592 408.931,321.092 412.5,315C 412.167,314.667 411.833,314.333 411.5,314C 413.301,313.683 413.634,313.016 412.5,312C 414.301,311.683 414.634,311.016 413.5,310C 416.597,307.781 419.263,305.114 421.5,302C 420.726,299.054 420.56,296.221 421,293.5C 422.299,293.966 423.799,293.966 425.5,293.5 Z"/></g>
<g><path style="opacity:0.993" fill="#f5f7f9" d="M 226.5,279.5 C 233.167,279.5 239.833,279.5 246.5,279.5C 246.333,291.505 246.5,303.505 247,315.5C 249.167,319 252,321.833 255.5,324C 283.831,324.5 312.165,324.667 340.5,324.5C 337.786,330.188 337.953,335.854 341,341.5C 340.174,335.858 340.341,330.192 341.5,324.5C 345.5,324.5 349.5,324.5 353.5,324.5C 354.659,330.192 354.826,335.858 354,341.5C 357.091,335.919 357.258,330.252 354.5,324.5C 370.5,324.5 386.5,324.5 402.5,324.5C 406.182,324.665 409.848,324.499 413.5,324C 414.33,321.198 415.163,318.365 416,315.5C 416.333,317.5 416.667,319.5 417,321.5C 417.862,317.38 419.029,313.38 420.5,309.5C 423.667,306.502 427,303.669 430.5,301C 428.393,299.736 427.393,297.903 427.5,295.5C 437.207,295.968 446.874,296.802 456.5,298C 462.279,300.962 467.279,304.795 471.5,309.5C 472.868,311.564 473.868,313.898 474.5,316.5C 475.298,316.043 475.631,315.376 475.5,314.5C 479.675,317.835 484.008,321.002 488.5,324C 490.81,324.497 493.143,324.663 495.5,324.5C 495.5,353.5 495.5,382.5 495.5,411.5C 495.167,411.5 494.833,411.5 494.5,411.5C 494.5,406.5 494.5,401.5 494.5,396.5C 397.831,397.173 309.164,397.173 228.5,396.5C 227.506,401.456 227.173,406.456 227.5,411.5C 227.167,411.5 226.833,411.5 226.5,411.5C 226.5,367.5 226.5,323.5 226.5,279.5 Z"/></g>
<g><path style="opacity:1" fill="#c5f1f8" d="M 389.5,297.5 C 396.175,297.334 402.842,297.5 409.5,298C 410.629,302.079 410.796,306.245 410,310.5C 407.26,311.282 404.426,311.782 401.5,312C 401,312.5 400.5,313 400,313.5C 396.832,311.795 393.332,310.962 389.5,311C 388.025,308.691 386.358,306.524 384.5,304.5C 386.605,302.408 388.272,300.075 389.5,297.5 Z"/></g>
<g><path style="opacity:1" fill="#50819c" d="M 427.5,295.5 C 427.393,297.903 428.393,299.736 430.5,301C 427,303.669 423.667,306.502 420.5,309.5C 421.22,305.436 423.22,302.103 426.5,299.5C 425.652,297.591 425.318,295.591 425.5,293.5C 425.811,292.522 426.478,291.855 427.5,291.5C 431.81,293.358 432.144,294.025 428.5,293.5C 427.702,293.957 427.369,294.624 427.5,295.5 Z"/></g>
<g><path style="opacity:1" fill="#3b6589" d="M 446.5,305.5 C 447.5,305.5 448.5,305.5 449.5,305.5C 449.5,306.5 449.5,307.5 449.5,308.5C 448.5,308.5 447.5,308.5 446.5,308.5C 446.5,307.5 446.5,306.5 446.5,305.5 Z"/></g>
<g><path style="opacity:1" fill="#4e7493" d="M 435.5,305.5 C 437.346,305.222 438.68,305.889 439.5,307.5C 438.311,308.429 436.978,308.762 435.5,308.5C 435.5,307.5 435.5,306.5 435.5,305.5 Z"/></g>
<g><path style="opacity:1" fill="#c5c758" d="M 475.5,314.5 C 475.631,315.376 475.298,316.043 474.5,316.5C 473.868,313.898 472.868,311.564 471.5,309.5C 471.291,308.078 470.791,306.745 470,305.5C 465.919,301.224 461.419,297.557 456.5,294.5C 466.727,297.068 473.06,303.734 475.5,314.5 Z"/></g>
<g><path style="opacity:1" fill="#5e829b" d="M 440.5,306.5 C 442.176,307.183 442.843,308.517 442.5,310.5C 443.675,310.281 444.675,310.614 445.5,311.5C 443.955,312.452 442.288,312.785 440.5,312.5C 440.5,310.5 440.5,308.5 440.5,306.5 Z"/></g>
<g><path style="opacity:1" fill="#517594" d="M 450.5,310.5 C 451.573,311.251 451.74,312.251 451,313.5C 446.644,318.979 441.81,319.645 436.5,315.5C 439.665,315.449 442.998,315.282 446.5,315C 448.041,313.629 449.375,312.129 450.5,310.5 Z"/></g>
<g><path style="opacity:0.012" fill="#04aeda" d="M 513.5,321.5 C 514.833,322.167 514.833,322.167 513.5,321.5 Z"/></g>
<g><path style="opacity:0.027" fill="#07b5da" d="M 226.5,117.5 C 226.5,171.5 226.5,225.5 226.5,279.5C 226.5,323.5 226.5,367.5 226.5,411.5C 224.5,411.5 222.5,411.5 220.5,411.5C 220.63,386.091 220.297,360.925 219.5,336C 220.167,331.667 220.833,327.333 221.5,323C 220.833,311.667 220.167,300.333 219.5,289C 220.201,275.641 220.201,261.975 219.5,248C 220.167,243.667 220.833,239.333 221.5,235C 220.629,220.183 219.962,205.516 219.5,191C 220.167,176.333 220.833,161.667 221.5,147C 221.176,137.19 220.176,127.69 218.5,118.5C 221.094,117.11 223.761,116.777 226.5,117.5 Z"/></g>
<g><path style="opacity:0.055" fill="#07b5db" d="M 495.5,324.5 C 498.5,324.5 501.5,324.5 504.5,324.5C 503.64,327.459 503.64,330.126 504.5,332.5C 503.709,334.691 503.709,336.691 504.5,338.5C 504.195,341.414 504.195,344.081 504.5,346.5C 504.256,356.923 504.256,366.923 504.5,376.5C 504.212,388.212 504.212,399.879 504.5,411.5C 501.5,411.5 498.5,411.5 495.5,411.5C 495.5,382.5 495.5,353.5 495.5,324.5 Z"/></g>
<g><path style="opacity:0.996" fill="#676b73" d="M 365.5,325.5 C 366.5,325.5 367.5,325.5 368.5,325.5C 367.945,329.997 368.611,334.164 370.5,338C 368.5,338.667 366.5,338.667 364.5,338C 365.72,336.475 366.387,334.641 366.5,332.5C 366.387,330.359 365.72,328.525 364.5,327C 365.056,326.617 365.389,326.117 365.5,325.5 Z"/></g>
<g><path style="opacity:0.012" fill="#04aeda" d="M 504.5,327.5 C 505.833,328.167 505.833,328.167 504.5,327.5 Z"/></g>
<g><path style="opacity:0.996" fill="#7d8189" d="M 340.5,324.5 C 340.833,324.5 341.167,324.5 341.5,324.5C 340.341,330.192 340.174,335.858 341,341.5C 337.953,335.854 337.786,330.188 340.5,324.5 Z"/></g>
<g><path style="opacity:0.996" fill="#797d83" d="M 345.5,325.5 C 347.604,325.201 349.604,325.534 351.5,326.5C 344.004,328.104 343.837,329.771 351,331.5C 352.913,337.094 351.08,339.261 345.5,338C 342.86,333.768 342.86,329.601 345.5,325.5 Z"/></g>
<g><path style="opacity:0.012" fill="#04aeda" d="M 504.5,331.5 C 505.833,332.167 505.833,332.167 504.5,331.5 Z"/></g>
<g><path style="opacity:0.996" fill="#e9ebee" d="M 345.5,332.5 C 346.833,332.5 348.167,332.5 349.5,332.5C 349.5,333.833 349.5,335.167 349.5,336.5C 348.167,336.5 346.833,336.5 345.5,336.5C 345.5,335.167 345.5,333.833 345.5,332.5 Z"/></g>
<g><path style="opacity:0.012" fill="#04aeda" d="M 215.5,336.5 C 216.833,337.167 216.833,337.167 215.5,336.5 Z"/></g>
<g><path style="opacity:0.996" fill="#797e85" d="M 374.5,325.5 C 381.456,326.392 383.289,330.059 380,336.5C 378.116,338.576 375.949,338.91 373.5,337.5C 375.045,336.548 376.712,336.215 378.5,336.5C 378.5,335.5 378.5,334.5 378.5,333.5C 372.418,333.154 371.084,330.487 374.5,325.5 Z"/></g>
<g><path style="opacity:0.996" fill="#e7e8eb" d="M 374.5,327.5 C 375.833,327.5 377.167,327.5 378.5,327.5C 378.5,328.833 378.5,330.167 378.5,331.5C 377.167,331.5 375.833,331.5 374.5,331.5C 374.5,330.167 374.5,328.833 374.5,327.5 Z"/></g>
<g><path style="opacity:0.012" fill="#04aeda" d="M 504.5,337.5 C 505.833,338.167 505.833,338.167 504.5,337.5 Z"/></g>
<g><path style="opacity:0.012" fill="#04aeda" d="M 215.5,338.5 C 216.833,339.167 216.833,339.167 215.5,338.5 Z"/></g>
<g><path style="opacity:0.996" fill="#797e88" d="M 353.5,324.5 C 353.833,324.5 354.167,324.5 354.5,324.5C 357.258,330.252 357.091,335.919 354,341.5C 354.826,335.858 354.659,330.192 353.5,324.5 Z"/></g>
<g><path style="opacity:0.012" fill="#04aeda" d="M 504.5,345.5 C 505.833,346.167 505.833,346.167 504.5,345.5 Z"/></g>
<g><path style="opacity:0.012" fill="#04aeda" d="M 504.5,359.5 C 505.833,360.167 505.833,360.167 504.5,359.5 Z"/></g>
<g><path style="opacity:1" fill="#8b939b" d="M 344.5,354.5 C 346.308,355.918 346.975,357.918 346.5,360.5C 354.5,361.167 354.5,361.833 346.5,362.5C 345.833,370.5 345.167,370.5 344.5,362.5C 336.5,361.833 336.5,361.167 344.5,360.5C 344.5,358.5 344.5,356.5 344.5,354.5 Z"/></g>
<g><path style="opacity:0.996" fill="#787b82" d="M 378.5,352.5 C 384,351.831 386.167,354.165 385,359.5C 383.5,361 382,362.5 380.5,364C 382.112,364.72 383.612,364.554 385,363.5C 385.684,364.784 385.517,365.951 384.5,367C 381.773,367.818 379.106,367.652 376.5,366.5C 379.427,363.744 381.76,360.578 383.5,357C 382.968,354.98 381.635,354.147 379.5,354.5C 379.5,355.833 379.5,357.167 379.5,358.5C 378.5,358.5 377.5,358.5 376.5,358.5C 376.253,356.142 376.919,354.142 378.5,352.5 Z"/></g>
<g><path style="opacity:0.012" fill="#04aeda" d="M 504.5,375.5 C 505.833,376.167 505.833,376.167 504.5,375.5 Z"/></g>
<g><path style="opacity:0.841" fill="#fefefe" d="M 494.5,411.5 C 405.5,411.5 316.5,411.5 227.5,411.5C 227.173,406.456 227.506,401.456 228.5,396.5C 309.164,397.173 397.831,397.173 494.5,396.5C 494.5,401.5 494.5,406.5 494.5,411.5 Z"/></g>
</svg>
