<svg xmlns="http://www.w3.org/2000/svg" width="290.43" height="32.644" viewBox="0 0 290.43 32.644"><g transform="translate(-35.733 -499.856)"><rect width="52.524" height="10.708" transform="translate(144 503.907)" fill="#ffc823"/><path d="M-144.767,0h1.176V-5.684c0-.882-.1-2.128-.154-3.024h.056l.812,2.338,1.946,5.334h.868l1.946-5.334.812-2.338h.056c-.07.9-.168,2.142-.168,3.024V0h1.218V-10.276h-1.568l-1.96,5.5c-.238.714-.462,1.428-.7,2.142h-.07c-.252-.714-.49-1.428-.728-2.142l-1.974-5.5h-1.568Zm12.656.182a4.073,4.073,0,0,0,2.52-1.092h.042l.112.91h1.05V-4.676c0-1.876-.784-3.122-2.632-3.122a5.718,5.718,0,0,0-3,.994l.5.882a4.188,4.188,0,0,1,2.282-.812c1.246,0,1.568.938,1.568,1.918-3.234.364-4.676,1.19-4.676,2.842A2.061,2.061,0,0,0-132.111.182Zm.364-1.022c-.756,0-1.344-.35-1.344-1.218,0-.98.868-1.61,3.43-1.918v2.128A3.107,3.107,0,0,1-131.747-.84Zm7.616,1.022a4.786,4.786,0,0,0,1.4-.28l-.252-.952a2.693,2.693,0,0,1-.868.2c-.882,0-1.176-.532-1.176-1.47V-6.566h2.058V-7.6h-2.058V-9.744h-1.064l-.154,2.142-1.19.07v.966h1.134v4.214C-126.3-.84-125.755.182-124.131.182ZM-121.6,0h1.274V-5.516a2.891,2.891,0,0,1,2.086-1.162c1.008,0,1.442.6,1.442,2.03V0h1.274V-4.816c0-1.946-.728-2.982-2.324-2.982a3.569,3.569,0,0,0-2.52,1.274l.042-1.568v-3.052H-121.6Zm8.148,3.206h1.274V.63L-112.2-.7a3.43,3.43,0,0,0,2.1.882c1.75,0,3.3-1.5,3.3-4.1,0-2.338-1.064-3.878-3.024-3.878a4.054,4.054,0,0,0-2.422,1.064h-.042L-112.4-7.6h-1.05Zm3.136-4.088a2.946,2.946,0,0,1-1.862-.8V-5.67a3.169,3.169,0,0,1,2.044-1.05c1.442,0,2,1.134,2,2.814C-108.129-2.016-109.053-.882-110.313-.882Zm5.194.882h1.274V-7.6h-1.274Zm.644-9.17a.808.808,0,0,0,.854-.854.8.8,0,0,0-.854-.826.8.8,0,0,0-.854.826A.808.808,0,0,0-104.475-9.17ZM-99.029.182A3.391,3.391,0,0,0-96.719-.9h.042l.112.9h1.036V-11.144h-1.26v2.926l.056,1.316a3.093,3.093,0,0,0-2.142-.9c-1.736,0-3.29,1.54-3.29,4C-102.165-1.26-100.933.182-99.029.182Zm.28-1.064c-1.344,0-2.1-1.092-2.1-2.926,0-1.736.966-2.912,2.2-2.912a2.724,2.724,0,0,1,1.862.8v3.99A2.661,2.661,0,0,1-98.749-.882ZM-90.5,3.206h1.274V.63L-89.257-.7a3.43,3.43,0,0,0,2.1.882c1.75,0,3.3-1.5,3.3-4.1,0-2.338-1.064-3.878-3.024-3.878A4.054,4.054,0,0,0-89.3-6.734h-.042l-.112-.868H-90.5Zm3.136-4.088a2.946,2.946,0,0,1-1.862-.8V-5.67a3.169,3.169,0,0,1,2.044-1.05c1.442,0,2,1.134,2,2.814C-85.183-2.016-86.107-.882-87.367-.882ZM-82.173,0H-80.9V-4.886c.5-1.3,1.288-1.75,1.918-1.75a1.8,1.8,0,0,1,.742.126L-78-7.63a1.621,1.621,0,0,0-.812-.168,2.625,2.625,0,0,0-2.156,1.582h-.042L-81.123-7.6h-1.05Zm7.882.182c1.862,0,3.528-1.456,3.528-3.976s-1.666-4-3.528-4-3.528,1.47-3.528,4S-76.153.182-74.291.182Zm0-1.064c-1.316,0-2.2-1.162-2.2-2.912s.882-2.94,2.2-2.94,2.212,1.19,2.212,2.94S-72.975-.882-74.291-.882ZM-67.529,0h1.484l2.7-7.6H-64.6l-1.442,4.326c-.224.742-.462,1.526-.7,2.24H-66.8c-.238-.714-.476-1.5-.714-2.24L-68.943-7.6h-1.33Zm5.306,0h1.274V-7.6h-1.274Zm.644-9.17a.808.808,0,0,0,.854-.854.8.8,0,0,0-.854-.826.8.8,0,0,0-.854.826A.808.808,0,0,0-61.579-9.17ZM-56.133.182A3.391,3.391,0,0,0-53.823-.9h.042l.112.9h1.036V-11.144h-1.26v2.926l.056,1.316a3.093,3.093,0,0,0-2.142-.9c-1.736,0-3.29,1.54-3.29,4C-59.269-1.26-58.037.182-56.133.182Zm.28-1.064c-1.344,0-2.1-1.092-2.1-2.926,0-1.736.966-2.912,2.2-2.912a2.724,2.724,0,0,1,1.862.8v3.99A2.661,2.661,0,0,1-55.853-.882ZM-47.327.182A4.525,4.525,0,0,0-44.807-.6l-.462-.84a3.277,3.277,0,0,1-1.9.6,2.519,2.519,0,0,1-2.52-2.66h5.124a4.974,4.974,0,0,0,.056-.728c0-2.17-1.092-3.57-3.024-3.57-1.764,0-3.43,1.54-3.43,4A3.633,3.633,0,0,0-47.327.182Zm-2.38-4.606a2.335,2.335,0,0,1,2.184-2.352c1.19,0,1.89.826,1.89,2.352ZM-41,.182c1.792,0,2.772-1.022,2.772-2.254,0-1.442-1.218-1.89-2.324-2.31-.854-.322-1.638-.588-1.638-1.316,0-.588.448-1.092,1.414-1.092a2.783,2.783,0,0,1,1.722.672l.616-.826A3.864,3.864,0,0,0-40.789-7.8c-1.652,0-2.632.952-2.632,2.156,0,1.288,1.162,1.806,2.226,2.2.84.322,1.736.658,1.736,1.442,0,.658-.49,1.19-1.5,1.19a3.448,3.448,0,0,1-2.254-.9l-.63.84A4.585,4.585,0,0,0-41,.182Zm9.59.014c1.974,0,3.64-1.078,3.64-2.926a2.541,2.541,0,0,0-2.058-2.492v-.07A2.4,2.4,0,0,0-28.1-7.574c0-1.736-1.358-2.716-3.36-2.716A4.61,4.61,0,0,0-34.573-9l1.05,1.26a2.834,2.834,0,0,1,1.96-.924c.882,0,1.386.462,1.386,1.246,0,.868-.616,1.5-2.52,1.5v1.484c2.254,0,2.856.6,2.856,1.582,0,.868-.714,1.372-1.764,1.372a3.291,3.291,0,0,1-2.31-1.064l-.966,1.3A4.4,4.4,0,0,0-31.409.2Zm8.19,0c2.128,0,3.5-1.862,3.5-5.292,0-3.4-1.372-5.194-3.5-5.194S-26.733-8.512-26.733-5.1-25.347.2-23.219.2Zm0-1.61c-.9,0-1.568-.868-1.568-3.682s.672-3.584,1.568-3.584,1.554.784,1.554,3.584S-22.323-1.414-23.219-1.414Zm4.942,4.4A3.516,3.516,0,0,0-15.631-.462c0-1.274-.532-2.03-1.484-2.03a1.238,1.238,0,0,0-1.33,1.218A1.209,1.209,0,0,0-17.157-.056h.126c.014.784-.588,1.512-1.68,1.918ZM-11.123.2c2.128,0,3.5-1.862,3.5-5.292,0-3.4-1.372-5.194-3.5-5.194S-14.637-8.512-14.637-5.1-13.251.2-11.123.2Zm0-1.61c-.9,0-1.568-.868-1.568-3.682s.672-3.584,1.568-3.584S-9.569-7.9-9.569-5.1-10.227-1.414-11.123-1.414ZM-3.227.2C-1.1.2.273-1.666.273-5.1c0-3.4-1.372-5.194-3.5-5.194S-6.741-8.512-6.741-5.1-5.355.2-3.227.2Zm0-1.61c-.9,0-1.568-.868-1.568-3.682S-4.123-8.68-3.227-8.68-1.673-7.9-1.673-5.1-2.331-1.414-3.227-1.414ZM4.669.2C6.8.2,8.169-1.666,8.169-5.1c0-3.4-1.372-5.194-3.5-5.194S1.155-8.512,1.155-5.1,2.541.2,4.669.2Zm0-1.61c-.9,0-1.568-.868-1.568-3.682S3.773-8.68,4.669-8.68,6.223-7.9,6.223-5.1,5.565-1.414,4.669-1.414Zm7.126-.126h1.526V-4.508h2.828v-1.47H13.321V-8.96H11.795v2.982H8.967v1.47h2.828ZM22.155.182A4.073,4.073,0,0,0,24.675-.91h.042l.112.91h1.05V-4.676c0-1.876-.784-3.122-2.632-3.122a5.718,5.718,0,0,0-3,.994l.5.882a4.188,4.188,0,0,1,2.282-.812c1.246,0,1.568.938,1.568,1.918-3.234.364-4.676,1.19-4.676,2.842A2.061,2.061,0,0,0,22.155.182ZM22.519-.84c-.756,0-1.344-.35-1.344-1.218,0-.98.868-1.61,3.43-1.918v2.128A3.107,3.107,0,0,1,22.519-.84ZM27.951,0h1.274V-4.886c.5-1.3,1.288-1.75,1.918-1.75a1.8,1.8,0,0,1,.742.126l.238-1.12a1.621,1.621,0,0,0-.812-.168,2.625,2.625,0,0,0-2.156,1.582h-.042L29-7.6h-1.05Zm5.082,0h1.274V-7.6H33.033Zm.644-9.17a.808.808,0,0,0,.854-.854.8.8,0,0,0-.854-.826.8.8,0,0,0-.854.826A.808.808,0,0,0,33.677-9.17ZM38.927.182a4.786,4.786,0,0,0,1.4-.28l-.252-.952a2.693,2.693,0,0,1-.868.2c-.882,0-1.176-.532-1.176-1.47V-6.566h2.058V-7.6H38.031V-9.744H36.967L36.813-7.6l-1.19.07v.966h1.134v4.214C36.757-.84,37.3.182,38.927.182ZM41.461,0h1.274V-5.516a2.891,2.891,0,0,1,2.086-1.162c1.008,0,1.442.6,1.442,2.03V0h1.274V-4.816c0-1.946-.728-2.982-2.324-2.982a3.569,3.569,0,0,0-2.52,1.274l.042-1.568v-3.052H41.461Zm8.148,0h1.274V-5.516A2.808,2.808,0,0,1,52.8-6.678c.966,0,1.414.6,1.414,2.03V0h1.274V-5.516a2.808,2.808,0,0,1,1.918-1.162c.966,0,1.414.6,1.414,2.03V0H60.1V-4.816c0-1.946-.742-2.982-2.31-2.982a3.594,3.594,0,0,0-2.506,1.456,2,2,0,0,0-2.1-1.456,3.34,3.34,0,0,0-2.366,1.3h-.042L50.659-7.6h-1.05ZM63.973.182A4.073,4.073,0,0,0,66.493-.91h.042l.112.91H67.7V-4.676c0-1.876-.784-3.122-2.632-3.122a5.718,5.718,0,0,0-3,.994l.5.882a4.188,4.188,0,0,1,2.282-.812c1.246,0,1.568.938,1.568,1.918-3.234.364-4.676,1.19-4.676,2.842A2.061,2.061,0,0,0,63.973.182ZM64.337-.84c-.756,0-1.344-.35-1.344-1.218,0-.98.868-1.61,3.43-1.918v2.128A3.107,3.107,0,0,1,64.337-.84ZM71.953.182a4.786,4.786,0,0,0,1.4-.28L73.1-1.05a2.693,2.693,0,0,1-.868.2c-.882,0-1.176-.532-1.176-1.47V-6.566h2.058V-7.6H71.057V-9.744H69.993L69.839-7.6l-1.19.07v.966h1.134v4.214C69.783-.84,70.329.182,71.953.182ZM74.487,0h1.274V-7.6H74.487Zm.644-9.17a.808.808,0,0,0,.854-.854.8.8,0,0,0-.854-.826.8.8,0,0,0-.854.826A.808.808,0,0,0,75.131-9.17ZM80.983.182a3.686,3.686,0,0,0,2.464-.966l-.56-.854a2.68,2.68,0,0,1-1.792.756c-1.4,0-2.352-1.162-2.352-2.912s1.008-2.94,2.394-2.94a2.248,2.248,0,0,1,1.512.672l.658-.84a3.25,3.25,0,0,0-2.226-.9,3.7,3.7,0,0,0-3.668,4C77.413-1.274,78.967.182,80.983.182Zm6.566,3.024h1.274V.63L88.795-.7a3.43,3.43,0,0,0,2.1.882c1.75,0,3.3-1.5,3.3-4.1,0-2.338-1.064-3.878-3.024-3.878a4.054,4.054,0,0,0-2.422,1.064h-.042L88.6-7.6h-1.05ZM90.685-.882a2.946,2.946,0,0,1-1.862-.8V-5.67a3.169,3.169,0,0,1,2.044-1.05c1.442,0,2,1.134,2,2.814C92.869-2.016,91.945-.882,90.685-.882ZM95.879,0h1.274V-4.886c.5-1.3,1.288-1.75,1.918-1.75a1.8,1.8,0,0,1,.742.126l.238-1.12a1.621,1.621,0,0,0-.812-.168,2.625,2.625,0,0,0-2.156,1.582h-.042L96.929-7.6h-1.05Zm7.882.182c1.862,0,3.528-1.456,3.528-3.976s-1.666-4-3.528-4-3.528,1.47-3.528,4S101.9.182,103.761.182Zm0-1.064c-1.316,0-2.2-1.162-2.2-2.912s.882-2.94,2.2-2.94,2.212,1.19,2.212,2.94S105.077-.882,103.761-.882ZM112.287.182c1.75,0,3.3-1.5,3.3-4.116,0-2.324-1.064-3.864-3.038-3.864a3.83,3.83,0,0,0-2.38,1.078l.042-1.372v-3.052h-1.274V0h1.022l.112-.784h.056A3.377,3.377,0,0,0,112.287.182Zm-.21-1.064a2.918,2.918,0,0,1-1.862-.8V-5.67a3.139,3.139,0,0,1,2.044-1.05c1.442,0,2,1.134,2,2.814C114.261-2.016,113.337-.882,112.077-.882Zm6.51,1.064a1.961,1.961,0,0,0,.742-.112l-.182-.98a1.118,1.118,0,0,1-.266.028c-.2,0-.364-.154-.364-.546v-9.716h-1.274v9.632C117.243-.434,117.635.182,118.587.182Zm5.362,0a4.525,4.525,0,0,0,2.52-.784l-.462-.84a3.277,3.277,0,0,1-1.9.6,2.519,2.519,0,0,1-2.52-2.66h5.124a4.974,4.974,0,0,0,.056-.728c0-2.17-1.092-3.57-3.024-3.57-1.764,0-3.43,1.54-3.43,4A3.633,3.633,0,0,0,123.949.182Zm-2.38-4.606a2.335,2.335,0,0,1,2.184-2.352c1.19,0,1.89.826,1.89,2.352ZM128.289,0h1.274V-5.516a2.808,2.808,0,0,1,1.918-1.162c.966,0,1.414.6,1.414,2.03V0h1.274V-5.516a2.808,2.808,0,0,1,1.918-1.162c.966,0,1.414.6,1.414,2.03V0h1.274V-4.816c0-1.946-.742-2.982-2.31-2.982a3.594,3.594,0,0,0-2.506,1.456,2,2,0,0,0-2.1-1.456,3.34,3.34,0,0,0-2.366,1.3h-.042L129.339-7.6h-1.05Zm14.6.182c1.792,0,2.772-1.022,2.772-2.254,0-1.442-1.218-1.89-2.324-2.31C142.485-4.7,141.7-4.97,141.7-5.7c0-.588.448-1.092,1.414-1.092a2.783,2.783,0,0,1,1.722.672l.616-.826A3.864,3.864,0,0,0,143.1-7.8c-1.652,0-2.632.952-2.632,2.156,0,1.288,1.162,1.806,2.226,2.2.84.322,1.736.658,1.736,1.442,0,.658-.49,1.19-1.5,1.19a3.448,3.448,0,0,1-2.254-.9l-.63.84A4.585,4.585,0,0,0,142.891.182Zm-262.57,18a4.073,4.073,0,0,0,2.52-1.092h.042l.112.91h1.05V13.324c0-1.876-.784-3.122-2.632-3.122a5.718,5.718,0,0,0-3,.994l.5.882a4.188,4.188,0,0,1,2.282-.812c1.246,0,1.568.938,1.568,1.918-3.234.364-4.676,1.19-4.676,2.842A2.061,2.061,0,0,0-119.679,18.182Zm.364-1.022c-.756,0-1.344-.35-1.344-1.218,0-.98.868-1.61,3.43-1.918v2.128A3.107,3.107,0,0,1-119.315,17.16Zm5.432.84h1.274V12.484a2.891,2.891,0,0,1,2.086-1.162c1.008,0,1.442.6,1.442,2.03V18h1.274V13.184c0-1.946-.728-2.982-2.324-2.982a3.646,3.646,0,0,0-2.548,1.288h-.042l-.112-1.092h-1.05Zm10.794.182a3.391,3.391,0,0,0,2.31-1.078h.042l.112.9h1.036V6.856h-1.26V9.782l.056,1.316a3.093,3.093,0,0,0-2.142-.9c-1.736,0-3.29,1.54-3.29,4C-106.225,16.74-104.993,18.182-103.089,18.182Zm.28-1.064c-1.344,0-2.1-1.092-2.1-2.926,0-1.736.966-2.912,2.2-2.912a2.724,2.724,0,0,1,1.862.8v3.99A2.661,2.661,0,0,1-102.809,17.118Zm11.242,1.064a3.686,3.686,0,0,0,2.464-.966l-.56-.854a2.68,2.68,0,0,1-1.792.756c-1.4,0-2.352-1.162-2.352-2.912s1.008-2.94,2.394-2.94a2.248,2.248,0,0,1,1.512.672l.658-.84a3.25,3.25,0,0,0-2.226-.9,3.7,3.7,0,0,0-3.668,4C-95.137,16.726-93.583,18.182-91.567,18.182Zm5.992,0a3.261,3.261,0,0,0,2.52-1.372h.042l.1,1.19h1.064V10.4h-1.274v5.39c-.728.91-1.274,1.288-2.058,1.288-1.008,0-1.428-.6-1.428-2.016V10.4h-1.274v4.816C-87.885,17.146-87.171,18.182-85.575,18.182ZM-79.639,18h1.274V13.114c.5-1.3,1.288-1.75,1.918-1.75a1.8,1.8,0,0,1,.742.126l.238-1.12a1.621,1.621,0,0,0-.812-.168,2.625,2.625,0,0,0-2.156,1.582h-.042l-.112-1.386h-1.05Zm5.082,0h1.274V13.114c.5-1.3,1.288-1.75,1.918-1.75a1.8,1.8,0,0,1,.742.126l.238-1.12A1.621,1.621,0,0,0-71.2,10.2a2.625,2.625,0,0,0-2.156,1.582H-73.4l-.112-1.386h-1.05Zm5.082,0H-68.2V10.4h-1.274Zm.644-9.17a.808.808,0,0,0,.854-.854.8.8,0,0,0-.854-.826.8.8,0,0,0-.854.826A.808.808,0,0,0-68.831,8.83Zm5.852,9.352a3.686,3.686,0,0,0,2.464-.966l-.56-.854a2.68,2.68,0,0,1-1.792.756c-1.4,0-2.352-1.162-2.352-2.912s1.008-2.94,2.394-2.94a2.248,2.248,0,0,1,1.512.672l.658-.84a3.25,3.25,0,0,0-2.226-.9,3.7,3.7,0,0,0-3.668,4C-66.549,16.726-65,18.182-62.979,18.182Zm5.992,0a3.261,3.261,0,0,0,2.52-1.372h.042l.1,1.19h1.064V10.4h-1.274v5.39c-.728.91-1.274,1.288-2.058,1.288-1.008,0-1.428-.6-1.428-2.016V10.4H-59.3v4.816C-59.3,17.146-58.583,18.182-56.987,18.182Zm7.28,0a1.961,1.961,0,0,0,.742-.112l-.182-.98a1.118,1.118,0,0,1-.266.028c-.2,0-.364-.154-.364-.546V6.856h-1.274v9.632C-51.051,17.566-50.659,18.182-49.707,18.182Zm4.508,0a3.261,3.261,0,0,0,2.52-1.372h.042l.1,1.19h1.064V10.4h-1.274v5.39c-.728.91-1.274,1.288-2.058,1.288-1.008,0-1.428-.6-1.428-2.016V10.4h-1.274v4.816C-47.509,17.146-46.8,18.182-45.2,18.182ZM-39.263,18h1.274V12.484a2.808,2.808,0,0,1,1.918-1.162c.966,0,1.414.6,1.414,2.03V18h1.274V12.484a2.808,2.808,0,0,1,1.918-1.162c.966,0,1.414.6,1.414,2.03V18h1.274V13.184c0-1.946-.742-2.982-2.31-2.982a3.594,3.594,0,0,0-2.506,1.456,2,2,0,0,0-2.1-1.456,3.34,3.34,0,0,0-2.366,1.3H-38.1l-.112-1.106h-1.05Zm17.15.182a4.073,4.073,0,0,0,2.52-1.092h.042l.112.91h1.05V13.324c0-1.876-.784-3.122-2.632-3.122a5.718,5.718,0,0,0-3,.994l.5.882a4.188,4.188,0,0,1,2.282-.812c1.246,0,1.568.938,1.568,1.918-3.234.364-4.676,1.19-4.676,2.842A2.061,2.061,0,0,0-22.113,18.182Zm.364-1.022c-.756,0-1.344-.35-1.344-1.218,0-.98.868-1.61,3.43-1.918v2.128A3.107,3.107,0,0,1-21.749,17.16Zm6.776,1.022a1.961,1.961,0,0,0,.742-.112l-.182-.98a1.118,1.118,0,0,1-.266.028c-.2,0-.364-.154-.364-.546V6.856h-1.274v9.632C-16.317,17.566-15.925,18.182-14.973,18.182Zm2.3-.182H-11.4V10.4h-1.274Zm.644-9.17a.808.808,0,0,0,.854-.854.8.8,0,0,0-.854-.826.8.8,0,0,0-.854.826A.808.808,0,0,0-12.033,8.83ZM-6.615,21.5c2.352,0,3.85-1.218,3.85-2.632,0-1.246-.9-1.806-2.66-1.806H-6.909c-1.022,0-1.33-.336-1.33-.826a1.132,1.132,0,0,1,.49-.91,2.644,2.644,0,0,0,1.134.266,2.607,2.607,0,0,0,2.772-2.646,2.171,2.171,0,0,0-.616-1.568h1.554V10.4H-5.551a3.136,3.136,0,0,0-1.064-.2,2.708,2.708,0,0,0-2.856,2.716,2.669,2.669,0,0,0,.994,2.044v.056a1.855,1.855,0,0,0-.854,1.414,1.375,1.375,0,0,0,.7,1.246v.056a2.133,2.133,0,0,0-1.12,1.722C-9.751,20.772-8.477,21.5-6.615,21.5Zm0-6.776a1.666,1.666,0,0,1-1.624-1.806A1.625,1.625,0,0,1-6.615,11.14a1.633,1.633,0,0,1,1.624,1.778A1.674,1.674,0,0,1-6.615,14.724Zm.182,5.908c-1.372,0-2.2-.532-2.2-1.344A1.584,1.584,0,0,1-7.861,18a4.276,4.276,0,0,0,.98.126h1.316c1.008,0,1.554.238,1.554.938C-4.011,19.862-4.977,20.632-6.433,20.632ZM-1.645,18H-.371V12.484a2.891,2.891,0,0,1,2.086-1.162c1.008,0,1.442.6,1.442,2.03V18H4.431V13.184c0-1.946-.728-2.982-2.324-2.982A3.646,3.646,0,0,0-.441,11.49H-.483L-.6,10.4h-1.05Zm11.27.182a4.525,4.525,0,0,0,2.52-.784l-.462-.84a3.277,3.277,0,0,1-1.9.6,2.519,2.519,0,0,1-2.52-2.66h5.124a4.974,4.974,0,0,0,.056-.728c0-2.17-1.092-3.57-3.024-3.57-1.764,0-3.43,1.54-3.43,4A3.633,3.633,0,0,0,9.625,18.182Zm-2.38-4.606a2.335,2.335,0,0,1,2.184-2.352c1.19,0,1.89.826,1.89,2.352Zm9.31,4.606a3.391,3.391,0,0,0,2.31-1.078h.042l.112.9h1.036V6.856H18.8V9.782l.056,1.316a3.093,3.093,0,0,0-2.142-.9c-1.736,0-3.29,1.54-3.29,4C13.419,16.74,14.651,18.182,16.555,18.182Zm.28-1.064c-1.344,0-2.1-1.092-2.1-2.926,0-1.736.966-2.912,2.2-2.912a2.724,2.724,0,0,1,1.862.8v3.99A2.661,2.661,0,0,1,16.835,17.118Zm9.59,1.064a1.961,1.961,0,0,0,.742-.112l-.182-.98a1.118,1.118,0,0,1-.266.028c-.2,0-.364-.154-.364-.546V6.856H25.081v9.632C25.081,17.566,25.473,18.182,26.425,18.182Zm5.362,0a4.525,4.525,0,0,0,2.52-.784l-.462-.84a3.277,3.277,0,0,1-1.9.6,2.519,2.519,0,0,1-2.52-2.66h5.124a4.974,4.974,0,0,0,.056-.728c0-2.17-1.092-3.57-3.024-3.57-1.764,0-3.43,1.54-3.43,4A3.633,3.633,0,0,0,31.787,18.182Zm-2.38-4.606a2.335,2.335,0,0,1,2.184-2.352c1.19,0,1.89.826,1.89,2.352Zm8.246,4.606a4.073,4.073,0,0,0,2.52-1.092h.042l.112.91h1.05V13.324c0-1.876-.784-3.122-2.632-3.122a5.718,5.718,0,0,0-3,.994l.5.882a4.188,4.188,0,0,1,2.282-.812c1.246,0,1.568.938,1.568,1.918-3.234.364-4.676,1.19-4.676,2.842A2.061,2.061,0,0,0,37.653,18.182Zm.364-1.022c-.756,0-1.344-.35-1.344-1.218,0-.98.868-1.61,3.43-1.918v2.128A3.107,3.107,0,0,1,38.017,17.16Zm5.432.84h1.274V13.114c.5-1.3,1.288-1.75,1.918-1.75a1.8,1.8,0,0,1,.742.126l.238-1.12a1.621,1.621,0,0,0-.812-.168,2.625,2.625,0,0,0-2.156,1.582h-.042L44.5,10.4h-1.05Zm5.082,0h1.274V12.484a2.891,2.891,0,0,1,2.086-1.162c1.008,0,1.442.6,1.442,2.03V18h1.274V13.184c0-1.946-.728-2.982-2.324-2.982a3.646,3.646,0,0,0-2.548,1.288h-.042L49.581,10.4h-1.05Zm8.2,0h1.274V10.4H56.735Zm.644-9.17a.84.84,0,1,0-.854-.854A.808.808,0,0,0,57.379,8.83ZM60.235,18h1.274V12.484A2.891,2.891,0,0,1,63.6,11.322c1.008,0,1.442.6,1.442,2.03V18h1.274V13.184c0-1.946-.728-2.982-2.324-2.982a3.646,3.646,0,0,0-2.548,1.288H61.4L61.285,10.4h-1.05ZM71,21.5c2.352,0,3.85-1.218,3.85-2.632,0-1.246-.9-1.806-2.66-1.806H70.707c-1.022,0-1.33-.336-1.33-.826a1.132,1.132,0,0,1,.49-.91A2.644,2.644,0,0,0,71,15.592a2.607,2.607,0,0,0,2.772-2.646,2.171,2.171,0,0,0-.616-1.568h1.554V10.4H72.065A3.136,3.136,0,0,0,71,10.2a2.708,2.708,0,0,0-2.856,2.716,2.669,2.669,0,0,0,.994,2.044v.056a1.855,1.855,0,0,0-.854,1.414,1.375,1.375,0,0,0,.7,1.246v.056a2.133,2.133,0,0,0-1.12,1.722C67.865,20.772,69.139,21.5,71,21.5Zm0-6.776a1.666,1.666,0,0,1-1.624-1.806,1.631,1.631,0,1,1,3.248,0A1.674,1.674,0,0,1,71,14.724Zm.182,5.908c-1.372,0-2.2-.532-2.2-1.344A1.584,1.584,0,0,1,69.755,18a4.276,4.276,0,0,0,.98.126h1.316c1.008,0,1.554.238,1.554.938C73.605,19.862,72.639,20.632,71.183,20.632Zm10.57-2.45a3.686,3.686,0,0,0,2.464-.966l-.56-.854a2.68,2.68,0,0,1-1.792.756c-1.4,0-2.352-1.162-2.352-2.912s1.008-2.94,2.394-2.94a2.248,2.248,0,0,1,1.512.672l.658-.84a3.25,3.25,0,0,0-2.226-.9,3.7,3.7,0,0,0-3.668,4C78.183,16.726,79.737,18.182,81.753,18.182Zm6.4,0c1.862,0,3.528-1.456,3.528-3.976s-1.666-4-3.528-4-3.528,1.47-3.528,4S86.289,18.182,88.151,18.182Zm0-1.064c-1.316,0-2.2-1.162-2.2-2.912s.882-2.94,2.2-2.94,2.212,1.19,2.212,2.94S89.467,17.118,88.151,17.118Zm7.392,1.064a3.261,3.261,0,0,0,2.52-1.372H98.1L98.2,18h1.064V10.4H97.993v5.39c-.728.91-1.274,1.288-2.058,1.288-1.008,0-1.428-.6-1.428-2.016V10.4H93.233v4.816C93.233,17.146,93.947,18.182,95.543,18.182ZM101.479,18h1.274V13.114c.5-1.3,1.288-1.75,1.918-1.75a1.8,1.8,0,0,1,.742.126l.238-1.12a1.621,1.621,0,0,0-.812-.168,2.625,2.625,0,0,0-2.156,1.582h-.042l-.112-1.386h-1.05Zm7.014.182c1.792,0,2.772-1.022,2.772-2.254,0-1.442-1.218-1.89-2.324-2.31-.854-.322-1.638-.588-1.638-1.316,0-.588.448-1.092,1.414-1.092a2.783,2.783,0,0,1,1.722.672l.616-.826A3.864,3.864,0,0,0,108.7,10.2c-1.652,0-2.632.952-2.632,2.156,0,1.288,1.162,1.806,2.226,2.2.84.322,1.736.658,1.736,1.442,0,.658-.49,1.19-1.5,1.19a3.448,3.448,0,0,1-2.254-.9l-.63.84A4.585,4.585,0,0,0,108.493,18.182Zm7.28,0a4.525,4.525,0,0,0,2.52-.784l-.462-.84a3.277,3.277,0,0,1-1.9.6,2.519,2.519,0,0,1-2.52-2.66h5.124a4.974,4.974,0,0,0,.056-.728c0-2.17-1.092-3.57-3.024-3.57-1.764,0-3.43,1.54-3.43,4A3.633,3.633,0,0,0,115.773,18.182Zm-2.38-4.606a2.335,2.335,0,0,1,2.184-2.352c1.19,0,1.89.826,1.89,2.352Zm7.378,4.606a.925.925,0,0,0,.924-.966.926.926,0,1,0-1.848,0A.925.925,0,0,0,120.771,18.182Z" transform="translate(180.5 511)" fill="#323c46"/></g></svg>