<svg xmlns="http://www.w3.org/2000/svg" xmlns:xlink="http://www.w3.org/1999/xlink" width="251.726" height="161.124" viewBox="0 0 251.726 161.124"><defs><linearGradient id="a" x1="0.045" y1="0.441" x2="1.127" y2="0.827" gradientUnits="objectBoundingBox"><stop offset="0" stop-color="#f5b400"/><stop offset="1" stop-color="#ffc823"/></linearGradient></defs><g transform="translate(-51.274 -108.83)"><path d="M2.724-4.92c.312-1,.6-1.944.876-2.976h.048c.288,1.02.564,1.98.888,2.976l.42,1.344H2.292ZM.036,0H1.164l.852-2.688H5.232L6.072,0H7.248L4.26-8.808H3.024ZM8.184,0H9.3V-8.808H8.184Zm7.728.156a2.906,2.906,0,0,0,1.98-.924h.036l.1.768h.888V-9.552h-1.08v2.508l.048,1.128a2.651,2.651,0,0,0-1.836-.768c-1.488,0-2.82,1.32-2.82,3.432C13.224-1.08,14.28.156,15.912.156Zm.24-.912c-1.152,0-1.8-.936-1.8-2.508,0-1.488.828-2.5,1.884-2.5a2.335,2.335,0,0,1,1.6.684v3.42A2.281,2.281,0,0,1,16.152-.756ZM23.46.156a3.878,3.878,0,0,0,2.16-.672l-.4-.72a2.809,2.809,0,0,1-1.632.516A2.159,2.159,0,0,1,21.432-3h4.392a4.263,4.263,0,0,0,.048-.624c0-1.86-.936-3.06-2.592-3.06a3.152,3.152,0,0,0-2.94,3.432A3.114,3.114,0,0,0,23.46.156ZM21.42-3.792a2,2,0,0,1,1.872-2.016c1.02,0,1.62.708,1.62,2.016ZM28.884.156c1.536,0,2.376-.876,2.376-1.932,0-1.236-1.044-1.62-1.992-1.98-.732-.276-1.4-.5-1.4-1.128,0-.5.384-.936,1.212-.936a2.386,2.386,0,0,1,1.476.576l.528-.708a3.312,3.312,0,0,0-2.016-.732c-1.416,0-2.256.816-2.256,1.848,0,1.1,1,1.548,1.908,1.884.72.276,1.488.564,1.488,1.236,0,.564-.42,1.02-1.284,1.02a2.955,2.955,0,0,1-1.932-.768l-.54.72A3.93,3.93,0,0,0,28.884.156ZM32.5,0h1.092V-6.516H32.5Zm.552-7.86a.693.693,0,0,0,.732-.732.687.687,0,0,0-.732-.708.687.687,0,0,0-.732.708A.693.693,0,0,0,33.048-7.86ZM37.692,3c2.016,0,3.3-1.044,3.3-2.256,0-1.068-.768-1.548-2.28-1.548H37.44c-.876,0-1.14-.288-1.14-.708a.97.97,0,0,1,.42-.78,2.267,2.267,0,0,0,.972.228,2.234,2.234,0,0,0,2.376-2.268,1.861,1.861,0,0,0-.528-1.344h1.332v-.84H38.6a2.688,2.688,0,0,0-.912-.168,2.321,2.321,0,0,0-2.448,2.328A2.288,2.288,0,0,0,36.1-2.6v.048a1.59,1.59,0,0,0-.732,1.212,1.178,1.178,0,0,0,.6,1.068v.048A1.829,1.829,0,0,0,35,1.248C35,2.376,36.1,3,37.692,3Zm0-5.808A1.428,1.428,0,0,1,36.3-4.356,1.393,1.393,0,0,1,37.692-5.88a1.4,1.4,0,0,1,1.392,1.524A1.435,1.435,0,0,1,37.692-2.808Zm.156,5.064c-1.176,0-1.884-.456-1.884-1.152a1.358,1.358,0,0,1,.66-1.1,3.665,3.665,0,0,0,.84.108h1.128c.864,0,1.332.2,1.332.8C39.924,1.6,39.1,2.256,37.848,2.256ZM41.952,0h1.092V-4.728a2.478,2.478,0,0,1,1.788-1c.864,0,1.236.516,1.236,1.74V0H47.16V-4.128c0-1.668-.624-2.556-1.992-2.556a3.125,3.125,0,0,0-2.184,1.1h-.036l-.1-.936h-.9Zm8.736.156c1.536,0,2.376-.876,2.376-1.932,0-1.236-1.044-1.62-1.992-1.98-.732-.276-1.4-.5-1.4-1.128,0-.5.384-.936,1.212-.936a2.386,2.386,0,0,1,1.476.576l.528-.708a3.312,3.312,0,0,0-2.016-.732c-1.416,0-2.256.816-2.256,1.848,0,1.1,1,1.548,1.908,1.884.72.276,1.488.564,1.488,1.236,0,.564-.42,1.02-1.284,1.02a2.955,2.955,0,0,1-1.932-.768l-.54.72A3.93,3.93,0,0,0,50.688.156Zm6-.156H57.78V-4.728a2.478,2.478,0,0,1,1.788-1c.864,0,1.236.516,1.236,1.74V0H61.9V-4.128c0-1.668-.624-2.556-1.992-2.556a3.125,3.125,0,0,0-2.184,1.1h-.036l-.1-.936h-.9Zm9.66.156a3.878,3.878,0,0,0,2.16-.672l-.4-.72A2.809,2.809,0,0,1,66.48-.72,2.159,2.159,0,0,1,64.32-3h4.392a4.263,4.263,0,0,0,.048-.624c0-1.86-.936-3.06-2.592-3.06a3.152,3.152,0,0,0-2.94,3.432A3.114,3.114,0,0,0,66.348.156Zm-2.04-3.948A2,2,0,0,1,66.18-5.808c1.02,0,1.62.708,1.62,2.016ZM69.048,0H70.2l.876-1.524c.228-.4.444-.792.672-1.164h.06c.24.372.48.768.7,1.164L73.464,0h1.2L72.516-3.288,74.5-6.516h-1.14l-.8,1.428c-.192.372-.384.732-.588,1.092h-.048c-.216-.36-.444-.72-.648-1.092l-.876-1.428H69.216L71.2-3.4Zm8.328.156a4.1,4.1,0,0,0,1.2-.24L78.36-.9a2.308,2.308,0,0,1-.744.168c-.756,0-1.008-.456-1.008-1.26V-5.628h1.764v-.888H76.608V-8.352H75.7l-.132,1.836-1.02.06v.828h.972v3.612C75.516-.72,75.984.156,77.376.156Zm6.264,0c1.536,0,2.376-.876,2.376-1.932,0-1.236-1.044-1.62-1.992-1.98-.732-.276-1.4-.5-1.4-1.128,0-.5.384-.936,1.212-.936a2.386,2.386,0,0,1,1.476.576l.528-.708a3.312,3.312,0,0,0-2.016-.732c-1.416,0-2.256.816-2.256,1.848,0,1.1,1,1.548,1.908,1.884.72.276,1.488.564,1.488,1.236,0,.564-.42,1.02-1.284,1.02a2.955,2.955,0,0,1-1.932-.768l-.54.72A3.93,3.93,0,0,0,83.64.156Zm5.4,0a4.1,4.1,0,0,0,1.2-.24L90.024-.9a2.308,2.308,0,0,1-.744.168c-.756,0-1.008-.456-1.008-1.26V-5.628h1.764v-.888H88.272V-8.352H87.36l-.132,1.836-1.02.06v.828h.972v3.612C87.18-.72,87.648.156,89.04.156Zm4.62,0a3.878,3.878,0,0,0,2.16-.672l-.4-.72a2.809,2.809,0,0,1-1.632.516A2.159,2.159,0,0,1,91.632-3h4.392a4.263,4.263,0,0,0,.048-.624c0-1.86-.936-3.06-2.592-3.06a3.152,3.152,0,0,0-2.94,3.432A3.114,3.114,0,0,0,93.66.156ZM91.62-3.792a2,2,0,0,1,1.872-2.016c1.02,0,1.62.708,1.62,2.016Zm5.76,6.54h1.092V.54L98.448-.6a2.94,2.94,0,0,0,1.8.756c1.5,0,2.832-1.284,2.832-3.516,0-2-.912-3.324-2.592-3.324a3.475,3.475,0,0,0-2.076.912h-.036l-.1-.744h-.9Zm2.688-3.5a2.525,2.525,0,0,1-1.6-.684V-4.86a2.717,2.717,0,0,1,1.752-.9c1.236,0,1.716.972,1.716,2.412C101.94-1.728,101.148-.756,100.068-.756Zm6.156.912c1.536,0,2.376-.876,2.376-1.932,0-1.236-1.044-1.62-1.992-1.98-.732-.276-1.4-.5-1.4-1.128,0-.5.384-.936,1.212-.936a2.386,2.386,0,0,1,1.476.576l.528-.708a3.312,3.312,0,0,0-2.016-.732c-1.416,0-2.256.816-2.256,1.848,0,1.1,1,1.548,1.908,1.884.72.276,1.488.564,1.488,1.236,0,.564-.42,1.02-1.284,1.02a2.955,2.955,0,0,1-1.932-.768l-.54.72A3.93,3.93,0,0,0,106.224.156Zm8.868,0c1.5,0,2.832-1.284,2.832-3.528,0-1.992-.912-3.312-2.6-3.312a3.283,3.283,0,0,0-2.04.924l.036-1.176V-9.552h-1.092V0h.876l.1-.672h.048A2.894,2.894,0,0,0,115.092.156Zm-.18-.912a2.5,2.5,0,0,1-1.6-.684V-4.86a2.691,2.691,0,0,1,1.752-.9c1.236,0,1.716.972,1.716,2.412C116.784-1.728,115.992-.756,114.912-.756Zm5.736.912a3.491,3.491,0,0,0,2.16-.936h.036l.1.78h.9V-4.008c0-1.608-.672-2.676-2.256-2.676a4.9,4.9,0,0,0-2.568.852l.432.756a3.59,3.59,0,0,1,1.956-.7c1.068,0,1.344.8,1.344,1.644-2.772.312-4.008,1.02-4.008,2.436A1.767,1.767,0,0,0,120.648.156Zm.312-.876c-.648,0-1.152-.3-1.152-1.044,0-.84.744-1.38,2.94-1.644v1.824A2.663,2.663,0,0,1,120.96-.72Zm6.36.876c1.536,0,2.376-.876,2.376-1.932,0-1.236-1.044-1.62-1.992-1.98-.732-.276-1.4-.5-1.4-1.128,0-.5.384-.936,1.212-.936a2.386,2.386,0,0,1,1.476.576l.528-.708a3.312,3.312,0,0,0-2.016-.732c-1.416,0-2.256.816-2.256,1.848,0,1.1,1,1.548,1.908,1.884.72.276,1.488.564,1.488,1.236,0,.564-.42,1.02-1.284,1.02a2.955,2.955,0,0,1-1.932-.768l-.54.72A3.93,3.93,0,0,0,127.32.156Zm6.24,0a3.878,3.878,0,0,0,2.16-.672l-.4-.72a2.809,2.809,0,0,1-1.632.516A2.159,2.159,0,0,1,131.532-3h4.392a4.263,4.263,0,0,0,.048-.624c0-1.86-.936-3.06-2.592-3.06a3.152,3.152,0,0,0-2.94,3.432A3.114,3.114,0,0,0,133.56.156Zm-2.04-3.948a2,2,0,0,1,1.872-2.016c1.02,0,1.62.708,1.62,2.016ZM139.5.156a2.906,2.906,0,0,0,1.98-.924h.036l.1.768h.888V-9.552h-1.08v2.508l.048,1.128a2.651,2.651,0,0,0-1.836-.768c-1.488,0-2.82,1.32-2.82,3.432C136.812-1.08,137.868.156,139.5.156Zm.24-.912c-1.152,0-1.8-.936-1.8-2.508,0-1.488.828-2.5,1.884-2.5a2.335,2.335,0,0,1,1.6.684v3.42A2.281,2.281,0,0,1,139.74-.756Zm9.6.912a3.111,3.111,0,0,0,3.024-3.408,3.126,3.126,0,0,0-3.024-3.432,3.126,3.126,0,0,0-3.024,3.432A3.111,3.111,0,0,0,149.34.156Zm0-.912c-1.128,0-1.884-1-1.884-2.5s.756-2.52,1.884-2.52,1.9,1.02,1.9,2.52S150.468-.756,149.34-.756ZM153.78,0h1.092V-4.728a2.478,2.478,0,0,1,1.788-1c.864,0,1.236.516,1.236,1.74V0h1.092V-4.128c0-1.668-.624-2.556-1.992-2.556a3.125,3.125,0,0,0-2.184,1.1h-.036l-.1-.936h-.9Zm9.42,0h1.092V-4.188c.432-1.116,1.1-1.5,1.644-1.5a1.542,1.542,0,0,1,.636.108l.2-.96a1.389,1.389,0,0,0-.7-.144,2.25,2.25,0,0,0-1.848,1.356H164.2l-.1-1.188h-.9Zm6.852.156a3.878,3.878,0,0,0,2.16-.672l-.4-.72a2.809,2.809,0,0,1-1.632.516A2.159,2.159,0,0,1,168.024-3h4.392a4.263,4.263,0,0,0,.048-.624c0-1.86-.936-3.06-2.592-3.06a3.152,3.152,0,0,0-2.94,3.432A3.114,3.114,0,0,0,170.052.156Zm-2.04-3.948a2,2,0,0,1,1.872-2.016c1.02,0,1.62.708,1.62,2.016ZM175.08.156a3.491,3.491,0,0,0,2.16-.936h.036l.1.78h.9V-4.008c0-1.608-.672-2.676-2.256-2.676a4.9,4.9,0,0,0-2.568.852l.432.756a3.59,3.59,0,0,1,1.956-.7c1.068,0,1.344.8,1.344,1.644-2.772.312-4.008,1.02-4.008,2.436A1.767,1.767,0,0,0,175.08.156Zm.312-.876c-.648,0-1.152-.3-1.152-1.044,0-.84.744-1.38,2.94-1.644v1.824A2.663,2.663,0,0,1,175.392-.72ZM181.2.156a1.681,1.681,0,0,0,.636-.1l-.156-.84a.959.959,0,0,1-.228.024c-.168,0-.312-.132-.312-.468V-9.552h-1.092V-1.3C180.048-.372,180.384.156,181.2.156Zm1.416-3.1h3.072v-.84h-3.072Zm6.12,3.1a4.1,4.1,0,0,0,1.2-.24L189.72-.9a2.309,2.309,0,0,1-.744.168c-.756,0-1.008-.456-1.008-1.26V-5.628h1.764v-.888h-1.764V-8.352h-.912l-.132,1.836-1.02.06v.828h.972v3.612C186.876-.72,187.344.156,188.736.156ZM190.908,0H192V-6.516h-1.092Zm.552-7.86a.693.693,0,0,0,.732-.732.687.687,0,0,0-.732-.708.687.687,0,0,0-.732.708A.693.693,0,0,0,191.46-7.86ZM193.908,0H195V-4.728a2.407,2.407,0,0,1,1.644-1c.828,0,1.212.516,1.212,1.74V0h1.092V-4.728a2.407,2.407,0,0,1,1.644-1c.828,0,1.212.516,1.212,1.74V0H202.9V-4.128c0-1.668-.636-2.556-1.98-2.556a3.08,3.08,0,0,0-2.148,1.248,1.718,1.718,0,0,0-1.8-1.248,2.863,2.863,0,0,0-2.028,1.116H194.9l-.1-.948h-.9Zm13.44.156a3.878,3.878,0,0,0,2.16-.672l-.4-.72a2.809,2.809,0,0,1-1.632.516A2.159,2.159,0,0,1,205.32-3h4.392a4.263,4.263,0,0,0,.048-.624c0-1.86-.936-3.06-2.592-3.06a3.152,3.152,0,0,0-2.94,3.432A3.114,3.114,0,0,0,207.348.156Zm-2.04-3.948a2,2,0,0,1,1.872-2.016c1.02,0,1.62.708,1.62,2.016ZM2.6,18.156a3.491,3.491,0,0,0,2.16-.936H4.8l.1.78h.9V13.992c0-1.608-.672-2.676-2.256-2.676a4.9,4.9,0,0,0-2.568.852l.432.756a3.59,3.59,0,0,1,1.956-.7c1.068,0,1.344.8,1.344,1.644C1.932,14.184.7,14.892.7,16.308A1.767,1.767,0,0,0,2.6,18.156Zm.312-.876c-.648,0-1.152-.3-1.152-1.044,0-.84.744-1.38,2.94-1.644v1.824A2.663,2.663,0,0,1,2.916,17.28ZM7.572,18H8.664V13.272a2.478,2.478,0,0,1,1.788-1c.864,0,1.236.516,1.236,1.74V18H12.78V13.872c0-1.668-.624-2.556-1.992-2.556A3.125,3.125,0,0,0,8.6,12.42H8.568l-.1-.936h-.9Zm8.532.156a3.491,3.491,0,0,0,2.16-.936H18.3l.1.78h.9V13.992c0-1.608-.672-2.676-2.256-2.676a4.9,4.9,0,0,0-2.568.852l.432.756a3.59,3.59,0,0,1,1.956-.7c1.068,0,1.344.8,1.344,1.644-2.772.312-4.008,1.02-4.008,2.436A1.767,1.767,0,0,0,16.1,18.156Zm.312-.876c-.648,0-1.152-.3-1.152-1.044,0-.84.744-1.38,2.94-1.644v1.824A2.663,2.663,0,0,1,16.416,17.28Zm5.808.876a1.681,1.681,0,0,0,.636-.1l-.156-.84a.959.959,0,0,1-.228.024c-.168,0-.312-.132-.312-.468V8.448H21.072V16.7C21.072,17.628,21.408,18.156,22.224,18.156ZM24.3,20.808c1.3,0,1.98-.984,2.424-2.268l2.46-7.056H28.116l-1.164,3.624c-.18.576-.372,1.236-.552,1.824h-.06c-.2-.588-.432-1.26-.624-1.824l-1.332-3.624h-1.14l2.616,6.528-.144.492c-.264.8-.732,1.4-1.476,1.4a1.557,1.557,0,0,1-.492-.108l-.216.876A2.006,2.006,0,0,0,24.3,20.808Zm7.548-2.652c1.536,0,2.376-.876,2.376-1.932,0-1.236-1.044-1.62-1.992-1.98-.732-.276-1.4-.5-1.4-1.128,0-.5.384-.936,1.212-.936a2.386,2.386,0,0,1,1.476.576l.528-.708a3.312,3.312,0,0,0-2.016-.732c-1.416,0-2.256.816-2.256,1.848,0,1.1,1,1.548,1.908,1.884.72.276,1.488.564,1.488,1.236,0,.564-.42,1.02-1.284,1.02a2.955,2.955,0,0,1-1.932-.768l-.54.72A3.93,3.93,0,0,0,31.848,18.156ZM35.46,18h1.092V11.484H35.46Zm.552-7.86a.72.72,0,1,0-.732-.732A.693.693,0,0,0,36.012,10.14Zm4.152,8.016c1.536,0,2.376-.876,2.376-1.932,0-1.236-1.044-1.62-1.992-1.98-.732-.276-1.4-.5-1.4-1.128,0-.5.384-.936,1.212-.936a2.386,2.386,0,0,1,1.476.576l.528-.708a3.312,3.312,0,0,0-2.016-.732c-1.416,0-2.256.816-2.256,1.848,0,1.1,1,1.548,1.908,1.884.72.276,1.488.564,1.488,1.236,0,.564-.42,1.02-1.284,1.02a2.955,2.955,0,0,1-1.932-.768l-.54.72A3.93,3.93,0,0,0,40.164,18.156Zm8.532,0a3.111,3.111,0,0,0,3.024-3.408,3.048,3.048,0,1,0-6.048,0A3.111,3.111,0,0,0,48.7,18.156Zm0-.912c-1.128,0-1.884-1-1.884-2.5s.756-2.52,1.884-2.52,1.9,1.02,1.9,2.52S49.824,17.244,48.7,17.244Zm4.62.756h1.092V12.372h1.38v-.888h-1.38V10.452c0-.84.3-1.284.924-1.284a1.85,1.85,0,0,1,.732.168l.24-.828a2.81,2.81,0,0,0-1.092-.216c-1.3,0-1.9.828-1.9,2.148v1.044l-.888.06v.828h.888Zm7.512.156c1.536,0,2.376-.876,2.376-1.932,0-1.236-1.044-1.62-1.992-1.98-.732-.276-1.4-.5-1.4-1.128,0-.5.384-.936,1.212-.936a2.386,2.386,0,0,1,1.476.576l.528-.708a3.312,3.312,0,0,0-2.016-.732c-1.416,0-2.256.816-2.256,1.848,0,1.1,1,1.548,1.908,1.884.72.276,1.488.564,1.488,1.236,0,.564-.42,1.02-1.284,1.02a2.955,2.955,0,0,1-1.932-.768l-.54.72A3.93,3.93,0,0,0,60.828,18.156Zm5.4,0a4.1,4.1,0,0,0,1.2-.24l-.216-.816a2.308,2.308,0,0,1-.744.168c-.756,0-1.008-.456-1.008-1.26V12.372h1.764v-.888H65.46V9.648h-.912l-.132,1.836-1.02.06v.828h.972v3.612C64.368,17.28,64.836,18.156,66.228,18.156Zm4.068,0a2.8,2.8,0,0,0,2.16-1.176h.036L72.576,18h.912V11.484H72.4V16.1c-.624.78-1.092,1.1-1.764,1.1-.864,0-1.224-.516-1.224-1.728v-4H68.316v4.128C68.316,17.268,68.928,18.156,70.3,18.156Zm7.308,0a2.906,2.906,0,0,0,1.98-.924h.036l.1.768H80.6V8.448h-1.08v2.508l.048,1.128a2.651,2.651,0,0,0-1.836-.768c-1.488,0-2.82,1.32-2.82,3.432C74.916,16.92,75.972,18.156,77.6,18.156Zm.24-.912c-1.152,0-1.8-.936-1.8-2.508,0-1.488.828-2.5,1.884-2.5a2.335,2.335,0,0,1,1.6.684v3.42A2.281,2.281,0,0,1,77.844,17.244Zm7.308.912a3.878,3.878,0,0,0,2.16-.672l-.4-.72a2.809,2.809,0,0,1-1.632.516A2.159,2.159,0,0,1,83.124,15h4.392a4.263,4.263,0,0,0,.048-.624c0-1.86-.936-3.06-2.592-3.06a3.152,3.152,0,0,0-2.94,3.432A3.114,3.114,0,0,0,85.152,18.156Zm-2.04-3.948a2,2,0,0,1,1.872-2.016c1.02,0,1.62.708,1.62,2.016ZM88.872,18h1.092V13.272a2.478,2.478,0,0,1,1.788-1c.864,0,1.236.516,1.236,1.74V18H94.08V13.872c0-1.668-.624-2.556-1.992-2.556a3.125,3.125,0,0,0-2.184,1.1h-.036l-.1-.936h-.9Zm9.084.156a4.1,4.1,0,0,0,1.2-.24L98.94,17.1a2.308,2.308,0,0,1-.744.168c-.756,0-1.008-.456-1.008-1.26V12.372h1.764v-.888H97.188V9.648h-.912l-.132,1.836-1.02.06v.828H96.1v3.612C96.1,17.28,96.564,18.156,97.956,18.156Zm2.22-5.94A2.607,2.607,0,0,0,101.6,9.84c0-.768-.312-1.212-.852-1.212a.671.671,0,0,0-.7.732.664.664,0,0,0,.7.684.45.45,0,0,0,.132-.012,1.881,1.881,0,0,1-1.02,1.668Zm4.032,5.94c1.536,0,2.376-.876,2.376-1.932,0-1.236-1.044-1.62-1.992-1.98-.732-.276-1.4-.5-1.4-1.128,0-.5.384-.936,1.212-.936a2.386,2.386,0,0,1,1.476.576l.528-.708a3.312,3.312,0,0,0-2.016-.732c-1.416,0-2.256.816-2.256,1.848,0,1.1,1,1.548,1.908,1.884.72.276,1.488.564,1.488,1.236,0,.564-.42,1.02-1.284,1.02a2.955,2.955,0,0,1-1.932-.768l-.54.72A3.93,3.93,0,0,0,104.208,18.156ZM111.24,18h1.284l.912-3.492c.168-.624.3-1.236.444-1.9h.06c.156.66.276,1.26.444,1.872L115.332,18h1.32l1.752-6.516h-1.032l-.96,3.768c-.144.624-.264,1.212-.408,1.824h-.048c-.156-.612-.3-1.2-.456-1.824l-1.02-3.768h-1.068L112.4,15.252c-.168.612-.3,1.212-.444,1.824h-.06c-.12-.612-.252-1.2-.384-1.824l-.972-3.768h-1.116Zm10.776.156a3.111,3.111,0,0,0,3.024-3.408,3.048,3.048,0,1,0-6.048,0A3.111,3.111,0,0,0,122.016,18.156Zm0-.912c-1.128,0-1.884-1-1.884-2.5s.756-2.52,1.884-2.52,1.9,1.02,1.9,2.52S123.144,17.244,122.016,17.244Zm4.44.756h1.092V13.812c.432-1.116,1.1-1.5,1.644-1.5a1.542,1.542,0,0,1,.636.108l.2-.96a1.389,1.389,0,0,0-.7-.144,2.25,2.25,0,0,0-1.848,1.356h-.036l-.1-1.188h-.9Zm4.356,0h1.08V16.284l1.224-1.428L135.024,18h1.188l-2.46-3.888,2.172-2.628H134.7l-2.772,3.444h-.036V8.448h-1.08Zm7.056.156a.793.793,0,0,0,.792-.828.794.794,0,1,0-1.584,0A.793.793,0,0,0,137.868,18.156Z" transform="translate(57 249.146)" fill="#323c46"/><path d="M6.864,30.338c3.38,0,6.11-1.976,6.11-5.278a4.854,4.854,0,0,0-4.03-4.732v-.1a4.557,4.557,0,0,0,3.38-4.394c0-3.016-2.34-4.706-5.538-4.706a7.545,7.545,0,0,0-5.33,2.314L2.73,14.92a5.591,5.591,0,0,1,3.952-1.872c1.976,0,3.224,1.144,3.224,2.938,0,1.95-1.352,3.484-5.278,3.484v1.82c4.394,0,5.928,1.456,5.928,3.666,0,2.08-1.612,3.406-3.874,3.406A6.3,6.3,0,0,1,1.95,26.178l-1.2,1.56A7.89,7.89,0,0,0,6.864,30.338Zm16.874,0c3.328,0,5.148-1.9,5.148-4.186,0-2.678-2.262-3.51-4.316-4.29-1.586-.6-3.042-1.092-3.042-2.444,0-1.092.832-2.028,2.626-2.028a5.169,5.169,0,0,1,3.2,1.248L28.5,17.1a7.175,7.175,0,0,0-4.368-1.586c-3.068,0-4.888,1.768-4.888,4,0,2.392,2.158,3.354,4.134,4.082,1.56.6,3.224,1.222,3.224,2.678,0,1.222-.91,2.21-2.782,2.21a6.4,6.4,0,0,1-4.186-1.664l-1.17,1.56A8.516,8.516,0,0,0,23.738,30.338Zm12.87,0a8.4,8.4,0,0,0,4.68-1.456l-.858-1.56a6.086,6.086,0,0,1-3.536,1.118c-2.678,0-4.524-1.924-4.68-4.94H41.73a9.236,9.236,0,0,0,.1-1.352c0-4.03-2.028-6.63-5.616-6.63-3.276,0-6.37,2.86-6.37,7.436C29.848,27.608,32.864,30.338,36.608,30.338Zm-4.42-8.554c.286-2.756,2.054-4.368,4.056-4.368,2.21,0,3.51,1.534,3.51,4.368Zm17.394,8.554a6.845,6.845,0,0,0,4.576-1.794l-1.04-1.586a4.978,4.978,0,0,1-3.328,1.4c-2.6,0-4.368-2.158-4.368-5.408s1.872-5.46,4.446-5.46a4.174,4.174,0,0,1,2.808,1.248l1.222-1.56a6.036,6.036,0,0,0-4.134-1.664c-3.614,0-6.812,2.73-6.812,7.436C42.952,27.634,45.838,30.338,49.582,30.338Zm11.232,0c3.458,0,6.552-2.7,6.552-7.384,0-4.706-3.094-7.436-6.552-7.436s-6.552,2.73-6.552,7.436C54.262,27.634,57.356,30.338,60.814,30.338Zm0-1.976c-2.444,0-4.082-2.158-4.082-5.408s1.638-5.46,4.082-5.46,4.108,2.21,4.108,5.46S63.258,28.362,60.814,28.362ZM69.784,30H72.15V19.756c1.43-1.43,2.418-2.158,3.874-2.158,1.872,0,2.678,1.118,2.678,3.77V30h2.366V21.056c0-3.614-1.352-5.538-4.316-5.538-1.924,0-3.38,1.066-4.732,2.392h-.078l-.208-2.028h-1.95Zm19.4.338a6.3,6.3,0,0,0,4.29-2h.078L93.756,30H95.68V9.3H93.34v5.434l.1,2.444a5.744,5.744,0,0,0-3.978-1.664c-3.224,0-6.11,2.86-6.11,7.436C83.356,27.66,85.644,30.338,89.18,30.338Zm.52-1.976c-2.5,0-3.9-2.028-3.9-5.434,0-3.224,1.794-5.408,4.082-5.408A5.058,5.058,0,0,1,93.34,19v7.41A4.942,4.942,0,0,1,89.7,28.362Zm13.182,1.976c3.328,0,5.148-1.9,5.148-4.186,0-2.678-2.262-3.51-4.316-4.29-1.586-.6-3.042-1.092-3.042-2.444,0-1.092.832-2.028,2.626-2.028a5.169,5.169,0,0,1,3.2,1.248L107.64,17.1a7.175,7.175,0,0,0-4.368-1.586c-3.068,0-4.888,1.768-4.888,4,0,2.392,2.158,3.354,4.134,4.082,1.56.6,3.224,1.222,3.224,2.678,0,1.222-.91,2.21-2.782,2.21a6.4,6.4,0,0,1-4.186-1.664l-1.17,1.56A8.516,8.516,0,0,0,102.882,30.338Zm-97.24,28a7.564,7.564,0,0,0,4.68-2.028H10.4L10.608,58h1.95V49.316c0-3.484-1.456-5.8-4.888-5.8a10.619,10.619,0,0,0-5.564,1.846L3.042,47A7.778,7.778,0,0,1,7.28,45.494c2.314,0,2.912,1.742,2.912,3.562-6.006.676-8.684,2.21-8.684,5.278A3.828,3.828,0,0,0,5.642,58.338Zm.676-1.9c-1.4,0-2.5-.65-2.5-2.262,0-1.82,1.612-2.99,6.37-3.562v3.952C8.814,55.79,7.7,56.44,6.318,56.44ZM15.756,58h2.366V48.926c.936-2.418,2.392-3.25,3.562-3.25a3.34,3.34,0,0,1,1.378.234l.442-2.08A3.01,3.01,0,0,0,22,43.518c-1.586,0-3.016,1.144-4,2.938h-.078l-.208-2.574h-1.95Zm14.2.338a8.4,8.4,0,0,0,4.68-1.456l-.858-1.56a6.086,6.086,0,0,1-3.536,1.118c-2.678,0-4.524-1.924-4.68-4.94h9.516a9.236,9.236,0,0,0,.1-1.352c0-4.03-2.028-6.63-5.616-6.63-3.276,0-6.37,2.86-6.37,7.436C23.192,55.608,26.208,58.338,29.952,58.338Zm-4.42-8.554c.286-2.756,2.054-4.368,4.056-4.368,2.21,0,3.51,1.534,3.51,4.368ZM47.58,58.338a8.4,8.4,0,0,0,4.68-1.456l-.858-1.56a6.086,6.086,0,0,1-3.536,1.118c-2.678,0-4.524-1.924-4.68-4.94H52.7a9.236,9.236,0,0,0,.1-1.352c0-4.03-2.028-6.63-5.616-6.63-3.276,0-6.37,2.86-6.37,7.436C40.82,55.608,43.836,58.338,47.58,58.338Zm-4.42-8.554c.286-2.756,2.054-4.368,4.056-4.368,2.21,0,3.51,1.534,3.51,4.368ZM54.99,58h2.366V47.756c1.43-1.43,2.418-2.158,3.874-2.158,1.872,0,2.678,1.118,2.678,3.77V58h2.366V49.056c0-3.614-1.352-5.538-4.316-5.538-1.924,0-3.38,1.066-4.732,2.392h-.078l-.208-2.028H54.99Zm20.072.338c3.458,0,6.552-2.7,6.552-7.384,0-4.706-3.094-7.436-6.552-7.436s-6.552,2.73-6.552,7.436C68.51,55.634,71.6,58.338,75.062,58.338Zm0-1.976c-2.444,0-4.082-2.158-4.082-5.408s1.638-5.46,4.082-5.46,4.108,2.21,4.108,5.46S77.506,56.362,75.062,56.362ZM88.14,58.338c1.95,0,3.354-1.014,4.68-2.548H92.9L93.08,58h1.976V43.882H92.69v10.01c-1.352,1.69-2.366,2.392-3.822,2.392-1.872,0-2.652-1.118-2.652-3.744V43.882H83.85v8.944C83.85,56.414,85.176,58.338,88.14,58.338ZM103.272,64.5c4.368,0,7.15-2.262,7.15-4.888,0-2.314-1.664-3.354-4.94-3.354h-2.756c-1.9,0-2.47-.624-2.47-1.534a2.1,2.1,0,0,1,.91-1.69,4.911,4.911,0,0,0,2.106.494,4.841,4.841,0,0,0,5.148-4.914,4.032,4.032,0,0,0-1.144-2.912h2.886v-1.82h-4.914a5.824,5.824,0,0,0-1.976-.364,5.029,5.029,0,0,0-5.3,5.044,4.956,4.956,0,0,0,1.846,3.8v.1a3.445,3.445,0,0,0-1.586,2.626,2.553,2.553,0,0,0,1.3,2.314v.1a3.962,3.962,0,0,0-2.08,3.2C97.448,63.148,99.814,64.5,103.272,64.5Zm0-12.584a3.094,3.094,0,0,1-3.016-3.354,3.028,3.028,0,1,1,6.032,0A3.109,3.109,0,0,1,103.272,51.916Zm.338,10.972c-2.548,0-4.082-.988-4.082-2.5A2.943,2.943,0,0,1,100.958,58a7.941,7.941,0,0,0,1.82.234h2.444c1.872,0,2.886.442,2.886,1.742C108.108,61.458,106.314,62.888,103.61,62.888ZM111.852,58h2.366V47.756c1.43-1.43,2.418-2.158,3.874-2.158,1.872,0,2.678,1.118,2.678,3.77V58h2.366V49.056c0-3.614-1.352-5.538-4.316-5.538a6.629,6.629,0,0,0-4.68,2.366l.078-2.912V37.3h-2.366Zm15.47-5.746h1.638l.312-11.024.078-2.7h-2.418l.078,2.7Zm.806,6.084a1.7,1.7,0,0,0,1.716-1.794,1.718,1.718,0,1,0-1.716,1.794Z" transform="translate(57 163.346)" fill="#00c3e1"/><path d="M16.127,0H27.639a16.127,16.127,0,0,1,0,32.253H16.127A16.127,16.127,0,0,1,16.127,0Z" transform="translate(51.274 139.777) rotate(-45)" fill="url(#a)"/><path d="M-8.562-21.63a1.353,1.353,0,0,1,.738.2,1.569,1.569,0,0,1,.541.771l3.69,9.512a.972.972,0,0,1,0,.82.965.965,0,0,1-.59.476,1.469,1.469,0,0,1-.812.033.853.853,0,0,1-.582-.623l-.951-2.624h-4.133l-.968,2.69a.815.815,0,0,1-.549.566,1.354,1.354,0,0,1-.763-.041,1,1,0,0,1-.574-.443.862.862,0,0,1,0-.771l3.69-9.594a1.466,1.466,0,0,1,.533-.771A1.364,1.364,0,0,1-8.562-21.63Zm-.033,2.624q-.131.492-.254.877t-.32.943l-.869,2.378h2.886L-8-17.186q-.213-.574-.336-.984T-8.595-19.006ZM-.51-21.63a1.275,1.275,0,0,1,.738.213.775.775,0,0,1,.312.689v10.053a.775.775,0,0,1-.312.689,1.275,1.275,0,0,1-.738.213,1.275,1.275,0,0,1-.738-.213.775.775,0,0,1-.312-.689V-20.728a.775.775,0,0,1,.312-.689A1.275,1.275,0,0,1-.51-21.63Z" transform="translate(84.421 151.045)" fill="#fff" stroke="#fff" stroke-width="1.5"/><path d="M0,0H41V41H0Z" transform="translate(57.834 115)" fill="#fff" opacity="0"/><path d="M1.68-6.36A3.714,3.714,0,0,0,3.93-9.84c0-1.275-.51-2.025-1.455-2.025a1.174,1.174,0,0,0-1.2,1.26,1.138,1.138,0,0,0,1.2,1.155.615.615,0,0,0,.165-.015A2.338,2.338,0,0,1,1.17-7.32ZM7.035.21c2.19,0,3.345-1.185,3.345-2.655,0-1.56-1.23-2.115-2.34-2.535-.885-.33-1.665-.555-1.665-1.17,0-.48.36-.81,1.125-.81a3.127,3.127,0,0,1,1.8.72l.99-1.335A4.656,4.656,0,0,0,7.44-8.61C5.52-8.61,4.3-7.545,4.3-6.045c0,1.41,1.185,2.055,2.25,2.46.885.345,1.755.63,1.755,1.26,0,.525-.375.885-1.215.885a3.647,3.647,0,0,1-2.25-.915l-1,1.38A5.328,5.328,0,0,0,7.035.21ZM13.965,0h2.2V-5.01c.465-1.215,1.26-1.65,1.92-1.65a2.806,2.806,0,0,1,.885.135l.375-1.9a2.376,2.376,0,0,0-.99-.18,2.91,2.91,0,0,0-2.385,1.695H15.93L15.765-8.4h-1.8Zm9.27.21A5.288,5.288,0,0,0,26.16-.72l-.75-1.35a3.462,3.462,0,0,1-1.89.585,2.207,2.207,0,0,1-2.325-2.1H26.37a4.145,4.145,0,0,0,.105-1.02c0-2.31-1.2-4-3.51-4A4.117,4.117,0,0,0,19.05-4.2,4.078,4.078,0,0,0,23.235.21Zm-2.07-5.265A1.891,1.891,0,0,1,22.995-6.9c1.08,0,1.59.72,1.59,1.845ZM29.4.21A3.95,3.95,0,0,0,31.935-.9H32l.15.9h1.8V-4.905c0-2.43-1.095-3.7-3.225-3.7A6.711,6.711,0,0,0,27.21-7.5l.8,1.455a4.746,4.746,0,0,1,2.31-.8c1.035,0,1.4.63,1.44,1.455-3.39.36-4.845,1.3-4.845,3.105A2.386,2.386,0,0,0,29.4.21Zm.72-1.725c-.645,0-1.11-.285-1.11-.945,0-.75.69-1.32,2.745-1.575v1.7A2.283,2.283,0,0,1,30.12-1.515ZM37.515.21a2.944,2.944,0,0,0,1.14-.2l-.27-1.635a1.243,1.243,0,0,1-.3.03c-.21,0-.435-.165-.435-.675V-11.97h-2.2v9.615C35.445-.8,35.985.21,37.515.21ZM38.97-3.51h4.1V-5.085h-4.1ZM46.9.21a5.428,5.428,0,0,0,1.77-.315l-.36-1.605a2.454,2.454,0,0,1-.825.18c-.75,0-1.14-.45-1.14-1.41V-6.66h2.07V-8.4H46.35v-2.265H44.52L44.265-8.4l-1.305.1V-6.66h1.185v3.72C44.145-1.065,44.91.21,46.9.21ZM49.38,0h2.2V-8.4h-2.2Zm1.11-9.75a1.182,1.182,0,0,0,1.275-1.215,1.179,1.179,0,0,0-1.275-1.2,1.183,1.183,0,0,0-1.29,1.2A1.186,1.186,0,0,0,50.49-9.75ZM53.19,0h2.2V-5.775A2.394,2.394,0,0,1,57-6.72c.8,0,1.185.45,1.185,1.755V0h2.19V-5.775A2.451,2.451,0,0,1,62-6.72c.795,0,1.17.45,1.17,1.755V0H65.37V-5.235c0-2.115-.825-3.375-2.61-3.375a3.725,3.725,0,0,0-2.67,1.47,2.286,2.286,0,0,0-2.31-1.47A3.537,3.537,0,0,0,55.2-7.275h-.045L54.99-8.4h-1.8ZM70.56.21a5.288,5.288,0,0,0,2.925-.93l-.75-1.35a3.462,3.462,0,0,1-1.89.585,2.207,2.207,0,0,1-2.325-2.1H73.7a4.146,4.146,0,0,0,.1-1.02c0-2.31-1.2-4-3.51-4A4.117,4.117,0,0,0,66.375-4.2,4.078,4.078,0,0,0,70.56.21ZM68.49-5.055A1.891,1.891,0,0,1,70.32-6.9c1.08,0,1.59.72,1.59,1.845ZM79.59.21A3.95,3.95,0,0,0,82.125-.9h.06l.15.9h1.8V-4.905c0-2.43-1.1-3.7-3.225-3.7A6.71,6.71,0,0,0,77.4-7.5L78.2-6.045a4.746,4.746,0,0,1,2.31-.8c1.035,0,1.4.63,1.44,1.455-3.39.36-4.845,1.3-4.845,3.105A2.386,2.386,0,0,0,79.59.21Zm.72-1.725c-.645,0-1.11-.285-1.11-.945,0-.75.69-1.32,2.745-1.575v1.7A2.283,2.283,0,0,1,80.31-1.515ZM85.635,0H87.84V-5.775a2.361,2.361,0,0,1,1.74-.945c.825,0,1.185.45,1.185,1.755V0h2.2V-5.235c0-2.115-.78-3.375-2.595-3.375a3.872,3.872,0,0,0-2.73,1.32H87.6L87.435-8.4h-1.8ZM96.57.21A3.95,3.95,0,0,0,99.105-.9h.06l.15.9h1.8V-4.905c0-2.43-1.1-3.7-3.225-3.7A6.71,6.71,0,0,0,94.38-7.5l.795,1.455a4.746,4.746,0,0,1,2.31-.8c1.035,0,1.4.63,1.44,1.455-3.39.36-4.845,1.3-4.845,3.105A2.386,2.386,0,0,0,96.57.21Zm.72-1.725c-.645,0-1.11-.285-1.11-.945,0-.75.69-1.32,2.745-1.575v1.7A2.283,2.283,0,0,1,97.29-1.515ZM104.685.21a2.944,2.944,0,0,0,1.14-.2l-.27-1.635a1.243,1.243,0,0,1-.3.03c-.21,0-.435-.165-.435-.675V-11.97h-2.205v9.615C102.615-.8,103.155.21,104.685.21Zm2.64,3.165c1.875,0,2.775-1.14,3.51-3.12L113.82-8.4h-2.115L110.55-4.5c-.2.78-.405,1.59-.6,2.37h-.075c-.24-.81-.45-1.62-.705-2.37l-1.335-3.9h-2.22l3.27,8.25-.15.5A1.608,1.608,0,0,1,107.16,1.62a2.259,2.259,0,0,1-.585-.1l-.4,1.7A3.557,3.557,0,0,0,107.325,3.375ZM116.85.21c2.19,0,3.345-1.185,3.345-2.655,0-1.56-1.23-2.115-2.34-2.535-.885-.33-1.665-.555-1.665-1.17,0-.48.36-.81,1.125-.81a3.127,3.127,0,0,1,1.8.72l.99-1.335a4.656,4.656,0,0,0-2.85-1.035c-1.92,0-3.135,1.065-3.135,2.565,0,1.41,1.185,2.055,2.25,2.46.885.345,1.755.63,1.755,1.26,0,.525-.375.885-1.215.885a3.647,3.647,0,0,1-2.25-.915l-1,1.38A5.328,5.328,0,0,0,116.85.21ZM121.125,0h2.205V-8.4h-2.205Zm1.11-9.75a1.182,1.182,0,0,0,1.275-1.215,1.179,1.179,0,0,0-1.275-1.2,1.183,1.183,0,0,0-1.29,1.2A1.186,1.186,0,0,0,122.235-9.75Zm5.1,9.96c2.19,0,3.345-1.185,3.345-2.655,0-1.56-1.23-2.115-2.34-2.535-.885-.33-1.665-.555-1.665-1.17,0-.48.36-.81,1.125-.81a3.127,3.127,0,0,1,1.8.72l.99-1.335a4.656,4.656,0,0,0-2.85-1.035c-1.92,0-3.135,1.065-3.135,2.565,0,1.41,1.185,2.055,2.25,2.46.885.345,1.755.63,1.755,1.26,0,.525-.375.885-1.215.885a3.647,3.647,0,0,1-2.25-.915l-1,1.38A5.328,5.328,0,0,0,127.335.21Z" transform="translate(105.344 140.693)" fill="#f5b400"/><path d="M16.127,0H27.639a16.127,16.127,0,0,1,0,32.253H16.127A16.127,16.127,0,0,1,16.127,0Z" transform="translate(51.274 139.777) rotate(-45)" fill="url(#a)"/><path d="M-8.562-21.63a1.353,1.353,0,0,1,.738.2,1.569,1.569,0,0,1,.541.771l3.69,9.512a.972.972,0,0,1,0,.82.965.965,0,0,1-.59.476,1.469,1.469,0,0,1-.812.033.853.853,0,0,1-.582-.623l-.951-2.624h-4.133l-.968,2.69a.815.815,0,0,1-.549.566,1.354,1.354,0,0,1-.763-.041,1,1,0,0,1-.574-.443.862.862,0,0,1,0-.771l3.69-9.594a1.466,1.466,0,0,1,.533-.771A1.364,1.364,0,0,1-8.562-21.63Zm-.033,2.624q-.131.492-.254.877t-.32.943l-.869,2.378h2.886L-8-17.186q-.213-.574-.336-.984T-8.595-19.006ZM-.51-21.63a1.275,1.275,0,0,1,.738.213.775.775,0,0,1,.312.689v10.053a.775.775,0,0,1-.312.689,1.275,1.275,0,0,1-.738.213,1.275,1.275,0,0,1-.738-.213.775.775,0,0,1-.312-.689V-20.728a.775.775,0,0,1,.312-.689A1.275,1.275,0,0,1-.51-21.63Z" transform="translate(84.421 151.045)" fill="#fff" stroke="#fff" stroke-width="1.5"/><path d="M0,0H41V41H0Z" transform="translate(57.834 115)" fill="#fff" opacity="0"/><rect width="246" height="154" transform="translate(57 115)" fill="none"/></g></svg>