<svg xmlns="http://www.w3.org/2000/svg" xmlns:xlink="http://www.w3.org/1999/xlink" width="251.233" height="157.776" viewBox="0 0 251.233 157.776"><defs><linearGradient id="a" x1="0.045" y1="0.441" x2="1.127" y2="0.827" gradientUnits="objectBoundingBox"><stop offset="0" stop-color="#f5b400"/><stop offset="1" stop-color="#ffc823"/></linearGradient></defs><g transform="translate(-50.314 -108.83)"><path d="M2.5-4.51c.286-.913.55-1.782.8-2.728h.044c.264.935.517,1.815.814,2.728l.385,1.232H2.1ZM.033,0H1.067l.781-2.464H4.8L5.566,0H6.644L3.905-8.074H2.772ZM7.5,0H8.525V-8.074H7.5ZM14.96.143a3.555,3.555,0,0,0,1.98-.616l-.363-.66a2.575,2.575,0,0,1-1.5.473A1.979,1.979,0,0,1,13.1-2.75h4.026a3.908,3.908,0,0,0,.044-.572c0-1.705-.858-2.805-2.376-2.805A2.889,2.889,0,0,0,12.1-2.981,2.855,2.855,0,0,0,14.96.143ZM13.09-3.476a1.835,1.835,0,0,1,1.716-1.848c.935,0,1.485.649,1.485,1.848ZM19.712,0h1.166L23-5.973h-.99l-1.133,3.4c-.176.583-.363,1.2-.55,1.76h-.044c-.187-.561-.374-1.177-.561-1.76L18.6-5.973H17.556Zm5.3.143a3.2,3.2,0,0,0,1.98-.858h.033L27.115,0h.825V-3.674c0-1.474-.616-2.453-2.068-2.453a4.493,4.493,0,0,0-2.354.781l.4.693a3.291,3.291,0,0,1,1.793-.638c.979,0,1.232.737,1.232,1.507-2.541.286-3.674.935-3.674,2.233A1.619,1.619,0,0,0,25.014.143Zm.286-.8c-.594,0-1.056-.275-1.056-.957,0-.77.682-1.265,2.695-1.507v1.672A2.441,2.441,0,0,1,25.3-.66Zm5.324.8a1.541,1.541,0,0,0,.583-.088l-.143-.77a.879.879,0,0,1-.209.022c-.154,0-.286-.121-.286-.429V-8.756h-1v7.568C29.568-.341,29.876.143,30.624.143Zm3.542,0a2.562,2.562,0,0,0,1.98-1.078h.033L36.256,0h.836V-5.973h-1v4.235c-.572.715-1,1.012-1.617,1.012-.792,0-1.122-.473-1.122-1.584V-5.973h-1v3.784C32.351-.671,32.912.143,34.166.143Zm6.039,0a3.2,3.2,0,0,0,1.98-.858h.033L42.306,0h.825V-3.674c0-1.474-.616-2.453-2.068-2.453a4.493,4.493,0,0,0-2.354.781l.4.693A3.291,3.291,0,0,1,40.9-5.291c.979,0,1.232.737,1.232,1.507-2.541.286-3.674.935-3.674,2.233A1.619,1.619,0,0,0,40.205.143Zm.286-.8c-.594,0-1.056-.275-1.056-.957,0-.77.682-1.265,2.695-1.507v1.672A2.441,2.441,0,0,1,40.491-.66Zm5.984.8a3.76,3.76,0,0,0,1.1-.22l-.2-.748a2.116,2.116,0,0,1-.682.154c-.693,0-.924-.418-.924-1.155V-5.159h1.617v-.814H45.771V-7.656h-.836l-.121,1.683-.935.055v.759h.891v3.311C44.77-.66,45.2.143,46.475.143Zm4.235,0a3.555,3.555,0,0,0,1.98-.616l-.363-.66a2.575,2.575,0,0,1-1.5.473,1.979,1.979,0,0,1-1.98-2.09h4.026a3.908,3.908,0,0,0,.044-.572c0-1.705-.858-2.805-2.376-2.805A2.889,2.889,0,0,0,47.85-2.981,2.855,2.855,0,0,0,50.71.143ZM48.84-3.476a1.835,1.835,0,0,1,1.716-1.848c.935,0,1.485.649,1.485,1.848ZM55.682.143c1.408,0,2.178-.8,2.178-1.771,0-1.133-.957-1.485-1.826-1.815-.671-.253-1.287-.462-1.287-1.034,0-.462.352-.858,1.111-.858a2.187,2.187,0,0,1,1.353.528l.484-.649a3.036,3.036,0,0,0-1.848-.671c-1.3,0-2.068.748-2.068,1.694,0,1.012.913,1.419,1.749,1.727.66.253,1.364.517,1.364,1.133,0,.517-.385.935-1.177.935a2.709,2.709,0,0,1-1.771-.7l-.495.66A3.6,3.6,0,0,0,55.682.143Zm7.381,0a3.76,3.76,0,0,0,1.1-.22l-.2-.748a2.116,2.116,0,0,1-.682.154c-.693,0-.924-.418-.924-1.155V-5.159h1.617v-.814H62.359V-7.656h-.836L61.4-5.973l-.935.055v.759h.891v3.311C61.358-.66,61.787.143,63.063.143ZM65.054,0h1V-4.334a2.272,2.272,0,0,1,1.639-.913c.792,0,1.133.473,1.133,1.6V0h1V-3.784c0-1.529-.572-2.343-1.826-2.343a2.8,2.8,0,0,0-1.98,1l.033-1.232v-2.4h-1Zm8.811.143a3.555,3.555,0,0,0,1.98-.616l-.363-.66a2.575,2.575,0,0,1-1.5.473,1.979,1.979,0,0,1-1.98-2.09h4.026a3.907,3.907,0,0,0,.044-.572c0-1.705-.858-2.805-2.376-2.805A2.889,2.889,0,0,0,71-2.981,2.855,2.855,0,0,0,73.865.143ZM72-3.476a1.835,1.835,0,0,1,1.716-1.848c.935,0,1.485.649,1.485,1.848ZM81.785.143a2.852,2.852,0,0,0,2.772-3.124,2.866,2.866,0,0,0-2.772-3.146,2.866,2.866,0,0,0-2.772,3.146A2.852,2.852,0,0,0,81.785.143Zm0-.836c-1.034,0-1.727-.913-1.727-2.288s.693-2.31,1.727-2.31,1.738.935,1.738,2.31S82.819-.693,81.785-.693Zm4.07,3.212h1V.5L86.834-.55a2.7,2.7,0,0,0,1.65.693c1.375,0,2.6-1.177,2.6-3.223,0-1.837-.836-3.047-2.376-3.047a3.185,3.185,0,0,0-1.9.836h-.033l-.088-.682h-.825ZM88.319-.693a2.315,2.315,0,0,1-1.463-.627V-4.455a2.49,2.49,0,0,1,1.606-.825c1.133,0,1.573.891,1.573,2.211C90.035-1.584,89.309-.693,88.319-.693Zm5.753.836a3.76,3.76,0,0,0,1.1-.22l-.2-.748a2.116,2.116,0,0,1-.682.154c-.693,0-.924-.418-.924-1.155V-5.159h1.617v-.814H93.368V-7.656h-.836l-.121,1.683-.935.055v.759h.891v3.311C92.367-.66,92.8.143,94.072.143ZM96.063,0h1V-5.973h-1Zm.506-7.205a.635.635,0,0,0,.671-.671.63.63,0,0,0-.671-.649.63.63,0,0,0-.671.649A.635.635,0,0,0,96.569-7.205ZM98.813,0h1V-4.334a2.206,2.206,0,0,1,1.507-.913c.759,0,1.111.473,1.111,1.6V0h1V-4.334a2.206,2.206,0,0,1,1.507-.913c.759,0,1.111.473,1.111,1.6V0h1V-3.784c0-1.529-.583-2.343-1.815-2.343a2.824,2.824,0,0,0-1.969,1.144,1.575,1.575,0,0,0-1.65-1.144A2.624,2.624,0,0,0,99.759-5.1h-.033l-.088-.869h-.825ZM110.1.143a3.2,3.2,0,0,0,1.98-.858h.033L112.2,0h.825V-3.674c0-1.474-.616-2.453-2.068-2.453a4.493,4.493,0,0,0-2.354.781l.4.693a3.291,3.291,0,0,1,1.793-.638c.979,0,1.232.737,1.232,1.507-2.541.286-3.674.935-3.674,2.233A1.619,1.619,0,0,0,110.1.143Zm.286-.8c-.594,0-1.056-.275-1.056-.957,0-.77.682-1.265,2.695-1.507v1.672A2.441,2.441,0,0,1,110.385-.66Zm5.324.8a1.541,1.541,0,0,0,.583-.088l-.143-.77a.879.879,0,0,1-.209.022c-.154,0-.286-.121-.286-.429V-8.756h-1v7.568C114.653-.341,114.961.143,115.709.143Zm5.368,0a3.2,3.2,0,0,0,1.98-.858h.033l.088.715H124V-3.674c0-1.474-.616-2.453-2.068-2.453a4.493,4.493,0,0,0-2.354.781l.4.693a3.291,3.291,0,0,1,1.793-.638c.979,0,1.232.737,1.232,1.507-2.541.286-3.674.935-3.674,2.233A1.619,1.619,0,0,0,121.077.143Zm.286-.8c-.594,0-1.056-.275-1.056-.957,0-.77.682-1.265,2.7-1.507v1.672A2.441,2.441,0,0,1,121.363-.66Zm4.268.66h1V-4.334a2.206,2.206,0,0,1,1.507-.913c.759,0,1.111.473,1.111,1.6V0h1V-4.334a2.206,2.206,0,0,1,1.507-.913c.759,0,1.111.473,1.111,1.6V0h1V-3.784c0-1.529-.583-2.343-1.815-2.343a2.824,2.824,0,0,0-1.969,1.144,1.575,1.575,0,0,0-1.65-1.144A2.624,2.624,0,0,0,126.577-5.1h-.033l-.088-.869h-.825Zm12.232.143a2.852,2.852,0,0,0,2.772-3.124,2.866,2.866,0,0,0-2.772-3.146,2.866,2.866,0,0,0-2.772,3.146A2.852,2.852,0,0,0,137.863.143Zm0-.836c-1.034,0-1.727-.913-1.727-2.288s.693-2.31,1.727-2.31,1.738.935,1.738,2.31S138.9-.693,137.863-.693Zm5.808.836a2.562,2.562,0,0,0,1.98-1.078h.033l.077.935h.836V-5.973h-1v4.235c-.572.715-1,1.012-1.617,1.012-.792,0-1.122-.473-1.122-1.584V-5.973h-1v3.784C141.856-.671,142.417.143,143.671.143ZM148.335,0h1V-4.334a2.272,2.272,0,0,1,1.639-.913c.792,0,1.133.473,1.133,1.6V0h1V-3.784c0-1.529-.572-2.343-1.826-2.343a2.864,2.864,0,0,0-2,1.012h-.033l-.088-.858h-.825Zm8.327.143a3.76,3.76,0,0,0,1.1-.22l-.2-.748a2.116,2.116,0,0,1-.682.154c-.693,0-.924-.418-.924-1.155V-5.159h1.617v-.814h-1.617V-7.656h-.836L155-5.973l-.935.055v.759h.891v3.311C154.957-.66,155.386.143,156.662.143Zm6.5,0a2.852,2.852,0,0,0,2.772-3.124,2.866,2.866,0,0,0-2.772-3.146,2.866,2.866,0,0,0-2.772,3.146A2.852,2.852,0,0,0,163.163.143Zm0-.836c-1.034,0-1.727-.913-1.727-2.288s.693-2.31,1.727-2.31,1.738.935,1.738,2.31S164.2-.693,163.163-.693ZM167.4,0h1V-5.159h1.265v-.814H168.4v-.946c0-.77.275-1.177.847-1.177a1.7,1.7,0,0,1,.671.154l.22-.759a2.576,2.576,0,0,0-1-.2c-1.188,0-1.738.759-1.738,1.969v.957l-.814.055v.759h.814Zm6.38.143a1.541,1.541,0,0,0,.583-.088l-.143-.77a.879.879,0,0,1-.209.022c-.154,0-.286-.121-.286-.429V-8.756h-1v7.568C172.722-.341,173.03.143,173.778.143Zm4.213,0a3.555,3.555,0,0,0,1.98-.616l-.363-.66a2.575,2.575,0,0,1-1.5.473,1.979,1.979,0,0,1-1.98-2.09h4.026a3.907,3.907,0,0,0,.044-.572c0-1.705-.858-2.805-2.376-2.805a2.889,2.889,0,0,0-2.695,3.146A2.855,2.855,0,0,0,177.991.143Zm-1.87-3.619a1.835,1.835,0,0,1,1.716-1.848c.935,0,1.485.649,1.485,1.848ZM182.6.143a3.2,3.2,0,0,0,1.98-.858h.033L184.7,0h.825V-3.674c0-1.474-.616-2.453-2.068-2.453a4.493,4.493,0,0,0-2.354.781l.4.693a3.291,3.291,0,0,1,1.793-.638c.979,0,1.232.737,1.232,1.507-2.541.286-3.674.935-3.674,2.233A1.619,1.619,0,0,0,182.6.143Zm.286-.8c-.594,0-1.056-.275-1.056-.957,0-.77.682-1.265,2.695-1.507v1.672A2.441,2.441,0,0,1,182.886-.66Zm4.268.66h1V-3.839c.4-1.023,1.012-1.375,1.507-1.375a1.413,1.413,0,0,1,.583.1l.187-.88a1.273,1.273,0,0,0-.638-.132A2.062,2.062,0,0,0,188.1-4.884h-.033l-.088-1.089h-.825Zm3.993,0h1V-4.334a2.272,2.272,0,0,1,1.639-.913c.792,0,1.133.473,1.133,1.6V0h1V-3.784c0-1.529-.572-2.343-1.826-2.343a2.864,2.864,0,0,0-2,1.012h-.033l-.088-.858h-.825Zm6.446,0h1V-5.973h-1Zm.506-7.205a.635.635,0,0,0,.671-.671.63.63,0,0,0-.671-.649.63.63,0,0,0-.671.649A.635.635,0,0,0,198.1-7.205ZM200.343,0h1V-4.334a2.272,2.272,0,0,1,1.639-.913c.792,0,1.133.473,1.133,1.6V0h1V-3.784c0-1.529-.572-2.343-1.826-2.343a2.864,2.864,0,0,0-2,1.012h-.033l-.088-.858h-.825ZM208.8,2.75c1.848,0,3.025-.957,3.025-2.068,0-.979-.7-1.419-2.09-1.419h-1.166c-.8,0-1.045-.264-1.045-.649a.889.889,0,0,1,.385-.715,2.078,2.078,0,0,0,.891.209,2.048,2.048,0,0,0,2.178-2.079A1.706,1.706,0,0,0,210.5-5.2h1.221v-.77h-2.079a2.464,2.464,0,0,0-.836-.154,2.128,2.128,0,0,0-2.244,2.134,2.1,2.1,0,0,0,.781,1.606v.044a1.457,1.457,0,0,0-.671,1.111,1.08,1.08,0,0,0,.55.979v.044a1.676,1.676,0,0,0-.88,1.353C206.338,2.178,207.339,2.75,208.8,2.75Zm0-5.324a1.309,1.309,0,0,1-1.276-1.419,1.277,1.277,0,0,1,1.276-1.4,1.283,1.283,0,0,1,1.276,1.4A1.315,1.315,0,0,1,208.8-2.574Zm.143,4.642c-1.078,0-1.727-.418-1.727-1.056A1.245,1.245,0,0,1,207.823,0a3.359,3.359,0,0,0,.77.1h1.034c.792,0,1.221.187,1.221.737C210.848,1.463,210.089,2.068,208.945,2.068ZM2.893,17.143a3.76,3.76,0,0,0,1.1-.22l-.2-.748a2.116,2.116,0,0,1-.682.154c-.693,0-.924-.418-.924-1.155V11.841H3.806v-.814H2.189V9.344H1.353l-.121,1.683L.3,11.082v.759h.891v3.311C1.188,16.34,1.617,17.143,2.893,17.143Zm4.147,0a2.852,2.852,0,0,0,2.772-3.124A2.866,2.866,0,0,0,7.04,10.873a2.866,2.866,0,0,0-2.772,3.146A2.852,2.852,0,0,0,7.04,17.143Zm0-.836c-1.034,0-1.727-.913-1.727-2.288s.693-2.31,1.727-2.31,1.738.935,1.738,2.31S8.074,16.307,7.04,16.307ZM13.3,17h1V12.666a2.206,2.206,0,0,1,1.507-.913c.759,0,1.111.473,1.111,1.595V17h1V12.666a2.206,2.206,0,0,1,1.507-.913c.759,0,1.111.473,1.111,1.595V17h1V13.216c0-1.529-.583-2.343-1.815-2.343a2.824,2.824,0,0,0-1.969,1.144,1.575,1.575,0,0,0-1.65-1.144A2.624,2.624,0,0,0,14.245,11.9h-.033l-.088-.869H13.3Zm11.286.143a3.2,3.2,0,0,0,1.98-.858H26.6l.088.715h.825V13.326c0-1.474-.616-2.453-2.068-2.453a4.493,4.493,0,0,0-2.354.781l.4.693a3.291,3.291,0,0,1,1.793-.638c.979,0,1.232.737,1.232,1.507-2.541.286-3.674.935-3.674,2.233A1.619,1.619,0,0,0,24.585,17.143Zm.286-.8c-.594,0-1.056-.275-1.056-.957,0-.77.682-1.265,2.695-1.507v1.672A2.441,2.441,0,0,1,24.871,16.34Zm3.421.66h1.056l.8-1.4c.209-.363.407-.726.616-1.067h.055c.22.341.44.7.638,1.067l.88,1.4h1.1l-1.969-3.014,1.815-2.959H32.241L31.5,12.336c-.176.341-.352.671-.539,1h-.044c-.2-.33-.407-.66-.594-1l-.8-1.309H28.446l1.815,2.86Zm6.05,0h1V11.027h-1Zm.506-7.2a.66.66,0,1,0-.671-.671A.635.635,0,0,0,34.848,9.8ZM37.092,17h1V12.666a2.206,2.206,0,0,1,1.507-.913c.759,0,1.111.473,1.111,1.595V17h1V12.666a2.206,2.206,0,0,1,1.507-.913c.759,0,1.111.473,1.111,1.595V17h1V13.216c0-1.529-.583-2.343-1.815-2.343a2.824,2.824,0,0,0-1.969,1.144,1.575,1.575,0,0,0-1.65-1.144A2.624,2.624,0,0,0,38.038,11.9H38l-.088-.869h-.825ZM47,17h1V11.027H47Zm.506-7.2a.66.66,0,1,0-.671-.671A.635.635,0,0,0,47.509,9.8ZM49.126,17h4.521v-.814H50.391l3.146-4.62v-.539h-4.07v.814h2.8l-3.146,4.62Zm7.854.143a3.555,3.555,0,0,0,1.98-.616l-.363-.66a2.575,2.575,0,0,1-1.5.473,1.979,1.979,0,0,1-1.98-2.09h4.026a3.908,3.908,0,0,0,.044-.572c0-1.7-.858-2.805-2.376-2.805a2.889,2.889,0,0,0-2.695,3.146A2.855,2.855,0,0,0,56.98,17.143Zm-1.87-3.619a1.835,1.835,0,0,1,1.716-1.848c.935,0,1.485.649,1.485,1.848Zm9.878,3.619a3.555,3.555,0,0,0,1.98-.616l-.363-.66a2.575,2.575,0,0,1-1.5.473,1.979,1.979,0,0,1-1.98-2.09h4.026a3.907,3.907,0,0,0,.044-.572c0-1.7-.858-2.805-2.376-2.805a2.889,2.889,0,0,0-2.695,3.146A2.855,2.855,0,0,0,64.988,17.143Zm-1.87-3.619a1.835,1.835,0,0,1,1.716-1.848c.935,0,1.485.649,1.485,1.848ZM72.061,17h1V11.841h1.265v-.814H73.062v-.946c0-.77.275-1.177.847-1.177a1.79,1.79,0,0,1,.682.154L74.8,8.3a2.562,2.562,0,0,0-.99-.2c-1.2,0-1.749.759-1.749,1.969v.957h-2.5v-.77c0-.792.341-1.232.935-1.232a1.822,1.822,0,0,1,.8.176l.209-.77a2.867,2.867,0,0,0-1.089-.209,1.75,1.75,0,0,0-1.859,2v.8l-.814.055v.759h.814V17h1V11.841h2.5Zm3.421,0h1V11.027h-1Zm.5-7.2a.66.66,0,1,0,0-1.32.66.66,0,1,0,0,1.32Zm4.6,7.348a2.9,2.9,0,0,0,1.936-.759l-.44-.671a2.106,2.106,0,0,1-1.408.594c-1.1,0-1.848-.913-1.848-2.288s.792-2.31,1.881-2.31a1.766,1.766,0,0,1,1.188.528l.517-.66a2.554,2.554,0,0,0-1.749-.7,2.908,2.908,0,0,0-2.882,3.146A2.809,2.809,0,0,0,80.575,17.143ZM83.545,17h1V11.027h-1Zm.506-7.2a.66.66,0,1,0-.671-.671A.635.635,0,0,0,84.051,9.8ZM88.7,17.143a3.555,3.555,0,0,0,1.98-.616l-.363-.66a2.575,2.575,0,0,1-1.5.473,1.979,1.979,0,0,1-1.98-2.09h4.026a3.907,3.907,0,0,0,.044-.572c0-1.7-.858-2.805-2.376-2.805a2.889,2.889,0,0,0-2.695,3.146A2.855,2.855,0,0,0,88.7,17.143Zm-1.87-3.619a1.835,1.835,0,0,1,1.716-1.848c.935,0,1.485.649,1.485,1.848ZM92.114,17h1V12.666a2.272,2.272,0,0,1,1.639-.913c.792,0,1.133.473,1.133,1.595V17h1V13.216c0-1.529-.572-2.343-1.826-2.343a2.864,2.864,0,0,0-2,1.012h-.033l-.088-.858h-.825Zm8.8.143a2.9,2.9,0,0,0,1.936-.759l-.44-.671a2.106,2.106,0,0,1-1.408.594c-1.1,0-1.848-.913-1.848-2.288s.792-2.31,1.881-2.31a1.766,1.766,0,0,1,1.188.528l.517-.66a2.554,2.554,0,0,0-1.749-.7,2.908,2.908,0,0,0-2.882,3.146A2.809,2.809,0,0,0,100.914,17.143Zm3.146,2.431c1.188,0,1.815-.9,2.222-2.079l2.255-6.468h-.979l-1.067,3.322c-.165.528-.341,1.133-.506,1.672h-.055c-.187-.539-.4-1.155-.572-1.672l-1.221-3.322h-1.045l2.4,5.984-.132.451c-.242.737-.671,1.287-1.353,1.287a1.427,1.427,0,0,1-.451-.1l-.2.8A1.839,1.839,0,0,0,104.06,19.574Zm5.456-2.431a.727.727,0,0,0,.726-.759.728.728,0,1,0-1.452,0A.727.727,0,0,0,109.516,17.143Z" transform="translate(57.126 247.032)" fill="#323c46"/><path d="M2.3,0H6.624c5.083,0,7.866-3.151,7.866-8.487,0-5.359-2.783-8.395-7.958-8.395H2.3ZM4.439-1.748V-15.134H6.348c3.979,0,5.934,2.369,5.934,6.647,0,4.255-1.955,6.739-5.934,6.739ZM21.8.3a7.433,7.433,0,0,0,4.14-1.288l-.759-1.38a5.384,5.384,0,0,1-3.128.989c-2.369,0-4-1.7-4.14-4.37h8.418a8.171,8.171,0,0,0,.092-1.2c0-3.565-1.794-5.865-4.968-5.865-2.9,0-5.635,2.53-5.635,6.578C15.824-2.116,18.492.3,21.8.3Zm-3.91-7.567c.253-2.438,1.817-3.864,3.588-3.864,1.955,0,3.1,1.357,3.1,3.864ZM32.039.3a7.862,7.862,0,0,0,2.3-.46l-.414-1.564A4.425,4.425,0,0,1,32.5-1.4c-1.449,0-1.932-.874-1.932-2.415v-6.969h3.381v-1.7H30.567v-3.519H28.819l-.253,3.519-1.955.115v1.587h1.863v6.923C28.474-1.38,29.371.3,32.039.3Zm8.28,0a7.433,7.433,0,0,0,4.14-1.288L43.7-2.369a5.384,5.384,0,0,1-3.128.989c-2.369,0-4-1.7-4.14-4.37H44.85a8.17,8.17,0,0,0,.092-1.2c0-3.565-1.794-5.865-4.968-5.865-2.9,0-5.635,2.53-5.635,6.578C34.339-2.116,37.007.3,40.319.3Zm-3.91-7.567c.253-2.438,1.817-3.864,3.588-3.864,1.955,0,3.1,1.357,3.1,3.864ZM46.874,0h2.093V-8.027c.828-2.139,2.116-2.875,3.151-2.875a2.955,2.955,0,0,1,1.219.207l.391-1.84a2.662,2.662,0,0,0-1.334-.276c-1.4,0-2.668,1.012-3.542,2.6h-.069L48.6-12.489H46.874Zm7.774,0h2.093V-9.062c1.15-1.288,2.208-1.909,3.151-1.909,1.587,0,2.323.989,2.323,3.335V0h2.093V-9.062c1.173-1.288,2.185-1.909,3.151-1.909,1.587,0,2.323.989,2.323,3.335V0h2.093V-7.912c0-3.2-1.219-4.9-3.795-4.9-1.518,0-2.829.989-4.117,2.392a3.294,3.294,0,0,0-3.45-2.392,5.488,5.488,0,0,0-3.887,2.139h-.069l-.184-1.817H54.648ZM74.8,0h2.093V-12.489H74.8Zm1.058-15.065a1.328,1.328,0,0,0,1.4-1.4,1.317,1.317,0,0,0-1.4-1.357,1.317,1.317,0,0,0-1.4,1.357A1.328,1.328,0,0,0,75.854-15.065ZM79.971,0h2.093V-9.062c1.265-1.265,2.139-1.909,3.427-1.909,1.656,0,2.369.989,2.369,3.335V0h2.093V-7.912c0-3.2-1.2-4.9-3.818-4.9A5.989,5.989,0,0,0,81.949-10.7H81.88L81.7-12.489H79.971Zm17.94.3a7.433,7.433,0,0,0,4.14-1.288l-.759-1.38a5.384,5.384,0,0,1-3.128.989c-2.369,0-4-1.7-4.14-4.37h8.418a8.17,8.17,0,0,0,.092-1.2c0-3.565-1.794-5.865-4.968-5.865-2.9,0-5.635,2.53-5.635,6.578C91.931-2.116,94.6.3,97.911.3ZM94-7.268c.253-2.438,1.817-3.864,3.588-3.864,1.955,0,3.1,1.357,3.1,3.864ZM108.468,0h2.093V-12.489h-2.093Zm1.058-15.065a1.328,1.328,0,0,0,1.4-1.4,1.317,1.317,0,0,0-1.4-1.357,1.317,1.317,0,0,0-1.4,1.357A1.328,1.328,0,0,0,109.526-15.065ZM113.988,0h2.093V-10.787h2.645v-1.7h-2.645v-1.978c0-1.61.575-2.461,1.771-2.461a3.545,3.545,0,0,1,1.4.322l.46-1.587a5.387,5.387,0,0,0-2.093-.414c-2.484,0-3.634,1.587-3.634,4.117v2l-1.7.115v1.587h1.7ZM127.9.3a7.862,7.862,0,0,0,2.3-.46l-.414-1.564a4.425,4.425,0,0,1-1.426.322c-1.449,0-1.932-.874-1.932-2.415v-6.969h3.381v-1.7h-3.381v-3.519h-1.748l-.253,3.519-1.955.115v1.587h1.863v6.923C124.338-1.38,125.235.3,127.9.3Zm3.588-.3h2.093V-9.062c1.265-1.265,2.139-1.909,3.427-1.909,1.656,0,2.369.989,2.369,3.335V0h2.093V-7.912c0-3.2-1.2-4.9-3.818-4.9a5.864,5.864,0,0,0-4.14,2.093l.069-2.576v-5.014h-2.093Zm17.848.3a7.433,7.433,0,0,0,4.14-1.288l-.759-1.38a5.384,5.384,0,0,1-3.128.989c-2.369,0-4-1.7-4.14-4.37h8.418a8.172,8.172,0,0,0,.092-1.2c0-3.565-1.794-5.865-4.968-5.865-2.9,0-5.635,2.53-5.635,6.578C143.359-2.116,146.027.3,149.339.3Zm-3.91-7.567c.253-2.438,1.817-3.864,3.588-3.864,1.955,0,3.105,1.357,3.105,3.864ZM159.9,0h2.07V-3.289l2.346-2.737L167.969,0h2.277l-4.715-7.452,4.163-5.037h-2.346l-5.313,6.6h-.069v-12.42H159.9Zm11.546,0h2.093V-12.489h-2.093ZM172.5-15.065a1.328,1.328,0,0,0,1.4-1.4,1.317,1.317,0,0,0-1.4-1.357,1.317,1.317,0,0,0-1.4,1.357A1.328,1.328,0,0,0,172.5-15.065ZM180.872.3a5.57,5.57,0,0,0,3.795-1.771h.069L184.92,0h1.7V-18.308h-2.07V-13.5l.092,2.162a5.081,5.081,0,0,0-3.519-1.472c-2.852,0-5.4,2.53-5.4,6.578C175.72-2.07,177.744.3,180.872.3Zm.46-1.748c-2.208,0-3.45-1.794-3.45-4.807,0-2.852,1.587-4.784,3.611-4.784a4.475,4.475,0,0,1,3.059,1.311v6.555A4.371,4.371,0,0,1,181.332-1.449ZM193.729,0h2.093V-9.062c1.265-1.265,2.139-1.909,3.427-1.909,1.656,0,2.369.989,2.369,3.335V0h2.093V-7.912c0-3.2-1.2-4.9-3.818-4.9a5.864,5.864,0,0,0-4.14,2.093l.069-2.576v-5.014h-2.093Zm15.686.3a6.691,6.691,0,0,0,4.14-1.794h.069l.184,1.5h1.725V-7.682c0-3.082-1.288-5.129-4.324-5.129a9.394,9.394,0,0,0-4.922,1.633l.828,1.449a6.881,6.881,0,0,1,3.749-1.334c2.047,0,2.576,1.541,2.576,3.151-5.313.6-7.682,1.955-7.682,4.669A3.386,3.386,0,0,0,209.415.3Zm.6-1.679c-1.242,0-2.208-.575-2.208-2,0-1.61,1.426-2.645,5.635-3.151v3.5A5.1,5.1,0,0,1,210.013-1.38ZM221.628.3c2.944,0,4.554-1.679,4.554-3.7,0-2.369-2-3.105-3.818-3.8-1.4-.529-2.691-.966-2.691-2.162,0-.966.736-1.794,2.323-1.794a4.572,4.572,0,0,1,2.829,1.1l1.012-1.357a6.347,6.347,0,0,0-3.864-1.4c-2.714,0-4.324,1.564-4.324,3.542,0,2.116,1.909,2.967,3.657,3.611,1.38.529,2.852,1.081,2.852,2.369,0,1.081-.805,1.955-2.461,1.955a5.665,5.665,0,0,1-3.7-1.472l-1.035,1.38A7.533,7.533,0,0,0,221.628.3ZM5.382,27.3c2.944,0,4.554-1.679,4.554-3.7,0-2.369-2-3.105-3.818-3.8-1.4-.529-2.691-.966-2.691-2.162,0-.966.736-1.794,2.323-1.794a4.573,4.573,0,0,1,2.829,1.1l1.012-1.357a6.347,6.347,0,0,0-3.864-1.4c-2.714,0-4.324,1.564-4.324,3.542,0,2.116,1.909,2.967,3.657,3.611,1.38.529,2.852,1.081,2.852,2.369,0,1.081-.8,1.955-2.461,1.955a5.665,5.665,0,0,1-3.7-1.472L.713,25.574A7.533,7.533,0,0,0,5.382,27.3Zm11.2,0c3.059,0,5.8-2.392,5.8-6.532,0-4.163-2.737-6.578-5.8-6.578s-5.8,2.415-5.8,6.578C10.787,24.907,13.524,27.3,16.583,27.3Zm0-1.748c-2.162,0-3.611-1.909-3.611-4.784s1.449-4.83,3.611-4.83,3.634,1.955,3.634,4.83S18.745,25.551,16.583,25.551ZM26.726,27.3a3.222,3.222,0,0,0,1.219-.184l-.3-1.61a1.837,1.837,0,0,1-.437.046c-.322,0-.6-.253-.6-.9V8.692H24.518V24.516C24.518,26.287,25.162,27.3,26.726,27.3Zm5.888-.3h2.438l4.439-12.489h-2.07l-2.369,7.107c-.368,1.219-.759,2.507-1.15,3.68H33.81c-.391-1.173-.782-2.461-1.173-3.68l-2.346-7.107H28.106Zm13.087.3a7.433,7.433,0,0,0,4.14-1.288l-.759-1.38a5.384,5.384,0,0,1-3.128.989c-2.369,0-4-1.7-4.14-4.37h8.418a8.171,8.171,0,0,0,.092-1.2c0-3.565-1.794-5.865-4.968-5.865-2.9,0-5.635,2.53-5.635,6.578C39.721,24.884,42.389,27.3,45.7,27.3Zm-3.91-7.567c.253-2.438,1.817-3.864,3.588-3.864,1.955,0,3.1,1.357,3.1,3.864ZM56.511,27.3a5.57,5.57,0,0,0,3.795-1.771h.069L60.559,27h1.7V8.692h-2.07V13.5l.092,2.162a5.081,5.081,0,0,0-3.519-1.472c-2.852,0-5.4,2.53-5.4,6.578C51.359,24.93,53.383,27.3,56.511,27.3Zm.46-1.748c-2.208,0-3.45-1.794-3.45-4.807,0-2.852,1.587-4.784,3.611-4.784a4.475,4.475,0,0,1,3.059,1.311v6.555A4.371,4.371,0,0,1,56.971,25.551ZM74.4,27.3a7.433,7.433,0,0,0,4.14-1.288l-.759-1.38a5.384,5.384,0,0,1-3.128.989c-2.369,0-4-1.7-4.14-4.37h8.418a8.17,8.17,0,0,0,.092-1.2c0-3.565-1.794-5.865-4.968-5.865-2.9,0-5.635,2.53-5.635,6.578C68.425,24.884,71.093,27.3,74.4,27.3Zm-3.91-7.567c.253-2.438,1.817-3.864,3.588-3.864,1.955,0,3.1,1.357,3.1,3.864ZM80.96,27h2.093V17.938c1.265-1.265,2.139-1.909,3.427-1.909,1.656,0,2.369.989,2.369,3.335V27h2.093V19.088c0-3.2-1.2-4.9-3.818-4.9a5.989,5.989,0,0,0-4.186,2.116h-.069l-.184-1.794H80.96Zm17.756.3c3.059,0,5.8-2.392,5.8-6.532,0-4.163-2.737-6.578-5.8-6.578s-5.8,2.415-5.8,6.578C92.92,24.907,95.657,27.3,98.716,27.3Zm0-1.748c-2.162,0-3.611-1.909-3.611-4.784s1.449-4.83,3.611-4.83,3.634,1.955,3.634,4.83S100.878,25.551,98.716,25.551ZM110.285,27.3a5.358,5.358,0,0,0,4.14-2.254h.069L114.655,27H116.4V14.511H114.31v8.855c-1.2,1.5-2.093,2.116-3.381,2.116-1.656,0-2.346-.989-2.346-3.312V14.511H106.49v7.912C106.49,25.6,107.663,27.3,110.285,27.3Zm13.386,5.451c3.864,0,6.325-2,6.325-4.324,0-2.047-1.472-2.967-4.37-2.967h-2.438c-1.679,0-2.185-.552-2.185-1.357a1.86,1.86,0,0,1,.805-1.495,4.344,4.344,0,0,0,1.863.437,4.283,4.283,0,0,0,4.554-4.347,3.567,3.567,0,0,0-1.012-2.576h2.553v-1.61h-4.347a5.152,5.152,0,0,0-1.748-.322,4.448,4.448,0,0,0-4.692,4.462,4.384,4.384,0,0,0,1.633,3.358V22.1a3.047,3.047,0,0,0-1.4,2.323,2.258,2.258,0,0,0,1.15,2.047v.092a3.5,3.5,0,0,0-1.84,2.829C118.519,31.554,120.612,32.75,123.671,32.75Zm0-11.132A2.737,2.737,0,0,1,121,18.651a2.679,2.679,0,1,1,5.336,0A2.75,2.75,0,0,1,123.671,21.618Zm.3,9.706c-2.254,0-3.611-.874-3.611-2.208A2.6,2.6,0,0,1,121.624,27a7.024,7.024,0,0,0,1.61.207H125.4c1.656,0,2.553.391,2.553,1.541C127.949,30.059,126.362,31.324,123.97,31.324ZM131.261,27h2.093V17.938c1.265-1.265,2.139-1.909,3.427-1.909,1.656,0,2.369.989,2.369,3.335V27h2.093V19.088c0-3.2-1.2-4.9-3.818-4.9a5.864,5.864,0,0,0-4.14,2.093l.069-2.576V8.692h-2.093Zm16.813,5.267h2.093V28.035l-.046-2.185a5.635,5.635,0,0,0,3.45,1.449c2.875,0,5.428-2.461,5.428-6.739,0-3.841-1.748-6.371-4.968-6.371a6.66,6.66,0,0,0-3.979,1.748h-.069l-.184-1.426h-1.725Zm5.152-6.716a4.84,4.84,0,0,1-3.059-1.311V17.685a5.207,5.207,0,0,1,3.358-1.725c2.369,0,3.289,1.863,3.289,4.623C156.814,23.688,155.3,25.551,153.226,25.551ZM161.184,27h2.093V18.973c.828-2.139,2.116-2.875,3.151-2.875a2.955,2.955,0,0,1,1.219.207l.391-1.84a2.662,2.662,0,0,0-1.334-.276c-1.4,0-2.668,1.012-3.542,2.6h-.069l-.184-2.277h-1.725Zm12.374.3c3.059,0,5.8-2.392,5.8-6.532,0-4.163-2.737-6.578-5.8-6.578s-5.8,2.415-5.8,6.578C167.762,24.907,170.5,27.3,173.558,27.3Zm0-1.748c-2.162,0-3.611-1.909-3.611-4.784s1.449-4.83,3.611-4.83,3.634,1.955,3.634,4.83S175.72,25.551,173.558,25.551ZM186.99,27.3c2.875,0,5.428-2.461,5.428-6.762,0-3.818-1.748-6.348-4.991-6.348a6.292,6.292,0,0,0-3.91,1.771l.069-2.254V8.692h-2.093V27h1.679l.184-1.288h.092A5.547,5.547,0,0,0,186.99,27.3Zm-.345-1.748a4.794,4.794,0,0,1-3.059-1.311V17.685a5.158,5.158,0,0,1,3.358-1.725c2.369,0,3.289,1.863,3.289,4.623C190.233,23.688,188.715,25.551,186.645,25.551Zm10.12,1.748a3.222,3.222,0,0,0,1.219-.184l-.3-1.61a1.837,1.837,0,0,1-.437.046c-.322,0-.6-.253-.6-.9V8.692h-2.093V24.516C194.557,26.287,195.2,27.3,196.765,27.3Zm8.234,0a7.433,7.433,0,0,0,4.14-1.288l-.759-1.38a5.384,5.384,0,0,1-3.128.989c-2.369,0-4-1.7-4.14-4.37h8.418a8.172,8.172,0,0,0,.092-1.2c0-3.565-1.794-5.865-4.968-5.865-2.9,0-5.635,2.53-5.635,6.578C199.019,24.884,201.687,27.3,205,27.3Zm-3.91-7.567c.253-2.438,1.817-3.864,3.588-3.864,1.955,0,3.105,1.357,3.105,3.864ZM211.554,27h2.093V17.938c1.15-1.288,2.208-1.909,3.151-1.909,1.587,0,2.323.989,2.323,3.335V27h2.093V17.938c1.173-1.288,2.185-1.909,3.151-1.909,1.587,0,2.323.989,2.323,3.335V27h2.093V19.088c0-3.2-1.219-4.9-3.795-4.9-1.518,0-2.829.989-4.117,2.392a3.294,3.294,0,0,0-3.45-2.392,5.488,5.488,0,0,0-3.887,2.139h-.069l-.184-1.817h-1.725Zm23.414.3c2.944,0,4.554-1.679,4.554-3.7,0-2.369-2-3.105-3.818-3.8-1.4-.529-2.691-.966-2.691-2.162,0-.966.736-1.794,2.323-1.794a4.572,4.572,0,0,1,2.829,1.1l1.012-1.357a6.347,6.347,0,0,0-3.864-1.4c-2.714,0-4.324,1.564-4.324,3.542,0,2.116,1.909,2.967,3.657,3.611,1.38.529,2.852,1.081,2.852,2.369,0,1.081-.805,1.955-2.461,1.955a5.665,5.665,0,0,1-3.7-1.472l-1.035,1.38A7.533,7.533,0,0,0,234.968,27.3Zm7.222-5.382h1.449l.276-9.752.069-2.392h-2.139l.069,2.392ZM242.9,27.3a1.506,1.506,0,0,0,1.518-1.587A1.519,1.519,0,1,0,242.9,27.3Z" transform="translate(57.126 190.379)" fill="#00c3e1"/><path d="M2.3,0H6.624c5.083,0,7.866-3.151,7.866-8.487,0-5.359-2.783-8.395-7.958-8.395H2.3ZM4.439-1.748V-15.134H6.348c3.979,0,5.934,2.369,5.934,6.647,0,4.255-1.955,6.739-5.934,6.739ZM21.8.3a7.433,7.433,0,0,0,4.14-1.288l-.759-1.38a5.384,5.384,0,0,1-3.128.989c-2.369,0-4-1.7-4.14-4.37h8.418a8.171,8.171,0,0,0,.092-1.2c0-3.565-1.794-5.865-4.968-5.865-2.9,0-5.635,2.53-5.635,6.578C15.824-2.116,18.492.3,21.8.3Zm-3.91-7.567c.253-2.438,1.817-3.864,3.588-3.864,1.955,0,3.1,1.357,3.1,3.864ZM32.039.3a7.862,7.862,0,0,0,2.3-.46l-.414-1.564A4.425,4.425,0,0,1,32.5-1.4c-1.449,0-1.932-.874-1.932-2.415v-6.969h3.381v-1.7H30.567v-3.519H28.819l-.253,3.519-1.955.115v1.587h1.863v6.923C28.474-1.38,29.371.3,32.039.3Zm8.28,0a7.433,7.433,0,0,0,4.14-1.288L43.7-2.369a5.384,5.384,0,0,1-3.128.989c-2.369,0-4-1.7-4.14-4.37H44.85a8.17,8.17,0,0,0,.092-1.2c0-3.565-1.794-5.865-4.968-5.865-2.9,0-5.635,2.53-5.635,6.578C34.339-2.116,37.007.3,40.319.3Zm-3.91-7.567c.253-2.438,1.817-3.864,3.588-3.864,1.955,0,3.1,1.357,3.1,3.864ZM46.874,0h2.093V-8.027c.828-2.139,2.116-2.875,3.151-2.875a2.955,2.955,0,0,1,1.219.207l.391-1.84a2.662,2.662,0,0,0-1.334-.276c-1.4,0-2.668,1.012-3.542,2.6h-.069L48.6-12.489H46.874Zm7.774,0h2.093V-9.062c1.15-1.288,2.208-1.909,3.151-1.909,1.587,0,2.323.989,2.323,3.335V0h2.093V-9.062c1.173-1.288,2.185-1.909,3.151-1.909,1.587,0,2.323.989,2.323,3.335V0h2.093V-7.912c0-3.2-1.219-4.9-3.795-4.9-1.518,0-2.829.989-4.117,2.392a3.294,3.294,0,0,0-3.45-2.392,5.488,5.488,0,0,0-3.887,2.139h-.069l-.184-1.817H54.648ZM74.8,0h2.093V-12.489H74.8Zm1.058-15.065a1.328,1.328,0,0,0,1.4-1.4,1.317,1.317,0,0,0-1.4-1.357,1.317,1.317,0,0,0-1.4,1.357A1.328,1.328,0,0,0,75.854-15.065ZM79.971,0h2.093V-9.062c1.265-1.265,2.139-1.909,3.427-1.909,1.656,0,2.369.989,2.369,3.335V0h2.093V-7.912c0-3.2-1.2-4.9-3.818-4.9A5.989,5.989,0,0,0,81.949-10.7H81.88L81.7-12.489H79.971Zm17.94.3a7.433,7.433,0,0,0,4.14-1.288l-.759-1.38a5.384,5.384,0,0,1-3.128.989c-2.369,0-4-1.7-4.14-4.37h8.418a8.17,8.17,0,0,0,.092-1.2c0-3.565-1.794-5.865-4.968-5.865-2.9,0-5.635,2.53-5.635,6.578C91.931-2.116,94.6.3,97.911.3ZM94-7.268c.253-2.438,1.817-3.864,3.588-3.864,1.955,0,3.1,1.357,3.1,3.864ZM108.468,0h2.093V-12.489h-2.093Zm1.058-15.065a1.328,1.328,0,0,0,1.4-1.4,1.317,1.317,0,0,0-1.4-1.357,1.317,1.317,0,0,0-1.4,1.357A1.328,1.328,0,0,0,109.526-15.065ZM113.988,0h2.093V-10.787h2.645v-1.7h-2.645v-1.978c0-1.61.575-2.461,1.771-2.461a3.545,3.545,0,0,1,1.4.322l.46-1.587a5.387,5.387,0,0,0-2.093-.414c-2.484,0-3.634,1.587-3.634,4.117v2l-1.7.115v1.587h1.7ZM127.9.3a7.862,7.862,0,0,0,2.3-.46l-.414-1.564a4.425,4.425,0,0,1-1.426.322c-1.449,0-1.932-.874-1.932-2.415v-6.969h3.381v-1.7h-3.381v-3.519h-1.748l-.253,3.519-1.955.115v1.587h1.863v6.923C124.338-1.38,125.235.3,127.9.3Zm3.588-.3h2.093V-9.062c1.265-1.265,2.139-1.909,3.427-1.909,1.656,0,2.369.989,2.369,3.335V0h2.093V-7.912c0-3.2-1.2-4.9-3.818-4.9a5.864,5.864,0,0,0-4.14,2.093l.069-2.576v-5.014h-2.093Zm17.848.3a7.433,7.433,0,0,0,4.14-1.288l-.759-1.38a5.384,5.384,0,0,1-3.128.989c-2.369,0-4-1.7-4.14-4.37h8.418a8.172,8.172,0,0,0,.092-1.2c0-3.565-1.794-5.865-4.968-5.865-2.9,0-5.635,2.53-5.635,6.578C143.359-2.116,146.027.3,149.339.3Zm-3.91-7.567c.253-2.438,1.817-3.864,3.588-3.864,1.955,0,3.105,1.357,3.105,3.864ZM159.9,0h2.07V-3.289l2.346-2.737L167.969,0h2.277l-4.715-7.452,4.163-5.037h-2.346l-5.313,6.6h-.069v-12.42H159.9Zm11.546,0h2.093V-12.489h-2.093ZM172.5-15.065a1.328,1.328,0,0,0,1.4-1.4,1.317,1.317,0,0,0-1.4-1.357,1.317,1.317,0,0,0-1.4,1.357A1.328,1.328,0,0,0,172.5-15.065ZM180.872.3a5.57,5.57,0,0,0,3.795-1.771h.069L184.92,0h1.7V-18.308h-2.07V-13.5l.092,2.162a5.081,5.081,0,0,0-3.519-1.472c-2.852,0-5.4,2.53-5.4,6.578C175.72-2.07,177.744.3,180.872.3Zm.46-1.748c-2.208,0-3.45-1.794-3.45-4.807,0-2.852,1.587-4.784,3.611-4.784a4.475,4.475,0,0,1,3.059,1.311v6.555A4.371,4.371,0,0,1,181.332-1.449ZM193.729,0h2.093V-9.062c1.265-1.265,2.139-1.909,3.427-1.909,1.656,0,2.369.989,2.369,3.335V0h2.093V-7.912c0-3.2-1.2-4.9-3.818-4.9a5.864,5.864,0,0,0-4.14,2.093l.069-2.576v-5.014h-2.093Zm15.686.3a6.691,6.691,0,0,0,4.14-1.794h.069l.184,1.5h1.725V-7.682c0-3.082-1.288-5.129-4.324-5.129a9.394,9.394,0,0,0-4.922,1.633l.828,1.449a6.881,6.881,0,0,1,3.749-1.334c2.047,0,2.576,1.541,2.576,3.151-5.313.6-7.682,1.955-7.682,4.669A3.386,3.386,0,0,0,209.415.3Zm.6-1.679c-1.242,0-2.208-.575-2.208-2,0-1.61,1.426-2.645,5.635-3.151v3.5A5.1,5.1,0,0,1,210.013-1.38ZM221.628.3c2.944,0,4.554-1.679,4.554-3.7,0-2.369-2-3.105-3.818-3.8-1.4-.529-2.691-.966-2.691-2.162,0-.966.736-1.794,2.323-1.794a4.572,4.572,0,0,1,2.829,1.1l1.012-1.357a6.347,6.347,0,0,0-3.864-1.4c-2.714,0-4.324,1.564-4.324,3.542,0,2.116,1.909,2.967,3.657,3.611,1.38.529,2.852,1.081,2.852,2.369,0,1.081-.805,1.955-2.461,1.955a5.665,5.665,0,0,1-3.7-1.472l-1.035,1.38A7.533,7.533,0,0,0,221.628.3ZM5.382,27.3c2.944,0,4.554-1.679,4.554-3.7,0-2.369-2-3.105-3.818-3.8-1.4-.529-2.691-.966-2.691-2.162,0-.966.736-1.794,2.323-1.794a4.573,4.573,0,0,1,2.829,1.1l1.012-1.357a6.347,6.347,0,0,0-3.864-1.4c-2.714,0-4.324,1.564-4.324,3.542,0,2.116,1.909,2.967,3.657,3.611,1.38.529,2.852,1.081,2.852,2.369,0,1.081-.8,1.955-2.461,1.955a5.665,5.665,0,0,1-3.7-1.472L.713,25.574A7.533,7.533,0,0,0,5.382,27.3Zm11.2,0c3.059,0,5.8-2.392,5.8-6.532,0-4.163-2.737-6.578-5.8-6.578s-5.8,2.415-5.8,6.578C10.787,24.907,13.524,27.3,16.583,27.3Zm0-1.748c-2.162,0-3.611-1.909-3.611-4.784s1.449-4.83,3.611-4.83,3.634,1.955,3.634,4.83S18.745,25.551,16.583,25.551ZM26.726,27.3a3.222,3.222,0,0,0,1.219-.184l-.3-1.61a1.837,1.837,0,0,1-.437.046c-.322,0-.6-.253-.6-.9V8.692H24.518V24.516C24.518,26.287,25.162,27.3,26.726,27.3Zm5.888-.3h2.438l4.439-12.489h-2.07l-2.369,7.107c-.368,1.219-.759,2.507-1.15,3.68H33.81c-.391-1.173-.782-2.461-1.173-3.68l-2.346-7.107H28.106Zm13.087.3a7.433,7.433,0,0,0,4.14-1.288l-.759-1.38a5.384,5.384,0,0,1-3.128.989c-2.369,0-4-1.7-4.14-4.37h8.418a8.171,8.171,0,0,0,.092-1.2c0-3.565-1.794-5.865-4.968-5.865-2.9,0-5.635,2.53-5.635,6.578C39.721,24.884,42.389,27.3,45.7,27.3Zm-3.91-7.567c.253-2.438,1.817-3.864,3.588-3.864,1.955,0,3.1,1.357,3.1,3.864ZM56.511,27.3a5.57,5.57,0,0,0,3.795-1.771h.069L60.559,27h1.7V8.692h-2.07V13.5l.092,2.162a5.081,5.081,0,0,0-3.519-1.472c-2.852,0-5.4,2.53-5.4,6.578C51.359,24.93,53.383,27.3,56.511,27.3Zm.46-1.748c-2.208,0-3.45-1.794-3.45-4.807,0-2.852,1.587-4.784,3.611-4.784a4.475,4.475,0,0,1,3.059,1.311v6.555A4.371,4.371,0,0,1,56.971,25.551ZM74.4,27.3a7.433,7.433,0,0,0,4.14-1.288l-.759-1.38a5.384,5.384,0,0,1-3.128.989c-2.369,0-4-1.7-4.14-4.37h8.418a8.17,8.17,0,0,0,.092-1.2c0-3.565-1.794-5.865-4.968-5.865-2.9,0-5.635,2.53-5.635,6.578C68.425,24.884,71.093,27.3,74.4,27.3Zm-3.91-7.567c.253-2.438,1.817-3.864,3.588-3.864,1.955,0,3.1,1.357,3.1,3.864ZM80.96,27h2.093V17.938c1.265-1.265,2.139-1.909,3.427-1.909,1.656,0,2.369.989,2.369,3.335V27h2.093V19.088c0-3.2-1.2-4.9-3.818-4.9a5.989,5.989,0,0,0-4.186,2.116h-.069l-.184-1.794H80.96Zm17.756.3c3.059,0,5.8-2.392,5.8-6.532,0-4.163-2.737-6.578-5.8-6.578s-5.8,2.415-5.8,6.578C92.92,24.907,95.657,27.3,98.716,27.3Zm0-1.748c-2.162,0-3.611-1.909-3.611-4.784s1.449-4.83,3.611-4.83,3.634,1.955,3.634,4.83S100.878,25.551,98.716,25.551ZM110.285,27.3a5.358,5.358,0,0,0,4.14-2.254h.069L114.655,27H116.4V14.511H114.31v8.855c-1.2,1.5-2.093,2.116-3.381,2.116-1.656,0-2.346-.989-2.346-3.312V14.511H106.49v7.912C106.49,25.6,107.663,27.3,110.285,27.3Zm13.386,5.451c3.864,0,6.325-2,6.325-4.324,0-2.047-1.472-2.967-4.37-2.967h-2.438c-1.679,0-2.185-.552-2.185-1.357a1.86,1.86,0,0,1,.805-1.495,4.344,4.344,0,0,0,1.863.437,4.283,4.283,0,0,0,4.554-4.347,3.567,3.567,0,0,0-1.012-2.576h2.553v-1.61h-4.347a5.152,5.152,0,0,0-1.748-.322,4.448,4.448,0,0,0-4.692,4.462,4.384,4.384,0,0,0,1.633,3.358V22.1a3.047,3.047,0,0,0-1.4,2.323,2.258,2.258,0,0,0,1.15,2.047v.092a3.5,3.5,0,0,0-1.84,2.829C118.519,31.554,120.612,32.75,123.671,32.75Zm0-11.132A2.737,2.737,0,0,1,121,18.651a2.679,2.679,0,1,1,5.336,0A2.75,2.75,0,0,1,123.671,21.618Zm.3,9.706c-2.254,0-3.611-.874-3.611-2.208A2.6,2.6,0,0,1,121.624,27a7.024,7.024,0,0,0,1.61.207H125.4c1.656,0,2.553.391,2.553,1.541C127.949,30.059,126.362,31.324,123.97,31.324ZM131.261,27h2.093V17.938c1.265-1.265,2.139-1.909,3.427-1.909,1.656,0,2.369.989,2.369,3.335V27h2.093V19.088c0-3.2-1.2-4.9-3.818-4.9a5.864,5.864,0,0,0-4.14,2.093l.069-2.576V8.692h-2.093Zm16.813,5.267h2.093V28.035l-.046-2.185a5.635,5.635,0,0,0,3.45,1.449c2.875,0,5.428-2.461,5.428-6.739,0-3.841-1.748-6.371-4.968-6.371a6.66,6.66,0,0,0-3.979,1.748h-.069l-.184-1.426h-1.725Zm5.152-6.716a4.84,4.84,0,0,1-3.059-1.311V17.685a5.207,5.207,0,0,1,3.358-1.725c2.369,0,3.289,1.863,3.289,4.623C156.814,23.688,155.3,25.551,153.226,25.551ZM161.184,27h2.093V18.973c.828-2.139,2.116-2.875,3.151-2.875a2.955,2.955,0,0,1,1.219.207l.391-1.84a2.662,2.662,0,0,0-1.334-.276c-1.4,0-2.668,1.012-3.542,2.6h-.069l-.184-2.277h-1.725Zm12.374.3c3.059,0,5.8-2.392,5.8-6.532,0-4.163-2.737-6.578-5.8-6.578s-5.8,2.415-5.8,6.578C167.762,24.907,170.5,27.3,173.558,27.3Zm0-1.748c-2.162,0-3.611-1.909-3.611-4.784s1.449-4.83,3.611-4.83,3.634,1.955,3.634,4.83S175.72,25.551,173.558,25.551ZM186.99,27.3c2.875,0,5.428-2.461,5.428-6.762,0-3.818-1.748-6.348-4.991-6.348a6.292,6.292,0,0,0-3.91,1.771l.069-2.254V8.692h-2.093V27h1.679l.184-1.288h.092A5.547,5.547,0,0,0,186.99,27.3Zm-.345-1.748a4.794,4.794,0,0,1-3.059-1.311V17.685a5.158,5.158,0,0,1,3.358-1.725c2.369,0,3.289,1.863,3.289,4.623C190.233,23.688,188.715,25.551,186.645,25.551Zm10.12,1.748a3.222,3.222,0,0,0,1.219-.184l-.3-1.61a1.837,1.837,0,0,1-.437.046c-.322,0-.6-.253-.6-.9V8.692h-2.093V24.516C194.557,26.287,195.2,27.3,196.765,27.3Zm8.234,0a7.433,7.433,0,0,0,4.14-1.288l-.759-1.38a5.384,5.384,0,0,1-3.128.989c-2.369,0-4-1.7-4.14-4.37h8.418a8.172,8.172,0,0,0,.092-1.2c0-3.565-1.794-5.865-4.968-5.865-2.9,0-5.635,2.53-5.635,6.578C199.019,24.884,201.687,27.3,205,27.3Zm-3.91-7.567c.253-2.438,1.817-3.864,3.588-3.864,1.955,0,3.105,1.357,3.105,3.864ZM211.554,27h2.093V17.938c1.15-1.288,2.208-1.909,3.151-1.909,1.587,0,2.323.989,2.323,3.335V27h2.093V17.938c1.173-1.288,2.185-1.909,3.151-1.909,1.587,0,2.323.989,2.323,3.335V27h2.093V19.088c0-3.2-1.219-4.9-3.795-4.9-1.518,0-2.829.989-4.117,2.392a3.294,3.294,0,0,0-3.45-2.392,5.488,5.488,0,0,0-3.887,2.139h-.069l-.184-1.817h-1.725Zm23.414.3c2.944,0,4.554-1.679,4.554-3.7,0-2.369-2-3.105-3.818-3.8-1.4-.529-2.691-.966-2.691-2.162,0-.966.736-1.794,2.323-1.794a4.572,4.572,0,0,1,2.829,1.1l1.012-1.357a6.347,6.347,0,0,0-3.864-1.4c-2.714,0-4.324,1.564-4.324,3.542,0,2.116,1.909,2.967,3.657,3.611,1.38.529,2.852,1.081,2.852,2.369,0,1.081-.805,1.955-2.461,1.955a5.665,5.665,0,0,1-3.7-1.472l-1.035,1.38A7.533,7.533,0,0,0,234.968,27.3Zm7.222-5.382h1.449l.276-9.752.069-2.392h-2.139l.069,2.392ZM242.9,27.3a1.506,1.506,0,0,0,1.518-1.587A1.519,1.519,0,1,0,242.9,27.3Z" transform="translate(57.126 190.379)" fill="#00c3e1"/><path d="M1.68-6.36A3.714,3.714,0,0,0,3.93-9.84c0-1.275-.51-2.025-1.455-2.025a1.174,1.174,0,0,0-1.2,1.26,1.138,1.138,0,0,0,1.2,1.155.615.615,0,0,0,.165-.015A2.338,2.338,0,0,1,1.17-7.32ZM7.035.21c2.19,0,3.345-1.185,3.345-2.655,0-1.56-1.23-2.115-2.34-2.535-.885-.33-1.665-.555-1.665-1.17,0-.48.36-.81,1.125-.81a3.127,3.127,0,0,1,1.8.72l.99-1.335A4.656,4.656,0,0,0,7.44-8.61C5.52-8.61,4.3-7.545,4.3-6.045c0,1.41,1.185,2.055,2.25,2.46.885.345,1.755.63,1.755,1.26,0,.525-.375.885-1.215.885a3.647,3.647,0,0,1-2.25-.915l-1,1.38A5.328,5.328,0,0,0,7.035.21Zm9.33,0c2.19,0,3.345-1.185,3.345-2.655,0-1.56-1.23-2.115-2.34-2.535-.885-.33-1.665-.555-1.665-1.17,0-.48.36-.81,1.125-.81a3.127,3.127,0,0,1,1.8.72l.99-1.335A4.656,4.656,0,0,0,16.77-8.61c-1.92,0-3.135,1.065-3.135,2.565,0,1.41,1.185,2.055,2.25,2.46.885.345,1.755.63,1.755,1.26,0,.525-.375.885-1.215.885a3.647,3.647,0,0,1-2.25-.915l-1,1.38A5.328,5.328,0,0,0,16.365.21ZM20.64,0h2.2V-5.775A2.394,2.394,0,0,1,24.45-6.72c.795,0,1.185.45,1.185,1.755V0h2.19V-5.775a2.451,2.451,0,0,1,1.62-.945c.8,0,1.17.45,1.17,1.755V0h2.2V-5.235c0-2.115-.825-3.375-2.61-3.375a3.725,3.725,0,0,0-2.67,1.47,2.286,2.286,0,0,0-2.31-1.47,3.537,3.537,0,0,0-2.58,1.335H22.6L22.44-8.4h-1.8ZM36.42.21A3.95,3.95,0,0,0,38.955-.9h.06l.15.9h1.8V-4.905c0-2.43-1.095-3.7-3.225-3.7A6.711,6.711,0,0,0,34.23-7.5l.8,1.455a4.746,4.746,0,0,1,2.31-.8c1.035,0,1.4.63,1.44,1.455-3.39.36-4.845,1.3-4.845,3.105A2.386,2.386,0,0,0,36.42.21Zm.72-1.725c-.645,0-1.11-.285-1.11-.945,0-.75.69-1.32,2.745-1.575v1.7A2.283,2.283,0,0,1,37.14-1.515ZM42.465,0h2.2V-5.01c.465-1.215,1.26-1.65,1.92-1.65a2.806,2.806,0,0,1,.885.135l.375-1.9a2.376,2.376,0,0,0-.99-.18,2.91,2.91,0,0,0-2.385,1.695H44.43L44.265-8.4h-1.8ZM51.33.21A5.428,5.428,0,0,0,53.1-.105L52.74-1.71a2.454,2.454,0,0,1-.825.18c-.75,0-1.14-.45-1.14-1.41V-6.66h2.07V-8.4h-2.07v-2.265h-1.83L48.69-8.4l-1.305.1V-6.66H48.57v3.72C48.57-1.065,49.335.21,51.33.21Zm4.545,3.225C57.99,3.435,58.68,2.01,58.68.21V-8.4h-2.2V.27c0,.945-.21,1.425-.915,1.425a2.173,2.173,0,0,1-.7-.12l-.39,1.635A3.98,3.98,0,0,0,55.875,3.435ZM57.57-9.75a1.186,1.186,0,0,0,1.29-1.215,1.183,1.183,0,0,0-1.29-1.2,1.179,1.179,0,0,0-1.275,1.2A1.182,1.182,0,0,0,57.57-9.75ZM62.8.21a3.37,3.37,0,0,0,2.67-1.41h.06L65.7,0h1.8V-8.4H65.295v5.67a2.024,2.024,0,0,1-1.71,1.05c-.81,0-1.17-.465-1.17-1.755V-8.4h-2.2v5.25C60.21-1.05,60.99.21,62.8.21Zm9.255,0A3.484,3.484,0,0,0,74.385-.87h.06L74.61,0h1.785V-11.97h-2.19v2.955L74.28-7.7a2.891,2.891,0,0,0-2.13-.915c-1.815,0-3.525,1.68-3.525,4.41C68.625-1.44,69.975.21,72.06.21Zm.57-1.815c-1.11,0-1.74-.87-1.74-2.61,0-1.68.795-2.58,1.74-2.58a2.265,2.265,0,0,1,1.575.63v3.69A1.911,1.911,0,0,1,72.63-1.605Zm8.34,5.25c2.805,0,4.575-1.29,4.575-2.985,0-1.47-1.11-2.1-3.135-2.1H80.985c-.99,0-1.32-.24-1.32-.69a.855.855,0,0,1,.36-.72,3.577,3.577,0,0,0,1.08.2c1.8,0,3.24-.96,3.24-2.85A2.218,2.218,0,0,0,83.97-6.78H85.4V-8.4h-3.03a3.951,3.951,0,0,0-1.26-.21,3.094,3.094,0,0,0-3.39,3.03,2.752,2.752,0,0,0,1.125,2.2v.06A2.059,2.059,0,0,0,77.9-1.74,1.592,1.592,0,0,0,78.66-.33v.075a2.039,2.039,0,0,0-1.2,1.74C77.46,2.97,78.99,3.645,80.97,3.645Zm.135-7.665c-.735,0-1.32-.555-1.32-1.56a1.349,1.349,0,0,1,1.32-1.53,1.349,1.349,0,0,1,1.32,1.53C82.425-4.575,81.84-4.02,81.105-4.02ZM81.3,2.25c-1.215,0-2-.4-2-1.11a1.239,1.239,0,0,1,.54-.975,4.741,4.741,0,0,0,1.17.12h1.02c.9,0,1.395.15,1.395.75C83.43,1.7,82.56,2.25,81.3,2.25ZM89.6.21A5.288,5.288,0,0,0,92.52-.72l-.75-1.35a3.462,3.462,0,0,1-1.89.585,2.207,2.207,0,0,1-2.325-2.1H92.73a4.146,4.146,0,0,0,.1-1.02c0-2.31-1.2-4-3.51-4A4.117,4.117,0,0,0,85.41-4.2,4.078,4.078,0,0,0,89.6.21Zm-2.07-5.265A1.891,1.891,0,0,1,89.355-6.9c1.08,0,1.59.72,1.59,1.845ZM93.9,0H96.1V-5.775A2.394,2.394,0,0,1,97.71-6.72c.795,0,1.185.45,1.185,1.755V0h2.19V-5.775a2.451,2.451,0,0,1,1.62-.945c.8,0,1.17.45,1.17,1.755V0h2.2V-5.235c0-2.115-.825-3.375-2.61-3.375a3.725,3.725,0,0,0-2.67,1.47,2.286,2.286,0,0,0-2.31-1.47,3.537,3.537,0,0,0-2.58,1.335h-.045L95.7-8.4H93.9Zm17.37.21a5.288,5.288,0,0,0,2.925-.93l-.75-1.35a3.462,3.462,0,0,1-1.89.585,2.207,2.207,0,0,1-2.325-2.1H114.4a4.146,4.146,0,0,0,.1-1.02c0-2.31-1.2-4-3.51-4a4.117,4.117,0,0,0-3.915,4.41A4.078,4.078,0,0,0,111.27.21ZM109.2-5.055A1.891,1.891,0,0,1,111.03-6.9c1.08,0,1.59.72,1.59,1.845ZM115.575,0h2.205V-5.775a2.361,2.361,0,0,1,1.74-.945c.825,0,1.185.45,1.185,1.755V0h2.205V-5.235c0-2.115-.78-3.375-2.6-3.375a3.872,3.872,0,0,0-2.73,1.32h-.045l-.165-1.11h-1.8Zm11.94.21a5.428,5.428,0,0,0,1.77-.315l-.36-1.605a2.454,2.454,0,0,1-.825.18c-.75,0-1.14-.45-1.14-1.41V-6.66h2.07V-8.4h-2.07v-2.265h-1.83L124.875-8.4l-1.305.1V-6.66h1.185v3.72C124.755-1.065,125.52.21,127.515.21Z" transform="translate(104.08 140.726)" fill="#f5b400"/><rect width="43.766" height="32.253" rx="16.127" transform="translate(50.314 139.777) rotate(-45)" fill="url(#a)"/><path d="M-8.562-21.63a1.353,1.353,0,0,1,.738.2,1.569,1.569,0,0,1,.541.771l3.69,9.512a.972.972,0,0,1,0,.82.965.965,0,0,1-.59.476,1.469,1.469,0,0,1-.812.033.853.853,0,0,1-.582-.623l-.951-2.624h-4.133l-.968,2.69a.815.815,0,0,1-.549.566,1.354,1.354,0,0,1-.763-.041,1,1,0,0,1-.574-.443.862.862,0,0,1,0-.771l3.69-9.594a1.466,1.466,0,0,1,.533-.771A1.364,1.364,0,0,1-8.562-21.63Zm-.033,2.624q-.131.492-.254.877t-.32.943l-.869,2.378h2.886L-8-17.186q-.213-.574-.336-.984T-8.595-19.006ZM-.51-21.63a1.275,1.275,0,0,1,.738.213.775.775,0,0,1,.312.689v10.053a.775.775,0,0,1-.312.689,1.275,1.275,0,0,1-.738.213,1.275,1.275,0,0,1-.738-.213.775.775,0,0,1-.312-.689V-20.728a.775.775,0,0,1,.312-.689A1.275,1.275,0,0,1-.51-21.63Z" transform="translate(83.461 151.045)" fill="#fff" stroke="#fff" stroke-width="1.5"/><rect width="41" height="41" transform="translate(56.874 115)" fill="#fff" opacity="0"/></g></svg>