<svg xmlns="http://www.w3.org/2000/svg" width="868" height="316" viewBox="0 0 868 316"><g transform="translate(-194 -236)"><path d="M70.5,0h279a70.5,70.5,0,0,1,0,141H70.5a70.5,70.5,0,0,1,0-141Z" transform="translate(642 411)" fill="#eafdff"/><path d="M4.864.208c2.448,0,3.984-1.472,3.984-3.328,0-1.744-1.056-2.544-2.416-3.136l-1.68-.72C3.84-7.36,2.816-7.792,2.816-8.928c0-1.056.864-1.728,2.192-1.728a3.8,3.8,0,0,1,2.672,1.1l.784-.944a4.809,4.809,0,0,0-3.456-1.456c-2.128,0-3.7,1.312-3.7,3.12A3.313,3.313,0,0,0,3.7-5.824l1.7.736c1.1.5,1.952.88,1.952,2.08,0,1.152-.928,1.92-2.464,1.92A4.543,4.543,0,0,1,1.648-2.544l-.9,1.008A5.6,5.6,0,0,0,4.864.208Zm7.664,0a5.47,5.47,0,0,0,1.6-.32L13.84-1.2a3.078,3.078,0,0,1-.992.224c-1.008,0-1.344-.608-1.344-1.68V-7.5h2.352V-8.688H11.5v-2.448H10.288l-.176,2.448-1.36.08v1.1h1.3v4.816C10.048-.96,10.672.208,12.528.208Zm5.024,0a3.727,3.727,0,0,0,2.88-1.568h.048L20.592,0h1.216V-8.688H20.352v6.16C19.52-1.488,18.9-1.056,18-1.056c-1.152,0-1.632-.688-1.632-2.3V-8.688H14.912v5.5C14.912-.976,15.728.208,17.552.208Zm9.344,0a3.875,3.875,0,0,0,2.64-1.232h.048L29.712,0H30.9V-12.736h-1.44v3.344l.064,1.5a3.535,3.535,0,0,0-2.448-1.024c-1.984,0-3.76,1.76-3.76,4.576C23.312-1.44,24.72.208,26.9.208Zm.32-1.216c-1.536,0-2.4-1.248-2.4-3.344,0-1.984,1.1-3.328,2.512-3.328a3.113,3.113,0,0,1,2.128.912v4.56A3.041,3.041,0,0,1,27.216-1.008ZM33.2,3.744c1.728,0,2.64-1.312,3.232-3.024l3.28-9.408H38.288L36.736-3.856c-.24.768-.5,1.648-.736,2.432h-.08c-.272-.784-.576-1.68-.832-2.432L33.312-8.688h-1.52L35.28.016l-.192.656c-.352,1.072-.976,1.872-1.968,1.872a2.076,2.076,0,0,1-.656-.144l-.288,1.168A2.675,2.675,0,0,0,33.2,3.744ZM43.376,0h1.456V-6.3a3.209,3.209,0,0,1,2.192-1.328c1.1,0,1.616.688,1.616,2.32V0H50.1V-6.3a3.209,3.209,0,0,1,2.192-1.328c1.1,0,1.616.688,1.616,2.32V0H55.36V-5.5c0-2.224-.848-3.408-2.64-3.408a4.107,4.107,0,0,0-2.864,1.664,2.291,2.291,0,0,0-2.4-1.664,3.817,3.817,0,0,0-2.7,1.488H44.7l-.128-1.264h-1.2ZM59.392.208a4.655,4.655,0,0,0,2.88-1.248h.048L62.448,0h1.2V-5.344c0-2.144-.9-3.568-3.008-3.568a6.535,6.535,0,0,0-3.424,1.136l.576,1.008A4.787,4.787,0,0,1,60.4-7.7c1.424,0,1.792,1.072,1.792,2.192-3.7.416-5.344,1.36-5.344,3.248A2.355,2.355,0,0,0,59.392.208ZM59.808-.96c-.864,0-1.536-.4-1.536-1.392,0-1.12.992-1.84,3.92-2.192v2.432A3.551,3.551,0,0,1,59.808-.96Zm8.3,1.168a5.47,5.47,0,0,0,1.6-.32L69.424-1.2a3.078,3.078,0,0,1-.992.224c-1.008,0-1.344-.608-1.344-1.68V-7.5H69.44V-8.688H67.088v-2.448H65.872L65.7-8.688l-1.36.08v1.1h1.3v4.816C65.632-.96,66.256.208,68.112.208ZM70.608,0h1.456V-6.3a3.3,3.3,0,0,1,2.384-1.328c1.152,0,1.648.688,1.648,2.32V0h1.456V-5.5c0-2.224-.832-3.408-2.656-3.408a4.079,4.079,0,0,0-2.88,1.456l.048-1.792v-3.488H70.608ZM84.3.208a4.655,4.655,0,0,0,2.88-1.248h.048L87.36,0h1.2V-5.344c0-2.144-.9-3.568-3.008-3.568a6.535,6.535,0,0,0-3.424,1.136L82.7-6.768A4.787,4.787,0,0,1,85.312-7.7C86.736-7.7,87.1-6.624,87.1-5.5c-3.7.416-5.344,1.36-5.344,3.248A2.355,2.355,0,0,0,84.3.208ZM84.72-.96c-.864,0-1.536-.4-1.536-1.392,0-1.12.992-1.84,3.92-2.192v2.432A3.551,3.551,0,0,1,84.72-.96ZM90.528,0h1.456V-6.3a3.3,3.3,0,0,1,2.384-1.328c1.152,0,1.648.688,1.648,2.32V0h1.456V-5.5c0-2.224-.832-3.408-2.656-3.408A4.167,4.167,0,0,0,91.9-7.44h-.048l-.128-1.248h-1.2Zm9.12,3.744c1.728,0,2.64-1.312,3.232-3.024l3.28-9.408h-1.424l-1.552,4.832c-.24.768-.5,1.648-.736,2.432h-.08c-.272-.784-.576-1.68-.832-2.432L99.76-8.688H98.24l3.488,8.7-.192.656c-.352,1.072-.976,1.872-1.968,1.872a2.076,2.076,0,0,1-.656-.144l-.288,1.168A2.675,2.675,0,0,0,99.648,3.744ZM109.776.208a5.47,5.47,0,0,0,1.6-.32L111.088-1.2a3.078,3.078,0,0,1-.992.224c-1.008,0-1.344-.608-1.344-1.68V-7.5H111.1V-8.688h-2.352v-2.448h-1.216l-.176,2.448-1.36.08v1.1h1.3v4.816C107.3-.96,107.92.208,109.776.208Zm2.5-.208h1.456V-8.688h-1.456Zm.736-10.48a.924.924,0,0,0,.976-.976.916.916,0,0,0-.976-.944.916.916,0,0,0-.976.944A.924.924,0,0,0,113.008-10.48ZM115.872,0h1.456V-6.3a3.209,3.209,0,0,1,2.192-1.328c1.1,0,1.616.688,1.616,2.32V0h1.456V-6.3a3.209,3.209,0,0,1,2.192-1.328c1.1,0,1.616.688,1.616,2.32V0h1.456V-5.5c0-2.224-.848-3.408-2.64-3.408a4.107,4.107,0,0,0-2.864,1.664,2.291,2.291,0,0,0-2.4-1.664,3.817,3.817,0,0,0-2.7,1.488H117.2l-.128-1.264h-1.2Zm17.52.208a5.171,5.171,0,0,0,2.88-.9l-.528-.96a3.745,3.745,0,0,1-2.176.688A2.879,2.879,0,0,1,130.688-4h5.856a5.685,5.685,0,0,0,.064-.832c0-2.48-1.248-4.08-3.456-4.08-2.016,0-3.92,1.76-3.92,4.576C129.232-1.472,131.088.208,133.392.208Zm-2.72-5.264a2.668,2.668,0,0,1,2.5-2.688c1.36,0,2.16.944,2.16,2.688ZM142.736.208a4.655,4.655,0,0,0,2.88-1.248h.048L145.792,0h1.2V-5.344c0-2.144-.9-3.568-3.008-3.568a6.535,6.535,0,0,0-3.424,1.136l.576,1.008a4.787,4.787,0,0,1,2.608-.928c1.424,0,1.792,1.072,1.792,2.192-3.7.416-5.344,1.36-5.344,3.248A2.355,2.355,0,0,0,142.736.208Zm.416-1.168c-.864,0-1.536-.4-1.536-1.392,0-1.12.992-1.84,3.92-2.192v2.432A3.551,3.551,0,0,1,143.152-.96ZM148.96,0h1.456V-6.3A3.3,3.3,0,0,1,152.8-7.632c1.152,0,1.648.688,1.648,2.32V0H155.9V-5.5c0-2.224-.832-3.408-2.656-3.408a4.166,4.166,0,0,0-2.912,1.472h-.048l-.128-1.248h-1.2ZM160.9.208a3.875,3.875,0,0,0,2.64-1.232h.048L163.712,0H164.9V-12.736h-1.44v3.344l.064,1.5a3.535,3.535,0,0,0-2.448-1.024c-1.984,0-3.76,1.76-3.76,4.576C157.312-1.44,158.72.208,160.9.208Zm.32-1.216c-1.536,0-2.4-1.248-2.4-3.344,0-1.984,1.1-3.328,2.512-3.328a3.113,3.113,0,0,1,2.128.912v4.56A3.041,3.041,0,0,1,161.216-1.008ZM171.84.208a4.655,4.655,0,0,0,2.88-1.248h.048L174.9,0h1.2V-5.344c0-2.144-.9-3.568-3.008-3.568a6.535,6.535,0,0,0-3.424,1.136l.576,1.008a4.787,4.787,0,0,1,2.608-.928c1.424,0,1.792,1.072,1.792,2.192-3.7.416-5.344,1.36-5.344,3.248A2.355,2.355,0,0,0,171.84.208Zm.416-1.168c-.864,0-1.536-.4-1.536-1.392,0-1.12.992-1.84,3.92-2.192v2.432A3.551,3.551,0,0,1,172.256-.96Zm5.808.96h1.456V-6.3A3.3,3.3,0,0,1,181.9-7.632c1.152,0,1.648.688,1.648,2.32V0h1.456V-5.5c0-2.224-.832-3.408-2.656-3.408A4.166,4.166,0,0,0,179.44-7.44h-.048l-.128-1.248h-1.2Zm9.12,3.744c1.728,0,2.64-1.312,3.232-3.024l3.28-9.408h-1.424L190.72-3.856c-.24.768-.5,1.648-.736,2.432h-.08c-.272-.784-.576-1.68-.832-2.432L187.3-8.688h-1.52l3.488,8.7-.192.656c-.352,1.072-.976,1.872-1.968,1.872a2.076,2.076,0,0,1-.656-.144l-.288,1.168A2.675,2.675,0,0,0,187.184,3.744ZM195.952,0h1.712l1.216-4.656c.224-.832.4-1.648.592-2.528h.08c.208.88.368,1.68.592,2.5L201.408,0h1.76L205.5-8.688h-1.376l-1.28,5.024c-.192.832-.352,1.616-.544,2.432h-.064c-.208-.816-.4-1.6-.608-2.432l-1.36-5.024h-1.424L197.5-3.664c-.224.816-.4,1.616-.592,2.432h-.08c-.16-.816-.336-1.6-.512-2.432l-1.3-5.024h-1.488Zm10.656,0h1.456V-6.3a3.3,3.3,0,0,1,2.384-1.328c1.152,0,1.648.688,1.648,2.32V0h1.456V-5.5c0-2.224-.832-3.408-2.656-3.408a4.079,4.079,0,0,0-2.88,1.456l.048-1.792v-3.488h-1.456Zm12.416.208a5.171,5.171,0,0,0,2.88-.9l-.528-.96A3.745,3.745,0,0,1,219.2-.96,2.879,2.879,0,0,1,216.32-4h5.856a5.685,5.685,0,0,0,.064-.832c0-2.48-1.248-4.08-3.456-4.08-2.016,0-3.92,1.76-3.92,4.576C214.864-1.472,216.72.208,219.024.208ZM216.3-5.056a2.668,2.668,0,0,1,2.5-2.688c1.36,0,2.16.944,2.16,2.688ZM223.584,0h1.456V-5.584c.576-1.488,1.472-2,2.192-2a2.056,2.056,0,0,1,.848.144l.272-1.28a1.852,1.852,0,0,0-.928-.192A3,3,0,0,0,224.96-7.1h-.048l-.128-1.584h-1.2Zm8.736.208a5.171,5.171,0,0,0,2.88-.9l-.528-.96A3.745,3.745,0,0,1,232.5-.96,2.879,2.879,0,0,1,229.616-4h5.856a5.685,5.685,0,0,0,.064-.832c0-2.48-1.248-4.08-3.456-4.08-2.016,0-3.92,1.76-3.92,4.576C228.16-1.472,230.016.208,232.32.208ZM229.6-5.056a2.668,2.668,0,0,1,2.5-2.688c1.36,0,2.16.944,2.16,2.688ZM2.848,22H4.56l1.216-4.656c.224-.832.4-1.648.592-2.528h.08c.208.88.368,1.68.592,2.5L8.3,22h1.76L12.4,13.312H11.024l-1.28,5.024c-.192.832-.352,1.616-.544,2.432H9.136c-.208-.816-.4-1.6-.608-2.432l-1.36-5.024H5.744L4.4,18.336c-.224.816-.4,1.616-.592,2.432h-.08c-.16-.816-.336-1.6-.512-2.432l-1.3-5.024H.432ZM13.5,22H14.96V13.312H13.5Zm.736-10.48a.96.96,0,1,0-.976-.976A.924.924,0,0,0,14.24,11.52Zm5.6,10.688a5.47,5.47,0,0,0,1.6-.32L21.152,20.8a3.078,3.078,0,0,1-.992.224c-1.008,0-1.344-.608-1.344-1.68V14.5h2.352V13.312H18.816V10.864H17.6l-.176,2.448-1.36.08v1.1h1.3v4.816C17.36,21.04,17.984,22.208,19.84,22.208Zm2.5-.208h1.456V15.7a3.3,3.3,0,0,1,2.384-1.328c1.152,0,1.648.688,1.648,2.32V22H29.28V16.5c0-2.224-.832-3.408-2.656-3.408a4.079,4.079,0,0,0-2.88,1.456l.048-1.792V9.264H22.336Zm12.288.208c2.128,0,4.032-1.664,4.032-4.544,0-2.9-1.9-4.576-4.032-4.576s-4.032,1.68-4.032,4.576C30.592,20.544,32.5,22.208,34.624,22.208Zm0-1.216c-1.5,0-2.512-1.328-2.512-3.328s1.008-3.36,2.512-3.36,2.528,1.36,2.528,3.36S36.128,20.992,34.624,20.992Zm8.048,1.216a3.727,3.727,0,0,0,2.88-1.568H45.6L45.712,22h1.216V13.312H45.472v6.16c-.832,1.04-1.456,1.472-2.352,1.472-1.152,0-1.632-.688-1.632-2.3V13.312H40.032v5.5C40.032,21.024,40.848,22.208,42.672,22.208Zm9.12,0a5.47,5.47,0,0,0,1.6-.32L53.1,20.8a3.078,3.078,0,0,1-.992.224c-1.008,0-1.344-.608-1.344-1.68V14.5H53.12V13.312H50.768V10.864H49.552l-.176,2.448-1.36.08v1.1h1.3v4.816C49.312,21.04,49.936,22.208,51.792,22.208ZM58.448,22H60.16l1.216-4.656c.224-.832.4-1.648.592-2.528h.08c.208.88.368,1.68.592,2.5L63.9,22h1.76L68,13.312H66.624l-1.28,5.024c-.192.832-.352,1.616-.544,2.432h-.064c-.208-.816-.4-1.6-.608-2.432l-1.36-5.024H61.344L60,18.336c-.224.816-.4,1.616-.592,2.432h-.08c-.16-.816-.336-1.6-.512-2.432l-1.3-5.024H56.032Zm13.968.208c2.128,0,4.032-1.664,4.032-4.544,0-2.9-1.9-4.576-4.032-4.576s-4.032,1.68-4.032,4.576C68.384,20.544,70.288,22.208,72.416,22.208Zm0-1.216c-1.5,0-2.512-1.328-2.512-3.328s1.008-3.36,2.512-3.36,2.528,1.36,2.528,3.36S73.92,20.992,72.416,20.992ZM77.936,22h1.456V16.416c.576-1.488,1.472-2,2.192-2a2.056,2.056,0,0,1,.848.144l.272-1.28a1.852,1.852,0,0,0-.928-.192A3,3,0,0,0,79.312,14.9h-.048l-.128-1.584h-1.2Zm5.408,0h1.44V19.712l1.632-1.9L88.96,22h1.584l-3.28-5.184,2.9-3.5H88.528l-3.7,4.592h-.048V9.264h-1.44Zm11.856.208c2,0,3.776-1.712,3.776-4.7,0-2.656-1.216-4.416-3.472-4.416a4.377,4.377,0,0,0-2.72,1.232l.048-1.568V9.264H91.376V22h1.168l.128-.9h.064A3.859,3.859,0,0,0,95.2,22.208Zm-.24-1.216a3.335,3.335,0,0,1-2.128-.912V15.52a3.588,3.588,0,0,1,2.336-1.2c1.648,0,2.288,1.3,2.288,3.216C97.456,19.7,96.4,20.992,94.96,20.992Zm8.88,1.216c2.128,0,4.032-1.664,4.032-4.544,0-2.9-1.9-4.576-4.032-4.576s-4.032,1.68-4.032,4.576C99.808,20.544,101.712,22.208,103.84,22.208Zm0-1.216c-1.5,0-2.512-1.328-2.512-3.328s1.008-3.36,2.512-3.36,2.528,1.36,2.528,3.36S105.344,20.992,103.84,20.992Zm8.9,1.216c2.128,0,4.032-1.664,4.032-4.544,0-2.9-1.9-4.576-4.032-4.576s-4.032,1.68-4.032,4.576C108.7,20.544,110.608,22.208,112.736,22.208Zm0-1.216c-1.5,0-2.512-1.328-2.512-3.328s1.008-3.36,2.512-3.36,2.528,1.36,2.528,3.36S114.24,20.992,112.736,20.992ZM118.256,22h1.44V19.712l1.632-1.9L123.872,22h1.584l-3.28-5.184,2.9-3.5H123.44l-3.7,4.592H119.7V9.264h-1.44Zm10.3.208c2.048,0,3.168-1.168,3.168-2.576,0-1.648-1.392-2.16-2.656-2.64-.976-.368-1.872-.672-1.872-1.5,0-.672.512-1.248,1.616-1.248a3.181,3.181,0,0,1,1.968.768l.7-.944a4.416,4.416,0,0,0-2.688-.976c-1.888,0-3.008,1.088-3.008,2.464,0,1.472,1.328,2.064,2.544,2.512.96.368,1.984.752,1.984,1.648,0,.752-.56,1.36-1.712,1.36a3.941,3.941,0,0,1-2.576-1.024l-.72.96A5.24,5.24,0,0,0,128.56,22.208ZM132.7,25.04A3.56,3.56,0,0,0,135.04,21.7c0-1.072-.464-1.728-1.232-1.728a1.04,1.04,0,0,0-1.1,1.024,1,1,0,0,0,1.072,1.024.656.656,0,0,0,.176-.016,2.4,2.4,0,0,1-1.6,2.176Zm6.7.624h1.456V22.72l-.032-1.52a3.92,3.92,0,0,0,2.4,1.008c2,0,3.776-1.712,3.776-4.688,0-2.672-1.216-4.432-3.456-4.432a4.633,4.633,0,0,0-2.768,1.216h-.048l-.128-.992h-1.2Zm3.584-4.672a3.367,3.367,0,0,1-2.128-.912V15.52a3.622,3.622,0,0,1,2.336-1.2c1.648,0,2.288,1.3,2.288,3.216C145.488,19.7,144.432,20.992,142.992,20.992Zm7.28,1.216a4.655,4.655,0,0,0,2.88-1.248h.048l.128,1.04h1.2V16.656c0-2.144-.9-3.568-3.008-3.568a6.535,6.535,0,0,0-3.424,1.136l.576,1.008a4.787,4.787,0,0,1,2.608-.928c1.424,0,1.792,1.072,1.792,2.192-3.7.416-5.344,1.36-5.344,3.248A2.355,2.355,0,0,0,150.272,22.208Zm.416-1.168c-.864,0-1.536-.4-1.536-1.392,0-1.12.992-1.84,3.92-2.192v2.432A3.551,3.551,0,0,1,150.688,21.04Zm5.808,4.624h1.456V22.72l-.032-1.52a3.92,3.92,0,0,0,2.4,1.008c2,0,3.776-1.712,3.776-4.688,0-2.672-1.216-4.432-3.456-4.432a4.633,4.633,0,0,0-2.768,1.216h-.048l-.128-.992h-1.2Zm3.584-4.672a3.367,3.367,0,0,1-2.128-.912V15.52a3.622,3.622,0,0,1,2.336-1.2c1.648,0,2.288,1.3,2.288,3.216C162.576,19.7,161.52,20.992,160.08,20.992Zm9.04,1.216a5.171,5.171,0,0,0,2.88-.9l-.528-.96a3.745,3.745,0,0,1-2.176.688,2.879,2.879,0,0,1-2.88-3.04h5.856a5.685,5.685,0,0,0,.064-.832c0-2.48-1.248-4.08-3.456-4.08-2.016,0-3.92,1.76-3.92,4.576C164.96,20.528,166.816,22.208,169.12,22.208Zm-2.72-5.264a2.668,2.668,0,0,1,2.5-2.688c1.36,0,2.16.944,2.16,2.688ZM173.68,22h1.456V16.416c.576-1.488,1.472-2,2.192-2a2.056,2.056,0,0,1,.848.144l.272-1.28a1.852,1.852,0,0,0-.928-.192,3,3,0,0,0-2.464,1.808h-.048l-.128-1.584h-1.2Zm4.128,3.04a3.56,3.56,0,0,0,2.336-3.344c0-1.072-.464-1.728-1.232-1.728a1.04,1.04,0,0,0-1.1,1.024,1,1,0,0,0,1.072,1.024.656.656,0,0,0,.176-.016,2.4,2.4,0,0,1-1.6,2.176Zm10.08-2.832c2.128,0,4.032-1.664,4.032-4.544,0-2.9-1.9-4.576-4.032-4.576s-4.032,1.68-4.032,4.576C183.856,20.544,185.76,22.208,187.888,22.208Zm0-1.216c-1.5,0-2.512-1.328-2.512-3.328s1.008-3.36,2.512-3.36,2.528,1.36,2.528,3.36S189.392,20.992,187.888,20.992ZM193.408,22h1.456V16.416c.576-1.488,1.472-2,2.192-2a2.056,2.056,0,0,1,.848.144l.272-1.28a1.852,1.852,0,0,0-.928-.192,3,3,0,0,0-2.464,1.808h-.048l-.128-1.584h-1.2Zm8.192,3.664h1.456V22.72l-.032-1.52a3.92,3.92,0,0,0,2.4,1.008c2,0,3.776-1.712,3.776-4.688,0-2.672-1.216-4.432-3.456-4.432a4.633,4.633,0,0,0-2.768,1.216h-.048l-.128-.992h-1.2Zm3.584-4.672a3.367,3.367,0,0,1-2.128-.912V15.52a3.622,3.622,0,0,1,2.336-1.2c1.648,0,2.288,1.3,2.288,3.216C207.68,19.7,206.624,20.992,205.184,20.992Zm9.04,1.216a5.171,5.171,0,0,0,2.88-.9l-.528-.96a3.745,3.745,0,0,1-2.176.688A2.879,2.879,0,0,1,211.52,18h5.856a5.685,5.685,0,0,0,.064-.832c0-2.48-1.248-4.08-3.456-4.08-2.016,0-3.92,1.76-3.92,4.576C210.064,20.528,211.92,22.208,214.224,22.208Zm-2.72-5.264a2.668,2.668,0,0,1,2.5-2.688c1.36,0,2.16.944,2.16,2.688ZM218.784,22h1.456V15.7a3.3,3.3,0,0,1,2.384-1.328c1.152,0,1.648.688,1.648,2.32V22h1.456V16.5c0-2.224-.832-3.408-2.656-3.408a4.166,4.166,0,0,0-2.912,1.472h-.048l-.128-1.248h-1.2Zm12.4.208A4.213,4.213,0,0,0,234,21.1l-.64-.976a3.063,3.063,0,0,1-2.048.864c-1.6,0-2.688-1.328-2.688-3.328s1.152-3.36,2.736-3.36a2.569,2.569,0,0,1,1.728.768l.752-.96a3.715,3.715,0,0,0-2.544-1.024,4.23,4.23,0,0,0-4.192,4.576C227.1,20.544,228.88,22.208,231.184,22.208ZM235.1,22h1.456V13.312H235.1Zm.736-10.48a.96.96,0,1,0-.976-.976A.924.924,0,0,0,235.84,11.52Zm4.4,10.688a2.241,2.241,0,0,0,.848-.128l-.208-1.12a1.278,1.278,0,0,1-.3.032c-.224,0-.416-.176-.416-.624V9.264H238.7V20.272C238.7,21.5,239.152,22.208,240.24,22.208Zm4.5,0c2.048,0,3.168-1.168,3.168-2.576,0-1.648-1.392-2.16-2.656-2.64-.976-.368-1.872-.672-1.872-1.5,0-.672.512-1.248,1.616-1.248a3.181,3.181,0,0,1,1.968.768l.7-.944a4.416,4.416,0,0,0-2.688-.976c-1.888,0-3.008,1.088-3.008,2.464,0,1.472,1.328,2.064,2.544,2.512.96.368,1.984.752,1.984,1.648,0,.752-.56,1.36-1.712,1.36a3.941,3.941,0,0,1-2.576-1.024l-.72.96A5.24,5.24,0,0,0,244.736,22.208Zm5.168,0a1.057,1.057,0,0,0,1.056-1.1,1.059,1.059,0,1,0-2.112,0A1.057,1.057,0,0,0,249.9,22.208Z" transform="translate(772 507)" fill="#323c46"/><path d="M5.544,17.508c.484-1.694.968-3.542,1.386-5.324h.11c.462,1.76.9,3.63,1.408,5.324l.484,1.782H5.06ZM-.088,26h3.3l1.144-4.18h5.28L10.78,26h3.41L8.954,9.7H5.126Zm20.5.308a6.209,6.209,0,0,0,4.048-1.5l-1.3-2.134a3.826,3.826,0,0,1-2.4.99c-1.76,0-3.058-1.5-3.058-3.828,0-2.31,1.276-3.828,3.168-3.828a2.8,2.8,0,0,1,1.87.814l1.54-2.09A5.386,5.386,0,0,0,20.7,13.372,6.145,6.145,0,0,0,14.41,19.84C14.41,23.932,17.006,26.308,20.416,26.308Zm10.274,0a6.209,6.209,0,0,0,4.048-1.5l-1.3-2.134a3.826,3.826,0,0,1-2.4.99c-1.76,0-3.058-1.5-3.058-3.828,0-2.31,1.276-3.828,3.168-3.828a2.8,2.8,0,0,1,1.87.814l1.54-2.09a5.386,5.386,0,0,0-3.586-1.364,6.145,6.145,0,0,0-6.292,6.468C24.684,23.932,27.28,26.308,30.69,26.308Zm10.406,0a7.756,7.756,0,0,0,4.29-1.364l-1.1-1.98a5.078,5.078,0,0,1-2.772.858,3.237,3.237,0,0,1-3.41-3.08h7.59a6.08,6.08,0,0,0,.154-1.5c0-3.388-1.76-5.874-5.148-5.874-2.926,0-5.742,2.486-5.742,6.468C34.958,23.91,37.642,26.308,41.1,26.308ZM38.06,18.586a2.773,2.773,0,0,1,2.684-2.706c1.584,0,2.332,1.056,2.332,2.706Zm13.31,7.722c3.212,0,4.906-1.738,4.906-3.894,0-2.288-1.8-3.1-3.432-3.718-1.3-.484-2.442-.814-2.442-1.716,0-.7.528-1.188,1.65-1.188a4.586,4.586,0,0,1,2.64,1.056l1.452-1.958a6.829,6.829,0,0,0-4.18-1.518c-2.816,0-4.6,1.562-4.6,3.762,0,2.068,1.738,3.014,3.3,3.608,1.3.506,2.574.924,2.574,1.848,0,.77-.55,1.3-1.782,1.3a5.349,5.349,0,0,1-3.3-1.342L46.684,24.57A7.815,7.815,0,0,0,51.37,26.308Zm10.23,0c3.212,0,4.906-1.738,4.906-3.894,0-2.288-1.8-3.1-3.432-3.718-1.3-.484-2.442-.814-2.442-1.716,0-.7.528-1.188,1.65-1.188a4.586,4.586,0,0,1,2.64,1.056l1.452-1.958a6.829,6.829,0,0,0-4.18-1.518c-2.816,0-4.6,1.562-4.6,3.762,0,2.068,1.738,3.014,3.3,3.608,1.3.506,2.574.924,2.574,1.848,0,.77-.55,1.3-1.782,1.3a5.349,5.349,0,0,1-3.3-1.342L56.914,24.57A7.815,7.815,0,0,0,61.6,26.308ZM68.31,26h3.234V13.68H68.31Zm1.628-14.3a1.775,1.775,0,1,0-1.892-1.782A1.733,1.733,0,0,0,69.938,11.7ZM80.52,26.308c2.706,0,5.236-2.442,5.236-6.688,0-3.762-1.826-6.248-4.862-6.248a5.256,5.256,0,0,0-3.41,1.474l.088-1.98V8.444H74.338V26h2.53l.286-1.3h.088A4.707,4.707,0,0,0,80.52,26.308Zm-.726-2.662a3.357,3.357,0,0,1-2.222-.924V17.31a3.393,3.393,0,0,1,2.42-1.276c1.694,0,2.442,1.3,2.442,3.652C82.434,22.37,81.29,23.646,79.794,23.646Zm11.088,2.662a4.318,4.318,0,0,0,1.672-.286l-.4-2.4a1.823,1.823,0,0,1-.44.044c-.308,0-.638-.242-.638-.99V8.444H87.846v14.1C87.846,24.834,88.638,26.308,90.882,26.308Zm8.6,0a7.756,7.756,0,0,0,4.29-1.364l-1.1-1.98a5.078,5.078,0,0,1-2.772.858,3.237,3.237,0,0,1-3.41-3.08h7.59a6.08,6.08,0,0,0,.154-1.5c0-3.388-1.76-5.874-5.148-5.874-2.926,0-5.742,2.486-5.742,6.468C93.346,23.91,96.03,26.308,99.484,26.308Zm-3.036-7.722a2.773,2.773,0,0,1,2.684-2.706c1.584,0,2.332,1.056,2.332,2.706Zm17.16,7.722a5.793,5.793,0,0,0,3.718-1.628h.088l.22,1.32h2.64V18.806c0-3.564-1.606-5.434-4.73-5.434A9.842,9.842,0,0,0,110.4,15l1.166,2.134a6.961,6.961,0,0,1,3.388-1.166c1.518,0,2.046.924,2.112,2.134-4.972.528-7.106,1.914-7.106,4.554A3.5,3.5,0,0,0,113.608,26.308Zm1.056-2.53c-.946,0-1.628-.418-1.628-1.386,0-1.1,1.012-1.936,4.026-2.31v2.486A3.348,3.348,0,0,1,114.664,23.778ZM122.914,26h3.234V17.53a3.462,3.462,0,0,1,2.552-1.386c1.21,0,1.738.66,1.738,2.574V26h3.234V18.322c0-3.1-1.144-4.95-3.806-4.95a5.678,5.678,0,0,0-4,1.936H125.8l-.242-1.628h-2.64Zm17.776.308a5.11,5.11,0,0,0,3.41-1.584h.088L144.43,26h2.618V8.444h-3.212v4.334l.11,1.936a4.24,4.24,0,0,0-3.124-1.342c-2.662,0-5.17,2.464-5.17,6.468C135.652,23.888,137.632,26.308,140.69,26.308Zm.836-2.662c-1.628,0-2.552-1.276-2.552-3.828,0-2.464,1.166-3.784,2.552-3.784a3.322,3.322,0,0,1,2.31.924V22.37A2.8,2.8,0,0,1,141.526,23.646ZM6.974,48.308a6.209,6.209,0,0,0,4.048-1.5l-1.3-2.134a3.826,3.826,0,0,1-2.4.99c-1.76,0-3.058-1.5-3.058-3.828,0-2.31,1.276-3.828,3.168-3.828a2.8,2.8,0,0,1,1.87.814l1.54-2.09A5.386,5.386,0,0,0,7.26,35.372,6.145,6.145,0,0,0,.968,41.84C.968,45.932,3.564,48.308,6.974,48.308Zm10.186,0c3.08,0,5.918-2.376,5.918-6.468s-2.838-6.468-5.918-6.468-5.918,2.376-5.918,6.468S14.08,48.308,17.16,48.308Zm0-2.64c-1.672,0-2.618-1.5-2.618-3.828,0-2.31.946-3.828,2.618-3.828s2.618,1.518,2.618,3.828C19.778,44.172,18.832,45.668,17.16,45.668ZM25.124,48h3.234V39.53a3.462,3.462,0,0,1,2.552-1.386c1.21,0,1.738.66,1.738,2.574V48h3.234V40.322c0-3.1-1.144-4.95-3.806-4.95a5.678,5.678,0,0,0-4,1.936h-.066l-.242-1.628h-2.64Zm16.214,0h3.74l4.114-12.32h-3.1l-1.8,6.138c-.33,1.21-.66,2.486-.99,3.74h-.11c-.33-1.254-.66-2.53-.99-3.74l-1.8-6.138H37.136Zm14.432.308a7.756,7.756,0,0,0,4.29-1.364l-1.1-1.98a5.078,5.078,0,0,1-2.772.858,3.237,3.237,0,0,1-3.41-3.08h7.59a6.08,6.08,0,0,0,.154-1.5c0-3.388-1.76-5.874-5.148-5.874-2.926,0-5.742,2.486-5.742,6.468C49.632,45.91,52.316,48.308,55.77,48.308Zm-3.036-7.722a2.773,2.773,0,0,1,2.684-2.706c1.584,0,2.332,1.056,2.332,2.706ZM62.524,48h3.234V39.53a3.462,3.462,0,0,1,2.552-1.386c1.21,0,1.738.66,1.738,2.574V48h3.234V40.322c0-3.1-1.144-4.95-3.806-4.95a5.678,5.678,0,0,0-4,1.936h-.066l-.242-1.628h-2.64Zm13.442,0H79.2V35.68H75.966Zm1.628-14.3A1.775,1.775,0,1,0,75.7,31.918,1.733,1.733,0,0,0,77.594,33.7Zm9.768,14.608a7.756,7.756,0,0,0,4.29-1.364l-1.1-1.98a5.078,5.078,0,0,1-2.772.858,3.237,3.237,0,0,1-3.41-3.08h7.59a6.08,6.08,0,0,0,.154-1.5c0-3.388-1.76-5.874-5.148-5.874-2.926,0-5.742,2.486-5.742,6.468C81.224,45.91,83.908,48.308,87.362,48.308Zm-3.036-7.722A2.773,2.773,0,0,1,87.01,37.88c1.584,0,2.332,1.056,2.332,2.706ZM94.116,48H97.35V39.53A3.462,3.462,0,0,1,99.9,38.144c1.21,0,1.738.66,1.738,2.574V48h3.234V40.322c0-3.1-1.144-4.95-3.806-4.95a5.678,5.678,0,0,0-4,1.936H97l-.242-1.628h-2.64Zm17.952.308a7.962,7.962,0,0,0,2.6-.462l-.528-2.354a3.6,3.6,0,0,1-1.21.264c-1.1,0-1.672-.66-1.672-2.068V38.232h3.036V35.68h-3.036V32.358H108.57L108.2,35.68l-1.914.154v2.4h1.738v5.456C108.02,46.438,109.142,48.308,112.068,48.308Z" transform="translate(772 429)" fill="#00c3e1"/><path d="M0,0H120V120H0Z" transform="translate(654 422)" fill="#fff" opacity="0"/><path d="M13,0c7.18,0,13,2.686,13,6s-5.82,6-13,6S0,9.314,0,6,5.82,0,13,0Z" transform="translate(701 498)" fill="#00c3e1" opacity="0.2"/><path d="M-4298.537,1698.765c-1.63,0-18-16.42-18-28.308a17.849,17.849,0,0,1,18-17.692,17.848,17.848,0,0,1,18,17.692C-4280.537,1682.345-4296.905,1698.765-4298.537,1698.765Z" transform="translate(5012.537 -1196.766)" fill="#fff" stroke="#46505a" stroke-miterlimit="10" stroke-width="3"/><path d="M6,0A6,6,0,1,1,0,6,6,6,0,0,1,6,0Z" transform="translate(708 468)" fill="none" stroke="#46505a" stroke-width="3"/><path d="M70.5,0h289a70.5,70.5,0,0,1,0,141H70.5a70.5,70.5,0,0,1,0-141Z" transform="translate(194 411)" fill="#eafdff"/><path d="M6.032,19.208a4.534,4.534,0,0,0,3.6-1.68L8.816,16.6A3.565,3.565,0,0,1,6.1,17.912c-2.24,0-3.648-1.856-3.648-4.816,0-2.928,1.472-4.752,3.7-4.752a3.2,3.2,0,0,1,2.4,1.12l.8-.96A4.337,4.337,0,0,0,6.128,7.048c-2.976,0-5.2,2.3-5.2,6.1C.928,16.952,3.12,19.208,6.032,19.208ZM11.28,19h1.456V12.7a3.3,3.3,0,0,1,2.384-1.328c1.152,0,1.648.688,1.648,2.32V19h1.456V13.5c0-2.224-.832-3.408-2.656-3.408a4.079,4.079,0,0,0-2.88,1.456l.048-1.792V6.264H11.28Zm12.688.208C26.1,19.208,28,17.544,28,14.664c0-2.9-1.9-4.576-4.032-4.576s-4.032,1.68-4.032,4.576C19.936,17.544,21.84,19.208,23.968,19.208Zm0-1.216c-1.5,0-2.512-1.328-2.512-3.328s1.008-3.36,2.512-3.36,2.528,1.36,2.528,3.36S25.472,17.992,23.968,17.992Zm9.3,1.216c2.128,0,4.032-1.664,4.032-4.544,0-2.9-1.9-4.576-4.032-4.576s-4.032,1.68-4.032,4.576C29.232,17.544,31.136,19.208,33.264,19.208Zm0-1.216c-1.5,0-2.512-1.328-2.512-3.328s1.008-3.36,2.512-3.36,2.528,1.36,2.528,3.36S34.768,17.992,33.264,17.992Zm8.192,1.216c2.048,0,3.168-1.168,3.168-2.576,0-1.648-1.392-2.16-2.656-2.64-.976-.368-1.872-.672-1.872-1.5,0-.672.512-1.248,1.616-1.248a3.181,3.181,0,0,1,1.968.768l.7-.944a4.416,4.416,0,0,0-2.688-.976c-1.888,0-3.008,1.088-3.008,2.464,0,1.472,1.328,2.064,2.544,2.512.96.368,1.984.752,1.984,1.648,0,.752-.56,1.36-1.712,1.36a3.941,3.941,0,0,1-2.576-1.024l-.72.96A5.24,5.24,0,0,0,41.456,19.208Zm8.32,0a5.171,5.171,0,0,0,2.88-.9l-.528-.96a3.745,3.745,0,0,1-2.176.688A2.879,2.879,0,0,1,47.072,15h5.856a5.684,5.684,0,0,0,.064-.832c0-2.48-1.248-4.08-3.456-4.08-2.016,0-3.92,1.76-3.92,4.576C45.616,17.528,47.472,19.208,49.776,19.208Zm-2.72-5.264a2.668,2.668,0,0,1,2.5-2.688c1.36,0,2.16.944,2.16,2.688Zm13.6,5.264a5.47,5.47,0,0,0,1.6-.32L61.968,17.8a3.078,3.078,0,0,1-.992.224c-1.008,0-1.344-.608-1.344-1.68V11.5h2.352V10.312H59.632V7.864H58.416l-.176,2.448-1.36.08v1.1h1.3v4.816C58.176,18.04,58.8,19.208,60.656,19.208Zm2.9-.208h1.456V12.7a3.3,3.3,0,0,1,2.384-1.328c1.152,0,1.648.688,1.648,2.32V19H70.5V13.5c0-2.224-.832-3.408-2.656-3.408a4.079,4.079,0,0,0-2.88,1.456l.048-1.792V6.264H63.552Zm12.816.208a5.171,5.171,0,0,0,2.88-.9l-.528-.96a3.745,3.745,0,0,1-2.176.688A2.879,2.879,0,0,1,73.664,15H79.52a5.683,5.683,0,0,0,.064-.832c0-2.48-1.248-4.08-3.456-4.08-2.016,0-3.92,1.76-3.92,4.576C72.208,17.528,74.064,19.208,76.368,19.208Zm-2.72-5.264a2.668,2.668,0,0,1,2.5-2.688c1.36,0,2.16.944,2.16,2.688Zm13.6,5.264a5.47,5.47,0,0,0,1.6-.32L88.56,17.8a3.078,3.078,0,0,1-.992.224c-1.008,0-1.344-.608-1.344-1.68V11.5h2.352V10.312H86.224V7.864H85.008l-.176,2.448-1.36.08v1.1h1.3v4.816C84.768,18.04,85.392,19.208,87.248,19.208Zm6.032,0c2.128,0,4.032-1.664,4.032-4.544,0-2.9-1.9-4.576-4.032-4.576s-4.032,1.68-4.032,4.576C89.248,17.544,91.152,19.208,93.28,19.208Zm0-1.216c-1.5,0-2.512-1.328-2.512-3.328s1.008-3.36,2.512-3.36,2.528,1.36,2.528,3.36S94.784,17.992,93.28,17.992Zm5.92,4.672h1.456V19.72l-.032-1.52a3.92,3.92,0,0,0,2.4,1.008c2,0,3.776-1.712,3.776-4.688,0-2.672-1.216-4.432-3.456-4.432a4.633,4.633,0,0,0-2.768,1.216h-.048l-.128-.992H99.2Zm3.584-4.672a3.367,3.367,0,0,1-2.128-.912V12.52a3.622,3.622,0,0,1,2.336-1.2c1.648,0,2.288,1.3,2.288,3.216C105.28,16.7,104.224,17.992,102.784,17.992ZM108.72,19h1.456V10.312H108.72Zm.736-10.48a.924.924,0,0,0,.976-.976.977.977,0,0,0-1.952,0A.924.924,0,0,0,109.456,8.52Zm6.688,10.688a4.213,4.213,0,0,0,2.816-1.1l-.64-.976a3.063,3.063,0,0,1-2.048.864c-1.6,0-2.688-1.328-2.688-3.328s1.152-3.36,2.736-3.36a2.569,2.569,0,0,1,1.728.768l.752-.96a3.715,3.715,0,0,0-2.544-1.024,4.23,4.23,0,0,0-4.192,4.576C112.064,17.544,113.84,19.208,116.144,19.208Zm7.648,3.536c1.728,0,2.64-1.312,3.232-3.024l3.28-9.408H128.88l-1.552,4.832c-.24.768-.5,1.648-.736,2.432h-.08c-.272-.784-.576-1.68-.832-2.432L123.9,10.312h-1.52l3.488,8.7-.192.656c-.352,1.072-.976,1.872-1.968,1.872a2.076,2.076,0,0,1-.656-.144l-.288,1.168A2.675,2.675,0,0,0,123.792,22.744Zm11.1-3.536c2.128,0,4.032-1.664,4.032-4.544,0-2.9-1.9-4.576-4.032-4.576s-4.032,1.68-4.032,4.576C130.864,17.544,132.768,19.208,134.9,19.208Zm0-1.216c-1.5,0-2.512-1.328-2.512-3.328s1.008-3.36,2.512-3.36,2.528,1.36,2.528,3.36S136.4,17.992,134.9,17.992Zm8.448,1.216a3.727,3.727,0,0,0,2.88-1.568h.048l.112,1.36H147.6V10.312h-1.456v6.16c-.832,1.04-1.456,1.472-2.352,1.472-1.152,0-1.632-.688-1.632-2.3V10.312H140.7v5.5C140.7,18.024,141.52,19.208,143.344,19.208ZM154.688,19H156.4l1.216-4.656c.224-.832.4-1.648.592-2.528h.08c.208.88.368,1.68.592,2.5L160.144,19h1.76l2.336-8.688h-1.376l-1.28,5.024c-.192.832-.352,1.616-.544,2.432h-.064c-.208-.816-.4-1.6-.608-2.432l-1.36-5.024h-1.424l-1.344,5.024c-.224.816-.4,1.616-.592,2.432h-.08c-.16-.816-.336-1.6-.512-2.432l-1.3-5.024h-1.488Zm12.88.208a4.655,4.655,0,0,0,2.88-1.248h.048l.128,1.04h1.2V13.656c0-2.144-.9-3.568-3.008-3.568a6.535,6.535,0,0,0-3.424,1.136l.576,1.008a4.787,4.787,0,0,1,2.608-.928c1.424,0,1.792,1.072,1.792,2.192-3.7.416-5.344,1.36-5.344,3.248A2.355,2.355,0,0,0,167.568,19.208Zm.416-1.168c-.864,0-1.536-.4-1.536-1.392,0-1.12.992-1.84,3.92-2.192v2.432A3.551,3.551,0,0,1,167.984,18.04Zm6.208.96h1.456V12.7a3.3,3.3,0,0,1,2.384-1.328c1.152,0,1.648.688,1.648,2.32V19h1.456V13.5c0-2.224-.832-3.408-2.656-3.408a4.166,4.166,0,0,0-2.912,1.472h-.048l-.128-1.248h-1.2Zm12.112.208a5.47,5.47,0,0,0,1.6-.32l-.288-1.088a3.078,3.078,0,0,1-.992.224c-1.008,0-1.344-.608-1.344-1.68V11.5h2.352V10.312H185.28V7.864h-1.216l-.176,2.448-1.36.08v1.1h1.3v4.816C183.824,18.04,184.448,19.208,186.3,19.208Zm8.816,0a5.47,5.47,0,0,0,1.6-.32l-.288-1.088a3.078,3.078,0,0,1-.992.224c-1.008,0-1.344-.608-1.344-1.68V11.5h2.352V10.312H194.1V7.864H192.88l-.176,2.448-1.36.08v1.1h1.3v4.816C192.64,18.04,193.264,19.208,195.12,19.208Zm6.032,0c2.128,0,4.032-1.664,4.032-4.544,0-2.9-1.9-4.576-4.032-4.576s-4.032,1.68-4.032,4.576C197.12,17.544,199.024,19.208,201.152,19.208Zm0-1.216c-1.5,0-2.512-1.328-2.512-3.328s1.008-3.36,2.512-3.36,2.528,1.36,2.528,3.36S202.656,17.992,201.152,17.992ZM1.472,44.664H2.928V41.72L2.9,40.2a3.92,3.92,0,0,0,2.4,1.008c2,0,3.776-1.712,3.776-4.688,0-2.672-1.216-4.432-3.456-4.432A4.633,4.633,0,0,0,2.848,33.3H2.8l-.128-.992h-1.2Zm3.584-4.672a3.367,3.367,0,0,1-2.128-.912V34.52a3.622,3.622,0,0,1,2.336-1.2c1.648,0,2.288,1.3,2.288,3.216C7.552,38.7,6.5,39.992,5.056,39.992ZM10.992,41h1.456V35.416c.576-1.488,1.472-2,2.192-2a2.056,2.056,0,0,1,.848.144l.272-1.28a1.852,1.852,0,0,0-.928-.192A3,3,0,0,0,12.368,33.9H12.32l-.128-1.584h-1.2Zm7.376.208a4.655,4.655,0,0,0,2.88-1.248H21.3L21.424,41h1.2V35.656c0-2.144-.9-3.568-3.008-3.568a6.535,6.535,0,0,0-3.424,1.136l.576,1.008a4.787,4.787,0,0,1,2.608-.928c1.424,0,1.792,1.072,1.792,2.192-3.7.416-5.344,1.36-5.344,3.248A2.355,2.355,0,0,0,18.368,41.208Zm.416-1.168c-.864,0-1.536-.4-1.536-1.392,0-1.12.992-1.84,3.92-2.192v2.432A3.551,3.551,0,0,1,18.784,40.04Zm9.632,1.168a4.213,4.213,0,0,0,2.816-1.1l-.64-.976a3.063,3.063,0,0,1-2.048.864c-1.6,0-2.688-1.328-2.688-3.328s1.152-3.36,2.736-3.36a2.569,2.569,0,0,1,1.728.768l.752-.96a3.715,3.715,0,0,0-2.544-1.024,4.23,4.23,0,0,0-4.192,4.576C24.336,39.544,26.112,41.208,28.416,41.208Zm6.88,0a5.47,5.47,0,0,0,1.6-.32L36.608,39.8a3.078,3.078,0,0,1-.992.224c-1.008,0-1.344-.608-1.344-1.68V33.5h2.352V32.312H34.272V29.864H33.056l-.176,2.448-1.36.08v1.1h1.3v4.816C32.816,40.04,33.44,41.208,35.3,41.208Zm2.9-.208h1.456V32.312H38.192Zm.736-10.48a.96.96,0,1,0-.976-.976A.924.924,0,0,0,38.928,30.52Zm6.688,10.688a4.213,4.213,0,0,0,2.816-1.1l-.64-.976a3.063,3.063,0,0,1-2.048.864c-1.6,0-2.688-1.328-2.688-3.328s1.152-3.36,2.736-3.36a2.569,2.569,0,0,1,1.728.768l.752-.96a3.715,3.715,0,0,0-2.544-1.024,4.23,4.23,0,0,0-4.192,4.576C41.536,39.544,43.312,41.208,45.616,41.208Zm7.44,0a5.171,5.171,0,0,0,2.88-.9l-.528-.96a3.745,3.745,0,0,1-2.176.688A2.879,2.879,0,0,1,50.352,37h5.856a5.684,5.684,0,0,0,.064-.832c0-2.48-1.248-4.08-3.456-4.08-2.016,0-3.92,1.76-3.92,4.576C48.9,39.528,50.752,41.208,53.056,41.208Zm-2.72-5.264a2.668,2.668,0,0,1,2.5-2.688c1.36,0,2.16.944,2.16,2.688ZM61.2,41h1.456V32.312H61.2Zm.736-10.48a.96.96,0,1,0-.976-.976A.924.924,0,0,0,61.936,30.52ZM65.2,41h1.456V34.7a3.3,3.3,0,0,1,2.384-1.328c1.152,0,1.648.688,1.648,2.32V41h1.456V35.5c0-2.224-.832-3.408-2.656-3.408a4.167,4.167,0,0,0-2.912,1.472h-.048L66.4,32.312H65.2Zm12.112.208a5.47,5.47,0,0,0,1.6-.32L78.624,39.8a3.078,3.078,0,0,1-.992.224c-1.008,0-1.344-.608-1.344-1.68V33.5H78.64V32.312H76.288V29.864H75.072L74.9,32.312l-1.36.08v1.1h1.3v4.816C74.832,40.04,75.456,41.208,77.312,41.208Zm6.16,0a5.171,5.171,0,0,0,2.88-.9l-.528-.96a3.745,3.745,0,0,1-2.176.688A2.879,2.879,0,0,1,80.768,37h5.856a5.683,5.683,0,0,0,.064-.832c0-2.48-1.248-4.08-3.456-4.08-2.016,0-3.92,1.76-3.92,4.576C79.312,39.528,81.168,41.208,83.472,41.208Zm-2.72-5.264a2.668,2.668,0,0,1,2.5-2.688c1.36,0,2.16.944,2.16,2.688ZM88.432,41h1.456V34.7a3.3,3.3,0,0,1,2.384-1.328c1.152,0,1.648.688,1.648,2.32V41h1.456V35.5c0-2.224-.832-3.408-2.656-3.408a4.167,4.167,0,0,0-2.912,1.472H89.76l-.128-1.248h-1.2Zm11.648.208c2.048,0,3.168-1.168,3.168-2.576,0-1.648-1.392-2.16-2.656-2.64-.976-.368-1.872-.672-1.872-1.5,0-.672.512-1.248,1.616-1.248a3.181,3.181,0,0,1,1.968.768l.7-.944a4.416,4.416,0,0,0-2.688-.976c-1.888,0-3.008,1.088-3.008,2.464,0,1.472,1.328,2.064,2.544,2.512.96.368,1.984.752,1.984,1.648,0,.752-.56,1.36-1.712,1.36a3.941,3.941,0,0,1-2.576-1.024l-.72.96A5.24,5.24,0,0,0,100.08,41.208ZM104.9,41h1.456V32.312H104.9Zm.736-10.48a.96.96,0,1,0-.976-.976A.924.924,0,0,0,105.632,30.52ZM110.768,41h1.7l3.088-8.688h-1.44l-1.648,4.944c-.256.848-.528,1.744-.8,2.56H111.6c-.272-.816-.544-1.712-.816-2.56l-1.632-4.944h-1.52Zm9.5.208a5.171,5.171,0,0,0,2.88-.9l-.528-.96a3.745,3.745,0,0,1-2.176.688,2.879,2.879,0,0,1-2.88-3.04h5.856a5.683,5.683,0,0,0,.064-.832c0-2.48-1.248-4.08-3.456-4.08-2.016,0-3.92,1.76-3.92,4.576C116.112,39.528,117.968,41.208,120.272,41.208Zm-2.72-5.264a2.668,2.668,0,0,1,2.5-2.688c1.36,0,2.16.944,2.16,2.688Zm9.216,5.264a2.241,2.241,0,0,0,.848-.128l-.208-1.12a1.278,1.278,0,0,1-.3.032c-.224,0-.416-.176-.416-.624v-11.1h-1.456V39.272C125.232,40.5,125.68,41.208,126.768,41.208Zm2.768,3.536c1.728,0,2.64-1.312,3.232-3.024l3.28-9.408h-1.424l-1.552,4.832c-.24.768-.5,1.648-.736,2.432h-.08c-.272-.784-.576-1.68-.832-2.432l-1.776-4.832h-1.52l3.488,8.7-.192.656c-.352,1.072-.976,1.872-1.968,1.872a2.076,2.076,0,0,1-.656-.144l-.288,1.168A2.675,2.675,0,0,0,129.536,44.744Zm7.936-3.536a1.057,1.057,0,0,0,1.056-1.1,1.059,1.059,0,1,0-2.112,0A1.057,1.057,0,0,0,137.472,41.208Z" transform="translate(320 470)" fill="#323c46"/><path d="M2,26H6.644c4.8,0,7.876-2.728,7.876-8.206,0-5.5-3.08-8.1-8.052-8.1H2Zm3.256-2.618V12.316H6.27c3.036,0,4.928,1.5,4.928,5.478,0,3.96-1.892,5.588-4.928,5.588Zm14.564,2.926A5.793,5.793,0,0,0,23.54,24.68h.088l.22,1.32h2.64V18.806c0-3.564-1.606-5.434-4.73-5.434A9.842,9.842,0,0,0,16.61,15l1.166,2.134a6.961,6.961,0,0,1,3.388-1.166c1.518,0,2.046.924,2.112,2.134-4.972.528-7.106,1.914-7.106,4.554A3.5,3.5,0,0,0,19.822,26.308Zm1.056-2.53c-.946,0-1.628-.418-1.628-1.386,0-1.1,1.012-1.936,4.026-2.31v2.486A3.348,3.348,0,0,1,20.878,23.778ZM29.128,26h3.234V13.68H29.128Zm1.628-14.3a1.775,1.775,0,1,0-1.892-1.782A1.733,1.733,0,0,0,30.756,11.7Zm7.436,14.608a4.318,4.318,0,0,0,1.672-.286l-.4-2.4a1.823,1.823,0,0,1-.44.044c-.308,0-.638-.242-.638-.99V8.444H35.156v14.1C35.156,24.834,35.948,26.308,38.192,26.308ZM42.5,30.95c2.75,0,4.07-1.672,5.148-4.576L52.03,13.68h-3.1L47.234,19.4c-.286,1.144-.594,2.332-.88,3.476h-.11c-.352-1.188-.66-2.376-1.034-3.476l-1.958-5.72H40l4.8,12.1-.22.726a2.358,2.358,0,0,1-2.31,1.87,3.313,3.313,0,0,1-.858-.154l-.594,2.486A5.217,5.217,0,0,0,42.5,30.95Zm19.734-4.642a7.962,7.962,0,0,0,2.6-.462l-.528-2.354a3.6,3.6,0,0,1-1.21.264c-1.1,0-1.672-.66-1.672-2.068V16.232H64.46V13.68H61.424V10.358H58.74l-.374,3.322-1.914.154v2.4H58.19v5.456C58.19,24.438,59.312,26.308,62.238,26.308Zm8.8,0c3.08,0,5.918-2.376,5.918-6.468s-2.838-6.468-5.918-6.468S65.12,15.748,65.12,19.84,67.958,26.308,71.038,26.308Zm0-2.64c-1.672,0-2.618-1.5-2.618-3.828,0-2.31.946-3.828,2.618-3.828s2.618,1.518,2.618,3.828C73.656,22.172,72.71,23.668,71.038,23.668ZM79,30.73h3.234V26.99l-.11-2.024a4.579,4.579,0,0,0,3.058,1.342c2.706,0,5.236-2.442,5.236-6.666,0-3.784-1.8-6.27-4.84-6.27a5.849,5.849,0,0,0-3.63,1.584h-.066l-.242-1.276H79Zm5.456-7.084a3.357,3.357,0,0,1-2.222-.924V17.31a3.393,3.393,0,0,1,2.42-1.276c1.694,0,2.442,1.3,2.442,3.652C87.1,22.37,85.954,23.646,84.458,23.646ZM92.51,26h3.234V13.68H92.51Zm1.628-14.3a1.775,1.775,0,1,0-1.892-1.782A1.733,1.733,0,0,0,94.138,11.7Zm9.636,14.608a6.209,6.209,0,0,0,4.048-1.5l-1.3-2.134a3.826,3.826,0,0,1-2.4.99c-1.76,0-3.058-1.5-3.058-3.828,0-2.31,1.276-3.828,3.168-3.828a2.8,2.8,0,0,1,1.87.814l1.54-2.09a5.386,5.386,0,0,0-3.586-1.364,6.145,6.145,0,0,0-6.292,6.468C97.768,23.932,100.364,26.308,103.774,26.308Z" transform="translate(320 436)" fill="#00c3e1"/><path d="M0,0H120V120H0Z" transform="translate(202 422)" fill="#fff" opacity="0"/><path d="M0,0H52V52H0Z" transform="translate(236 457)" fill="#fff" opacity="0"/><path d="M4,0H26a4,4,0,0,1,4,4V24a4,4,0,0,1-4,4H4a4,4,0,0,1-4-4V4A4,4,0,0,1,4,0Z" transform="translate(247 458)" fill="rgba(0,195,225,0.2)" stroke="#46505a" stroke-width="3"/><path d="M-4648.759,1716.365l-2.246,2.807a5,5,0,0,0-.794,4.832l1.843,5.07a5,5,0,0,0,4.7,3.291h8.657a5,5,0,0,0,4.831-3.711l1.025-3.846a8,8,0,0,0-5.377-9.708l-5.638-1.735v-7.5a3.5,3.5,0,0,0-3.5-3.5h0a3.5,3.5,0,0,0-3.5,3.5Z" transform="matrix(0.966, 0.259, -0.259, 0.966, 5191.438, 36.406)" fill="#fff" stroke="#46505a" stroke-linecap="round" stroke-linejoin="round" stroke-width="3"/><path d="M-1446.277,2380.536h2a3,3,0,0,1,3,3v15a3,3,0,0,1-3,3h-2" transform="translate(1729.276 -1918.535)" fill="none" stroke="#46505a" stroke-linecap="round" stroke-miterlimit="10" stroke-width="3"/><path d="M-1441.276,2380.536h-2a3,3,0,0,0-3,3v15a3,3,0,0,0,3,3h2" transform="translate(1682.276 -1918.535)" fill="none" stroke="#46505a" stroke-linecap="round" stroke-miterlimit="10" stroke-width="3"/><path d="M70.5,0h279a70.5,70.5,0,0,1,0,141H70.5a70.5,70.5,0,0,1,0-141Z" transform="translate(642 236)" fill="#eafdff"/><path d="M1.6,19H3.088V13.736h4.48V12.488H3.088V8.52h5.28V7.256H1.6Zm10.544.208a3.727,3.727,0,0,0,2.88-1.568h.048L15.184,19H16.4V10.312H14.944v6.16c-.832,1.04-1.456,1.472-2.352,1.472-1.152,0-1.632-.688-1.632-2.3V10.312H9.5v5.5C9.5,18.024,10.32,19.208,12.144,19.208Zm8.32,0a2.241,2.241,0,0,0,.848-.128L21.1,17.96a1.278,1.278,0,0,1-.3.032c-.224,0-.416-.176-.416-.624V6.264H18.928V17.272C18.928,18.5,19.376,19.208,20.464,19.208Zm4.16,0a2.241,2.241,0,0,0,.848-.128l-.208-1.12a1.278,1.278,0,0,1-.3.032c-.224,0-.416-.176-.416-.624V6.264H23.088V17.272C23.088,18.5,23.536,19.208,24.624,19.208Zm9.184,0c2.128,0,4.032-1.664,4.032-4.544,0-2.9-1.9-4.576-4.032-4.576s-4.032,1.68-4.032,4.576C29.776,17.544,31.68,19.208,33.808,19.208Zm0-1.216c-1.5,0-2.512-1.328-2.512-3.328S32.3,11.3,33.808,11.3s2.528,1.36,2.528,3.36S35.312,17.992,33.808,17.992ZM39.968,19h1.456V11.5h1.84V10.312h-1.84V8.936c0-1.12.4-1.712,1.232-1.712a2.466,2.466,0,0,1,.976.224l.32-1.1A3.747,3.747,0,0,0,42.5,6.056c-1.728,0-2.528,1.1-2.528,2.864v1.392l-1.184.08v1.1h1.184Zm7.744,0h1.456V12.7a3.3,3.3,0,0,1,2.384-1.328c1.152,0,1.648.688,1.648,2.32V19h1.456V13.5c0-2.224-.832-3.408-2.656-3.408a4.167,4.167,0,0,0-2.912,1.472H49.04l-.128-1.248h-1.2Zm12.88.208a5.171,5.171,0,0,0,2.88-.9l-.528-.96a3.745,3.745,0,0,1-2.176.688A2.879,2.879,0,0,1,57.888,15h5.856a5.684,5.684,0,0,0,.064-.832c0-2.48-1.248-4.08-3.456-4.08-2.016,0-3.92,1.76-3.92,4.576C56.432,17.528,58.288,19.208,60.592,19.208Zm-2.72-5.264a2.668,2.668,0,0,1,2.5-2.688c1.36,0,2.16.944,2.16,2.688ZM67.008,19H68.72l1.216-4.656c.224-.832.4-1.648.592-2.528h.08c.208.88.368,1.68.592,2.5L72.464,19h1.76l2.336-8.688H75.184L73.9,15.336c-.192.832-.352,1.616-.544,2.432H73.3c-.208-.816-.4-1.6-.608-2.432l-1.36-5.024H69.9L68.56,15.336c-.224.816-.4,1.616-.592,2.432h-.08c-.16-.816-.336-1.6-.512-2.432l-1.3-5.024H64.592Zm14.24,3.664H82.7V19.72l-.032-1.52a3.92,3.92,0,0,0,2.4,1.008c2,0,3.776-1.712,3.776-4.688,0-2.672-1.216-4.432-3.456-4.432A4.633,4.633,0,0,0,82.624,11.3h-.048l-.128-.992h-1.2Zm3.584-4.672A3.367,3.367,0,0,1,82.7,17.08V12.52a3.622,3.622,0,0,1,2.336-1.2c1.648,0,2.288,1.3,2.288,3.216C87.328,16.7,86.272,17.992,84.832,17.992ZM90.768,19h1.456V13.416c.576-1.488,1.472-2,2.192-2a2.056,2.056,0,0,1,.848.144l.272-1.28a1.852,1.852,0,0,0-.928-.192A3,3,0,0,0,92.144,11.9H92.1l-.128-1.584h-1.2Zm9.008.208c2.128,0,4.032-1.664,4.032-4.544,0-2.9-1.9-4.576-4.032-4.576s-4.032,1.68-4.032,4.576C95.744,17.544,97.648,19.208,99.776,19.208Zm0-1.216c-1.5,0-2.512-1.328-2.512-3.328s1.008-3.36,2.512-3.36,2.528,1.36,2.528,3.36S101.28,17.992,99.776,17.992Zm9.744,1.216c2,0,3.776-1.712,3.776-4.7,0-2.656-1.216-4.416-3.472-4.416a4.377,4.377,0,0,0-2.72,1.232l.048-1.568V6.264H105.7V19h1.168l.128-.9h.064A3.859,3.859,0,0,0,109.52,19.208Zm-.24-1.216a3.335,3.335,0,0,1-2.128-.912V12.52a3.588,3.588,0,0,1,2.336-1.2c1.648,0,2.288,1.3,2.288,3.216C111.776,16.7,110.72,17.992,109.28,17.992Zm7.44,1.216a2.241,2.241,0,0,0,.848-.128l-.208-1.12a1.278,1.278,0,0,1-.3.032c-.224,0-.416-.176-.416-.624V6.264h-1.456V17.272C115.184,18.5,115.632,19.208,116.72,19.208Zm6.128,0a5.171,5.171,0,0,0,2.88-.9l-.528-.96a3.745,3.745,0,0,1-2.176.688,2.879,2.879,0,0,1-2.88-3.04H126a5.683,5.683,0,0,0,.064-.832c0-2.48-1.248-4.08-3.456-4.08-2.016,0-3.92,1.76-3.92,4.576C118.688,17.528,120.544,19.208,122.848,19.208Zm-2.72-5.264a2.668,2.668,0,0,1,2.5-2.688c1.36,0,2.16.944,2.16,2.688ZM127.808,19h1.456V12.7a3.209,3.209,0,0,1,2.192-1.328c1.1,0,1.616.688,1.616,2.32V19h1.456V12.7a3.209,3.209,0,0,1,2.192-1.328c1.1,0,1.616.688,1.616,2.32V19h1.456V13.5c0-2.224-.848-3.408-2.64-3.408a4.107,4.107,0,0,0-2.864,1.664,2.291,2.291,0,0,0-2.4-1.664,3.817,3.817,0,0,0-2.7,1.488h-.048l-.128-1.264h-1.2Zm16.688.208c2.048,0,3.168-1.168,3.168-2.576,0-1.648-1.392-2.16-2.656-2.64-.976-.368-1.872-.672-1.872-1.5,0-.672.512-1.248,1.616-1.248a3.181,3.181,0,0,1,1.968.768l.7-.944a4.416,4.416,0,0,0-2.688-.976c-1.888,0-3.008,1.088-3.008,2.464,0,1.472,1.328,2.064,2.544,2.512.96.368,1.984.752,1.984,1.648,0,.752-.56,1.36-1.712,1.36a3.941,3.941,0,0,1-2.576-1.024l-.72.96A5.24,5.24,0,0,0,144.5,19.208ZM2.848,41H4.56l1.216-4.656c.224-.832.4-1.648.592-2.528h.08c.208.88.368,1.68.592,2.5L8.3,41h1.76L12.4,32.312H11.024l-1.28,5.024c-.192.832-.352,1.616-.544,2.432H9.136c-.208-.816-.4-1.6-.608-2.432l-1.36-5.024H5.744L4.4,37.336c-.224.816-.4,1.616-.592,2.432h-.08c-.16-.816-.336-1.6-.512-2.432l-1.3-5.024H.432ZM13.9,41H15.36V32.312H13.9Zm.736-10.48a.96.96,0,1,0-.976-.976A.924.924,0,0,0,14.64,30.52Zm6,10.688a5.47,5.47,0,0,0,1.6-.32L21.952,39.8a3.078,3.078,0,0,1-.992.224c-1.008,0-1.344-.608-1.344-1.68V33.5h2.352V32.312H19.616V29.864H18.4l-.176,2.448-1.36.08v1.1h1.3v4.816C18.16,40.04,18.784,41.208,20.64,41.208Zm2.9-.208h1.456V34.7a3.3,3.3,0,0,1,2.384-1.328c1.152,0,1.648.688,1.648,2.32V41H30.48V35.5c0-2.224-.832-3.408-2.656-3.408a4.079,4.079,0,0,0-2.88,1.456l.048-1.792V28.264H23.536Zm12.688.208c2.128,0,4.032-1.664,4.032-4.544,0-2.9-1.9-4.576-4.032-4.576s-4.032,1.68-4.032,4.576C32.192,39.544,34.1,41.208,36.224,41.208Zm0-1.216c-1.5,0-2.512-1.328-2.512-3.328s1.008-3.36,2.512-3.36,2.528,1.36,2.528,3.36S37.728,39.992,36.224,39.992Zm8.448,1.216a3.727,3.727,0,0,0,2.88-1.568H47.6L47.712,41h1.216V32.312H47.472v6.16c-.832,1.04-1.456,1.472-2.352,1.472-1.152,0-1.632-.688-1.632-2.3V32.312H42.032v5.5C42.032,40.024,42.848,41.208,44.672,41.208Zm9.52,0a5.47,5.47,0,0,0,1.6-.32L55.5,39.8a3.078,3.078,0,0,1-.992.224c-1.008,0-1.344-.608-1.344-1.68V33.5H55.52V32.312H53.168V29.864H51.952l-.176,2.448-1.36.08v1.1h1.3v4.816C51.712,40.04,52.336,41.208,54.192,41.208Zm8.08,0a4.655,4.655,0,0,0,2.88-1.248H65.2L65.328,41h1.2V35.656c0-2.144-.9-3.568-3.008-3.568A6.535,6.535,0,0,0,60.1,33.224l.576,1.008A4.787,4.787,0,0,1,63.28,33.3c1.424,0,1.792,1.072,1.792,2.192-3.7.416-5.344,1.36-5.344,3.248A2.355,2.355,0,0,0,62.272,41.208Zm.416-1.168c-.864,0-1.536-.4-1.536-1.392,0-1.12.992-1.84,3.92-2.192v2.432A3.551,3.551,0,0,1,62.688,40.04ZM68.9,41h1.456V34.7a3.3,3.3,0,0,1,2.384-1.328c1.152,0,1.648.688,1.648,2.32V41H75.84V35.5c0-2.224-.832-3.408-2.656-3.408a4.167,4.167,0,0,0-2.912,1.472h-.048L70.1,32.312H68.9Zm9.52,3.744c1.728,0,2.64-1.312,3.232-3.024l3.28-9.408H83.5l-1.552,4.832c-.24.768-.5,1.648-.736,2.432h-.08c-.272-.784-.576-1.68-.832-2.432l-1.776-4.832h-1.52l3.488,8.7-.192.656c-.352,1.072-.976,1.872-1.968,1.872a2.076,2.076,0,0,1-.656-.144l-.288,1.168A2.675,2.675,0,0,0,78.416,44.744Zm13.936-3.536a3.875,3.875,0,0,0,2.64-1.232h.048L95.168,41h1.184V28.264h-1.44v3.344l.064,1.5a3.535,3.535,0,0,0-2.448-1.024c-1.984,0-3.76,1.76-3.76,4.576C88.768,39.56,90.176,41.208,92.352,41.208Zm.32-1.216c-1.536,0-2.4-1.248-2.4-3.344,0-1.984,1.1-3.328,2.512-3.328a3.113,3.113,0,0,1,2.128.912v4.56A3.041,3.041,0,0,1,92.672,39.992Zm8.768,1.216a3.727,3.727,0,0,0,2.88-1.568h.048L104.48,41H105.7V32.312H104.24v6.16c-.832,1.04-1.456,1.472-2.352,1.472-1.152,0-1.632-.688-1.632-2.3V32.312H98.8v5.5C98.8,40.024,99.616,41.208,101.44,41.208Zm6.784,3.456h1.456V41.72l-.032-1.52a3.92,3.92,0,0,0,2.4,1.008c2,0,3.776-1.712,3.776-4.688,0-2.672-1.216-4.432-3.456-4.432A4.633,4.633,0,0,0,109.6,33.3h-.048l-.128-.992h-1.2Zm3.584-4.672a3.367,3.367,0,0,1-2.128-.912V34.52a3.622,3.622,0,0,1,2.336-1.2c1.648,0,2.288,1.3,2.288,3.216C114.3,38.7,113.248,39.992,111.808,39.992Zm7.472,1.216a2.241,2.241,0,0,0,.848-.128l-.208-1.12a1.278,1.278,0,0,1-.3.032c-.224,0-.416-.176-.416-.624v-11.1h-1.456V39.272C117.744,40.5,118.192,41.208,119.28,41.208ZM121.9,41h1.456V32.312H121.9Zm.736-10.48a.96.96,0,1,0-.976-.976A.924.924,0,0,0,122.64,30.52Zm6.688,10.688a4.213,4.213,0,0,0,2.816-1.1l-.64-.976a3.063,3.063,0,0,1-2.048.864c-1.6,0-2.688-1.328-2.688-3.328s1.152-3.36,2.736-3.36a2.569,2.569,0,0,1,1.728.768l.752-.96a3.715,3.715,0,0,0-2.544-1.024,4.23,4.23,0,0,0-4.192,4.576C125.248,39.544,127.024,41.208,129.328,41.208Zm6.144,0a4.655,4.655,0,0,0,2.88-1.248h.048l.128,1.04h1.2V35.656c0-2.144-.9-3.568-3.008-3.568a6.535,6.535,0,0,0-3.424,1.136l.576,1.008a4.787,4.787,0,0,1,2.608-.928c1.424,0,1.792,1.072,1.792,2.192-3.7.416-5.344,1.36-5.344,3.248A2.355,2.355,0,0,0,135.472,41.208Zm.416-1.168c-.864,0-1.536-.4-1.536-1.392,0-1.12.992-1.84,3.92-2.192v2.432A3.551,3.551,0,0,1,135.888,40.04Zm8.7,1.168a5.47,5.47,0,0,0,1.6-.32L145.9,39.8a3.078,3.078,0,0,1-.992.224c-1.008,0-1.344-.608-1.344-1.68V33.5h2.352V32.312h-2.352V29.864h-1.216l-.176,2.448-1.36.08v1.1h1.3v4.816C142.112,40.04,142.736,41.208,144.592,41.208Zm2.9-.208h1.456V32.312h-1.456Zm.736-10.48a.96.96,0,1,0-.976-.976A.924.924,0,0,0,148.224,30.52Zm6.64,10.688c2.128,0,4.032-1.664,4.032-4.544,0-2.9-1.9-4.576-4.032-4.576s-4.032,1.68-4.032,4.576C150.832,39.544,152.736,41.208,154.864,41.208Zm0-1.216c-1.5,0-2.512-1.328-2.512-3.328s1.008-3.36,2.512-3.36,2.528,1.36,2.528,3.36S156.368,39.992,154.864,39.992ZM160.784,41h1.456V34.7a3.3,3.3,0,0,1,2.384-1.328c1.152,0,1.648.688,1.648,2.32V41h1.456V35.5c0-2.224-.832-3.408-2.656-3.408a4.166,4.166,0,0,0-2.912,1.472h-.048l-.128-1.248h-1.2Zm10.128.208a1.057,1.057,0,0,0,1.056-1.1,1.059,1.059,0,1,0-2.112,0A1.057,1.057,0,0,0,170.912,41.208Z" transform="translate(772 298)" fill="#323c46"/><path d="M8.25,26.308c3.982,0,6.292-2.222,6.292-7.634V9.7H11.418V18.96c0,3.388-1.232,4.532-3.168,4.532-1.892,0-3.08-1.144-3.08-4.532V9.7H1.914v8.976C1.914,24.086,4.29,26.308,8.25,26.308Zm8.4-.308h3.234V17.53a3.462,3.462,0,0,1,2.552-1.386c1.21,0,1.738.66,1.738,2.574V26h3.234V18.322c0-3.1-1.144-4.95-3.806-4.95a5.678,5.678,0,0,0-4,1.936h-.066l-.242-1.628h-2.64Zm15.6.308a4.318,4.318,0,0,0,1.672-.286l-.4-2.4a1.823,1.823,0,0,1-.44.044c-.308,0-.638-.242-.638-.99V8.444H29.216v14.1C29.216,24.834,30.008,26.308,32.252,26.308ZM34.606,26H37.84V13.68H34.606Zm1.628-14.3a1.775,1.775,0,1,0-1.892-1.782A1.733,1.733,0,0,0,36.234,11.7ZM39.754,26h3.234V17.53a3.511,3.511,0,0,1,2.354-1.386c1.166,0,1.738.66,1.738,2.574V26h3.212V17.53a3.6,3.6,0,0,1,2.376-1.386c1.166,0,1.716.66,1.716,2.574V26h3.234V18.322c0-3.1-1.21-4.95-3.828-4.95-1.606,0-2.794.968-3.916,2.156a3.353,3.353,0,0,0-3.388-2.156A5.187,5.187,0,0,0,42.7,15.33h-.066l-.242-1.65h-2.64Zm19.668,0h3.234V13.68H59.422ZM61.05,11.7a1.775,1.775,0,1,0-1.892-1.782A1.733,1.733,0,0,0,61.05,11.7Zm8.03,14.608a7.962,7.962,0,0,0,2.6-.462l-.528-2.354a3.6,3.6,0,0,1-1.21.264c-1.1,0-1.672-.66-1.672-2.068V16.232H71.3V13.68H68.266V10.358H65.582l-.374,3.322-1.914.154v2.4h1.738v5.456C65.032,24.438,66.154,26.308,69.08,26.308Zm8.14,0a7.756,7.756,0,0,0,4.29-1.364l-1.1-1.98a5.078,5.078,0,0,1-2.772.858,3.237,3.237,0,0,1-3.41-3.08h7.59a6.08,6.08,0,0,0,.154-1.5c0-3.388-1.76-5.874-5.148-5.874-2.926,0-5.742,2.486-5.742,6.468C71.082,23.91,73.766,26.308,77.22,26.308Zm-3.036-7.722a2.773,2.773,0,0,1,2.684-2.706c1.584,0,2.332,1.056,2.332,2.706Zm13.244,7.722a5.11,5.11,0,0,0,3.41-1.584h.088L91.168,26h2.618V8.444H90.574v4.334l.11,1.936a4.24,4.24,0,0,0-3.124-1.342c-2.662,0-5.17,2.464-5.17,6.468C82.39,23.888,84.37,26.308,87.428,26.308Zm.836-2.662c-1.628,0-2.552-1.276-2.552-3.828,0-2.464,1.166-3.784,2.552-3.784a3.322,3.322,0,0,1,2.31.924V22.37A2.8,2.8,0,0,1,88.264,23.646Zm18.392,7.084h3.212V13.68h-2.53l-.264,1.21h-.088a4.306,4.306,0,0,0-3.344-1.518c-2.662,0-5.17,2.464-5.17,6.468,0,4.048,1.98,6.468,5.038,6.468a4.725,4.725,0,0,0,3.256-1.474l-.11,1.98Zm-2.31-7.084c-1.628,0-2.552-1.276-2.552-3.828,0-2.464,1.166-3.784,2.552-3.784a3.322,3.322,0,0,1,2.31.924V22.37A2.8,2.8,0,0,1,104.346,23.646Zm11.132,2.662a4.943,4.943,0,0,0,3.916-2.068h.088l.242,1.76h2.64V13.68H119.13V22a2.969,2.969,0,0,1-2.508,1.54c-1.188,0-1.716-.682-1.716-2.574V13.68h-3.234v7.7C111.672,24.46,112.816,26.308,115.478,26.308Zm14.168,0a7.756,7.756,0,0,0,4.29-1.364l-1.1-1.98a5.078,5.078,0,0,1-2.772.858,3.237,3.237,0,0,1-3.41-3.08h7.59a6.079,6.079,0,0,0,.154-1.5c0-3.388-1.76-5.874-5.148-5.874-2.926,0-5.742,2.486-5.742,6.468C123.508,23.91,126.192,26.308,129.646,26.308Zm-3.036-7.722a2.773,2.773,0,0,1,2.684-2.706c1.584,0,2.332,1.056,2.332,2.706Zm12.43,7.722c3.212,0,4.906-1.738,4.906-3.894,0-2.288-1.8-3.1-3.432-3.718-1.3-.484-2.442-.814-2.442-1.716,0-.7.528-1.188,1.65-1.188a4.586,4.586,0,0,1,2.64,1.056l1.452-1.958a6.829,6.829,0,0,0-4.18-1.518c-2.816,0-4.6,1.562-4.6,3.762,0,2.068,1.738,3.014,3.3,3.608,1.3.506,2.574.924,2.574,1.848,0,.77-.55,1.3-1.782,1.3a5.349,5.349,0,0,1-3.3-1.342l-1.474,2.024A7.814,7.814,0,0,0,139.04,26.308Zm9.834,0a7.962,7.962,0,0,0,2.6-.462l-.528-2.354a3.6,3.6,0,0,1-1.21.264c-1.1,0-1.672-.66-1.672-2.068V16.232H151.1V13.68H148.06V10.358h-2.684L145,13.68l-1.914.154v2.4h1.738v5.456C144.826,24.438,145.948,26.308,148.874,26.308Zm3.19-.308H155.3V13.68h-3.234Zm1.628-14.3A1.775,1.775,0,1,0,151.8,9.918,1.733,1.733,0,0,0,153.692,11.7Zm8.668,14.608c3.08,0,5.918-2.376,5.918-6.468s-2.838-6.468-5.918-6.468-5.918,2.376-5.918,6.468S159.28,26.308,162.36,26.308Zm0-2.64c-1.672,0-2.618-1.5-2.618-3.828,0-2.31.946-3.828,2.618-3.828s2.618,1.518,2.618,3.828C164.978,22.172,164.032,23.668,162.36,23.668ZM169.444,26h3.234V17.53a3.462,3.462,0,0,1,2.552-1.386c1.21,0,1.738.66,1.738,2.574V26H180.2V18.322c0-3.1-1.144-4.95-3.806-4.95a5.678,5.678,0,0,0-4,1.936h-.066l-.242-1.628h-2.64Zm16.082.308c3.212,0,4.906-1.738,4.906-3.894,0-2.288-1.8-3.1-3.432-3.718-1.3-.484-2.442-.814-2.442-1.716,0-.7.528-1.188,1.65-1.188a4.586,4.586,0,0,1,2.64,1.056L190.3,14.89a6.829,6.829,0,0,0-4.18-1.518c-2.816,0-4.6,1.562-4.6,3.762,0,2.068,1.738,3.014,3.3,3.608,1.3.506,2.574.924,2.574,1.848,0,.77-.55,1.3-1.782,1.3a5.349,5.349,0,0,1-3.3-1.342L180.84,24.57A7.814,7.814,0,0,0,185.526,26.308Z" transform="translate(772 264)" fill="#00c3e1"/><path d="M0,0H120V120H0Z" transform="translate(654 247)" fill="#fff" opacity="0"/><path d="M0,0H52V52H0Z" transform="translate(688 280)" fill="#fff" opacity="0"/><path d="M4,0H24a4,4,0,0,1,4,4V32a4,4,0,0,1-4,4H4a4,4,0,0,1-4-4V4A4,4,0,0,1,4,0Z" transform="translate(710 284)" fill="rgba(0,195,225,0.2)" stroke="#46505a" stroke-linecap="round" stroke-width="3"/><path d="M299.911,1170.733v4a4,4,0,0,0,4,4h20a4,4,0,0,0,4-4v-28a4,4,0,0,0-4-4h-20a4,4,0,0,0-4,4v4" transform="translate(402.089 -850.732)" fill="#fff" stroke="#46505a" stroke-linecap="round" stroke-linejoin="round" stroke-width="3"/><path d="M-4321.329,1516.981a5.5,5.5,0,0,0-7.78,0,5.5,5.5,0,0,0,0,7.778,5.5,5.5,0,0,0,7.779,0l7.347-7.778a5.5,5.5,0,0,1,7.778,0,5.5,5.5,0,0,1,0,7.778,5.5,5.5,0,0,1-7.778,0l-3.674-3.889" transform="translate(5019.719 -1211.369)" fill="#fff" stroke="#46505a" stroke-linecap="round" stroke-linejoin="round" stroke-width="3"/><path d="M70.5,0h279a70.5,70.5,0,0,1,0,141H70.5a70.5,70.5,0,0,1,0-141Z" transform="translate(194 240)" fill="#eafdff"/><path d="M2.9,19h1.76L6.4,11.928c.192-.928.4-1.776.592-2.672h.064c.192.9.368,1.744.576,2.672L9.408,19h1.776L13.616,7.256H12.192l-1.232,6.4q-.336,1.872-.672,3.792h-.08c-.272-1.28-.544-2.544-.832-3.792l-1.632-6.4H6.384l-1.616,6.4c-.288,1.264-.576,2.528-.848,3.792H3.856c-.224-1.264-.464-2.528-.688-3.792l-1.232-6.4H.416ZM15.12,19h1.456V13.416c.576-1.488,1.472-2,2.192-2a2.056,2.056,0,0,1,.848.144l.272-1.28a1.852,1.852,0,0,0-.928-.192A3,3,0,0,0,16.5,11.9h-.048l-.128-1.584h-1.2Zm5.808,0h1.456V10.312H20.928Zm.736-10.48a.924.924,0,0,0,.976-.976.977.977,0,0,0-1.952,0A.924.924,0,0,0,21.664,8.52Zm6,10.688a5.47,5.47,0,0,0,1.6-.32L28.976,17.8a3.078,3.078,0,0,1-.992.224c-1.008,0-1.344-.608-1.344-1.68V11.5h2.352V10.312H26.64V7.864H25.424l-.176,2.448-1.36.08v1.1h1.3v4.816C25.184,18.04,25.808,19.208,27.664,19.208Zm6.16,0a5.171,5.171,0,0,0,2.88-.9l-.528-.96A3.745,3.745,0,0,1,34,18.04,2.879,2.879,0,0,1,31.12,15h5.856a5.684,5.684,0,0,0,.064-.832c0-2.48-1.248-4.08-3.456-4.08-2.016,0-3.92,1.76-3.92,4.576C29.664,17.528,31.52,19.208,33.824,19.208ZM31.1,13.944a2.668,2.668,0,0,1,2.5-2.688c1.36,0,2.16.944,2.16,2.688Zm12.864,5.264a4.655,4.655,0,0,0,2.88-1.248H46.9L47.024,19h1.2V13.656c0-2.144-.9-3.568-3.008-3.568a6.535,6.535,0,0,0-3.424,1.136l.576,1.008a4.787,4.787,0,0,1,2.608-.928c1.424,0,1.792,1.072,1.792,2.192-3.7.416-5.344,1.36-5.344,3.248A2.355,2.355,0,0,0,43.968,19.208Zm.416-1.168c-.864,0-1.536-.4-1.536-1.392,0-1.12.992-1.84,3.92-2.192v2.432A3.551,3.551,0,0,1,44.384,18.04Zm6.208.96h1.456V12.7a3.3,3.3,0,0,1,2.384-1.328c1.152,0,1.648.688,1.648,2.32V19h1.456V13.5c0-2.224-.832-3.408-2.656-3.408a4.167,4.167,0,0,0-2.912,1.472H51.92l-.128-1.248h-1.2Zm12.336.208a3.875,3.875,0,0,0,2.64-1.232h.048L65.744,19h1.184V6.264h-1.44V9.608l.064,1.5A3.535,3.535,0,0,0,63.1,10.088c-1.984,0-3.76,1.76-3.76,4.576C59.344,17.56,60.752,19.208,62.928,19.208Zm.32-1.216c-1.536,0-2.4-1.248-2.4-3.344,0-1.984,1.1-3.328,2.512-3.328a3.113,3.113,0,0,1,2.128.912v4.56A3.041,3.041,0,0,1,63.248,17.992Zm11.7,1.216c2.048,0,3.168-1.168,3.168-2.576,0-1.648-1.392-2.16-2.656-2.64-.976-.368-1.872-.672-1.872-1.5,0-.672.512-1.248,1.616-1.248a3.181,3.181,0,0,1,1.968.768l.7-.944a4.416,4.416,0,0,0-2.688-.976c-1.888,0-3.008,1.088-3.008,2.464,0,1.472,1.328,2.064,2.544,2.512.96.368,1.984.752,1.984,1.648,0,.752-.56,1.36-1.712,1.36a3.941,3.941,0,0,1-2.576-1.024l-.72.96A5.24,5.24,0,0,0,74.944,19.208Zm8.192,0c2.128,0,4.032-1.664,4.032-4.544,0-2.9-1.9-4.576-4.032-4.576S79.1,11.768,79.1,14.664C79.1,17.544,81.008,19.208,83.136,19.208Zm0-1.216c-1.5,0-2.512-1.328-2.512-3.328s1.008-3.36,2.512-3.36,2.528,1.36,2.528,3.36S84.64,17.992,83.136,17.992Zm7.456,1.216a2.241,2.241,0,0,0,.848-.128l-.208-1.12a1.278,1.278,0,0,1-.3.032c-.224,0-.416-.176-.416-.624V6.264H89.056V17.272C89.056,18.5,89.5,19.208,90.592,19.208Zm4.5-.208h1.7l3.088-8.688h-1.44l-1.648,4.944c-.256.848-.528,1.744-.8,2.56H95.92c-.272-.816-.544-1.712-.816-2.56l-1.632-4.944h-1.52Zm9.5.208a5.171,5.171,0,0,0,2.88-.9l-.528-.96a3.745,3.745,0,0,1-2.176.688,2.879,2.879,0,0,1-2.88-3.04h5.856a5.683,5.683,0,0,0,.064-.832c0-2.48-1.248-4.08-3.456-4.08-2.016,0-3.92,1.76-3.92,4.576C100.432,17.528,102.288,19.208,104.592,19.208Zm-2.72-5.264a2.668,2.668,0,0,1,2.5-2.688c1.36,0,2.16.944,2.16,2.688Zm10.864,8.72h1.456V19.72l-.032-1.52a3.92,3.92,0,0,0,2.4,1.008c2,0,3.776-1.712,3.776-4.688,0-2.672-1.216-4.432-3.456-4.432a4.633,4.633,0,0,0-2.768,1.216h-.048l-.128-.992h-1.2Zm3.584-4.672a3.367,3.367,0,0,1-2.128-.912V12.52a3.622,3.622,0,0,1,2.336-1.2c1.648,0,2.288,1.3,2.288,3.216C118.816,16.7,117.76,17.992,116.32,17.992ZM122.256,19h1.456V13.416c.576-1.488,1.472-2,2.192-2a2.056,2.056,0,0,1,.848.144l.272-1.28a1.852,1.852,0,0,0-.928-.192,3,3,0,0,0-2.464,1.808h-.048l-.128-1.584h-1.2Zm9.008.208c2.128,0,4.032-1.664,4.032-4.544,0-2.9-1.9-4.576-4.032-4.576s-4.032,1.68-4.032,4.576C127.232,17.544,129.136,19.208,131.264,19.208Zm0-1.216c-1.5,0-2.512-1.328-2.512-3.328s1.008-3.36,2.512-3.36,2.528,1.36,2.528,3.36S132.768,17.992,131.264,17.992Zm9.744,1.216c2,0,3.776-1.712,3.776-4.7,0-2.656-1.216-4.416-3.472-4.416a4.377,4.377,0,0,0-2.72,1.232l.048-1.568V6.264h-1.456V19h1.168l.128-.9h.064A3.859,3.859,0,0,0,141.008,19.208Zm-.24-1.216a3.335,3.335,0,0,1-2.128-.912V12.52a3.588,3.588,0,0,1,2.336-1.2c1.648,0,2.288,1.3,2.288,3.216C143.264,16.7,142.208,17.992,140.768,17.992Zm7.44,1.216a2.241,2.241,0,0,0,.848-.128l-.208-1.12a1.278,1.278,0,0,1-.3.032c-.224,0-.416-.176-.416-.624V6.264h-1.456V17.272C146.672,18.5,147.12,19.208,148.208,19.208Zm6.128,0a5.171,5.171,0,0,0,2.88-.9l-.528-.96a3.745,3.745,0,0,1-2.176.688,2.879,2.879,0,0,1-2.88-3.04h5.856a5.685,5.685,0,0,0,.064-.832c0-2.48-1.248-4.08-3.456-4.08-2.016,0-3.92,1.76-3.92,4.576C150.176,17.528,152.032,19.208,154.336,19.208Zm-2.72-5.264a2.668,2.668,0,0,1,2.5-2.688c1.36,0,2.16.944,2.16,2.688ZM159.3,19h1.456V12.7a3.209,3.209,0,0,1,2.192-1.328c1.1,0,1.616.688,1.616,2.32V19h1.456V12.7a3.209,3.209,0,0,1,2.192-1.328c1.1,0,1.616.688,1.616,2.32V19h1.456V13.5c0-2.224-.848-3.408-2.64-3.408a4.107,4.107,0,0,0-2.864,1.664,2.291,2.291,0,0,0-2.4-1.664,3.817,3.817,0,0,0-2.7,1.488h-.048l-.128-1.264h-1.2Zm16.688.208c2.048,0,3.168-1.168,3.168-2.576,0-1.648-1.392-2.16-2.656-2.64-.976-.368-1.872-.672-1.872-1.5,0-.672.512-1.248,1.616-1.248a3.181,3.181,0,0,1,1.968.768l.7-.944a4.416,4.416,0,0,0-2.688-.976c-1.888,0-3.008,1.088-3.008,2.464,0,1.472,1.328,2.064,2.544,2.512.96.368,1.984.752,1.984,1.648,0,.752-.56,1.36-1.712,1.36a3.941,3.941,0,0,1-2.576-1.024l-.72.96A5.24,5.24,0,0,0,175.984,19.208Zm10.96,0a3.875,3.875,0,0,0,2.64-1.232h.048L189.76,19h1.184V6.264H189.5V9.608l.064,1.5a3.535,3.535,0,0,0-2.448-1.024c-1.984,0-3.76,1.76-3.76,4.576C183.36,17.56,184.768,19.208,186.944,19.208Zm.32-1.216c-1.536,0-2.4-1.248-2.4-3.344,0-1.984,1.1-3.328,2.512-3.328a3.113,3.113,0,0,1,2.128.912v4.56A3.041,3.041,0,0,1,187.264,17.992ZM193.5,19h1.456V10.312H193.5Zm.736-10.48a.924.924,0,0,0,.976-.976.977.977,0,0,0-1.952,0A.924.924,0,0,0,194.24,8.52ZM197.5,19h1.456V13.416c.576-1.488,1.472-2,2.192-2a2.056,2.056,0,0,1,.848.144l.272-1.28a1.852,1.852,0,0,0-.928-.192A3,3,0,0,0,198.88,11.9h-.048l-.128-1.584h-1.2Zm9.136.208a5.171,5.171,0,0,0,2.88-.9l-.528-.96a3.745,3.745,0,0,1-2.176.688,2.879,2.879,0,0,1-2.88-3.04h5.856a5.685,5.685,0,0,0,.064-.832c0-2.48-1.248-4.08-3.456-4.08-2.016,0-3.92,1.76-3.92,4.576C202.48,17.528,204.336,19.208,206.64,19.208Zm-2.72-5.264a2.668,2.668,0,0,1,2.5-2.688c1.36,0,2.16.944,2.16,2.688Zm11.1,5.264a4.213,4.213,0,0,0,2.816-1.1l-.64-.976a3.063,3.063,0,0,1-2.048.864c-1.6,0-2.688-1.328-2.688-3.328s1.152-3.36,2.736-3.36a2.569,2.569,0,0,1,1.728.768l.752-.96a3.715,3.715,0,0,0-2.544-1.024,4.23,4.23,0,0,0-4.192,4.576C210.944,17.544,212.72,19.208,215.024,19.208Zm6.88,0a5.47,5.47,0,0,0,1.6-.32l-.288-1.088a3.078,3.078,0,0,1-.992.224c-1.008,0-1.344-.608-1.344-1.68V11.5h2.352V10.312H220.88V7.864h-1.216l-.176,2.448-1.36.08v1.1h1.3v4.816C219.424,18.04,220.048,19.208,221.9,19.208Zm4.432,0a2.241,2.241,0,0,0,.848-.128l-.208-1.12a1.278,1.278,0,0,1-.3.032c-.224,0-.416-.176-.416-.624V6.264H224.8V17.272C224.8,18.5,225.248,19.208,226.336,19.208Zm2.768,3.536c1.728,0,2.64-1.312,3.232-3.024l3.28-9.408h-1.424l-1.552,4.832c-.24.768-.5,1.648-.736,2.432h-.08c-.272-.784-.576-1.68-.832-2.432l-1.776-4.832H227.7l3.488,8.7-.192.656c-.352,1.072-.976,1.872-1.968,1.872a2.076,2.076,0,0,1-.656-.144l-.288,1.168A2.675,2.675,0,0,0,229.1,22.744ZM2.848,41H4.56l1.216-4.656c.224-.832.4-1.648.592-2.528h.08c.208.88.368,1.68.592,2.5L8.3,41h1.76L12.4,32.312H11.024l-1.28,5.024c-.192.832-.352,1.616-.544,2.432H9.136c-.208-.816-.4-1.6-.608-2.432l-1.36-5.024H5.744L4.4,37.336c-.224.816-.4,1.616-.592,2.432h-.08c-.16-.816-.336-1.6-.512-2.432l-1.3-5.024H.432ZM13.9,41H15.36V32.312H13.9Zm.736-10.48a.96.96,0,1,0-.976-.976A.924.924,0,0,0,14.64,30.52Zm6,10.688a5.47,5.47,0,0,0,1.6-.32L21.952,39.8a3.078,3.078,0,0,1-.992.224c-1.008,0-1.344-.608-1.344-1.68V33.5h2.352V32.312H19.616V29.864H18.4l-.176,2.448-1.36.08v1.1h1.3v4.816C18.16,40.04,18.784,41.208,20.64,41.208Zm2.9-.208h1.456V34.7a3.3,3.3,0,0,1,2.384-1.328c1.152,0,1.648.688,1.648,2.32V41H30.48V35.5c0-2.224-.832-3.408-2.656-3.408a4.079,4.079,0,0,0-2.88,1.456l.048-1.792V28.264H23.536Zm12.64,3.744c1.728,0,2.64-1.312,3.232-3.024l3.28-9.408H41.264l-1.552,4.832c-.24.768-.5,1.648-.736,2.432H38.9c-.272-.784-.576-1.68-.832-2.432l-1.776-4.832h-1.52l3.488,8.7-.192.656c-.352,1.072-.976,1.872-1.968,1.872a2.076,2.076,0,0,1-.656-.144l-.288,1.168A2.675,2.675,0,0,0,36.176,44.744Zm11.1-3.536c2.128,0,4.032-1.664,4.032-4.544,0-2.9-1.9-4.576-4.032-4.576s-4.032,1.68-4.032,4.576C43.248,39.544,45.152,41.208,47.28,41.208Zm0-1.216c-1.5,0-2.512-1.328-2.512-3.328s1.008-3.36,2.512-3.36,2.528,1.36,2.528,3.36S48.784,39.992,47.28,39.992Zm8.448,1.216a3.727,3.727,0,0,0,2.88-1.568h.048L58.768,41h1.216V32.312H58.528v6.16c-.832,1.04-1.456,1.472-2.352,1.472-1.152,0-1.632-.688-1.632-2.3V32.312H53.088v5.5C53.088,40.024,53.9,41.208,55.728,41.208ZM62.512,41h1.456V35.416c.576-1.488,1.472-2,2.192-2a2.056,2.056,0,0,1,.848.144l.272-1.28a1.852,1.852,0,0,0-.928-.192A3,3,0,0,0,63.888,33.9H63.84l-.128-1.584h-1.2Zm9.232,0H73.2V33.5h1.84V32.312H73.2V30.936c0-1.12.4-1.712,1.232-1.712a2.466,2.466,0,0,1,.976.224l.32-1.1a3.747,3.747,0,0,0-1.456-.288c-1.728,0-2.528,1.1-2.528,2.864v1.392l-1.184.08v1.1h1.184Zm4.96,0h1.472V32.312H76.7Zm.736-10.48a.961.961,0,1,0,0-1.92.96.96,0,1,0,0,1.92ZM80.7,41H82.16V34.7a3.3,3.3,0,0,1,2.384-1.328c1.152,0,1.648.688,1.648,2.32V41h1.456V35.5c0-2.224-.832-3.408-2.656-3.408A4.167,4.167,0,0,0,82.08,33.56h-.048L81.9,32.312H80.7Zm12.3,4c2.688,0,4.4-1.392,4.4-3.008,0-1.424-1.024-2.064-3.04-2.064h-1.7c-1.168,0-1.52-.384-1.52-.944a1.294,1.294,0,0,1,.56-1.04,3.022,3.022,0,0,0,1.3.3,2.979,2.979,0,0,0,3.168-3.024,2.481,2.481,0,0,0-.7-1.792h1.776v-1.12H94.224a3.584,3.584,0,0,0-1.216-.224,3.1,3.1,0,0,0-3.264,3.1,3.05,3.05,0,0,0,1.136,2.336v.064a2.12,2.12,0,0,0-.976,1.616,1.571,1.571,0,0,0,.8,1.424V40.7a2.438,2.438,0,0,0-1.28,1.968C89.424,44.168,90.88,45,93.008,45Zm0-7.744a1.9,1.9,0,0,1-1.856-2.064,1.864,1.864,0,1,1,3.712,0A1.913,1.913,0,0,1,93.008,37.256Zm.208,6.752c-1.568,0-2.512-.608-2.512-1.536A1.811,1.811,0,0,1,91.584,41a4.887,4.887,0,0,0,1.12.144h1.5c1.152,0,1.776.272,1.776,1.072C95.984,43.128,94.88,44.008,93.216,44.008Zm8.736-2.8a5.171,5.171,0,0,0,2.88-.9l-.528-.96a3.745,3.745,0,0,1-2.176.688A2.879,2.879,0,0,1,99.248,37H105.1a5.683,5.683,0,0,0,.064-.832c0-2.48-1.248-4.08-3.456-4.08-2.016,0-3.92,1.76-3.92,4.576C97.792,39.528,99.648,41.208,101.952,41.208Zm-2.72-5.264a2.668,2.668,0,0,1,2.5-2.688c1.36,0,2.16.944,2.16,2.688ZM106.912,41h1.456V35.416c.576-1.488,1.472-2,2.192-2a2.056,2.056,0,0,1,.848.144l.272-1.28a1.852,1.852,0,0,0-.928-.192,3,3,0,0,0-2.464,1.808h-.048l-.128-1.584h-1.2Zm12.368.208c2.128,0,4.032-1.664,4.032-4.544,0-2.9-1.9-4.576-4.032-4.576s-4.032,1.68-4.032,4.576C115.248,39.544,117.152,41.208,119.28,41.208Zm0-1.216c-1.5,0-2.512-1.328-2.512-3.328s1.008-3.36,2.512-3.36,2.528,1.36,2.528,3.36S120.784,39.992,119.28,39.992ZM125.2,41h1.456V35.416c.576-1.488,1.472-2,2.192-2a2.056,2.056,0,0,1,.848.144l.272-1.28a1.852,1.852,0,0,0-.928-.192,3,3,0,0,0-2.464,1.808h-.048l-.128-1.584h-1.2Zm8.992,3.664h1.456V41.72l-.032-1.52a3.92,3.92,0,0,0,2.4,1.008c2,0,3.776-1.712,3.776-4.688,0-2.672-1.216-4.432-3.456-4.432a4.633,4.633,0,0,0-2.768,1.216h-.048l-.128-.992h-1.2Zm3.584-4.672a3.367,3.367,0,0,1-2.128-.912V34.52a3.622,3.622,0,0,1,2.336-1.2c1.648,0,2.288,1.3,2.288,3.216C140.272,38.7,139.216,39.992,137.776,39.992Zm9.44,1.216a5.171,5.171,0,0,0,2.88-.9l-.528-.96a3.745,3.745,0,0,1-2.176.688,2.879,2.879,0,0,1-2.88-3.04h5.856a5.685,5.685,0,0,0,.064-.832c0-2.48-1.248-4.08-3.456-4.08-2.016,0-3.92,1.76-3.92,4.576C143.056,39.528,144.912,41.208,147.216,41.208Zm-2.72-5.264a2.668,2.668,0,0,1,2.5-2.688c1.36,0,2.16.944,2.16,2.688ZM152.176,41h1.456V34.7a3.3,3.3,0,0,1,2.384-1.328c1.152,0,1.648.688,1.648,2.32V41h1.456V35.5c0-2.224-.832-3.408-2.656-3.408a4.166,4.166,0,0,0-2.912,1.472H153.5l-.128-1.248h-1.2Zm10.128.208a1.057,1.057,0,0,0,1.056-1.1,1.059,1.059,0,1,0-2.112,0A1.057,1.057,0,0,0,162.3,41.208Z" transform="translate(320 314)" fill="#323c46"/><path d="M1.8,26h9.79V23.382H8.536V10.138h-2.4A10.56,10.56,0,0,1,2.354,11.5v2H5.3v9.878H1.8Zm16.984.308c3.344,0,5.5-2.926,5.5-8.316,0-5.346-2.156-8.162-5.5-8.162s-5.522,2.794-5.522,8.162C13.266,23.382,15.444,26.308,18.788,26.308Zm0-2.53c-1.408,0-2.464-1.364-2.464-5.786,0-4.4,1.056-5.632,2.464-5.632s2.442,1.232,2.442,5.632C21.23,22.414,20.2,23.778,18.788,23.778Zm12.3,2.53c3.344,0,5.5-2.926,5.5-8.316,0-5.346-2.156-8.162-5.5-8.162s-5.522,2.794-5.522,8.162C25.564,23.382,27.742,26.308,31.086,26.308Zm0-2.53c-1.408,0-2.464-1.364-2.464-5.786,0-4.4,1.056-5.632,2.464-5.632s2.442,1.232,2.442,5.632C33.528,22.414,32.494,23.778,31.086,23.778ZM41.558,19.73c2.332,0,3.982-1.914,3.982-5.192,0-3.256-1.65-5.126-3.982-5.126s-3.96,1.87-3.96,5.126C37.6,17.816,39.226,19.73,41.558,19.73Zm0-1.826c-.946,0-1.672-.968-1.672-3.366s.726-3.3,1.672-3.3,1.694.9,1.694,3.3S42.5,17.9,41.558,17.9Zm.55,8.4h1.914l8.844-16.9H50.952Zm11.286,0c2.31,0,3.982-1.936,3.982-5.192,0-3.278-1.672-5.148-3.982-5.148s-3.96,1.87-3.96,5.148C49.434,24.372,51.084,26.308,53.394,26.308Zm0-1.848c-.946,0-1.672-.946-1.672-3.344s.726-3.322,1.672-3.322,1.694.924,1.694,3.322S54.34,24.46,53.394,24.46Zm13.618,1.848c3.212,0,4.906-1.738,4.906-3.894,0-2.288-1.8-3.1-3.432-3.718-1.3-.484-2.442-.814-2.442-1.716,0-.7.528-1.188,1.65-1.188a4.586,4.586,0,0,1,2.64,1.056l1.452-1.958a6.829,6.829,0,0,0-4.18-1.518c-2.816,0-4.6,1.562-4.6,3.762,0,2.068,1.738,3.014,3.3,3.608,1.3.506,2.574.924,2.574,1.848,0,.77-.55,1.3-1.782,1.3a5.349,5.349,0,0,1-3.3-1.342L62.326,24.57A7.815,7.815,0,0,0,67.012,26.308ZM73.722,26h3.234V17.53a3.462,3.462,0,0,1,2.552-1.386c1.21,0,1.738.66,1.738,2.574V26H84.48V18.322c0-3.1-1.144-4.95-3.806-4.95a5.607,5.607,0,0,0-3.872,1.8l.154-2.31V8.444H73.722Zm18.568.308c3.08,0,5.918-2.376,5.918-6.468s-2.838-6.468-5.918-6.468-5.918,2.376-5.918,6.468S89.21,26.308,92.29,26.308Zm0-2.64c-1.672,0-2.618-1.5-2.618-3.828,0-2.31.946-3.828,2.618-3.828s2.618,1.518,2.618,3.828C94.908,22.172,93.962,23.668,92.29,23.668ZM100.254,26h3.234V18.652c.682-1.782,1.848-2.42,2.816-2.42a4.115,4.115,0,0,1,1.3.2l.55-2.794a3.485,3.485,0,0,0-1.452-.264,4.268,4.268,0,0,0-3.5,2.486h-.066l-.242-2.178h-2.64Zm13.442.308a7.962,7.962,0,0,0,2.6-.462l-.528-2.354a3.6,3.6,0,0,1-1.21.264c-1.1,0-1.672-.66-1.672-2.068V16.232h3.036V13.68h-3.036V10.358H110.2l-.374,3.322-1.914.154v2.4h1.738v5.456C109.648,24.438,110.77,26.308,113.7,26.308Zm11.44,0a5.793,5.793,0,0,0,3.718-1.628h.088l.22,1.32h2.64V18.806c0-3.564-1.606-5.434-4.73-5.434A9.842,9.842,0,0,0,121.924,15l1.166,2.134a6.961,6.961,0,0,1,3.388-1.166c1.518,0,2.046.924,2.112,2.134-4.972.528-7.106,1.914-7.106,4.554A3.5,3.5,0,0,0,125.136,26.308Zm1.056-2.53c-.946,0-1.628-.418-1.628-1.386,0-1.1,1.012-1.936,4.026-2.31v2.486A3.348,3.348,0,0,1,126.192,23.778ZM134.442,26h3.234V17.53a3.462,3.462,0,0,1,2.552-1.386c1.21,0,1.738.66,1.738,2.574V26H145.2V18.322c0-3.1-1.144-4.95-3.806-4.95a5.678,5.678,0,0,0-4,1.936h-.066l-.242-1.628h-2.64Zm16.962.308c3.212,0,4.906-1.738,4.906-3.894,0-2.288-1.8-3.1-3.432-3.718-1.3-.484-2.442-.814-2.442-1.716,0-.7.528-1.188,1.65-1.188a4.586,4.586,0,0,1,2.64,1.056l1.452-1.958A6.829,6.829,0,0,0,152,13.372c-2.816,0-4.6,1.562-4.6,3.762,0,2.068,1.738,3.014,3.3,3.608,1.3.506,2.574.924,2.574,1.848,0,.77-.55,1.3-1.782,1.3a5.349,5.349,0,0,1-3.3-1.342l-1.474,2.024A7.814,7.814,0,0,0,151.4,26.308ZM160.16,26h3.7l1.254-5.368c.264-1.144.44-2.288.682-3.586h.11c.242,1.3.44,2.42.7,3.586L167.9,26h3.806l3.036-12.32h-2.992l-1.342,6.072c-.22,1.21-.4,2.376-.616,3.608h-.11c-.264-1.232-.484-2.4-.77-3.608l-1.54-6.072h-2.86l-1.5,6.072c-.308,1.188-.528,2.376-.77,3.608h-.088c-.22-1.232-.374-2.4-.616-3.608L160.2,13.68H156.97Zm21.472.308a7.756,7.756,0,0,0,4.29-1.364l-1.1-1.98a5.078,5.078,0,0,1-2.772.858,3.237,3.237,0,0,1-3.41-3.08h7.59a6.079,6.079,0,0,0,.154-1.5c0-3.388-1.76-5.874-5.148-5.874-2.926,0-5.742,2.486-5.742,6.468C175.494,23.91,178.178,26.308,181.632,26.308ZM178.6,18.586a2.773,2.773,0,0,1,2.684-2.706c1.584,0,2.332,1.056,2.332,2.706ZM188.386,26h3.234V18.652c.682-1.782,1.848-2.42,2.816-2.42a4.115,4.115,0,0,1,1.3.2l.55-2.794a3.485,3.485,0,0,0-1.452-.264,4.268,4.268,0,0,0-3.5,2.486h-.066l-.242-2.178h-2.64ZM9.218,55.73H12.43V38.68H9.9l-.264,1.21H9.548A4.306,4.306,0,0,0,6.2,38.372c-2.662,0-5.17,2.464-5.17,6.468,0,4.048,1.98,6.468,5.038,6.468a4.725,4.725,0,0,0,3.256-1.474l-.11,1.98Zm-2.31-7.084c-1.628,0-2.552-1.276-2.552-3.828,0-2.464,1.166-3.784,2.552-3.784a3.322,3.322,0,0,1,2.31.924V47.37A2.8,2.8,0,0,1,6.908,48.646ZM18.92,51.308a4.943,4.943,0,0,0,3.916-2.068h.088L23.166,51h2.64V38.68H22.572V47a2.969,2.969,0,0,1-2.508,1.54c-1.188,0-1.716-.682-1.716-2.574V38.68H15.114v7.7C15.114,49.46,16.258,51.308,18.92,51.308Zm15.048,0a7.756,7.756,0,0,0,4.29-1.364l-1.1-1.98a5.078,5.078,0,0,1-2.772.858,3.237,3.237,0,0,1-3.41-3.08h7.59a6.08,6.08,0,0,0,.154-1.5c0-3.388-1.76-5.874-5.148-5.874-2.926,0-5.742,2.486-5.742,6.468C27.83,48.91,30.514,51.308,33.968,51.308Zm-3.036-7.722a2.773,2.773,0,0,1,2.684-2.706c1.584,0,2.332,1.056,2.332,2.706Zm13.31,7.722c3.212,0,4.906-1.738,4.906-3.894,0-2.288-1.8-3.1-3.432-3.718-1.3-.484-2.442-.814-2.442-1.716,0-.7.528-1.188,1.65-1.188a4.586,4.586,0,0,1,2.64,1.056l1.452-1.958a6.829,6.829,0,0,0-4.18-1.518c-2.816,0-4.6,1.562-4.6,3.762,0,2.068,1.738,3.014,3.3,3.608,1.3.506,2.574.924,2.574,1.848,0,.77-.55,1.3-1.782,1.3a5.349,5.349,0,0,1-3.3-1.342L39.556,49.57A7.815,7.815,0,0,0,44.242,51.308Zm10.714,0a7.962,7.962,0,0,0,2.6-.462l-.528-2.354a3.6,3.6,0,0,1-1.21.264c-1.1,0-1.672-.66-1.672-2.068V41.232h3.036V38.68H54.142V35.358H51.458l-.374,3.322-1.914.154v2.4h1.738v5.456C50.908,49.438,52.03,51.308,54.956,51.308ZM59.026,51H62.26V38.68H59.026Zm1.628-14.3a1.775,1.775,0,1,0-1.892-1.782A1.733,1.733,0,0,0,60.654,36.7ZM70.2,51.308c3.08,0,5.918-2.376,5.918-6.468s-2.838-6.468-5.918-6.468-5.918,2.376-5.918,6.468S67.122,51.308,70.2,51.308Zm0-2.64c-1.672,0-2.618-1.5-2.618-3.828,0-2.31.946-3.828,2.618-3.828S72.82,42.53,72.82,44.84C72.82,47.172,71.874,48.668,70.2,48.668ZM78.166,51H81.4V42.53a3.462,3.462,0,0,1,2.552-1.386c1.21,0,1.738.66,1.738,2.574V51h3.234V43.322c0-3.1-1.144-4.95-3.806-4.95a5.678,5.678,0,0,0-4,1.936h-.066l-.242-1.628h-2.64Zm16.962.308c3.212,0,4.906-1.738,4.906-3.894,0-2.288-1.8-3.1-3.432-3.718-1.3-.484-2.442-.814-2.442-1.716,0-.7.528-1.188,1.65-1.188a4.586,4.586,0,0,1,2.64,1.056L99.9,39.89a6.829,6.829,0,0,0-4.18-1.518c-2.816,0-4.6,1.562-4.6,3.762,0,2.068,1.738,3.014,3.3,3.608,1.3.506,2.574.924,2.574,1.848,0,.77-.55,1.3-1.782,1.3a5.349,5.349,0,0,1-3.3-1.342L90.442,49.57A7.815,7.815,0,0,0,95.128,51.308Z" transform="translate(320 260)" fill="#00c3e1"/><path d="M0,0H120V120H0Z" transform="translate(202 251)" fill="#fff" opacity="0"/><path d="M-4643.588,1518.578c-6.359,4.194-20.2.917-19.2,8.792,1.131,7.227,20.6-3.736,20.021,4.024-.313,3.875-7.472,4.215-7.089,8.718s8.813,3.353,8.813,3.353" transform="translate(4902.836 -1232.578)" fill="none" stroke="#46505a" stroke-linecap="round" stroke-linejoin="round" stroke-width="3"/><path d="M-4648.759,1716.365l-2.246,2.807a5,5,0,0,0-.794,4.832l1.843,5.07a5,5,0,0,0,4.7,3.291h8.657a5,5,0,0,0,4.831-3.711l1.025-3.846a8,8,0,0,0-5.377-9.708l-5.638-1.735v-7.5a3.5,3.5,0,0,0-3.5-3.5h0a3.5,3.5,0,0,0-3.5,3.5Z" transform="matrix(0.819, -0.574, 0.574, 0.819, 3088.77, -3751.416)" fill="#fff" stroke="#46505a" stroke-linecap="round" stroke-linejoin="round" stroke-width="3"/></g></svg>