<svg xmlns="http://www.w3.org/2000/svg" xmlns:xlink="http://www.w3.org/1999/xlink" width="252.269" height="160.261" viewBox="0 0 252.269 160.261"><defs><linearGradient id="a" x1="0.045" y1="0.441" x2="1.127" y2="0.827" gradientUnits="objectBoundingBox"><stop offset="0" stop-color="#f5b400"/><stop offset="1" stop-color="#ffc823"/></linearGradient></defs><g transform="translate(-50.731 -108.83)"><rect width="43.766" height="32.253" rx="16.127" transform="translate(50.731 139.777) rotate(-45)" fill="url(#a)"/><path d="M-8.562-21.63a1.353,1.353,0,0,1,.738.2,1.569,1.569,0,0,1,.541.771l3.69,9.512a.972.972,0,0,1,0,.82.965.965,0,0,1-.59.476,1.469,1.469,0,0,1-.812.033.853.853,0,0,1-.582-.623l-.951-2.624h-4.133l-.968,2.69a.815.815,0,0,1-.549.566,1.354,1.354,0,0,1-.763-.041,1,1,0,0,1-.574-.443.862.862,0,0,1,0-.771l3.69-9.594a1.466,1.466,0,0,1,.533-.771A1.364,1.364,0,0,1-8.562-21.63Zm-.033,2.624q-.131.492-.254.877t-.32.943l-.869,2.378h2.886L-8-17.186q-.213-.574-.336-.984T-8.595-19.006ZM-.51-21.63a1.275,1.275,0,0,1,.738.213.775.775,0,0,1,.312.689v10.053a.775.775,0,0,1-.312.689,1.275,1.275,0,0,1-.738.213,1.275,1.275,0,0,1-.738-.213.775.775,0,0,1-.312-.689V-20.728a.775.775,0,0,1,.312-.689A1.275,1.275,0,0,1-.51-21.63Z" transform="translate(83.878 151.045)" fill="#fff" stroke="#fff" stroke-width="1.5"/><path d="M4.452-.756c-1.584,0-2.616-1.428-2.616-3.672,0-2.208,1.032-3.564,2.616-3.564S7.068-6.636,7.068-4.428C7.068-2.184,6.024-.756,4.452-.756ZM7.14,2.208A3.962,3.962,0,0,0,8.4,2.016l-.216-.864a3.026,3.026,0,0,1-.924.132A2.3,2.3,0,0,1,5.1.108c1.86-.324,3.108-2,3.108-4.536,0-2.82-1.548-4.536-3.756-4.536S.7-7.248.7-4.428C.7-1.848,1.992-.144,3.912.12A3.32,3.32,0,0,0,7.14,2.208ZM11.6.156a2.8,2.8,0,0,0,2.16-1.176H13.8L13.884,0H14.8V-6.516H13.7V-1.9c-.624.78-1.092,1.1-1.764,1.1-.864,0-1.224-.516-1.224-1.728v-4H9.624v4.128C9.624-.732,10.236.156,11.6.156ZM16.692,0h1.092V-6.516H16.692Zm.552-7.86a.693.693,0,0,0,.732-.732.687.687,0,0,0-.732-.708.687.687,0,0,0-.732.708A.693.693,0,0,0,17.244-7.86ZM22.26.156a3.159,3.159,0,0,0,2.112-.828l-.48-.732a2.3,2.3,0,0,1-1.536.648c-1.2,0-2.016-1-2.016-2.5s.864-2.52,2.052-2.52a1.927,1.927,0,0,1,1.3.576l.564-.72a2.786,2.786,0,0,0-1.908-.768A3.172,3.172,0,0,0,19.2-3.252C19.2-1.092,20.532.156,22.26.156ZM25.5,0h1.08V-1.716L27.8-3.144,29.712,0H30.9L28.44-3.888l2.172-2.628H29.388L26.616-3.072H26.58v-6.48H25.5ZM35.712.156a3.491,3.491,0,0,0,2.16-.936h.036L38,0h.9V-4.008c0-1.608-.672-2.676-2.256-2.676a4.9,4.9,0,0,0-2.568.852l.432.756a3.59,3.59,0,0,1,1.956-.7c1.068,0,1.344.8,1.344,1.644C35.04-3.816,33.8-3.108,33.8-1.692A1.767,1.767,0,0,0,35.712.156Zm.312-.876c-.648,0-1.152-.3-1.152-1.044,0-.84.744-1.38,2.94-1.644v1.824A2.663,2.663,0,0,1,36.024-.72ZM40.68,0h1.092V-4.728a2.478,2.478,0,0,1,1.788-1c.864,0,1.236.516,1.236,1.74V0h1.092V-4.128c0-1.668-.624-2.556-1.992-2.556a3.125,3.125,0,0,0-2.184,1.1h-.036l-.1-.936h-.9Zm9.252.156a2.906,2.906,0,0,0,1.98-.924h.036l.1.768h.888V-9.552h-1.08v2.508L51.9-5.916a2.651,2.651,0,0,0-1.836-.768c-1.488,0-2.82,1.32-2.82,3.432C47.244-1.08,48.3.156,49.932.156Zm.24-.912c-1.152,0-1.8-.936-1.8-2.508,0-1.488.828-2.5,1.884-2.5a2.335,2.335,0,0,1,1.6.684v3.42A2.281,2.281,0,0,1,50.172-.756ZM58.74.156A3.491,3.491,0,0,0,60.9-.78h.036l.1.78h.9V-4.008c0-1.608-.672-2.676-2.256-2.676a4.9,4.9,0,0,0-2.568.852l.432.756a3.59,3.59,0,0,1,1.956-.7c1.068,0,1.344.8,1.344,1.644-2.772.312-4.008,1.02-4.008,2.436A1.767,1.767,0,0,0,58.74.156Zm.312-.876c-.648,0-1.152-.3-1.152-1.044,0-.84.744-1.38,2.94-1.644v1.824A2.663,2.663,0,0,1,59.052-.72Zm7.224.876a3.159,3.159,0,0,0,2.112-.828l-.48-.732a2.3,2.3,0,0,1-1.536.648c-1.2,0-2.016-1-2.016-2.5s.864-2.52,2.052-2.52a1.927,1.927,0,0,1,1.3.576l.564-.72a2.786,2.786,0,0,0-1.908-.768,3.172,3.172,0,0,0-3.144,3.432C63.216-1.092,64.548.156,66.276.156Zm5.52,0a3.159,3.159,0,0,0,2.112-.828l-.48-.732a2.3,2.3,0,0,1-1.536.648c-1.2,0-2.016-1-2.016-2.5s.864-2.52,2.052-2.52a1.927,1.927,0,0,1,1.3.576l.564-.72a2.786,2.786,0,0,0-1.908-.768,3.172,3.172,0,0,0-3.144,3.432C68.736-1.092,70.068.156,71.8.156Zm5.136,0a2.8,2.8,0,0,0,2.16-1.176h.036L79.212,0h.912V-6.516H79.032V-1.9c-.624.78-1.092,1.1-1.764,1.1-.864,0-1.224-.516-1.224-1.728v-4H74.952v4.128C74.952-.732,75.564.156,76.932.156ZM82.02,0h1.092V-4.188c.432-1.116,1.1-1.5,1.644-1.5a1.542,1.542,0,0,1,.636.108l.2-.96a1.389,1.389,0,0,0-.7-.144,2.25,2.25,0,0,0-1.848,1.356h-.036l-.1-1.188h-.9Zm5.532.156a3.491,3.491,0,0,0,2.16-.936h.036l.1.78h.9V-4.008c0-1.608-.672-2.676-2.256-2.676a4.9,4.9,0,0,0-2.568.852l.432.756a3.59,3.59,0,0,1,1.956-.7c1.068,0,1.344.8,1.344,1.644-2.772.312-4.008,1.02-4.008,2.436A1.767,1.767,0,0,0,87.552.156Zm.312-.876c-.648,0-1.152-.3-1.152-1.044,0-.84.744-1.38,2.94-1.644v1.824A2.663,2.663,0,0,1,87.864-.72Zm6.528.876a4.1,4.1,0,0,0,1.2-.24L95.376-.9a2.308,2.308,0,0,1-.744.168c-.756,0-1.008-.456-1.008-1.26V-5.628h1.764v-.888H93.624V-8.352h-.912L92.58-6.516l-1.02.06v.828h.972v3.612C92.532-.72,93,.156,94.392.156Zm4.62,0a3.878,3.878,0,0,0,2.16-.672l-.4-.72a2.809,2.809,0,0,1-1.632.516A2.159,2.159,0,0,1,96.984-3h4.392a4.263,4.263,0,0,0,.048-.624c0-1.86-.936-3.06-2.592-3.06a3.152,3.152,0,0,0-2.94,3.432A3.114,3.114,0,0,0,99.012.156Zm-2.04-3.948a2,2,0,0,1,1.872-2.016c1.02,0,1.62.708,1.62,2.016ZM106.62.156a3.491,3.491,0,0,0,2.16-.936h.036l.1.78h.9V-4.008c0-1.608-.672-2.676-2.256-2.676a4.9,4.9,0,0,0-2.568.852l.432.756a3.59,3.59,0,0,1,1.956-.7c1.068,0,1.344.8,1.344,1.644-2.772.312-4.008,1.02-4.008,2.436A1.767,1.767,0,0,0,106.62.156Zm.312-.876c-.648,0-1.152-.3-1.152-1.044,0-.84.744-1.38,2.94-1.644v1.824A2.663,2.663,0,0,1,106.932-.72Zm6.36.876c1.536,0,2.376-.876,2.376-1.932,0-1.236-1.044-1.62-1.992-1.98-.732-.276-1.4-.5-1.4-1.128,0-.5.384-.936,1.212-.936a2.386,2.386,0,0,1,1.476.576l.528-.708a3.312,3.312,0,0,0-2.016-.732c-1.416,0-2.256.816-2.256,1.848,0,1.1,1,1.548,1.908,1.884.72.276,1.488.564,1.488,1.236,0,.564-.42,1.02-1.284,1.02a2.955,2.955,0,0,1-1.932-.768l-.54.72A3.93,3.93,0,0,0,113.292.156Zm5.316,0c1.536,0,2.376-.876,2.376-1.932,0-1.236-1.044-1.62-1.992-1.98-.732-.276-1.4-.5-1.4-1.128,0-.5.384-.936,1.212-.936a2.386,2.386,0,0,1,1.476.576l.528-.708a3.312,3.312,0,0,0-2.016-.732c-1.416,0-2.256.816-2.256,1.848,0,1.1,1,1.548,1.908,1.884.72.276,1.488.564,1.488,1.236,0,.564-.42,1.02-1.284,1.02a2.955,2.955,0,0,1-1.932-.768l-.54.72A3.93,3.93,0,0,0,118.608.156Zm6.24,0a3.878,3.878,0,0,0,2.16-.672l-.4-.72a2.809,2.809,0,0,1-1.632.516A2.159,2.159,0,0,1,122.82-3h4.392a4.263,4.263,0,0,0,.048-.624c0-1.86-.936-3.06-2.592-3.06a3.152,3.152,0,0,0-2.94,3.432A3.114,3.114,0,0,0,124.848.156Zm-2.04-3.948a2,2,0,0,1,1.872-2.016c1.02,0,1.62.708,1.62,2.016ZM130.272.156c1.536,0,2.376-.876,2.376-1.932,0-1.236-1.044-1.62-1.992-1.98-.732-.276-1.4-.5-1.4-1.128,0-.5.384-.936,1.212-.936a2.386,2.386,0,0,1,1.476.576l.528-.708a3.312,3.312,0,0,0-2.016-.732c-1.416,0-2.256.816-2.256,1.848,0,1.1,1,1.548,1.908,1.884.72.276,1.488.564,1.488,1.236,0,.564-.42,1.02-1.284,1.02a2.955,2.955,0,0,1-1.932-.768l-.54.72A3.93,3.93,0,0,0,130.272.156Zm5.316,0c1.536,0,2.376-.876,2.376-1.932,0-1.236-1.044-1.62-1.992-1.98-.732-.276-1.4-.5-1.4-1.128,0-.5.384-.936,1.212-.936a2.386,2.386,0,0,1,1.476.576l.528-.708a3.312,3.312,0,0,0-2.016-.732c-1.416,0-2.256.816-2.256,1.848,0,1.1,1,1.548,1.908,1.884.72.276,1.488.564,1.488,1.236,0,.564-.42,1.02-1.284,1.02a2.955,2.955,0,0,1-1.932-.768l-.54.72A3.93,3.93,0,0,0,135.588.156ZM139.2,0h1.092V-4.728a2.407,2.407,0,0,1,1.644-1c.828,0,1.212.516,1.212,1.74V0h1.092V-4.728a2.407,2.407,0,0,1,1.644-1c.828,0,1.212.516,1.212,1.74V0h1.092V-4.128c0-1.668-.636-2.556-1.98-2.556a3.08,3.08,0,0,0-2.148,1.248,1.718,1.718,0,0,0-1.8-1.248,2.863,2.863,0,0,0-2.028,1.116H140.2l-.1-.948h-.9Zm13.44.156a3.878,3.878,0,0,0,2.16-.672l-.4-.72a2.809,2.809,0,0,1-1.632.516A2.159,2.159,0,0,1,150.612-3H155a4.263,4.263,0,0,0,.048-.624c0-1.86-.936-3.06-2.592-3.06a3.152,3.152,0,0,0-2.94,3.432A3.114,3.114,0,0,0,152.64.156ZM150.6-3.792a2,2,0,0,1,1.872-2.016c1.02,0,1.62.708,1.62,2.016ZM156.36,0h1.092V-4.728a2.478,2.478,0,0,1,1.788-1c.864,0,1.236.516,1.236,1.74V0h1.092V-4.128c0-1.668-.624-2.556-1.992-2.556a3.125,3.125,0,0,0-2.184,1.1h-.036l-.1-.936h-.9Zm9.084.156a4.1,4.1,0,0,0,1.2-.24L166.428-.9a2.309,2.309,0,0,1-.744.168c-.756,0-1.008-.456-1.008-1.26V-5.628h1.764v-.888h-1.764V-8.352h-.912l-.132,1.836-1.02.06v.828h.972v3.612C163.584-.72,164.052.156,165.444.156ZM2.136,18H3.42l.912-3.492c.168-.624.3-1.236.444-1.9h.06c.156.66.276,1.26.444,1.872L6.228,18h1.32L9.3,11.484H8.268l-.96,3.768c-.144.624-.264,1.212-.408,1.824H6.852c-.156-.612-.3-1.2-.456-1.824l-1.02-3.768H4.308L3.3,15.252c-.168.612-.3,1.212-.444,1.824H2.8c-.12-.612-.252-1.2-.384-1.824L1.44,11.484H.324Zm8.292,0H11.52V11.484H10.428Zm.552-7.86a.72.72,0,1,0-.732-.732A.693.693,0,0,0,10.98,10.14Zm3.6,8.016a1.681,1.681,0,0,0,.636-.1l-.156-.84a.959.959,0,0,1-.228.024c-.168,0-.312-.132-.312-.468V8.448H13.428V16.7C13.428,17.628,13.764,18.156,14.58,18.156Zm3.12,0a1.681,1.681,0,0,0,.636-.1l-.156-.84a.959.959,0,0,1-.228.024c-.168,0-.312-.132-.312-.468V8.448H16.548V16.7C16.548,17.628,16.884,18.156,17.7,18.156ZM24.252,21c2.016,0,3.3-1.044,3.3-2.256,0-1.068-.768-1.548-2.28-1.548H24c-.876,0-1.14-.288-1.14-.708a.97.97,0,0,1,.42-.78,2.266,2.266,0,0,0,.972.228,2.234,2.234,0,0,0,2.376-2.268,1.861,1.861,0,0,0-.528-1.344h1.332v-.84H25.164a2.688,2.688,0,0,0-.912-.168A2.321,2.321,0,0,0,21.8,13.644a2.288,2.288,0,0,0,.852,1.752v.048a1.59,1.59,0,0,0-.732,1.212,1.178,1.178,0,0,0,.6,1.068v.048a1.829,1.829,0,0,0-.96,1.476C21.564,20.376,22.656,21,24.252,21Zm0-5.808a1.428,1.428,0,0,1-1.392-1.548,1.4,1.4,0,1,1,2.784,0A1.435,1.435,0,0,1,24.252,15.192Zm.156,5.064c-1.176,0-1.884-.456-1.884-1.152a1.358,1.358,0,0,1,.66-1.1,3.665,3.665,0,0,0,.84.108h1.128c.864,0,1.332.2,1.332.8C26.484,19.6,25.656,20.256,24.408,20.256Zm6-2.1a2.8,2.8,0,0,0,2.16-1.176H32.6L32.688,18H33.6V11.484H32.508V16.1c-.624.78-1.092,1.1-1.764,1.1-.864,0-1.224-.516-1.224-1.728v-4H28.428v4.128C28.428,17.268,29.04,18.156,30.408,18.156ZM35.5,18h1.092V11.484H35.5Zm.552-7.86a.72.72,0,1,0-.732-.732A.693.693,0,0,0,36.048,10.14Zm4.668,8.016a2.906,2.906,0,0,0,1.98-.924h.036l.1.768h.888V8.448h-1.08v2.508l.048,1.128a2.651,2.651,0,0,0-1.836-.768c-1.488,0-2.82,1.32-2.82,3.432C38.028,16.92,39.084,18.156,40.716,18.156Zm.24-.912c-1.152,0-1.8-.936-1.8-2.508,0-1.488.828-2.5,1.884-2.5a2.335,2.335,0,0,1,1.6.684v3.42A2.281,2.281,0,0,1,40.956,17.244Zm7.308.912a3.878,3.878,0,0,0,2.16-.672l-.4-.72a2.809,2.809,0,0,1-1.632.516A2.159,2.159,0,0,1,46.236,15h4.392a4.263,4.263,0,0,0,.048-.624c0-1.86-.936-3.06-2.592-3.06a3.152,3.152,0,0,0-2.94,3.432A3.114,3.114,0,0,0,48.264,18.156Zm-2.04-3.948A2,2,0,0,1,48.1,12.192c1.02,0,1.62.708,1.62,2.016Zm9.852,3.948c1.536,0,2.376-.876,2.376-1.932,0-1.236-1.044-1.62-1.992-1.98-.732-.276-1.4-.5-1.4-1.128,0-.5.384-.936,1.212-.936a2.386,2.386,0,0,1,1.476.576l.528-.708a3.312,3.312,0,0,0-2.016-.732c-1.416,0-2.256.816-2.256,1.848,0,1.1,1,1.548,1.908,1.884.72.276,1.488.564,1.488,1.236,0,.564-.42,1.02-1.284,1.02a2.955,2.955,0,0,1-1.932-.768l-.54.72A3.93,3.93,0,0,0,56.076,18.156Zm5.4,0a4.1,4.1,0,0,0,1.2-.24L62.46,17.1a2.308,2.308,0,0,1-.744.168c-.756,0-1.008-.456-1.008-1.26V12.372h1.764v-.888H60.708V9.648H59.8l-.132,1.836-1.02.06v.828h.972v3.612C59.616,17.28,60.084,18.156,61.476,18.156Zm4.068,0A2.8,2.8,0,0,0,67.7,16.98h.036L67.824,18h.912V11.484H67.644V16.1c-.624.78-1.092,1.1-1.764,1.1-.864,0-1.224-.516-1.224-1.728v-4H63.564v4.128C63.564,17.268,64.176,18.156,65.544,18.156Zm7.308,0a2.906,2.906,0,0,0,1.98-.924h.036l.1.768h.888V8.448h-1.08v2.508l.048,1.128a2.651,2.651,0,0,0-1.836-.768c-1.488,0-2.82,1.32-2.82,3.432C70.164,16.92,71.22,18.156,72.852,18.156Zm.24-.912c-1.152,0-1.8-.936-1.8-2.508,0-1.488.828-2.5,1.884-2.5a2.335,2.335,0,0,1,1.6.684v3.42A2.281,2.281,0,0,1,73.092,17.244Zm7.308.912a3.878,3.878,0,0,0,2.16-.672l-.4-.72a2.809,2.809,0,0,1-1.632.516A2.159,2.159,0,0,1,78.372,15h4.392a4.263,4.263,0,0,0,.048-.624c0-1.86-.936-3.06-2.592-3.06a3.152,3.152,0,0,0-2.94,3.432A3.114,3.114,0,0,0,80.4,18.156Zm-2.04-3.948a2,2,0,0,1,1.872-2.016c1.02,0,1.62.708,1.62,2.016ZM84.12,18h1.092V13.272a2.478,2.478,0,0,1,1.788-1c.864,0,1.236.516,1.236,1.74V18h1.092V13.872c0-1.668-.624-2.556-1.992-2.556a3.125,3.125,0,0,0-2.184,1.1h-.036l-.1-.936h-.9Zm9.084.156a4.1,4.1,0,0,0,1.2-.24l-.216-.816a2.308,2.308,0,0,1-.744.168c-.756,0-1.008-.456-1.008-1.26V12.372H94.2v-.888H92.436V9.648h-.912l-.132,1.836-1.02.06v.828h.972v3.612C91.344,17.28,91.812,18.156,93.2,18.156Zm2.22-5.94A2.607,2.607,0,0,0,96.852,9.84c0-.768-.312-1.212-.852-1.212a.671.671,0,0,0-.7.732.664.664,0,0,0,.7.684.45.45,0,0,0,.132-.012,1.881,1.881,0,0,1-1.02,1.668Zm4.032,5.94c1.536,0,2.376-.876,2.376-1.932,0-1.236-1.044-1.62-1.992-1.98-.732-.276-1.4-.5-1.4-1.128,0-.5.384-.936,1.212-.936a2.386,2.386,0,0,1,1.476.576l.528-.708a3.312,3.312,0,0,0-2.016-.732c-1.416,0-2.256.816-2.256,1.848,0,1.1,1,1.548,1.908,1.884.72.276,1.488.564,1.488,1.236,0,.564-.42,1.02-1.284,1.02a2.955,2.955,0,0,1-1.932-.768l-.54.72A3.93,3.93,0,0,0,99.456,18.156Zm7.152,0a1.681,1.681,0,0,0,.636-.1l-.156-.84a.959.959,0,0,1-.228.024c-.168,0-.312-.132-.312-.468V8.448h-1.092V16.7C105.456,17.628,105.792,18.156,106.608,18.156Zm4.6,0a3.878,3.878,0,0,0,2.16-.672l-.4-.72a2.809,2.809,0,0,1-1.632.516,2.159,2.159,0,0,1-2.16-2.28h4.392a4.263,4.263,0,0,0,.048-.624c0-1.86-.936-3.06-2.592-3.06a3.152,3.152,0,0,0-2.94,3.432A3.114,3.114,0,0,0,111.2,18.156Zm-2.04-3.948a2,2,0,0,1,1.872-2.016c1.02,0,1.62.708,1.62,2.016Zm7.068,3.948a3.491,3.491,0,0,0,2.16-.936h.036l.1.78h.9V13.992c0-1.608-.672-2.676-2.256-2.676a4.9,4.9,0,0,0-2.568.852l.432.756a3.59,3.59,0,0,1,1.956-.7c1.068,0,1.344.8,1.344,1.644-2.772.312-4.008,1.02-4.008,2.436A1.767,1.767,0,0,0,116.232,18.156Zm.312-.876c-.648,0-1.152-.3-1.152-1.044,0-.84.744-1.38,2.94-1.644v1.824A2.663,2.663,0,0,1,116.544,17.28ZM121.2,18h1.092V13.812c.432-1.116,1.1-1.5,1.644-1.5a1.542,1.542,0,0,1,.636.108l.2-.96a1.389,1.389,0,0,0-.7-.144,2.25,2.25,0,0,0-1.848,1.356H122.2l-.1-1.188h-.9Zm4.356,0h1.092V13.272a2.478,2.478,0,0,1,1.788-1c.864,0,1.236.516,1.236,1.74V18h1.092V13.872c0-1.668-.624-2.556-1.992-2.556a3.125,3.125,0,0,0-2.184,1.1h-.036l-.1-.936h-.9Zm7.032,0h1.092V11.484h-1.092Zm.552-7.86a.72.72,0,1,0-.732-.732A.693.693,0,0,0,133.14,10.14ZM135.588,18h1.092V13.272a2.478,2.478,0,0,1,1.788-1c.864,0,1.236.516,1.236,1.74V18H140.8V13.872c0-1.668-.624-2.556-1.992-2.556a3.125,3.125,0,0,0-2.184,1.1h-.036l-.1-.936h-.9Zm9.228,3c2.016,0,3.3-1.044,3.3-2.256,0-1.068-.768-1.548-2.28-1.548h-1.272c-.876,0-1.14-.288-1.14-.708a.97.97,0,0,1,.42-.78,2.266,2.266,0,0,0,.972.228,2.234,2.234,0,0,0,2.376-2.268,1.861,1.861,0,0,0-.528-1.344H148v-.84h-2.268a2.688,2.688,0,0,0-.912-.168,2.321,2.321,0,0,0-2.448,2.328,2.288,2.288,0,0,0,.852,1.752v.048a1.59,1.59,0,0,0-.732,1.212,1.178,1.178,0,0,0,.6,1.068v.048a1.829,1.829,0,0,0-.96,1.476C142.128,20.376,143.22,21,144.816,21Zm0-5.808a1.428,1.428,0,0,1-1.392-1.548,1.4,1.4,0,1,1,2.784,0A1.435,1.435,0,0,1,144.816,15.192Zm.156,5.064c-1.176,0-1.884-.456-1.884-1.152a1.358,1.358,0,0,1,.66-1.1,3.665,3.665,0,0,0,.84.108h1.128c.864,0,1.332.2,1.332.8C147.048,19.6,146.22,20.256,144.972,20.256Zm5.82.66c1.284,0,1.776-.84,1.776-2.172v-7.26h-1.092v7.26c0,.792-.156,1.284-.8,1.284a1.861,1.861,0,0,1-.624-.12l-.216.84A2.818,2.818,0,0,0,150.792,20.916Zm1.224-10.776a.72.72,0,1,0-.732-.732A.69.69,0,0,0,152.016,10.14Zm4.992,8.016a3.111,3.111,0,0,0,3.024-3.408,3.048,3.048,0,1,0-6.048,0A3.111,3.111,0,0,0,157.008,18.156Zm0-.912c-1.128,0-1.884-1-1.884-2.5s.756-2.52,1.884-2.52,1.9,1.02,1.9,2.52S158.136,17.244,157.008,17.244Zm6.336.912a2.8,2.8,0,0,0,2.16-1.176h.036l.084,1.02h.912V11.484h-1.092V16.1c-.624.78-1.092,1.1-1.764,1.1-.864,0-1.224-.516-1.224-1.728v-4h-1.092v4.128C161.364,17.268,161.976,18.156,163.344,18.156ZM168.432,18h1.092V13.812c.432-1.116,1.1-1.5,1.644-1.5a1.542,1.542,0,0,1,.636.108l.2-.96a1.389,1.389,0,0,0-.7-.144,2.25,2.25,0,0,0-1.848,1.356h-.036l-.1-1.188h-.9Zm4.356,0h1.092V13.272a2.478,2.478,0,0,1,1.788-1c.864,0,1.236.516,1.236,1.74V18H178V13.872c0-1.668-.624-2.556-1.992-2.556a3.125,3.125,0,0,0-2.184,1.1h-.036l-.1-.936h-.9Zm9.66.156a3.878,3.878,0,0,0,2.16-.672l-.4-.72a2.809,2.809,0,0,1-1.632.516A2.159,2.159,0,0,1,180.42,15h4.392a4.263,4.263,0,0,0,.048-.624c0-1.86-.936-3.06-2.592-3.06a3.152,3.152,0,0,0-2.94,3.432A3.114,3.114,0,0,0,182.448,18.156Zm-2.04-3.948a2,2,0,0,1,1.872-2.016c1.02,0,1.62.708,1.62,2.016Zm5.928,6.6c1.3,0,1.98-.984,2.424-2.268l2.46-7.056h-1.068l-1.164,3.624c-.18.576-.372,1.236-.552,1.824h-.06c-.2-.588-.432-1.26-.624-1.824l-1.332-3.624h-1.14l2.616,6.528-.144.492c-.264.8-.732,1.4-1.476,1.4a1.557,1.557,0,0,1-.492-.108l-.216.876A2.006,2.006,0,0,0,186.336,20.808Zm5.952-2.652a.793.793,0,0,0,.792-.828.794.794,0,1,0-1.584,0A.793.793,0,0,0,192.288,18.156Z" transform="translate(59.291 248.091)" fill="#323c46"/><path d="M2.288,30H12.74V28.024H8.918V11.462H7.1a10.979,10.979,0,0,1-3.952,1.352v1.534h3.38V28.024H2.288Zm18.07.338c3.692,0,5.928-3.458,5.928-9.672,0-6.188-2.236-9.542-5.928-9.542S14.4,14.452,14.4,20.666,16.666,30.338,20.358,30.338Zm0-1.9c-2.184,0-3.64-2.34-3.64-7.774s1.456-7.644,3.64-7.644c2.158,0,3.614,2.21,3.614,7.644S22.516,28.44,20.358,28.44Zm12.818,7.514h2.366V31.17L35.49,28.7a6.37,6.37,0,0,0,3.9,1.638c3.25,0,6.136-2.782,6.136-7.618,0-4.342-1.976-7.2-5.616-7.2a7.528,7.528,0,0,0-4.5,1.976h-.078l-.208-1.612h-1.95ZM39,28.362a5.472,5.472,0,0,1-3.458-1.482V19.47c1.378-1.274,2.6-1.95,3.8-1.95,2.678,0,3.718,2.106,3.718,5.226C43.056,26.256,41.34,28.362,39,28.362ZM48,30h2.366V20.926c.936-2.418,2.392-3.25,3.562-3.25a3.34,3.34,0,0,1,1.378.234l.442-2.08a3.01,3.01,0,0,0-1.508-.312c-1.586,0-3.016,1.144-4,2.938h-.078l-.208-2.574H48Zm13.988.338c3.458,0,6.552-2.7,6.552-7.384,0-4.706-3.094-7.436-6.552-7.436s-6.552,2.73-6.552,7.436C55.432,27.634,58.526,30.338,61.984,30.338Zm0-1.976c-2.444,0-4.082-2.158-4.082-5.408s1.638-5.46,4.082-5.46,4.108,2.21,4.108,5.46S64.428,28.362,61.984,28.362Zm15.184,1.976c3.25,0,6.136-2.782,6.136-7.644,0-4.316-1.976-7.176-5.642-7.176a7.113,7.113,0,0,0-4.42,2l.078-2.548V9.3H70.954V30h1.9l.208-1.456h.1A6.271,6.271,0,0,0,77.168,30.338Zm-.39-1.976A5.419,5.419,0,0,1,73.32,26.88V19.47a5.83,5.83,0,0,1,3.8-1.95c2.678,0,3.718,2.106,3.718,5.226C80.834,26.256,79.118,28.362,76.778,28.362Zm11.44,1.976A3.642,3.642,0,0,0,89.6,30.13l-.338-1.82a2.077,2.077,0,0,1-.494.052c-.364,0-.676-.286-.676-1.014V9.3H85.722V27.192C85.722,29.194,86.45,30.338,88.218,30.338Zm9.308,0a8.4,8.4,0,0,0,4.68-1.456l-.858-1.56a6.086,6.086,0,0,1-3.536,1.118c-2.678,0-4.524-1.924-4.68-4.94h9.516a9.236,9.236,0,0,0,.1-1.352c0-4.03-2.028-6.63-5.616-6.63-3.276,0-6.37,2.86-6.37,7.436C90.766,27.608,93.782,30.338,97.526,30.338Zm-4.42-8.554c.286-2.756,2.054-4.368,4.056-4.368,2.21,0,3.51,1.534,3.51,4.368ZM104.936,30H107.3V19.756c1.3-1.456,2.5-2.158,3.562-2.158,1.794,0,2.626,1.118,2.626,3.77V30h2.366V19.756c1.326-1.456,2.47-2.158,3.562-2.158,1.794,0,2.626,1.118,2.626,3.77V30h2.366V21.056c0-3.614-1.378-5.538-4.29-5.538-1.716,0-3.2,1.118-4.654,2.7a3.723,3.723,0,0,0-3.9-2.7,6.2,6.2,0,0,0-4.394,2.418h-.078l-.208-2.054h-1.95Zm26.468.338c3.328,0,5.148-1.9,5.148-4.186,0-2.678-2.262-3.51-4.316-4.29-1.586-.6-3.042-1.092-3.042-2.444,0-1.092.832-2.028,2.626-2.028a5.169,5.169,0,0,1,3.2,1.248l1.144-1.534a7.175,7.175,0,0,0-4.368-1.586c-3.068,0-4.888,1.768-4.888,4,0,2.392,2.158,3.354,4.134,4.082,1.56.6,3.224,1.222,3.224,2.678,0,1.222-.91,2.21-2.782,2.21a6.4,6.4,0,0,1-4.186-1.664l-1.17,1.56A8.516,8.516,0,0,0,131.4,30.338Zm-125.762,28a7.564,7.564,0,0,0,4.68-2.028H10.4L10.608,58h1.95V49.316c0-3.484-1.456-5.8-4.888-5.8a10.619,10.619,0,0,0-5.564,1.846L3.042,47A7.778,7.778,0,0,1,7.28,45.494c2.314,0,2.912,1.742,2.912,3.562-6.006.676-8.684,2.21-8.684,5.278A3.828,3.828,0,0,0,5.642,58.338Zm.676-1.9c-1.4,0-2.5-.65-2.5-2.262,0-1.82,1.612-2.99,6.37-3.562v3.952C8.814,55.79,7.7,56.44,6.318,56.44ZM15.756,58h2.366V48.926c.936-2.418,2.392-3.25,3.562-3.25a3.34,3.34,0,0,1,1.378.234l.442-2.08A3.01,3.01,0,0,0,22,43.518c-1.586,0-3.016,1.144-4,2.938h-.078l-.208-2.574h-1.95Zm14.2.338a8.4,8.4,0,0,0,4.68-1.456l-.858-1.56a6.086,6.086,0,0,1-3.536,1.118c-2.678,0-4.524-1.924-4.68-4.94h9.516a9.236,9.236,0,0,0,.1-1.352c0-4.03-2.028-6.63-5.616-6.63-3.276,0-6.37,2.86-6.37,7.436C23.192,55.608,26.208,58.338,29.952,58.338Zm-4.42-8.554c.286-2.756,2.054-4.368,4.056-4.368,2.21,0,3.51,1.534,3.51,4.368ZM47.58,58.338a8.4,8.4,0,0,0,4.68-1.456l-.858-1.56a6.086,6.086,0,0,1-3.536,1.118c-2.678,0-4.524-1.924-4.68-4.94H52.7a9.236,9.236,0,0,0,.1-1.352c0-4.03-2.028-6.63-5.616-6.63-3.276,0-6.37,2.86-6.37,7.436C40.82,55.608,43.836,58.338,47.58,58.338Zm-4.42-8.554c.286-2.756,2.054-4.368,4.056-4.368,2.21,0,3.51,1.534,3.51,4.368ZM54.99,58h2.366V47.756c1.43-1.43,2.418-2.158,3.874-2.158,1.872,0,2.678,1.118,2.678,3.77V58h2.366V49.056c0-3.614-1.352-5.538-4.316-5.538-1.924,0-3.38,1.066-4.732,2.392h-.078l-.208-2.028H54.99Zm20.072.338c3.458,0,6.552-2.7,6.552-7.384,0-4.706-3.094-7.436-6.552-7.436s-6.552,2.73-6.552,7.436C68.51,55.634,71.6,58.338,75.062,58.338Zm0-1.976c-2.444,0-4.082-2.158-4.082-5.408s1.638-5.46,4.082-5.46,4.108,2.21,4.108,5.46S77.506,56.362,75.062,56.362ZM88.14,58.338c1.95,0,3.354-1.014,4.68-2.548H92.9L93.08,58h1.976V43.882H92.69v10.01c-1.352,1.69-2.366,2.392-3.822,2.392-1.872,0-2.652-1.118-2.652-3.744V43.882H83.85v8.944C83.85,56.414,85.176,58.338,88.14,58.338ZM103.272,64.5c4.368,0,7.15-2.262,7.15-4.888,0-2.314-1.664-3.354-4.94-3.354h-2.756c-1.9,0-2.47-.624-2.47-1.534a2.1,2.1,0,0,1,.91-1.69,4.911,4.911,0,0,0,2.106.494,4.841,4.841,0,0,0,5.148-4.914,4.032,4.032,0,0,0-1.144-2.912h2.886v-1.82h-4.914a5.824,5.824,0,0,0-1.976-.364,5.029,5.029,0,0,0-5.3,5.044,4.956,4.956,0,0,0,1.846,3.8v.1a3.445,3.445,0,0,0-1.586,2.626,2.553,2.553,0,0,0,1.3,2.314v.1a3.962,3.962,0,0,0-2.08,3.2C97.448,63.148,99.814,64.5,103.272,64.5Zm0-12.584a3.094,3.094,0,0,1-3.016-3.354,3.028,3.028,0,1,1,6.032,0A3.109,3.109,0,0,1,103.272,51.916Zm.338,10.972c-2.548,0-4.082-.988-4.082-2.5A2.943,2.943,0,0,1,100.958,58a7.941,7.941,0,0,0,1.82.234h2.444c1.872,0,2.886.442,2.886,1.742C108.108,61.458,106.314,62.888,103.61,62.888ZM111.852,58h2.366V47.756c1.43-1.43,2.418-2.158,3.874-2.158,1.872,0,2.678,1.118,2.678,3.77V58h2.366V49.056c0-3.614-1.352-5.538-4.316-5.538a6.629,6.629,0,0,0-4.68,2.366l.078-2.912V37.3h-2.366Zm15.47-5.746h1.638l.312-11.024.078-2.7h-2.418l.078,2.7Zm.806,6.084a1.7,1.7,0,0,0,1.716-1.794,1.718,1.718,0,1,0-1.716,1.794Z" transform="translate(57 163.091)" fill="#00c3e1"/><path d="M1.365,0H4.53C7.8,0,9.9-1.86,9.9-5.6s-2.1-5.52-5.49-5.52H1.365Zm2.22-1.785V-9.33h.69c2.07,0,3.36,1.02,3.36,3.735s-1.29,3.81-3.36,3.81ZM11.145,0h2.2V-8.4h-2.2Zm1.11-9.75a1.182,1.182,0,0,0,1.275-1.215,1.179,1.179,0,0,0-1.275-1.2,1.183,1.183,0,0,0-1.29,1.2A1.186,1.186,0,0,0,12.255-9.75ZM17.025.21A3.95,3.95,0,0,0,19.56-.9h.06l.15.9h1.8V-4.905c0-2.43-1.1-3.7-3.225-3.7a6.711,6.711,0,0,0-3.51,1.11l.8,1.455a4.746,4.746,0,0,1,2.31-.8c1.035,0,1.4.63,1.44,1.455-3.39.36-4.845,1.3-4.845,3.105A2.386,2.386,0,0,0,17.025.21Zm.72-1.725c-.645,0-1.11-.285-1.11-.945,0-.75.69-1.32,2.745-1.575v1.7A2.283,2.283,0,0,1,17.745-1.515Zm8.28,5.16C28.83,3.645,30.6,2.355,30.6.66c0-1.47-1.11-2.1-3.135-2.1H26.04c-.99,0-1.32-.24-1.32-.69a.855.855,0,0,1,.36-.72,3.577,3.577,0,0,0,1.08.2c1.8,0,3.24-.96,3.24-2.85a2.218,2.218,0,0,0-.375-1.275H30.45V-8.4H27.42a3.951,3.951,0,0,0-1.26-.21,3.094,3.094,0,0,0-3.39,3.03,2.752,2.752,0,0,0,1.125,2.2v.06A2.059,2.059,0,0,0,22.95-1.74a1.592,1.592,0,0,0,.765,1.41v.075a2.039,2.039,0,0,0-1.2,1.74C22.515,2.97,24.045,3.645,26.025,3.645ZM26.16-4.02c-.735,0-1.32-.555-1.32-1.56a1.349,1.349,0,0,1,1.32-1.53,1.349,1.349,0,0,1,1.32,1.53C27.48-4.575,26.9-4.02,26.16-4.02Zm.195,6.27c-1.215,0-1.995-.4-1.995-1.11A1.239,1.239,0,0,1,24.9.165a4.741,4.741,0,0,0,1.17.12h1.02c.9,0,1.4.15,1.4.75C28.485,1.7,27.615,2.25,26.355,2.25ZM31.275,0h2.2V-5.775a2.361,2.361,0,0,1,1.74-.945c.825,0,1.185.45,1.185,1.755V0H38.61V-5.235c0-2.115-.78-3.375-2.6-3.375a3.872,3.872,0,0,0-2.73,1.32H33.24L33.075-8.4h-1.8ZM43.65.21A4.1,4.1,0,0,0,47.685-4.2,4.1,4.1,0,0,0,43.65-8.61,4.1,4.1,0,0,0,39.615-4.2,4.1,4.1,0,0,0,43.65.21Zm0-1.8c-1.14,0-1.785-1.02-1.785-2.61s.645-2.61,1.785-2.61,1.785,1.035,1.785,2.61S44.79-1.59,43.65-1.59ZM51.1.21C53.3.21,54.45-.975,54.45-2.445c0-1.56-1.23-2.115-2.34-2.535-.885-.33-1.665-.555-1.665-1.17,0-.48.36-.81,1.125-.81a3.127,3.127,0,0,1,1.8.72l.99-1.335A4.656,4.656,0,0,0,51.51-8.61c-1.92,0-3.135,1.065-3.135,2.565,0,1.41,1.185,2.055,2.25,2.46.885.345,1.755.63,1.755,1.26,0,.525-.375.885-1.215.885a3.647,3.647,0,0,1-2.25-.915L47.91-.975A5.328,5.328,0,0,0,51.1.21Zm7.005,0a5.428,5.428,0,0,0,1.77-.315L59.52-1.71a2.454,2.454,0,0,1-.825.18c-.75,0-1.14-.45-1.14-1.41V-6.66h2.07V-8.4h-2.07v-2.265h-1.83L55.47-8.4l-1.305.1V-6.66H55.35v3.72C55.35-1.065,56.115.21,58.11.21ZM60.585,0h2.2V-8.4h-2.2Zm1.11-9.75a1.182,1.182,0,0,0,1.275-1.215,1.179,1.179,0,0,0-1.275-1.2,1.183,1.183,0,0,0-1.29,1.2A1.186,1.186,0,0,0,61.695-9.75ZM67.965.21a4.233,4.233,0,0,0,2.76-1.02L69.84-2.265a2.608,2.608,0,0,1-1.635.675C67-1.59,66.12-2.61,66.12-4.2s.87-2.61,2.16-2.61a1.912,1.912,0,0,1,1.275.555L70.6-7.68a3.672,3.672,0,0,0-2.445-.93A4.19,4.19,0,0,0,63.87-4.2C63.87-1.41,65.64.21,67.965.21ZM76.59,0h2.22V-9.255h3.15v-1.86H73.47v1.86h3.12Zm8.655.21A5.288,5.288,0,0,0,88.17-.72l-.75-1.35a3.462,3.462,0,0,1-1.89.585,2.207,2.207,0,0,1-2.325-2.1H88.38a4.146,4.146,0,0,0,.1-1.02c0-2.31-1.2-4-3.51-4A4.117,4.117,0,0,0,81.06-4.2,4.078,4.078,0,0,0,85.245.21Zm-2.07-5.265A1.891,1.891,0,0,1,85-6.9c1.08,0,1.59.72,1.59,1.845ZM91.95.21c2.19,0,3.345-1.185,3.345-2.655,0-1.56-1.23-2.115-2.34-2.535-.885-.33-1.665-.555-1.665-1.17,0-.48.36-.81,1.125-.81a3.127,3.127,0,0,1,1.8.72l.99-1.335a4.656,4.656,0,0,0-2.85-1.035c-1.92,0-3.135,1.065-3.135,2.565,0,1.41,1.185,2.055,2.25,2.46.885.345,1.755.63,1.755,1.26,0,.525-.375.885-1.215.885a3.647,3.647,0,0,1-2.25-.915l-1,1.38A5.328,5.328,0,0,0,91.95.21Zm7.005,0a5.428,5.428,0,0,0,1.77-.315l-.36-1.605a2.454,2.454,0,0,1-.825.18c-.75,0-1.14-.45-1.14-1.41V-6.66h2.07V-8.4H98.4v-2.265H96.57L96.315-8.4l-1.305.1V-6.66h1.185v3.72C96.195-1.065,96.96.21,98.955.21Z" transform="translate(105.344 140.438)" fill="#f5b400"/><rect width="246" height="154" transform="translate(57 115)" fill="none"/><rect width="246" height="154" transform="translate(57 115)" fill="none"/></g></svg>