<svg xmlns="http://www.w3.org/2000/svg" xmlns:xlink="http://www.w3.org/1999/xlink" width="251.726" height="148.005" viewBox="0 0 251.726 148.005"><defs><linearGradient id="a" x1="0.045" y1="0.441" x2="1.127" y2="0.827" gradientUnits="objectBoundingBox"><stop offset="0" stop-color="#f5b400"/><stop offset="1" stop-color="#ffc823"/></linearGradient></defs><g transform="translate(-51.274 -108.83)"><path d="M3,0H4.1V-7.86H6.722v-.948H.372v.948H3ZM8.4.156A3.415,3.415,0,0,0,10.529-.78h.035l.095.78h.887V-4.008c0-1.608-.662-2.676-2.223-2.676a4.783,4.783,0,0,0-2.53.852l.426.756a3.505,3.505,0,0,1,1.927-.7c1.052,0,1.324.8,1.324,1.644-2.731.312-3.949,1.02-3.949,2.436A1.753,1.753,0,0,0,8.4.156ZM8.708-.72A.993.993,0,0,1,7.573-1.764c0-.84.733-1.38,2.9-1.644v1.824A2.608,2.608,0,0,1,8.708-.72ZM13.3,0H14.36V-1.716l1.206-1.428L17.446,0h1.171L16.193-3.888l2.14-2.628H17.127L14.4-3.072H14.36v-6.48H13.3Zm8.585.156a3.783,3.783,0,0,0,2.128-.672l-.39-.72a2.74,2.74,0,0,1-1.608.516A2.145,2.145,0,0,1,19.882-3H24.21a4.325,4.325,0,0,0,.047-.624c0-1.86-.922-3.06-2.554-3.06a3.135,3.135,0,0,0-2.9,3.432A3.1,3.1,0,0,0,21.881.156ZM19.87-3.792a1.988,1.988,0,0,1,1.845-2.016c1.005,0,1.6.708,1.6,2.016ZM29.377.156A3.415,3.415,0,0,0,31.506-.78h.035l.095.78h.887V-4.008c0-1.608-.662-2.676-2.223-2.676a4.783,4.783,0,0,0-2.53.852l.426.756a3.505,3.505,0,0,1,1.927-.7c1.052,0,1.324.8,1.324,1.644-2.731.312-3.949,1.02-3.949,2.436A1.753,1.753,0,0,0,29.377.156Zm.307-.876A.993.993,0,0,1,28.55-1.764c0-.84.733-1.38,2.9-1.644v1.824A2.608,2.608,0,0,1,29.685-.72Zm6.941,3.468H37.7V.54L37.678-.6a2.875,2.875,0,0,0,1.774.756c1.478,0,2.791-1.284,2.791-3.516,0-2-.9-3.324-2.554-3.324a3.4,3.4,0,0,0-2.046.912h-.035l-.095-.744h-.887Zm2.649-3.5A2.469,2.469,0,0,1,37.7-1.44V-4.86a2.663,2.663,0,0,1,1.726-.9c1.218,0,1.691.972,1.691,2.412C41.119-1.728,40.338-.756,39.274-.756ZM43.661,0h1.076V-6.516H43.661ZM44.2-7.86a.688.688,0,0,0,.721-.732A.682.682,0,0,0,44.2-9.3a.682.682,0,0,0-.721.708A.688.688,0,0,0,44.2-7.86ZM49.148.156a3.088,3.088,0,0,0,2.081-.828L50.756-1.4a2.247,2.247,0,0,1-1.514.648c-1.182,0-1.986-1-1.986-2.5s.851-2.52,2.022-2.52a1.886,1.886,0,0,1,1.277.576l.556-.72a2.725,2.725,0,0,0-1.88-.768,3.152,3.152,0,0,0-3.1,3.432C46.132-1.092,47.445.156,49.148.156Zm5.084,0a3.99,3.99,0,0,0,1.182-.24L55.2-.9a2.247,2.247,0,0,1-.733.168c-.745,0-.993-.456-.993-1.26V-5.628h1.738v-.888H53.475V-8.352h-.9l-.13,1.836-1.005.06v.828H52.4v3.612C52.4-.72,52.86.156,54.232.156Zm4.008,0A2.744,2.744,0,0,0,60.369-1.02H60.4L60.487,0h.9V-6.516H60.31V-1.9c-.615.78-1.076,1.1-1.738,1.1-.851,0-1.206-.516-1.206-1.728v-4H56.29v4.128C56.29-.732,56.893.156,58.241.156ZM63.254,0H64.33V-4.188c.426-1.116,1.088-1.5,1.62-1.5a1.5,1.5,0,0,1,.627.108l.2-.96a1.352,1.352,0,0,0-.686-.144,2.219,2.219,0,0,0-1.821,1.356h-.035l-.095-1.188h-.887Zm6.752.156a3.783,3.783,0,0,0,2.128-.672l-.39-.72a2.74,2.74,0,0,1-1.608.516A2.145,2.145,0,0,1,68.007-3h4.328a4.325,4.325,0,0,0,.047-.624c0-1.86-.922-3.06-2.554-3.06a3.135,3.135,0,0,0-2.9,3.432A3.1,3.1,0,0,0,70.006.156ZM68-3.792A1.988,1.988,0,0,1,69.84-5.808c1.005,0,1.6.708,1.6,2.016ZM78.519.156A3.093,3.093,0,0,0,81.5-3.252c0-2.172-1.407-3.432-2.98-3.432s-2.98,1.26-2.98,3.432A3.093,3.093,0,0,0,78.519.156Zm0-.912c-1.111,0-1.856-1-1.856-2.5s.745-2.52,1.856-2.52,1.868,1.02,1.868,2.52S79.631-.756,78.519-.756ZM83.072,0h1.076V-5.628h1.36v-.888h-1.36V-7.548c0-.84.3-1.284.91-1.284a1.8,1.8,0,0,1,.721.168l.236-.828a2.734,2.734,0,0,0-1.076-.216c-1.277,0-1.868.828-1.868,2.148v1.044l-.875.06v.828h.875Zm7.2.156A3.415,3.415,0,0,0,92.4-.78h.035l.095.78h.887V-4.008c0-1.608-.662-2.676-2.223-2.676a4.783,4.783,0,0,0-2.53.852l.426.756a3.505,3.505,0,0,1,1.927-.7c1.052,0,1.324.8,1.324,1.644-2.731.312-3.949,1.02-3.949,2.436A1.753,1.753,0,0,0,90.273.156ZM90.58-.72a.993.993,0,0,1-1.135-1.044c0-.84.733-1.38,2.9-1.644v1.824A2.608,2.608,0,0,1,90.58-.72Zm6.941,3.468H98.6V.54L98.574-.6a2.875,2.875,0,0,0,1.774.756c1.478,0,2.791-1.284,2.791-3.516,0-2-.9-3.324-2.554-3.324a3.4,3.4,0,0,0-2.046.912H98.5l-.095-.744h-.887Zm2.649-3.5A2.469,2.469,0,0,1,98.6-1.44V-4.86a2.663,2.663,0,0,1,1.726-.9c1.218,0,1.691.972,1.691,2.412C102.014-1.728,101.234-.756,100.17-.756ZM104.557,0h1.076V-4.188c.426-1.116,1.088-1.5,1.62-1.5a1.5,1.5,0,0,1,.627.108l.2-.96a1.352,1.352,0,0,0-.686-.144,2.219,2.219,0,0,0-1.821,1.356h-.035l-.095-1.188h-.887Zm6.657.156a3.093,3.093,0,0,0,2.98-3.408c0-2.172-1.407-3.432-2.98-3.432s-2.98,1.26-2.98,3.432A3.093,3.093,0,0,0,111.214.156Zm0-.912c-1.111,0-1.856-1-1.856-2.5s.745-2.52,1.856-2.52,1.868,1.02,1.868,2.52S112.325-.756,111.214-.756Zm7.2.912c1.478,0,2.791-1.284,2.791-3.528,0-1.992-.9-3.312-2.566-3.312a3.213,3.213,0,0,0-2.01.924l.035-1.176V-9.552h-1.076V0h.863l.095-.672h.047A2.832,2.832,0,0,0,118.415.156Zm-.177-.912a2.446,2.446,0,0,1-1.573-.684V-4.86a2.637,2.637,0,0,1,1.726-.9c1.218,0,1.691.972,1.691,2.412C120.082-1.728,119.3-.756,118.237-.756Zm5.5.912a1.634,1.634,0,0,0,.627-.1l-.154-.84a.931.931,0,0,1-.225.024c-.166,0-.307-.132-.307-.468V-9.552H122.6V-1.3C122.6-.372,122.932.156,123.736.156Zm4.529,0a3.783,3.783,0,0,0,2.128-.672l-.39-.72a2.74,2.74,0,0,1-1.608.516A2.145,2.145,0,0,1,126.266-3h4.328a4.325,4.325,0,0,0,.047-.624c0-1.86-.922-3.06-2.554-3.06a3.135,3.135,0,0,0-2.9,3.432A3.1,3.1,0,0,0,128.265.156Zm-2.01-3.948A1.988,1.988,0,0,1,128.1-5.808c1.005,0,1.6.708,1.6,2.016ZM131.93,0h1.076V-4.728a2.365,2.365,0,0,1,1.62-1c.816,0,1.194.516,1.194,1.74V0H136.9V-4.728a2.364,2.364,0,0,1,1.62-1c.816,0,1.194.516,1.194,1.74V0h1.076V-4.128c0-1.668-.627-2.556-1.951-2.556a3.025,3.025,0,0,0-2.117,1.248,1.7,1.7,0,0,0-1.774-1.248,2.81,2.81,0,0,0-2,1.116h-.035l-.095-.948h-.887Zm13.113,2.808c1.277,0,1.951-.984,2.389-2.268l2.424-7.056H148.8l-1.147,3.624c-.177.576-.367,1.236-.544,1.824h-.059c-.2-.588-.426-1.26-.615-1.824l-1.312-3.624H144L146.581.012,146.439.5c-.26.8-.721,1.4-1.454,1.4A1.515,1.515,0,0,1,144.5,1.8l-.213.876A1.951,1.951,0,0,0,145.043,2.808ZM153.25.156a3.093,3.093,0,0,0,2.98-3.408c0-2.172-1.407-3.432-2.98-3.432s-2.98,1.26-2.98,3.432A3.093,3.093,0,0,0,153.25.156Zm0-.912c-1.111,0-1.856-1-1.856-2.5s.745-2.52,1.856-2.52,1.868,1.02,1.868,2.52S154.361-.756,153.25-.756Zm6.243.912a2.744,2.744,0,0,0,2.128-1.176h.035L161.739,0h.9V-6.516h-1.076V-1.9c-.615.78-1.076,1.1-1.738,1.1-.851,0-1.206-.516-1.206-1.728v-4h-1.076v4.128C157.542-.732,158.145.156,159.493.156ZM166.859,0h1.076V-4.728c.65-.66,1.1-1,1.762-1,.851,0,1.218.516,1.218,1.74V0h1.076V-4.128c0-1.668-.615-2.556-1.963-2.556a3.064,3.064,0,0,0-2.152,1.1h-.035l-.095-.936h-.887Zm9.519.156a3.783,3.783,0,0,0,2.128-.672l-.39-.72a2.74,2.74,0,0,1-1.608.516A2.145,2.145,0,0,1,174.38-3h4.328a4.325,4.325,0,0,0,.047-.624c0-1.86-.922-3.06-2.554-3.06a3.135,3.135,0,0,0-2.9,3.432A3.1,3.1,0,0,0,176.378.156Zm-2.01-3.948a1.988,1.988,0,0,1,1.845-2.016c1.005,0,1.6.708,1.6,2.016ZM182.633.156a3.783,3.783,0,0,0,2.128-.672l-.39-.72a2.74,2.74,0,0,1-1.608.516A2.145,2.145,0,0,1,180.635-3h4.328a4.325,4.325,0,0,0,.047-.624c0-1.86-.922-3.06-2.554-3.06a3.135,3.135,0,0,0-2.9,3.432A3.1,3.1,0,0,0,182.633.156Zm-2.01-3.948a1.988,1.988,0,0,1,1.845-2.016c1.005,0,1.6.708,1.6,2.016ZM188.486.156a2.847,2.847,0,0,0,1.951-.924h.035l.095.768h.875V-9.552h-1.064v2.508l.047,1.128a2.593,2.593,0,0,0-1.809-.768c-1.466,0-2.779,1.32-2.779,3.432C185.838-1.08,186.878.156,188.486.156Zm.236-.912c-1.135,0-1.774-.936-1.774-2.508,0-1.488.816-2.5,1.856-2.5a2.283,2.283,0,0,1,1.573.684v3.42A2.237,2.237,0,0,1,188.723-.756ZM195.687,0h1.076V-4.728c.65-.66,1.1-1,1.762-1,.851,0,1.218.516,1.218,1.74V0h1.076V-4.128c0-1.668-.615-2.556-1.963-2.556a3,3,0,0,0-2.128,1.092l.035-1.344V-9.552h-1.076Zm9.471.156a3.783,3.783,0,0,0,2.128-.672l-.39-.72a2.74,2.74,0,0,1-1.608.516A2.145,2.145,0,0,1,203.16-3h4.328a4.325,4.325,0,0,0,.047-.624c0-1.86-.922-3.06-2.554-3.06a3.135,3.135,0,0,0-2.9,3.432A3.1,3.1,0,0,0,205.159.156Zm-2.01-3.948a1.988,1.988,0,0,1,1.845-2.016c1.005,0,1.6.708,1.6,2.016ZM209.959.156a1.634,1.634,0,0,0,.627-.1l-.154-.84a.931.931,0,0,1-.225.024c-.166,0-.307-.132-.307-.468V-9.552h-1.076V-1.3C208.824-.372,209.155.156,209.959.156ZM211.9,2.748h1.076V.54L212.951-.6a2.875,2.875,0,0,0,1.774.756c1.478,0,2.791-1.284,2.791-3.516,0-2-.9-3.324-2.554-3.324a3.4,3.4,0,0,0-2.046.912h-.035l-.095-.744H211.9Zm2.649-3.5a2.469,2.469,0,0,1-1.573-.684V-4.86a2.663,2.663,0,0,1,1.726-.9c1.218,0,1.691.972,1.691,2.412C216.392-1.728,215.611-.756,214.547-.756ZM222.3,0h1.265l.9-3.492c.166-.624.3-1.236.438-1.9h.059c.154.66.272,1.26.438,1.872L226.336,0h1.3l1.726-6.516h-1.017L227.4-2.748c-.142.624-.26,1.212-.4,1.824h-.047c-.154-.612-.3-1.2-.449-1.824L225.5-6.516h-1.052l-.993,3.768c-.166.612-.3,1.212-.438,1.824h-.059c-.118-.612-.248-1.2-.378-1.824l-.958-3.768h-1.1Zm8.171,0h1.076V-6.516h-1.076Zm.544-7.86a.688.688,0,0,0,.721-.732.682.682,0,0,0-.721-.708.682.682,0,0,0-.721.708A.688.688,0,0,0,231.019-7.86ZM235.453.156a3.991,3.991,0,0,0,1.182-.24L236.422-.9a2.247,2.247,0,0,1-.733.168c-.745,0-.993-.456-.993-1.26V-5.628h1.738v-.888H234.7V-8.352h-.9l-.13,1.836-1.005.06v.828h.958v3.612C233.62-.72,234.081.156,235.453.156ZM237.593,0h1.076V-4.728c.65-.66,1.1-1,1.762-1,.851,0,1.218.516,1.218,1.74V0h1.076V-4.128c0-1.668-.615-2.556-1.963-2.556a3,3,0,0,0-2.128,1.092l.035-1.344V-9.552h-1.076Zm6.681,2.28A2.669,2.669,0,0,0,246-.228c0-.8-.343-1.3-.91-1.3a.773.773,0,0,0-.816.768.746.746,0,0,0,.792.768A.478.478,0,0,0,245.2,0a1.8,1.8,0,0,1-1.182,1.632ZM2.571,18.156A3.415,3.415,0,0,0,4.7,17.22h.035L4.83,18h.887V13.992c0-1.608-.662-2.676-2.223-2.676a4.783,4.783,0,0,0-2.53.852l.426.756a3.505,3.505,0,0,1,1.927-.7c1.052,0,1.324.8,1.324,1.644-2.731.312-3.949,1.02-3.949,2.436A1.753,1.753,0,0,0,2.571,18.156Zm.307-.876a.993.993,0,0,1-1.135-1.044c0-.84.733-1.38,2.9-1.644v1.824A2.608,2.608,0,0,1,2.879,17.28ZM7.467,18H8.543V13.272c.65-.66,1.1-1,1.762-1,.851,0,1.218.516,1.218,1.74V18H12.6V13.872c0-1.668-.615-2.556-1.963-2.556a3.064,3.064,0,0,0-2.152,1.1H8.448l-.095-.936H7.467Zm9.117.156a2.847,2.847,0,0,0,1.951-.924h.035l.095.768h.875V8.448H18.475v2.508l.047,1.128a2.593,2.593,0,0,0-1.809-.768c-1.466,0-2.779,1.32-2.779,3.432C13.935,16.92,14.975,18.156,16.583,18.156Zm.236-.912c-1.135,0-1.774-.936-1.774-2.508,0-1.488.816-2.5,1.856-2.5a2.283,2.283,0,0,1,1.573.684v3.42A2.237,2.237,0,0,1,16.82,17.244Zm8.561-4.164c.307-1,.591-1.944.863-2.976h.047c.284,1.02.556,1.98.875,2.976l.414,1.344H24.955ZM22.732,18h1.111l.84-2.688h3.169L28.68,18h1.159L26.894,9.192H25.676Zm8.029,0h1.1V9.192h-1.1ZM37.2,18H38.47l.9-3.492c.166-.624.3-1.236.438-1.9h.059c.154.66.272,1.26.438,1.872L41.237,18h1.3l1.726-6.516H43.247L42.3,15.252c-.142.624-.26,1.212-.4,1.824h-.047c-.154-.612-.3-1.2-.449-1.824L40.4,11.484H39.345l-.993,3.768c-.166.612-.3,1.212-.438,1.824h-.059c-.118-.612-.248-1.2-.378-1.824l-.958-3.768h-1.1Zm8.171,0h1.076V11.484H45.376Zm.544-7.86a.72.72,0,1,0-.721-.732A.688.688,0,0,0,45.92,10.14Zm3.547,8.016a1.634,1.634,0,0,0,.627-.1l-.154-.84a.931.931,0,0,1-.225.024c-.166,0-.307-.132-.307-.468V8.448H48.332V16.7C48.332,17.628,48.663,18.156,49.467,18.156Zm3.074,0a1.634,1.634,0,0,0,.627-.1l-.154-.84a.931.931,0,0,1-.225.024c-.166,0-.307-.132-.307-.468V8.448H51.406V16.7C51.406,17.628,51.737,18.156,52.541,18.156Zm4.292,2.592h1.076V18.54l-.024-1.14a2.875,2.875,0,0,0,1.774.756c1.478,0,2.791-1.284,2.791-3.516,0-2-.9-3.324-2.554-3.324a3.4,3.4,0,0,0-2.046.912h-.035l-.095-.744h-.887Zm2.649-3.5a2.469,2.469,0,0,1-1.573-.684V13.14a2.663,2.663,0,0,1,1.726-.9c1.218,0,1.691.972,1.691,2.412C61.327,16.272,60.546,17.244,59.482,17.244ZM63.869,18h1.076V13.812c.426-1.116,1.088-1.5,1.62-1.5a1.5,1.5,0,0,1,.627.108l.2-.96a1.352,1.352,0,0,0-.686-.144,2.219,2.219,0,0,0-1.821,1.356H64.85l-.095-1.188h-.887Zm6.657.156a3.093,3.093,0,0,0,2.98-3.408c0-2.172-1.407-3.432-2.98-3.432s-2.98,1.26-2.98,3.432A3.093,3.093,0,0,0,70.526,18.156Zm0-.912c-1.111,0-1.856-1-1.856-2.5s.745-2.52,1.856-2.52,1.868,1.02,1.868,2.52S71.638,17.244,70.526,17.244ZM76.237,18h1.253l2.282-6.516H78.709l-1.218,3.708c-.189.636-.39,1.308-.591,1.92h-.047c-.2-.612-.4-1.284-.6-1.92l-1.206-3.708H73.92Zm4.481,0h1.076V11.484H80.719Zm.544-7.86a.72.72,0,1,0-.721-.732A.688.688,0,0,0,81.263,10.14Zm4.6,8.016a2.847,2.847,0,0,0,1.951-.924h.035l.095.768h.875V8.448H87.754v2.508l.047,1.128a2.593,2.593,0,0,0-1.809-.768c-1.466,0-2.779,1.32-2.779,3.432C83.214,16.92,84.254,18.156,85.862,18.156Zm.236-.912c-1.135,0-1.774-.936-1.774-2.508,0-1.488.816-2.5,1.856-2.5a2.283,2.283,0,0,1,1.573.684v3.42A2.237,2.237,0,0,1,86.1,17.244Zm7.2.912a3.783,3.783,0,0,0,2.128-.672l-.39-.72a2.74,2.74,0,0,1-1.608.516A2.145,2.145,0,0,1,91.3,15h4.328a4.325,4.325,0,0,0,.047-.624c0-1.86-.922-3.06-2.554-3.06a3.135,3.135,0,0,0-2.9,3.432A3.1,3.1,0,0,0,93.3,18.156Zm-2.01-3.948a1.988,1.988,0,0,1,1.845-2.016c1.005,0,1.6.708,1.6,2.016Zm9.164,3.948a1.634,1.634,0,0,0,.627-.1l-.154-.84a.931.931,0,0,1-.225.024c-.166,0-.307-.132-.307-.468V8.448H99.318V16.7C99.318,17.628,99.65,18.156,100.454,18.156Zm4.529,0a3.783,3.783,0,0,0,2.128-.672l-.39-.72a2.74,2.74,0,0,1-1.608.516A2.145,2.145,0,0,1,102.984,15h4.328a4.325,4.325,0,0,0,.047-.624c0-1.86-.922-3.06-2.554-3.06a3.135,3.135,0,0,0-2.9,3.432A3.1,3.1,0,0,0,104.982,18.156Zm-2.01-3.948a1.988,1.988,0,0,1,1.845-2.016c1.005,0,1.6.708,1.6,2.016Zm6.965,3.948a3.415,3.415,0,0,0,2.128-.936h.035l.095.78h.887V13.992c0-1.608-.662-2.676-2.223-2.676a4.783,4.783,0,0,0-2.53.852l.426.756a3.505,3.505,0,0,1,1.927-.7c1.052,0,1.324.8,1.324,1.644-2.731.312-3.949,1.02-3.949,2.436A1.753,1.753,0,0,0,109.937,18.156Zm.307-.876a.993.993,0,0,1-1.135-1.044c0-.84.733-1.38,2.9-1.644v1.824A2.608,2.608,0,0,1,110.244,17.28Zm4.588.72h1.076V13.812c.426-1.116,1.088-1.5,1.62-1.5a1.5,1.5,0,0,1,.627.108l.2-.96a1.352,1.352,0,0,0-.686-.144,2.219,2.219,0,0,0-1.821,1.356h-.035l-.095-1.188h-.887Zm4.292,0H120.2V13.272c.65-.66,1.1-1,1.762-1,.851,0,1.218.516,1.218,1.74V18h1.076V13.872c0-1.668-.615-2.556-1.963-2.556a3.064,3.064,0,0,0-2.152,1.1h-.035l-.095-.936h-.887Zm6.929,0h1.076V11.484h-1.076Zm.544-7.86a.72.72,0,1,0-.721-.732A.688.688,0,0,0,126.6,10.14ZM129.01,18h1.076V13.272c.65-.66,1.1-1,1.762-1,.851,0,1.218.516,1.218,1.74V18h1.076V13.872c0-1.668-.615-2.556-1.963-2.556a3.064,3.064,0,0,0-2.152,1.1h-.035l-.095-.936h-.887Zm9.093,3c1.986,0,3.252-1.044,3.252-2.256,0-1.068-.757-1.548-2.247-1.548h-1.253c-.863,0-1.123-.288-1.123-.708a.974.974,0,0,1,.414-.78,2.3,2.3,0,0,0,3.3-2.04,1.876,1.876,0,0,0-.52-1.344h1.313v-.84H139a2.615,2.615,0,0,0-.9-.168,2.3,2.3,0,0,0-1.573,4.08v.048a1.593,1.593,0,0,0-.721,1.212,1.182,1.182,0,0,0,.591,1.068v.048a1.831,1.831,0,0,0-.946,1.476C135.454,20.376,136.53,21,138.1,21Zm0-5.808a1.419,1.419,0,0,1-1.372-1.548,1.379,1.379,0,1,1,2.743,0A1.426,1.426,0,0,1,138.1,15.192Zm.154,5.064c-1.159,0-1.856-.456-1.856-1.152a1.362,1.362,0,0,1,.65-1.1,3.561,3.561,0,0,0,.828.108h1.111c.851,0,1.313.2,1.313.8C140.3,19.6,139.486,20.256,138.256,20.256Zm8.927-2.1a3.088,3.088,0,0,0,2.081-.828l-.473-.732a2.247,2.247,0,0,1-1.514.648c-1.182,0-1.986-1-1.986-2.5s.851-2.52,2.022-2.52a1.886,1.886,0,0,1,1.277.576l.556-.72a2.725,2.725,0,0,0-1.88-.768,3.152,3.152,0,0,0-3.1,3.432C144.168,16.908,145.481,18.156,147.184,18.156Zm5.4,0a3.093,3.093,0,0,0,2.98-3.408c0-2.172-1.407-3.432-2.98-3.432s-2.98,1.26-2.98,3.432A3.093,3.093,0,0,0,152.587,18.156Zm0-.912c-1.111,0-1.856-1-1.856-2.5s.745-2.52,1.856-2.52,1.868,1.02,1.868,2.52S153.7,17.244,152.587,17.244Zm4.375.756h1.076V13.272c.65-.66,1.1-1,1.762-1,.851,0,1.218.516,1.218,1.74V18h1.076V13.872c0-1.668-.615-2.556-1.963-2.556a3.064,3.064,0,0,0-2.152,1.1h-.035l-.095-.936h-.887Zm9.46.156a3.088,3.088,0,0,0,2.081-.828l-.473-.732a2.247,2.247,0,0,1-1.514.648c-1.182,0-1.986-1-1.986-2.5s.851-2.52,2.022-2.52a1.886,1.886,0,0,1,1.277.576l.556-.72a2.725,2.725,0,0,0-1.88-.768,3.152,3.152,0,0,0-3.1,3.432C163.407,16.908,164.719,18.156,166.422,18.156Zm5.5,0a3.783,3.783,0,0,0,2.128-.672l-.39-.72a2.74,2.74,0,0,1-1.608.516A2.145,2.145,0,0,1,169.922,15h4.328a4.325,4.325,0,0,0,.047-.624c0-1.86-.922-3.06-2.554-3.06a3.135,3.135,0,0,0-2.9,3.432A3.1,3.1,0,0,0,171.92,18.156Zm-2.01-3.948a1.988,1.988,0,0,1,1.845-2.016c1.005,0,1.6.708,1.6,2.016Zm5.676,6.54h1.076V18.54l-.024-1.14a2.875,2.875,0,0,0,1.774.756c1.478,0,2.791-1.284,2.791-3.516,0-2-.9-3.324-2.554-3.324a3.4,3.4,0,0,0-2.046.912h-.035l-.095-.744h-.887Zm2.649-3.5a2.469,2.469,0,0,1-1.573-.684V13.14a2.663,2.663,0,0,1,1.726-.9c1.218,0,1.691.972,1.691,2.412C180.079,16.272,179.3,17.244,178.234,17.244Zm6.184.912a3.991,3.991,0,0,0,1.182-.24l-.213-.816a2.247,2.247,0,0,1-.733.168c-.745,0-.993-.456-.993-1.26V12.372H185.4v-.888h-1.738V9.648h-.9l-.13,1.836-1.005.06v.828h.958v3.612C182.586,17.28,183.047,18.156,184.419,18.156Zm3.689,0c1.514,0,2.341-.876,2.341-1.932,0-1.236-1.029-1.62-1.963-1.98-.721-.276-1.383-.5-1.383-1.128,0-.5.378-.936,1.194-.936a2.332,2.332,0,0,1,1.454.576l.52-.708a3.235,3.235,0,0,0-1.986-.732c-1.4,0-2.223.816-2.223,1.848,0,1.1.981,1.548,1.88,1.884.709.276,1.466.564,1.466,1.236,0,.564-.414,1.02-1.265,1.02a2.889,2.889,0,0,1-1.9-.768l-.532.72A3.84,3.84,0,0,0,188.108,18.156Zm-185.536,18A3.415,3.415,0,0,0,4.7,35.22h.035L4.83,36h.887V31.992c0-1.608-.662-2.676-2.223-2.676a4.783,4.783,0,0,0-2.53.852l.426.756a3.505,3.505,0,0,1,1.927-.7c1.052,0,1.324.8,1.324,1.644-2.731.312-3.949,1.02-3.949,2.436A1.753,1.753,0,0,0,2.571,36.156Zm.307-.876a.993.993,0,0,1-1.135-1.044c0-.84.733-1.38,2.9-1.644v1.824A2.608,2.608,0,0,1,2.879,35.28ZM7.467,36H8.543V31.272c.65-.66,1.1-1,1.762-1,.851,0,1.218.516,1.218,1.74V36H12.6V31.872c0-1.668-.615-2.556-1.963-2.556a3.064,3.064,0,0,0-2.152,1.1H8.448l-.095-.936H7.467Zm9.117.156a2.847,2.847,0,0,0,1.951-.924h.035l.095.768h.875V26.448H18.475v2.508l.047,1.128a2.593,2.593,0,0,0-1.809-.768c-1.466,0-2.779,1.32-2.779,3.432C13.935,34.92,14.975,36.156,16.583,36.156Zm.236-.912c-1.135,0-1.774-.936-1.774-2.508,0-1.488.816-2.5,1.856-2.5a2.283,2.283,0,0,1,1.573.684v3.42A2.237,2.237,0,0,1,16.82,35.244Zm8.644.912c1.514,0,2.341-.876,2.341-1.932,0-1.236-1.029-1.62-1.963-1.98-.721-.276-1.383-.5-1.383-1.128,0-.5.378-.936,1.194-.936a2.332,2.332,0,0,1,1.454.576l.52-.708a3.235,3.235,0,0,0-1.986-.732c-1.4,0-2.223.816-2.223,1.848,0,1.1.981,1.548,1.88,1.884.709.276,1.466.564,1.466,1.236,0,.564-.414,1.02-1.265,1.02a2.889,2.889,0,0,1-1.9-.768l-.532.72A3.839,3.839,0,0,0,25.463,36.156ZM29.022,36H30.1V29.484H29.022Zm.544-7.86a.72.72,0,1,0-.721-.732A.688.688,0,0,0,29.566,28.14ZM31.979,36h1.076V31.272a2.364,2.364,0,0,1,1.62-1c.816,0,1.194.516,1.194,1.74V36h1.076V31.272a2.364,2.364,0,0,1,1.62-1c.816,0,1.194.516,1.194,1.74V36h1.076V31.872c0-1.668-.627-2.556-1.951-2.556a3.025,3.025,0,0,0-2.117,1.248,1.7,1.7,0,0,0-1.774-1.248,2.81,2.81,0,0,0-2,1.116H32.96l-.095-.948h-.887Zm10.654,0h1.076V29.484H42.632Zm.544-7.86a.72.72,0,1,0-.721-.732A.688.688,0,0,0,43.176,28.14Zm3.547,8.016a1.634,1.634,0,0,0,.627-.1l-.154-.84a.931.931,0,0,1-.225.024c-.166,0-.307-.132-.307-.468V26.448H45.588V34.7C45.588,35.628,45.92,36.156,46.724,36.156Zm3.417,0a3.415,3.415,0,0,0,2.128-.936H52.3L52.4,36h.887V31.992c0-1.608-.662-2.676-2.223-2.676a4.783,4.783,0,0,0-2.53.852l.426.756a3.505,3.505,0,0,1,1.927-.7c1.052,0,1.324.8,1.324,1.644-2.731.312-3.949,1.02-3.949,2.436A1.753,1.753,0,0,0,50.141,36.156Zm.307-.876a.993.993,0,0,1-1.135-1.044c0-.84.733-1.38,2.9-1.644v1.824A2.608,2.608,0,0,1,50.448,35.28Zm4.588.72h1.076V31.812c.426-1.116,1.088-1.5,1.62-1.5a1.5,1.5,0,0,1,.627.108l.2-.96a1.352,1.352,0,0,0-.686-.144,2.219,2.219,0,0,0-1.821,1.356h-.035l-.095-1.188h-.887Zm6.645,2.748h1.076V36.54l-.024-1.14a2.875,2.875,0,0,0,1.774.756c1.478,0,2.791-1.284,2.791-3.516,0-2-.9-3.324-2.554-3.324a3.4,3.4,0,0,0-2.046.912h-.035l-.095-.744h-.887Zm2.649-3.5a2.469,2.469,0,0,1-1.573-.684V31.14a2.663,2.663,0,0,1,1.726-.9c1.218,0,1.691.972,1.691,2.412C66.175,34.272,65.394,35.244,64.33,35.244ZM68.717,36h1.076V31.812c.426-1.116,1.088-1.5,1.62-1.5a1.5,1.5,0,0,1,.627.108l.2-.96a1.352,1.352,0,0,0-.686-.144,2.219,2.219,0,0,0-1.821,1.356H69.7L69.6,29.484h-.887Zm6.657.156a3.093,3.093,0,0,0,2.98-3.408c0-2.172-1.407-3.432-2.98-3.432s-2.98,1.26-2.98,3.432A3.093,3.093,0,0,0,75.374,36.156Zm0-.912c-1.111,0-1.856-1-1.856-2.5s.745-2.52,1.856-2.52,1.868,1.02,1.868,2.52S76.486,35.244,75.374,35.244Zm7.2.912c1.478,0,2.791-1.284,2.791-3.528,0-1.992-.9-3.312-2.566-3.312a3.213,3.213,0,0,0-2.01.924l.035-1.176V26.448H79.749V36h.863l.095-.672h.047A2.832,2.832,0,0,0,82.575,36.156Zm-.177-.912a2.446,2.446,0,0,1-1.573-.684V31.14a2.637,2.637,0,0,1,1.726-.9c1.218,0,1.691.972,1.691,2.412C84.242,34.272,83.462,35.244,82.4,35.244Zm5.5.912a1.634,1.634,0,0,0,.627-.1l-.154-.84a.931.931,0,0,1-.225.024c-.166,0-.307-.132-.307-.468V26.448H86.761V34.7C86.761,35.628,87.092,36.156,87.9,36.156Zm4.529,0a3.783,3.783,0,0,0,2.128-.672l-.39-.72a2.74,2.74,0,0,1-1.608.516A2.145,2.145,0,0,1,90.427,33h4.328a4.325,4.325,0,0,0,.047-.624c0-1.86-.922-3.06-2.554-3.06a3.135,3.135,0,0,0-2.9,3.432A3.1,3.1,0,0,0,92.425,36.156Zm-2.01-3.948a1.988,1.988,0,0,1,1.845-2.016c1.005,0,1.6.708,1.6,2.016ZM96.09,36h1.076V31.272a2.364,2.364,0,0,1,1.62-1c.816,0,1.194.516,1.194,1.74V36h1.076V31.272a2.364,2.364,0,0,1,1.62-1c.816,0,1.194.516,1.194,1.74V36h1.076V31.872c0-1.668-.627-2.556-1.951-2.556a3.025,3.025,0,0,0-2.117,1.248,1.7,1.7,0,0,0-1.774-1.248,2.81,2.81,0,0,0-2,1.116h-.035l-.095-.948H96.09Zm12.333.156c1.514,0,2.341-.876,2.341-1.932,0-1.236-1.029-1.62-1.963-1.98-.721-.276-1.383-.5-1.383-1.128,0-.5.378-.936,1.194-.936a2.332,2.332,0,0,1,1.454.576l.52-.708a3.235,3.235,0,0,0-1.986-.732c-1.4,0-2.223.816-2.223,1.848,0,1.1.981,1.548,1.88,1.884.709.276,1.466.564,1.466,1.236,0,.564-.414,1.02-1.265,1.02a2.889,2.889,0,0,1-1.9-.768l-.532.72A3.839,3.839,0,0,0,108.423,36.156Zm6.09-.156h1.076V30.372h1.36v-.888h-1.36V28.452c0-.84.3-1.284.91-1.284a1.8,1.8,0,0,1,.721.168l.236-.828a2.734,2.734,0,0,0-1.076-.216c-1.277,0-1.868.828-1.868,2.148v1.044l-.875.06v.828h.875Zm5.735.156a3.093,3.093,0,0,0,2.98-3.408c0-2.172-1.407-3.432-2.98-3.432s-2.98,1.26-2.98,3.432A3.093,3.093,0,0,0,120.248,36.156Zm0-.912c-1.111,0-1.856-1-1.856-2.5s.745-2.52,1.856-2.52,1.868,1.02,1.868,2.52S121.359,35.244,120.248,35.244Zm4.375.756H125.7V31.812c.426-1.116,1.088-1.5,1.62-1.5a1.5,1.5,0,0,1,.627.108l.2-.96a1.352,1.352,0,0,0-.686-.144,2.219,2.219,0,0,0-1.821,1.356H125.6l-.095-1.188h-.887Zm6.752,2.808c1.277,0,1.951-.984,2.389-2.268l2.424-7.056h-1.052l-1.147,3.624c-.177.576-.367,1.236-.544,1.824h-.059c-.2-.588-.426-1.26-.615-1.824l-1.313-3.624h-1.123l2.578,6.528-.142.492c-.26.8-.721,1.4-1.454,1.4a1.515,1.515,0,0,1-.485-.108l-.213.876A1.951,1.951,0,0,0,131.374,38.808Zm8.206-2.652a3.093,3.093,0,0,0,2.98-3.408c0-2.172-1.407-3.432-2.98-3.432s-2.98,1.26-2.98,3.432A3.093,3.093,0,0,0,139.581,36.156Zm0-.912c-1.111,0-1.856-1-1.856-2.5s.745-2.52,1.856-2.52,1.868,1.02,1.868,2.52S140.692,35.244,139.581,35.244Zm6.243.912a2.744,2.744,0,0,0,2.128-1.176h.035L148.07,36h.9V29.484h-1.076V34.1c-.615.78-1.076,1.1-1.738,1.1-.851,0-1.206-.516-1.206-1.728v-4h-1.076v4.128C143.873,35.268,144.476,36.156,145.824,36.156Zm5.569,0a.787.787,0,0,0,.78-.828.783.783,0,1,0-1.561,0A.787.787,0,0,0,151.393,36.156Z" transform="translate(57 218.027)" fill="#323c46"/><path d="M8.64.312c3.6,0,6.336-1.92,6.336-7.584V-17.616H12.84V-7.2c0,4.248-1.848,5.568-4.2,5.568-2.28,0-4.08-1.32-4.08-5.568V-17.616H2.328V-7.272C2.328-1.608,5.064.312,8.64.312Zm12.984,0c3.072,0,4.752-1.752,4.752-3.864,0-2.472-2.088-3.24-3.984-3.96-1.464-.552-2.808-1.008-2.808-2.256,0-1.008.768-1.872,2.424-1.872a4.771,4.771,0,0,1,2.952,1.152L26.016-11.9a6.623,6.623,0,0,0-4.032-1.464c-2.832,0-4.512,1.632-4.512,3.7,0,2.208,1.992,3.1,3.816,3.768,1.44.552,2.976,1.128,2.976,2.472,0,1.128-.84,2.04-2.568,2.04a5.911,5.911,0,0,1-3.864-1.536l-1.08,1.44A7.861,7.861,0,0,0,21.624.312Zm11.88,0a7.757,7.757,0,0,0,4.32-1.344l-.792-1.44A5.618,5.618,0,0,1,33.768-1.44c-2.472,0-4.176-1.776-4.32-4.56h8.784a8.526,8.526,0,0,0,.1-1.248c0-3.72-1.872-6.12-5.184-6.12-3.024,0-5.88,2.64-5.88,6.864C27.264-2.208,30.048.312,33.5.312Zm-4.08-7.9c.264-2.544,1.9-4.032,3.744-4.032,2.04,0,3.24,1.416,3.24,4.032Zm15.312,13.2c2.592,0,3.96-1.968,4.848-4.536L54.5-13.032H52.368L50.04-5.784c-.36,1.152-.744,2.472-1.1,3.648h-.12c-.408-1.176-.864-2.52-1.248-3.648L44.9-13.032h-2.28L47.856.024l-.288.984C47.04,2.616,46.1,3.816,44.616,3.816a3.114,3.114,0,0,1-.984-.216L43.2,5.352A4.012,4.012,0,0,0,44.736,5.616ZM60.792.312c3.192,0,6.048-2.5,6.048-6.816,0-4.344-2.856-6.864-6.048-6.864s-6.048,2.52-6.048,6.864C54.744-2.184,57.6.312,60.792.312Zm0-1.824c-2.256,0-3.768-1.992-3.768-4.992s1.512-5.04,3.768-5.04S64.584-9.5,64.584-6.5,63.048-1.512,60.792-1.512ZM72.864.312a5.591,5.591,0,0,0,4.32-2.352h.072L77.424,0h1.824V-13.032H77.064v9.24c-1.248,1.56-2.184,2.208-3.528,2.208-1.728,0-2.448-1.032-2.448-3.456v-7.992H68.9v8.256C68.9-1.464,70.128.312,72.864.312ZM82.44,0h2.184V-8.376c.864-2.232,2.208-3,3.288-3a3.083,3.083,0,0,1,1.272.216l.408-1.92a2.778,2.778,0,0,0-1.392-.288c-1.464,0-2.784,1.056-3.7,2.712h-.072l-.192-2.376h-1.8ZM99.864.312a6.319,6.319,0,0,0,4.224-1.656l-.96-1.464a4.6,4.6,0,0,1-3.072,1.3c-2.4,0-4.032-1.992-4.032-4.992s1.728-5.04,4.1-5.04a3.853,3.853,0,0,1,2.592,1.152l1.128-1.44a5.572,5.572,0,0,0-3.816-1.536c-3.336,0-6.288,2.52-6.288,6.864C93.744-2.184,96.408.312,99.864.312Zm8.616,0A6.982,6.982,0,0,0,112.8-1.56h.072L113.064,0h1.8V-8.016c0-3.216-1.344-5.352-4.512-5.352a9.8,9.8,0,0,0-5.136,1.7l.864,1.512a7.18,7.18,0,0,1,3.912-1.392c2.136,0,2.688,1.608,2.688,3.288-5.544.624-8.016,2.04-8.016,4.872A3.533,3.533,0,0,0,108.48.312ZM109.1-1.44c-1.3,0-2.3-.6-2.3-2.088,0-1.68,1.488-2.76,5.88-3.288v3.648A5.326,5.326,0,0,1,109.1-1.44ZM117.816,0H120V-9.456c1.2-1.344,2.3-1.992,3.288-1.992,1.656,0,2.424,1.032,2.424,3.48V0H127.9V-9.456c1.224-1.344,2.28-1.992,3.288-1.992,1.656,0,2.424,1.032,2.424,3.48V0h2.184V-8.256c0-3.336-1.272-5.112-3.96-5.112-1.584,0-2.952,1.032-4.3,2.5a3.437,3.437,0,0,0-3.6-2.5,5.726,5.726,0,0,0-4.056,2.232h-.072l-.192-1.9h-1.8ZM144.1.312a7.756,7.756,0,0,0,4.32-1.344l-.792-1.44A5.618,5.618,0,0,1,144.36-1.44c-2.472,0-4.176-1.776-4.32-4.56h8.784a8.526,8.526,0,0,0,.1-1.248c0-3.72-1.872-6.12-5.184-6.12-3.024,0-5.88,2.64-5.88,6.864C137.856-2.208,140.64.312,144.1.312Zm-4.08-7.9c.264-2.544,1.9-4.032,3.744-4.032,2.04,0,3.24,1.416,3.24,4.032ZM150.936,0h2.184V-8.376c.864-2.232,2.208-3,3.288-3a3.083,3.083,0,0,1,1.272.216l.408-1.92a2.778,2.778,0,0,0-1.392-.288c-1.464,0-2.784,1.056-3.7,2.712h-.072l-.192-2.376h-1.8ZM161.4.312a6.982,6.982,0,0,0,4.32-1.872h.072L165.984,0h1.8V-8.016c0-3.216-1.344-5.352-4.512-5.352a9.8,9.8,0,0,0-5.136,1.7L159-10.152a7.18,7.18,0,0,1,3.912-1.392c2.136,0,2.688,1.608,2.688,3.288-5.544.624-8.016,2.04-8.016,4.872A3.533,3.533,0,0,0,161.4.312Zm.624-1.752c-1.3,0-2.3-.6-2.3-2.088,0-1.68,1.488-2.76,5.88-3.288v3.648A5.326,5.326,0,0,1,162.024-1.44ZM171.648-5.3h1.512l.288-10.176.072-2.5h-2.232l.072,2.5Zm.744,5.616a1.571,1.571,0,0,0,1.584-1.656,1.6,1.6,0,0,0-1.584-1.7,1.613,1.613,0,0,0-1.584,1.7A1.585,1.585,0,0,0,172.392.312Z" transform="translate(57 190.227)" fill="#00c3e1"/><path d="M16.127,0H27.639a16.127,16.127,0,0,1,0,32.253H16.127A16.127,16.127,0,0,1,16.127,0Z" transform="translate(51.274 139.777) rotate(-45)" fill="url(#a)"/><path d="M-8.562-21.63a1.353,1.353,0,0,1,.738.2,1.569,1.569,0,0,1,.541.771l3.69,9.512a.972.972,0,0,1,0,.82.965.965,0,0,1-.59.476,1.469,1.469,0,0,1-.812.033.853.853,0,0,1-.582-.623l-.951-2.624h-4.133l-.968,2.69a.815.815,0,0,1-.549.566,1.354,1.354,0,0,1-.763-.041,1,1,0,0,1-.574-.443.862.862,0,0,1,0-.771l3.69-9.594a1.466,1.466,0,0,1,.533-.771A1.364,1.364,0,0,1-8.562-21.63Zm-.033,2.624q-.131.492-.254.877t-.32.943l-.869,2.378h2.886L-8-17.186q-.213-.574-.336-.984T-8.595-19.006ZM-.51-21.63a1.275,1.275,0,0,1,.738.213.775.775,0,0,1,.312.689v10.053a.775.775,0,0,1-.312.689,1.275,1.275,0,0,1-.738.213,1.275,1.275,0,0,1-.738-.213.775.775,0,0,1-.312-.689V-20.728a.775.775,0,0,1,.312-.689A1.275,1.275,0,0,1-.51-21.63Z" transform="translate(84.421 151.045)" fill="#fff" stroke="#fff" stroke-width="1.5"/><path d="M0,0H41V41H0Z" transform="translate(57.834 115)" fill="#fff" opacity="0"/><path d="M1.274,0H3.136V-4.326c0-.98-.168-2.422-.266-3.4h.056l.826,2.436L5.362-.938h1.19l1.6-4.354.84-2.436h.07c-.112.98-.266,2.422-.266,3.4V0h1.89V-10.374h-2.3L6.664-5.516c-.224.644-.406,1.33-.63,1.988h-.07c-.21-.658-.406-1.344-.63-1.988L3.57-10.374h-2.3Zm13.02.2A3.686,3.686,0,0,0,16.66-.84h.056l.14.84h1.68V-4.578c0-2.268-1.022-3.458-3.01-3.458A6.263,6.263,0,0,0,12.25-7l.742,1.358a4.43,4.43,0,0,1,2.156-.742c.966,0,1.3.588,1.344,1.358-3.164.336-4.522,1.218-4.522,2.9A2.227,2.227,0,0,0,14.294.2Zm.672-1.61c-.6,0-1.036-.266-1.036-.882,0-.7.644-1.232,2.562-1.47v1.582A2.13,2.13,0,0,1,14.966-1.414ZM22.54.2A5.067,5.067,0,0,0,24.192-.1l-.336-1.5a2.291,2.291,0,0,1-.77.168c-.7,0-1.064-.42-1.064-1.316V-6.216h1.932V-7.84H22.022V-9.954H20.314L20.076-7.84l-1.218.1v1.526h1.106v3.472C19.964-.994,20.678.2,22.54.2ZM24.85,0h2.058V-5.39a2.2,2.2,0,0,1,1.624-.882c.77,0,1.106.42,1.106,1.638V0H31.7V-4.886c0-1.974-.728-3.15-2.422-3.15A3.568,3.568,0,0,0,26.81-6.888l.1-1.47v-2.814H24.85ZM39.984.2a4.193,4.193,0,0,0,3.3-1.526L42.2-2.618A2.857,2.857,0,0,1,40.054-1.6c-1.638,0-2.7-1.358-2.7-3.612,0-2.226,1.176-3.57,2.744-3.57a2.729,2.729,0,0,1,1.918.868l1.078-1.316a4.226,4.226,0,0,0-3.038-1.33c-2.618,0-4.816,2-4.816,5.418C35.238-1.68,37.366.2,39.984.2Zm6.034,0A3.686,3.686,0,0,0,48.384-.84h.056l.14.84h1.68V-4.578c0-2.268-1.022-3.458-3.01-3.458A6.263,6.263,0,0,0,43.974-7l.742,1.358a4.43,4.43,0,0,1,2.156-.742c.966,0,1.3.588,1.344,1.358-3.164.336-4.522,1.218-4.522,2.9A2.227,2.227,0,0,0,46.018.2Zm.672-1.61c-.6,0-1.036-.266-1.036-.882,0-.7.644-1.232,2.562-1.47v1.582A2.13,2.13,0,0,1,46.69-1.414ZM51.66,0h2.058V-5.39a2.234,2.234,0,0,1,1.5-.882c.742,0,1.106.42,1.106,1.638V0h2.044V-5.39a2.288,2.288,0,0,1,1.512-.882c.742,0,1.092.42,1.092,1.638V0h2.058V-4.886c0-1.974-.77-3.15-2.436-3.15A3.477,3.477,0,0,0,58.1-6.664a2.134,2.134,0,0,0-2.156-1.372A3.3,3.3,0,0,0,53.536-6.79h-.042L53.34-7.84H51.66ZM67.872.2A4.936,4.936,0,0,0,70.6-.672l-.7-1.26a3.231,3.231,0,0,1-1.764.546,2.06,2.06,0,0,1-2.17-1.96H70.8a3.869,3.869,0,0,0,.1-.952c0-2.156-1.12-3.738-3.276-3.738A3.842,3.842,0,0,0,63.966-3.92,3.806,3.806,0,0,0,67.872.2ZM65.94-4.718A1.764,1.764,0,0,1,67.648-6.44c1.008,0,1.484.672,1.484,1.722ZM71.89,0h2.058V-4.676c.434-1.134,1.176-1.54,1.792-1.54a2.619,2.619,0,0,1,.826.126l.35-1.778a2.218,2.218,0,0,0-.924-.168,2.716,2.716,0,0,0-2.226,1.582h-.042L73.57-7.84H71.89Zm6.9.2A3.686,3.686,0,0,0,81.158-.84h.056l.14.84h1.68V-4.578c0-2.268-1.022-3.458-3.01-3.458A6.263,6.263,0,0,0,76.748-7l.742,1.358a4.43,4.43,0,0,1,2.156-.742c.966,0,1.3.588,1.344,1.358-3.164.336-4.522,1.218-4.522,2.9A2.227,2.227,0,0,0,78.792.2Zm.672-1.61c-.6,0-1.036-.266-1.036-.882,0-.7.644-1.232,2.562-1.47v1.582A2.13,2.13,0,0,1,79.464-1.414Z" transform="translate(105.344 138.574)" fill="#f5b400"/></g></svg>