<svg xmlns="http://www.w3.org/2000/svg" xmlns:xlink="http://www.w3.org/1999/xlink" width="485" height="452" viewBox="0 0 485 452">
  <defs>
    <clipPath id="clip-path">
      <rect id="img_area" width="485" height="452" transform="translate(-0.308 -0.287)" fill="#c4b2ff" opacity="0"/>
    </clipPath>
    <linearGradient id="linear-gradient" x1="0.111" y1="0.263" x2="1.068" y2="0.666" gradientUnits="objectBoundingBox">
      <stop offset="0" stop-color="#eafdff"/>
      <stop offset="0.589" stop-color="#ebfdff"/>
      <stop offset="0.923" stop-color="#fff"/>
      <stop offset="1" stop-color="#fff"/>
    </linearGradient>
    <clipPath id="clip-path-2">
      <path id="타원_13552" data-name="타원 13552" d="M57.773,38.26A19.513,19.513,0,1,0,77.285,57.773,19.535,19.535,0,0,0,57.773,38.26m0-38.26A57.773,57.773,0,1,1,0,57.773,57.773,57.773,0,0,1,57.773,0Z" fill="#b3f4e8"/>
    </clipPath>
  </defs>
  <g id="_-g-img_intro4" data-name="-g-img_intro4" transform="translate(476.308 -889.635)">
    <g id="마스크_그룹_7345" data-name="마스크 그룹 7345" transform="translate(-476 889.922)" clip-path="url(#clip-path)">
      <path id="사각형_8805" data-name="사각형 8805" d="M170.609,0h241.02a0,0,0,0,1,0,0V170.609A170.609,170.609,0,0,1,241.02,341.219h-70.41A170.609,170.609,0,0,1,0,170.609v0A170.609,170.609,0,0,1,170.609,0Z" transform="translate(-19.771 206.809) rotate(-30)" fill="url(#linear-gradient)"/>
    </g>
    <g id="사각형_8806" data-name="사각형 8806" transform="translate(-179.308 1056.635)" fill="#fff" stroke="#00c3e1" stroke-width="4">
      <rect width="159" height="250" rx="30" stroke="none"/>
      <rect x="2" y="2" width="155" height="246" rx="28" fill="none"/>
    </g>
    <g id="그룹_14582" data-name="그룹 14582" transform="translate(-311.71 946.471)">
      <path id="패스_12276" data-name="패스 12276" d="M961.464,1100.782V1356.4" transform="translate(-840.503 -1100.782)" fill="none" stroke="#ccf9fe" stroke-linecap="round" stroke-width="5" stroke-dasharray="5 12"/>
      <path id="line" d="M-1645.135,1865.654c23.984,0,19.57-26.938,33.8-33.013,21.206-9.054,24.621,25.856,43.894,25.856,10.634,0,15.681-19.436,27.5-25.1,13.09-6.276,21.539,2.2,32.8,2.2,12.365,0,18.909-10.335,30.978-11.2,14.473-1.038,17.05,7.155,33.8,4.952,16.9-2.221,23.832-21.458,33.794-21.458" transform="translate(1645.135 -1736.17)" fill="none" stroke="#cbf9fd" stroke-linecap="round" stroke-linejoin="round" stroke-width="5"/>
      <g id="point" transform="translate(105.367 80.277)">
        <circle id="타원_1463" data-name="타원 1463" cx="14.5" cy="14.5" r="14.5" transform="translate(0.035 -0.113)" fill="#00dcff" opacity="0.16"/>
        <circle id="타원_1464" data-name="타원 1464" cx="4.5" cy="4.5" r="4.5" transform="translate(10.035 9.887)" fill="#00dcff"/>
      </g>
    </g>
    <g id="x" transform="translate(-114.47 1133.276)">
      <line id="선_687" data-name="선 687" x2="32.497" y2="32.497" fill="none" stroke="#ff6e5f" stroke-linecap="round" stroke-width="20"/>
      <line id="선_688" data-name="선 688" x1="32.497" y2="32.497" fill="none" stroke="#ff6e5f" stroke-linecap="round" stroke-width="20"/>
    </g>
    <g id="그룹_14577" data-name="그룹 14577" transform="matrix(0.809, 0.588, -0.588, 0.809, -383.166, 950.67)">
      <g id="마스크_그룹_7340" data-name="마스크 그룹 7340" transform="translate(0 0)" clip-path="url(#clip-path-2)">
        <path id="패스_12274" data-name="패스 12274" d="M71.24,46.55v72.516L0,91.824V0Z" transform="matrix(0.259, 0.966, -0.966, 0.259, 84.211, -21.911)" fill="#b7e2ff"/>
        <path id="패스_12273" data-name="패스 12273" d="M71.24,46.55l50.478,74.556L19.079,111.516,0,0Z" transform="translate(-13.468 11.222)" fill="#74e9d3"/>
        <path id="패스_12275" data-name="패스 12275" d="M79.581,0,0,11.688,69.957,40.713l.453-14.6Z" transform="translate(47.214 52.874) rotate(-67)" fill="#b3f4e8"/>
      </g>
    </g>
    <g id="그룹_14578" data-name="그룹 14578" transform="translate(-359.149 1113.637)">
      <path id="사각형_8815" data-name="사각형 8815" d="M22.5,0H159a0,0,0,0,1,0,0V22.5A22.5,22.5,0,0,1,136.5,45H22.5A22.5,22.5,0,0,1,0,22.5v0A22.5,22.5,0,0,1,22.5,0Z" transform="translate(-0.159 -0.003)" fill="#00dcff"/>
      <path id="패스_12302" data-name="패스 12302" d="M-74.665-1.326c3.087,0,4.911-1.86,4.911-4.044A3.691,3.691,0,0,0-72.445-9l-1.751-.74c-1.137-.451-2.076-.794-2.076-1.751,0-.885.74-1.408,1.914-1.408a4.262,4.262,0,0,1,2.834,1.1l1.354-1.679a5.929,5.929,0,0,0-4.189-1.715c-2.708,0-4.622,1.679-4.622,3.864a3.87,3.87,0,0,0,2.708,3.593l1.787.758c1.192.506,2,.812,2,1.805,0,.939-.74,1.535-2.13,1.535a5.256,5.256,0,0,1-3.394-1.48L-79.54-3.275A7.119,7.119,0,0,0-74.665-1.326Zm9.117,0a6.534,6.534,0,0,0,2.13-.379l-.433-1.932a2.954,2.954,0,0,1-.993.217c-.9,0-1.372-.542-1.372-1.7V-9.594h2.491v-2.094h-2.491v-2.726h-2.2l-.307,2.726-1.571.126v1.968h1.426v4.477C-68.87-2.86-67.949-1.326-65.548-1.326Zm5.813,0a4.056,4.056,0,0,0,3.214-1.7h.072l.2,1.444h2.166v-10.11h-2.654v6.824A2.436,2.436,0,0,1-58.8-3.6c-.975,0-1.408-.56-1.408-2.112v-5.976h-2.654V-5.37C-62.858-2.842-61.919-1.326-59.735-1.326Zm10.959,0a4.193,4.193,0,0,0,2.8-1.3h.072l.2,1.047h2.148V-15.985h-2.636v3.557l.09,1.589a3.48,3.48,0,0,0-2.564-1.1c-2.185,0-4.243,2.022-4.243,5.308C-52.91-3.311-51.286-1.326-48.776-1.326Zm.686-2.185c-1.336,0-2.094-1.047-2.094-3.141,0-2.022.957-3.105,2.094-3.105a2.727,2.727,0,0,1,1.9.758v4.441A2.3,2.3,0,0,1-48.09-3.51ZM-40.9,2.484c2.257,0,3.34-1.372,4.225-3.755l3.593-10.417h-2.546l-1.39,4.694c-.235.939-.487,1.914-.722,2.853h-.09c-.289-.975-.542-1.95-.849-2.853l-1.607-4.694h-2.672l3.936,9.93-.181.6A1.935,1.935,0,0,1-41.1.372a2.719,2.719,0,0,1-.7-.126l-.487,2.04A4.281,4.281,0,0,0-40.9,2.484Zm8.4-4.062h2.654v-10.11H-32.51Zm1.336-11.735a1.422,1.422,0,0,0,1.535-1.462,1.418,1.418,0,0,0-1.535-1.444,1.424,1.424,0,0,0-1.553,1.444A1.428,1.428,0,0,0-31.174-13.313ZM-28.1-1.578h2.654V-8.529a2.841,2.841,0,0,1,2.094-1.137c.993,0,1.426.542,1.426,2.112v5.976h2.654v-6.3c0-2.546-.939-4.062-3.123-4.062a4.66,4.66,0,0,0-3.286,1.589h-.054l-.2-1.336H-28.1Zm14.046,4.387c3.376,0,5.506-1.553,5.506-3.593,0-1.769-1.336-2.528-3.773-2.528H-14.04c-1.192,0-1.589-.289-1.589-.83a1.029,1.029,0,0,1,.433-.867,4.306,4.306,0,0,0,1.3.235c2.166,0,3.9-1.155,3.9-3.43a2.67,2.67,0,0,0-.451-1.535h1.715v-1.95h-3.647a4.756,4.756,0,0,0-1.517-.253c-2.148,0-4.08,1.282-4.08,3.647A3.312,3.312,0,0,0-16.622-5.64v.072a2.479,2.479,0,0,0-1.137,1.9,1.916,1.916,0,0,0,.921,1.7v.09A2.455,2.455,0,0,0-18.283.209C-18.283,2-16.442,2.809-14.058,2.809Zm.162-9.226c-.885,0-1.589-.668-1.589-1.878A1.624,1.624,0,0,1-13.9-10.136a1.624,1.624,0,0,1,1.589,1.841C-12.307-7.085-13.011-6.417-13.9-6.417Zm.235,7.547c-1.462,0-2.4-.487-2.4-1.336a1.492,1.492,0,0,1,.65-1.174A5.706,5.706,0,0,0-14-1.235h1.228c1.083,0,1.679.181,1.679.9C-11.1.462-12.145,1.13-13.661,1.13ZM-.608-1.326A5.1,5.1,0,0,0,2.714-2.553L1.648-4.3a3.139,3.139,0,0,1-1.968.812c-1.444,0-2.509-1.228-2.509-3.141,0-1.9,1.047-3.141,2.6-3.141a2.3,2.3,0,0,1,1.535.668l1.264-1.715A4.42,4.42,0,0,0-.374-11.941,5.043,5.043,0,0,0-5.537-6.633C-5.537-3.275-3.407-1.326-.608-1.326Zm7.817,0c2.528,0,4.857-1.95,4.857-5.308s-2.329-5.308-4.857-5.308S2.353-9.991,2.353-6.633,4.681-1.326,7.209-1.326Zm0-2.166c-1.372,0-2.148-1.228-2.148-3.141,0-1.9.776-3.141,2.148-3.141S9.357-8.529,9.357-6.633C9.357-4.72,8.581-3.492,7.209-3.492ZM13.2-1.578h2.654V-8.529a2.841,2.841,0,0,1,2.094-1.137c.993,0,1.426.542,1.426,2.112v5.976h2.654v-6.3c0-2.546-.939-4.062-3.123-4.062a4.66,4.66,0,0,0-3.286,1.589h-.054l-.2-1.336H13.2Zm14.786.253a5.1,5.1,0,0,0,3.322-1.228L30.246-4.3a3.139,3.139,0,0,1-1.968.812c-1.444,0-2.509-1.228-2.509-3.141,0-1.9,1.047-3.141,2.6-3.141a2.3,2.3,0,0,1,1.535.668l1.264-1.715a4.42,4.42,0,0,0-2.943-1.119A5.043,5.043,0,0,0,23.06-6.633C23.06-3.275,25.191-1.326,27.989-1.326Zm8,0a6.365,6.365,0,0,0,3.521-1.119L38.6-4.07a4.167,4.167,0,0,1-2.275.7,2.656,2.656,0,0,1-2.8-2.528H39.76a4.989,4.989,0,0,0,.126-1.228c0-2.78-1.444-4.82-4.225-4.82-2.4,0-4.712,2.04-4.712,5.308C30.95-3.293,33.153-1.326,35.987-1.326ZM33.5-7.662a2.275,2.275,0,0,1,2.2-2.221c1.3,0,1.914.867,1.914,2.221ZM40.988,2.3h2.654V-.766l-.09-1.661a3.758,3.758,0,0,0,2.509,1.1c2.221,0,4.3-2,4.3-5.47,0-3.105-1.48-5.145-3.972-5.145a4.8,4.8,0,0,0-2.979,1.3h-.054l-.2-1.047H40.988ZM45.465-3.51a2.754,2.754,0,0,1-1.823-.758V-8.71a2.785,2.785,0,0,1,1.986-1.047c1.39,0,2,1.065,2,3C47.632-4.557,46.693-3.51,45.465-3.51Zm9.262,2.185a6.534,6.534,0,0,0,2.13-.379l-.433-1.932a2.954,2.954,0,0,1-.993.217c-.9,0-1.372-.542-1.372-1.7V-9.594H56.55v-2.094H54.059v-2.726h-2.2l-.307,2.726-1.571.126v1.968h1.426v4.477C51.405-2.86,52.326-1.326,54.727-1.326Zm5.47,0c2.636,0,4.026-1.426,4.026-3.2,0-1.878-1.48-2.546-2.816-3.051-1.065-.4-2-.668-2-1.408,0-.578.433-.975,1.354-.975a3.764,3.764,0,0,1,2.166.867L64.115-10.7a5.6,5.6,0,0,0-3.43-1.246c-2.311,0-3.773,1.282-3.773,3.087,0,1.7,1.426,2.473,2.708,2.961,1.065.415,2.112.758,2.112,1.517,0,.632-.451,1.065-1.462,1.065a4.389,4.389,0,0,1-2.708-1.1l-1.21,1.661A6.413,6.413,0,0,0,60.2-1.326Z" transform="translate(87.676 30.695)" fill="#fff"/>
    </g>
    <g id="그룹_14579" data-name="그룹 14579" transform="translate(-359.149 1167.569)">
      <path id="사각형_8815-2" data-name="사각형 8815" d="M23,0H159a0,0,0,0,1,0,0V23a23,23,0,0,1-23,23H23A23,23,0,0,1,0,23v0A23,23,0,0,1,23,0Z" transform="translate(-0.159 0.066)" fill="#00b996"/>
      <path id="패스_12303" data-name="패스 12303" d="M-64.13-1.553h8.4V-3.792h-5.723V-7.366h4.694V-9.605h-4.694v-3.087h5.524v-2.239h-8.2Zm12.475.253A4.754,4.754,0,0,0-48.6-2.636h.072l.181,1.083h2.166v-5.9c0-2.925-1.318-4.459-3.882-4.459a8.077,8.077,0,0,0-4.225,1.336l.957,1.751a5.712,5.712,0,0,1,2.78-.957c1.246,0,1.679.758,1.733,1.751C-52.9-7.6-54.652-6.464-54.652-4.3A2.872,2.872,0,0,0-51.655-1.3Zm.867-2.076c-.776,0-1.336-.343-1.336-1.137,0-.9.83-1.589,3.3-1.9v2.04A2.747,2.747,0,0,1-50.788-3.376Zm9.3,2.076c2.636,0,4.026-1.426,4.026-3.2,0-1.878-1.48-2.546-2.816-3.051-1.065-.4-2-.668-2-1.408,0-.578.433-.975,1.354-.975a3.764,3.764,0,0,1,2.166.867l1.192-1.607A5.6,5.6,0,0,0-41-11.916c-2.311,0-3.773,1.282-3.773,3.087,0,1.7,1.426,2.473,2.708,2.961,1.065.415,2.112.758,2.112,1.517,0,.632-.451,1.065-1.462,1.065a4.389,4.389,0,0,1-2.708-1.1l-1.21,1.661A6.413,6.413,0,0,0-41.49-1.3Zm6.03,3.809c2.257,0,3.34-1.372,4.225-3.755l3.593-10.417h-2.546l-1.39,4.694c-.235.939-.487,1.914-.722,2.853h-.09c-.289-.975-.542-1.95-.849-2.853l-1.607-4.694h-2.672l3.936,9.93-.181.6A1.935,1.935,0,0,1-35.659.4a2.719,2.719,0,0,1-.7-.126l-.487,2.04A4.281,4.281,0,0,0-35.46,2.509Zm11.771-.181h2.654V-.741l-.09-1.661a3.758,3.758,0,0,0,2.509,1.1c2.221,0,4.3-2,4.3-5.47,0-3.105-1.48-5.145-3.972-5.145a4.8,4.8,0,0,0-2.979,1.3h-.054l-.2-1.047h-2.166Zm4.477-5.813a2.754,2.754,0,0,1-1.823-.758V-8.684a2.785,2.785,0,0,1,1.986-1.047c1.39,0,2,1.065,2,3C-17.045-4.532-17.984-3.485-19.212-3.485Zm6.247,1.932h2.654v-6.03C-9.752-9.045-8.795-9.569-8-9.569a3.377,3.377,0,0,1,1.065.162l.451-2.293a2.86,2.86,0,0,0-1.192-.217,3.5,3.5,0,0,0-2.871,2.04H-10.6l-.2-1.787h-2.166ZM-1.988-1.3c2.528,0,4.857-1.95,4.857-5.308S.539-11.916-1.988-11.916s-4.857,1.95-4.857,5.308S-4.516-1.3-1.988-1.3Zm0-2.166c-1.372,0-2.148-1.228-2.148-3.141,0-1.9.776-3.141,2.148-3.141S.16-8.5.16-6.608C.16-4.694-.616-3.467-1.988-3.467ZM9.259-1.3c2.221,0,4.3-2,4.3-5.488,0-3.087-1.5-5.127-3.99-5.127a4.314,4.314,0,0,0-2.8,1.21l.072-1.625V-15.96H4.186V-1.553H6.262L6.5-2.618h.072A3.863,3.863,0,0,0,9.259-1.3Zm-.6-2.185A2.754,2.754,0,0,1,6.84-4.243V-8.684A2.785,2.785,0,0,1,8.826-9.731c1.39,0,2,1.065,2,3C10.83-4.532,9.891-3.485,8.663-3.485ZM17.4-1.3a3.543,3.543,0,0,0,1.372-.235L18.449-3.5a1.5,1.5,0,0,1-.361.036c-.253,0-.524-.2-.524-.812V-15.96H14.91V-4.387C14.91-2.51,15.56-1.3,17.4-1.3Zm6.7,0A6.365,6.365,0,0,0,27.62-2.42l-.9-1.625a4.167,4.167,0,0,1-2.275.7,2.656,2.656,0,0,1-2.8-2.528h6.229A4.99,4.99,0,0,0,28-7.1c0-2.78-1.444-4.82-4.225-4.82-2.4,0-4.712,2.04-4.712,5.308C19.062-3.268,21.265-1.3,24.1-1.3ZM21.608-7.637a2.275,2.275,0,0,1,2.2-2.221c1.3,0,1.914.867,1.914,2.221Zm7.673,6.084h2.654V-8.5a2.882,2.882,0,0,1,1.932-1.137c.957,0,1.426.542,1.426,2.112v5.976h2.636V-8.5a2.95,2.95,0,0,1,1.95-1.137c.957,0,1.408.542,1.408,2.112v5.976h2.654v-6.3c0-2.546-.993-4.062-3.141-4.062a4.484,4.484,0,0,0-3.214,1.769,2.752,2.752,0,0,0-2.78-1.769A4.257,4.257,0,0,0,31.7-10.309h-.054l-.2-1.354H29.281Zm19.39.253c2.636,0,4.026-1.426,4.026-3.2,0-1.878-1.48-2.546-2.816-3.051-1.065-.4-2-.668-2-1.408,0-.578.433-.975,1.354-.975a3.764,3.764,0,0,1,2.166.867l1.192-1.607a5.6,5.6,0,0,0-3.43-1.246c-2.311,0-3.773,1.282-3.773,3.087,0,1.7,1.426,2.473,2.708,2.961,1.065.415,2.112.758,2.112,1.517,0,.632-.451,1.065-1.462,1.065a4.389,4.389,0,0,1-2.708-1.1l-1.21,1.661A6.413,6.413,0,0,0,48.671-1.3Z" transform="translate(88.885 30.901)" fill="#fff"/>
    </g>
    <g id="그룹_14580" data-name="그룹 14580" transform="translate(-359.149 1222.499)">
      <path id="사각형_8815-3" data-name="사각형 8815" d="M22.5,0H159a0,0,0,0,1,0,0V22.5A22.5,22.5,0,0,1,136.5,45H22.5A22.5,22.5,0,0,1,0,22.5v0A22.5,22.5,0,0,1,22.5,0Z" transform="translate(-0.159 0.136)" fill="#00dcff"/>
      <path id="패스_12304" data-name="패스 12304" d="M-69.865-1.326c3.087,0,4.911-1.86,4.911-4.044A3.691,3.691,0,0,0-67.645-9l-1.751-.74c-1.137-.451-2.076-.794-2.076-1.751,0-.885.74-1.408,1.914-1.408a4.262,4.262,0,0,1,2.834,1.1l1.354-1.679a5.929,5.929,0,0,0-4.189-1.715c-2.708,0-4.622,1.679-4.622,3.864a3.87,3.87,0,0,0,2.708,3.593l1.787.758c1.192.506,2,.812,2,1.805,0,.939-.74,1.535-2.13,1.535a5.256,5.256,0,0,1-3.394-1.48L-74.74-3.275A7.119,7.119,0,0,0-69.865-1.326Zm5.976-.253h2.654v-10.11H-63.89Zm1.336-11.735a1.422,1.422,0,0,0,1.535-1.462,1.418,1.418,0,0,0-1.535-1.444,1.424,1.424,0,0,0-1.553,1.444A1.428,1.428,0,0,0-62.554-13.313Zm3.069,11.735h2.654V-8.529A2.882,2.882,0,0,1-54.9-9.666c.957,0,1.426.542,1.426,2.112v5.976h2.636V-8.529a2.95,2.95,0,0,1,1.95-1.137c.957,0,1.408.542,1.408,2.112v5.976h2.654v-6.3c0-2.546-.993-4.062-3.141-4.062a4.484,4.484,0,0,0-3.214,1.769,2.752,2.752,0,0,0-2.78-1.769,4.257,4.257,0,0,0-3.105,1.607h-.054l-.2-1.354h-2.166Zm16.321,0h2.654v-10.11h-2.654Zm1.336-11.735a1.422,1.422,0,0,0,1.535-1.462,1.418,1.418,0,0,0-1.535-1.444,1.424,1.424,0,0,0-1.553,1.444A1.428,1.428,0,0,0-41.828-13.313Zm5.561,11.988A3.543,3.543,0,0,0-34.9-1.56l-.325-1.968a1.5,1.5,0,0,1-.361.036c-.253,0-.524-.2-.524-.812V-15.985h-2.654V-4.413C-38.759-2.535-38.109-1.326-36.267-1.326Zm4.6,0a4.754,4.754,0,0,0,3.051-1.336h.072l.181,1.083h2.166v-5.9c0-2.925-1.318-4.459-3.882-4.459A8.077,8.077,0,0,0-34.3-10.605l.957,1.751a5.712,5.712,0,0,1,2.78-.957c1.246,0,1.679.758,1.733,1.751-4.08.433-5.831,1.571-5.831,3.737A2.872,2.872,0,0,0-31.663-1.326ZM-30.8-3.4c-.776,0-1.336-.343-1.336-1.137,0-.9.83-1.589,3.3-1.9v2.04A2.747,2.747,0,0,1-30.8-3.4Zm6.229,1.823h2.654v-6.03c.56-1.462,1.517-1.986,2.311-1.986a3.377,3.377,0,0,1,1.065.162l.451-2.293a2.86,2.86,0,0,0-1.192-.217A3.5,3.5,0,0,0-22.149-9.9H-22.2l-.2-1.787h-2.166Zm9.8,3.882h2.654V-.766l-.09-1.661a3.758,3.758,0,0,0,2.509,1.1c2.221,0,4.3-2,4.3-5.47,0-3.105-1.48-5.145-3.972-5.145a4.8,4.8,0,0,0-2.979,1.3H-12.4l-.2-1.047h-2.166Zm4.477-5.813a2.754,2.754,0,0,1-1.823-.758V-8.71a2.785,2.785,0,0,1,1.986-1.047c1.39,0,2,1.065,2,3C-8.121-4.557-9.06-3.51-10.288-3.51Zm6.066,1.932h2.654v-6.03C-1.008-9.071-.051-9.594.743-9.594a3.377,3.377,0,0,1,1.065.162l.451-2.293a2.86,2.86,0,0,0-1.192-.217A3.5,3.5,0,0,0-1.8-9.9h-.054l-.2-1.787H-4.221Zm10.8.253c2.528,0,4.857-1.95,4.857-5.308S9.1-11.941,6.575-11.941,1.718-9.991,1.718-6.633,4.047-1.326,6.575-1.326Zm0-2.166C5.2-3.492,4.426-4.72,4.426-6.633c0-1.9.776-3.141,2.148-3.141S8.723-8.529,8.723-6.633C8.723-4.72,7.947-3.492,6.575-3.492ZM17.642-1.326c2.221,0,4.3-2,4.3-5.488,0-3.087-1.5-5.127-3.99-5.127a4.314,4.314,0,0,0-2.8,1.21l.072-1.625v-3.629H12.569V-1.578h2.076l.235-1.065h.072A3.863,3.863,0,0,0,17.642-1.326Zm-.6-2.185a2.754,2.754,0,0,1-1.823-.758V-8.71a2.785,2.785,0,0,1,1.986-1.047c1.39,0,2,1.065,2,3C19.213-4.557,18.274-3.51,17.046-3.51ZM25.6-1.326a3.543,3.543,0,0,0,1.372-.235l-.325-1.968a1.5,1.5,0,0,1-.361.036c-.253,0-.524-.2-.524-.812V-15.985H23.112V-4.413C23.112-2.535,23.762-1.326,25.6-1.326Zm6.517,0a6.365,6.365,0,0,0,3.521-1.119l-.9-1.625a4.167,4.167,0,0,1-2.275.7,2.656,2.656,0,0,1-2.8-2.528h6.229a4.99,4.99,0,0,0,.126-1.228c0-2.78-1.444-4.82-4.225-4.82-2.4,0-4.712,2.04-4.712,5.308C27.084-3.293,29.287-1.326,32.121-1.326ZM29.63-7.662a2.275,2.275,0,0,1,2.2-2.221c1.3,0,1.914.867,1.914,2.221Zm7.492,6.084h2.654V-8.529a2.881,2.881,0,0,1,1.932-1.137c.957,0,1.426.542,1.426,2.112v5.976H45.77V-8.529a2.95,2.95,0,0,1,1.95-1.137c.957,0,1.408.542,1.408,2.112v5.976h2.654v-6.3c0-2.546-.993-4.062-3.141-4.062a4.484,4.484,0,0,0-3.214,1.769,2.752,2.752,0,0,0-2.78-1.769,4.257,4.257,0,0,0-3.105,1.607h-.054l-.2-1.354H37.122Zm19.209.253c2.636,0,4.026-1.426,4.026-3.2,0-1.878-1.48-2.546-2.816-3.051-1.065-.4-2-.668-2-1.408,0-.578.433-.975,1.354-.975a3.764,3.764,0,0,1,2.166.867L60.249-10.7a5.6,5.6,0,0,0-3.43-1.246c-2.311,0-3.773,1.282-3.773,3.087,0,1.7,1.426,2.473,2.708,2.961,1.065.415,2.112.758,2.112,1.517,0,.632-.451,1.065-1.462,1.065a4.389,4.389,0,0,1-2.708-1.1l-1.21,1.661A6.413,6.413,0,0,0,56.331-1.326Z" transform="translate(89.014 30.158)" fill="#fff"/>
    </g>
    <g id="그룹_14581" data-name="그룹 14581" transform="translate(-359.149 1276.43)">
      <path id="사각형_8815-4" data-name="사각형 8815" d="M22.5,0H159a0,0,0,0,1,0,0V22.5A22.5,22.5,0,0,1,136.5,45H22.5A22.5,22.5,0,0,1,0,22.5v0A22.5,22.5,0,0,1,22.5,0Z" transform="translate(-0.159 0.204)" fill="#00b996"/>
      <path id="패스_12305" data-name="패스 12305" d="M-31.35-1.578h2.672V-6.633h1.86l2.744,5.055H-21.1l-3.123-5.47a3.824,3.824,0,0,0,2.546-3.845c0-3.069-2.221-4.062-5.019-4.062H-31.35Zm2.672-7.167v-4.08h1.733c1.715,0,2.672.487,2.672,1.932,0,1.426-.957,2.148-2.672,2.148Zm12.71,7.42a6.365,6.365,0,0,0,3.521-1.119l-.9-1.625a4.167,4.167,0,0,1-2.275.7,2.656,2.656,0,0,1-2.8-2.528h6.229a4.99,4.99,0,0,0,.126-1.228c0-2.78-1.444-4.82-4.225-4.82-2.4,0-4.712,2.04-4.712,5.308C-21.005-3.293-18.8-1.326-15.968-1.326ZM-18.46-7.662a2.275,2.275,0,0,1,2.2-2.221c1.3,0,1.914.867,1.914,2.221Zm9.875,6.084h3.069l3.376-10.11H-4.684l-1.48,5.037c-.271.993-.542,2.04-.812,3.069h-.09c-.271-1.029-.542-2.076-.812-3.069l-1.48-5.037h-2.672Zm7.222,0H1.291v-10.11H-1.362ZM-.026-13.313a1.422,1.422,0,0,0,1.535-1.462A1.418,1.418,0,0,0-.026-16.22a1.424,1.424,0,0,0-1.553,1.444A1.428,1.428,0,0,0-.026-13.313ZM7.628-1.326a6.365,6.365,0,0,0,3.521-1.119l-.9-1.625a4.167,4.167,0,0,1-2.275.7,2.656,2.656,0,0,1-2.8-2.528H11.4a4.989,4.989,0,0,0,.126-1.228c0-2.78-1.444-4.82-4.225-4.82-2.4,0-4.712,2.04-4.712,5.308C2.591-3.293,4.794-1.326,7.628-1.326ZM5.137-7.662a2.275,2.275,0,0,1,2.2-2.221c1.3,0,1.914.867,1.914,2.221Zm9.28,6.084H17.45l1.029-4.405c.217-.939.361-1.878.56-2.943h.09c.2,1.065.361,1.986.578,2.943l1.065,4.405h3.123l2.491-10.11H23.931l-1.1,4.983c-.181.993-.325,1.95-.506,2.961h-.09c-.217-1.011-.4-1.968-.632-2.961l-1.264-4.983H17.991L16.764-6.706c-.253.975-.433,1.95-.632,2.961H16.06c-.181-1.011-.307-1.968-.506-2.961l-1.1-4.983H11.8Z" transform="translate(87.5 30.388)" fill="#fff"/>
    </g>
    <path id="패스_12301" data-name="패스 12301" d="M-63.181-1.42h2.876l3.672-12.04H-59.07l-1.56,5.866C-61-6.263-61.264-5.06-61.654-3.711h-.081c-.374-1.349-.634-2.551-1.007-3.883l-1.592-5.866h-2.519Zm8.579.227a4.279,4.279,0,0,0,2.746-1.2h.065l.162.975h1.95V-6.734c0-2.632-1.186-4.013-3.493-4.013a7.269,7.269,0,0,0-3.8,1.2l.861,1.576a5.141,5.141,0,0,1,2.5-.861c1.121,0,1.511.682,1.56,1.576C-55.723-6.864-57.3-5.84-57.3-3.89A2.585,2.585,0,0,0-54.6-1.193Zm.78-1.869c-.7,0-1.2-.309-1.2-1.024,0-.812.747-1.43,2.973-1.706v1.836A2.473,2.473,0,0,1-53.822-3.062Zm5.768,1.641h2.389V-6.847c.5-1.316,1.365-1.787,2.08-1.787a3.04,3.04,0,0,1,.959.146l.406-2.064a2.574,2.574,0,0,0-1.072-.195,3.152,3.152,0,0,0-2.584,1.836h-.049L-46.1-10.52h-1.95Zm6.272,0h2.389v-9.1h-2.389Zm1.2-10.562A1.28,1.28,0,0,0-39.2-13.3a1.277,1.277,0,0,0-1.381-1.3,1.282,1.282,0,0,0-1.4,1.3A1.285,1.285,0,0,0-40.58-11.982Zm6.727,10.789A4.439,4.439,0,0,0-29.482-5.97a4.439,4.439,0,0,0-4.371-4.777A4.439,4.439,0,0,0-38.224-5.97,4.439,4.439,0,0,0-33.853-1.193Zm0-1.95c-1.235,0-1.934-1.1-1.934-2.827,0-1.706.7-2.827,1.934-2.827s1.934,1.121,1.934,2.827C-31.919-4.248-32.618-3.143-33.853-3.143Zm8.27,1.95A3.651,3.651,0,0,0-22.69-2.72h.065l.179,1.3h1.95v-9.1h-2.389v6.142A2.193,2.193,0,0,1-24.737-3.24c-.877,0-1.267-.5-1.267-1.9V-10.52h-2.389v5.687C-28.393-2.558-27.548-1.193-25.582-1.193Zm9.424,0c2.372,0,3.623-1.284,3.623-2.876,0-1.69-1.332-2.291-2.535-2.746-.959-.357-1.8-.6-1.8-1.267,0-.52.39-.877,1.219-.877a3.387,3.387,0,0,1,1.95.78l1.072-1.446a5.043,5.043,0,0,0-3.087-1.121c-2.08,0-3.4,1.154-3.4,2.778,0,1.527,1.284,2.226,2.437,2.665.959.374,1.9.682,1.9,1.365,0,.569-.406.959-1.316.959a3.95,3.95,0,0,1-2.437-.991l-1.089,1.495A5.772,5.772,0,0,0-16.158-1.193Zm9.749,0A3.189,3.189,0,0,0-5.174-1.4l-.292-1.771a1.346,1.346,0,0,1-.325.032c-.227,0-.471-.179-.471-.731V-14.387H-8.651V-3.971C-8.651-2.282-8.066-1.193-6.409-1.193Zm6.028,0A5.728,5.728,0,0,0,2.788-2.2L1.975-3.663a3.75,3.75,0,0,1-2.047.634A2.391,2.391,0,0,1-2.591-5.3H3.015a4.491,4.491,0,0,0,.114-1.1c0-2.5-1.3-4.338-3.8-4.338A4.459,4.459,0,0,0-4.914-5.97,4.418,4.418,0,0,0-.381-1.193ZM-2.623-6.9a2.048,2.048,0,0,1,1.982-2c1.17,0,1.722.78,1.722,2Zm8.92,5.7A4.279,4.279,0,0,0,9.043-2.4h.065l.162.975h1.95V-6.734c0-2.632-1.186-4.013-3.493-4.013a7.269,7.269,0,0,0-3.8,1.2l.861,1.576a5.141,5.141,0,0,1,2.5-.861c1.121,0,1.511.682,1.56,1.576C5.176-6.864,3.6-5.84,3.6-3.89A2.585,2.585,0,0,0,6.3-1.193Zm.78-1.869c-.7,0-1.2-.309-1.2-1.024,0-.812.747-1.43,2.973-1.706v1.836A2.473,2.473,0,0,1,7.077-3.062ZM12.846-1.42h2.389V-6.847c.5-1.316,1.365-1.787,2.08-1.787a3.04,3.04,0,0,1,.959.146l.406-2.064a2.574,2.574,0,0,0-1.072-.195,3.152,3.152,0,0,0-2.584,1.836h-.049L14.8-10.52h-1.95Zm6.272,0h2.389V-7.676A2.557,2.557,0,0,1,23.391-8.7c.894,0,1.284.487,1.284,1.9V-1.42h2.389V-7.091c0-2.291-.845-3.656-2.811-3.656a4.194,4.194,0,0,0-2.957,1.43h-.049l-.179-1.2h-1.95Zm9.6,0h2.389v-9.1H28.72Zm1.2-10.562A1.28,1.28,0,0,0,31.3-13.3a1.277,1.277,0,0,0-1.381-1.3,1.282,1.282,0,0,0-1.4,1.3A1.285,1.285,0,0,0,29.923-11.982ZM32.847-1.42h2.389V-7.676A2.557,2.557,0,0,1,37.121-8.7c.894,0,1.284.487,1.284,1.9V-1.42h2.389V-7.091c0-2.291-.845-3.656-2.811-3.656a4.194,4.194,0,0,0-2.957,1.43h-.049l-.179-1.2h-1.95Zm12.8,3.948c3.038,0,4.956-1.4,4.956-3.233,0-1.592-1.2-2.275-3.4-2.275H45.668c-1.072,0-1.43-.26-1.43-.747a.926.926,0,0,1,.39-.78A3.875,3.875,0,0,0,45.8-4.3c1.95,0,3.51-1.04,3.51-3.087A2.4,2.4,0,0,0,48.9-8.765h1.544V-10.52H47.162a4.28,4.28,0,0,0-1.365-.227c-1.934,0-3.672,1.154-3.672,3.282a2.981,2.981,0,0,0,1.219,2.389v.065A2.231,2.231,0,0,0,42.32-3.305a1.725,1.725,0,0,0,.829,1.527V-1.7a2.209,2.209,0,0,0-1.3,1.885C41.849,1.8,43.506,2.528,45.651,2.528Zm.146-8.3c-.8,0-1.43-.6-1.43-1.69A1.462,1.462,0,0,1,45.8-9.122a1.462,1.462,0,0,1,1.43,1.657C47.227-6.376,46.594-5.775,45.8-5.775Zm.211,6.792c-1.316,0-2.161-.439-2.161-1.2a1.343,1.343,0,0,1,.585-1.056,5.136,5.136,0,0,0,1.267.13h1.1c.975,0,1.511.162,1.511.812C48.316.416,47.374,1.017,46.009,1.017ZM-81.729,22.05h2.389V15.794A2.593,2.593,0,0,1-77.6,14.77c.861,0,1.284.487,1.284,1.9V22.05h2.372V15.794a2.655,2.655,0,0,1,1.755-1.024c.861,0,1.267.487,1.267,1.9V22.05h2.389V16.379c0-2.291-.894-3.656-2.827-3.656a4.035,4.035,0,0,0-2.892,1.592,2.477,2.477,0,0,0-2.5-1.592,3.831,3.831,0,0,0-2.795,1.446H-79.6l-.179-1.219h-1.95Zm18.816.227a5.728,5.728,0,0,0,3.168-1.007l-.812-1.462a3.75,3.75,0,0,1-2.047.634,2.391,2.391,0,0,1-2.519-2.275h5.606a4.491,4.491,0,0,0,.114-1.1c0-2.5-1.3-4.338-3.8-4.338A4.459,4.459,0,0,0-67.447,17.5,4.418,4.418,0,0,0-62.913,22.277Zm-2.242-5.7a2.048,2.048,0,0,1,1.982-2c1.17,0,1.722.78,1.722,2Zm10.042,5.7a5.88,5.88,0,0,0,1.917-.341l-.39-1.739a2.659,2.659,0,0,1-.894.195c-.812,0-1.235-.487-1.235-1.527v-4.03h2.242V12.95h-2.242V10.5H-57.7l-.276,2.454-1.414.114v1.771H-58.1v4.03C-58.1,20.9-57.275,22.277-55.114,22.277Zm2.681-.227h2.389V15.794A2.557,2.557,0,0,1-48.16,14.77c.894,0,1.284.487,1.284,1.9V22.05h2.389V16.379c0-2.291-.845-3.656-2.811-3.656a4.141,4.141,0,0,0-2.86,1.332l.114-1.706V9.083h-2.389Zm13.389.227A4.439,4.439,0,0,0-34.673,17.5a4.439,4.439,0,0,0-4.371-4.777A4.439,4.439,0,0,0-43.415,17.5,4.439,4.439,0,0,0-39.044,22.277Zm0-1.95c-1.235,0-1.934-1.1-1.934-2.827,0-1.706.7-2.827,1.934-2.827s1.934,1.121,1.934,2.827C-37.111,19.222-37.809,20.327-39.044,20.327Zm8.758,1.95a3.774,3.774,0,0,0,2.519-1.17h.065l.179.942h1.934V9.083h-2.372v3.2l.081,1.43a3.132,3.132,0,0,0-2.307-.991c-1.966,0-3.818,1.82-3.818,4.777C-34.007,20.49-32.545,22.277-30.286,22.277Zm.617-1.966c-1.2,0-1.885-.942-1.885-2.827,0-1.82.861-2.795,1.885-2.795a2.454,2.454,0,0,1,1.706.682v4A2.07,2.07,0,0,1-29.669,20.311Zm8.433,1.966c2.372,0,3.623-1.284,3.623-2.876,0-1.69-1.332-2.291-2.535-2.746-.959-.357-1.8-.6-1.8-1.267,0-.52.39-.877,1.219-.877a3.387,3.387,0,0,1,1.95.78l1.072-1.446A5.043,5.043,0,0,0-20.8,12.723c-2.08,0-3.4,1.154-3.4,2.778,0,1.527,1.284,2.226,2.437,2.665.959.374,1.9.682,1.9,1.365,0,.569-.406.959-1.316.959a3.95,3.95,0,0,1-2.437-.991L-24.7,20.993A5.772,5.772,0,0,0-21.236,22.277Zm10.708,0a3.774,3.774,0,0,0,2.519-1.17h.065l.179.942h1.934V9.083H-8.2v3.2l.081,1.43a3.132,3.132,0,0,0-2.307-.991c-1.966,0-3.818,1.82-3.818,4.777C-14.249,20.49-12.787,22.277-10.528,22.277Zm.617-1.966c-1.2,0-1.885-.942-1.885-2.827,0-1.82.861-2.795,1.885-2.795a2.454,2.454,0,0,1,1.706.682v4A2.07,2.07,0,0,1-9.911,20.311Zm9.8,1.966A5.728,5.728,0,0,0,3.056,21.27l-.812-1.462A3.75,3.75,0,0,1,.2,20.441a2.391,2.391,0,0,1-2.519-2.275H3.283a4.491,4.491,0,0,0,.114-1.1c0-2.5-1.3-4.338-3.8-4.338A4.459,4.459,0,0,0-4.646,17.5,4.418,4.418,0,0,0-.113,22.277Zm-2.242-5.7a2.048,2.048,0,0,1,1.982-2c1.17,0,1.722.78,1.722,2Zm6.906,8.969H6.939V22.781l-.081-1.495a3.382,3.382,0,0,0,2.259.991c2,0,3.867-1.8,3.867-4.923,0-2.795-1.332-4.631-3.575-4.631a4.32,4.32,0,0,0-2.681,1.17H6.679L6.5,12.95H4.551Zm4.03-5.232a2.479,2.479,0,0,1-1.641-.682v-4a2.506,2.506,0,0,1,1.787-.942c1.251,0,1.8.959,1.8,2.7C10.53,19.369,9.685,20.311,8.58,20.311Zm9.587,1.966a5.728,5.728,0,0,0,3.168-1.007l-.812-1.462a3.75,3.75,0,0,1-2.047.634,2.391,2.391,0,0,1-2.519-2.275h5.606a4.491,4.491,0,0,0,.114-1.1c0-2.5-1.3-4.338-3.8-4.338A4.459,4.459,0,0,0,13.634,17.5,4.418,4.418,0,0,0,18.167,22.277Zm-2.242-5.7a2.048,2.048,0,0,1,1.982-2c1.17,0,1.722.78,1.722,2ZM22.83,22.05h2.389V15.794A2.557,2.557,0,0,1,27.1,14.77c.894,0,1.284.487,1.284,1.9V22.05h2.389V16.379c0-2.291-.845-3.656-2.811-3.656a4.194,4.194,0,0,0-2.957,1.43h-.049l-.179-1.2H22.83Zm12.8.227a3.774,3.774,0,0,0,2.519-1.17h.065l.179.942H40.33V9.083H37.958v3.2l.081,1.43a3.132,3.132,0,0,0-2.307-.991c-1.966,0-3.818,1.82-3.818,4.777C31.913,20.49,33.376,22.277,35.634,22.277Zm.617-1.966c-1.2,0-1.885-.942-1.885-2.827,0-1.82.861-2.795,1.885-2.795a2.454,2.454,0,0,1,1.706.682v4A2.07,2.07,0,0,1,36.251,20.311Zm5.833,1.739h2.389v-9.1H42.085Zm1.2-10.562a1.311,1.311,0,1,0-1.4-1.316A1.28,1.28,0,0,0,43.287,11.488ZM46.212,22.05H48.6V15.794a2.557,2.557,0,0,1,1.885-1.024c.894,0,1.284.487,1.284,1.9V22.05h2.389V16.379c0-2.291-.845-3.656-2.811-3.656a4.194,4.194,0,0,0-2.957,1.43H48.34l-.179-1.2h-1.95ZM59.016,26c3.038,0,4.956-1.4,4.956-3.233,0-1.592-1.2-2.275-3.4-2.275H59.032c-1.072,0-1.43-.26-1.43-.747a.926.926,0,0,1,.39-.78,3.875,3.875,0,0,0,1.17.211c1.95,0,3.51-1.04,3.51-3.087a2.4,2.4,0,0,0-.406-1.381h1.544V12.95H60.527a4.28,4.28,0,0,0-1.365-.227c-1.934,0-3.672,1.154-3.672,3.282a2.981,2.981,0,0,0,1.219,2.389v.065a2.231,2.231,0,0,0-1.024,1.706,1.725,1.725,0,0,0,.829,1.527v.081a2.209,2.209,0,0,0-1.3,1.885C55.214,25.267,56.871,26,59.016,26Zm.146-8.3c-.8,0-1.43-.6-1.43-1.69a1.445,1.445,0,1,1,2.86,0C60.592,17.094,59.958,17.7,59.162,17.7Zm.211,6.792c-1.316,0-2.161-.439-2.161-1.2a1.343,1.343,0,0,1,.585-1.056,5.135,5.135,0,0,0,1.267.13h1.1c.975,0,1.511.162,1.511.812C61.68,23.886,60.738,24.487,59.373,24.487Zm-111.6,21.26a4.439,4.439,0,0,0,4.371-4.777,4.439,4.439,0,0,0-4.371-4.777A4.439,4.439,0,0,0-56.6,40.97,4.439,4.439,0,0,0-52.23,45.747Zm0-1.95c-1.235,0-1.934-1.1-1.934-2.827,0-1.706.7-2.827,1.934-2.827S-50.3,39.264-50.3,40.97C-50.3,42.692-50.995,43.8-52.23,43.8Zm5.557,1.722h2.389V39.264A2.557,2.557,0,0,1-42.4,38.24c.894,0,1.284.487,1.284,1.9V45.52h2.389V39.849c0-2.291-.845-3.656-2.811-3.656a4.194,4.194,0,0,0-2.957,1.43h-.049l-.179-1.2h-1.95Zm15.81.227a5.88,5.88,0,0,0,1.917-.341l-.39-1.739a2.659,2.659,0,0,1-.894.195c-.812,0-1.235-.487-1.235-1.527v-4.03h2.242V36.421h-2.242V33.967h-1.982l-.276,2.454-1.414.114v1.771h1.284v4.03C-33.853,44.366-33.024,45.747-30.863,45.747Zm2.681-.227h2.389V39.264a2.557,2.557,0,0,1,1.885-1.024c.894,0,1.284.487,1.284,1.9V45.52h2.389V39.849c0-2.291-.845-3.656-2.811-3.656a4.141,4.141,0,0,0-2.86,1.332l.114-1.706V32.553h-2.389Zm13.551.227a5.728,5.728,0,0,0,3.168-1.007l-.812-1.462a3.75,3.75,0,0,1-2.047.634,2.391,2.391,0,0,1-2.519-2.275h5.606a4.491,4.491,0,0,0,.114-1.1c0-2.5-1.3-4.338-3.8-4.338a4.459,4.459,0,0,0-4.241,4.777A4.418,4.418,0,0,0-14.631,45.747Zm-2.242-5.7a2.048,2.048,0,0,1,1.982-2c1.17,0,1.722.78,1.722,2Zm13.649,5.7a4.586,4.586,0,0,0,2.99-1.1l-.959-1.576a2.826,2.826,0,0,1-1.771.731c-1.3,0-2.259-1.1-2.259-2.827,0-1.706.942-2.827,2.34-2.827a2.071,2.071,0,0,1,1.381.6L-.365,37.2a3.978,3.978,0,0,0-2.649-1.007A4.539,4.539,0,0,0-7.66,40.97C-7.66,43.992-5.743,45.747-3.224,45.747Zm5.931,0a4.279,4.279,0,0,0,2.746-1.2h.065l.162.975H7.63V40.206c0-2.632-1.186-4.013-3.493-4.013a7.269,7.269,0,0,0-3.8,1.2L1.2,38.972a5.141,5.141,0,0,1,2.5-.861c1.121,0,1.511.682,1.56,1.576C1.585,40.076.009,41.1.009,43.05A2.585,2.585,0,0,0,2.706,45.747Zm.78-1.869c-.7,0-1.2-.309-1.2-1.024,0-.812.747-1.43,2.973-1.706v1.836A2.473,2.473,0,0,1,3.486,43.879Zm8.482,1.869A3.651,3.651,0,0,0,14.86,44.22h.065l.179,1.3h1.95v-9.1H14.665v6.142A2.193,2.193,0,0,1,12.813,43.7c-.877,0-1.267-.5-1.267-1.9V36.421H9.157v5.687C9.157,44.382,10,45.747,11.968,45.747Zm9.424,0c2.372,0,3.623-1.284,3.623-2.876,0-1.69-1.332-2.291-2.535-2.746-.959-.357-1.8-.6-1.8-1.267,0-.52.39-.877,1.219-.877a3.387,3.387,0,0,1,1.95.78l1.072-1.446a5.043,5.043,0,0,0-3.087-1.121c-2.08,0-3.4,1.154-3.4,2.778,0,1.527,1.284,2.226,2.437,2.665.959.374,1.9.682,1.9,1.365,0,.569-.406.959-1.316.959a3.95,3.95,0,0,1-2.437-.991l-1.089,1.495A5.772,5.772,0,0,0,21.392,45.747Zm8.6,0a5.728,5.728,0,0,0,3.168-1.007l-.812-1.462a3.75,3.75,0,0,1-2.047.634,2.391,2.391,0,0,1-2.519-2.275h5.606a4.491,4.491,0,0,0,.114-1.1c0-2.5-1.3-4.338-3.8-4.338a4.459,4.459,0,0,0-4.241,4.777A4.418,4.418,0,0,0,29.988,45.747Zm-2.242-5.7a2.048,2.048,0,0,1,1.982-2c1.17,0,1.722.78,1.722,2Zm9.505,5.7c2.372,0,3.623-1.284,3.623-2.876,0-1.69-1.332-2.291-2.535-2.746-.959-.357-1.8-.6-1.8-1.267,0-.52.39-.877,1.219-.877a3.387,3.387,0,0,1,1.95.78l1.072-1.446a5.043,5.043,0,0,0-3.087-1.121c-2.08,0-3.4,1.154-3.4,2.778,0,1.527,1.284,2.226,2.437,2.665.959.374,1.9.682,1.9,1.365,0,.569-.406.959-1.316.959a3.95,3.95,0,0,1-2.437-.991L33.79,44.464A5.772,5.772,0,0,0,37.251,45.747Z" transform="translate(-90.721 1221.807)" fill="#f05a46"/>
    <rect id="img_area-2" data-name="img_area" width="485" height="452" transform="translate(-476.308 889.635)" fill="#c4b2ff" opacity="0"/>
  </g>
</svg>
