<svg xmlns="http://www.w3.org/2000/svg" xmlns:xlink="http://www.w3.org/1999/xlink" width="303" height="198.567" viewBox="0 0 303 198.567"><defs><clipPath id="a"><rect width="303" height="64" fill="#ff5a5a" opacity="0"/></clipPath></defs><g transform="translate(-29 -172)"><path d="M0,0H157.524V10.708H0Z" transform="translate(67.778 320.662)" fill="#ffc823"/><path d="M-104.237,0h2.072V-3.682h1.386c2.226,0,4-1.064,4-3.43,0-2.45-1.764-3.262-4.06-3.262h-3.4Zm2.072-5.32v-3.4h1.176c1.428,0,2.184.406,2.184,1.61s-.686,1.792-2.114,1.792ZM-92.491.2A3.825,3.825,0,0,0-88.725-3.92a3.825,3.825,0,0,0-3.766-4.116A3.825,3.825,0,0,0-96.257-3.92,3.825,3.825,0,0,0-92.491.2Zm0-1.68c-1.064,0-1.666-.952-1.666-2.436s.6-2.436,1.666-2.436,1.666.966,1.666,2.436S-91.427-1.484-92.491-1.484ZM-86.163,0h2.352l.8-3.416c.168-.728.28-1.456.434-2.282h.07c.154.826.28,1.54.448,2.282L-81.235,0h2.422l1.932-7.84h-1.9l-.854,3.864c-.14.77-.252,1.512-.392,2.3h-.07c-.168-.784-.308-1.526-.49-2.3l-.98-3.864h-1.82l-.952,3.864c-.2.756-.336,1.512-.49,2.3h-.056c-.14-.784-.238-1.526-.392-2.3l-.854-3.864h-2.058Zm13.734.2A4.936,4.936,0,0,0-69.7-.672l-.7-1.26a3.231,3.231,0,0,1-1.764.546,2.06,2.06,0,0,1-2.17-1.96h4.83a3.869,3.869,0,0,0,.1-.952c0-2.156-1.12-3.738-3.276-3.738A3.842,3.842,0,0,0-76.335-3.92,3.806,3.806,0,0,0-72.429.2Zm-1.932-4.914A1.764,1.764,0,0,1-72.653-6.44c1.008,0,1.484.672,1.484,1.722ZM-68.061,0H-66V-4.676c.434-1.134,1.176-1.54,1.792-1.54a2.619,2.619,0,0,1,.826.126l.35-1.778a2.218,2.218,0,0,0-.924-.168,2.716,2.716,0,0,0-2.226,1.582h-.042l-.154-1.386h-1.68Zm6.1,0H-59.9V-6.216h1.47V-7.84H-59.9v-.672c0-.868.336-1.232.952-1.232a2.232,2.232,0,0,1,.826.168l.378-1.526a4.473,4.473,0,0,0-1.484-.266c-1.974,0-2.73,1.26-2.73,2.9v.644l-1.05.084v1.526h1.05Zm6.846.2A3.145,3.145,0,0,0-52.619-1.12h.056L-52.409,0h1.68V-7.84h-2.058v5.292a1.889,1.889,0,0,1-1.6.98c-.756,0-1.092-.434-1.092-1.638V-7.84h-2.058v4.9C-57.533-.98-56.805.2-55.111.2Zm8.162,0A2.748,2.748,0,0,0-45.885.014l-.252-1.526a1.16,1.16,0,0,1-.28.028c-.2,0-.406-.154-.406-.63v-9.058h-2.058V-2.2C-48.881-.742-48.377.2-46.949.2Zm7.378-5.6c.308-1.078.616-2.254.882-3.388h.07c.294,1.12.574,2.31.9,3.388l.308,1.134h-2.464ZM-43.155,0h2.1l.728-2.66h3.36L-36.239,0h2.17L-37.4-10.374h-2.436ZM-33.2,0h2.072V-10.374H-33.2Zm9.8.2A5.067,5.067,0,0,0-21.749-.1l-.336-1.5a2.291,2.291,0,0,1-.77.168c-.7,0-1.064-.42-1.064-1.316V-6.216h1.932V-7.84h-1.932V-9.954h-1.708l-.238,2.114-1.218.1v1.526h1.106v3.472C-25.977-.994-25.263.2-23.4.2Zm5.81,0a4.936,4.936,0,0,0,2.73-.868l-.7-1.26a3.231,3.231,0,0,1-1.764.546,2.06,2.06,0,0,1-2.17-1.96h4.83a3.869,3.869,0,0,0,.1-.952c0-2.156-1.12-3.738-3.276-3.738A3.842,3.842,0,0,0-21.5-3.92,3.806,3.806,0,0,0-17.591.2Zm-1.932-4.914A1.764,1.764,0,0,1-17.815-6.44c1.008,0,1.484.672,1.484,1.722ZM-9.891.2A3.951,3.951,0,0,0-7.315-.756l-.826-1.358a2.435,2.435,0,0,1-1.526.63c-1.12,0-1.946-.952-1.946-2.436S-10.8-6.356-9.6-6.356a1.784,1.784,0,0,1,1.19.518l.98-1.33a3.427,3.427,0,0,0-2.282-.868,3.911,3.911,0,0,0-4,4.116C-13.713-1.316-12.061.2-9.891.2ZM-6.2,0h2.058V-5.39a2.2,2.2,0,0,1,1.624-.882c.77,0,1.106.42,1.106,1.638V0H.651V-4.886c0-1.974-.728-3.15-2.422-3.15A3.568,3.568,0,0,0-4.235-6.888l.1-1.47v-2.814H-6.2Zm8.61,0H4.473V-5.39A2.2,2.2,0,0,1,6.1-6.272c.77,0,1.106.42,1.106,1.638V0H9.261V-4.886c0-1.974-.728-3.15-2.422-3.15A3.613,3.613,0,0,0,4.291-6.8H4.249L4.095-7.84H2.415Zm11.9.2A3.825,3.825,0,0,0,18.081-3.92a3.825,3.825,0,0,0-3.766-4.116A3.825,3.825,0,0,0,10.549-3.92,3.825,3.825,0,0,0,14.315.2Zm0-1.68c-1.064,0-1.666-.952-1.666-2.436s.6-2.436,1.666-2.436,1.666.966,1.666,2.436S15.379-1.484,14.315-1.484ZM21.385.2A2.748,2.748,0,0,0,22.449.014L22.2-1.512a1.16,1.16,0,0,1-.28.028c-.2,0-.406-.154-.406-.63v-9.058H19.453V-2.2C19.453-.742,19.957.2,21.385.2Zm5.4,0A3.825,3.825,0,0,0,30.555-3.92a3.825,3.825,0,0,0-3.766-4.116A3.825,3.825,0,0,0,23.023-3.92,3.825,3.825,0,0,0,26.789.2Zm0-1.68c-1.064,0-1.666-.952-1.666-2.436s.6-2.436,1.666-2.436,1.666.966,1.666,2.436S27.853-1.484,26.789-1.484Zm7.9,4.886c2.618,0,4.27-1.2,4.27-2.786,0-1.372-1.036-1.96-2.926-1.96H34.7c-.924,0-1.232-.224-1.232-.644A.8.8,0,0,1,33.8-2.66a3.339,3.339,0,0,0,1.008.182c1.68,0,3.024-.9,3.024-2.66a2.07,2.07,0,0,0-.35-1.19h1.33V-7.84H35.987a3.688,3.688,0,0,0-1.176-.2,2.887,2.887,0,0,0-3.164,2.828A2.568,2.568,0,0,0,32.7-3.15v.056a1.922,1.922,0,0,0-.882,1.47,1.486,1.486,0,0,0,.714,1.316v.07a1.9,1.9,0,0,0-1.12,1.624C31.409,2.772,32.837,3.4,34.685,3.4Zm.126-7.154c-.686,0-1.232-.518-1.232-1.456a1.259,1.259,0,0,1,1.232-1.428,1.259,1.259,0,0,1,1.232,1.428C36.043-4.27,35.5-3.752,34.811-3.752ZM34.993,2.1c-1.134,0-1.862-.378-1.862-1.036a1.157,1.157,0,0,1,.5-.91,4.425,4.425,0,0,0,1.092.112h.952c.84,0,1.3.14,1.3.7C36.981,1.582,36.169,2.1,34.993,2.1Zm5.74,1.05c1.75,0,2.59-1.064,3.276-2.912L46.795-7.84H44.821L43.743-4.2c-.182.728-.378,1.484-.56,2.212h-.07c-.224-.756-.42-1.512-.658-2.212L41.209-7.84H39.137l3.052,7.7-.14.462a1.5,1.5,0,0,1-1.47,1.19,2.108,2.108,0,0,1-.546-.1L39.655,3A3.32,3.32,0,0,0,40.733,3.15ZM51.863,0h2.352l.8-3.416c.168-.728.28-1.456.434-2.282h.07c.154.826.28,1.54.448,2.282L56.791,0h2.422l1.932-7.84h-1.9l-.854,3.864c-.14.77-.252,1.512-.392,2.3h-.07c-.168-.784-.308-1.526-.49-2.3l-.98-3.864h-1.82l-.952,3.864c-.2.756-.336,1.512-.49,2.3h-.056c-.14-.784-.238-1.526-.392-2.3L51.891-7.84H49.833Zm10.43,0h2.058V-7.84H62.293Zm1.036-9.1a1.1,1.1,0,0,0,1.19-1.134,1.1,1.1,0,0,0-1.19-1.12,1.1,1.1,0,0,0-1.2,1.12A1.107,1.107,0,0,0,63.329-9.1Zm4.8,9.3A2.748,2.748,0,0,0,69.195.014l-.252-1.526a1.16,1.16,0,0,1-.28.028c-.2,0-.406-.154-.406-.63v-9.058H66.2V-2.2C66.2-.742,66.7.2,68.131.2Zm4.06,0A2.748,2.748,0,0,0,73.255.014L73-1.512a1.16,1.16,0,0,1-.28.028c-.2,0-.406-.154-.406-.63v-9.058H70.259V-2.2C70.259-.742,70.763.2,72.191.2ZM77.147,0h2.058V-5.39a2.2,2.2,0,0,1,1.624-.882c.77,0,1.106.42,1.106,1.638V0h2.058V-4.886c0-1.974-.728-3.15-2.422-3.15a3.568,3.568,0,0,0-2.464,1.148l.1-1.47v-2.814H77.147ZM89.173.2A4.936,4.936,0,0,0,91.9-.672l-.7-1.26a3.231,3.231,0,0,1-1.764.546,2.06,2.06,0,0,1-2.17-1.96H92.1a3.869,3.869,0,0,0,.1-.952c0-2.156-1.12-3.738-3.276-3.738A3.842,3.842,0,0,0,85.267-3.92,3.806,3.806,0,0,0,89.173.2ZM87.241-4.718A1.764,1.764,0,0,1,88.949-6.44c1.008,0,1.484.672,1.484,1.722ZM95.473.2A2.748,2.748,0,0,0,96.537.014l-.252-1.526a1.16,1.16,0,0,1-.28.028c-.2,0-.406-.154-.406-.63v-9.058H93.541V-2.2C93.541-.742,94.045.2,95.473.2ZM97.6,3.01h2.058V.63l-.07-1.288A2.914,2.914,0,0,0,101.535.2c1.722,0,3.332-1.554,3.332-4.242,0-2.408-1.148-3.99-3.08-3.99a3.722,3.722,0,0,0-2.31,1.008h-.042l-.154-.812H97.6ZM101.073-1.5a2.136,2.136,0,0,1-1.414-.588V-5.53a2.159,2.159,0,0,1,1.54-.812c1.078,0,1.554.826,1.554,2.324C102.753-2.31,102.025-1.5,101.073-1.5ZM-115.283,25.15c1.75,0,2.59-1.064,3.276-2.912l2.786-8.078H-111.2l-1.078,3.64c-.182.728-.378,1.484-.56,2.212h-.07c-.224-.756-.42-1.512-.658-2.212l-1.246-3.64h-2.072l3.052,7.7-.14.462a1.5,1.5,0,0,1-1.47,1.19,2.108,2.108,0,0,1-.546-.1L-116.361,25A3.32,3.32,0,0,0-115.283,25.15Zm10.164-2.954a3.825,3.825,0,0,0,3.766-4.116,3.825,3.825,0,0,0-3.766-4.116,3.825,3.825,0,0,0-3.766,4.116A3.825,3.825,0,0,0-105.119,22.2Zm0-1.68c-1.064,0-1.666-.952-1.666-2.436s.6-2.436,1.666-2.436,1.666.966,1.666,2.436S-104.055,20.516-105.119,20.516Zm7.476,1.68a3.145,3.145,0,0,0,2.492-1.316h.056l.154,1.12h1.68V14.16h-2.058v5.292a1.889,1.889,0,0,1-1.6.98c-.756,0-1.092-.434-1.092-1.638V14.16h-2.058v4.9C-100.065,21.02-99.337,22.2-97.643,22.2Zm9.058-.2h2.058V17.324c.434-1.134,1.176-1.54,1.792-1.54a2.619,2.619,0,0,1,.826.126l.35-1.778a2.218,2.218,0,0,0-.924-.168,2.716,2.716,0,0,0-2.226,1.582h-.042L-86.9,14.16h-1.68Zm9,.2a4.936,4.936,0,0,0,2.73-.868l-.7-1.26a3.231,3.231,0,0,1-1.764.546,2.06,2.06,0,0,1-2.17-1.96h4.83a3.869,3.869,0,0,0,.1-.952c0-2.156-1.12-3.738-3.276-3.738a3.842,3.842,0,0,0-3.654,4.116A3.806,3.806,0,0,0-79.583,22.2Zm-1.932-4.914a1.764,1.764,0,0,1,1.708-1.722c1.008,0,1.484.672,1.484,1.722Zm9.058,4.914a3.252,3.252,0,0,0,2.17-1.008h.056l.154.812h1.666V10.828h-2.044v2.758l.07,1.232a2.7,2.7,0,0,0-1.988-.854c-1.694,0-3.29,1.568-3.29,4.116C-75.663,20.656-74.4,22.2-72.457,22.2Zm.532-1.694c-1.036,0-1.624-.812-1.624-2.436,0-1.568.742-2.408,1.624-2.408a2.114,2.114,0,0,1,1.47.588V19.69A1.784,1.784,0,0,1-71.925,20.5Zm7.714,1.694a3.145,3.145,0,0,0,2.492-1.316h.056l.154,1.12h1.68V14.16h-2.058v5.292a1.889,1.889,0,0,1-1.6.98c-.756,0-1.092-.434-1.092-1.638V14.16h-2.058v4.9C-66.633,21.02-65.9,22.2-64.211,22.2Zm9.562,0a3.951,3.951,0,0,0,2.576-.952l-.826-1.358a2.435,2.435,0,0,1-1.526.63c-1.12,0-1.946-.952-1.946-2.436s.812-2.436,2.016-2.436a1.784,1.784,0,0,1,1.19.518l.98-1.33a3.427,3.427,0,0,0-2.282-.868,3.911,3.911,0,0,0-4,4.116C-58.471,20.684-56.819,22.2-54.649,22.2Zm6.692,0a4.936,4.936,0,0,0,2.73-.868l-.7-1.26a3.231,3.231,0,0,1-1.764.546,2.06,2.06,0,0,1-2.17-1.96h4.83a3.869,3.869,0,0,0,.1-.952c0-2.156-1.12-3.738-3.276-3.738a3.842,3.842,0,0,0-3.654,4.116A3.806,3.806,0,0,0-47.957,22.2Zm-1.932-4.914a1.764,1.764,0,0,1,1.708-1.722c1.008,0,1.484.672,1.484,1.722ZM-38.521,22.2c2.044,0,3.122-1.106,3.122-2.478,0-1.456-1.148-1.974-2.184-2.366-.826-.308-1.554-.518-1.554-1.092,0-.448.336-.756,1.05-.756a2.918,2.918,0,0,1,1.68.672l.924-1.246a4.345,4.345,0,0,0-2.66-.966c-1.792,0-2.926.994-2.926,2.394,0,1.316,1.106,1.918,2.1,2.3.826.322,1.638.588,1.638,1.176,0,.49-.35.826-1.134.826a3.4,3.4,0,0,1-2.1-.854L-41.5,21.09A4.973,4.973,0,0,0-38.521,22.2Zm6.888,0a5.067,5.067,0,0,0,1.652-.294l-.336-1.5a2.291,2.291,0,0,1-.77.168c-.7,0-1.064-.42-1.064-1.316V15.784h1.932V14.16h-1.932V12.046h-1.708L-34.1,14.16l-1.218.1v1.526h1.106v3.472C-34.209,21.006-33.5,22.2-31.633,22.2Zm5,0a3.145,3.145,0,0,0,2.492-1.316h.056l.154,1.12h1.68V14.16h-2.058v5.292a1.889,1.889,0,0,1-1.6.98C-26.663,20.432-27,20-27,18.794V14.16h-2.058v4.9C-29.057,21.02-28.329,22.2-26.635,22.2Zm8.988,0a3.252,3.252,0,0,0,2.17-1.008h.056l.154.812H-13.6V10.828h-2.044v2.758l.07,1.232a2.7,2.7,0,0,0-1.988-.854c-1.694,0-3.29,1.568-3.29,4.116C-20.853,20.656-19.593,22.2-17.647,22.2Zm.532-1.694c-1.036,0-1.624-.812-1.624-2.436,0-1.568.742-2.408,1.624-2.408a2.114,2.114,0,0,1,1.47.588V19.69A1.784,1.784,0,0,1-17.115,20.5Zm6.062,4.648c1.75,0,2.59-1.064,3.276-2.912l2.786-8.078H-6.965L-8.043,17.8c-.182.728-.378,1.484-.56,2.212h-.07c-.224-.756-.42-1.512-.658-2.212l-1.246-3.64h-2.072l3.052,7.7-.14.462a1.5,1.5,0,0,1-1.47,1.19,2.108,2.108,0,0,1-.546-.1L-12.131,25A3.32,3.32,0,0,0-11.053,25.15ZM1.645,22.2A5.067,5.067,0,0,0,3.3,21.9l-.336-1.5a2.291,2.291,0,0,1-.77.168c-.7,0-1.064-.42-1.064-1.316V15.784H3.059V14.16H1.127V12.046H-.581L-.819,14.16l-1.218.1v1.526H-.931v3.472C-.931,21.006-.217,22.2,1.645,22.2ZM4.3,22H6.363V14.16H4.3Zm1.036-9.1a1.129,1.129,0,1,0,0-2.254,1.129,1.129,0,1,0,0,2.254ZM8.211,22h2.058V16.61a2.234,2.234,0,0,1,1.5-.882c.742,0,1.106.42,1.106,1.638V22h2.044V16.61a2.288,2.288,0,0,1,1.512-.882c.742,0,1.092.42,1.092,1.638V22h2.058V17.114c0-1.974-.77-3.15-2.436-3.15a3.477,3.477,0,0,0-2.492,1.372,2.134,2.134,0,0,0-2.156-1.372,3.3,3.3,0,0,0-2.408,1.246h-.042l-.154-1.05H8.211Zm16.562.2a4.936,4.936,0,0,0,2.73-.868l-.7-1.26a3.231,3.231,0,0,1-1.764.546,2.06,2.06,0,0,1-2.17-1.96H27.7a3.869,3.869,0,0,0,.1-.952c0-2.156-1.12-3.738-3.276-3.738a3.842,3.842,0,0,0-3.654,4.116A3.806,3.806,0,0,0,24.773,22.2Zm-1.932-4.914a1.764,1.764,0,0,1,1.708-1.722c1.008,0,1.484.672,1.484,1.722ZM33.9,22.2a3.686,3.686,0,0,0,2.366-1.036h.056l.14.84h1.68V17.422c0-2.268-1.022-3.458-3.01-3.458A6.263,6.263,0,0,0,31.857,15l.742,1.358a4.43,4.43,0,0,1,2.156-.742c.966,0,1.3.588,1.344,1.358-3.164.336-4.522,1.218-4.522,2.9A2.227,2.227,0,0,0,33.9,22.2Zm.672-1.61c-.6,0-1.036-.266-1.036-.882,0-.7.644-1.232,2.562-1.47v1.582A2.13,2.13,0,0,1,34.573,20.586ZM39.893,22h2.058V16.61a2.2,2.2,0,0,1,1.624-.882c.77,0,1.106.42,1.106,1.638V22h2.058V17.114c0-1.974-.728-3.15-2.422-3.15A3.613,3.613,0,0,0,41.769,15.2h-.042l-.154-1.036h-1.68Zm11.382.2a3.252,3.252,0,0,0,2.17-1.008H53.5l.154.812h1.666V10.828H53.277v2.758l.07,1.232a2.7,2.7,0,0,0-1.988-.854c-1.694,0-3.29,1.568-3.29,4.116C48.069,20.656,49.329,22.2,51.275,22.2Zm.532-1.694c-1.036,0-1.624-.812-1.624-2.436,0-1.568.742-2.408,1.624-2.408a2.114,2.114,0,0,1,1.47.588V19.69A1.784,1.784,0,0,1,51.807,20.5Zm8.2,1.5h2.058V14.16H60.011Zm1.036-9.1a1.129,1.129,0,1,0-1.2-1.134A1.1,1.1,0,0,0,61.047,12.9Zm2.87,9.1h2.058V16.61a2.234,2.234,0,0,1,1.5-.882c.742,0,1.106.42,1.106,1.638V22h2.044V16.61a2.288,2.288,0,0,1,1.512-.882c.742,0,1.092.42,1.092,1.638V22h2.058V17.114c0-1.974-.77-3.15-2.436-3.15a3.477,3.477,0,0,0-2.492,1.372A2.134,2.134,0,0,0,68.2,13.964a3.3,3.3,0,0,0-2.408,1.246h-.042L65.6,14.16h-1.68Zm13.146,3.01h2.058V22.63l-.07-1.288A2.914,2.914,0,0,0,81,22.2c1.722,0,3.332-1.554,3.332-4.242,0-2.408-1.148-3.99-3.08-3.99a3.722,3.722,0,0,0-2.31,1.008H78.9l-.154-.812h-1.68ZM80.535,20.5a2.136,2.136,0,0,1-1.414-.588V16.47a2.159,2.159,0,0,1,1.54-.812c1.078,0,1.554.826,1.554,2.324C82.215,19.69,81.487,20.5,80.535,20.5ZM85.729,22h2.058V17.324c.434-1.134,1.176-1.54,1.792-1.54a2.619,2.619,0,0,1,.826.126l.35-1.778a2.218,2.218,0,0,0-.924-.168A2.716,2.716,0,0,0,87.6,15.546h-.042l-.154-1.386h-1.68Zm8.862.2a3.825,3.825,0,0,0,3.766-4.116,3.781,3.781,0,1,0-7.532,0A3.825,3.825,0,0,0,94.591,22.2Zm0-1.68c-1.064,0-1.666-.952-1.666-2.436s.6-2.436,1.666-2.436,1.666.966,1.666,2.436S95.655,20.516,94.591,20.516ZM101.381,22h2.38l2.618-7.84H104.4l-1.148,3.906c-.21.77-.42,1.582-.63,2.38h-.07c-.21-.8-.42-1.61-.63-2.38l-1.148-3.906H98.707Zm9.254.2a4.936,4.936,0,0,0,2.73-.868l-.7-1.26a3.231,3.231,0,0,1-1.764.546,2.06,2.06,0,0,1-2.17-1.96h4.83a3.869,3.869,0,0,0,.1-.952c0-2.156-1.12-3.738-3.276-3.738a3.842,3.842,0,0,0-3.654,4.116A3.806,3.806,0,0,0,110.635,22.2ZM108.7,17.282a1.764,1.764,0,0,1,1.708-1.722c1.008,0,1.484.672,1.484,1.722ZM-70.917,44h2.058V38.61a2.234,2.234,0,0,1,1.5-.882c.742,0,1.106.42,1.106,1.638V44h2.044V38.61a2.288,2.288,0,0,1,1.512-.882c.742,0,1.092.42,1.092,1.638V44h2.058V39.114c0-1.974-.77-3.15-2.436-3.15a3.477,3.477,0,0,0-2.492,1.372,2.134,2.134,0,0,0-2.156-1.372,3.3,3.3,0,0,0-2.408,1.246h-.042l-.154-1.05h-1.68Zm15.078.2a3.686,3.686,0,0,0,2.366-1.036h.056l.14.84h1.68V39.422c0-2.268-1.022-3.458-3.01-3.458A6.263,6.263,0,0,0-57.883,37l.742,1.358a4.43,4.43,0,0,1,2.156-.742c.966,0,1.3.588,1.344,1.358-3.164.336-4.522,1.218-4.522,2.9A2.227,2.227,0,0,0-55.839,44.2Zm.672-1.61c-.6,0-1.036-.266-1.036-.882,0-.7.644-1.232,2.562-1.47v1.582A2.13,2.13,0,0,1-55.167,42.586Zm7.924,1.61a5.067,5.067,0,0,0,1.652-.294l-.336-1.5a2.291,2.291,0,0,1-.77.168c-.7,0-1.064-.42-1.064-1.316V37.784h1.932V36.16h-1.932V34.046h-1.708l-.238,2.114-1.218.1v1.526h1.106v3.472C-49.819,43.006-49.105,44.2-47.243,44.2Zm2.66-.2h2.058V38.61a2.2,2.2,0,0,1,1.624-.882c.77,0,1.106.42,1.106,1.638V44h2.058V39.114c0-1.974-.728-3.15-2.422-3.15a3.568,3.568,0,0,0-2.464,1.148l.1-1.47V32.828h-2.058Zm13.678.2c2.044,0,3.122-1.106,3.122-2.478,0-1.456-1.148-1.974-2.184-2.366-.826-.308-1.554-.518-1.554-1.092,0-.448.336-.756,1.05-.756a2.918,2.918,0,0,1,1.68.672l.924-1.246a4.346,4.346,0,0,0-2.66-.966c-1.792,0-2.926.994-2.926,2.394,0,1.316,1.106,1.918,2.1,2.3.826.322,1.638.588,1.638,1.176,0,.49-.35.826-1.134.826a3.4,3.4,0,0,1-2.1-.854l-.938,1.288A4.973,4.973,0,0,0-30.905,44.2Zm4.34-.2h2.03V42.012l1.106-1.26,1.9,3.248H-19.3l-2.94-4.606,2.688-3.234h-2.254l-2.674,3.374h-.056V32.828h-2.03Zm8.12,0h2.058V36.16h-2.058Zm1.036-9.1a1.1,1.1,0,0,0,1.19-1.134,1.1,1.1,0,0,0-1.19-1.12,1.1,1.1,0,0,0-1.2,1.12A1.107,1.107,0,0,0-17.409,34.9Zm4.8,9.3a2.748,2.748,0,0,0,1.064-.182l-.252-1.526a1.16,1.16,0,0,1-.28.028c-.2,0-.406-.154-.406-.63V32.828h-2.058V41.8C-14.539,43.258-14.035,44.2-12.607,44.2Zm4.06,0a2.748,2.748,0,0,0,1.064-.182l-.252-1.526a1.16,1.16,0,0,1-.28.028c-.2,0-.406-.154-.406-.63V32.828h-2.058V41.8C-10.479,43.258-9.975,44.2-8.547,44.2Zm4.368,0c2.044,0,3.122-1.106,3.122-2.478,0-1.456-1.148-1.974-2.184-2.366-.826-.308-1.554-.518-1.554-1.092,0-.448.336-.756,1.05-.756a2.918,2.918,0,0,1,1.68.672l.924-1.246a4.345,4.345,0,0,0-2.66-.966c-1.792,0-2.926.994-2.926,2.394,0,1.316,1.106,1.918,2.1,2.3.826.322,1.638.588,1.638,1.176,0,.49-.35.826-1.134.826a3.4,3.4,0,0,1-2.1-.854l-.938,1.288A4.973,4.973,0,0,0-4.179,44.2ZM2.989,44H5.047V36.16H2.989Zm1.036-9.1a1.129,1.129,0,1,0,0-2.254,1.129,1.129,0,1,0,0,2.254ZM6.9,44H8.953V38.61a2.2,2.2,0,0,1,1.624-.882c.77,0,1.106.42,1.106,1.638V44h2.058V39.114c0-1.974-.728-3.15-2.422-3.15A3.613,3.613,0,0,0,8.771,37.2H8.729L8.575,36.16H6.9Zm11.452,0h2.058V38.61a2.2,2.2,0,0,1,1.624-.882c.77,0,1.106.42,1.106,1.638V44h2.058V39.114c0-1.974-.728-3.15-2.422-3.15A3.613,3.613,0,0,0,20.223,37.2h-.042l-.154-1.036h-1.68Zm11.9.2a3.825,3.825,0,0,0,3.766-4.116,3.781,3.781,0,1,0-7.532,0A3.825,3.825,0,0,0,30.247,44.2Zm0-1.68c-1.064,0-1.666-.952-1.666-2.436s.6-2.436,1.666-2.436,1.666.966,1.666,2.436S31.311,42.516,30.247,42.516ZM41.083,44.2a5.067,5.067,0,0,0,1.652-.294L42.4,42.4a2.291,2.291,0,0,1-.77.168c-.7,0-1.064-.42-1.064-1.316V37.784H42.5V36.16H40.565V34.046H38.857l-.238,2.114-1.218.1v1.526h1.106v3.472C38.507,43.006,39.221,44.2,41.083,44.2Zm2.66-.2H45.8V36.16H43.743Zm1.036-9.1a1.129,1.129,0,1,0-1.2-1.134A1.1,1.1,0,0,0,44.779,34.9Zm2.87,9.1h2.058V38.61a2.234,2.234,0,0,1,1.5-.882c.742,0,1.106.42,1.106,1.638V44h2.044V38.61a2.288,2.288,0,0,1,1.512-.882c.742,0,1.092.42,1.092,1.638V44h2.058V39.114c0-1.974-.77-3.15-2.436-3.15a3.477,3.477,0,0,0-2.492,1.372,2.134,2.134,0,0,0-2.156-1.372,3.3,3.3,0,0,0-2.408,1.246h-.042l-.154-1.05h-1.68Zm16.562.2a4.936,4.936,0,0,0,2.73-.868l-.7-1.26a3.231,3.231,0,0,1-1.764.546,2.06,2.06,0,0,1-2.17-1.96h4.83a3.869,3.869,0,0,0,.1-.952c0-2.156-1.12-3.738-3.276-3.738a3.842,3.842,0,0,0-3.654,4.116A3.806,3.806,0,0,0,64.211,44.2Zm-1.932-4.914a1.764,1.764,0,0,1,1.708-1.722c1.008,0,1.484.672,1.484,1.722ZM69.741,44.2a1.346,1.346,0,1,0-1.274-1.344A1.289,1.289,0,0,0,69.741,44.2Z" transform="translate(176.778 326.371)" fill="#323c46"/><g transform="translate(121.999 172)" fill="none"><path d="M13.653,0h79.7a13.653,13.653,0,1,1,0,27.306h-79.7A13.653,13.653,0,0,1,13.653,0Z" stroke="none"/><path d="M 13.65290069580078 1.999996185302734 C 10.54029846191406 1.999996185302734 7.613990783691406 3.212104797363281 5.413055419921875 5.413059234619141 C 3.212104797363281 7.613996505737305 1.999992370605469 10.54030418395996 1.999992370605469 13.65290451049805 C 1.999992370605469 16.76550483703613 3.212104797363281 19.69181251525879 5.413055419921875 21.89274978637695 C 7.613990783691406 24.09370422363281 10.54029846191406 25.30581283569336 13.65290069580078 25.30581283569336 L 93.34867095947266 25.30581283569336 C 96.46127319335938 25.30581283569336 99.38758087158203 24.09370422363281 101.5885162353516 21.89274978637695 C 103.7894668579102 19.69181251525879 105.001579284668 16.76550483703613 105.001579284668 13.65290451049805 C 105.001579284668 10.54030418395996 103.7894668579102 7.613996505737305 101.5885162353516 5.413059234619141 C 99.38758087158203 3.212104797363281 96.46127319335938 1.999996185302734 93.34867095947266 1.999996185302734 L 13.65290069580078 1.999996185302734 M 13.65290069580078 -3.814697265625e-06 L 93.34867095947266 -3.814697265625e-06 C 100.8889617919922 -3.814697265625e-06 107.001579284668 6.112611770629883 107.001579284668 13.65290451049805 C 107.001579284668 21.19319725036621 100.8889617919922 27.30581283569336 93.34867095947266 27.30581283569336 L 13.65290069580078 27.30581283569336 C 6.11260986328125 27.30581283569336 -7.62939453125e-06 21.19319725036621 -7.62939453125e-06 13.65290451049805 C -7.62939453125e-06 6.112611770629883 6.11260986328125 -3.814697265625e-06 13.65290069580078 -3.814697265625e-06 Z" stroke="none" fill="#f5b400"/></g><path d="M-38.148-5.018c.286-1,.572-2.093.819-3.146h.065c.273,1.04.533,2.145.832,3.146l.286,1.053h-2.288ZM-41.476,0h1.95l.676-2.47h3.12L-35.055,0h2.015l-3.094-9.633H-38.4Zm9.568,0h1.924V-9.633h-1.924Zm8.879.182a3.423,3.423,0,0,0,2.2-.962h.052l.13.78h1.56V-4.251c0-2.106-.949-3.211-2.8-3.211a5.816,5.816,0,0,0-3.042.962l.689,1.261a4.113,4.113,0,0,1,2-.689c.9,0,1.209.546,1.248,1.261-2.938.312-4.2,1.131-4.2,2.691A2.068,2.068,0,0,0-23.029.182Zm.624-1.5c-.559,0-.962-.247-.962-.819,0-.65.6-1.144,2.379-1.365v1.469A1.978,1.978,0,0,1-22.405-1.313ZM-17.14,0h1.911V-4.342c.4-1.053,1.092-1.43,1.664-1.43a2.432,2.432,0,0,1,.767.117l.325-1.651a2.059,2.059,0,0,0-.858-.156A2.522,2.522,0,0,0-15.4-5.993h-.039L-15.58-7.28h-1.56Zm5.668,0h1.911V-7.28h-1.911Zm.962-8.45A1.024,1.024,0,0,0-9.406-9.5a1.021,1.021,0,0,0-1.1-1.04A1.025,1.025,0,0,0-11.628-9.5,1.028,1.028,0,0,0-10.51-8.45ZM-4.856.182A4.7,4.7,0,0,0-3.322-.091l-.312-1.391a2.127,2.127,0,0,1-.715.156c-.65,0-.988-.39-.988-1.222V-5.772h1.794V-7.28H-5.337V-9.243H-6.923L-7.144-7.28l-1.131.091v1.417h1.027v3.224C-7.248-.923-6.585.182-4.856.182ZM-2.061,0H-.15V-5.005a2.046,2.046,0,0,1,1.508-.819c.715,0,1.027.39,1.027,1.521V0H4.3V-4.537c0-1.833-.676-2.925-2.249-2.925A3.313,3.313,0,0,0-.241-6.4L-.15-7.761v-2.613H-2.061Zm8.32,0H8.17V-5.005a2.075,2.075,0,0,1,1.391-.819c.689,0,1.027.39,1.027,1.521V0h1.9V-5.005a2.124,2.124,0,0,1,1.4-.819c.689,0,1.014.39,1.014,1.521V0h1.911V-4.537c0-1.833-.715-2.925-2.262-2.925a3.229,3.229,0,0,0-2.314,1.274,1.982,1.982,0,0,0-2-1.274A3.065,3.065,0,0,0,8-6.305H7.962L7.819-7.28H6.259Zm15.7.182A4.583,4.583,0,0,0,24.5-.624l-.65-1.17a3,3,0,0,1-1.638.507A1.913,1.913,0,0,1,20.2-3.107h4.485a3.593,3.593,0,0,0,.091-.884c0-2-1.04-3.471-3.042-3.471A3.568,3.568,0,0,0,18.337-3.64,3.534,3.534,0,0,0,21.964.182ZM20.17-4.381a1.638,1.638,0,0,1,1.586-1.6c.936,0,1.378.624,1.378,1.6ZM28.853.182a4.7,4.7,0,0,0,1.534-.273l-.312-1.391a2.127,2.127,0,0,1-.715.156c-.65,0-.988-.39-.988-1.222V-5.772h1.794V-7.28H28.372V-9.243H26.786L26.565-7.28l-1.131.091v1.417h1.027v3.224C26.461-.923,27.124.182,28.853.182ZM31.648,0h1.911V-7.28H31.648Zm.962-8.45A1.024,1.024,0,0,0,33.715-9.5a1.021,1.021,0,0,0-1.105-1.04A1.025,1.025,0,0,0,31.492-9.5,1.028,1.028,0,0,0,32.61-8.45ZM38.694.182A3.669,3.669,0,0,0,41.087-.7L40.32-1.963a2.261,2.261,0,0,1-1.417.585c-1.04,0-1.807-.884-1.807-2.262S37.85-5.9,38.968-5.9a1.657,1.657,0,0,1,1.1.481l.91-1.235a3.183,3.183,0,0,0-2.119-.806A3.631,3.631,0,0,0,35.146-3.64,3.483,3.483,0,0,0,38.694.182Z" transform="translate(175.5 190.748)" fill="#f5b400"/><g transform="translate(-314 -94)"><g transform="translate(343 319)" clip-path="url(#a)"><path d="M175.716,63.26,183.5,18.979h10.768a19.967,19.967,0,0,1,7.021-1.266,20.243,20.243,0,1,1-12.4,36.2l-1.646,9.347Zm16.742-25.3a8.83,8.83,0,1,0,8.829-8.857A8.859,8.859,0,0,0,192.458,37.957Zm51.35,0A20.155,20.155,0,0,1,276.43,22.032l2.763-15.708h11.523l-8.9,50.616H271a20.173,20.173,0,0,1-27.188-18.983Zm11.342,0a8.832,8.832,0,1,0,8.836-8.857A8.863,8.863,0,0,0,255.149,37.957ZM223.5,56.94l6.671-37.961H241.7L235.023,56.94Zm-64.333,0,3.369-19.175c1.078-6.136.021-10.709-5.053-11.2a6.333,6.333,0,0,0-6.925,5.018L146.1,56.94H134.573l8.895-50.616H155l-2.225,12.655a27.863,27.863,0,0,1,6.937-1.266c11.555,0,16.757,6.4,14.974,16.531l-3.988,22.7Zm-49.817,0L113.8,31.629h-5.585l1.774-10.121h5.589l1.556-8.856h11.526L127.1,21.508h8.118l-1.783,10.121h-8.115L120.871,56.94Zm-22.692,0,.173-.988a20.02,20.02,0,0,1-6.23.988,20.247,20.247,0,0,1,0-40.493,20.034,20.034,0,0,1,12.422,4.3l.309-1.77h11.529L98.184,56.94ZM71.77,36.69a8.829,8.829,0,1,0,8.83-8.856A8.855,8.855,0,0,0,71.77,36.69ZM40.349,56.94,45.5,27.64,29.715,34.333,17.529,22.789l-6,34.151H0L10.008,0,32.123,20.949,60.3,9,51.873,56.94ZM231.008,7.592a6.927,6.927,0,1,1,6.924,6.947A6.936,6.936,0,0,1,231.008,7.592Z" transform="translate(5.621)" fill="#00c3e1" stroke="rgba(0,0,0,0)" stroke-miterlimit="10" stroke-width="1"/></g></g></g></svg>