<svg xmlns="http://www.w3.org/2000/svg" width="320" height="256.59" viewBox="0 0 320 256.59"><g transform="translate(-20 -139)"><g transform="translate(121.999 139)" fill="none"><path d="M13.653,0h79.7a13.653,13.653,0,1,1,0,27.306h-79.7A13.653,13.653,0,0,1,13.653,0Z" stroke="none"/><path d="M 13.65290069580078 1.999996185302734 C 10.54029846191406 1.999996185302734 7.613990783691406 3.212104797363281 5.413055419921875 5.413059234619141 C 3.212104797363281 7.613996505737305 1.999992370605469 10.54030418395996 1.999992370605469 13.65290451049805 C 1.999992370605469 16.76550483703613 3.212104797363281 19.69181251525879 5.413055419921875 21.89274978637695 C 7.613990783691406 24.09370422363281 10.54029846191406 25.30581283569336 13.65290069580078 25.30581283569336 L 93.34867095947266 25.30581283569336 C 96.46127319335938 25.30581283569336 99.38758087158203 24.09370422363281 101.5885162353516 21.89274978637695 C 103.7894668579102 19.69181251525879 105.001579284668 16.76550483703613 105.001579284668 13.65290451049805 C 105.001579284668 10.54030418395996 103.7894668579102 7.613996505737305 101.5885162353516 5.413059234619141 C 99.38758087158203 3.212104797363281 96.46127319335938 1.999996185302734 93.34867095947266 1.999996185302734 L 13.65290069580078 1.999996185302734 M 13.65290069580078 -3.814697265625e-06 L 93.34867095947266 -3.814697265625e-06 C 100.8889617919922 -3.814697265625e-06 107.001579284668 6.112611770629883 107.001579284668 13.65290451049805 C 107.001579284668 21.19319725036621 100.8889617919922 27.30581283569336 93.34867095947266 27.30581283569336 L 13.65290069580078 27.30581283569336 C 6.11260986328125 27.30581283569336 -7.62939453125e-06 21.19319725036621 -7.62939453125e-06 13.65290451049805 C -7.62939453125e-06 6.112611770629883 6.11260986328125 -3.814697265625e-06 13.65290069580078 -3.814697265625e-06 Z" stroke="none" fill="#f5b400"/></g><path d="M-38.148-5.018c.286-1,.572-2.093.819-3.146h.065c.273,1.04.533,2.145.832,3.146l.286,1.053h-2.288ZM-41.476,0h1.95l.676-2.47h3.12L-35.055,0h2.015l-3.094-9.633H-38.4Zm9.568,0h1.924V-9.633h-1.924Zm8.879.182a3.423,3.423,0,0,0,2.2-.962h.052l.13.78h1.56V-4.251c0-2.106-.949-3.211-2.8-3.211a5.816,5.816,0,0,0-3.042.962l.689,1.261a4.113,4.113,0,0,1,2-.689c.9,0,1.209.546,1.248,1.261-2.938.312-4.2,1.131-4.2,2.691A2.068,2.068,0,0,0-23.029.182Zm.624-1.5c-.559,0-.962-.247-.962-.819,0-.65.6-1.144,2.379-1.365v1.469A1.978,1.978,0,0,1-22.405-1.313ZM-17.14,0h1.911V-4.342c.4-1.053,1.092-1.43,1.664-1.43a2.432,2.432,0,0,1,.767.117l.325-1.651a2.059,2.059,0,0,0-.858-.156A2.522,2.522,0,0,0-15.4-5.993h-.039L-15.58-7.28h-1.56Zm5.668,0h1.911V-7.28h-1.911Zm.962-8.45A1.024,1.024,0,0,0-9.406-9.5a1.021,1.021,0,0,0-1.1-1.04A1.025,1.025,0,0,0-11.628-9.5,1.028,1.028,0,0,0-10.51-8.45ZM-4.856.182A4.7,4.7,0,0,0-3.322-.091l-.312-1.391a2.127,2.127,0,0,1-.715.156c-.65,0-.988-.39-.988-1.222V-5.772h1.794V-7.28H-5.337V-9.243H-6.923L-7.144-7.28l-1.131.091v1.417h1.027v3.224C-7.248-.923-6.585.182-4.856.182ZM-2.061,0H-.15V-5.005a2.046,2.046,0,0,1,1.508-.819c.715,0,1.027.39,1.027,1.521V0H4.3V-4.537c0-1.833-.676-2.925-2.249-2.925A3.313,3.313,0,0,0-.241-6.4L-.15-7.761v-2.613H-2.061Zm8.32,0H8.17V-5.005a2.075,2.075,0,0,1,1.391-.819c.689,0,1.027.39,1.027,1.521V0h1.9V-5.005a2.124,2.124,0,0,1,1.4-.819c.689,0,1.014.39,1.014,1.521V0h1.911V-4.537c0-1.833-.715-2.925-2.262-2.925a3.229,3.229,0,0,0-2.314,1.274,1.982,1.982,0,0,0-2-1.274A3.065,3.065,0,0,0,8-6.305H7.962L7.819-7.28H6.259Zm15.7.182A4.583,4.583,0,0,0,24.5-.624l-.65-1.17a3,3,0,0,1-1.638.507A1.913,1.913,0,0,1,20.2-3.107h4.485a3.593,3.593,0,0,0,.091-.884c0-2-1.04-3.471-3.042-3.471A3.568,3.568,0,0,0,18.337-3.64,3.534,3.534,0,0,0,21.964.182ZM20.17-4.381a1.638,1.638,0,0,1,1.586-1.6c.936,0,1.378.624,1.378,1.6ZM28.853.182a4.7,4.7,0,0,0,1.534-.273l-.312-1.391a2.127,2.127,0,0,1-.715.156c-.65,0-.988-.39-.988-1.222V-5.772h1.794V-7.28H28.372V-9.243H26.786L26.565-7.28l-1.131.091v1.417h1.027v3.224C26.461-.923,27.124.182,28.853.182ZM31.648,0h1.911V-7.28H31.648Zm.962-8.45A1.024,1.024,0,0,0,33.715-9.5a1.021,1.021,0,0,0-1.105-1.04A1.025,1.025,0,0,0,31.492-9.5,1.028,1.028,0,0,0,32.61-8.45ZM38.694.182A3.669,3.669,0,0,0,41.087-.7L40.32-1.963a2.261,2.261,0,0,1-1.417.585c-1.04,0-1.807-.884-1.807-2.262S37.85-5.9,38.968-5.9a1.657,1.657,0,0,1,1.1.481l.91-1.235a3.183,3.183,0,0,0-2.119-.806A3.631,3.631,0,0,0,35.146-3.64,3.483,3.483,0,0,0,38.694.182Z" transform="translate(175.5 157.748)" fill="#f5b400"/><path d="M175.716,63.26,183.5,18.979h10.768a19.967,19.967,0,0,1,7.021-1.266,20.243,20.243,0,1,1-12.4,36.2l-1.646,9.347Zm16.742-25.3a8.83,8.83,0,1,0,8.829-8.857A8.859,8.859,0,0,0,192.458,37.957Zm51.35,0A20.155,20.155,0,0,1,276.43,22.032l2.763-15.708h11.523l-8.9,50.616H271a20.173,20.173,0,0,1-27.188-18.983Zm11.342,0a8.832,8.832,0,1,0,8.836-8.857A8.863,8.863,0,0,0,255.149,37.957ZM223.5,56.94l6.671-37.961H241.7L235.023,56.94Zm-64.333,0,3.369-19.175c1.078-6.136.021-10.709-5.053-11.2a6.333,6.333,0,0,0-6.925,5.018L146.1,56.94H134.573l8.895-50.616H155l-2.225,12.655a27.863,27.863,0,0,1,6.937-1.266c11.555,0,16.757,6.4,14.974,16.531l-3.988,22.7Zm-49.817,0L113.8,31.629h-5.585l1.774-10.121h5.589l1.556-8.856h11.526L127.1,21.508h8.118l-1.783,10.121h-8.115L120.871,56.94Zm-22.692,0,.173-.988a20.02,20.02,0,0,1-6.23.988,20.247,20.247,0,0,1,0-40.493,20.034,20.034,0,0,1,12.422,4.3l.309-1.77h11.529L98.184,56.94ZM71.77,36.69a8.829,8.829,0,1,0,8.83-8.856A8.855,8.855,0,0,0,71.77,36.69ZM40.349,56.94,45.5,27.64,29.715,34.333,17.529,22.789l-6,34.151H0L10.008,0,32.123,20.949,60.3,9,51.873,56.94ZM231.008,7.592a6.927,6.927,0,1,1,6.924,6.947A6.936,6.936,0,0,1,231.008,7.592Z" transform="translate(34.621 192)" fill="#00c3e1" stroke="rgba(0,0,0,0)" stroke-miterlimit="10" stroke-width="1"/><path d="M101.275,38.914l4.881-4.024a.979.979,0,0,0-.571-1.738L99.3,32.771a.986.986,0,0,1-.857-.619l-2.309-5.9a.985.985,0,0,0-1.833,0l-2.309,5.881a.986.986,0,0,1-.857.619l-6.309.381a.979.979,0,0,0-.571,1.738l4.881,4a1,1,0,0,1,.333,1l-1.6,6.119a.981.981,0,0,0,1.476,1.071l5.309-3.4a.934.934,0,0,1,1.048,0l5.333,3.4a.981.981,0,0,0,1.476-1.071l-1.6-6.1a.978.978,0,0,1,.357-.976Z" transform="translate(32.296 348.377)" fill="#ffc823"/><path d="M101.275,38.914l4.881-4.024a.979.979,0,0,0-.571-1.738L99.3,32.771a.986.986,0,0,1-.857-.619l-2.309-5.9a.985.985,0,0,0-1.833,0l-2.309,5.881a.986.986,0,0,1-.857.619l-6.309.381a.979.979,0,0,0-.571,1.738l4.881,4a1,1,0,0,1,.333,1l-1.6,6.119a.981.981,0,0,0,1.476,1.071l5.309-3.4a.934.934,0,0,1,1.048,0l5.333,3.4a.981.981,0,0,0,1.476-1.071l-1.6-6.1a.978.978,0,0,1,.357-.976Z" transform="translate(58.296 348.377)" fill="#ffc823"/><path d="M101.275,38.914l4.881-4.024a.979.979,0,0,0-.571-1.738L99.3,32.771a.986.986,0,0,1-.857-.619l-2.309-5.9a.985.985,0,0,0-1.833,0l-2.309,5.881a.986.986,0,0,1-.857.619l-6.309.381a.979.979,0,0,0-.571,1.738l4.881,4a1,1,0,0,1,.333,1l-1.6,6.119a.981.981,0,0,0,1.476,1.071l5.309-3.4a.934.934,0,0,1,1.048,0l5.333,3.4a.981.981,0,0,0,1.476-1.071l-1.6-6.1a.978.978,0,0,1,.357-.976Z" transform="translate(84.296 348.377)" fill="#ffc823"/><path d="M101.275,38.914l4.881-4.024a.979.979,0,0,0-.571-1.738L99.3,32.771a.986.986,0,0,1-.857-.619l-2.309-5.9a.985.985,0,0,0-1.833,0l-2.309,5.881a.986.986,0,0,1-.857.619l-6.309.381a.979.979,0,0,0-.571,1.738l4.881,4a1,1,0,0,1,.333,1l-1.6,6.119a.981.981,0,0,0,1.476,1.071l5.309-3.4a.934.934,0,0,1,1.048,0l5.333,3.4a.981.981,0,0,0,1.476-1.071l-1.6-6.1a.978.978,0,0,1,.357-.976Z" transform="translate(110.296 348.377)" fill="#ffc823"/><path d="M101.275,38.914l4.881-4.024a.979.979,0,0,0-.571-1.738L99.3,32.771a.986.986,0,0,1-.857-.619l-2.309-5.9a.985.985,0,0,0-1.833,0l-2.309,5.881a.986.986,0,0,1-.857.619l-6.309.381a.979.979,0,0,0-.571,1.738l4.881,4a1,1,0,0,1,.333,1l-1.6,6.119a.981.981,0,0,0,1.476,1.071l5.309-3.4a.934.934,0,0,1,1.048,0l5.333,3.4a.981.981,0,0,0,1.476-1.071l-1.6-6.1a.978.978,0,0,1,.357-.976Z" transform="translate(136.296 348.377)" fill="#ffc823"/><text transform="translate(180 289.044)" fill="#00c3e1" font-size="20" font-family="NotoSansCJKkr-Bold, Noto Sans CJK KR" font-weight="700" letter-spacing="-0.05em"><tspan x="-138.18" y="0">Students who has experienced </tspan><tspan x="-73" y="31">Basic Arithmetic</tspan><tspan x="-159.51" y="62">can adapt well to global curriculum!</tspan></text></g></svg>