<svg xmlns="http://www.w3.org/2000/svg" xmlns:xlink="http://www.w3.org/1999/xlink" width="303" height="299.5" viewBox="0 0 303 299.5"><defs><clipPath id="a"><rect width="303" height="64" fill="#ff5a5a" opacity="0"/></clipPath></defs><g transform="translate(-29 -110)"><g transform="translate(121.999 110)" fill="none"><path d="M13.653,0h79.7a13.653,13.653,0,1,1,0,27.306h-79.7A13.653,13.653,0,0,1,13.653,0Z" stroke="none"/><path d="M 13.65290069580078 1.999996185302734 C 10.54029846191406 1.999996185302734 7.613990783691406 3.212104797363281 5.413055419921875 5.413059234619141 C 3.212104797363281 7.613996505737305 1.999992370605469 10.54030418395996 1.999992370605469 13.65290451049805 C 1.999992370605469 16.76550483703613 3.212104797363281 19.69181251525879 5.413055419921875 21.89274978637695 C 7.613990783691406 24.09370422363281 10.54029846191406 25.30581283569336 13.65290069580078 25.30581283569336 L 93.34867095947266 25.30581283569336 C 96.46127319335938 25.30581283569336 99.38758087158203 24.09370422363281 101.5885162353516 21.89274978637695 C 103.7894668579102 19.69181251525879 105.001579284668 16.76550483703613 105.001579284668 13.65290451049805 C 105.001579284668 10.54030418395996 103.7894668579102 7.613996505737305 101.5885162353516 5.413059234619141 C 99.38758087158203 3.212104797363281 96.46127319335938 1.999996185302734 93.34867095947266 1.999996185302734 L 13.65290069580078 1.999996185302734 M 13.65290069580078 -3.814697265625e-06 L 93.34867095947266 -3.814697265625e-06 C 100.8889617919922 -3.814697265625e-06 107.001579284668 6.112611770629883 107.001579284668 13.65290451049805 C 107.001579284668 21.19319725036621 100.8889617919922 27.30581283569336 93.34867095947266 27.30581283569336 L 13.65290069580078 27.30581283569336 C 6.11260986328125 27.30581283569336 -7.62939453125e-06 21.19319725036621 -7.62939453125e-06 13.65290451049805 C -7.62939453125e-06 6.112611770629883 6.11260986328125 -3.814697265625e-06 13.65290069580078 -3.814697265625e-06 Z" stroke="none" fill="#f5b400"/></g><path d="M-38.148-5.018c.286-1,.572-2.093.819-3.146h.065c.273,1.04.533,2.145.832,3.146l.286,1.053h-2.288ZM-41.476,0h1.95l.676-2.47h3.12L-35.055,0h2.015l-3.094-9.633H-38.4Zm9.568,0h1.924V-9.633h-1.924Zm8.879.182a3.423,3.423,0,0,0,2.2-.962h.052l.13.78h1.56V-4.251c0-2.106-.949-3.211-2.8-3.211a5.816,5.816,0,0,0-3.042.962l.689,1.261a4.113,4.113,0,0,1,2-.689c.9,0,1.209.546,1.248,1.261-2.938.312-4.2,1.131-4.2,2.691A2.068,2.068,0,0,0-23.029.182Zm.624-1.5c-.559,0-.962-.247-.962-.819,0-.65.6-1.144,2.379-1.365v1.469A1.978,1.978,0,0,1-22.405-1.313ZM-17.14,0h1.911V-4.342c.4-1.053,1.092-1.43,1.664-1.43a2.432,2.432,0,0,1,.767.117l.325-1.651a2.059,2.059,0,0,0-.858-.156A2.522,2.522,0,0,0-15.4-5.993h-.039L-15.58-7.28h-1.56Zm5.668,0h1.911V-7.28h-1.911Zm.962-8.45A1.024,1.024,0,0,0-9.406-9.5a1.021,1.021,0,0,0-1.1-1.04A1.025,1.025,0,0,0-11.628-9.5,1.028,1.028,0,0,0-10.51-8.45ZM-4.856.182A4.7,4.7,0,0,0-3.322-.091l-.312-1.391a2.127,2.127,0,0,1-.715.156c-.65,0-.988-.39-.988-1.222V-5.772h1.794V-7.28H-5.337V-9.243H-6.923L-7.144-7.28l-1.131.091v1.417h1.027v3.224C-7.248-.923-6.585.182-4.856.182ZM-2.061,0H-.15V-5.005a2.046,2.046,0,0,1,1.508-.819c.715,0,1.027.39,1.027,1.521V0H4.3V-4.537c0-1.833-.676-2.925-2.249-2.925A3.313,3.313,0,0,0-.241-6.4L-.15-7.761v-2.613H-2.061Zm8.32,0H8.17V-5.005a2.075,2.075,0,0,1,1.391-.819c.689,0,1.027.39,1.027,1.521V0h1.9V-5.005a2.124,2.124,0,0,1,1.4-.819c.689,0,1.014.39,1.014,1.521V0h1.911V-4.537c0-1.833-.715-2.925-2.262-2.925a3.229,3.229,0,0,0-2.314,1.274,1.982,1.982,0,0,0-2-1.274A3.065,3.065,0,0,0,8-6.305H7.962L7.819-7.28H6.259Zm15.7.182A4.583,4.583,0,0,0,24.5-.624l-.65-1.17a3,3,0,0,1-1.638.507A1.913,1.913,0,0,1,20.2-3.107h4.485a3.593,3.593,0,0,0,.091-.884c0-2-1.04-3.471-3.042-3.471A3.568,3.568,0,0,0,18.337-3.64,3.534,3.534,0,0,0,21.964.182ZM20.17-4.381a1.638,1.638,0,0,1,1.586-1.6c.936,0,1.378.624,1.378,1.6ZM28.853.182a4.7,4.7,0,0,0,1.534-.273l-.312-1.391a2.127,2.127,0,0,1-.715.156c-.65,0-.988-.39-.988-1.222V-5.772h1.794V-7.28H28.372V-9.243H26.786L26.565-7.28l-1.131.091v1.417h1.027v3.224C26.461-.923,27.124.182,28.853.182ZM31.648,0h1.911V-7.28H31.648Zm.962-8.45A1.024,1.024,0,0,0,33.715-9.5a1.021,1.021,0,0,0-1.105-1.04A1.025,1.025,0,0,0,31.492-9.5,1.028,1.028,0,0,0,32.61-8.45ZM38.694.182A3.669,3.669,0,0,0,41.087-.7L40.32-1.963a2.261,2.261,0,0,1-1.417.585c-1.04,0-1.807-.884-1.807-2.262S37.85-5.9,38.968-5.9a1.657,1.657,0,0,1,1.1.481l.91-1.235a3.183,3.183,0,0,0-2.119-.806A3.631,3.631,0,0,0,35.146-3.64,3.483,3.483,0,0,0,38.694.182Z" transform="translate(175.5 128.748)" fill="#f5b400"/><g transform="translate(-314 -156)"><g transform="translate(343 319)" clip-path="url(#a)"><path d="M175.716,63.26,183.5,18.979h10.768a19.967,19.967,0,0,1,7.021-1.266,20.243,20.243,0,1,1-12.4,36.2l-1.646,9.347Zm16.742-25.3a8.83,8.83,0,1,0,8.829-8.857A8.859,8.859,0,0,0,192.458,37.957Zm51.35,0A20.155,20.155,0,0,1,276.43,22.032l2.763-15.708h11.523l-8.9,50.616H271a20.173,20.173,0,0,1-27.188-18.983Zm11.342,0a8.832,8.832,0,1,0,8.836-8.857A8.863,8.863,0,0,0,255.149,37.957ZM223.5,56.94l6.671-37.961H241.7L235.023,56.94Zm-64.333,0,3.369-19.175c1.078-6.136.021-10.709-5.053-11.2a6.333,6.333,0,0,0-6.925,5.018L146.1,56.94H134.573l8.895-50.616H155l-2.225,12.655a27.863,27.863,0,0,1,6.937-1.266c11.555,0,16.757,6.4,14.974,16.531l-3.988,22.7Zm-49.817,0L113.8,31.629h-5.585l1.774-10.121h5.589l1.556-8.856h11.526L127.1,21.508h8.118l-1.783,10.121h-8.115L120.871,56.94Zm-22.692,0,.173-.988a20.02,20.02,0,0,1-6.23.988,20.247,20.247,0,0,1,0-40.493,20.034,20.034,0,0,1,12.422,4.3l.309-1.77h11.529L98.184,56.94ZM71.77,36.69a8.829,8.829,0,1,0,8.83-8.856A8.855,8.855,0,0,0,71.77,36.69ZM40.349,56.94,45.5,27.64,29.715,34.333,17.529,22.789l-6,34.151H0L10.008,0,32.123,20.949,60.3,9,51.873,56.94ZM231.008,7.592a6.927,6.927,0,1,1,6.924,6.947A6.936,6.936,0,0,1,231.008,7.592Z" transform="translate(5.621)" fill="#00c3e1" stroke="rgba(0,0,0,0)" stroke-miterlimit="10" stroke-width="1"/></g></g><path d="M-131.626.308c3.762,0,5.984-2.266,5.984-4.928,0-2.354-1.3-3.608-3.278-4.422l-2.134-.9c-1.386-.55-2.53-.968-2.53-2.134,0-1.078.9-1.716,2.332-1.716a5.193,5.193,0,0,1,3.454,1.342l1.65-2.046a7.225,7.225,0,0,0-5.1-2.09c-3.3,0-5.632,2.046-5.632,4.708a4.716,4.716,0,0,0,3.3,4.378l2.178.924c1.452.616,2.442.99,2.442,2.2,0,1.144-.9,1.87-2.6,1.87a6.405,6.405,0,0,1-4.136-1.8l-1.87,2.244A8.675,8.675,0,0,0-131.626.308Zm11.33,0a7.962,7.962,0,0,0,2.6-.462l-.528-2.354a3.6,3.6,0,0,1-1.21.264c-1.1,0-1.672-.66-1.672-2.068V-9.768h3.036V-12.32h-3.036v-3.322h-2.684l-.374,3.322-1.914.154v2.4h1.738v5.456C-124.344-1.562-123.222.308-120.3.308Zm7.3,0a4.943,4.943,0,0,0,3.916-2.068h.088l.242,1.76h2.64V-12.32h-3.234V-4a2.969,2.969,0,0,1-2.508,1.54c-1.188,0-1.716-.682-1.716-2.574V-12.32H-116.8v7.7C-116.8-1.54-115.654.308-112.992.308Zm13.574,0a5.11,5.11,0,0,0,3.41-1.584h.088L-95.678,0h2.618V-17.556h-3.212v4.334l.11,1.936a4.24,4.24,0,0,0-3.124-1.342c-2.662,0-5.17,2.464-5.17,6.468C-104.456-2.112-102.476.308-99.418.308Zm.836-2.662c-1.628,0-2.552-1.276-2.552-3.828,0-2.464,1.166-3.784,2.552-3.784a3.322,3.322,0,0,1,2.31.924V-3.63A2.8,2.8,0,0,1-98.582-2.354ZM-85.316.308a7.756,7.756,0,0,0,4.29-1.364l-1.1-1.98a5.078,5.078,0,0,1-2.772.858,3.237,3.237,0,0,1-3.41-3.08h7.59a6.08,6.08,0,0,0,.154-1.5c0-3.388-1.76-5.874-5.148-5.874-2.926,0-5.742,2.486-5.742,6.468C-91.454-2.09-88.77.308-85.316.308Zm-3.036-7.722a2.773,2.773,0,0,1,2.684-2.706c1.584,0,2.332,1.056,2.332,2.706ZM-79,0h3.234V-8.47a3.462,3.462,0,0,1,2.552-1.386c1.21,0,1.738.66,1.738,2.574V0h3.234V-7.678c0-3.1-1.144-4.95-3.806-4.95a5.678,5.678,0,0,0-4,1.936h-.066l-.242-1.628H-79ZM-61.49.308a7.962,7.962,0,0,0,2.6-.462l-.528-2.354a3.6,3.6,0,0,1-1.21.264c-1.1,0-1.672-.66-1.672-2.068V-9.768h3.036V-12.32H-62.3v-3.322h-2.684l-.374,3.322-1.914.154v2.4h1.738v5.456C-65.538-1.562-64.416.308-61.49.308Zm6.886,0c3.212,0,4.906-1.738,4.906-3.894,0-2.288-1.8-3.1-3.432-3.718-1.3-.484-2.442-.814-2.442-1.716,0-.7.528-1.188,1.65-1.188a4.586,4.586,0,0,1,2.64,1.056l1.452-1.958a6.829,6.829,0,0,0-4.18-1.518c-2.816,0-4.6,1.562-4.6,3.762,0,2.068,1.738,3.014,3.3,3.608,1.3.506,2.574.924,2.574,1.848,0,.77-.55,1.3-1.782,1.3a5.349,5.349,0,0,1-3.3-1.342L-59.29-1.43A7.815,7.815,0,0,0-54.6.308ZM-43.89,0h3.234V-9.768h2.31V-12.32h-2.31v-1.056c0-1.364.528-1.936,1.5-1.936a3.507,3.507,0,0,1,1.3.264l.594-2.4a7.028,7.028,0,0,0-2.332-.418c-3.1,0-4.29,1.98-4.29,4.554V-12.3l-1.65.132v2.4h1.65Zm6.534,0h3.234V-7.348c.682-1.782,1.848-2.42,2.816-2.42a4.115,4.115,0,0,1,1.3.2l.55-2.794a3.485,3.485,0,0,0-1.452-.264,4.268,4.268,0,0,0-3.5,2.486h-.066l-.242-2.178h-2.64ZM-23.98.308c3.08,0,5.918-2.376,5.918-6.468s-2.838-6.468-5.918-6.468S-29.9-10.252-29.9-6.16-27.06.308-23.98.308Zm0-2.64c-1.672,0-2.618-1.5-2.618-3.828,0-2.31.946-3.828,2.618-3.828s2.618,1.518,2.618,3.828C-21.362-3.828-22.308-2.332-23.98-2.332ZM-16.456,0h3.234V-8.47a3.511,3.511,0,0,1,2.354-1.386c1.166,0,1.738.66,1.738,2.574V0h3.212V-8.47A3.6,3.6,0,0,1-3.542-9.856c1.166,0,1.716.66,1.716,2.574V0H1.408V-7.678c0-3.1-1.21-4.95-3.828-4.95-1.606,0-2.794.968-3.916,2.156a3.353,3.353,0,0,0-3.388-2.156,5.187,5.187,0,0,0-3.784,1.958h-.066l-.242-1.65h-2.64ZM7.612,0H17.4V-2.618H14.344V-15.862h-2.4A10.56,10.56,0,0,1,8.162-14.5v2H11.11v9.878h-3.5ZM21.758,0h3.278c.264-6.182.858-9.372,4.554-13.882v-1.98H18.766v2.706h7.326C23.056-8.932,22.044-5.478,21.758,0ZM35.6.308a5.415,5.415,0,0,0,5.7-5.522c0-3.388-2.288-4.928-5.016-4.928a4.555,4.555,0,0,0-1.958.44l.308-3.454h5.918v-2.706H31.834l-.44,7.92L32.868-7a3.9,3.9,0,0,1,2.442-.858A2.543,2.543,0,0,1,38.06-5.1a2.629,2.629,0,0,1-2.882,2.772,5.061,5.061,0,0,1-3.586-1.65L30.1-1.914A7.42,7.42,0,0,0,35.6.308Zm16.654,0a6.209,6.209,0,0,0,4.048-1.5L55-3.322a3.826,3.826,0,0,1-2.4.99c-1.76,0-3.058-1.5-3.058-3.828,0-2.31,1.276-3.828,3.168-3.828a2.8,2.8,0,0,1,1.87.814l1.54-2.09a5.386,5.386,0,0,0-3.586-1.364A6.145,6.145,0,0,0,46.244-6.16C46.244-2.068,48.84.308,52.25.308ZM62,.308c3.08,0,5.918-2.376,5.918-6.468S65.076-12.628,62-12.628s-5.918,2.376-5.918,6.468S58.916.308,62,.308Zm0-2.64c-1.672,0-2.618-1.5-2.618-3.828,0-2.31.946-3.828,2.618-3.828S64.614-8.47,64.614-6.16C64.614-3.828,63.668-2.332,62-2.332Zm11.2,2.64A4.943,4.943,0,0,0,77.11-1.76H77.2L77.44,0h2.64V-12.32H76.846V-4a2.969,2.969,0,0,1-2.508,1.54c-1.188,0-1.716-.682-1.716-2.574V-12.32H69.388v7.7C69.388-1.54,70.532.308,73.194.308ZM82.434,0h3.234V-8.47A3.462,3.462,0,0,1,88.22-9.856c1.21,0,1.738.66,1.738,2.574V0h3.234V-7.678c0-3.1-1.144-4.95-3.806-4.95a5.678,5.678,0,0,0-4,1.936h-.066l-.242-1.628h-2.64ZM99.946.308a7.962,7.962,0,0,0,2.6-.462l-.528-2.354a3.6,3.6,0,0,1-1.21.264c-1.1,0-1.672-.66-1.672-2.068V-9.768h3.036V-12.32H99.132v-3.322H96.448l-.374,3.322-1.914.154v2.4H95.9v5.456C95.9-1.562,97.02.308,99.946.308ZM103.576,0h3.234V-7.348c.682-1.782,1.848-2.42,2.816-2.42a4.115,4.115,0,0,1,1.3.2l.55-2.794a3.485,3.485,0,0,0-1.452-.264,4.268,4.268,0,0,0-3.5,2.486h-.066l-.242-2.178h-2.64Zm8.492,0H115.3V-12.32h-3.234ZM113.7-14.3a1.733,1.733,0,0,0,1.87-1.782,1.728,1.728,0,0,0-1.87-1.76,1.735,1.735,0,0,0-1.892,1.76A1.74,1.74,0,0,0,113.7-14.3ZM123.024.308a7.756,7.756,0,0,0,4.29-1.364l-1.1-1.98a5.078,5.078,0,0,1-2.772.858,3.237,3.237,0,0,1-3.41-3.08h7.59a6.08,6.08,0,0,0,.154-1.5c0-3.388-1.76-5.874-5.148-5.874-2.926,0-5.742,2.486-5.742,6.468C116.886-2.09,119.57.308,123.024.308Zm-3.036-7.722a2.773,2.773,0,0,1,2.684-2.706c1.584,0,2.332,1.056,2.332,2.706ZM132.858.308c3.212,0,4.906-1.738,4.906-3.894,0-2.288-1.8-3.1-3.432-3.718-1.3-.484-2.442-.814-2.442-1.716,0-.7.528-1.188,1.65-1.188a4.586,4.586,0,0,1,2.64,1.056l1.452-1.958a6.829,6.829,0,0,0-4.18-1.518c-2.816,0-4.6,1.562-4.6,3.762,0,2.068,1.738,3.014,3.3,3.608,1.3.506,2.574.924,2.574,1.848,0,.77-.55,1.3-1.782,1.3a5.349,5.349,0,0,1-3.3-1.342L128.172-1.43A7.814,7.814,0,0,0,132.858.308Zm-259.985,31a5.793,5.793,0,0,0,3.718-1.628h.088l.22,1.32h2.64V23.806c0-3.564-1.606-5.434-4.73-5.434A9.842,9.842,0,0,0-130.339,20l1.166,2.134a6.961,6.961,0,0,1,3.388-1.166c1.518,0,2.046.924,2.112,2.134-4.972.528-7.106,1.914-7.106,4.554A3.5,3.5,0,0,0-127.127,31.308Zm1.056-2.53c-.946,0-1.628-.418-1.628-1.386,0-1.1,1.012-1.936,4.026-2.31v2.486A3.348,3.348,0,0,1-126.071,28.778Zm7.81,2.222h3.234V23.652c.682-1.782,1.848-2.42,2.816-2.42a4.115,4.115,0,0,1,1.3.2l.55-2.794a3.485,3.485,0,0,0-1.452-.264,4.268,4.268,0,0,0-3.5,2.486h-.066l-.242-2.178h-2.64Zm13.6.308a7.756,7.756,0,0,0,4.29-1.364l-1.1-1.98a5.078,5.078,0,0,1-2.772.858,3.237,3.237,0,0,1-3.41-3.08h7.59a6.08,6.08,0,0,0,.154-1.5c0-3.388-1.76-5.874-5.148-5.874-2.926,0-5.742,2.486-5.742,6.468C-110.8,28.91-108.119,31.308-104.665,31.308Zm-3.036-7.722a2.773,2.773,0,0,1,2.684-2.706c1.584,0,2.332,1.056,2.332,2.706Zm16.764,7.722c3.212,0,4.906-1.738,4.906-3.894,0-2.288-1.8-3.1-3.432-3.718-1.3-.484-2.442-.814-2.442-1.716,0-.7.528-1.188,1.65-1.188a4.586,4.586,0,0,1,2.64,1.056l1.452-1.958a6.829,6.829,0,0,0-4.18-1.518c-2.816,0-4.6,1.562-4.6,3.762,0,2.068,1.738,3.014,3.3,3.608,1.3.506,2.574.924,2.574,1.848,0,.77-.55,1.3-1.782,1.3a5.349,5.349,0,0,1-3.3-1.342l-1.474,2.024A7.815,7.815,0,0,0-90.937,31.308Zm10.274,0a7.962,7.962,0,0,0,2.6-.462l-.528-2.354a3.6,3.6,0,0,1-1.21.264c-1.1,0-1.672-.66-1.672-2.068V21.232h3.036V18.68h-3.036V15.358h-2.684l-.374,3.322-1.914.154v2.4h1.738v5.456C-84.711,29.438-83.589,31.308-80.663,31.308Zm7.3,0a4.943,4.943,0,0,0,3.916-2.068h.088l.242,1.76h2.64V18.68h-3.234V27a2.969,2.969,0,0,1-2.508,1.54c-1.188,0-1.716-.682-1.716-2.574V18.68h-3.234v7.7C-77.165,29.46-76.021,31.308-73.359,31.308Zm13.574,0a5.11,5.11,0,0,0,3.41-1.584h.088L-56.045,31h2.618V13.444h-3.212v4.334l.11,1.936a4.24,4.24,0,0,0-3.124-1.342c-2.662,0-5.17,2.464-5.17,6.468C-64.823,28.888-62.843,31.308-59.785,31.308Zm.836-2.662c-1.628,0-2.552-1.276-2.552-3.828,0-2.464,1.166-3.784,2.552-3.784a3.322,3.322,0,0,1,2.31.924V27.37A2.8,2.8,0,0,1-58.949,28.646Zm8.976,7.3c2.75,0,4.07-1.672,5.148-4.576l4.378-12.694h-3.1l-1.694,5.72c-.286,1.144-.594,2.332-.88,3.476h-.11c-.352-1.188-.66-2.376-1.034-3.476l-1.958-5.72h-3.256l4.8,12.1-.22.726a2.358,2.358,0,0,1-2.31,1.87,3.313,3.313,0,0,1-.858-.154l-.594,2.486A5.217,5.217,0,0,0-49.973,35.95ZM-39.523,31h3.234V18.68h-3.234Zm1.628-14.3a1.733,1.733,0,0,0,1.87-1.782,1.728,1.728,0,0,0-1.87-1.76,1.735,1.735,0,0,0-1.892,1.76A1.74,1.74,0,0,0-37.895,16.7Zm3.96,14.3H-30.7V22.53a3.462,3.462,0,0,1,2.552-1.386c1.21,0,1.738.66,1.738,2.574V31h3.234V23.322c0-3.1-1.144-4.95-3.806-4.95a5.678,5.678,0,0,0-4,1.936h-.066l-.242-1.628h-2.64ZM-16.6,36.346c4.114,0,6.71-1.892,6.71-4.378,0-2.156-1.628-3.08-4.6-3.08h-2.09c-1.452,0-1.936-.352-1.936-1.012a1.253,1.253,0,0,1,.528-1.056,5.247,5.247,0,0,0,1.584.286c2.64,0,4.752-1.408,4.752-4.18a3.253,3.253,0,0,0-.55-1.87h2.09V18.68h-4.444a5.8,5.8,0,0,0-1.848-.308c-2.618,0-4.972,1.562-4.972,4.444a4.036,4.036,0,0,0,1.65,3.234v.088a3.02,3.02,0,0,0-1.386,2.31,2.335,2.335,0,0,0,1.122,2.068v.11a2.991,2.991,0,0,0-1.76,2.552C-21.747,35.356-19.5,36.346-16.6,36.346Zm.2-11.242c-1.078,0-1.936-.814-1.936-2.288A1.979,1.979,0,0,1-16.4,20.572a1.979,1.979,0,0,1,1.936,2.244C-14.465,24.29-15.323,25.1-16.4,25.1Zm.286,9.2c-1.782,0-2.926-.594-2.926-1.628a1.818,1.818,0,0,1,.792-1.43,6.953,6.953,0,0,0,1.716.176h1.5c1.32,0,2.046.22,2.046,1.1C-12.991,33.486-14.267,34.3-16.115,34.3ZM-2.959,31h3.7l1.254-5.368c.264-1.144.44-2.288.682-3.586h.11c.242,1.3.44,2.42.7,3.586L4.785,31H8.591l3.036-12.32H8.635L7.293,24.752c-.22,1.21-.4,2.376-.616,3.608h-.11c-.264-1.232-.484-2.4-.77-3.608L4.257,18.68H1.4L-.1,24.752c-.308,1.188-.528,2.376-.77,3.608H-.957c-.22-1.232-.374-2.4-.616-3.608L-2.915,18.68H-6.149Zm15.84,0h3.234V18.68H12.881Zm1.628-14.3a1.774,1.774,0,1,0,0-3.542,1.775,1.775,0,1,0,0,3.542Zm8.47,14.608a7.962,7.962,0,0,0,2.6-.462l-.528-2.354a3.6,3.6,0,0,1-1.21.264c-1.1,0-1.672-.66-1.672-2.068V21.232H25.2V18.68H22.165V15.358H19.481l-.374,3.322-1.914.154v2.4h1.738v5.456C18.931,29.438,20.053,31.308,22.979,31.308ZM26.609,31h3.234V22.53A3.462,3.462,0,0,1,32.4,21.144c1.21,0,1.738.66,1.738,2.574V31h3.234V23.322c0-3.1-1.144-4.95-3.806-4.95a5.607,5.607,0,0,0-3.872,1.8l.154-2.31V13.444H26.609Zm17.138,0h2.926V24.2c0-1.54-.264-3.806-.418-5.346h.088l1.3,3.828,2.53,6.842h1.87l2.508-6.842,1.32-3.828h.11c-.176,1.54-.418,3.806-.418,5.346V31h2.97V14.7H54.923l-2.706,7.634c-.352,1.012-.638,2.09-.99,3.124h-.11c-.33-1.034-.638-2.112-.99-3.124L47.355,14.7H43.747Zm20.46.308a5.793,5.793,0,0,0,3.718-1.628h.088l.22,1.32h2.64V23.806c0-3.564-1.606-5.434-4.73-5.434A9.842,9.842,0,0,0,60.995,20l1.166,2.134a6.961,6.961,0,0,1,3.388-1.166c1.518,0,2.046.924,2.112,2.134-4.972.528-7.106,1.914-7.106,4.554A3.5,3.5,0,0,0,64.207,31.308Zm1.056-2.53c-.946,0-1.628-.418-1.628-1.386,0-1.1,1.012-1.936,4.026-2.31v2.486A3.348,3.348,0,0,1,65.263,28.778Zm11.9,2.53a7.962,7.962,0,0,0,2.6-.462l-.528-2.354a3.6,3.6,0,0,1-1.21.264c-1.1,0-1.672-.66-1.672-2.068V21.232h3.036V18.68H76.351V15.358H73.667l-.374,3.322-1.914.154v2.4h1.738v5.456C73.117,29.438,74.239,31.308,77.165,31.308ZM80.795,31h3.234V22.53a3.462,3.462,0,0,1,2.552-1.386c1.21,0,1.738.66,1.738,2.574V31h3.234V23.322c0-3.1-1.144-4.95-3.806-4.95a5.607,5.607,0,0,0-3.872,1.8l.154-2.31V13.444H80.795Zm12.98,4.73h3.234V31.99l-.11-2.024a4.579,4.579,0,0,0,3.058,1.342c2.706,0,5.236-2.442,5.236-6.666,0-3.784-1.8-6.27-4.84-6.27a5.849,5.849,0,0,0-3.63,1.584h-.066l-.242-1.276h-2.64Zm5.456-7.084a3.357,3.357,0,0,1-2.222-.924V22.31a3.393,3.393,0,0,1,2.42-1.276c1.694,0,2.442,1.3,2.442,3.652C101.871,27.37,100.727,28.646,99.231,28.646ZM106.843,31h3.234V18.68h-3.234Zm1.628-14.3a1.775,1.775,0,1,0-1.892-1.782A1.733,1.733,0,0,0,108.471,16.7Zm8.294,14.608a5.11,5.11,0,0,0,3.41-1.584h.088L120.5,31h2.618V13.444h-3.212v4.334l.11,1.936a4.24,4.24,0,0,0-3.124-1.342c-2.662,0-5.17,2.464-5.17,6.468C111.727,28.888,113.707,31.308,116.765,31.308Zm.836-2.662c-1.628,0-2.552-1.276-2.552-3.828,0-2.464,1.166-3.784,2.552-3.784a3.322,3.322,0,0,1,2.31.924V27.37A2.8,2.8,0,0,1,117.6,28.646Zm9.174-3.19h2.112l.462-8.118.11-3.058H126.2l.11,3.058Zm1.056,5.852a2.114,2.114,0,0,0,0-4.224,2.115,2.115,0,0,0,0,4.224Z" transform="translate(180 273.044)" fill="#00c3e1"/><path d="M101.275,38.914l4.881-4.024a.979.979,0,0,0-.571-1.738L99.3,32.771a.986.986,0,0,1-.857-.619l-2.309-5.9a.985.985,0,0,0-1.833,0l-2.309,5.881a.986.986,0,0,1-.857.619l-6.309.381a.979.979,0,0,0-.571,1.738l4.881,4a1,1,0,0,1,.333,1l-1.6,6.119a.981.981,0,0,0,1.476,1.071l5.309-3.4a.934.934,0,0,1,1.048,0l5.333,3.4a.981.981,0,0,0,1.476-1.071l-1.6-6.1a.978.978,0,0,1,.357-.976Z" transform="translate(32.296 304.466)" fill="#ffc823"/><path d="M101.275,38.914l4.881-4.024a.979.979,0,0,0-.571-1.738L99.3,32.771a.986.986,0,0,1-.857-.619l-2.309-5.9a.985.985,0,0,0-1.833,0l-2.309,5.881a.986.986,0,0,1-.857.619l-6.309.381a.979.979,0,0,0-.571,1.738l4.881,4a1,1,0,0,1,.333,1l-1.6,6.119a.981.981,0,0,0,1.476,1.071l5.309-3.4a.934.934,0,0,1,1.048,0l5.333,3.4a.981.981,0,0,0,1.476-1.071l-1.6-6.1a.978.978,0,0,1,.357-.976Z" transform="translate(58.296 304.466)" fill="#ffc823"/><path d="M101.275,38.914l4.881-4.024a.979.979,0,0,0-.571-1.738L99.3,32.771a.986.986,0,0,1-.857-.619l-2.309-5.9a.985.985,0,0,0-1.833,0l-2.309,5.881a.986.986,0,0,1-.857.619l-6.309.381a.979.979,0,0,0-.571,1.738l4.881,4a1,1,0,0,1,.333,1l-1.6,6.119a.981.981,0,0,0,1.476,1.071l5.309-3.4a.934.934,0,0,1,1.048,0l5.333,3.4a.981.981,0,0,0,1.476-1.071l-1.6-6.1a.978.978,0,0,1,.357-.976Z" transform="translate(84.296 304.466)" fill="#ffc823"/><path d="M101.275,38.914l4.881-4.024a.979.979,0,0,0-.571-1.738L99.3,32.771a.986.986,0,0,1-.857-.619l-2.309-5.9a.985.985,0,0,0-1.833,0l-2.309,5.881a.986.986,0,0,1-.857.619l-6.309.381a.979.979,0,0,0-.571,1.738l4.881,4a1,1,0,0,1,.333,1l-1.6,6.119a.981.981,0,0,0,1.476,1.071l5.309-3.4a.934.934,0,0,1,1.048,0l5.333,3.4a.981.981,0,0,0,1.476-1.071l-1.6-6.1a.978.978,0,0,1,.357-.976Z" transform="translate(110.296 304.466)" fill="#ffc823"/><path d="M101.275,38.914l4.881-4.024a.979.979,0,0,0-.571-1.738L99.3,32.771a.986.986,0,0,1-.857-.619l-2.309-5.9a.985.985,0,0,0-1.833,0l-2.309,5.881a.986.986,0,0,1-.857.619l-6.309.381a.979.979,0,0,0-.571,1.738l4.881,4a1,1,0,0,1,.333,1l-1.6,6.119a.981.981,0,0,0,1.476,1.071l5.309-3.4a.934.934,0,0,1,1.048,0l5.333,3.4a.981.981,0,0,0,1.476-1.071l-1.6-6.1a.978.978,0,0,1,.357-.976Z" transform="translate(136.296 304.466)" fill="#ffc823"/><path d="M0,0H52.524V10.708H0Z" transform="translate(143.501 380.907)" fill="#ffc823"/><path d="M-144.767,0h1.176V-5.684c0-.882-.1-2.128-.154-3.024h.056l.812,2.338,1.946,5.334h.868l1.946-5.334.812-2.338h.056c-.07.9-.168,2.142-.168,3.024V0h1.218V-10.276h-1.568l-1.96,5.5c-.238.714-.462,1.428-.7,2.142h-.07c-.252-.714-.49-1.428-.728-2.142l-1.974-5.5h-1.568Zm12.656.182a4.073,4.073,0,0,0,2.52-1.092h.042l.112.91h1.05V-4.676c0-1.876-.784-3.122-2.632-3.122a5.718,5.718,0,0,0-3,.994l.5.882a4.188,4.188,0,0,1,2.282-.812c1.246,0,1.568.938,1.568,1.918-3.234.364-4.676,1.19-4.676,2.842A2.061,2.061,0,0,0-132.111.182Zm.364-1.022c-.756,0-1.344-.35-1.344-1.218,0-.98.868-1.61,3.43-1.918v2.128A3.107,3.107,0,0,1-131.747-.84Zm7.616,1.022a4.786,4.786,0,0,0,1.4-.28l-.252-.952a2.693,2.693,0,0,1-.868.2c-.882,0-1.176-.532-1.176-1.47V-6.566h2.058V-7.6h-2.058V-9.744h-1.064l-.154,2.142-1.19.07v.966h1.134v4.214C-126.3-.84-125.755.182-124.131.182ZM-121.6,0h1.274V-5.516a2.891,2.891,0,0,1,2.086-1.162c1.008,0,1.442.6,1.442,2.03V0h1.274V-4.816c0-1.946-.728-2.982-2.324-2.982a3.569,3.569,0,0,0-2.52,1.274l.042-1.568v-3.052H-121.6Zm8.148,3.206h1.274V.63L-112.2-.7a3.43,3.43,0,0,0,2.1.882c1.75,0,3.3-1.5,3.3-4.1,0-2.338-1.064-3.878-3.024-3.878a4.054,4.054,0,0,0-2.422,1.064h-.042L-112.4-7.6h-1.05Zm3.136-4.088a2.946,2.946,0,0,1-1.862-.8V-5.67a3.169,3.169,0,0,1,2.044-1.05c1.442,0,2,1.134,2,2.814C-108.129-2.016-109.053-.882-110.313-.882Zm5.194.882h1.274V-7.6h-1.274Zm.644-9.17a.808.808,0,0,0,.854-.854.8.8,0,0,0-.854-.826.8.8,0,0,0-.854.826A.808.808,0,0,0-104.475-9.17ZM-99.029.182A3.391,3.391,0,0,0-96.719-.9h.042l.112.9h1.036V-11.144h-1.26v2.926l.056,1.316a3.093,3.093,0,0,0-2.142-.9c-1.736,0-3.29,1.54-3.29,4C-102.165-1.26-100.933.182-99.029.182Zm.28-1.064c-1.344,0-2.1-1.092-2.1-2.926,0-1.736.966-2.912,2.2-2.912a2.724,2.724,0,0,1,1.862.8v3.99A2.661,2.661,0,0,1-98.749-.882ZM-90.5,3.206h1.274V.63L-89.257-.7a3.43,3.43,0,0,0,2.1.882c1.75,0,3.3-1.5,3.3-4.1,0-2.338-1.064-3.878-3.024-3.878A4.054,4.054,0,0,0-89.3-6.734h-.042l-.112-.868H-90.5Zm3.136-4.088a2.946,2.946,0,0,1-1.862-.8V-5.67a3.169,3.169,0,0,1,2.044-1.05c1.442,0,2,1.134,2,2.814C-85.183-2.016-86.107-.882-87.367-.882ZM-82.173,0H-80.9V-4.886c.5-1.3,1.288-1.75,1.918-1.75a1.8,1.8,0,0,1,.742.126L-78-7.63a1.621,1.621,0,0,0-.812-.168,2.625,2.625,0,0,0-2.156,1.582h-.042L-81.123-7.6h-1.05Zm7.882.182c1.862,0,3.528-1.456,3.528-3.976s-1.666-4-3.528-4-3.528,1.47-3.528,4S-76.153.182-74.291.182Zm0-1.064c-1.316,0-2.2-1.162-2.2-2.912s.882-2.94,2.2-2.94,2.212,1.19,2.212,2.94S-72.975-.882-74.291-.882ZM-67.529,0h1.484l2.7-7.6H-64.6l-1.442,4.326c-.224.742-.462,1.526-.7,2.24H-66.8c-.238-.714-.476-1.5-.714-2.24L-68.943-7.6h-1.33Zm5.306,0h1.274V-7.6h-1.274Zm.644-9.17a.808.808,0,0,0,.854-.854.8.8,0,0,0-.854-.826.8.8,0,0,0-.854.826A.808.808,0,0,0-61.579-9.17ZM-56.133.182A3.391,3.391,0,0,0-53.823-.9h.042l.112.9h1.036V-11.144h-1.26v2.926l.056,1.316a3.093,3.093,0,0,0-2.142-.9c-1.736,0-3.29,1.54-3.29,4C-59.269-1.26-58.037.182-56.133.182Zm.28-1.064c-1.344,0-2.1-1.092-2.1-2.926,0-1.736.966-2.912,2.2-2.912a2.724,2.724,0,0,1,1.862.8v3.99A2.661,2.661,0,0,1-55.853-.882ZM-47.327.182A4.525,4.525,0,0,0-44.807-.6l-.462-.84a3.277,3.277,0,0,1-1.9.6,2.519,2.519,0,0,1-2.52-2.66h5.124a4.974,4.974,0,0,0,.056-.728c0-2.17-1.092-3.57-3.024-3.57-1.764,0-3.43,1.54-3.43,4A3.633,3.633,0,0,0-47.327.182Zm-2.38-4.606a2.335,2.335,0,0,1,2.184-2.352c1.19,0,1.89.826,1.89,2.352ZM-41,.182c1.792,0,2.772-1.022,2.772-2.254,0-1.442-1.218-1.89-2.324-2.31-.854-.322-1.638-.588-1.638-1.316,0-.588.448-1.092,1.414-1.092a2.783,2.783,0,0,1,1.722.672l.616-.826A3.864,3.864,0,0,0-40.789-7.8c-1.652,0-2.632.952-2.632,2.156,0,1.288,1.162,1.806,2.226,2.2.84.322,1.736.658,1.736,1.442,0,.658-.49,1.19-1.5,1.19a3.448,3.448,0,0,1-2.254-.9l-.63.84A4.585,4.585,0,0,0-41,.182Zm9.59.014c1.974,0,3.64-1.078,3.64-2.926a2.541,2.541,0,0,0-2.058-2.492v-.07A2.4,2.4,0,0,0-28.1-7.574c0-1.736-1.358-2.716-3.36-2.716A4.61,4.61,0,0,0-34.573-9l1.05,1.26a2.834,2.834,0,0,1,1.96-.924c.882,0,1.386.462,1.386,1.246,0,.868-.616,1.5-2.52,1.5v1.484c2.254,0,2.856.6,2.856,1.582,0,.868-.714,1.372-1.764,1.372a3.291,3.291,0,0,1-2.31-1.064l-.966,1.3A4.4,4.4,0,0,0-31.409.2Zm8.19,0c2.128,0,3.5-1.862,3.5-5.292,0-3.4-1.372-5.194-3.5-5.194S-26.733-8.512-26.733-5.1-25.347.2-23.219.2Zm0-1.61c-.9,0-1.568-.868-1.568-3.682s.672-3.584,1.568-3.584,1.554.784,1.554,3.584S-22.323-1.414-23.219-1.414Zm4.942,4.4A3.516,3.516,0,0,0-15.631-.462c0-1.274-.532-2.03-1.484-2.03a1.238,1.238,0,0,0-1.33,1.218A1.209,1.209,0,0,0-17.157-.056h.126c.014.784-.588,1.512-1.68,1.918ZM-11.123.2c2.128,0,3.5-1.862,3.5-5.292,0-3.4-1.372-5.194-3.5-5.194S-14.637-8.512-14.637-5.1-13.251.2-11.123.2Zm0-1.61c-.9,0-1.568-.868-1.568-3.682s.672-3.584,1.568-3.584S-9.569-7.9-9.569-5.1-10.227-1.414-11.123-1.414ZM-3.227.2C-1.1.2.273-1.666.273-5.1c0-3.4-1.372-5.194-3.5-5.194S-6.741-8.512-6.741-5.1-5.355.2-3.227.2Zm0-1.61c-.9,0-1.568-.868-1.568-3.682S-4.123-8.68-3.227-8.68-1.673-7.9-1.673-5.1-2.331-1.414-3.227-1.414ZM4.669.2C6.8.2,8.169-1.666,8.169-5.1c0-3.4-1.372-5.194-3.5-5.194S1.155-8.512,1.155-5.1,2.541.2,4.669.2Zm0-1.61c-.9,0-1.568-.868-1.568-3.682S3.773-8.68,4.669-8.68,6.223-7.9,6.223-5.1,5.565-1.414,4.669-1.414Zm7.126-.126h1.526V-4.508h2.828v-1.47H13.321V-8.96H11.795v2.982H8.967v1.47h2.828ZM22.155.182A4.073,4.073,0,0,0,24.675-.91h.042l.112.91h1.05V-4.676c0-1.876-.784-3.122-2.632-3.122a5.718,5.718,0,0,0-3,.994l.5.882a4.188,4.188,0,0,1,2.282-.812c1.246,0,1.568.938,1.568,1.918-3.234.364-4.676,1.19-4.676,2.842A2.061,2.061,0,0,0,22.155.182ZM22.519-.84c-.756,0-1.344-.35-1.344-1.218,0-.98.868-1.61,3.43-1.918v2.128A3.107,3.107,0,0,1,22.519-.84ZM27.951,0h1.274V-4.886c.5-1.3,1.288-1.75,1.918-1.75a1.8,1.8,0,0,1,.742.126l.238-1.12a1.621,1.621,0,0,0-.812-.168,2.625,2.625,0,0,0-2.156,1.582h-.042L29-7.6h-1.05Zm5.082,0h1.274V-7.6H33.033Zm.644-9.17a.808.808,0,0,0,.854-.854.8.8,0,0,0-.854-.826.8.8,0,0,0-.854.826A.808.808,0,0,0,33.677-9.17ZM38.927.182a4.786,4.786,0,0,0,1.4-.28l-.252-.952a2.693,2.693,0,0,1-.868.2c-.882,0-1.176-.532-1.176-1.47V-6.566h2.058V-7.6H38.031V-9.744H36.967L36.813-7.6l-1.19.07v.966h1.134v4.214C36.757-.84,37.3.182,38.927.182ZM41.461,0h1.274V-5.516a2.891,2.891,0,0,1,2.086-1.162c1.008,0,1.442.6,1.442,2.03V0h1.274V-4.816c0-1.946-.728-2.982-2.324-2.982a3.569,3.569,0,0,0-2.52,1.274l.042-1.568v-3.052H41.461Zm8.148,0h1.274V-5.516A2.808,2.808,0,0,1,52.8-6.678c.966,0,1.414.6,1.414,2.03V0h1.274V-5.516a2.808,2.808,0,0,1,1.918-1.162c.966,0,1.414.6,1.414,2.03V0H60.1V-4.816c0-1.946-.742-2.982-2.31-2.982a3.594,3.594,0,0,0-2.506,1.456,2,2,0,0,0-2.1-1.456,3.34,3.34,0,0,0-2.366,1.3h-.042L50.659-7.6h-1.05ZM63.973.182A4.073,4.073,0,0,0,66.493-.91h.042l.112.91H67.7V-4.676c0-1.876-.784-3.122-2.632-3.122a5.718,5.718,0,0,0-3,.994l.5.882a4.188,4.188,0,0,1,2.282-.812c1.246,0,1.568.938,1.568,1.918-3.234.364-4.676,1.19-4.676,2.842A2.061,2.061,0,0,0,63.973.182ZM64.337-.84c-.756,0-1.344-.35-1.344-1.218,0-.98.868-1.61,3.43-1.918v2.128A3.107,3.107,0,0,1,64.337-.84ZM71.953.182a4.786,4.786,0,0,0,1.4-.28L73.1-1.05a2.693,2.693,0,0,1-.868.2c-.882,0-1.176-.532-1.176-1.47V-6.566h2.058V-7.6H71.057V-9.744H69.993L69.839-7.6l-1.19.07v.966h1.134v4.214C69.783-.84,70.329.182,71.953.182ZM74.487,0h1.274V-7.6H74.487Zm.644-9.17a.808.808,0,0,0,.854-.854.8.8,0,0,0-.854-.826.8.8,0,0,0-.854.826A.808.808,0,0,0,75.131-9.17ZM80.983.182a3.686,3.686,0,0,0,2.464-.966l-.56-.854a2.68,2.68,0,0,1-1.792.756c-1.4,0-2.352-1.162-2.352-2.912s1.008-2.94,2.394-2.94a2.248,2.248,0,0,1,1.512.672l.658-.84a3.25,3.25,0,0,0-2.226-.9,3.7,3.7,0,0,0-3.668,4C77.413-1.274,78.967.182,80.983.182Zm6.566,3.024h1.274V.63L88.795-.7a3.43,3.43,0,0,0,2.1.882c1.75,0,3.3-1.5,3.3-4.1,0-2.338-1.064-3.878-3.024-3.878a4.054,4.054,0,0,0-2.422,1.064h-.042L88.6-7.6h-1.05ZM90.685-.882a2.946,2.946,0,0,1-1.862-.8V-5.67a3.169,3.169,0,0,1,2.044-1.05c1.442,0,2,1.134,2,2.814C92.869-2.016,91.945-.882,90.685-.882ZM95.879,0h1.274V-4.886c.5-1.3,1.288-1.75,1.918-1.75a1.8,1.8,0,0,1,.742.126l.238-1.12a1.621,1.621,0,0,0-.812-.168,2.625,2.625,0,0,0-2.156,1.582h-.042L96.929-7.6h-1.05Zm7.882.182c1.862,0,3.528-1.456,3.528-3.976s-1.666-4-3.528-4-3.528,1.47-3.528,4S101.9.182,103.761.182Zm0-1.064c-1.316,0-2.2-1.162-2.2-2.912s.882-2.94,2.2-2.94,2.212,1.19,2.212,2.94S105.077-.882,103.761-.882ZM112.287.182c1.75,0,3.3-1.5,3.3-4.116,0-2.324-1.064-3.864-3.038-3.864a3.83,3.83,0,0,0-2.38,1.078l.042-1.372v-3.052h-1.274V0h1.022l.112-.784h.056A3.377,3.377,0,0,0,112.287.182Zm-.21-1.064a2.918,2.918,0,0,1-1.862-.8V-5.67a3.139,3.139,0,0,1,2.044-1.05c1.442,0,2,1.134,2,2.814C114.261-2.016,113.337-.882,112.077-.882Zm6.51,1.064a1.961,1.961,0,0,0,.742-.112l-.182-.98a1.118,1.118,0,0,1-.266.028c-.2,0-.364-.154-.364-.546v-9.716h-1.274v9.632C117.243-.434,117.635.182,118.587.182Zm5.362,0a4.525,4.525,0,0,0,2.52-.784l-.462-.84a3.277,3.277,0,0,1-1.9.6,2.519,2.519,0,0,1-2.52-2.66h5.124a4.974,4.974,0,0,0,.056-.728c0-2.17-1.092-3.57-3.024-3.57-1.764,0-3.43,1.54-3.43,4A3.633,3.633,0,0,0,123.949.182Zm-2.38-4.606a2.335,2.335,0,0,1,2.184-2.352c1.19,0,1.89.826,1.89,2.352ZM128.289,0h1.274V-5.516a2.808,2.808,0,0,1,1.918-1.162c.966,0,1.414.6,1.414,2.03V0h1.274V-5.516a2.808,2.808,0,0,1,1.918-1.162c.966,0,1.414.6,1.414,2.03V0h1.274V-4.816c0-1.946-.742-2.982-2.31-2.982a3.594,3.594,0,0,0-2.506,1.456,2,2,0,0,0-2.1-1.456,3.34,3.34,0,0,0-2.366,1.3h-.042L129.339-7.6h-1.05Zm14.6.182c1.792,0,2.772-1.022,2.772-2.254,0-1.442-1.218-1.89-2.324-2.31C142.485-4.7,141.7-4.97,141.7-5.7c0-.588.448-1.092,1.414-1.092a2.783,2.783,0,0,1,1.722.672l.616-.826A3.864,3.864,0,0,0,143.1-7.8c-1.652,0-2.632.952-2.632,2.156,0,1.288,1.162,1.806,2.226,2.2.84.322,1.736.658,1.736,1.442,0,.658-.49,1.19-1.5,1.19a3.448,3.448,0,0,1-2.254-.9l-.63.84A4.585,4.585,0,0,0,142.891.182Zm-262.57,18a4.073,4.073,0,0,0,2.52-1.092h.042l.112.91h1.05V13.324c0-1.876-.784-3.122-2.632-3.122a5.718,5.718,0,0,0-3,.994l.5.882a4.188,4.188,0,0,1,2.282-.812c1.246,0,1.568.938,1.568,1.918-3.234.364-4.676,1.19-4.676,2.842A2.061,2.061,0,0,0-119.679,18.182Zm.364-1.022c-.756,0-1.344-.35-1.344-1.218,0-.98.868-1.61,3.43-1.918v2.128A3.107,3.107,0,0,1-119.315,17.16Zm5.432.84h1.274V12.484a2.891,2.891,0,0,1,2.086-1.162c1.008,0,1.442.6,1.442,2.03V18h1.274V13.184c0-1.946-.728-2.982-2.324-2.982a3.646,3.646,0,0,0-2.548,1.288h-.042l-.112-1.092h-1.05Zm10.794.182a3.391,3.391,0,0,0,2.31-1.078h.042l.112.9h1.036V6.856h-1.26V9.782l.056,1.316a3.093,3.093,0,0,0-2.142-.9c-1.736,0-3.29,1.54-3.29,4C-106.225,16.74-104.993,18.182-103.089,18.182Zm.28-1.064c-1.344,0-2.1-1.092-2.1-2.926,0-1.736.966-2.912,2.2-2.912a2.724,2.724,0,0,1,1.862.8v3.99A2.661,2.661,0,0,1-102.809,17.118Zm11.242,1.064a3.686,3.686,0,0,0,2.464-.966l-.56-.854a2.68,2.68,0,0,1-1.792.756c-1.4,0-2.352-1.162-2.352-2.912s1.008-2.94,2.394-2.94a2.248,2.248,0,0,1,1.512.672l.658-.84a3.25,3.25,0,0,0-2.226-.9,3.7,3.7,0,0,0-3.668,4C-95.137,16.726-93.583,18.182-91.567,18.182Zm5.992,0a3.261,3.261,0,0,0,2.52-1.372h.042l.1,1.19h1.064V10.4h-1.274v5.39c-.728.91-1.274,1.288-2.058,1.288-1.008,0-1.428-.6-1.428-2.016V10.4h-1.274v4.816C-87.885,17.146-87.171,18.182-85.575,18.182ZM-79.639,18h1.274V13.114c.5-1.3,1.288-1.75,1.918-1.75a1.8,1.8,0,0,1,.742.126l.238-1.12a1.621,1.621,0,0,0-.812-.168,2.625,2.625,0,0,0-2.156,1.582h-.042l-.112-1.386h-1.05Zm5.082,0h1.274V13.114c.5-1.3,1.288-1.75,1.918-1.75a1.8,1.8,0,0,1,.742.126l.238-1.12A1.621,1.621,0,0,0-71.2,10.2a2.625,2.625,0,0,0-2.156,1.582H-73.4l-.112-1.386h-1.05Zm5.082,0H-68.2V10.4h-1.274Zm.644-9.17a.808.808,0,0,0,.854-.854.8.8,0,0,0-.854-.826.8.8,0,0,0-.854.826A.808.808,0,0,0-68.831,8.83Zm5.852,9.352a3.686,3.686,0,0,0,2.464-.966l-.56-.854a2.68,2.68,0,0,1-1.792.756c-1.4,0-2.352-1.162-2.352-2.912s1.008-2.94,2.394-2.94a2.248,2.248,0,0,1,1.512.672l.658-.84a3.25,3.25,0,0,0-2.226-.9,3.7,3.7,0,0,0-3.668,4C-66.549,16.726-65,18.182-62.979,18.182Zm5.992,0a3.261,3.261,0,0,0,2.52-1.372h.042l.1,1.19h1.064V10.4h-1.274v5.39c-.728.91-1.274,1.288-2.058,1.288-1.008,0-1.428-.6-1.428-2.016V10.4H-59.3v4.816C-59.3,17.146-58.583,18.182-56.987,18.182Zm7.28,0a1.961,1.961,0,0,0,.742-.112l-.182-.98a1.118,1.118,0,0,1-.266.028c-.2,0-.364-.154-.364-.546V6.856h-1.274v9.632C-51.051,17.566-50.659,18.182-49.707,18.182Zm4.508,0a3.261,3.261,0,0,0,2.52-1.372h.042l.1,1.19h1.064V10.4h-1.274v5.39c-.728.91-1.274,1.288-2.058,1.288-1.008,0-1.428-.6-1.428-2.016V10.4h-1.274v4.816C-47.509,17.146-46.8,18.182-45.2,18.182ZM-39.263,18h1.274V12.484a2.808,2.808,0,0,1,1.918-1.162c.966,0,1.414.6,1.414,2.03V18h1.274V12.484a2.808,2.808,0,0,1,1.918-1.162c.966,0,1.414.6,1.414,2.03V18h1.274V13.184c0-1.946-.742-2.982-2.31-2.982a3.594,3.594,0,0,0-2.506,1.456,2,2,0,0,0-2.1-1.456,3.34,3.34,0,0,0-2.366,1.3H-38.1l-.112-1.106h-1.05Zm17.15.182a4.073,4.073,0,0,0,2.52-1.092h.042l.112.91h1.05V13.324c0-1.876-.784-3.122-2.632-3.122a5.718,5.718,0,0,0-3,.994l.5.882a4.188,4.188,0,0,1,2.282-.812c1.246,0,1.568.938,1.568,1.918-3.234.364-4.676,1.19-4.676,2.842A2.061,2.061,0,0,0-22.113,18.182Zm.364-1.022c-.756,0-1.344-.35-1.344-1.218,0-.98.868-1.61,3.43-1.918v2.128A3.107,3.107,0,0,1-21.749,17.16Zm6.776,1.022a1.961,1.961,0,0,0,.742-.112l-.182-.98a1.118,1.118,0,0,1-.266.028c-.2,0-.364-.154-.364-.546V6.856h-1.274v9.632C-16.317,17.566-15.925,18.182-14.973,18.182Zm2.3-.182H-11.4V10.4h-1.274Zm.644-9.17a.808.808,0,0,0,.854-.854.8.8,0,0,0-.854-.826.8.8,0,0,0-.854.826A.808.808,0,0,0-12.033,8.83ZM-6.615,21.5c2.352,0,3.85-1.218,3.85-2.632,0-1.246-.9-1.806-2.66-1.806H-6.909c-1.022,0-1.33-.336-1.33-.826a1.132,1.132,0,0,1,.49-.91,2.644,2.644,0,0,0,1.134.266,2.607,2.607,0,0,0,2.772-2.646,2.171,2.171,0,0,0-.616-1.568h1.554V10.4H-5.551a3.136,3.136,0,0,0-1.064-.2,2.708,2.708,0,0,0-2.856,2.716,2.669,2.669,0,0,0,.994,2.044v.056a1.855,1.855,0,0,0-.854,1.414,1.375,1.375,0,0,0,.7,1.246v.056a2.133,2.133,0,0,0-1.12,1.722C-9.751,20.772-8.477,21.5-6.615,21.5Zm0-6.776a1.666,1.666,0,0,1-1.624-1.806A1.625,1.625,0,0,1-6.615,11.14a1.633,1.633,0,0,1,1.624,1.778A1.674,1.674,0,0,1-6.615,14.724Zm.182,5.908c-1.372,0-2.2-.532-2.2-1.344A1.584,1.584,0,0,1-7.861,18a4.276,4.276,0,0,0,.98.126h1.316c1.008,0,1.554.238,1.554.938C-4.011,19.862-4.977,20.632-6.433,20.632ZM-1.645,18H-.371V12.484a2.891,2.891,0,0,1,2.086-1.162c1.008,0,1.442.6,1.442,2.03V18H4.431V13.184c0-1.946-.728-2.982-2.324-2.982A3.646,3.646,0,0,0-.441,11.49H-.483L-.6,10.4h-1.05Zm11.27.182a4.525,4.525,0,0,0,2.52-.784l-.462-.84a3.277,3.277,0,0,1-1.9.6,2.519,2.519,0,0,1-2.52-2.66h5.124a4.974,4.974,0,0,0,.056-.728c0-2.17-1.092-3.57-3.024-3.57-1.764,0-3.43,1.54-3.43,4A3.633,3.633,0,0,0,9.625,18.182Zm-2.38-4.606a2.335,2.335,0,0,1,2.184-2.352c1.19,0,1.89.826,1.89,2.352Zm9.31,4.606a3.391,3.391,0,0,0,2.31-1.078h.042l.112.9h1.036V6.856H18.8V9.782l.056,1.316a3.093,3.093,0,0,0-2.142-.9c-1.736,0-3.29,1.54-3.29,4C13.419,16.74,14.651,18.182,16.555,18.182Zm.28-1.064c-1.344,0-2.1-1.092-2.1-2.926,0-1.736.966-2.912,2.2-2.912a2.724,2.724,0,0,1,1.862.8v3.99A2.661,2.661,0,0,1,16.835,17.118Zm9.59,1.064a1.961,1.961,0,0,0,.742-.112l-.182-.98a1.118,1.118,0,0,1-.266.028c-.2,0-.364-.154-.364-.546V6.856H25.081v9.632C25.081,17.566,25.473,18.182,26.425,18.182Zm5.362,0a4.525,4.525,0,0,0,2.52-.784l-.462-.84a3.277,3.277,0,0,1-1.9.6,2.519,2.519,0,0,1-2.52-2.66h5.124a4.974,4.974,0,0,0,.056-.728c0-2.17-1.092-3.57-3.024-3.57-1.764,0-3.43,1.54-3.43,4A3.633,3.633,0,0,0,31.787,18.182Zm-2.38-4.606a2.335,2.335,0,0,1,2.184-2.352c1.19,0,1.89.826,1.89,2.352Zm8.246,4.606a4.073,4.073,0,0,0,2.52-1.092h.042l.112.91h1.05V13.324c0-1.876-.784-3.122-2.632-3.122a5.718,5.718,0,0,0-3,.994l.5.882a4.188,4.188,0,0,1,2.282-.812c1.246,0,1.568.938,1.568,1.918-3.234.364-4.676,1.19-4.676,2.842A2.061,2.061,0,0,0,37.653,18.182Zm.364-1.022c-.756,0-1.344-.35-1.344-1.218,0-.98.868-1.61,3.43-1.918v2.128A3.107,3.107,0,0,1,38.017,17.16Zm5.432.84h1.274V13.114c.5-1.3,1.288-1.75,1.918-1.75a1.8,1.8,0,0,1,.742.126l.238-1.12a1.621,1.621,0,0,0-.812-.168,2.625,2.625,0,0,0-2.156,1.582h-.042L44.5,10.4h-1.05Zm5.082,0h1.274V12.484a2.891,2.891,0,0,1,2.086-1.162c1.008,0,1.442.6,1.442,2.03V18h1.274V13.184c0-1.946-.728-2.982-2.324-2.982a3.646,3.646,0,0,0-2.548,1.288h-.042L49.581,10.4h-1.05Zm8.2,0h1.274V10.4H56.735Zm.644-9.17a.84.84,0,1,0-.854-.854A.808.808,0,0,0,57.379,8.83ZM60.235,18h1.274V12.484A2.891,2.891,0,0,1,63.6,11.322c1.008,0,1.442.6,1.442,2.03V18h1.274V13.184c0-1.946-.728-2.982-2.324-2.982a3.646,3.646,0,0,0-2.548,1.288H61.4L61.285,10.4h-1.05ZM71,21.5c2.352,0,3.85-1.218,3.85-2.632,0-1.246-.9-1.806-2.66-1.806H70.707c-1.022,0-1.33-.336-1.33-.826a1.132,1.132,0,0,1,.49-.91A2.644,2.644,0,0,0,71,15.592a2.607,2.607,0,0,0,2.772-2.646,2.171,2.171,0,0,0-.616-1.568h1.554V10.4H72.065A3.136,3.136,0,0,0,71,10.2a2.708,2.708,0,0,0-2.856,2.716,2.669,2.669,0,0,0,.994,2.044v.056a1.855,1.855,0,0,0-.854,1.414,1.375,1.375,0,0,0,.7,1.246v.056a2.133,2.133,0,0,0-1.12,1.722C67.865,20.772,69.139,21.5,71,21.5Zm0-6.776a1.666,1.666,0,0,1-1.624-1.806,1.631,1.631,0,1,1,3.248,0A1.674,1.674,0,0,1,71,14.724Zm.182,5.908c-1.372,0-2.2-.532-2.2-1.344A1.584,1.584,0,0,1,69.755,18a4.276,4.276,0,0,0,.98.126h1.316c1.008,0,1.554.238,1.554.938C73.605,19.862,72.639,20.632,71.183,20.632Zm10.57-2.45a3.686,3.686,0,0,0,2.464-.966l-.56-.854a2.68,2.68,0,0,1-1.792.756c-1.4,0-2.352-1.162-2.352-2.912s1.008-2.94,2.394-2.94a2.248,2.248,0,0,1,1.512.672l.658-.84a3.25,3.25,0,0,0-2.226-.9,3.7,3.7,0,0,0-3.668,4C78.183,16.726,79.737,18.182,81.753,18.182Zm6.4,0c1.862,0,3.528-1.456,3.528-3.976s-1.666-4-3.528-4-3.528,1.47-3.528,4S86.289,18.182,88.151,18.182Zm0-1.064c-1.316,0-2.2-1.162-2.2-2.912s.882-2.94,2.2-2.94,2.212,1.19,2.212,2.94S89.467,17.118,88.151,17.118Zm7.392,1.064a3.261,3.261,0,0,0,2.52-1.372H98.1L98.2,18h1.064V10.4H97.993v5.39c-.728.91-1.274,1.288-2.058,1.288-1.008,0-1.428-.6-1.428-2.016V10.4H93.233v4.816C93.233,17.146,93.947,18.182,95.543,18.182ZM101.479,18h1.274V13.114c.5-1.3,1.288-1.75,1.918-1.75a1.8,1.8,0,0,1,.742.126l.238-1.12a1.621,1.621,0,0,0-.812-.168,2.625,2.625,0,0,0-2.156,1.582h-.042l-.112-1.386h-1.05Zm7.014.182c1.792,0,2.772-1.022,2.772-2.254,0-1.442-1.218-1.89-2.324-2.31-.854-.322-1.638-.588-1.638-1.316,0-.588.448-1.092,1.414-1.092a2.783,2.783,0,0,1,1.722.672l.616-.826A3.864,3.864,0,0,0,108.7,10.2c-1.652,0-2.632.952-2.632,2.156,0,1.288,1.162,1.806,2.226,2.2.84.322,1.736.658,1.736,1.442,0,.658-.49,1.19-1.5,1.19a3.448,3.448,0,0,1-2.254-.9l-.63.84A4.585,4.585,0,0,0,108.493,18.182Zm7.28,0a4.525,4.525,0,0,0,2.52-.784l-.462-.84a3.277,3.277,0,0,1-1.9.6,2.519,2.519,0,0,1-2.52-2.66h5.124a4.974,4.974,0,0,0,.056-.728c0-2.17-1.092-3.57-3.024-3.57-1.764,0-3.43,1.54-3.43,4A3.633,3.633,0,0,0,115.773,18.182Zm-2.38-4.606a2.335,2.335,0,0,1,2.184-2.352c1.19,0,1.89.826,1.89,2.352Zm7.378,4.606a.925.925,0,0,0,.924-.966.926.926,0,1,0-1.848,0A.925.925,0,0,0,120.771,18.182Z" transform="translate(180 388)" fill="#323c46"/></g></svg>