<svg xmlns="http://www.w3.org/2000/svg" xmlns:xlink="http://www.w3.org/1999/xlink" width="303" height="256.59" viewBox="0 0 303 256.59"><defs><clipPath id="a"><rect width="303" height="64" fill="#ff5a5a" opacity="0"/></clipPath></defs><g transform="translate(-29 -139)"><g transform="translate(121.999 139)" fill="none" stroke="#f5b400" stroke-width="2"><rect width="107.002" height="27.306" rx="13.653" stroke="none"/><rect x="1" y="1" width="105.002" height="25.306" rx="12.653" fill="none"/></g><path d="M-38.148-5.018c.286-1,.572-2.093.819-3.146h.065c.273,1.04.533,2.145.832,3.146l.286,1.053h-2.288ZM-41.476,0h1.95l.676-2.47h3.12L-35.055,0h2.015l-3.094-9.633H-38.4Zm9.568,0h1.924V-9.633h-1.924Zm8.879.182a3.423,3.423,0,0,0,2.2-.962h.052l.13.78h1.56V-4.251c0-2.106-.949-3.211-2.8-3.211a5.816,5.816,0,0,0-3.042.962l.689,1.261a4.113,4.113,0,0,1,2-.689c.9,0,1.209.546,1.248,1.261-2.938.312-4.2,1.131-4.2,2.691A2.068,2.068,0,0,0-23.029.182Zm.624-1.5c-.559,0-.962-.247-.962-.819,0-.65.6-1.144,2.379-1.365v1.469A1.978,1.978,0,0,1-22.405-1.313ZM-17.14,0h1.911V-4.342c.4-1.053,1.092-1.43,1.664-1.43a2.432,2.432,0,0,1,.767.117l.325-1.651a2.059,2.059,0,0,0-.858-.156A2.522,2.522,0,0,0-15.4-5.993h-.039L-15.58-7.28h-1.56Zm5.668,0h1.911V-7.28h-1.911Zm.962-8.45A1.024,1.024,0,0,0-9.406-9.5a1.021,1.021,0,0,0-1.1-1.04A1.025,1.025,0,0,0-11.628-9.5,1.028,1.028,0,0,0-10.51-8.45ZM-4.856.182A4.7,4.7,0,0,0-3.322-.091l-.312-1.391a2.127,2.127,0,0,1-.715.156c-.65,0-.988-.39-.988-1.222V-5.772h1.794V-7.28H-5.337V-9.243H-6.923L-7.144-7.28l-1.131.091v1.417h1.027v3.224C-7.248-.923-6.585.182-4.856.182ZM-2.061,0H-.15V-5.005a2.046,2.046,0,0,1,1.508-.819c.715,0,1.027.39,1.027,1.521V0H4.3V-4.537c0-1.833-.676-2.925-2.249-2.925A3.313,3.313,0,0,0-.241-6.4L-.15-7.761v-2.613H-2.061Zm8.32,0H8.17V-5.005a2.075,2.075,0,0,1,1.391-.819c.689,0,1.027.39,1.027,1.521V0h1.9V-5.005a2.124,2.124,0,0,1,1.4-.819c.689,0,1.014.39,1.014,1.521V0h1.911V-4.537c0-1.833-.715-2.925-2.262-2.925a3.229,3.229,0,0,0-2.314,1.274,1.982,1.982,0,0,0-2-1.274A3.065,3.065,0,0,0,8-6.305H7.962L7.819-7.28H6.259Zm15.7.182A4.583,4.583,0,0,0,24.5-.624l-.65-1.17a3,3,0,0,1-1.638.507A1.913,1.913,0,0,1,20.2-3.107h4.485a3.593,3.593,0,0,0,.091-.884c0-2-1.04-3.471-3.042-3.471A3.568,3.568,0,0,0,18.337-3.64,3.534,3.534,0,0,0,21.964.182ZM20.17-4.381a1.638,1.638,0,0,1,1.586-1.6c.936,0,1.378.624,1.378,1.6ZM28.853.182a4.7,4.7,0,0,0,1.534-.273l-.312-1.391a2.127,2.127,0,0,1-.715.156c-.65,0-.988-.39-.988-1.222V-5.772h1.794V-7.28H28.372V-9.243H26.786L26.565-7.28l-1.131.091v1.417h1.027v3.224C26.461-.923,27.124.182,28.853.182ZM31.648,0h1.911V-7.28H31.648Zm.962-8.45A1.024,1.024,0,0,0,33.715-9.5a1.021,1.021,0,0,0-1.105-1.04A1.025,1.025,0,0,0,31.492-9.5,1.028,1.028,0,0,0,32.61-8.45ZM38.694.182A3.669,3.669,0,0,0,41.087-.7L40.32-1.963a2.261,2.261,0,0,1-1.417.585c-1.04,0-1.807-.884-1.807-2.262S37.85-5.9,38.968-5.9a1.657,1.657,0,0,1,1.1.481l.91-1.235a3.183,3.183,0,0,0-2.119-.806A3.631,3.631,0,0,0,35.146-3.64,3.483,3.483,0,0,0,38.694.182Z" transform="translate(175.5 157.748)" fill="#f5b400"/><g transform="translate(0 -33)"><g transform="translate(-314 -94)"><g transform="translate(343 319)" clip-path="url(#a)"><path d="M175.716,63.26,183.5,18.979h10.768a19.967,19.967,0,0,1,7.021-1.266,20.243,20.243,0,1,1-12.4,36.2l-1.646,9.347Zm16.742-25.3a8.83,8.83,0,1,0,8.829-8.857A8.859,8.859,0,0,0,192.458,37.957Zm51.35,0A20.155,20.155,0,0,1,276.43,22.032l2.763-15.708h11.523l-8.9,50.616H271a20.173,20.173,0,0,1-27.188-18.983Zm11.342,0a8.832,8.832,0,1,0,8.836-8.857A8.863,8.863,0,0,0,255.149,37.957ZM223.5,56.94l6.671-37.961H241.7L235.023,56.94Zm-64.333,0,3.369-19.175c1.078-6.136.021-10.709-5.053-11.2a6.333,6.333,0,0,0-6.925,5.018L146.1,56.94H134.573l8.895-50.616H155l-2.225,12.655a27.863,27.863,0,0,1,6.937-1.266c11.555,0,16.757,6.4,14.974,16.531l-3.988,22.7Zm-49.817,0L113.8,31.629h-5.585l1.774-10.121h5.589l1.556-8.856h11.526L127.1,21.508h8.118l-1.783,10.121h-8.115L120.871,56.94Zm-22.692,0,.173-.988a20.02,20.02,0,0,1-6.23.988,20.247,20.247,0,0,1,0-40.493,20.034,20.034,0,0,1,12.422,4.3l.309-1.77h11.529L98.184,56.94ZM71.77,36.69a8.829,8.829,0,1,0,8.83-8.856A8.855,8.855,0,0,0,71.77,36.69ZM40.349,56.94,45.5,27.64,29.715,34.333,17.529,22.789l-6,34.151H0L10.008,0,32.123,20.949,60.3,9,51.873,56.94ZM231.008,7.592a6.927,6.927,0,1,1,6.924,6.947A6.936,6.936,0,0,1,231.008,7.592Z" transform="translate(5.621)" fill="#00c3e1" stroke="rgba(0,0,0,0)" stroke-miterlimit="10" stroke-width="1"/></g></g></g><path d="M101.275,38.914l4.881-4.024a.979.979,0,0,0-.571-1.738L99.3,32.771a.986.986,0,0,1-.857-.619l-2.309-5.9a.985.985,0,0,0-1.833,0l-2.309,5.881a.986.986,0,0,1-.857.619l-6.309.381a.979.979,0,0,0-.571,1.738l4.881,4a1,1,0,0,1,.333,1l-1.6,6.119a.981.981,0,0,0,1.476,1.071l5.309-3.4a.934.934,0,0,1,1.048,0l5.333,3.4a.981.981,0,0,0,1.476-1.071l-1.6-6.1a.978.978,0,0,1,.357-.976Z" transform="translate(32.296 348.377)" fill="#ffc823"/><path d="M101.275,38.914l4.881-4.024a.979.979,0,0,0-.571-1.738L99.3,32.771a.986.986,0,0,1-.857-.619l-2.309-5.9a.985.985,0,0,0-1.833,0l-2.309,5.881a.986.986,0,0,1-.857.619l-6.309.381a.979.979,0,0,0-.571,1.738l4.881,4a1,1,0,0,1,.333,1l-1.6,6.119a.981.981,0,0,0,1.476,1.071l5.309-3.4a.934.934,0,0,1,1.048,0l5.333,3.4a.981.981,0,0,0,1.476-1.071l-1.6-6.1a.978.978,0,0,1,.357-.976Z" transform="translate(58.296 348.377)" fill="#ffc823"/><path d="M101.275,38.914l4.881-4.024a.979.979,0,0,0-.571-1.738L99.3,32.771a.986.986,0,0,1-.857-.619l-2.309-5.9a.985.985,0,0,0-1.833,0l-2.309,5.881a.986.986,0,0,1-.857.619l-6.309.381a.979.979,0,0,0-.571,1.738l4.881,4a1,1,0,0,1,.333,1l-1.6,6.119a.981.981,0,0,0,1.476,1.071l5.309-3.4a.934.934,0,0,1,1.048,0l5.333,3.4a.981.981,0,0,0,1.476-1.071l-1.6-6.1a.978.978,0,0,1,.357-.976Z" transform="translate(84.296 348.377)" fill="#ffc823"/><path d="M101.275,38.914l4.881-4.024a.979.979,0,0,0-.571-1.738L99.3,32.771a.986.986,0,0,1-.857-.619l-2.309-5.9a.985.985,0,0,0-1.833,0l-2.309,5.881a.986.986,0,0,1-.857.619l-6.309.381a.979.979,0,0,0-.571,1.738l4.881,4a1,1,0,0,1,.333,1l-1.6,6.119a.981.981,0,0,0,1.476,1.071l5.309-3.4a.934.934,0,0,1,1.048,0l5.333,3.4a.981.981,0,0,0,1.476-1.071l-1.6-6.1a.978.978,0,0,1,.357-.976Z" transform="translate(110.296 348.377)" fill="#ffc823"/><path d="M101.275,38.914l4.881-4.024a.979.979,0,0,0-.571-1.738L99.3,32.771a.986.986,0,0,1-.857-.619l-2.309-5.9a.985.985,0,0,0-1.833,0l-2.309,5.881a.986.986,0,0,1-.857.619l-6.309.381a.979.979,0,0,0-.571,1.738l4.881,4a1,1,0,0,1,.333,1l-1.6,6.119a.981.981,0,0,0,1.476,1.071l5.309-3.4a.934.934,0,0,1,1.048,0l5.333,3.4a.981.981,0,0,0,1.476-1.071l-1.6-6.1a.978.978,0,0,1,.357-.976Z" transform="translate(136.296 348.377)" fill="#ffc823"/><path d="M-97.55,0h8.9V-2.38h-2.78V-14.42h-2.18a9.6,9.6,0,0,1-3.44,1.24v1.82h2.68v8.98h-3.18Zm15.04.28c3.04,0,5-2.66,5-7.56,0-4.86-1.96-7.42-5-7.42s-5.02,2.54-5.02,7.42C-87.53-2.38-85.55.28-82.51.28Zm0-2.3c-1.28,0-2.24-1.24-2.24-5.26,0-4,.96-5.12,2.24-5.12s2.22,1.12,2.22,5.12C-80.29-3.26-81.23-2.02-82.51-2.02ZM-71.73.28c3.04,0,5-2.66,5-7.56,0-4.86-1.96-7.42-5-7.42s-5.02,2.54-5.02,7.42C-76.75-2.38-74.77.28-71.73.28Zm0-2.3c-1.28,0-2.24-1.24-2.24-5.26,0-4,.96-5.12,2.24-5.12s2.22,1.12,2.22,5.12C-69.51-3.26-70.45-2.02-71.73-2.02Zm6.56,6.28A5.023,5.023,0,0,0-61.39-.66c0-1.82-.76-2.9-2.12-2.9a1.769,1.769,0,0,0-1.9,1.74A1.727,1.727,0,0,0-63.57-.08h.18c.02,1.12-.84,2.16-2.4,2.74ZM-55.45.28c3.04,0,5-2.66,5-7.56,0-4.86-1.96-7.42-5-7.42s-5.02,2.54-5.02,7.42C-60.47-2.38-58.49.28-55.45.28Zm0-2.3c-1.28,0-2.24-1.24-2.24-5.26,0-4,.96-5.12,2.24-5.12s2.22,1.12,2.22,5.12C-53.23-3.26-54.17-2.02-55.45-2.02ZM-44.67.28c3.04,0,5-2.66,5-7.56,0-4.86-1.96-7.42-5-7.42s-5.02,2.54-5.02,7.42C-49.69-2.38-47.71.28-44.67.28Zm0-2.3c-1.28,0-2.24-1.24-2.24-5.26,0-4,.96-5.12,2.24-5.12s2.22,1.12,2.22,5.12C-42.45-3.26-43.39-2.02-44.67-2.02ZM-33.89.28c3.04,0,5-2.66,5-7.56,0-4.86-1.96-7.42-5-7.42s-5.02,2.54-5.02,7.42C-38.91-2.38-36.93.28-33.89.28Zm0-2.3c-1.28,0-2.24-1.24-2.24-5.26,0-4,.96-5.12,2.24-5.12s2.22,1.12,2.22,5.12C-31.67-3.26-32.61-2.02-33.89-2.02Zm9.68-.18h2.18V-6.44h4.04v-2.1h-4.04V-12.8h-2.18v4.26h-4.04v2.1h4.04ZM-9.65-7.72c.44-1.54.88-3.22,1.26-4.84h.1c.42,1.6.82,3.3,1.28,4.84l.44,1.62h-3.52ZM-14.77,0h3l1.04-3.8h4.8L-4.89,0h3.1L-6.55-14.82h-3.48ZM3.47.28A5.645,5.645,0,0,0,7.15-1.08L5.97-3.02a3.478,3.478,0,0,1-2.18.9c-1.6,0-2.78-1.36-2.78-3.48,0-2.1,1.16-3.48,2.88-3.48a2.549,2.549,0,0,1,1.7.74l1.4-1.9a4.9,4.9,0,0,0-3.26-1.24A5.587,5.587,0,0,0-1.99-5.6C-1.99-1.88.37.28,3.47.28Zm9.06,0a7.051,7.051,0,0,0,3.9-1.24l-1-1.8a4.616,4.616,0,0,1-2.52.78,2.943,2.943,0,0,1-3.1-2.8h6.9a5.527,5.527,0,0,0,.14-1.36c0-3.08-1.6-5.34-4.68-5.34-2.66,0-5.22,2.26-5.22,5.88C6.95-1.9,9.39.28,12.53.28ZM9.77-6.74A2.521,2.521,0,0,1,12.21-9.2c1.44,0,2.12.96,2.12,2.46ZM25.01.28c2.92,0,4.46-1.58,4.46-3.54,0-2.08-1.64-2.82-3.12-3.38-1.18-.44-2.22-.74-2.22-1.56,0-.64.48-1.08,1.5-1.08a4.169,4.169,0,0,1,2.4.96l1.32-1.78a6.208,6.208,0,0,0-3.8-1.38c-2.56,0-4.18,1.42-4.18,3.42,0,1.88,1.58,2.74,3,3.28,1.18.46,2.34.84,2.34,1.68,0,.7-.5,1.18-1.62,1.18a4.862,4.862,0,0,1-3-1.22L20.75-1.3A7.1,7.1,0,0,0,25.01.28Zm9.34,0a7.238,7.238,0,0,0,2.36-.42l-.48-2.14a3.272,3.272,0,0,1-1.1.24c-1,0-1.52-.6-1.52-1.88V-8.88h2.76V-11.2H33.61v-3.02H31.17l-.34,3.02-1.74.14v2.18h1.58v4.96C30.67-1.42,31.69.28,34.35.28Zm6.64,0A4.493,4.493,0,0,0,44.55-1.6h.08L44.85,0h2.4V-11.2H44.31v7.56a2.7,2.7,0,0,1-2.28,1.4c-1.08,0-1.56-.62-1.56-2.34V-11.2H37.53v7C37.53-1.4,38.57.28,40.99.28Zm12.34,0a4.646,4.646,0,0,0,3.1-1.44h.08L56.73,0h2.38V-15.96H56.19v3.94l.1,1.76a3.855,3.855,0,0,0-2.84-1.22c-2.42,0-4.7,2.24-4.7,5.88C48.75-1.92,50.55.28,53.33.28Zm.76-2.42c-1.48,0-2.32-1.16-2.32-3.48,0-2.24,1.06-3.44,2.32-3.44a3.02,3.02,0,0,1,2.1.84V-3.3A2.548,2.548,0,0,1,54.09-2.14ZM66.15.28a7.051,7.051,0,0,0,3.9-1.24l-1-1.8a4.616,4.616,0,0,1-2.52.78,2.943,2.943,0,0,1-3.1-2.8h6.9a5.527,5.527,0,0,0,.14-1.36c0-3.08-1.6-5.34-4.68-5.34-2.66,0-5.22,2.26-5.22,5.88C60.57-1.9,63.01.28,66.15.28ZM63.39-6.74A2.521,2.521,0,0,1,65.83-9.2c1.44,0,2.12.96,2.12,2.46ZM71.89,0h2.94V-7.7a3.148,3.148,0,0,1,2.32-1.26c1.1,0,1.58.6,1.58,2.34V0h2.94V-6.98c0-2.82-1.04-4.5-3.46-4.5a5.162,5.162,0,0,0-3.64,1.76h-.06l-.22-1.48h-2.4ZM87.81.28a7.238,7.238,0,0,0,2.36-.42l-.48-2.14a3.272,3.272,0,0,1-1.1.24c-1,0-1.52-.6-1.52-1.88V-8.88h2.76V-11.2H87.07v-3.02H84.63l-.34,3.02-1.74.14v2.18h1.58v4.96C84.13-1.42,85.15.28,87.81.28Zm6.26,0c2.92,0,4.46-1.58,4.46-3.54,0-2.08-1.64-2.82-3.12-3.38-1.18-.44-2.22-.74-2.22-1.56,0-.64.48-1.08,1.5-1.08a4.169,4.169,0,0,1,2.4.96l1.32-1.78a6.208,6.208,0,0,0-3.8-1.38c-2.56,0-4.18,1.42-4.18,3.42,0,1.88,1.58,2.74,3,3.28,1.18.46,2.34.84,2.34,1.68,0,.7-.5,1.18-1.62,1.18a4.862,4.862,0,0,1-3-1.22L89.81-1.3A7.1,7.1,0,0,0,94.07.28ZM-127.24,31h2.94V23.3a3.148,3.148,0,0,1,2.32-1.26c1.1,0,1.58.6,1.58,2.34V31h2.94V24.02c0-2.82-1.04-4.5-3.46-4.5a5.1,5.1,0,0,0-3.52,1.64l.14-2.1V15.04h-2.94Zm14.56.28a5.266,5.266,0,0,0,3.38-1.48h.08l.2,1.2h2.4V24.46c0-3.24-1.46-4.94-4.3-4.94A8.947,8.947,0,0,0-115.6,21l1.06,1.94a6.328,6.328,0,0,1,3.08-1.06c1.38,0,1.86.84,1.92,1.94-4.52.48-6.46,1.74-6.46,4.14A3.181,3.181,0,0,0-112.68,31.28Zm.96-2.3c-.86,0-1.48-.38-1.48-1.26,0-1,.92-1.76,3.66-2.1v2.26A3.043,3.043,0,0,1-111.72,28.98Zm10.3,2.3c2.92,0,4.46-1.58,4.46-3.54,0-2.08-1.64-2.82-3.12-3.38-1.18-.44-2.22-.74-2.22-1.56,0-.64.48-1.08,1.5-1.08a4.169,4.169,0,0,1,2.4.96l1.32-1.78a6.208,6.208,0,0,0-3.8-1.38c-2.56,0-4.18,1.42-4.18,3.42,0,1.88,1.58,2.74,3,3.28,1.18.46,2.34.84,2.34,1.68,0,.7-.5,1.18-1.62,1.18a4.862,4.862,0,0,1-3-1.22l-1.34,1.84A7.1,7.1,0,0,0-101.42,31.28Zm14.12,0a7.051,7.051,0,0,0,3.9-1.24l-1-1.8a4.616,4.616,0,0,1-2.52.78,2.943,2.943,0,0,1-3.1-2.8h6.9a5.527,5.527,0,0,0,.14-1.36c0-3.08-1.6-5.34-4.68-5.34-2.66,0-5.22,2.26-5.22,5.88C-92.88,29.1-90.44,31.28-87.3,31.28Zm-2.76-7.02a2.521,2.521,0,0,1,2.44-2.46c1.44,0,2.12.96,2.12,2.46ZM-83.14,31h3.04l1.04-2.06c.32-.66.62-1.32.94-1.96h.1c.36.64.72,1.32,1.08,1.96L-75.7,31h3.16l-3.5-5.5,3.28-5.7H-75.8l-.94,1.98c-.26.64-.56,1.28-.82,1.9h-.08c-.34-.62-.68-1.26-1-1.9l-1.12-1.98h-3.16l3.28,5.36Zm11.5,4.3h2.94V31.9l-.1-1.84a4.163,4.163,0,0,0,2.78,1.22c2.46,0,4.76-2.22,4.76-6.06,0-3.44-1.64-5.7-4.4-5.7a5.317,5.317,0,0,0-3.3,1.44h-.06l-.22-1.16h-2.4Zm4.96-6.44a3.051,3.051,0,0,1-2.02-.84V23.1a3.085,3.085,0,0,1,2.2-1.16c1.54,0,2.22,1.18,2.22,3.32C-64.28,27.7-65.32,28.86-66.68,28.86Zm11.8,2.42a7.051,7.051,0,0,0,3.9-1.24l-1-1.8a4.616,4.616,0,0,1-2.52.78,2.943,2.943,0,0,1-3.1-2.8h6.9a5.527,5.527,0,0,0,.14-1.36c0-3.08-1.6-5.34-4.68-5.34-2.66,0-5.22,2.26-5.22,5.88C-60.46,29.1-58.02,31.28-54.88,31.28Zm-2.76-7.02A2.521,2.521,0,0,1-55.2,21.8c1.44,0,2.12.96,2.12,2.46Zm8.5,6.74h2.94V24.32c.62-1.62,1.68-2.2,2.56-2.2a3.741,3.741,0,0,1,1.18.18l.5-2.54a3.168,3.168,0,0,0-1.32-.24,3.88,3.88,0,0,0-3.18,2.26h-.06l-.22-1.98h-2.4Zm7.72,0h2.94V19.8h-2.94Zm1.48-13a1.576,1.576,0,0,0,1.7-1.62,1.571,1.571,0,0,0-1.7-1.6,1.577,1.577,0,0,0-1.72,1.6A1.582,1.582,0,0,0-39.94,18Zm8.48,13.28a7.051,7.051,0,0,0,3.9-1.24l-1-1.8a4.616,4.616,0,0,1-2.52.78,2.943,2.943,0,0,1-3.1-2.8h6.9a5.527,5.527,0,0,0,.14-1.36c0-3.08-1.6-5.34-4.68-5.34-2.66,0-5.22,2.26-5.22,5.88C-37.04,29.1-34.6,31.28-31.46,31.28Zm-2.76-7.02a2.521,2.521,0,0,1,2.44-2.46c1.44,0,2.12.96,2.12,2.46Zm8.5,6.74h2.94V23.3a3.148,3.148,0,0,1,2.32-1.26c1.1,0,1.58.6,1.58,2.34V31h2.94V24.02c0-2.82-1.04-4.5-3.46-4.5a5.162,5.162,0,0,0-3.64,1.76h-.06l-.22-1.48h-2.4Zm16.58.28a5.645,5.645,0,0,0,3.68-1.36l-1.18-1.94a3.478,3.478,0,0,1-2.18.9c-1.6,0-2.78-1.36-2.78-3.48,0-2.1,1.16-3.48,2.88-3.48a2.549,2.549,0,0,1,1.7.74l1.4-1.9a4.9,4.9,0,0,0-3.26-1.24A5.587,5.587,0,0,0-14.6,25.4C-14.6,29.12-12.24,31.28-9.14,31.28Zm9.06,0a7.051,7.051,0,0,0,3.9-1.24l-1-1.8a4.616,4.616,0,0,1-2.52.78,2.943,2.943,0,0,1-3.1-2.8H4.1a5.527,5.527,0,0,0,.14-1.36c0-3.08-1.6-5.34-4.68-5.34-2.66,0-5.22,2.26-5.22,5.88C-5.66,29.1-3.22,31.28-.08,31.28Zm-2.76-7.02A2.521,2.521,0,0,1-.4,21.8c1.44,0,2.12.96,2.12,2.46ZM9.6,31.28a4.646,4.646,0,0,0,3.1-1.44h.08L13,31h2.38V15.04H12.46v3.94l.1,1.76a3.855,3.855,0,0,0-2.84-1.22c-2.42,0-4.7,2.24-4.7,5.88C5.02,29.08,6.82,31.28,9.6,31.28Zm.76-2.42c-1.48,0-2.32-1.16-2.32-3.48,0-2.24,1.06-3.44,2.32-3.44a3.02,3.02,0,0,1,2.1.84V27.7A2.548,2.548,0,0,1,10.36,28.86ZM21.32,31h2.96V26.84l1.94-2.5L30.06,31H33.3l-5.32-8.98,4.52-5.84H29.24l-4.9,6.44h-.06V16.18H21.32Zm10.84-4.68h5.46v-2.1H32.16ZM39.4,31h9.3V28.52H42.36V24.56h5.2V22.08h-5.2V18.66h6.12V16.18H39.4Zm14.76.28a4.646,4.646,0,0,0,3.1-1.44h.08L57.56,31h2.38V15.04H57.02v3.94l.1,1.76a3.855,3.855,0,0,0-2.84-1.22c-2.42,0-4.7,2.24-4.7,5.88C49.58,29.08,51.38,31.28,54.16,31.28Zm.76-2.42c-1.48,0-2.32-1.16-2.32-3.48,0-2.24,1.06-3.44,2.32-3.44a3.02,3.02,0,0,1,2.1.84V27.7A2.548,2.548,0,0,1,54.92,28.86Zm10.52,2.42A4.493,4.493,0,0,0,69,29.4h.08L69.3,31h2.4V19.8H68.76v7.56a2.7,2.7,0,0,1-2.28,1.4c-1.08,0-1.56-.62-1.56-2.34V19.8H61.98v7C61.98,29.6,63.02,31.28,65.44,31.28Zm13.16,0a5.645,5.645,0,0,0,3.68-1.36L81.1,27.98a3.478,3.478,0,0,1-2.18.9c-1.6,0-2.78-1.36-2.78-3.48,0-2.1,1.16-3.48,2.88-3.48a2.549,2.549,0,0,1,1.7.74l1.4-1.9a4.9,4.9,0,0,0-3.26-1.24,5.587,5.587,0,0,0-5.72,5.88C73.14,29.12,75.5,31.28,78.6,31.28Zm7.3,0a5.266,5.266,0,0,0,3.38-1.48h.08l.2,1.2h2.4V24.46c0-3.24-1.46-4.94-4.3-4.94A8.947,8.947,0,0,0,82.98,21l1.06,1.94a6.328,6.328,0,0,1,3.08-1.06c1.38,0,1.86.84,1.92,1.94-4.52.48-6.46,1.74-6.46,4.14A3.181,3.181,0,0,0,85.9,31.28Zm.96-2.3c-.86,0-1.48-.38-1.48-1.26,0-1,.92-1.76,3.66-2.1v2.26A3.043,3.043,0,0,1,86.86,28.98Zm10.82,2.3a7.238,7.238,0,0,0,2.36-.42l-.48-2.14a3.272,3.272,0,0,1-1.1.24c-1,0-1.52-.6-1.52-1.88V22.12H99.7V19.8H96.94V16.78H94.5l-.34,3.02-1.74.14v2.18H94v4.96C94,29.58,95.02,31.28,97.68,31.28Zm3.3-.28h2.94V19.8h-2.94Zm1.48-13a1.614,1.614,0,1,0-1.72-1.62A1.576,1.576,0,0,0,102.46,18Zm8.28,13.28c2.8,0,5.38-2.16,5.38-5.88s-2.58-5.88-5.38-5.88-5.38,2.16-5.38,5.88S107.94,31.28,110.74,31.28Zm0-2.4c-1.52,0-2.38-1.36-2.38-3.48,0-2.1.86-3.48,2.38-3.48s2.38,1.38,2.38,3.48C113.12,27.52,112.26,28.88,110.74,28.88ZM117.58,31h2.94V23.3a3.148,3.148,0,0,1,2.32-1.26c1.1,0,1.58.6,1.58,2.34V31h2.94V24.02c0-2.82-1.04-4.5-3.46-4.5a5.162,5.162,0,0,0-3.64,1.76h-.06l-.22-1.48h-2.4ZM-73.41,62.28a7.238,7.238,0,0,0,2.36-.42l-.48-2.14a3.272,3.272,0,0,1-1.1.24c-1,0-1.52-.6-1.52-1.88V53.12h2.76V50.8h-2.76V47.78h-2.44l-.34,3.02-1.74.14v2.18h1.58v4.96C-77.09,60.58-76.07,62.28-73.41,62.28Zm3.3-.28h2.94V54.3a3.148,3.148,0,0,1,2.32-1.26c1.1,0,1.58.6,1.58,2.34V62h2.94V55.02c0-2.82-1.04-4.5-3.46-4.5a5.1,5.1,0,0,0-3.52,1.64l.14-2.1V46.04h-2.94Zm11.8,0h2.94V55.32c.62-1.62,1.68-2.2,2.56-2.2a3.741,3.741,0,0,1,1.18.18l.5-2.54a3.168,3.168,0,0,0-1.32-.24,3.88,3.88,0,0,0-3.18,2.26h-.06l-.22-1.98h-2.4Zm12.16.28c2.8,0,5.38-2.16,5.38-5.88s-2.58-5.88-5.38-5.88-5.38,2.16-5.38,5.88S-48.95,62.28-46.15,62.28Zm0-2.4c-1.52,0-2.38-1.36-2.38-3.48,0-2.1.86-3.48,2.38-3.48s2.38,1.38,2.38,3.48C-43.77,58.52-44.63,59.88-46.15,59.88Zm10.18,2.4a4.493,4.493,0,0,0,3.56-1.88h.08l.22,1.6h2.4V50.8h-2.94v7.56a2.7,2.7,0,0,1-2.28,1.4c-1.08,0-1.56-.62-1.56-2.34V50.8h-2.94v7C-39.43,60.6-38.39,62.28-35.97,62.28Zm12.34,4.58c3.74,0,6.1-1.72,6.1-3.98,0-1.96-1.48-2.8-4.18-2.8h-1.9c-1.32,0-1.76-.32-1.76-.92a1.139,1.139,0,0,1,.48-.96,4.77,4.77,0,0,0,1.44.26c2.4,0,4.32-1.28,4.32-3.8a2.958,2.958,0,0,0-.5-1.7h1.9V50.8h-4.04a5.269,5.269,0,0,0-1.68-.28c-2.38,0-4.52,1.42-4.52,4.04a3.669,3.669,0,0,0,1.5,2.94v.08a2.746,2.746,0,0,0-1.26,2.1,2.123,2.123,0,0,0,1.02,1.88v.1a2.719,2.719,0,0,0-1.6,2.32C-28.31,65.96-26.27,66.86-23.63,66.86Zm.18-10.22c-.98,0-1.76-.74-1.76-2.08a1.8,1.8,0,0,1,1.76-2.04,1.8,1.8,0,0,1,1.76,2.04C-21.69,55.9-22.47,56.64-23.45,56.64Zm.26,8.36c-1.62,0-2.66-.54-2.66-1.48a1.653,1.653,0,0,1,.72-1.3,6.321,6.321,0,0,0,1.56.16h1.36c1.2,0,1.86.2,1.86,1C-20.35,64.26-21.51,65-23.19,65Zm6.56-3h2.94V54.3a3.148,3.148,0,0,1,2.32-1.26c1.1,0,1.58.6,1.58,2.34V62h2.94V55.02c0-2.82-1.04-4.5-3.46-4.5a5.1,5.1,0,0,0-3.52,1.64l.14-2.1V46.04h-2.94Zm15.58,0H1.61V55.82c0-1.4-.24-3.46-.38-4.86h.08l1.18,3.48,2.3,6.22h1.7l2.28-6.22,1.2-3.48h.1c-.16,1.4-.38,3.46-.38,4.86V62h2.7V47.18H9.11L6.65,54.12c-.32.92-.58,1.9-.9,2.84h-.1c-.3-.94-.58-1.92-.9-2.84L2.23,47.18H-1.05Zm18.6.28a5.266,5.266,0,0,0,3.38-1.48h.08l.2,1.2h2.4V55.46c0-3.24-1.46-4.94-4.3-4.94A8.947,8.947,0,0,0,14.63,52l1.06,1.94a6.328,6.328,0,0,1,3.08-1.06c1.38,0,1.86.84,1.92,1.94-4.52.48-6.46,1.74-6.46,4.14A3.181,3.181,0,0,0,17.55,62.28Zm.96-2.3c-.86,0-1.48-.38-1.48-1.26,0-1,.92-1.76,3.66-2.1v2.26A3.043,3.043,0,0,1,18.51,59.98Zm10.82,2.3a7.238,7.238,0,0,0,2.36-.42l-.48-2.14a3.272,3.272,0,0,1-1.1.24c-1,0-1.52-.6-1.52-1.88V53.12h2.76V50.8H28.59V47.78H26.15l-.34,3.02-1.74.14v2.18h1.58v4.96C25.65,60.58,26.67,62.28,29.33,62.28Zm3.3-.28h2.94V54.3a3.148,3.148,0,0,1,2.32-1.26c1.1,0,1.58.6,1.58,2.34V62h2.94V55.02c0-2.82-1.04-4.5-3.46-4.5a5.1,5.1,0,0,0-3.52,1.64l.14-2.1V46.04H32.63Zm11.8,4.3h2.94V62.9l-.1-1.84a4.163,4.163,0,0,0,2.78,1.22c2.46,0,4.76-2.22,4.76-6.06,0-3.44-1.64-5.7-4.4-5.7a5.317,5.317,0,0,0-3.3,1.44h-.06l-.22-1.16h-2.4Zm4.96-6.44a3.051,3.051,0,0,1-2.02-.84V54.1a3.085,3.085,0,0,1,2.2-1.16c1.54,0,2.22,1.18,2.22,3.32C51.79,58.7,50.75,59.86,49.39,59.86ZM56.31,62h2.94V50.8H56.31Zm1.48-13a1.614,1.614,0,1,0-1.72-1.62A1.576,1.576,0,0,0,57.79,49Zm7.54,13.28a4.646,4.646,0,0,0,3.1-1.44h.08L68.73,62h2.38V46.04H68.19v3.94l.1,1.76a3.855,3.855,0,0,0-2.84-1.22c-2.42,0-4.7,2.24-4.7,5.88C60.75,60.08,62.55,62.28,65.33,62.28Zm.76-2.42c-1.48,0-2.32-1.16-2.32-3.48,0-2.24,1.06-3.44,2.32-3.44a3.02,3.02,0,0,1,2.1.84V58.7A2.548,2.548,0,0,1,66.09,59.86Zm8.34-2.9h1.92l.42-7.38.1-2.78H73.91l.1,2.78Zm.96,5.32a1.922,1.922,0,0,0,0-3.84,1.923,1.923,0,0,0,0,3.84Z" transform="translate(180 291.5)" fill="#00c3e1"/></g></svg>