<?xml-stylesheet type="text/css" href="../../css/svg.css"?>
<svg class="more_key_btn_ap" xmlns="http://www.w3.org/2000/svg" width="40" height="40" viewBox="0 0 40 40"><defs><style>.a{fill:#fff;opacity:0;}.b{fill:none;}.c{fill:#323c46;}</style></defs><rect class="a" width="40" height="40"/><g transform="translate(0 0.208)"><rect class="b" width="40" height="40" transform="translate(0 -0.208)"/><path class="c" d="M142.324,153.482h-.088q-.278.228-.662.575a6.042,6.042,0,0,1-.9.664,6.4,6.4,0,0,1-1.072.55,3.342,3.342,0,0,1-1.261.234,3.457,3.457,0,0,1-2.869-1.315,5.635,5.635,0,0,1-1.041-3.59,8.266,8.266,0,0,1,.581-3.047,9.051,9.051,0,0,1,1.6-2.655,7.652,7.652,0,0,1,2.309-1.814,5.941,5.941,0,0,1,2.751-.689,6.013,6.013,0,0,1,1.71.24,4.979,4.979,0,0,1,1.281.543l2.318-.594.152.19-1.924,8.155q-.1.392-.208.955a4.937,4.937,0,0,0-.107.828,1.232,1.232,0,0,0,.3.974,1.614,1.614,0,0,0,1.025.253,4.362,4.362,0,0,0,.683-.076,4.07,4.07,0,0,0,.683-.164l-.19.808q-1.139.455-1.7.657a3.988,3.988,0,0,1-1.354.2,1.951,1.951,0,0,1-1.443-.531A2.015,2.015,0,0,1,142.324,153.482Zm1.82-7.99a3.507,3.507,0,0,0-.088-.8,1.684,1.684,0,0,0-.366-.708,1.753,1.753,0,0,0-.695-.506,2.836,2.836,0,0,0-1.112-.19,3.1,3.1,0,0,0-1.794.607,6.177,6.177,0,0,0-1.567,1.631,8.5,8.5,0,0,0-1.074,2.327,9.767,9.767,0,0,0-.329,4.135,3.494,3.494,0,0,0,.34,1.087,1.746,1.746,0,0,0,.693.746,2.245,2.245,0,0,0,1.147.265,3.243,3.243,0,0,0,1.481-.4,7.159,7.159,0,0,0,1.746-1.4Z" transform="translate(-121.057 -128.23)"/></g></svg>