<?xml-stylesheet type="text/css" href="../../css/svg.css"?>
<svg class="more_key_btn_f" xmlns="http://www.w3.org/2000/svg" width="40" height="40" viewBox="0 0 40 40"><defs><style>.a{fill:#fff;opacity:0;}.b{fill:#323c46;}</style></defs><rect class="a" width="40" height="40"/><g transform="translate(0 0.147)"><rect class="a" width="40" height="40" transform="translate(0 -0.147)"/><path class="b" d="M152.106,85.735a8.95,8.95,0,0,1-2.214,5.875,7.882,7.882,0,0,1-2.315,1.792,5.977,5.977,0,0,1-2.732.652,8.931,8.931,0,0,1-1.916-.183,5.39,5.39,0,0,1-1.41-.5,4.07,4.07,0,0,1-.987-.74,5.694,5.694,0,0,1-.708-.918l3.26-14.328q.063-.291.107-.5a2.041,2.041,0,0,0,.044-.424,1.347,1.347,0,0,0-.152-.7.957.957,0,0,0-.429-.373,2.243,2.243,0,0,0-.669-.152q-.4-.038-.821-.089l.176-.772,4.67-.278.126.189-1.911,8.4h.051a8.284,8.284,0,0,1,2.008-1.4,4.151,4.151,0,0,1,1.691-.386A3.745,3.745,0,0,1,151,82.209,5.3,5.3,0,0,1,152.106,85.735ZM149.5,85.8a7.691,7.691,0,0,0-.121-1.349,3.255,3.255,0,0,0-.4-1.134,2.1,2.1,0,0,0-.8-.76,2.579,2.579,0,0,0-1.255-.279,2.3,2.3,0,0,0-.837.152,5.185,5.185,0,0,0-.811.405,4.722,4.722,0,0,0-.716.551q-.349.323-.64.576l-1.683,7.509a1.493,1.493,0,0,0,.228.557,2.056,2.056,0,0,0,.481.532,2.548,2.548,0,0,0,.8.443,2.992,2.992,0,0,0,.976.152,3.326,3.326,0,0,0,1.882-.589,5.261,5.261,0,0,0,1.514-1.589,8.259,8.259,0,0,0,1.039-2.431A11.081,11.081,0,0,0,149.5,85.8Z" transform="translate(-125.893 -66.712)"/></g></svg>