<svg xmlns="http://www.w3.org/2000/svg" width="40" height="40" viewBox="0 0 40 40"><defs><style>.a{fill:#fff;opacity:0;}.b{fill:none;}.c{fill:#323c46;}</style></defs><rect class="a" width="40" height="40"/><g transform="translate(0 0.079)"><rect class="b" width="40" height="40" transform="translate(0 -0.079)"/><path class="c" d="M-1551.185,124.995a7.084,7.084,0,0,1-2.61-.482,6.094,6.094,0,0,1-2.141-1.408,6.686,6.686,0,0,1-1.451-2.271,8.133,8.133,0,0,1-.526-3.007,12.225,12.225,0,0,1,.811-4.479,12.619,12.619,0,0,1,2.23-3.717,10.472,10.472,0,0,1,3.288-2.525,8.92,8.92,0,0,1,4.01-.952,9.414,9.414,0,0,1,2.781.371,6.928,6.928,0,0,1,1.97.921l.71-.862h1.014l-1.368,6.411h-1.039v-.508a11.593,11.593,0,0,0-.165-1.987,4.8,4.8,0,0,0-.633-1.708,3.342,3.342,0,0,0-1.248-1.175,4.146,4.146,0,0,0-2.021-.438,5.382,5.382,0,0,0-2.9.831,7.98,7.98,0,0,0-2.312,2.214,11.031,11.031,0,0,0-1.546,3.312,14.042,14.042,0,0,0-.583,4.01,6.879,6.879,0,0,0,1.324,4.384,4.29,4.29,0,0,0,3.554,1.681,5.825,5.825,0,0,0,3.427-1.1,8.347,8.347,0,0,0,2.553-2.952l.912.481a10.143,10.143,0,0,1-3.56,3.839A8.926,8.926,0,0,1-1551.185,124.995Z" transform="translate(1570.098 -95.559)"/></g></svg>