<?xml-stylesheet type="text/css" href="../../css/svg.css"?>
<svg class="more_key_btn_ap" xmlns="http://www.w3.org/2000/svg" width="40" height="40" viewBox="0 0 40 40"><defs><style>.a{fill:#fff;opacity:0;}.b{fill:none;}.c{fill:#323c46;}</style></defs><rect class="a" width="40" height="40"/><g transform="translate(0 0.079)"><rect class="b" width="40" height="40" transform="translate(0 -0.079)"/><path class="c" d="M-1525.675,155.547a4.718,4.718,0,0,1-3.5-1.294,4.992,4.992,0,0,1-1.286-3.678,9.476,9.476,0,0,1,.488-3.037,8.7,8.7,0,0,1,1.362-2.581,6.845,6.845,0,0,1,2.211-1.845,6.188,6.188,0,0,1,2.971-.717,4.286,4.286,0,0,1,2.756.766,2.388,2.388,0,0,1,.944,1.932,2.833,2.833,0,0,1-.412,1.533,1.361,1.361,0,0,1-1.235.659,1.4,1.4,0,0,1-1.026-.341,1.048,1.048,0,0,1-.342-.758,3.28,3.28,0,0,1,.274-1.105q.274-.7.436-1.131a.926.926,0,0,0-.621-.5,3.194,3.194,0,0,0-1-.158,3.544,3.544,0,0,0-2.971,2.008,9.154,9.154,0,0,0-1.248,4.923,4.6,4.6,0,0,0,.806,2.857,2.593,2.593,0,0,0,2.177,1.058,3.77,3.77,0,0,0,2.189-.659,7.772,7.772,0,0,0,1.834-1.863l.723.532a8.092,8.092,0,0,1-2.376,2.388A5.566,5.566,0,0,1-1525.675,155.547Z" transform="translate(1545.388 -128.183)"/></g></svg>