<svg xmlns="http://www.w3.org/2000/svg" width="40" height="40" viewBox="0 0 40 40"><defs><style>.a{fill:#fff;opacity:0;}.b{fill:none;}.c{fill:#323c46;}</style></defs><rect class="a" width="40" height="40"/><g transform="translate(0 0.079)"><rect class="b" width="40" height="40" transform="translate(0 -0.079)"/><path class="c" d="M-4495.02,544.995a8.091,8.091,0,0,1-2.825-.482,6.5,6.5,0,0,1-2.281-1.421,6.594,6.594,0,0,1-1.527-2.284,8.081,8.081,0,0,1-.551-3.083,11.94,11.94,0,0,1,.855-4.548,11.769,11.769,0,0,1,2.337-3.673,10.622,10.622,0,0,1,3.446-2.455,10.113,10.113,0,0,1,4.194-.894,9.811,9.811,0,0,1,3,.4,7.7,7.7,0,0,1,1.958.889l.71-.862h1.013l-1.33,6.284h-1.039a16.769,16.769,0,0,0-.177-2.07,5,5,0,0,0-.634-1.829,3.6,3.6,0,0,0-1.355-1.308,4.973,4.973,0,0,0-2.407-.483,5.781,5.781,0,0,0-2.946.805,7.916,7.916,0,0,0-2.439,2.264,11.048,11.048,0,0,0-1.615,3.385,14.758,14.758,0,0,0-.589,4.235,6.8,6.8,0,0,0,1.33,4.438,4.489,4.489,0,0,0,3.673,1.623,5.2,5.2,0,0,0,1.938-.329,4.772,4.772,0,0,0,1.3-.735q.178-.519.336-1.1t.349-1.413l.241-1.09q.026-.139.057-.329a2.179,2.179,0,0,0,.032-.355,1.39,1.39,0,0,0-.083-.519.7.7,0,0,0-.4-.342,3.4,3.4,0,0,0-1.069-.285q-.7-.1-1.082-.12l.19-.862h7.894l-.19.862q-.329.038-.855.121a3.719,3.719,0,0,0-.88.235,1.51,1.51,0,0,0-.678.546,2.613,2.613,0,0,0-.335.812l-.33,1.459q-.292,1.206-.405,1.8t-.2,1.13q-.836.343-1.488.6a13.57,13.57,0,0,1-1.628.495q-.887.228-1.7.355A11.806,11.806,0,0,1-4495.02,544.995Z" transform="translate(4513.96 -515.559)"/></g></svg>