<svg xmlns="http://www.w3.org/2000/svg" width="40" height="40" viewBox="0 0 40 40"><defs><style>.a{fill:#fff;opacity:0;}.b{fill:none;}.c{fill:#323c46;}</style></defs><rect class="a" width="40" height="40"/><g transform="translate(0 0.079)"><rect class="b" width="40" height="40" transform="translate(0 -0.079)"/><path class="c" d="M-2406.219,126.166l.19-.836q.393-.038.918-.107a5.407,5.407,0,0,0,.817-.158,2.235,2.235,0,0,0,.589-.265.491.491,0,0,0,.2-.43q0-.1-.151-1.238t-.427-3.2h-6.316q-.418.658-.886,1.523t-.722,1.321a8.607,8.607,0,0,0-.437.9,2.286,2.286,0,0,0-.209.664q0,.417.671.67a5.865,5.865,0,0,0,1.685.316l-.19.836h-6.9l.19-.836a6.092,6.092,0,0,0,.855-.146,3.225,3.225,0,0,0,.881-.323,4.859,4.859,0,0,0,.855-.627,5.412,5.412,0,0,0,.881-1.121q2.192-3.472,4.808-7.729t4.606-7.45h1.014l2.395,15.572a2.453,2.453,0,0,0,.253.792,2,2,0,0,0,.532.6,2.254,2.254,0,0,0,.684.3,3.342,3.342,0,0,0,.76.133l-.19.836Zm1.945-7.3-1.13-7.017-4.306,7.017Z" transform="translate(2427.632 -97.161)"/></g></svg>