<svg xmlns="http://www.w3.org/2000/svg" width="40" height="40" viewBox="0 0 40 40"><defs><style>.a{fill:#fff;opacity:0;}.b{fill:none;}.c{fill:#323c46;}</style></defs><rect class="a" width="40" height="40"/><g transform="translate(0 0.079)"><rect class="b" width="40" height="40" transform="translate(0 -0.079)"/><path class="c" d="M126.971,110.471l-1.039,4.5h-.95a5.4,5.4,0,0,0-.577-2.35,1.84,1.84,0,0,0-1.286-1.109q-.393-.05-.919-.076t-1.21-.025h-3.08l-1.69,7.311h2.072a5.352,5.352,0,0,0,1.348-.158,2.887,2.887,0,0,0,1.182-.665,4.015,4.015,0,0,0,.654-.862,5.905,5.905,0,0,0,.579-1.267H123l-1.622,7.057h-.95q.013-.152.032-.355t.019-.443a7.45,7.45,0,0,0-.051-.811,1.713,1.713,0,0,0-.19-.684,1.6,1.6,0,0,0-.887-.684,4.5,4.5,0,0,0-1.293-.165H116l-1.456,6.3a1.65,1.65,0,0,0-.038.209,1.764,1.764,0,0,0-.013.209,1,1,0,0,0,.114.488,1.019,1.019,0,0,0,.393.374,3.6,3.6,0,0,0,.8.215,8.328,8.328,0,0,0,.976.139l-.2.836h-7.831l.2-.836q.393-.025,1.014-.082a3.62,3.62,0,0,0,.849-.146,1.454,1.454,0,0,0,.671-.5,2.14,2.14,0,0,0,.329-.766l3.028-13.1q.025-.126.044-.247a1.58,1.58,0,0,0,.019-.247.941.941,0,0,0-.1-.437.862.862,0,0,0-.4-.336,3.412,3.412,0,0,0-.824-.279,7.666,7.666,0,0,0-.912-.165l.2-.836Z" transform="translate(-97.886 -99.446)"/></g></svg>