<svg xmlns="http://www.w3.org/2000/svg" width="40" height="40" viewBox="0 0 40 40"><defs><style>.a{fill:#fff;opacity:0;}.b{fill:none;}.c{fill:#323c46;}</style></defs><rect class="a" width="40" height="40"/><g transform="translate(0 0.079)"><rect class="b" width="40" height="40" transform="translate(0 -0.079)"/><path class="c" d="M-712.344,110.471l-1,4.333h-.95a5.4,5.4,0,0,0-.564-2.255,1.8,1.8,0,0,0-1.312-1.039q-.38-.05-.925-.076t-1.229-.025h-2.889l-1.672,7.235h2.032a4.565,4.565,0,0,0,1.46-.184,2.328,2.328,0,0,0,.927-.615,4.418,4.418,0,0,0,.737-1.045,7.61,7.61,0,0,0,.508-1.121h.95l-1.622,7.019h-.95q0-.139.019-.336t.019-.424a6.225,6.225,0,0,0-.063-.9,1.941,1.941,0,0,0-.177-.634,1.266,1.266,0,0,0-.757-.646,4.476,4.476,0,0,0-1.287-.152h-2.019l-1.272,5.5a6.739,6.739,0,0,0-.127.664,4.2,4.2,0,0,0-.051.559.915.915,0,0,0,.5.928,6.591,6.591,0,0,0,2.214.229,17.68,17.68,0,0,0,2.893-.152,2.678,2.678,0,0,0,1.129-.445,10.942,10.942,0,0,0,1.693-1.868,19.607,19.607,0,0,0,1.3-1.868h.912l-1.56,5.3h-14.937l.19-.836q.393-.025,1.039-.108a4.338,4.338,0,0,0,.874-.171,1.4,1.4,0,0,0,.678-.494,1.986,1.986,0,0,0,.323-.773l3.017-13.05q.025-.1.044-.228a1.621,1.621,0,0,0,.019-.241.96.96,0,0,0-.108-.456.845.845,0,0,0-.386-.342,3.5,3.5,0,0,0-.862-.291,6.642,6.642,0,0,0-.874-.152l.19-.836Z" transform="translate(741.349 -99.446)"/></g></svg>