<svg xmlns="http://www.w3.org/2000/svg" width="40" height="40" viewBox="0 0 40 40"><defs><style>.a{fill:#fff;opacity:0;}.b{fill:none;}.c{fill:#323c46;}</style></defs><rect class="a" width="40" height="40"/><g transform="translate(0 0.079)"><rect class="b" width="40" height="40" transform="translate(0 -0.079)"/><path class="c" d="M-1971.547,111.18a2.888,2.888,0,0,1,1.089,1.007,2.7,2.7,0,0,1,.393,1.463,4.314,4.314,0,0,1-.457,2.026,4.615,4.615,0,0,1-1.192,1.469,6.961,6.961,0,0,1-1.693,1.007,9.746,9.746,0,0,1-1.908.589v.112a7.868,7.868,0,0,1,1.522.349,5.7,5.7,0,0,1,1.421.691,3.564,3.564,0,0,1,1.1,1.147,3.167,3.167,0,0,1,.425,1.667,4.776,4.776,0,0,1-.666,2.529,5.655,5.655,0,0,1-1.68,1.781,8.015,8.015,0,0,1-2.34,1.084,9.508,9.508,0,0,1-2.568.349h-8.786l.2-.836q.3-.025.912-.108a3.674,3.674,0,0,0,.874-.2,1.538,1.538,0,0,0,.678-.488,1.959,1.959,0,0,0,.336-.754l3.016-13.05q.025-.126.044-.247a1.577,1.577,0,0,0,.019-.247.95.95,0,0,0-.108-.462.867.867,0,0,0-.374-.336,3.01,3.01,0,0,0-.779-.3,5.036,5.036,0,0,0-.766-.12l.2-.836h7.931a8.431,8.431,0,0,1,1.679.158A5.031,5.031,0,0,1-1971.547,111.18Zm-3.513,14.531a5.622,5.622,0,0,0,.826-1.637,5.822,5.822,0,0,0,.279-1.751,2.644,2.644,0,0,0-.915-2.132,3.857,3.857,0,0,0-2.566-.774q-.8,0-1.372.019t-.864.032l-1.434,6.2q-.038.182-.057.334a2.376,2.376,0,0,0-.019.292.986.986,0,0,0,.673.952,4.334,4.334,0,0,0,1.714.292,4.508,4.508,0,0,0,2.229-.527A4.54,4.54,0,0,0-1975.06,125.711Zm.825-8.689a4.417,4.417,0,0,0,.856-1.476,5.567,5.567,0,0,0,.26-1.768,2.467,2.467,0,0,0-.242-1.14,1.956,1.956,0,0,0-.661-.748,2.8,2.8,0,0,0-.927-.374,5.157,5.157,0,0,0-1.067-.108q-.419,0-.934.019l-.87.032-1.6,6.994h1.586a5.383,5.383,0,0,0,2.15-.393A3.873,3.873,0,0,0-1974.235,117.021Z" transform="translate(1998.18 -99.446)"/></g></svg>