<svg xmlns="http://www.w3.org/2000/svg" width="40" height="40" viewBox="0 0 40 40"><defs><style>.a{fill:#fff;opacity:0;}.b{fill:none;}.c{fill:#323c46;}</style></defs><rect class="a" width="40" height="40"/><g transform="translate(0 0.079)"><rect class="b" width="40" height="40" transform="translate(0 -0.079)"/><path class="c" d="M-4091.318,530.471l-.19.836a6.09,6.09,0,0,0-.887.114,7.556,7.556,0,0,0-.811.19,1.253,1.253,0,0,0-.71.52,2.735,2.735,0,0,0-.317.759l-3.012,13.089a1.564,1.564,0,0,0-.038.228,2.122,2.122,0,0,0-.013.215.943.943,0,0,0,.114.469,1.087,1.087,0,0,0,.368.367,2.62,2.62,0,0,0,.69.228,4.7,4.7,0,0,0,.855.127l-.19.836h-7.463l.19-.836q.317-.025.9-.076a3.022,3.022,0,0,0,.823-.153,1.478,1.478,0,0,0,.685-.482,1.972,1.972,0,0,0,.342-.787l1.5-6.5h-8.451l-1.463,6.358a1.583,1.583,0,0,0-.038.216,2,2,0,0,0-.013.216,1.016,1.016,0,0,0,.121.482.912.912,0,0,0,.361.368,2.608,2.608,0,0,0,.69.228,4.689,4.689,0,0,0,.855.127l-.19.836h-7.464l.19-.836q.317-.025.9-.076a3.021,3.021,0,0,0,.824-.152,1.479,1.479,0,0,0,.684-.481,1.966,1.966,0,0,0,.342-.786l3.029-13.1a1.679,1.679,0,0,0,.038-.209,1.927,1.927,0,0,0,.013-.222,1.014,1.014,0,0,0-.107-.482.916.916,0,0,0-.387-.355,3.685,3.685,0,0,0-.76-.291,4.218,4.218,0,0,0-.811-.152l.19-.836h7.46l-.19.836a6.1,6.1,0,0,0-.887.114,7.563,7.563,0,0,0-.811.19,1.253,1.253,0,0,0-.709.52,2.749,2.749,0,0,0-.317.76l-1.3,5.664h8.452l1.28-5.537a1.594,1.594,0,0,0,.038-.209,1.818,1.818,0,0,0,.013-.209,1.052,1.052,0,0,0-.108-.488.9.9,0,0,0-.386-.361,3.685,3.685,0,0,0-.76-.291,4.222,4.222,0,0,0-.811-.152l.19-.836Z" transform="translate(4122.647 -519.446)"/></g></svg>