<?xml-stylesheet type="text/css" href="../../css/svg.css"?>
<svg class="more_key_btn_ap" xmlns="http://www.w3.org/2000/svg" width="40" height="40" viewBox="0 0 40 40"><defs><style>.a{fill:#fff;opacity:0;}.b{fill:none;}.c{fill:#323c46;}</style></defs><rect class="a" width="40" height="40"/><g transform="translate(0 0.079)"><rect class="b" width="40" height="40" transform="translate(0 -0.079)"/><path class="c" d="M-681.7,145.035a3.394,3.394,0,0,1-.843,2.31,5.712,5.712,0,0,1-2.452,1.535,18.626,18.626,0,0,1-2.382.7q-1.2.267-2.661.444a5.3,5.3,0,0,0,.741,3.06,2.484,2.484,0,0,0,2.173,1.058,3.994,3.994,0,0,0,2.236-.634,7.78,7.78,0,0,0,1.907-1.888l.722.532a7.94,7.94,0,0,1-2.534,2.471,5.99,5.99,0,0,1-3.155.925,4.487,4.487,0,0,1-3.427-1.256,4.993,4.993,0,0,1-1.185-3.564,9.293,9.293,0,0,1,.5-3.05,8.835,8.835,0,0,1,1.463-2.657,7.231,7.231,0,0,1,2.3-1.9,6.318,6.318,0,0,1,3.009-.723,4.133,4.133,0,0,1,2.705.742A2.372,2.372,0,0,1-681.7,145.035Zm-2.331-.312a1.792,1.792,0,0,0-.139-.777,1.023,1.023,0,0,0-.355-.424,1.179,1.179,0,0,0-.482-.19,3.5,3.5,0,0,0-.52-.038,3.593,3.593,0,0,0-2.806,1.669,8.593,8.593,0,0,0-1.628,4.159q.887-.127,2-.36a7.345,7.345,0,0,0,1.85-.613,3.8,3.8,0,0,0,1.565-1.4A3.864,3.864,0,0,0-684.032,144.723Z" transform="translate(707.274 -128.183)"/></g></svg>