<svg xmlns="http://www.w3.org/2000/svg" width="40" height="40" viewBox="0 0 40 40"><defs><style>.a{fill:#fff;opacity:0;}.b{fill:none;}.c{fill:#323c46;}</style></defs><rect class="a" width="40" height="40"/><g transform="translate(0 0.079)"><rect class="b" width="40" height="40" transform="translate(0 -0.079)"/><path class="c" d="M-1083.335,95.983l-.19.811a16.711,16.711,0,0,1-1.863.653,4.8,4.8,0,0,1-1.191.184,2.018,2.018,0,0,1-1.52-.526,1.8,1.8,0,0,1-.507-1.3,3.855,3.855,0,0,1,.051-.609q.051-.317.165-.8l1.339-5.391q.1-.444.2-.951a4.809,4.809,0,0,0,.1-.863,1.373,1.373,0,0,0-.234-.945,1.389,1.389,0,0,0-.955-.235,4.143,4.143,0,0,0-.74.089q-.462.089-.7.152l.19-.811a12.471,12.471,0,0,1,1.773-.659,5.008,5.008,0,0,1,1.241-.215,2,2,0,0,1,1.507.495,1.857,1.857,0,0,1,.469,1.332,5.194,5.194,0,0,1-.051.622,6.474,6.474,0,0,1-.152.786l-1.346,5.391q-.126.495-.22.97a4.167,4.167,0,0,0-.094.78,1.238,1.238,0,0,0,.322.99,1.632,1.632,0,0,0,1.042.266,5.275,5.275,0,0,0,.688-.063A3.48,3.48,0,0,0-1083.335,95.983Zm.9-16.205a1.86,1.86,0,0,1-.469,1.261,1.483,1.483,0,0,1-1.166.539,1.461,1.461,0,0,1-1.115-.513,1.689,1.689,0,0,1-.469-1.172,1.759,1.759,0,0,1,.469-1.216,1.454,1.454,0,0,1,1.115-.519,1.541,1.541,0,0,1,1.178.488A1.609,1.609,0,0,1-1082.435,79.778Z" transform="translate(1106.418 -70.356)"/></g></svg>