<svg xmlns="http://www.w3.org/2000/svg" width="40" height="40" viewBox="0 0 40 40"><defs><style>.a{fill:#fff;opacity:0;}.b{fill:none;}.c{fill:#323c46;}</style></defs><rect class="a" width="40" height="40"/><g transform="translate(0 0.079)"><rect class="b" width="40" height="40" transform="translate(0 -0.079)"/><path class="c" d="M121.358,147.24a8.929,8.929,0,0,1-2.177,5.859,7.4,7.4,0,0,1-2.386,1.826,6.205,6.205,0,0,1-2.639.6,5.065,5.065,0,0,1-1.785-.266,5.4,5.4,0,0,1-1.24-.66l-.74,3.32q-.076.316-.121.6a2.958,2.958,0,0,0-.044.443.668.668,0,0,0,.247.545,1.528,1.528,0,0,0,.564.291,4.023,4.023,0,0,0,.71.152q.393.051.71.076l-.177.8h-6.988l.177-.8q.406-.025.76-.063a4.09,4.09,0,0,0,.671-.127,1.173,1.173,0,0,0,.627-.425,1.967,1.967,0,0,0,.336-.767l2.645-11.666q.1-.482.19-.97a4.815,4.815,0,0,0,.089-.843,1.46,1.46,0,0,0-.222-.951,1.336,1.336,0,0,0-.955-.241,3.045,3.045,0,0,0-.709.108q-.43.108-.671.171l.19-.811a14.968,14.968,0,0,1,1.736-.665,4.675,4.675,0,0,1,1.318-.234,1.836,1.836,0,0,1,1.343.45,2.117,2.117,0,0,1,.57,1.249h.1a8.687,8.687,0,0,1,1.843-1.319,4.154,4.154,0,0,1,1.957-.52,3.65,3.65,0,0,1,3,1.313A5.424,5.424,0,0,1,121.358,147.24Zm-3.952,5.238a8.592,8.592,0,0,0,.994-2.366,11.028,11.028,0,0,0,.348-2.81,7.733,7.733,0,0,0-.12-1.351,3.306,3.306,0,0,0-.386-1.123,1.978,1.978,0,0,0-.76-.767,2.561,2.561,0,0,0-1.267-.273,2.89,2.89,0,0,0-1.286.355,7.719,7.719,0,0,0-1.717,1.332l-1.617,7.192a2.2,2.2,0,0,0,.779,1.351,2.386,2.386,0,0,0,1.665.628,3.312,3.312,0,0,0,1.874-.583A5.089,5.089,0,0,0,117.406,152.478Z" transform="translate(-94.783 -128.183)"/></g></svg>