<svg xmlns="http://www.w3.org/2000/svg" width="40" height="40" viewBox="0 0 40 40"><defs><style>.a{fill:#fff;opacity:0;}.b{fill:none;}.c{fill:#323c46;}</style></defs><rect class="a" width="40" height="40"/><g transform="translate(0 0.079)"><rect class="b" width="40" height="40" transform="translate(0 -0.079)"/><path class="c" d="M-4032.828,125.745a2.634,2.634,0,0,1-1.761-.488,1.759,1.759,0,0,1-.558-1.4,3.836,3.836,0,0,1,.038-.551q.038-.26.1-.589l1.975-8.464h-2.266l.267-1.153h2.313l.884-3.712h2.279l-.857,3.712h3.528l-.265,1.153h-3.5l-1.635,6.981q-.114.482-.19.931a4.7,4.7,0,0,0-.076.767,1.329,1.329,0,0,0,.348,1.02,1.87,1.87,0,0,0,1.261.323,7.221,7.221,0,0,0,.925-.082,4.347,4.347,0,0,0,.925-.209l-.215.925q-.887.342-1.673.589A6.191,6.191,0,0,1-4032.828,125.745Z" transform="translate(4051.737 -98.471)"/></g></svg>