<?xml-stylesheet type="text/css" href="../../css/svg.css"?>
<svg  class="more_key_btn_f"  xmlns="http://www.w3.org/2000/svg" width="40" height="40" viewBox="0 0 40 40"><rect width="40" height="40" fill="#fff" opacity="0"/><g transform="translate(-831.252 -2356.523)"><rect width="40" height="40" transform="translate(831.252 2356.523)" fill="#fff" opacity="0"/><path d="M887.9,2867.042a1.1,1.1,0,0,0,1.252,1.121c.96,0,1.511-.646,1.511-1.772a2.428,2.428,0,0,0-2.458-2.592c-1.187,0-2.289.5-4.3,2.975a3.174,3.174,0,0,0-3.079-2.975c-1.911,0-3.846,2.789-3.926,2.907l-.085.127.8.938.149-.2c1.837-2.414,2.987-2.367,3.51-2.121a2,2,0,0,1,1,2.225,54.636,54.636,0,0,1-1.96,6.351l-.094.268a3.749,3.749,0,0,1-3.2,2.633.63.63,0,0,1-.468-.151.384.384,0,0,1-.093-.163,1.306,1.306,0,0,0,.716-1.295,1.334,1.334,0,0,0-.386-1,1.409,1.409,0,0,0-1.084-.35c-.659.035-1.443.405-1.443,1.966a2.543,2.543,0,0,0,2.594,2.469,5.749,5.749,0,0,0,4.539-2.531,3.176,3.176,0,0,0,.8,1.727,2.906,2.906,0,0,0,2.176.813h.06c2.6-.032,4.668-3.723,4.755-3.88l.08-.144-.959-.8-.119.2c-.018.028-1.75,2.881-3.783,2.881a1.163,1.163,0,0,1-1.213-1.05,5.109,5.109,0,0,1-.036-1.262,16.268,16.268,0,0,1,.929-3.781c.806-2.476,2.566-5.234,3.8-5.234a.622.622,0,0,1,.52.18.541.541,0,0,1,.079.369.679.679,0,0,0-.283.15A1.211,1.211,0,0,0,887.9,2867.042Z" transform="translate(-31.013 -494.275)" class="b"/></g></svg>