<svg xmlns="http://www.w3.org/2000/svg" width="40" height="40" viewBox="0 0 40 40"><rect width="40" height="40" fill="#fff" opacity="0"/><g transform="translate(-831.252 -2356.523)"><rect width="40" height="40" transform="translate(831.252 2356.523)" fill="#fff" opacity="0"/><path d="M1124.078,2701.111c2.258-1.418,4.818-3.024,6.242-7.662l.079-.259h-.914l-.06.082c-.006.009-.663.894-1.425.894a2.831,2.831,0,0,1-1.191-.4,4.271,4.271,0,0,0-1.966-.577c-1.432,0-2.642.595-4.589,3.635l-.113.177.8.458.1-.151c1.146-1.664,2.028-2.013,2.566-2.013a5.857,5.857,0,0,1,1.413.254,6.649,6.649,0,0,0,1.638.284,4.255,4.255,0,0,0,1.8-.5,10.6,10.6,0,0,1-4.045,3.871,13.889,13.889,0,0,0-6.478,7.9l-.092.266h.869l.057-.1c.658-1.187,1.332-1.74,2.123-1.74a5.542,5.542,0,0,1,2.374.926,5.436,5.436,0,0,0,2.4.928c1.151,0,3.312-1.5,3.411-2.972a1.362,1.362,0,0,0-.32-1.055,1.238,1.238,0,0,0-.934-.368h-.006a1.33,1.33,0,0,0-1.352,1.234,1.383,1.383,0,0,0,.149.738.685.685,0,0,1,.089.392c-.008.093-.024.269-.432.269-.328,0-.66-.282-1.08-.641a4.365,4.365,0,0,0-3-1.324,3.721,3.721,0,0,0-1.781.572A11.236,11.236,0,0,1,1124.078,2701.111Z" transform="translate(-273.596 -323.666)" fill="#323c46"/></g></svg>