<?xml-stylesheet type="text/css" href="../../css/svg.css"?>
<svg class="arithmetic_icon num_icon" xmlns="http://www.w3.org/2000/svg" xmlns:xlink="http://www.w3.org/1999/xlink" x="0px" y="0px" viewBox="0 0 40 40" style="enable-background:new 0 0 40 40;" xml:space="preserve">                
  <path class="st0" d="M4.3,17.9c0.5,0.7,1.4,1,2.2,0.6C7,18.4,7.5,18.2,8,17.9c-0.2,2.2-0.1,4.3,0.1,6.5c0.1,1,0.6,1.7,1.8,1.7 c1,0.1,1.8-0.6,1.9-1.6c0,0,0-0.1,0-0.1c0.3-2.8,0.4-5.6,0.1-8.5c-0.1-1.1-1-1.9-2.1-1.9c0,0,0,0,0,0c-1.8,0.2-3.4,0.8-4.9,1.9 c-0.7,0.4-1,1.2-0.6,1.9C4.2,17.8,4.2,17.9,4.3,17.9z"/>
  <path class="st0 opacity_50" d="M15.8,22.8c-1.1,1.2-0.7,2.9,0.8,3.1c1.9,0.2,3.8,0.2,5.8,0c1-0.1,1.6-0.5,1.6-1.6s-0.6-1.5-1.6-1.6 c-0.9-0.1-1.7-0.1-2.6,0l1.6-1.4c1.2-0.9,1.9-2.3,1.9-3.8c0-2.2-1.9-3.4-3.9-3.4c-1.6-0.1-3.2,0.6-4,2c-0.5,0.7-0.4,1.6,0.3,2.1 c0,0,0.1,0,0.1,0.1c0.7,0.5,1.6,0.3,2.1-0.3c0,0,0,0,0,0c0.3-0.5,0.6-0.9,1.1-0.9c0.5,0,1,0.4,1,0.9c0,0,0,0,0,0 c-0.1,0.7-0.5,1.3-1,1.7L15.8,22.8z"/>
  <path class="st0" d="M27.2,24.1c1,1.3,2.6,2.1,4.3,1.9c2.6,0,4.5-1.2,4.5-3.4c0.1-1.3-0.8-2.5-2.1-2.7v0c1.2-0.3,1.9-1.4,1.8-2.6 c0-2-1.9-3.3-4.1-3.3c-1.7-0.1-3.3,0.6-4.3,2c-0.4,0.6-0.3,1.4,0.3,1.8c0,0,0,0,0.1,0c0.6,0.5,1.5,0.4,2.1-0.2 c0.4-0.4,0.9-0.6,1.5-0.6c0.5,0,1,0.2,1,0.7s-0.4,0.7-1,0.7c-0.4,0-0.6,0-1,0c-0.7,0-1.1,0.5-1.1,1.4c0,0.8,0.4,1.5,1.1,1.5 c0.4,0,0.7,0,1.1,0c0.6,0,1.1,0.3,1.1,0.8s-0.4,0.8-1.1,0.8c-0.7,0-1.4-0.3-1.9-0.8c-0.5-0.5-1.3-0.6-1.8-0.1c0,0,0,0,0,0 C27,22.5,26.8,23.4,27.2,24.1z"/>
</svg>