<?xml-stylesheet type="text/css" href="../../css/svg.css"?>
<svg class="arithmetic_icon cal_icon" xmlns="http://www.w3.org/2000/svg" width="56" height="56" viewBox="0 0 56 56">
    <path d="M-2236.369 4465.743a11.23 11.23 0 0 1 2.836-7.923.393.393 0 0 0 .106-.276v-.347a.376.376 0 0 0-.143-.307.237.237 0 0 0-.286 0c-2.624 1.866-4.012 4.929-4.012 8.856 0 4.006 1.351 6.973 4.016 8.817a.248.248 0 0 0 .139.045.251.251 0 0 0 .145-.049.378.378 0 0 0 .141-.306v-.308a.4.4 0 0 0-.1-.271 11.272 11.272 0 0 1-2.842-7.931z" transform="translate(2243.867 -4436.142)" class="st2"/>
    <path data-name="shape" d="M-2207.068 4456.887a.239.239 0 0 0-.285 0 .379.379 0 0 0-.142.307v.347a.393.393 0 0 0 .106.276 11.231 11.231 0 0 1 2.835 7.923 11.273 11.273 0 0 1-2.841 7.929.4.4 0 0 0-.1.271v.308a.375.375 0 0 0 .141.305.246.246 0 0 0 .145.05.246.246 0 0 0 .139-.046c2.665-1.845 4.016-4.812 4.016-8.818 0-3.923-1.387-6.985-4.014-8.852z" transform="translate(2247.513 -4436.143)" class="st2" />
    <path d="M146.643 80.557a4.969 4.969 0 0 1-1.229 3.261 4.376 4.376 0 0 1-1.285.995 3.318 3.318 0 0 1-1.517.362 4.958 4.958 0 0 1-1.064-.1 2.993 2.993 0 0 1-.783-.278 2.26 2.26 0 0 1-.548-.411 3.163 3.163 0 0 1-.393-.51l1.81-7.955.06-.278a1.133 1.133 0 0 0 .025-.235.748.748 0 0 0-.084-.39.531.531 0 0 0-.238-.207 1.245 1.245 0 0 0-.372-.084q-.224-.021-.456-.049l.1-.428 2.593-.154.07.105-1.061 4.663h.028a4.6 4.6 0 0 1 1.115-.776 2.3 2.3 0 0 1 .939-.214 2.079 2.079 0 0 1 1.681.728 2.943 2.943 0 0 1 .609 1.955zm-1.447.035a4.27 4.27 0 0 0-.067-.749 1.807 1.807 0 0 0-.222-.629 1.165 1.165 0 0 0-.443-.422 1.432 1.432 0 0 0-.7-.155 1.278 1.278 0 0 0-.465.084 2.88 2.88 0 0 0-.45.225 2.62 2.62 0 0 0-.4.306q-.194.179-.355.32l-.934 4.169a.829.829 0 0 0 .127.309 1.141 1.141 0 0 0 .267.3 1.414 1.414 0 0 0 .443.246 1.661 1.661 0 0 0 .542.084 1.847 1.847 0 0 0 1.045-.327 2.921 2.921 0 0 0 .841-.882 4.585 4.585 0 0 0 .577-1.35 6.152 6.152 0 0 0 .198-1.529z" transform="translate(-107.83 -50.755)" style="stroke-linecap:round;stroke-linejoin:round;" class="st2 opacity_50" />
    <path d="M138.812 148.55h-.049q-.154.126-.368.319a3.354 3.354 0 0 1-.5.368 3.551 3.551 0 0 1-.6.305 1.855 1.855 0 0 1-.7.13 1.919 1.919 0 0 1-1.593-.73 3.128 3.128 0 0 1-.578-1.993 4.589 4.589 0 0 1 .322-1.691 5.025 5.025 0 0 1 .89-1.474 4.248 4.248 0 0 1 1.282-1.007 3.3 3.3 0 0 1 1.528-.383 3.338 3.338 0 0 1 .949.133 2.764 2.764 0 0 1 .711.3l1.287-.33.084.105-1.068 4.528q-.056.218-.116.53a2.742 2.742 0 0 0-.06.46.684.684 0 0 0 .168.541.9.9 0 0 0 .569.14 2.421 2.421 0 0 0 .379-.042 2.259 2.259 0 0 0 .379-.091l-.105.449q-.632.252-.942.365a2.214 2.214 0 0 1-.752.112 1.083 1.083 0 0 1-.8-.295 1.119 1.119 0 0 1-.317-.749zm1.01-4.436a1.947 1.947 0 0 0-.049-.442.935.935 0 0 0-.2-.393.974.974 0 0 0-.386-.281 1.575 1.575 0 0 0-.617-.105 1.723 1.723 0 0 0-1 .337 3.429 3.429 0 0 0-.87.905 4.717 4.717 0 0 0-.6 1.292 5.423 5.423 0 0 0-.182 2.3 1.941 1.941 0 0 0 .189.6.969.969 0 0 0 .385.414 1.246 1.246 0 0 0 .637.147 1.8 1.8 0 0 0 .822-.221 3.975 3.975 0 0 0 .969-.776z" transform="translate(-122.965 -115.215)" style="stroke-linecap:round;stroke-linejoin:round;" class="st2 opacity_50"/>
    <path data-name="shape" d="M3.331 7.772V5.551h-2.22a1.11 1.11 0 1 1 0-2.22h2.22v-2.22a1.111 1.111 0 0 1 2.221 0v2.22h2.22a1.11 1.11 0 1 1 0 2.22h-2.22v2.221a1.111 1.111 0 0 1-2.221 0z" transform="translate(21.013 25.561)" class="st0" />
    <path data-name="패스 11562" d="M-2448.244 4546.752h-3.21a.615.615 0 0 1-.615-.615.616.616 0 0 1 .167-.421l1.877-2a5.045 5.045 0 0 0 .624-.8 1.291 1.291 0 0 0 .2-.651.965.965 0 0 0-.212-.661.771.771 0 0 0-.607-.241.831.831 0 0 0-.67.293 1.163 1.163 0 0 0-.195.373.525.525 0 0 1-.492.4h-.229a.509.509 0 0 1-.484-.667 2.089 2.089 0 0 1 .174-.388 1.944 1.944 0 0 1 .777-.749 2.374 2.374 0 0 1 1.14-.268 2.241 2.241 0 0 1 1.515.469 1.656 1.656 0 0 1 .54 1.325 2.126 2.126 0 0 1-.243.954 5.289 5.289 0 0 1-.833 1.132l-1.436 1.512h2.209a.505.505 0 0 1 .505.5.5.5 0 0 1-.502.503z" transform="translate(2497.739 -4523.346)" class="st2 opacity_50"/>
</svg>
