<?xml-stylesheet type="text/css" href="../../css/svg.css"?>
<svg class="arithmetic_icon" xmlns="http://www.w3.org/2000/svg" xmlns:xlink="http://www.w3.org/1999/xlink" x="0px" y="0px" viewBox="0 0 40 40" style="enable-background:new 0 0 40 40;" xml:space="preserve">                    
  <path class="st0" d="M14,22c-0.4,0-1-0.8-1-2s0.6-2,1-2c1.1,0,2-0.9,2-2s-0.9-2-2-2c-1.5,0-2.9,0.8-3.7,2c-0.1,0.1-0.2,0.3-0.3,0.5 c-0.1-0.2-0.2-0.3-0.3-0.5C8.9,14.8,7.5,14,6,14c-1.1,0-2,0.9-2,2s0.9,2,2,2c0.4,0,1,0.8,1,2s-0.6,2-1,2c-1.1,0-2,0.9-2,2s0.9,2,2,2 c1.5,0,2.9-0.8,3.7-2c0.1-0.1,0.2-0.3,0.3-0.5c0.1,0.2,0.2,0.3,0.3,0.5c0.9,1.2,2.2,1.9,3.7,2c1.1,0,2-0.9,2-2S15.1,22,14,22z"/>
  <path class="st0 opacity_50" d="M31.6,15l4.2,8.4c0.4,0.9,0.1,1.9-0.8,2.4c-0.2,0.1-0.5,0.2-0.8,0.2h-8.5c-1,0-1.8-0.8-1.8-1.8 c0-0.3,0.1-0.5,0.2-0.8l4.2-8.5c0.4-0.9,1.5-1.2,2.4-0.8C31.1,14.4,31.4,14.6,31.6,15z"/>
  <path class="st0" d="M19,17h3c0.6,0,1,0.4,1,1l0,0c0,0.6-0.4,1-1,1h-3c-0.6,0-1-0.4-1-1l0,0C18,17.4,18.4,17,19,17z"/>
  <path class="st0" d="M19,21h3c0.6,0,1,0.4,1,1l0,0c0,0.6-0.4,1-1,1h-3c-0.6,0-1-0.4-1-1l0,0C18,21.4,18.4,21,19,21z"/>
</svg>