<?xml-stylesheet type="text/css" href="../../css/svg.css"?>
<svg class="arithmetic_icon cal_icon" xmlns="http://www.w3.org/2000/svg" width="56" height="56" viewBox="0 0 56 56">
    <path d="M2258.954 1719.539a3.231 3.231 0 0 1-2.628-1.353l-4.247-5.947a3.231 3.231 0 0 1-4.454-4.679l2.584-2.585a3.231 3.231 0 0 1 4.914.407l3.244 4.545 6.706-14.374a3.23 3.23 0 0 1 2.928-1.865h16.8a3.231 3.231 0 0 1 0 6.463h-14.741l-8.176 17.524a3.23 3.23 0 0 1-2.631 1.851c-.102.008-.2.013-.299.013z" transform="translate(-2239.028 -1676.357)" class="st2 opacity_50" />
    <path data-name="shape" d="M3.75.229H8.4a3.762 3.762 0 0 1 3.774 3.74A3.779 3.779 0 0 1 8.4 7.729H3.75a3.738 3.738 0 0 1-3.726-3.76A3.722 3.722 0 0 1 3.75.229z" transform="translate(38.172 16.59)" class="st0"/>
</svg>
