<?xml-stylesheet type="text/css" href="../../css/svg.css"?>
<svg class="arithmetic_icon cal_icon" xmlns="http://www.w3.org/2000/svg" width="56" height="56" viewBox="0 0 56 56">
    <path d="M-2217.848 4460.158a3.338 3.338 0 0 0-.623-.663 2.891 2.891 0 0 0-1.534-.4 3.461 3.461 0 0 0-2.228.86 7.213 7.213 0 0 0-1.129 1.241 5.594 5.594 0 0 0-.214-.611 2.608 2.608 0 0 0-.583-.887 2.051 2.051 0 0 0-.851-.494 3.115 3.115 0 0 0-.818-.109 3.258 3.258 0 0 0-1.67.439 10.186 10.186 0 0 0-1.231 1.056 1.143 1.143 0 0 0-.361.8 1.145 1.145 0 0 0 .313.824l.063.061a1.191 1.191 0 0 0 1.623-.021c.3-.294.494-.472.522-.494a.526.526 0 0 1 .1-.048.906.906 0 0 1 .108.224 7.737 7.737 0 0 1 .309 1.073c.1.43.217 1.016.354 1.743-.341.51-.723 1.1-1.137 1.75q-.647 1.006-.922 1.415a4.326 4.326 0 0 1-.383.506v.005a2.267 2.267 0 0 1-.094-.161 1.427 1.427 0 0 0-1.792-.6 1.394 1.394 0 0 0-.754 1.817 1.4 1.4 0 0 0 .186.32 3.4 3.4 0 0 0 .625.664 2.868 2.868 0 0 0 1.464.4 3.291 3.291 0 0 0 .965-.13 3.648 3.648 0 0 0 .854-.385 4.629 4.629 0 0 0 .841-.679 7.194 7.194 0 0 0 .814-.988l.013-.018a4.792 4.792 0 0 0 .457 1.109 2.242 2.242 0 0 0 .871.837 2.59 2.59 0 0 0 1.126.259 3.4 3.4 0 0 0 1.7-.435 10.117 10.117 0 0 0 1.241-1.061 1.152 1.152 0 0 0 .048-1.626l-.062-.06a1.189 1.189 0 0 0-1.623.021 22.71 22.71 0 0 1-.523.5.564.564 0 0 1-.1.049.792.792 0 0 1-.027-.047 5.448 5.448 0 0 1-.384-1.2c-.1-.418-.23-1.058-.385-1.9.418-.621.771-1.162 1.078-1.652q.647-1.006.922-1.415a4.636 4.636 0 0 1 .381-.505l.006-.006c.032.052.063.1.093.162a1.431 1.431 0 0 0 1.792.6 1.393 1.393 0 0 0 .754-1.816 1.355 1.355 0 0 0-.195-.324z" transform="translate(2260 -4431.873)" class="st0"/>
    <path data-name="shape" d="M-2236.368 4464.078a8.206 8.206 0 0 1 2.839-6.442.29.29 0 0 0 .106-.225v-.282a.289.289 0 0 0-.143-.25.284.284 0 0 0-.286 0 7.868 7.868 0 0 0-4.015 7.2 7.663 7.663 0 0 0 4.019 7.169.294.294 0 0 0 .139.037.29.29 0 0 0 .146-.041.289.289 0 0 0 .141-.248v-.251a.289.289 0 0 0-.1-.22 8.228 8.228 0 0 1-2.846-6.447z" transform="translate(2261.978 -4431.061)" class="st2 opacity_50" />
    <path data-name="shape" d="M-2207.067 4456.878a.285.285 0 0 0-.285 0 .289.289 0 0 0-.142.25v.282a.289.289 0 0 0 .106.225 8.2 8.2 0 0 1 2.837 6.442 8.229 8.229 0 0 1-2.843 6.446.294.294 0 0 0-.1.22v.257a.288.288 0 0 0 .141.248.286.286 0 0 0 .145.041.3.3 0 0 0 .139-.037 7.663 7.663 0 0 0 4.019-7.169 7.865 7.865 0 0 0-4.017-7.205z" transform="translate(2251.051 -4431.062)" class="st2 opacity_50" />
    <path data-name="shape" d="M-2248.6 4447.405v-.129a1.108 1.108 0 0 0-1.109-1.108h-2.065c.113-.448.2-.762.265-.994l.071-.258a9.712 9.712 0 0 1 2.26-4.21 3.408 3.408 0 0 1 1.323-.809l.417.7a3 3 0 0 0 1.8 1.5 1.688 1.688 0 0 0 2.119-.891l.016-.034v-.039a3.075 3.075 0 0 0-2.54-2.395 4.973 4.973 0 0 0-4.239.553 9.576 9.576 0 0 0-3.933 5.911 17.26 17.26 0 0 0-.277.972h-2.321a1.174 1.174 0 0 0-1.174 1.173 1.173 1.173 0 0 0 1.174 1.173h1.781c-.151.715-.327 1.573-.533 2.624-.792 4.056-1.188 5.487-1.4 6.256l-.071.26a9.707 9.707 0 0 1-2.26 4.21 3.4 3.4 0 0 1-1.334.813l-.4-.7a2.877 2.877 0 0 0-1.773-1.491 1.7 1.7 0 0 0-2.148.883l-.017.034v.039a3.044 3.044 0 0 0 2.511 2.387 6.2 6.2 0 0 0 1.606.225 4.98 4.98 0 0 0 2.7-.79 9.537 9.537 0 0 0 3.9-5.887 55.258 55.258 0 0 0 1.334-5.888c.234-1.2.435-2.173.609-2.976h2.609a1.108 1.108 0 0 0 1.099-1.114z" transform="translate(2272.979 -4423.276)" style="stroke-width:1.5px;" class="st2"/>
</svg>
