<?xml-stylesheet type="text/css" href="../../css/svg.css"?>
<svg class="arithmetic_icon mult_icon" xmlns="http://www.w3.org/2000/svg" xmlns:xlink="http://www.w3.org/1999/xlink" x="0px" y="0px" viewBox="0 0 40 40" style="enable-background:new 0 0 40 40;" xml:space="preserve">                  
  <path class="st0 opacity_50" d="M14.3,10.2l15.6,15.6c1.2,1.2,1.2,3.1,0,4.2l0,0c-1.2,1.2-3.1,1.2-4.2,0L10.1,14.5c-1.2-1.2-1.2-3.1,0-4.2l0,0 C11.3,9.1,13.2,9.1,14.3,10.2z"/>
  <path class="st0" d="M29.9,14.2L14.3,29.8c-1.2,1.2-3.1,1.2-4.2,0l0,0c-1.2-1.2-1.2-3.1,0-4.2L25.7,10c1.2-1.2,3.1-1.2,4.2,0l0,0 C31.1,11.1,31.1,13,29.9,14.2z"/>
</svg>