<?xml-stylesheet type="text/css" href="../../css/svg.css"?>

<svg class="change_icon" xmlns="http://www.w3.org/2000/svg" xmlns:xlink="http://www.w3.org/1999/xlink" x="0px"
	 y="0px" viewBox="0 0 24 24" style="enable-background:new 0 0 24 24;" xml:space="preserve">
<style type="text/css">
	.st0{fill:none;}
</style>
<path class="st0" d="M0,0h24v24H0V0z"/>
<g>
	<path class="st1" d="M20.7,7.8L18,5.3c-0.4-0.4-1-0.4-1.4,0.1c-0.4,0.4-0.4,1,0.1,1.4l0.8,0.8H11c-0.6,0-1,0.4-1,1s0.4,1,1,1h6.5
		l-0.8,0.8c-0.4,0.4-0.4,1-0.1,1.4c0.2,0.2,0.5,0.3,0.7,0.3c0.2,0,0.5-0.1,0.7-0.3l2.7-2.5C20.9,9,21,8.8,21,8.5S20.9,8,20.7,7.8z"
		/>
	<path class="st1" d="M13,14.5H6.6l0.8-0.8c0.4-0.4,0.4-1,0.1-1.4c-0.4-0.4-1-0.4-1.4-0.1l-2.7,2.5C3.1,15,3,15.2,3,15.5
		s0.1,0.5,0.3,0.7L6,18.7C6.2,18.9,6.5,19,6.7,19c0.3,0,0.5-0.1,0.7-0.3c0.4-0.4,0.4-1-0.1-1.4l-0.8-0.8H13c0.6,0,1-0.4,1-1
		S13.6,14.5,13,14.5z"/>
</g>
</svg>
