<svg xmlns="http://www.w3.org/2000/svg" width="50" height="15" viewBox="0 0 50 15">
    <defs>
        <clipPath id="isw00wt3aa">
            <path data-name="사각형 2412" transform="translate(179.742 704.875)" style="fill:none" d="M0 0h50v15H0z"/>
        </clipPath>
    </defs>
    <g data-name="img_CL_tie_level" style="clip-path:url(#isw00wt3aa)" transform="translate(-179.742 -704.875)">
        <g data-name="그룹 13205">
            <path data-name="패스 12170" d="M184.4 717.858a1.654 1.654 0 0 1-.45-1.223v-9.324l.63-.1a5.5 5.5 0 0 1 .828-.064 2.143 2.143 0 0 1 1.3.307 1.439 1.439 0 0 1 .4 1.188v7.128h4.122a2.446 2.446 0 0 1 .233.522 2.206 2.206 0 0 1 .108.7 1.456 1.456 0 0 1-.288.99 1 1 0 0 1-.792.324h-4.86a1.65 1.65 0 0 1-1.231-.448z" style="fill:#fff"/>
            <path data-name="패스 12171" d="M195.4 715.087a1.56 1.56 0 0 0 .846.909 3.277 3.277 0 0 0 1.332.261 5.384 5.384 0 0 0 1.44-.189 4.42 4.42 0 0 0 1.1-.441 1.507 1.507 0 0 1 .486.5 1.3 1.3 0 0 1 .2.683 1.224 1.224 0 0 1-.252.775 1.908 1.908 0 0 1-.711.54 4.062 4.062 0 0 1-1.089.315 8.954 8.954 0 0 1-1.386.1 6.308 6.308 0 0 1-1.971-.3 4.363 4.363 0 0 1-1.575-.892 4.087 4.087 0 0 1-1.044-1.493 5.41 5.41 0 0 1-.378-2.106 4.926 4.926 0 0 1 .387-2.043 3.983 3.983 0 0 1 1.026-1.4 4.141 4.141 0 0 1 1.449-.81 5.368 5.368 0 0 1 1.656-.262 5.034 5.034 0 0 1 1.738.288 4.2 4.2 0 0 1 1.349.792 3.434 3.434 0 0 1 .873 1.206 3.8 3.8 0 0 1 .306 1.531 1.23 1.23 0 0 1-.342.936 1.71 1.71 0 0 1-.954.414zm1.53-3.618a1.643 1.643 0 0 0-1.143.414 1.8 1.8 0 0 0-.549 1.17l3.06-.5a1.118 1.118 0 0 0-.108-.369 1.267 1.267 0 0 0-.252-.351 1.207 1.207 0 0 0-.413-.261 1.63 1.63 0 0 0-.599-.103z" style="fill:#fff"/>
            <path data-name="패스 12172" d="M209.526 709.326a1.97 1.97 0 0 1 1.063.271 1.014 1.014 0 0 1 .432.935 4.075 4.075 0 0 1-.126.838c-.084.366-.2.78-.342 1.242s-.307.951-.487 1.467-.366 1.017-.557 1.5-.385.942-.576 1.368-.361.771-.5 1.035a2.022 2.022 0 0 1-.739.324 4.381 4.381 0 0 1-1.1.126 3.676 3.676 0 0 1-1.215-.18 1.183 1.183 0 0 1-.711-.576q-.162-.306-.388-.846t-.476-1.225q-.252-.682-.523-1.439t-.512-1.512q-.245-.756-.442-1.459t-.327-1.238a2.341 2.341 0 0 1 1.6-.631 1.884 1.884 0 0 1 1.036.262 1.625 1.625 0 0 1 .6.98l.7 2.755q.2.81.378 1.467c.12.439.21.777.271 1.017h.09q.341-1.332.719-2.953t.685-3.185a2.835 2.835 0 0 1 .692-.252 3.244 3.244 0 0 1 .755-.091z" style="fill:#fff"/>
            <path data-name="패스 12173" d="M214.927 715.087a1.559 1.559 0 0 0 .845.909 3.277 3.277 0 0 0 1.332.261 5.384 5.384 0 0 0 1.44-.189 4.445 4.445 0 0 0 1.1-.441 1.514 1.514 0 0 1 .485.5 1.291 1.291 0 0 1 .2.683 1.224 1.224 0 0 1-.252.775 1.908 1.908 0 0 1-.711.54 4.052 4.052 0 0 1-1.089.315 8.94 8.94 0 0 1-1.385.1 6.314 6.314 0 0 1-1.972-.3 4.359 4.359 0 0 1-1.574-.892 4.077 4.077 0 0 1-1.045-1.493 5.41 5.41 0 0 1-.378-2.106 4.91 4.91 0 0 1 .388-2.043 3.969 3.969 0 0 1 1.025-1.4 4.141 4.141 0 0 1 1.449-.81 5.368 5.368 0 0 1 1.656-.262 5.034 5.034 0 0 1 1.738.288 4.2 4.2 0 0 1 1.349.792 3.434 3.434 0 0 1 .873 1.206 3.779 3.779 0 0 1 .306 1.531 1.23 1.23 0 0 1-.342.936 1.71 1.71 0 0 1-.954.414zm1.529-3.618a1.643 1.643 0 0 0-1.143.414 1.791 1.791 0 0 0-.548 1.17l3.059-.5a1.118 1.118 0 0 0-.108-.369 1.267 1.267 0 0 0-.252-.351 1.2 1.2 0 0 0-.413-.261 1.627 1.627 0 0 0-.595-.103z" style="fill:#fff"/>
            <path data-name="패스 12174" d="M223.962 718.4a2.2 2.2 0 0 1-1.3-.3 1.359 1.359 0 0 1-.4-1.143v-10.44a4.777 4.777 0 0 1 .566-.109 5.706 5.706 0 0 1 .8-.054 2.208 2.208 0 0 1 1.3.3 1.365 1.365 0 0 1 .4 1.144v10.44a5.341 5.341 0 0 1-.567.108 5.549 5.549 0 0 1-.799.054z" style="fill:#fff"/>
        </g>
    </g>
</svg>
