<?xml-stylesheet type="text/css" href="../../css/svg.css"?>
<svg class="topic_icon" xmlns="http://www.w3.org/2000/svg" xmlns:xlink="http://www.w3.org/1999/xlink" x="0px" y="0px" viewBox="0 0 48 48" style="enable-background:new 0 0 48 48;" xml:space="preserve">       
  <g>
    <path class="st0" d="M11.7,24h6.6c3.1,0,5.7,2.5,5.7,5.7v6.6c0,3.1-2.5,5.7-5.7,5.7h-6.6C8.5,42,6,39.5,6,36.3v-6.6 C6,26.5,8.5,24,11.7,24z"/>
    <path class="st1" d="M16.4,33l1.8-1.8c0.4-0.4,0.4-1,0-1.4c-0.4-0.4-1-0.4-1.4,0L15,31.6l-1.8-1.8c-0.4-0.4-1-0.4-1.4,0 c-0.4,0.4-0.4,1,0,1.4l1.8,1.8l-1.8,1.8c-0.4,0.4-0.4,1,0,1.4c0.4,0.4,1,0.4,1.4,0l1.8-1.8l1.8,1.8c0.4,0.4,1,0.4,1.4,0 c0.4-0.4,0.4-1,0-1.4L16.4,33z"/>
    <path class="st0" d="M29.7,6h6.6c3.1,0,5.7,2.5,5.7,5.7v6.6c0,3.1-2.5,5.7-5.7,5.7l0,0h-6.6c-3.1,0-5.7-2.5-5.7-5.7v-6.6 C24,8.5,26.5,6,29.7,6z"/>
    <path class="st1" d="M36.5,14h-7c-0.6,0-1,0.4-1,1s0.4,1,1,1h7c0.6,0,1-0.4,1-1S37.1,14,36.5,14z"/>
    <path class="st2" d="M29.7,24h6.6c3.1,0,5.7,2.5,5.7,5.7v6.6c0,3.1-2.5,5.7-5.7,5.7h-6.6c-3.1,0-5.7-2.5-5.7-5.7v-6.6 C24,26.5,26.5,24,29.7,24z"/>
    <g>
      <path class="st1" d="M36.5,32h-7c-0.6,0-1,0.4-1,1s0.4,1,1,1h7c0.6,0,1-0.4,1-1S37.1,32,36.5,32z"/>
      <circle class="st1" cx="33" cy="30" r="1"/>
      <circle class="st1" cx="33" cy="36" r="1"/>
    </g>
    <path class="st2" d="M11.7,6h6.6c3.1,0,5.7,2.5,5.7,5.7v6.6c0,3.1-2.5,5.7-5.7,5.7c0,0,0,0,0,0h-6.6C8.5,24,6,21.5,6,18.3v-6.6 C6,8.5,8.5,6,11.7,6z"/>
    <path class="st1" d="M18.5,14H16v-2.5c0-0.6-0.4-1-1-1s-1,0.4-1,1V14h-2.5c-0.6,0-1,0.4-1,1s0.4,1,1,1H14v2.5c0,0.6,0.4,1,1,1 s1-0.4,1-1V16h2.5c0.6,0,1-0.4,1-1S19.1,14,18.5,14z"/>
  </g>
</svg>