<?xml-stylesheet type="text/css" href="../../css/svg.css"?>
 
 <svg class="daily_icon" xmlns="http://www.w3.org/2000/svg" xmlns:xlink="http://www.w3.org/1999/xlink" x="0px" y="0px" viewBox="0 0 48 48" style="enable-background:new 0 0 48 48;" xml:space="preserve">  
  <path class="flag" d="M8,8l33,0c0.6,0,1,0.4,1,1c0,0.2-0.1,0.5-0.2,0.6L33.6,19l8.2,9.3c0.4,0.4,0.3,1-0.1,1.4c0,0,0,0,0,0  C41.5,29.9,41.2,30,41,30L8,30L8,8z"/>
  <path class="flag_stick" d="M8,6c1.1,0,2,0.8,2,1.8v32.3c0,1.1-0.9,1.9-2,1.8c-1.1,0-2-0.8-2-1.8V7.8C6,6.8,6.9,6,8,6z"/>
  <path class="flag_star" d="M22.1,14.9c0.2-0.5,0.8-0.7,1.3-0.5c0.2,0.1,0.4,0.3,0.5,0.5l0.8,1.7c0.1,0.3,0.4,0.5,0.8,0.6l1.8,0.2 c0.5,0.1,0.9,0.6,0.9,1.1c0,0.2-0.1,0.5-0.3,0.6l-1.3,1.2c-0.3,0.2-0.4,0.6-0.3,0.9l0.3,1.7c0.1,0.5-0.2,1.1-0.8,1.2 c-0.2,0-0.5,0-0.7-0.1l-1.7-0.9c-0.3-0.2-0.6-0.2-0.9,0L20.8,24c-0.5,0.3-1.1,0.1-1.4-0.4c-0.1-0.2-0.1-0.4-0.1-0.7l0.3-1.7 c0.1-0.3,0-0.7-0.3-0.9L18.1,19c-0.4-0.4-0.4-1-0.1-1.4c0.2-0.2,0.4-0.3,0.6-0.3l1.8-0.2c0.3,0,0.6-0.3,0.8-0.6L22.1,14.9z"/>
</svg>