<?xml-stylesheet type="text/css" href="../../css/svg.css"?>
<svg class="game_icon" xmlns="http://www.w3.org/2000/svg" xmlns:xlink="http://www.w3.org/1999/xlink" x="0px" y="0px" viewBox="0 0 48 48" style="enable-background:new 0 0 48 48;" xml:space="preserve">       
  <path class="st0" d="M34,10c5.5,0,10,4.5,10,10v13.5c0,2.5-2,4.5-4.5,4.5l0,0C37,38,35,36,35,33.5l0,0V31H13v2.5C13,36,11,38,8.5,38
    l0,0C6,38,4,36,4,33.5l0,0V20c0-5.5,4.5-10,10-10H34z M14,15c-2.8,0-5,2.2-5,5s2.2,5,5,5s5-2.2,5-5S16.8,15,14,15z"/>
  <g>
    <circle class="st1" cx="32" cy="16" r="2"/>
    <circle class="st1" cx="28" cy="20" r="2"/>
    <circle class="st1" cx="36" cy="20" r="2"/>
    <circle class="st1" cx="32" cy="24" r="2"/>
  </g>
  </svg>