<?xml-stylesheet type="text/css" href="../../css/svg.css"?>

<svg class="monthly_test_icon" xmlns="http://www.w3.org/2000/svg" xmlns:xlink="http://www.w3.org/1999/xlink" x="0px" y="0px" viewBox="0 0 48 48" style="enable-background:new 0 0 48 48;" xml:space="preserve">
<path class="st0" d="M30.5,6H11.4C8.5,5.9,6.1,8.1,6,10.9v26.2c0.1,2.8,2.5,5,5.4,4.9h23.3c2.8,0.1,5.2-2.1,5.4-4.9V14.5L30.5,6z
	 M23.7,34.9h-9.4c-0.8-0.1-1.3-0.7-1.3-1.5c-0.1-0.8,0.5-1.4,1.3-1.5h9.4c0.8,0.1,1.3,0.7,1.3,1.5C25.1,34.1,24.5,34.8,23.7,34.9z
	 M31.6,27.9H14.4c-0.8,0-1.4-0.7-1.4-1.5c0-0.8,0.6-1.5,1.4-1.5h17.3c0.8,0,1.4,0.7,1.4,1.5C33,27.2,32.4,27.8,31.6,27.9z
	 M31.6,20.9H14.4c-0.8,0-1.4-0.7-1.4-1.5c0-0.8,0.6-1.5,1.4-1.5h17.3c0.8,0,1.4,0.7,1.4,1.5C33,20.2,32.4,20.8,31.6,20.9z"/>
<path class="st1" d="M40,14.5h-8.5c-0.6,0-1-0.4-1-1l0-7.5"/>
<path class="st2" d="M39.3,17.4c-0.1-0.1-0.2-0.2-0.3-0.2c-0.5-0.3-1-0.2-1.4,0.2l-2.2,2.8V39c0,1.7,1.3,3,3,3s3-1.3,3-3V20.2
	L39.3,17.4z"/>
<path class="st3" d="M35.8,35.6h5.5c0.4,0,0.8,0.3,0.8,0.8s-0.3,0.8-0.8,0.8h-5.5c-0.4,0-0.8-0.3-0.8-0.8S35.3,35.6,35.8,35.6z"/>
</svg>
