<?xml-stylesheet type="text/css" href="../../css/svg.css"?>

<svg class="ocr_icon" xmlns="http://www.w3.org/2000/svg" xmlns:xlink="http://www.w3.org/1999/xlink" x="0px"
	 y="0px" viewBox="0 0 48 48" style="enable-background:new 0 0 48 48;" xml:space="preserve">
<path class="st0" d="M36.3,12H35l-1.8-3.8c-0.6-1.3-2-2.2-3.4-2.2H17.7C16,6,14.5,7.1,14,8.7L13,12h-1.3c-3.2,0.1-5.8,2.8-5.7,6v18
	c-0.1,3.2,2.5,5.9,5.7,6h24.6c3.2-0.1,5.8-2.8,5.7-6V18C42.1,14.8,39.5,12.1,36.3,12z M24,37c-5.5,0-10-4.5-10-10
	c0-5.5,4.5-10,10-10s10,4.5,10,10C34,32.5,29.5,37,24,37z"/>
<circle class="st1" cx="24" cy="27" r="7"/>
<path class="st2" d="M40.5,11h-3V8c0-0.8-0.7-1.5-1.5-1.5S34.5,7.2,34.5,8v3h-3c-0.8,0-1.5,0.7-1.5,1.5s0.7,1.5,1.5,1.5h3v3
	c0,0.8,0.7,1.5,1.5,1.5s1.5-0.7,1.5-1.5v-3h3c0.8,0,1.5-0.7,1.5-1.5S41.3,11,40.5,11z"/>
</svg>
