<?xml-stylesheet type="text/css" href="../../css/svg.css"?>

<svg class="pop_quiz_cion" xmlns="http://www.w3.org/2000/svg" xmlns:xlink="http://www.w3.org/1999/xlink" x="0px"
	 y="0px" viewBox="0 0 48 48" style="enable-background:new 0 0 48 48;" xml:space="preserve">
<g>
	<path class="st0" d="M25.7,25.6c0-0.7-0.2-1.4-0.6-2c-0.3-0.3-0.7-0.5-1.2-0.5l-0.1,0l-0.1,0c-0.5,0-1,0.2-1.3,0.6
		c-0.4,0.5-0.6,1.2-0.6,1.9l0,0.1l0,0.1c0,0.7,0.2,1.4,0.6,2c0.3,0.3,0.7,0.5,1.2,0.5l0.1,0l0.1,0c0.5,0,1-0.2,1.3-0.6
		c0.4-0.5,0.6-1.2,0.6-1.9L25.7,25.6L25.7,25.6z"/>
	<path class="st0" d="M24,10c-8.3,0-15,6.7-15,15v15h30V25C39,16.7,32.3,10,24,10z M29.9,34.2c-0.5,0.4-1,0.7-1.6,0.7
		c0,0-0.1,0-0.1,0c-0.8-0.1-1.5-0.3-2.1-0.7c-0.7-0.3-1.4-0.8-2-1.2l-0.7-0.5c-1,0-1.9-0.3-2.8-0.8c-1-0.6-1.8-1.4-2.3-2.4
		c-0.6-1.1-0.8-2.4-0.8-3.6c0-1.2,0.2-2.4,0.8-3.5c0.5-1,1.3-1.8,2.3-2.4c1-0.5,2.1-0.8,3.2-0.8c1.1,0,2.2,0.3,3.1,0.8
		c1,0.6,1.8,1.4,2.3,2.4c0.6,1.1,0.8,2.4,0.8,3.6c0,1.2-0.2,2.5-0.8,3.6c-0.2,0.5-0.5,0.9-0.9,1.2c0.3,0.1,0.7,0.3,1.1,0.4l0.7,0.3
		l0.2,0.7c0.1,0.2,0.1,0.4,0.1,0.6l0,0.2C30.5,33.2,30.3,33.8,29.9,34.2z"/>
</g>
<g>
	<path class="st1" d="M6.1,15.5L6.1,15.5c0.1-0.5,0.7-0.8,1.2-0.7l1.9,0.5c0.5,0.1,0.8,0.7,0.7,1.2l0,0c-0.1,0.5-0.7,0.8-1.2,0.7
		l-1.9-0.5C6.2,16.6,5.9,16,6.1,15.5z"/>
	<path class="st1" d="M38.3,16.6L38.3,16.6c-0.3-0.5-0.1-1.1,0.4-1.4l1.7-1c0.5-0.3,1.1-0.1,1.4,0.4l0,0c0.3,0.5,0.1,1.1-0.4,1.4
		l-1.7,1C39.2,17.3,38.5,17.1,38.3,16.6z"/>
	<path class="st1" d="M24,4L24,4c0.6,0,1,0.4,1,1v2c0,0.6-0.4,1-1,1l0,0c-0.6,0-1-0.4-1-1V5C23,4.4,23.4,4,24,4z"/>
	<path class="st1" d="M35.4,7.6L35.4,7.6c0.4,0.4,0.4,1,0,1.4L34,10.4c-0.4,0.4-1,0.4-1.4,0l0,0c-0.4-0.4-0.4-1,0-1.4L34,7.6
		C34.4,7.2,35,7.2,35.4,7.6z"/>
	<path class="st1" d="M12.6,7.6L12.6,7.6c0.4-0.4,1-0.4,1.4,0L15.4,9c0.4,0.4,0.4,1,0,1.4l0,0c-0.4,0.4-1,0.4-1.4,0L12.6,9
		C12.2,8.6,12.2,8,12.6,7.6z"/>
</g>
<path class="st1" d="M8,38h32c1.1,0,2,0.9,2,2l0,0c0,1.1-0.9,2-2,2H8c-1.1,0-2-0.9-2-2l0,0C6,38.9,6.9,38,8,38z"/>
</svg>
