<?xml-stylesheet type="text/css" href="../../css/svg.css"?>

<svg class="market_icon" xmlns="http://www.w3.org/2000/svg" xmlns:xlink="http://www.w3.org/1999/xlink" x="0px"
	 y="0px" viewBox="0 0 48 48" style="enable-background:new 0 0 48 48;" xml:space="preserve">

<path class="st0" d="M6,17h36v18.4c0,3.6-2.8,6.5-6.4,6.5H12.4c-3.6,0-6.4-3-6.4-6.5V17z"/>
<path class="st1" d="M6.5,13h34.9c1.4,0,2.5,1.1,2.5,2.5S42.9,18,41.5,18H6.5C5.2,18,4,16.9,4,15.5S5.2,13,6.5,13z"/>
<path class="st2" d="M10.8,6.7c1-1,2.6-1,3.5,0c0,0,0,0,0,0l5.7,5.7c1,1,1,2.6,0,3.5c0,0,0,0,0,0c-1,1-2.6,1-3.5,0c0,0,0,0,0,0
	l-5.7-5.7C9.8,9.3,9.8,7.7,10.8,6.7z"/>
<path class="st2" d="M37,6.7c-1-1-2.6-1-3.5,0c0,0,0,0,0,0l-5.7,5.7c-1,1-1,2.6,0,3.5c0,0,0,0,0,0c1,1,2.6,1,3.5,0c0,0,0,0,0,0
	l5.7-5.7C37.9,9.3,37.9,7.7,37,6.7z"/>
<path class="st3" d="M19.5,24c0.8,0,1.5,0.7,1.5,1.5v8c0,0.8-0.7,1.5-1.5,1.5S18,34.3,18,33.5v-8C18,24.7,18.7,24,19.5,24z"/>
<path class="st3" d="M28.5,24c0.8,0,1.5,0.7,1.5,1.5v8c0,0.8-0.7,1.5-1.5,1.5S27,34.3,27,33.5v-8C27,24.7,27.7,24,28.5,24z"/>
</svg>
