
<svg xmlns="http://www.w3.org/2000/svg" xmlns:xlink="http://www.w3.org/1999/xlink" x="0px" y="0px" viewBox="0 0 48 48" style="enable-background:new 0 0 48 48;" xml:space="preserve">
  <g>
    <path class="st0" style="fill:#F1F7FF;" d="M36,14h-3v-1.3c-0.2-3.8-3.5-6.9-7.2-6.7h-3.5c-3.8-0.1-7.1,2.8-7.3,6.7V14h-3c-3.3,0-6,2.7-6,6v16 c0,3.3,2.7,6,6,6h24c3.3,0,6-2.7,6-6V20C42,16.7,39.3,14,36,14z M19,12.8c0.1-1.6,1.5-2.9,3.2-2.8h3.7c1.6-0.1,3,1.2,3.2,2.8V14H19 V12.8z M38,36c0,1.1-0.9,2-2,2H12c-1.1,0-2-0.9-2-2V20c0-1.1,0.9-2,2-2h24c1.1,0,2,0.9,2,2V36z"/>
    <path class="st0" style="fill:#F1F7FF;" d="M28.2,23.7C27.1,22.6,25.6,22,24,22l0,0c-3.3,0-6,2.7-6,6s2.7,6,6,6s6-2.7,6-6.1C30,26.4,29.4,24.9,28.2,23.7z  M24,30c-1.1,0-2-0.9-2-2.1c0-1.1,0.9-2,2-2l0,0c0.5,0,1,0.2,1.4,0.6c0.4,0.5,0.6,1,0.6,1.5C26,29.1,25.1,30,24,30z"/>
  </g>
</svg>
