<?xml-stylesheet type="text/css" href="../../css/svg.css"?> 
<svg class="question_icon" xmlns="http://www.w3.org/2000/svg" xmlns:xlink="http://www.w3.org/1999/xlink" x="0px"
	 y="0px" viewBox="0 0 16 16" style="enable-background:new 0 0 16 16;" xml:space="preserve">
<path class="st0" style="fill:none; storke:none" d="M0,0h16v16H0V0z"/>
<path class="st1" d="M9.3,2.4C7.1,1.6,4.8,2.8,4.1,4.9C3.8,5.5,4.2,6.2,4.8,6.5c0.6,0.2,1.4-0.1,1.6-0.8c0.3-0.8,1.2-1.3,2-1
	C9.1,5,9.5,5.6,9.5,6.2c0,0.7-1.3,1.4-2,1.6c-0.7,0.2-1,0.9-0.8,1.6c0.2,0.5,0.7,0.9,1.2,0.9c0.1,0,0.3,0,0.4-0.1
	C8.7,10.1,12,9,12,6.2C12,4.5,10.9,3,9.3,2.4z"/>
<circle class="st1" cx="8" cy="12.5" r="1.2"/>
</svg>
