<svg xmlns="http://www.w3.org/2000/svg" width="24" height="24" viewBox="0 0 24 24">
    <g data-name="그룹 9161">
        <g data-name="그룹 7748">
            <path data-name="빼기 4" d="M15103.23 21869.139h-3.946a1 1 0 0 1-1-1v-3.826a.982.982 0 0 1 .286-.7l1.438-1.459 1.424 1.4-1.15 1.166v2.414h2.524l1.116-1.131 1.315 1.3a.972.972 0 0 0 .121.1l-1.422 1.441a1.012 1.012 0 0 1-.706.295zm3.519-3.145a.889.889 0 0 0-.1-.119l-1.314-1.293 6.83-6.924.008-.008a.032.032 0 0 0 .009-.008.848.848 0 0 0 .247-.627 1.967 1.967 0 0 0-.687-1.338 2.129 2.129 0 0 0-1.421-.676.975.975 0 0 0-.687.248l-6.789 6.881-1.425-1.4 6.8-6.895v-.006a2.985 2.985 0 0 1 2.086-.812 4.106 4.106 0 0 1 2.815 1.24 3.9 3.9 0 0 1 1.29 2.771 2.852 2.852 0 0 1-.846 2.059l-6.826 6.92z" transform="translate(-15094.353 -21849.137)" style="fill:#fff"/>
            <path data-name="빼기 5" d="M15102.227 21867.137h-3.945v-3.824l1.441-1.461 3.915 3.855-1.41 1.428zm2.817-2.854-3.913-3.855 6.8-6.889a1.962 1.962 0 0 1 1.387-.537 3.124 3.124 0 0 1 2.12.961 2.94 2.94 0 0 1 .989 2.053 1.861 1.861 0 0 1-.55 1.35l-6.83 6.918z" transform="translate(-15093.353 -21848.137)" style="fill:#fff"/>
        </g>
    </g>
</svg>
