<svg xmlns="http://www.w3.org/2000/svg" width="24" height="24" viewBox="0 0 24 24">
    <g data-name="그룹 373" transform="translate(-662 -269)">
        <path data-name="패스 268" d="M.389 0v3.392" transform="translate(672.056 280.762)" style="stroke:#999;stroke-linecap:round;stroke-linejoin:round;stroke-width:2px;fill:none"/>
        <path data-name="패스 269" d="M.389 0v3.392" transform="translate(675.167 280.762)" style="stroke:#999;stroke-linecap:round;stroke-linejoin:round;stroke-width:2px;fill:none"/>
        <path data-name="패스 363" d="M2.1 0h6.3a2.127 2.127 0 0 1 2.1 2.153v8.611a2.127 2.127 0 0 1-2.1 2.153H2.1A2.127 2.127 0 0 1 0 10.763v-8.61A2.127 2.127 0 0 1 2.1 0z" transform="translate(668.726 276)" style="fill:transparent;stroke:#999;stroke-linecap:round;stroke-linejoin:round;stroke-width:2px"/>
        <rect data-name="사각형 38" width="14" height="2" rx="1" transform="translate(667 275)" style="fill:#999"/>
        <path data-name="패스 362" d="M1.5 0h3a1.5 1.5 0 0 1 0 3h-3a1.5 1.5 0 0 1 0-3z" transform="translate(671 273)" style="fill:transparent;stroke:#999;stroke-linecap:round;stroke-linejoin:round;stroke-width:2px"/>
    </g>
</svg>
