<?xml-stylesheet type="text/css" href="../../css/svg.css"?> 
<svg class="pad_pen active" xmlns="http://www.w3.org/2000/svg" xmlns:xlink="http://www.w3.org/1999/xlink" x="0px"
	 y="0px" viewBox="0 0 24 24" style="enable-background:new 0 0 24 24;" xml:space="preserve">
<path class="pen" d="M20.1,7.9c0-1-0.5-2-1.3-2.8c-1.7-1.7-3.8-1.5-4.9-0.4c0,0,0,0,0,0l-9.6,9.8C4.1,14.7,4,14.9,4,15.2V19
	c0,0.6,0.4,1,1,1h3.9H17c0.6,0,1-0.4,1-1s-0.4-1-1-1h-5.7l7.9-8.1C19.8,9.4,20.1,8.7,20.1,7.9z M8.5,18H6v-2.4l1.1-1.1l2.5,2.5
	L8.5,18z M17.9,8.5l-6.9,7L8.5,13l6.8-6.9c0.4-0.4,1.3-0.4,2.1,0.4c0.4,0.4,0.7,0.9,0.7,1.3C18.1,8.1,18.1,8.3,17.9,8.5z"/>
</svg>
