<svg xmlns="http://www.w3.org/2000/svg" xmlns:xlink="http://www.w3.org/1999/xlink" width="248.576" height="133.974" viewBox="0 0 248.576 133.974"><defs><linearGradient id="a" x1="0.045" y1="0.441" x2="1.127" y2="0.827" gradientUnits="objectBoundingBox"><stop offset="0" stop-color="#f5b400"/><stop offset="1" stop-color="#ffc823"/></linearGradient></defs><g transform="translate(-50.44 -108.83)"><path d="M9.468-9.876H8.484v7.9h.984ZM7.116-4.512A3.993,3.993,0,0,1,4.428-8.184V-9.276H3.444v1.092A4.194,4.194,0,0,1,.744-4.32l.516.8A4.829,4.829,0,0,0,3.948-6.4,4.64,4.64,0,0,0,6.6-3.732ZM3.528-.156V-2.712H2.544V.648H9.792v-.8ZM20.52-6.336C18.6-6.6,16.74-7.8,16.74-9.228v-.48H15.732v.48c0,1.428-1.86,2.628-3.768,2.892l.372.792a5.467,5.467,0,0,0,3.9-2.364,5.517,5.517,0,0,0,3.912,2.364ZM12.456-1.824h6.468V.9h.984V-2.628H12.456Zm4.272-2.652V-6.12h-.984v1.644H11.376v.8h9.768v-.8Zm10.452.948a.8.8,0,0,0,.792-.828.806.806,0,0,0-.792-.852.806.806,0,0,0-.792.852A.8.8,0,0,0,27.18-3.528ZM39.072-7.08v.8H41.2v2.82h1V-9.864h-1V-7.08Zm.6,2.448A3.706,3.706,0,0,1,37.056-7.92v-.372H39.42v-.792H33.672v.792h2.4v.372A3.968,3.968,0,0,1,33.36-4.332l.516.78a4.658,4.658,0,0,0,2.712-2.736A4.422,4.422,0,0,0,39.18-3.864ZM38.64.12c-1.62,0-2.6-.456-2.6-1.236s.984-1.248,2.6-1.248,2.6.468,2.6,1.248S40.26.12,38.64.12Zm0-3.24c-2.208,0-3.588.732-3.588,2s1.38,2,3.588,2,3.588-.732,3.588-2S40.848-3.12,38.64-3.12ZM50.46-8.892H47.868V-9.948h-.984v1.056h-2.6v.744h6.18ZM45.792-6.156c0-.564.612-.912,1.584-.912.948,0,1.572.348,1.572.912s-.624.924-1.572.924C46.4-5.232,45.792-5.592,45.792-6.156Zm4.992,2.064a28.61,28.61,0,0,1-2.916.264v-.744C49.1-4.7,49.884-5.28,49.884-6.156c0-.984-1.008-1.6-2.508-1.6-1.524,0-2.52.612-2.52,1.6,0,.888.78,1.464,2.028,1.584v.78c-1.032.036-2.016.036-2.868.036l.108.792a42.432,42.432,0,0,0,6.732-.42Zm-5.46,2.76h6.1V.888H52.4v-3h-7.08Zm8.652-5.28H52.4V-9.864H51.42v7.212H52.4V-5.8h1.572Zm7.212-1.944H58.5v-1.32h-.984v1.32H54.84v.792h6.348ZM56.376-5.172c0-.744.66-1.224,1.632-1.224s1.644.48,1.644,1.224-.672,1.236-1.644,1.236S56.376-4.416,56.376-5.172Zm4.212,0c0-1.2-1.056-1.992-2.58-1.992s-2.568.792-2.568,1.992,1.044,2,2.568,2S60.588-3.96,60.588-5.172ZM57.444-2.436H56.46V.648h7.176v-.8H57.444Zm5.712-3.888V-9.876h-.984V-1.8h.984V-5.5H64.74v-.828Zm13.608-3.54H75.78v7.872h.984ZM74.508-4.308a3.665,3.665,0,0,1-2.7-3.288v-.588h2.436v-.792h-5.9v.792H70.8V-7.6a3.832,3.832,0,0,1-2.724,3.5l.516.768a4.513,4.513,0,0,0,2.724-2.652,4.572,4.572,0,0,0,2.712,2.448ZM70.824-.156v-2.58H69.84V.648h7.248v-.8Zm14.076-5a22.755,22.755,0,0,1-4.752.36V-8.148h3.78V-8.94H79.164V-4H80a23.278,23.278,0,0,0,5-.372ZM81.312-2.868h-.984V.648H87.5v-.8H81.312Zm5.712-3.816V-9.876H86.04v7.788h.984v-3.78h1.6v-.816ZM94.272-9.2c-2.232,0-3.912,1.188-3.912,2.976s1.68,2.976,3.912,2.976,3.912-1.176,3.912-2.976S96.5-9.2,94.272-9.2Zm0,.8c1.7,0,2.976.876,2.976,2.172s-1.272,2.172-2.976,2.172S91.3-4.92,91.3-6.228,92.58-8.4,94.272-8.4ZM89.4-1.356V-.54h9.78v-.816Zm16.116.108V-3.276h3.444v-.792h-6.624v-1.74h6.372V-9.084H101.34v.8h6.408V-6.6h-6.384v3.324h3.156v2.028h-4.38v.8h9.78v-.8ZM7.02,9.264H4.332v-1.2H3.348v1.2H.672v.792H7.02ZM2.208,12.552c0-.708.648-1.176,1.632-1.176s1.644.468,1.644,1.176S4.824,13.74,3.84,13.74,2.208,13.272,2.208,12.552Zm4.212,0c0-1.176-1.044-1.944-2.58-1.944s-2.568.768-2.568,1.944S2.316,14.5,3.84,14.5,6.42,13.74,6.42,12.552ZM2,16.248H8V18.9h.984V15.444H2Zm8.58-5.148h-1.6V8.136H8v6.72h.984v-2.94h1.6Zm9.972.384c-1.908-.24-3.8-1.428-3.8-2.76v-.48H15.744v.48c0,1.368-1.884,2.52-3.816,2.76l.36.792a5.543,5.543,0,0,0,3.96-2.3,5.566,5.566,0,0,0,3.948,2.3Zm-1.692,6.468H13.572V16.584h5.292Zm0-2.124H13.572v-1.26H12.6v4.176h7.236V14.568h-.972Zm-7.5-2.8v.792h9.744v-.792ZM28.32,9.06h-.972v1.932a5.655,5.655,0,0,1-2.892,4.86l.6.8a5.981,5.981,0,0,0,2.784-3.612,5.845,5.845,0,0,0,2.772,3.408l.588-.792a5.354,5.354,0,0,1-2.88-4.668Zm4.008-.936V18.912h.984V8.124ZM41.5,13.392a3.626,3.626,0,0,1-2.616-3.3v-.42h2.376V8.88H35.484v.792H37.9V10.1A3.809,3.809,0,0,1,35.2,13.6l.516.78A4.524,4.524,0,0,0,38.4,11.76a4.349,4.349,0,0,0,2.592,2.4Zm-4.908,2.592h6.024V18.9H43.6V15.192H36.588Zm8.6-5.028H43.6V8.136h-.984v6.48H43.6V11.772h1.6Zm7.14,2.352a3.7,3.7,0,0,1-2.616-3.3v-.4H52.08v-.8H46.332v.8h2.4v.408a3.923,3.923,0,0,1-2.712,3.528l.516.768a4.562,4.562,0,0,0,2.712-2.676,4.441,4.441,0,0,0,2.592,2.436Zm-3.516,2.424h5.076v2.22H48.816Zm-.96,3.012h7V14.952h-7Zm6-10.62v2.7H51.732v.816h2.124v2.784h1v-6.3Zm3.18,1.164V10.1h1.98a8.613,8.613,0,0,1-2.328,5.808l.768.552a9.9,9.9,0,0,0,2.5-7.176Zm3.276,0V10.1h1.656a10.186,10.186,0,0,1-2.22,6.54l.792.54c1.98-2.34,2.352-5.3,2.352-7.9Zm6.468,3.276h-1.6V8.124H64.2V18.888h.984V13.38h1.6Zm4.524-2.52h2.532V9.228H67.824v.816h2.5v1.368a5.505,5.505,0,0,1-2.856,4.62l.576.792a6.036,6.036,0,0,0,2.772-3.552,5.686,5.686,0,0,0,2.82,3.288l.552-.792a5.012,5.012,0,0,1-2.88-4.356Zm3.984-1.908V18.888h.984V8.136Zm7.668,7.344h-1.32v-2.8h1.32Zm0-3.588h-1.32V9.132H80.8v7.152h2.976V9.132h-.816Zm3.492,3.588H85.176v-2.8h1.272Zm0-3.588H85.176V9.132h-.828v7.152h2.928V9.132h-.828Zm4.152.432H89.16v-4.2h-.972V18.888h.972V13.152H90.6Zm8.328-.912H92.544V14.76h7.6v-.8H93.516V12.2h6.372V8.952H92.52v.792h6.408Zm-7.608,5.3v.816h9.78v-.816Zm16.716-4.188h-1.86a8.59,8.59,0,0,0,.516-3.036H102.54v.8h3.18a6.94,6.94,0,0,1-3.636,5.568l.576.708a8.193,8.193,0,0,0,3.168-3.252h2.208v5.028h.936V8.412h-.936Zm2.244-4.4V18.888h.936V8.124Zm6.084,3.408a1.849,1.849,0,1,1,1.848,1.8A1.766,1.766,0,0,1,116.364,11.532Zm4.656,0a2.813,2.813,0,1,0-2.808,2.652A2.641,2.641,0,0,0,121.02,11.532Zm-3.18,3.708h-.984v3.408h7.176v-.8H117.84Zm5.712-3.84V8.124h-.984v7.92h.984V12.216h1.584V11.4Zm3.9-1.968h-.984v6.66h.684A19.915,19.915,0,0,0,131,15.756l-.1-.852a18.712,18.712,0,0,1-3.456.336Zm6.672-1.308V12.5H132.6V8.364h-.924v9.972h.924V13.32h1.524v5.556h.948V8.124Zm8.94,1.1h-2.688V8.016h-.984V9.228h-2.676v.792h6.348Zm-4.812,3.18c0-.7.648-1.14,1.632-1.14s1.644.444,1.644,1.14-.66,1.14-1.644,1.14S138.252,13.116,138.252,12.408Zm4.212,0c0-1.14-1.044-1.872-2.58-1.872s-2.568.732-2.568,1.872,1.032,1.884,2.568,1.884S142.464,13.56,142.464,12.408Zm1.6,5.544h-4.824V16.764h4.824Zm0-1.956h-4.824v-1.14h-.972v3.888h6.768V14.856h-.972Zm2.568-5.136h-1.6V8.124h-.984v6.252h.984V11.688h1.6Zm2.448-1.692h-.984V16.1h.888a25.571,25.571,0,0,0,5.28-.5l-.108-.84a25.429,25.429,0,0,1-5.076.5Zm6.18-1.044V18.876h.984V8.124ZM159.6,9.972h4.02V9.156h-5v7.068h.852a25.516,25.516,0,0,0,5.088-.384l-.108-.816a26.16,26.16,0,0,1-4.848.36Zm8.616,2.4H166.44V8.124h-.984V18.912h.984V13.188h1.776Zm1.716,5.784a.793.793,0,0,0,.792-.828.794.794,0,1,0-1.584,0A.793.793,0,0,0,169.932,18.156Z" transform="translate(56.709 223.892)" fill="#323c46"/><path d="M2.2,29H12.359V27.1H8.644V10.65H6.875a11.239,11.239,0,0,1-3.841,1.325v1.45H6.319V27.1H2.2Zm17.564.325c3.513,0,5.762-3.175,5.762-9.55,0-6.35-2.249-9.45-5.762-9.45-3.538,0-5.787,3.075-5.787,9.45S16.226,29.325,19.764,29.325Zm0-1.825c-2.123,0-3.538-2.325-3.538-7.725,0-5.35,1.415-7.625,3.538-7.625,2.1,0,3.513,2.275,3.513,7.625C23.277,25.175,21.861,27.5,19.764,27.5Zm22.9-11.8H31.49V11.125H42.66Zm2.047-6.225H29.468V17.35H44.707ZM31.49,23.95H29.418v6.4H45.086V28.675H31.49Zm-4.7-4.05v1.65h9.426v4.525h2.072V21.55h9.1V19.9Zm28.683-7.175h4.043V11.05H49.18v1.675h4.3V14.75c0,4.125-1.769,8.2-4.928,10.075l1.264,1.525a11.6,11.6,0,0,0,4.675-7.1,10.723,10.723,0,0,0,4.549,6.55L60.3,24.3c-3.134-1.75-4.827-5.65-4.827-9.55Zm6.065,3.75H57.8V18.15h3.74V29.675h1.971V8.925H61.538ZM66.087,8.4V30.825h2V8.4ZM80.138,19.175H73.77v-7.1h6.368Zm2.022-8.75H71.748V20.8H82.16ZM76.373,23.3H74.3v7.05H89.413V28.675H76.373ZM88.4,15.25V8.4H86.33V24.825H88.4v-7.85h3.336V15.25Zm21.835-.45H104.6V10.6h5.636Zm-7.708,0H99.168v1.575h16.477V14.8h-3.336V10.6h3.412V9.025H99.092V10.6h3.437Zm15.138,5.1V18.25h-20.5V19.9H106.4v2.125H99.648V23.55h13.369v1.925H99.724V30.6h16.022V29.05h-14v-2.1h13.318V22.025h-6.6V19.9Zm7.582,4.075c-2.173,0-3.69-2.35-3.69-6,0-3.625,1.516-5.975,3.69-5.975,2.148,0,3.664,2.35,3.664,5.975C128.912,21.625,127.4,23.975,125.248,23.975Zm10.538-15.55v8.55h-4.928c-.329-4.2-2.552-6.825-5.61-6.825-3.311,0-5.661,3.05-5.661,7.825s2.35,7.825,5.661,7.825c3.159,0,5.408-2.75,5.61-7.15h4.928V30.9h2.072V8.425Zm16.679,17.9v-5.75h6.9v-1.65h-13.52V11.9h13.293V10.225H143.772v10.35h6.6v5.75h-9.224v1.7h20.6v-1.7Zm18.12-14.05h8.466v-1.7H168.513V25.3h1.794a54.308,54.308,0,0,0,10.715-.8l-.227-1.7a55.679,55.679,0,0,1-10.21.75Zm18.145,5h-3.74V8.425h-2.072V30.9h2.072V18.975h3.74Zm7.657-1.75a3.895,3.895,0,1,1,3.892,3.75A3.7,3.7,0,0,1,196.388,15.525Zm9.805,0c0-3.25-2.527-5.525-5.914-5.525s-5.914,2.275-5.914,5.525,2.527,5.525,5.914,5.525S206.193,18.775,206.193,15.525Zm-6.7,7.725h-2.072v7.1h15.113V28.675H199.5Zm12.029-8V8.425h-2.072v16.5h2.072V16.95h3.336v-1.7Zm7.43-2.975h8.466v-1.7H216.883V25.3h1.794a54.308,54.308,0,0,0,10.715-.8l-.227-1.7a55.679,55.679,0,0,1-10.21.75Zm18.145,5h-3.74V8.425h-2.072V30.9h2.072V18.975h3.74Zm2.755,6.2h1.592l.3-10.6.076-2.6h-2.35l.076,2.6Zm.783,5.85a1.645,1.645,0,0,0,1.668-1.725,1.669,1.669,0,1,0-1.668,1.725Z" transform="translate(56.709 163.091)" fill="#00c3e1"/><path d="M16.127,0H27.639a16.127,16.127,0,0,1,0,32.253H16.127A16.127,16.127,0,0,1,16.127,0Z" transform="translate(50.44 139.777) rotate(-45)" fill="url(#a)"/><path d="M-8.562-21.63a1.353,1.353,0,0,1,.738.2,1.569,1.569,0,0,1,.541.771l3.69,9.512a.972.972,0,0,1,0,.82.965.965,0,0,1-.59.476,1.469,1.469,0,0,1-.812.033.853.853,0,0,1-.582-.623l-.951-2.624h-4.133l-.968,2.69a.815.815,0,0,1-.549.566,1.354,1.354,0,0,1-.763-.041,1,1,0,0,1-.574-.443.862.862,0,0,1,0-.771l3.69-9.594a1.466,1.466,0,0,1,.533-.771A1.364,1.364,0,0,1-8.562-21.63Zm-.033,2.624q-.131.492-.254.877t-.32.943l-.869,2.378h2.886L-8-17.186q-.213-.574-.336-.984T-8.595-19.006ZM-.51-21.63a1.275,1.275,0,0,1,.738.213.775.775,0,0,1,.312.689v10.053a.775.775,0,0,1-.312.689,1.275,1.275,0,0,1-.738.213,1.275,1.275,0,0,1-.738-.213.775.775,0,0,1-.312-.689V-20.728a.775.775,0,0,1,.312-.689A1.275,1.275,0,0,1-.51-21.63Z" transform="translate(83.586 151.045)" fill="#fff" stroke="#fff" stroke-width="1.5"/><path d="M0,0H41V41H0Z" transform="translate(57 115)" fill="#fff" opacity="0"/><path d="M12.12-12.525h-2v9.99h2ZM9.255-5.76a4.3,4.3,0,0,1-3.24-4.05v-.165h2.73v-1.56H1.23v1.56H4.005v.165a4.416,4.416,0,0,1-3.3,4.26L1.71-4.005a5.4,5.4,0,0,0,3.33-2.94,5.3,5.3,0,0,0,3.21,2.7ZM4.905-.525v-2.91H2.925V1.05h9.54V-.525ZM21.51-6.8a25.028,25.028,0,0,1-5.325.42v-3.48H20.4V-11.43H14.22v6.645h1.155a27.893,27.893,0,0,0,6.33-.45Zm-3.87,3.21H15.66V1.05h9.405V-.525H17.64ZM24.57-8.76v-3.765H22.59v9.99h1.98V-7.14H26.4V-8.76Zm7.11,3H34.4V-7.29H31.68V-9.435h3.24V-11.01H29.8v9.255h.945a28.244,28.244,0,0,0,4.86-.285l-.165-1.575a24.551,24.551,0,0,1-3.765.27ZM36.525-7.5h-1.5v1.605h1.5V.675H38.37V-12.27H36.525Zm2.865-5.04V1.275h1.875V-12.54ZM54.525-6.03c-3.12-.525-4.83-2.67-4.83-4.7v-.99H47.58v.99c0,1.98-1.725,4.17-4.83,4.7l.84,1.665a6.935,6.935,0,0,0,5.04-3.57,7,7,0,0,0,5.055,3.57ZM42.45-2v1.6H54.96V-2ZM66.675-5.4h-7.7V-6.945h7.275v-1.53H58.98V-9.93h7.59v-1.59h-9.6v7.68h9.705ZM55.5-1.905V-.3H68.01V-1.905Z" transform="translate(103.544 140.438)" fill="#f5b400"/></g></svg>