<svg xmlns="http://www.w3.org/2000/svg" width="868" height="316" viewBox="0 0 868 316">
  <g id="그룹_14643" data-name="그룹 14643" transform="translate(-194 -261)">
    <path id="box" d="M70.5,0h279a70.5,70.5,0,0,1,0,141H70.5a70.5,70.5,0,0,1,0-141Z" transform="translate(642 436)" fill="#eafdff"/>
    <path id="패스_12344" data-name="패스 12344" d="M12.222,11.424H4.266V8.13h7.956ZM13.68,6.942H2.826v5.67H13.68ZM4.266,17.364H2.79v4.608H13.95V20.766H4.266ZM.918,14.448v1.188H7.632v3.258H9.108V15.636h6.48V14.448Zm20.43-5.166h2.88V8.076H16.866V9.282h3.06V10.74c0,2.97-1.26,5.9-3.51,7.254l.9,1.1a8.359,8.359,0,0,0,3.33-5.112,7.72,7.72,0,0,0,3.24,4.716l.9-1.08c-2.232-1.26-3.438-4.068-3.438-6.876Zm4.32,2.7H23v1.206h2.664v8.3h1.4V6.546h-1.4Zm3.24-5.814V22.314H30.33V6.168Zm13.248,7.38C39.78,12.81,38.088,10.92,38.088,8.8v-.36h3.654V7.23H32.886V8.436h3.69V8.8a5.491,5.491,0,0,1-4.1,5l.756,1.17a6.734,6.734,0,0,0,4.122-3.852,6.621,6.621,0,0,0,4.086,3.564Zm1.908,7.362H36.576V18.822h7.488Zm0-3.24H36.576V15.708H35.118v6.408h10.4V15.708H44.064ZM44.046,6.186v8.748h1.476V6.186ZM48.33,24.42a4.006,4.006,0,0,0,2.628-3.762c0-1.206-.522-1.944-1.386-1.944a1.17,1.17,0,0,0-1.242,1.152,1.128,1.128,0,0,0,1.206,1.152.738.738,0,0,0,.2-.018,2.7,2.7,0,0,1-1.8,2.448Zm8.5-13.158a2.745,2.745,0,1,1,5.49,0,2.745,2.745,0,1,1-5.49,0Zm10.152-1.35v2.682H63.5a4.27,4.27,0,0,0,0-2.682Zm0,3.87V18.12h1.494V6.2H66.978v2.52h-4.1A4.136,4.136,0,0,0,59.58,7.212a3.983,3.983,0,0,0-4.158,4.05,3.983,3.983,0,0,0,4.158,4.05,4.133,4.133,0,0,0,3.312-1.53Zm-7.344,6.984V16.9H58.14v5.076H68.922V20.766ZM84.6,11.226c-2.862-.36-5.706-2.142-5.706-4.14v-.72H77.382v.72c0,2.052-2.826,3.78-5.724,4.14l.54,1.188c2.52-.4,4.932-1.656,5.94-3.456,1.026,1.8,3.42,3.06,5.922,3.456Zm-2.538,9.7H74.124V18.876h7.938Zm0-3.186H74.124v-1.89H72.666v6.264H83.52V15.852H82.062Zm-11.25-4.194v1.188H85.428V13.548ZM95.85,14A5.251,5.251,0,0,1,91.944,9.21V8.58h3.564V7.392H86.85V8.58h3.618v.63a5.718,5.718,0,0,1-4.05,5.256l.756,1.17a6.667,6.667,0,0,0,4.068-3.96,6.278,6.278,0,0,0,3.906,3.474Zm-1.962,7.146c-2.412,0-3.852-.666-3.852-1.818,0-1.134,1.44-1.8,3.852-1.8,2.376,0,3.834.666,3.834,1.8C97.722,20.478,96.264,21.144,93.888,21.144Zm0-4.788c-3.312,0-5.328,1.1-5.328,2.97,0,1.89,2.016,2.988,5.328,2.988,3.276,0,5.31-1.1,5.31-2.988C99.2,17.454,97.164,16.356,93.888,16.356Zm5.13-6.084V6.2H97.542v9.738h1.476V11.514h2.394V10.272Zm3.528,14.148a4.006,4.006,0,0,0,2.628-3.762c0-1.206-.522-1.944-1.386-1.944a1.17,1.17,0,0,0-1.242,1.152,1.128,1.128,0,0,0,1.206,1.152.738.738,0,0,0,.2-.018,2.7,2.7,0,0,1-1.8,2.448Zm8.5-13.158a2.745,2.745,0,1,1,5.49,0,2.745,2.745,0,1,1-5.49,0Zm10.152-1.35v2.682H117.72a4.271,4.271,0,0,0,0-2.682Zm0,3.87V18.12h1.494V6.2h-1.494v2.52h-4.1A4.136,4.136,0,0,0,113.8,7.212a3.983,3.983,0,0,0-4.158,4.05,3.983,3.983,0,0,0,4.158,4.05,4.133,4.133,0,0,0,3.312-1.53Zm-7.344,6.984V16.9h-1.494v5.076h10.782V20.766Zm24.462-14.58h-1.476v8.388h1.476Zm-9.522,2.25h2.628V12.63c-.882.054-1.764.09-2.628.108Zm6.426,3.888c-.774.072-1.566.162-2.376.216v-4.1h1.584V7.266h-8.658v1.17h1.584v4.338c-.7.018-1.386.018-2.016.018l.144,1.224a72.44,72.44,0,0,0,9.81-.612Zm-5.94,8.658V19.218h9.036v-3.87H127.764V16.5h9.09v1.62h-9.036v4.032h11.106v-1.17Zm20.628-.018H147.06V18.786H149.9Zm0-3.276H147.06V15.654h-1.386v6.462h5.6V15.654H149.9Zm-1.656-4.572a2.505,2.505,0,1,1,2.754-2.5A2.542,2.542,0,0,1,148.248,13.116Zm7.4-1.926v3.546h1.494V6.2h-1.494v3.78h-3.294a3.846,3.846,0,0,0-4.1-3.078c-2.412,0-4.158,1.494-4.158,3.708s1.746,3.726,4.158,3.726a3.852,3.852,0,0,0,4.122-3.15Zm.2,4.356H154.4v1.368a4.672,4.672,0,0,1-2.934,4.23l.756,1.116a5.449,5.449,0,0,0,2.9-3.042,5.154,5.154,0,0,0,2.916,3.042l.738-1.116a4.546,4.546,0,0,1-2.934-4.23Zm15.39-9.36V22.368h1.476V6.186ZM164.2,7.428c-2.394,0-4.1,2.2-4.1,5.634s1.71,5.634,4.1,5.634,4.1-2.2,4.1-5.634S166.59,7.428,164.2,7.428Zm0,1.332c1.566,0,2.682,1.692,2.682,4.3,0,2.628-1.116,4.32-2.682,4.32-1.584,0-2.7-1.692-2.7-4.32C161.5,10.452,162.612,8.76,164.2,8.76ZM2.61,36.244a2.652,2.652,0,0,1,2.754-2.736,2.662,2.662,0,0,1,2.754,2.736,2.629,2.629,0,0,1-2.754,2.682A2.619,2.619,0,0,1,2.61,36.244Zm10.152.63v6.21h1.494v-11.9H12.762v4.482H9.486a3.97,3.97,0,0,0-4.122-3.456,4.008,4.008,0,1,0,0,8.01,3.961,3.961,0,0,0,4.1-3.348ZM5.418,45.766V41.9H3.924v5.076H14.706V45.766Zm15.93-11.484h2.88V33.076H16.866v1.206h3.06V35.74c0,2.97-1.26,5.9-3.51,7.254l.9,1.1a8.359,8.359,0,0,0,3.33-5.112,7.72,7.72,0,0,0,3.24,4.716l.9-1.08c-2.232-1.26-3.438-4.068-3.438-6.876Zm4.32,2.7H23v1.206h2.664v8.3h1.4V31.546h-1.4Zm3.24-5.814V47.314H30.33V31.168ZM39.726,42.382c-1.548,0-2.628-1.692-2.628-4.32,0-2.61,1.08-4.3,2.628-4.3,1.53,0,2.61,1.692,2.61,4.3C42.336,40.69,41.256,42.382,39.726,42.382Zm7.506-11.2v6.156h-3.51c-.234-3.024-1.818-4.914-4-4.914-2.358,0-4.032,2.2-4.032,5.634S37.368,43.7,39.726,43.7c2.25,0,3.852-1.98,4-5.148h3.51v8.82h1.476V31.186Zm6.336,2.772h6.174V32.716H52.11V43.354h1.3a40.852,40.852,0,0,0,7.848-.558l-.162-1.242a37.718,37.718,0,0,1-7.524.54ZM62.8,31.186V47.368h1.476V31.186Zm9.576,1.386H70.9v2.9a8.529,8.529,0,0,1-4.176,7.272l.9,1.17a8.958,8.958,0,0,0,4.014-5.4,8.649,8.649,0,0,0,4.05,5.112l.864-1.17a8.048,8.048,0,0,1-4.176-6.984Zm6.174-1.386v5.472H74.808v1.206h3.744V47.35h1.476V31.186Zm5.94,1.566H83.034V43.246h1.278A37.7,37.7,0,0,0,92,42.508l-.18-1.224a36.812,36.812,0,0,1-7.326.72ZM97.4,37.63H94.806V31.186H93.33V47.332h1.476V38.854H97.4Zm13.068-1.854h-4.014V32.752h4.014Zm-5.49,0h-2.394V36.91h11.736V35.776h-2.376V32.752h2.43V31.618H102.528v1.134h2.448Zm10.782,3.672V38.26h-14.6v1.188h6.57v1.53h-4.806v1.1h9.522v1.386h-9.468v3.69H114.39V46.036h-9.972V44.524H113.9V40.978h-4.7v-1.53Zm5.4,2.934c-1.548,0-2.628-1.692-2.628-4.32,0-2.61,1.08-4.3,2.628-4.3,1.53,0,2.61,1.692,2.61,4.3C123.768,40.69,122.688,42.382,121.158,42.382Zm7.506-11.2v6.156h-3.51c-.234-3.024-1.818-4.914-4-4.914-2.358,0-4.032,2.2-4.032,5.634S118.8,43.7,121.158,43.7c2.25,0,3.852-1.98,4-5.148h3.51v8.82h1.476V31.186Zm8.892,9.054a9.624,9.624,0,0,0,2.232.252,9.943,9.943,0,0,0,2.268-.252v3.8h-4.5Zm2.232-6.876c2.592,0,4.464,1.188,4.464,2.988s-1.872,2.988-4.464,2.988-4.446-1.188-4.446-2.988S137.2,33.364,139.788,33.364Zm3.744,10.674V39.664a3.66,3.66,0,0,0,2.124-3.312c0-2.52-2.43-4.14-5.868-4.14-3.42,0-5.868,1.62-5.868,4.14a3.69,3.69,0,0,0,2.16,3.33v4.356h-3.6v1.224h14.67V44.038Zm6.174,2.2a1.189,1.189,0,0,0,1.188-1.242,1.191,1.191,0,1,0-2.376,0A1.189,1.189,0,0,0,149.706,46.234Z" transform="translate(773 496)" fill="#323c46"/>
    <path id="패스_12341" data-name="패스 12341" d="M1.672,9.148v2.31h6.6C7.81,14.3,5.3,16.65.792,17.882L2,20.192c6.028-1.738,9.416-5.544,9.416-11.044ZM6.71,20.676h-2.9V27.54H17.578V25.23H6.71Zm10.164-7.392V7.63h-2.9v14.5h2.9V15.66H19.58V13.284Zm18.348,9.284h2.9V7.63h-2.9v3.542H32.758V13.5h2.464v1.76H32.758V17.6h2.464Zm-9.13-11.176h1.892V17.64c-.638.044-1.276.066-1.892.066Zm6.534,5.918c-.594.066-1.21.132-1.848.176V11.392h1.606V9.082H21.692v2.31H23.3v6.38H21.186l.308,2.354a71.166,71.166,0,0,0,11.308-.7Zm-4.95,7.92V21.446h-2.9V27.54H38.588V25.23ZM53.35,9.412H48.84V7.52H45.914V9.412H41.426V11.7H53.35Zm-8.162,6.644c0-1.012.88-1.518,2.2-1.518,1.3,0,2.2.506,2.2,1.518,0,1.034-.9,1.54-2.2,1.54C46.068,17.6,45.188,17.09,45.188,16.056Zm7.172,0c0-2.2-2.046-3.718-4.972-3.718-2.9,0-4.972,1.518-4.972,3.718,0,2.222,2.068,3.74,4.972,3.74C50.314,19.8,52.36,18.278,52.36,16.056Zm-8.492,7.436h10.6v4.422h2.9V21.16H43.868ZM60.06,12.844H57.376V7.652h-2.9V20.324h2.9V15.242H60.06Zm19.008.462c-4.554-.506-6.754-2.794-6.754-4.84V7.85H69.322v.616c0,2.068-2.2,4.312-6.754,4.84L63.58,15.55c3.454-.44,5.962-1.848,7.238-3.784,1.3,1.936,3.762,3.366,7.216,3.784ZM74.8,25.406H66.682v-1.76H74.8Zm0-3.938H66.682V19.774H63.8V27.65H77.66V19.774H74.8ZM61.666,16.474v2.288h18.3V16.474Z" transform="translate(773 462)" fill="#00c3e1"/>
    <path id="area" d="M0,0H120V120H0Z" transform="translate(654 447)" fill="#fff" opacity="0"/>
    <path id="패스_12346" data-name="패스 12346" d="M13,0c7.18,0,13,2.686,13,6s-5.82,6-13,6S0,9.314,0,6,5.82,0,13,0Z" transform="translate(701 523)" fill="#00c3e1" opacity="0.2"/>
    <path id="패스_6640" data-name="패스 6640" d="M-4298.537,1698.765c-1.63,0-18-16.42-18-28.308a17.849,17.849,0,0,1,18-17.692,17.848,17.848,0,0,1,18,17.692C-4280.537,1682.345-4296.905,1698.765-4298.537,1698.765Z" transform="translate(5012.537 -1171.766)" fill="#fff" stroke="#46505a" stroke-miterlimit="10" stroke-width="3"/>
    <path id="패스_12340" data-name="패스 12340" d="M6,0A6,6,0,1,1,0,6,6,6,0,0,1,6,0Z" transform="translate(708 493)" fill="none" stroke="#46505a" stroke-width="3"/>
    <path id="box-2" data-name="box" d="M70.5,0h289a70.5,70.5,0,0,1,0,141H70.5a70.5,70.5,0,0,1,0-141Z" transform="translate(194 436)" fill="#eafdff"/>
    <path id="패스_12345" data-name="패스 12345" d="M14.22,6.186H12.744v8.388H14.22ZM4.7,8.436H7.326V12.63c-.882.054-1.764.09-2.628.108Zm6.426,3.888c-.774.072-1.566.162-2.376.216v-4.1h1.584V7.266H1.674v1.17H3.258v4.338c-.7.018-1.386.018-2.016.018l.144,1.224A72.44,72.44,0,0,0,11.2,13.4Zm-5.94,8.658V19.218H14.22v-3.87H3.672V16.5h9.09v1.62H3.726v4.032H14.832v-1.17ZM22.122,15.24a9.625,9.625,0,0,0,2.232.252,9.944,9.944,0,0,0,2.268-.252v3.8h-4.5Zm2.232-6.876c2.592,0,4.464,1.188,4.464,2.988s-1.872,2.988-4.464,2.988-4.446-1.188-4.446-2.988S21.762,8.364,24.354,8.364ZM28.1,19.038V14.664a3.66,3.66,0,0,0,2.124-3.312c0-2.52-2.43-4.14-5.868-4.14-3.42,0-5.868,1.62-5.868,4.14a3.69,3.69,0,0,0,2.16,3.33v4.356h-3.6v1.224h14.67V19.038ZM42.75,8.166H38.718V6.186H37.242v1.98H33.228V9.354H42.75Zm-7.218,5.076c0-1.116.99-1.836,2.448-1.836s2.466.72,2.466,1.836c0,1.134-1.008,1.854-2.466,1.854S35.532,14.376,35.532,13.242Zm6.318,0c0-1.8-1.584-2.988-3.87-2.988s-3.852,1.188-3.852,2.988c0,1.818,1.566,3.006,3.852,3.006S41.85,15.06,41.85,13.242Zm-4.716,4.1H35.658v4.626H46.422V20.766H37.134ZM45.7,11.514V6.186H44.226V18.3H45.7V12.756h2.376V11.514Zm18.468,1.1H56.16V10.236h8.01Zm1.476-5.778H64.17V9.048H56.16V6.834H54.7v6.984H65.646ZM67.5,15.762H52.848V16.95H59.4v5.4h1.476v-5.4H67.5Zm12.708-3.78H72.36V9.894h7.848ZM81.666,6.69H80.208V8.76H72.36V6.69H70.9v6.462H81.666Zm-9.4,10.89H70.812v4.392h11.16V20.766h-9.7Zm-3.33-2.862v1.188h6.714v3.132H77.13V15.906h6.48V14.718Zm22.788-.792H87.192V8.814h4.536Zm1.44-6.3H85.752V15.1h7.416ZM89.046,16.9H87.57v5.076H98.334V20.766H89.046Zm8.568-5.8V6.168H96.138V17.994h1.476V12.342H99.99V11.1Zm19.6.612a18.727,18.727,0,0,0,.306-3.834V6.834h-11V8.022h9.54a17.167,17.167,0,0,1-.306,3.546Zm-9.2,7.452h9.576v-3.87H106.506v1.17h9.612v1.62H106.56v4.05h11.43v-1.17h-9.972Zm4.23-6.534V9.822h-1.476V12.63h-5.958V13.8h14.544V12.63Zm10.746.846h5.814V7.68H121.5V8.886h5.85V12.27h-5.8v6.174h1.278a41.15,41.15,0,0,0,7.758-.576l-.162-1.224a36.566,36.566,0,0,1-7.434.576Zm12.978-.882h-2.646V6.168H131.85V22.35h1.476V13.836h2.646ZM10.836,38.548C8.46,37.81,6.768,35.92,6.768,33.8v-.36h3.654V32.23H1.566v1.206h3.69v.36a5.491,5.491,0,0,1-4.1,5l.756,1.17A6.734,6.734,0,0,0,6.03,36.118a6.621,6.621,0,0,0,4.086,3.564Zm1.908,7.362H5.256V43.822h7.488Zm0-3.24H5.256V40.708H3.8v6.408H14.2V40.708H12.744Zm-.018-11.484v8.748H14.2V31.186Zm5.688,6.588c2.646-.324,5.076-1.512,5.958-3.294.9,1.782,3.312,2.97,5.958,3.294l.522-1.17c-2.826-.324-5.4-1.71-5.526-3.492h5.022V31.924H18.414v1.188h5c-.126,1.782-2.7,3.168-5.526,3.492Zm9.972,6.7c0,1.08-1.512,1.71-4.032,1.71-2.538,0-4.032-.63-4.032-1.71s1.494-1.692,4.032-1.692C26.874,42.778,28.386,43.39,28.386,44.47Zm3.276-4.536V38.746h-14.6v1.188h6.552v1.728c-3.006.144-4.788,1.134-4.788,2.808,0,1.836,2.088,2.844,5.544,2.844,3.438,0,5.508-1.008,5.508-2.844,0-1.674-1.764-2.664-4.77-2.808V39.934Zm6.75-3.672a2.745,2.745,0,1,1,2.754,2.754A2.667,2.667,0,0,1,38.412,36.262Zm10.152-1.35v2.682H45.09a4.27,4.27,0,0,0,0-2.682Zm0,3.87V43.12h1.494V31.2H48.564v2.52h-4.1a4.136,4.136,0,0,0-3.294-1.512,4.051,4.051,0,1,0,0,8.1,4.133,4.133,0,0,0,3.312-1.53ZM41.22,45.766V41.9H39.726v5.076H50.508V45.766Zm25.416-9.54c-2.862-.36-5.706-2.142-5.706-4.14v-.72H59.418v.72c0,2.052-2.826,3.78-5.724,4.14l.54,1.188c2.52-.4,4.932-1.656,5.94-3.456,1.026,1.8,3.42,3.06,5.922,3.456Zm-2.538,9.7H56.16V43.876H64.1Zm0-3.186H56.16v-1.89H54.7v6.264H65.556V40.852H64.1Zm-11.25-4.194v1.188H67.464V38.548Zm20.124,3.816A2.227,2.227,0,0,1,70.83,39.9a2.159,2.159,0,1,1,4.284,0A2.238,2.238,0,0,1,72.972,42.364Zm0-6.138A3.436,3.436,0,0,0,69.516,39.9a3.463,3.463,0,1,0,6.912,0A3.436,3.436,0,0,0,72.972,36.226Zm.72-4.572H72.234V33.94H68.958v1.206h8.01V33.94H73.692Zm7.542-.486V37.99h-2.07V31.546H77.778V46.54h1.386V39.2h2.07v8.118h1.422V31.168Zm8.91,9.072a9.624,9.624,0,0,0,2.232.252,9.943,9.943,0,0,0,2.268-.252v3.8h-4.5Zm2.232-6.876c2.592,0,4.464,1.188,4.464,2.988s-1.872,2.988-4.464,2.988-4.446-1.188-4.446-2.988S89.784,33.364,92.376,33.364ZM96.12,44.038V39.664a3.66,3.66,0,0,0,2.124-3.312c0-2.52-2.43-4.14-5.868-4.14-3.42,0-5.868,1.62-5.868,4.14a3.69,3.69,0,0,0,2.16,3.33v4.356h-3.6v1.224h14.67V44.038Zm6.624,2.2a1.189,1.189,0,0,0,1.188-1.242,1.191,1.191,0,1,0-2.376,0A1.189,1.189,0,0,0,102.744,46.234Z" transform="translate(321 495)" fill="#323c46"/>
    <path id="패스_12337" data-name="패스 12337" d="M2.882,17.662c3.542-.484,6.028-2,7.238-4.07,1.21,2.068,3.7,3.586,7.238,4.07L18.392,15.4c-4.114-.506-6.248-2.486-6.534-4.422H17.6V8.664H2.574v2.31H8.4C8.118,12.91,5.962,14.89,1.826,15.4Zm16.39,1.166H.968v2.31H8.6v6.8h2.9v-6.8h7.766Zm8.338-6.82h2.948V9.654h-9.02v2.354h3.256V13c0,3.476-1.056,7.106-4,8.976l1.716,2.134a9.406,9.406,0,0,0,3.718-5.434,8.464,8.464,0,0,0,3.608,4.95l1.694-2.112C28.6,19.8,27.61,16.386,27.61,13Zm4.114,2.53H29.15v2.354h2.574V26.968H34.43V7.96H31.724Zm4.092-6.93V27.87h2.75V7.608Zm17.534,1.8H48.84V7.52H45.914V9.412H41.426V11.7H53.35Zm-8.162,6.644c0-1.012.88-1.518,2.2-1.518,1.3,0,2.2.506,2.2,1.518,0,1.034-.9,1.54-2.2,1.54C46.068,17.6,45.188,17.09,45.188,16.056Zm7.172,0c0-2.2-2.046-3.718-4.972-3.718-2.9,0-4.972,1.518-4.972,3.718,0,2.222,2.068,3.74,4.972,3.74C50.314,19.8,52.36,18.278,52.36,16.056Zm-8.492,7.436h10.6v4.422h2.9V21.16H43.868ZM60.06,12.844H57.376V7.652h-2.9V20.324h2.9V15.242H60.06Zm19.008.462c-4.554-.506-6.754-2.794-6.754-4.84V7.85H69.322v.616c0,2.068-2.2,4.312-6.754,4.84L63.58,15.55c3.454-.44,5.962-1.848,7.238-3.784,1.3,1.936,3.762,3.366,7.216,3.784ZM74.8,25.406H66.682v-1.76H74.8Zm0-3.938H66.682V19.774H63.8V27.65H77.66V19.774H74.8ZM61.666,16.474v2.288h18.3V16.474Z" transform="translate(321 461)" fill="#00c3e1"/>
    <path id="area-2" data-name="area" d="M0,0H120V120H0Z" transform="translate(202 447)" fill="#fff" opacity="0"/>
    <path id="area-3" data-name="area" d="M0,0H52V52H0Z" transform="translate(236 482)" fill="#fff" opacity="0"/>
    <path id="패스_12338" data-name="패스 12338" d="M4,0H26a4,4,0,0,1,4,4V24a4,4,0,0,1-4,4H4a4,4,0,0,1-4-4V4A4,4,0,0,1,4,0Z" transform="translate(247 483)" fill="rgba(0,195,225,0.2)" stroke="#46505a" stroke-width="3"/>
    <path id="패스_6650" data-name="패스 6650" d="M-4648.759,1716.365l-2.246,2.807a5,5,0,0,0-.794,4.832l1.843,5.07a5,5,0,0,0,4.7,3.291h8.657a5,5,0,0,0,4.831-3.711l1.025-3.846a8,8,0,0,0-5.377-9.708l-5.638-1.735v-7.5a3.5,3.5,0,0,0-3.5-3.5h0a3.5,3.5,0,0,0-3.5,3.5Z" transform="matrix(0.966, 0.259, -0.259, 0.966, 5191.438, 61.406)" fill="#fff" stroke="#46505a" stroke-linecap="round" stroke-linejoin="round" stroke-width="3"/>
    <path id="패스_8175" data-name="패스 8175" d="M-1446.277,2380.536h2a3,3,0,0,1,3,3v15a3,3,0,0,1-3,3h-2" transform="translate(1729.276 -1893.535)" fill="none" stroke="#46505a" stroke-linecap="round" stroke-miterlimit="10" stroke-width="3"/>
    <path id="패스_8176" data-name="패스 8176" d="M-1441.276,2380.536h-2a3,3,0,0,0-3,3v15a3,3,0,0,0,3,3h2" transform="translate(1682.276 -1893.535)" fill="none" stroke="#46505a" stroke-linecap="round" stroke-miterlimit="10" stroke-width="3"/>
    <path id="box-3" data-name="box" d="M70.5,0h279a70.5,70.5,0,0,1,0,141H70.5a70.5,70.5,0,0,1,0-141Z" transform="translate(642 261)" fill="#eafdff"/>
    <path id="패스_12342" data-name="패스 12342" d="M2.3,12.774C4.95,12.45,7.38,11.262,8.262,9.48c.9,1.782,3.312,2.97,5.958,3.294l.522-1.17c-2.826-.324-5.4-1.71-5.526-3.492h5.022V6.924H2.3V8.112h5c-.126,1.782-2.7,3.168-5.526,3.492Zm9.972,6.7c0,1.08-1.512,1.71-4.032,1.71-2.538,0-4.032-.63-4.032-1.71s1.494-1.692,4.032-1.692C10.764,17.778,12.276,18.39,12.276,19.47Zm3.276-4.536V13.746H.954v1.188H7.506v1.728C4.5,16.806,2.718,17.8,2.718,19.47c0,1.836,2.088,2.844,5.544,2.844,3.438,0,5.508-1.008,5.508-2.844,0-1.674-1.764-2.664-4.77-2.808V14.934Zm3.132,3.546h9.7v3.852h1.476v-5.04H18.684Zm1.764-8.928H28.3v1.872H20.448ZM25.11,14.52V12.594h4.644V6.564H28.3V8.4H20.448V6.564H18.99v6.03h4.644V14.52H17.046v1.206H31.662V14.52Zm14.13,6.444H36.4V18.786H39.24Zm0-3.276H36.4V15.654H35.01v6.462h5.6V15.654H39.24Zm-1.656-4.572a2.505,2.505,0,1,1,0-4.986,2.505,2.505,0,1,1,0,4.986Zm7.4-1.926v3.546h1.494V6.2H44.982v3.78H41.688a3.846,3.846,0,0,0-4.1-3.078c-2.412,0-4.158,1.494-4.158,3.708s1.746,3.726,4.158,3.726a3.852,3.852,0,0,0,4.122-3.15Zm.2,4.356H43.74v1.368a4.672,4.672,0,0,1-2.934,4.23l.756,1.116a5.449,5.449,0,0,0,2.9-3.042,5.154,5.154,0,0,0,2.916,3.042l.738-1.116a4.546,4.546,0,0,1-2.934-4.23Zm15.84-9.36V22.368H62.5V6.186ZM53.982,7.428c-2.394,0-4.1,2.2-4.1,5.634s1.71,5.634,4.1,5.634,4.1-2.2,4.1-5.634S56.376,7.428,53.982,7.428Zm0,1.332c1.566,0,2.682,1.692,2.682,4.3,0,2.628-1.116,4.32-2.682,4.32-1.584,0-2.7-1.692-2.7-4.32C51.282,10.452,52.4,8.76,53.982,8.76ZM73.8,7.7H72.378v3.078A8.16,8.16,0,0,1,68.8,17.742l.936,1.116a8.226,8.226,0,0,0,3.348-4.9A7.642,7.642,0,0,0,76.3,18.444l.882-1.17C75.042,16.086,73.8,13.35,73.8,10.722Zm7.488-1.512v6.5H79.146V6.546h-1.4V21.522h1.4V13.89h2.142v8.442h1.4V6.186ZM93.132,19.128V16.086H98.3V14.9H88.362v-2.61H97.92V7.374H86.868V8.58H96.48V11.1H86.9v4.986h4.734v3.042h-6.57v1.206h14.67V19.128Zm15.354-11.34c2.484,0,4.1.774,4.1,2.052,0,1.26-1.62,2.034-4.1,2.034-2.466,0-4.1-.774-4.1-2.034C104.382,8.562,106.02,7.788,108.486,7.788Zm0,5.292c3.42,0,5.652-1.242,5.652-3.24s-2.232-3.24-5.652-3.24-5.652,1.242-5.652,3.24S105.066,13.08,108.486,13.08Zm-3.96,4.176H103.05v4.716h11.16V20.748h-9.684Zm-3.348-2.88v1.206h6.7V18.84h1.494V15.582h6.444V14.376ZM12.222,35.424H4.266V32.13h7.956Zm1.458-4.482H2.826v5.67H13.68ZM4.266,41.364H2.79v4.608H13.95V44.766H4.266ZM.918,38.448v1.188H7.632v3.258H9.108V39.636h6.48V38.448ZM21.8,33.282h2.88V32.076H17.316v1.206h3.06V34.74c0,2.97-1.26,5.9-3.51,7.254l.9,1.1A8.359,8.359,0,0,0,21.1,37.98a7.72,7.72,0,0,0,3.24,4.716l.9-1.08C23,40.356,21.8,37.548,21.8,34.74Zm4.32,2.7H23.454v1.206h2.664v8.3h1.4V30.546h-1.4Zm3.24-5.814V46.314H30.78V30.168Zm4.68,1.746v1.224H39.96c-.342,3.816-2.556,6.912-6.678,8.982l.81,1.152c5.22-2.61,7.326-6.768,7.326-11.358Zm14.148,4.824H45.594V30.186H44.118V46.332h1.476v-8.37h2.592Zm5.544-4.824v1.224h5.922c-.342,3.816-2.556,6.912-6.678,8.982l.81,1.152C59,40.662,61.11,36.5,61.11,31.914Zm14.148,4.824H65.286V30.186H63.81V46.332h1.476v-8.37h2.592Zm14.04-1.674h-9.63V31.986h9.486V30.8H70.812v5.454H81.918ZM70.6,42.372h9.72v4.05H81.81V41.184H70.6Zm-1.62-4.32V39.24H83.592V38.052Zm20.106,3.312A2.227,2.227,0,0,1,86.94,38.9a2.159,2.159,0,1,1,4.284,0A2.238,2.238,0,0,1,89.082,41.364Zm0-6.138A3.436,3.436,0,0,0,85.626,38.9a3.463,3.463,0,1,0,6.912,0A3.436,3.436,0,0,0,89.082,35.226Zm.72-4.572H88.344V32.94H85.068v1.206h8.01V32.94H89.8Zm7.542-.486V36.99h-2.07V30.546H93.888V45.54h1.386V38.2h2.07v8.118h1.422V30.168Zm8.91,9.072a9.624,9.624,0,0,0,2.232.252,9.943,9.943,0,0,0,2.268-.252v3.8h-4.5Zm2.232-6.876c2.592,0,4.464,1.188,4.464,2.988s-1.872,2.988-4.464,2.988-4.446-1.188-4.446-2.988S105.894,32.364,108.486,32.364Zm3.744,10.674V38.664a3.66,3.66,0,0,0,2.124-3.312c0-2.52-2.43-4.14-5.868-4.14-3.42,0-5.868,1.62-5.868,4.14a3.69,3.69,0,0,0,2.16,3.33v4.356h-3.6v1.224h14.67V43.038Zm6.624,2.2a1.189,1.189,0,0,0,1.188-1.242,1.191,1.191,0,1,0-2.376,0A1.189,1.189,0,0,0,118.854,45.234Z" transform="translate(773 323)" fill="#323c46"/>
    <path id="패스_12343" data-name="패스 12343" d="M14.256,14.516H5.918V10.908h8.338Zm2.838-5.9H3.058V16.8H17.094Zm2.2,10.34H.946v2.31H8.6v6.622h2.9V21.27h7.788Zm13.838-9.2H28.6V7.608H25.674V9.764H21.186V12.03H33.11ZM24.948,16.65c0-1.1.9-1.694,2.2-1.694,1.276,0,2.2.594,2.2,1.694,0,1.122-.924,1.716-2.2,1.716C25.85,18.366,24.948,17.772,24.948,16.65Zm7.172,0c0-2.288-2.068-3.894-4.972-3.894s-4.972,1.606-4.972,3.894c0,2.332,2.068,3.916,4.972,3.916S32.12,18.982,32.12,16.65Zm-5.148,5.016h-2.9V27.54H37.862V25.23H26.972Zm10.164-7.854V7.63h-2.9V22.788h2.9V16.21H39.82v-2.4Zm5.83,1.914c3.784-.2,6.336-1.122,7.59-2.618,1.276,1.5,3.828,2.42,7.59,2.618l.814-2.134c-4.07-.176-6.05-1.144-6.622-2.288H57.97V9.214H52.008V7.608H49.1V9.214H43.186V11.3h5.588c-.55,1.144-2.53,2.112-6.6,2.288Zm16.742,2.64V16.232H41.47v2.134h7.656v1.21h-5.61v2.09H54.648v.968H43.538v5.1h14.5v-2.09H46.42V24.592H57.508V19.576H52.03v-1.21Zm8.382-6.358h2.948V9.654h-9.02v2.354h3.256V13c0,3.476-1.056,7.106-4,8.976l1.716,2.134A9.406,9.406,0,0,0,66.7,18.674a8.464,8.464,0,0,0,3.608,4.95l1.694-2.112C69.08,19.8,68.09,16.386,68.09,13Zm4.114,2.53H69.63v2.354H72.2V26.968H74.91V7.96H72.2ZM76.3,7.608V27.87h2.75V7.608Z" transform="translate(773 289)" fill="#00c3e1"/>
    <path id="area-4" data-name="area" d="M0,0H120V120H0Z" transform="translate(654 272)" fill="#fff" opacity="0"/>
    <path id="area-5" data-name="area" d="M0,0H52V52H0Z" transform="translate(688 305)" fill="#fff" opacity="0"/>
    <path id="패스_12339" data-name="패스 12339" d="M4,0H24a4,4,0,0,1,4,4V32a4,4,0,0,1-4,4H4a4,4,0,0,1-4-4V4A4,4,0,0,1,4,0Z" transform="translate(710 309)" fill="rgba(0,195,225,0.2)" stroke="#46505a" stroke-linecap="round" stroke-width="3"/>
    <path id="패스_6749" data-name="패스 6749" d="M299.911,1170.733v4a4,4,0,0,0,4,4h20a4,4,0,0,0,4-4v-28a4,4,0,0,0-4-4h-20a4,4,0,0,0-4,4v4" transform="translate(402.089 -825.732)" fill="#fff" stroke="#46505a" stroke-linecap="round" stroke-linejoin="round" stroke-width="3"/>
    <path id="패스_6643" data-name="패스 6643" d="M-4321.329,1516.981a5.5,5.5,0,0,0-7.78,0,5.5,5.5,0,0,0,0,7.778,5.5,5.5,0,0,0,7.779,0l7.347-7.778a5.5,5.5,0,0,1,7.778,0,5.5,5.5,0,0,1,0,7.778,5.5,5.5,0,0,1-7.778,0l-3.674-3.889" transform="translate(5019.719 -1186.369)" fill="#fff" stroke="#46505a" stroke-linecap="round" stroke-linejoin="round" stroke-width="3"/>
    <path id="box-4" data-name="box" d="M70.5,0h279a70.5,70.5,0,0,1,0,141H70.5a70.5,70.5,0,0,1,0-141Z" transform="translate(194 261)" fill="#eafdff"/>
    <path id="패스_12335" data-name="패스 12335" d="M14.58,12C11.754,11.55,9,9.588,9,7.338v-.72H7.488v.72c0,2.25-2.718,4.212-5.6,4.662l.594,1.17a8.074,8.074,0,0,0,5.76-3.762A8.257,8.257,0,0,0,14,13.17ZM4.3,17.364H2.826v4.608H13.95V20.766H4.3Zm4.68-2.5V12.126H7.506v2.736H.936V16.05h14.67V14.862Zm8.946-6.948V9.138H23.85c-.342,3.816-2.556,6.912-6.678,8.982l.81,1.152c5.22-2.61,7.326-6.768,7.326-11.358Zm14.148,4.824H29.484V6.186H28.008V22.332h1.476v-8.37h2.592Zm10.6.666a39.455,39.455,0,0,1-7.344.54V11.622h5.778V7.14H33.84V8.346h5.814v2.142H33.876V15.15h1.278a42.721,42.721,0,0,0,7.668-.54Zm-7.47,4.644h9.018v4.266H45.7V16.86H35.208ZM48.1,10.326H45.7V6.2H44.226v9.81H45.7V11.55H48.1ZM61.02,6.186V22.368H62.5V6.186ZM53.982,7.428c-2.394,0-4.1,2.2-4.1,5.634s1.71,5.634,4.1,5.634,4.1-2.2,4.1-5.634S56.376,7.428,53.982,7.428Zm0,1.332c1.566,0,2.682,1.692,2.682,4.3,0,2.628-1.116,4.32-2.682,4.32-1.584,0-2.7-1.692-2.7-4.32C51.282,10.452,52.4,8.76,53.982,8.76ZM67.5,7.752H66.042V18.246H67.32a37.7,37.7,0,0,0,7.686-.738l-.18-1.224A36.812,36.812,0,0,1,67.5,17ZM80.406,12.63H77.814V6.186H76.338V22.332h1.476V13.854h2.592ZM98.766,6.2H97.344V18.282h1.422Zm-6.5,4.68V12.09h2.088v5.8h1.386V6.528H94.356v4.356ZM88.02,8.94h2.052V14.2c-.684.036-1.386.054-2.052.072Zm5.148,5c-.54.054-1.116.108-1.746.162V8.94h1.386V7.734H85.284V8.94H86.67v5.346H85.014l.162,1.242a51.49,51.49,0,0,0,8.082-.486ZM89.73,20.766V16.878H88.254v5.094H99.216V20.766ZM108.486,7.194c-3.348,0-5.868,1.782-5.868,4.464,0,2.7,2.52,4.464,5.868,4.464s5.868-1.764,5.868-4.464C114.354,8.976,111.834,7.194,108.486,7.194Zm0,1.206c2.556,0,4.464,1.314,4.464,3.258,0,1.962-1.908,3.258-4.464,3.258-2.538,0-4.464-1.3-4.464-3.258C104.022,9.714,105.948,8.4,108.486,8.4Zm-7.308,10.566V20.19h14.67V18.966Zm24.174.162V16.086h5.166V14.9h-9.936v-2.61h9.558V7.374H119.088V8.58H128.7V11.1h-9.576v4.986h4.734v3.042h-6.57v1.206h14.67V19.128ZM10.818,38.07a5.5,5.5,0,0,1-4.05-4.914v-.648h3.654V31.32H1.566v1.188h3.69v.648A5.781,5.781,0,0,1,1.17,38.394l.774,1.152A6.817,6.817,0,0,0,6.03,35.568,6.858,6.858,0,0,0,10.1,39.24ZM3.4,41.994h9.324v4.338H14.2V40.806H3.4Zm9.324-11.808V39.96H14.2V30.186Zm13.86,7.506a5.537,5.537,0,0,1-3.924-4.914v-.414h3.546V31.158H17.586v1.206h3.6v.414a5.847,5.847,0,0,1-4.068,5.292l.774,1.17a6.89,6.89,0,0,0,4.05-4.032,6.8,6.8,0,0,0,3.906,3.654Zm2.3,7.218H21.474V42.876H28.89Zm0-3.186H21.474v-2H20.016v6.39H30.348v-6.39H28.89ZM28.872,30.2V34.11H25.686v1.206h3.186v3.636h1.476V30.2ZM51.21,38.448a5.31,5.31,0,0,1-3.24-4.9V31.5H46.476v2.052A5.82,5.82,0,0,1,44.064,38.2,6.013,6.013,0,0,1,41.6,33.552V31.5H40.14v2.052a5.636,5.636,0,0,1-3.24,4.9l.792,1.134a6.421,6.421,0,0,0,3.168-3.636,6.244,6.244,0,0,0,3.186,3.816,6.141,6.141,0,0,0,3.186-3.726A6.027,6.027,0,0,0,50.4,39.582ZM36.756,42.966V44.19H51.39V42.966Zm27.5-9.558a34.471,34.471,0,0,1-.612,7.308l1.476.162a36.4,36.4,0,0,0,.612-7.47v-1.6H54.414v1.206H64.26Zm-4.23,9.45V37.08H58.554v5.778h-5.67v1.206h14.6V42.858Zm21.816-8.082H77.832V31.752h4.014Zm-5.49,0H73.962V35.91H85.7V34.776H83.322V31.752h2.43V30.618H73.908v1.134h2.448Zm10.782,3.672V37.26H72.54v1.188h6.57v1.53H74.3v1.1h9.522v1.386H74.358v3.69H85.77V45.036H75.8V43.524h9.486V39.978h-4.7v-1.53Zm5.85,2.934c-1.548,0-2.628-1.692-2.628-4.32,0-2.61,1.08-4.3,2.628-4.3,1.53,0,2.61,1.692,2.61,4.3C95.6,39.69,94.518,41.382,92.988,41.382Zm7.506-11.2v6.156h-3.51c-.234-3.024-1.818-4.914-4-4.914-2.358,0-4.032,2.2-4.032,5.634S90.63,42.7,92.988,42.7c2.25,0,3.852-1.98,4-5.148h3.51v8.82h1.476V30.186Zm9.342,9.054a9.624,9.624,0,0,0,2.232.252,9.943,9.943,0,0,0,2.268-.252v3.8h-4.5Zm2.232-6.876c2.592,0,4.464,1.188,4.464,2.988s-1.872,2.988-4.464,2.988-4.446-1.188-4.446-2.988S109.476,32.364,112.068,32.364Zm3.744,10.674V38.664a3.66,3.66,0,0,0,2.124-3.312c0-2.52-2.43-4.14-5.868-4.14-3.42,0-5.868,1.62-5.868,4.14a3.69,3.69,0,0,0,2.16,3.33v4.356h-3.6v1.224h14.67V43.038Zm6.624,2.2a1.189,1.189,0,0,0,1.188-1.242,1.191,1.191,0,1,0-2.376,0A1.189,1.189,0,0,0,122.436,45.234Z" transform="translate(321 323)" fill="#323c46"/>
    <path id="패스_12336" data-name="패스 12336" d="M1.8,26h9.79V23.382H8.536V9.7h-2.4a10.156,10.156,0,0,1-3.784,1.386v2H5.3v10.3H1.8Zm17.644.308c3.322,0,5.5-2.9,5.5-8.514s-2.178-8.382-5.5-8.382-5.522,2.75-5.522,8.382C13.926,23.4,16.126,26.308,19.448,26.308Zm0-2.53c-1.408,0-2.464-1.408-2.464-5.984,0-4.554,1.056-5.874,2.464-5.874s2.442,1.32,2.442,5.874C21.89,22.37,20.856,23.778,19.448,23.778Zm12.958,2.53c3.322,0,5.5-2.9,5.5-8.514s-2.178-8.382-5.5-8.382-5.522,2.75-5.522,8.382C26.884,23.4,29.084,26.308,32.406,26.308Zm0-2.53c-1.408,0-2.464-1.408-2.464-5.984,0-4.554,1.056-5.874,2.464-5.874s2.442,1.32,2.442,5.874C34.848,22.37,33.814,23.778,32.406,23.778ZM43.538,19.73c2.332,0,3.982-1.914,3.982-5.192,0-3.256-1.65-5.126-3.982-5.126s-3.96,1.87-3.96,5.126C39.578,17.816,41.206,19.73,43.538,19.73Zm0-1.826c-.946,0-1.672-.968-1.672-3.366s.726-3.3,1.672-3.3,1.694.9,1.694,3.3S44.484,17.9,43.538,17.9Zm.55,8.4H46l8.844-16.9H52.932Zm11.286,0c2.31,0,3.982-1.936,3.982-5.192,0-3.278-1.672-5.148-3.982-5.148s-3.96,1.87-3.96,5.148C51.414,24.372,53.064,26.308,55.374,26.308Zm0-1.848c-.946,0-1.672-.946-1.672-3.344s.726-3.322,1.672-3.322,1.694.924,1.694,3.322S56.32,24.46,55.374,24.46Zm12.562-6.8c3.542-.484,6.028-2,7.238-4.07,1.21,2.068,3.7,3.586,7.238,4.07L83.446,15.4c-4.114-.506-6.248-2.486-6.534-4.422h5.742V8.664H67.628v2.31h5.83c-.286,1.936-2.442,3.916-6.578,4.422Zm16.39,1.166h-18.3v2.31h7.634v6.8h2.9v-6.8h7.766ZM97.064,16.32a31.4,31.4,0,0,0,.462-5.962V9.1H87.12v2.31h7.546a28.849,28.849,0,0,1-.44,4.576Zm1.342.814c-1.892.264-3.916.418-5.918.506V13.812H89.65V17.75c-1.32.022-2.574.022-3.7.022l.264,2.31a73.547,73.547,0,0,0,12.364-.88Zm-6.6,4.312H88.9V27.54h14.146V25.23H91.806Zm10.6-7.656V7.608h-2.9v15.18h2.9v-6.6h2.42v-2.4Zm16.478,2.662a6.1,6.1,0,0,1-4.708-5.962V8.554h-2.948V10.49a6.481,6.481,0,0,1-4.84,6.292l1.43,2.288a8.063,8.063,0,0,0,4.928-4.312,7.72,7.72,0,0,0,4.73,3.982ZM109.494,22.9h10.89v5.016h2.926V20.588H109.494ZM120.384,7.63V19.708h2.926V7.63Z" transform="translate(321 289)" fill="#00c3e1"/>
    <path id="area-6" data-name="area" d="M0,0H120V120H0Z" transform="translate(202 272)" fill="#fff" opacity="0"/>
    <path id="패스_6652" data-name="패스 6652" d="M-4643.588,1518.578c-6.359,4.194-20.2.917-19.2,8.792,1.131,7.227,20.6-3.736,20.021,4.024-.313,3.875-7.472,4.215-7.089,8.718s8.813,3.353,8.813,3.353" transform="translate(4902.836 -1211.578)" fill="none" stroke="#46505a" stroke-linecap="round" stroke-linejoin="round" stroke-width="3"/>
    <path id="패스_6651" data-name="패스 6651" d="M-4648.759,1716.365l-2.246,2.807a5,5,0,0,0-.794,4.832l1.843,5.07a5,5,0,0,0,4.7,3.291h8.657a5,5,0,0,0,4.831-3.711l1.025-3.846a8,8,0,0,0-5.377-9.708l-5.638-1.735v-7.5a3.5,3.5,0,0,0-3.5-3.5h0a3.5,3.5,0,0,0-3.5,3.5Z" transform="matrix(0.819, -0.574, 0.574, 0.819, 3088.77, -3730.416)" fill="#fff" stroke="#46505a" stroke-linecap="round" stroke-linejoin="round" stroke-width="3"/>
  </g>
</svg>
