<svg xmlns="http://www.w3.org/2000/svg" xmlns:xlink="http://www.w3.org/1999/xlink" width="246.252" height="130.18" viewBox="0 0 246.252 130.18">
  <defs>
    <clipPath id="clip-path">
      <rect id="area" width="41" height="41" fill="#fff" opacity="0"/>
    </clipPath>
    <linearGradient id="linear-gradient" x1="0.045" y1="0.441" x2="1.127" y2="0.827" gradientUnits="objectBoundingBox">
      <stop offset="0" stop-color="#f5b400"/>
      <stop offset="1" stop-color="#ffc823"/>
    </linearGradient>
  </defs>
  <g id="그룹_14626" data-name="그룹 14626" transform="translate(-56.874 -114.958)">
    <text id="최적의_학습량을_실시간_계산하여_시간_낭비_없이_효율적으로_학습시켜_줍니다." data-name="최적의 학습량을 실시간 계산하여
시간 낭비 없이 효율적으로 학습시켜 줍니다." transform="translate(57.126 224.137)" fill="#323c46" font-size="12" font-family="NotoSansCJKkr-Regular, Noto Sans CJK KR" letter-spacing="-0.025em"><tspan x="0" y="0">최적의 학습량을 실시간 계산하여</tspan><tspan x="0" y="18">시간 낭비 없이 효율적으로 학습시켜 줍니다.</tspan></text>
    <text id="충분히_풀었는지_판단한다_" data-name="충분히 풀었는지 판단한다!" transform="translate(57.126 191.336)" fill="#00c3e1" font-size="24" font-family="NotoSansCJKkr-Regular, Noto Sans CJK KR" letter-spacing="-0.05em"><tspan x="0" y="0">충분히 풀었는지 판단한다!</tspan></text>
    <text id="학습량_자동판단" data-name="학습량 자동판단" transform="translate(105.47 140.684)" fill="#f5b400" font-size="15" font-family="NotoSansCJKkr-Bold, Noto Sans CJK KR" font-weight="700" letter-spacing="-0.05em"><tspan x="0" y="0">학습량 자동판단</tspan></text>
    <g id="_-g-img_intro_ai" data-name="-g-img_intro_ai" transform="translate(56.874 114.958)">
      <g id="마스크_그룹_7351" data-name="마스크 그룹 7351" clip-path="url(#clip-path)">
        <rect id="사각형_8799" data-name="사각형 8799" width="43.766" height="32.253" rx="16.127" transform="translate(-6.56 24.777) rotate(-45)" fill="url(#linear-gradient)"/>
        <path id="패스_12281" data-name="패스 12281" d="M-8.562-21.63a1.353,1.353,0,0,1,.738.2,1.569,1.569,0,0,1,.541.771l3.69,9.512a.972.972,0,0,1,0,.82.965.965,0,0,1-.59.476,1.469,1.469,0,0,1-.812.033.853.853,0,0,1-.582-.623l-.951-2.624h-4.133l-.968,2.69a.815.815,0,0,1-.549.566,1.354,1.354,0,0,1-.763-.041,1,1,0,0,1-.574-.443.862.862,0,0,1,0-.771l3.69-9.594a1.466,1.466,0,0,1,.533-.771A1.364,1.364,0,0,1-8.562-21.63Zm-.033,2.624q-.131.492-.254.877t-.32.943l-.869,2.378h2.886L-8-17.186q-.213-.574-.336-.984T-8.595-19.006ZM-.51-21.63a1.275,1.275,0,0,1,.738.213.775.775,0,0,1,.312.689v10.053a.775.775,0,0,1-.312.689,1.275,1.275,0,0,1-.738.213,1.275,1.275,0,0,1-.738-.213.775.775,0,0,1-.312-.689V-20.728a.775.775,0,0,1,.312-.689A1.275,1.275,0,0,1-.51-21.63Z" transform="translate(26.586 36.046)" fill="#fff" stroke="#fff" stroke-width="1.5"/>
      </g>
    </g>
  </g>
</svg>
