<svg xmlns="http://www.w3.org/2000/svg" width="310" height="334" viewBox="0 0 310 334"><g transform="translate(-25 -159)"><path d="M6.5,0C10.09,0,13,1.567,13,3.5S10.09,7,6.5,7,0,5.433,0,3.5,2.91,0,6.5,0Z" transform="translate(57 464)" fill="#00c3e1" opacity="0.2"/><path d="M38.5,0h233a38.5,38.5,0,0,1,0,77H38.5a38.5,38.5,0,0,1,0-77Z" transform="translate(25 416)" fill="#eafdff"/><path d="M8.148,7.616h-5.3V5.42h5.3ZM9.12,4.628H1.884v3.78H9.12ZM2.844,11.576H1.86v3.072H9.3v-.8H2.844ZM.612,9.632v.792H5.088V12.6h.984V10.424h4.32V9.632Zm13.62-3.444h1.92v-.8H11.244v.8h2.04V7.16A5.616,5.616,0,0,1,10.944,12l.6.732a5.572,5.572,0,0,0,2.22-3.408,5.147,5.147,0,0,0,2.16,3.144l.6-.72A5.215,5.215,0,0,1,14.232,7.16Zm2.88,1.8H15.336v.8h1.776v5.532h.936V4.364h-.936Zm2.16-3.876V14.876h.948V4.112ZM28.1,9.032a3.542,3.542,0,0,1-2.712-3.168v-.24h2.436v-.8h-5.9v.8h2.46v.24A3.661,3.661,0,0,1,21.648,9.2l.5.78A4.489,4.489,0,0,0,24.9,7.412a4.414,4.414,0,0,0,2.724,2.376Zm1.272,4.908H24.384V12.548h4.992Zm0-2.16H24.384V10.472h-.972v4.272h6.936V10.472h-.972Zm-.012-7.656V9.956h.984V4.124ZM32.22,16.28a2.67,2.67,0,0,0,1.752-2.508c0-.8-.348-1.3-.924-1.3a.78.78,0,0,0-.828.768.752.752,0,0,0,.8.768A.492.492,0,0,0,33.156,14a1.8,1.8,0,0,1-1.2,1.632Zm5.664-8.772a1.83,1.83,0,1,1,3.66,0,1.83,1.83,0,1,1-3.66,0Zm6.768-.9V8.4H42.336a2.847,2.847,0,0,0,0-1.788Zm0,2.58V12.08h1V4.136h-1v1.68H41.916a2.758,2.758,0,0,0-2.2-1.008,2.655,2.655,0,0,0-2.772,2.7,2.655,2.655,0,0,0,2.772,2.7,2.755,2.755,0,0,0,2.208-1.02Zm-4.9,4.656v-2.58h-1v3.384h7.188v-.8ZM56.4,7.484c-1.908-.24-3.8-1.428-3.8-2.76v-.48H51.588v.48c0,1.368-1.884,2.52-3.816,2.76l.36.792a5.543,5.543,0,0,0,3.96-2.3,5.566,5.566,0,0,0,3.948,2.3Zm-1.692,6.468H49.416V12.584h5.292Zm0-2.124H49.416v-1.26h-.972v4.176H55.68V10.568h-.972Zm-7.5-2.8v.792h9.744V9.032Zm16.692.3A3.5,3.5,0,0,1,61.3,6.14V5.72h2.376V4.928H57.9V5.72h2.412v.42a3.812,3.812,0,0,1-2.7,3.5l.5.78a4.444,4.444,0,0,0,2.712-2.64,4.185,4.185,0,0,0,2.6,2.316ZM62.592,14.1c-1.608,0-2.568-.444-2.568-1.212s.96-1.2,2.568-1.2c1.584,0,2.556.444,2.556,1.2S64.176,14.1,62.592,14.1Zm0-3.192c-2.208,0-3.552.732-3.552,1.98s1.344,1.992,3.552,1.992c2.184,0,3.54-.732,3.54-1.992S64.776,10.9,62.592,10.9Zm3.42-4.056V4.136h-.984v6.492h.984V7.676h1.6V6.848Zm2.352,9.432a2.67,2.67,0,0,0,1.752-2.508c0-.8-.348-1.3-.924-1.3a.78.78,0,0,0-.828.768.752.752,0,0,0,.8.768A.492.492,0,0,0,69.3,14a1.8,1.8,0,0,1-1.2,1.632Zm5.664-8.772a1.83,1.83,0,1,1,3.66,0,1.83,1.83,0,1,1-3.66,0Zm6.768-.9V8.4H78.48a2.847,2.847,0,0,0,0-1.788Zm0,2.58V12.08h1V4.136h-1v1.68H78.06a2.758,2.758,0,0,0-2.2-1.008,2.655,2.655,0,0,0-2.772,2.7,2.655,2.655,0,0,0,2.772,2.7,2.755,2.755,0,0,0,2.208-1.02Zm-4.9,4.656v-2.58h-1v3.384h7.188v-.8Zm16.308-9.72h-.984V9.716h.984Zm-6.348,1.5h1.752v2.8c-.588.036-1.176.06-1.752.072Zm4.284,2.592c-.516.048-1.044.108-1.584.144V5.624h1.056v-.78H83.844v.78H84.9V8.516c-.468.012-.924.012-1.344.012l.1.816a48.293,48.293,0,0,0,6.54-.408Zm-3.96,5.772V12.812h6.024v-2.58H85.176V11h6.06v1.08H85.212v2.688h7.4v-.78Zm13.752-.012h-1.9V12.524h1.9Zm0-2.184h-1.9V10.436h-.924v4.308h3.732V10.436h-.912Zm-1.1-3.048a1.67,1.67,0,1,1,1.836-1.668A1.695,1.695,0,0,1,98.832,8.744Zm4.932-1.284V9.824h1V4.136h-1v2.52h-2.2A2.564,2.564,0,0,0,98.832,4.6,2.522,2.522,0,0,0,96.06,7.076,2.531,2.531,0,0,0,98.832,9.56a2.568,2.568,0,0,0,2.748-2.1Zm.132,2.9h-.96v.912a3.114,3.114,0,0,1-1.956,2.82l.5.744a3.633,3.633,0,0,0,1.932-2.028,3.436,3.436,0,0,0,1.944,2.028l.492-.744a3.031,3.031,0,0,1-1.956-2.82Zm10.26-6.24V14.912h.984V4.124Zm-4.692.828c-1.6,0-2.736,1.464-2.736,3.756s1.14,3.756,2.736,3.756S112.2,11,112.2,8.708,111.06,4.952,109.464,4.952Zm0,.888c1.044,0,1.788,1.128,1.788,2.868s-.744,2.88-1.788,2.88-1.8-1.128-1.8-2.88S108.408,5.84,109.464,5.84Zm10.5,1.656a1.836,1.836,0,0,1,3.672,0,1.837,1.837,0,0,1-3.672,0Zm6.768.42v4.14h1V4.124h-1V7.112h-2.184a2.675,2.675,0,1,0-.012.8Zm-4.9,5.928v-2.58h-1v3.384h7.188v-.8Zm10.62-7.656h1.92v-.8h-4.908v.8h2.04V7.16A5.616,5.616,0,0,1,129.168,12l.6.732a5.572,5.572,0,0,0,2.22-3.408,5.147,5.147,0,0,0,2.16,3.144l.6-.72a5.215,5.215,0,0,1-2.292-4.584Zm2.88,1.8H133.56v.8h1.776v5.532h.936V4.364h-.936Zm2.16-3.876V14.876h.948V4.112Zm7.212,7.476c-1.032,0-1.752-1.128-1.752-2.88s.72-2.868,1.752-2.868,1.74,1.128,1.74,2.868S145.728,11.588,144.708,11.588Zm5-7.464v4.1h-2.34c-.156-2.016-1.212-3.276-2.664-3.276-1.572,0-2.688,1.464-2.688,3.756s1.116,3.756,2.688,3.756c1.5,0,2.568-1.32,2.664-3.432h2.34v5.88h.984V4.124Zm4.224,1.848h4.116V5.144h-5.088v7.092h.864a27.234,27.234,0,0,0,5.232-.372l-.108-.828a25.145,25.145,0,0,1-5.016.36Zm6.156-1.848V14.912h.984V4.124Zm6.384.924h-.984V6.98a5.686,5.686,0,0,1-2.784,4.848l.6.78a5.972,5.972,0,0,0,2.676-3.6,5.766,5.766,0,0,0,2.7,3.408l.576-.78a5.366,5.366,0,0,1-2.784-4.656Zm4.116-.924V7.772h-2.5v.8h2.5V14.9h.984V4.124Zm3.96,1.044h-.972v7h.852a25.135,25.135,0,0,0,5.124-.492l-.12-.816a24.541,24.541,0,0,1-4.884.48Zm8.6,3.252h-1.728v-4.3h-.984V14.888h.984V9.236h1.728Zm8.712-1.236h-2.676V5.168h2.676Zm-3.66,0h-1.6V7.94h7.824V7.184h-1.584V5.168h1.62V4.412h-7.9v.756h1.632ZM195.4,9.632V8.84h-9.732v.792h4.38v1.02h-3.2v.732h6.348v.924h-6.312v2.46h7.608v-.744h-6.648V13.016h6.324V10.652h-3.132V9.632Zm3.6,1.956c-1.032,0-1.752-1.128-1.752-2.88S197.964,5.84,199,5.84s1.74,1.128,1.74,2.868S200.016,11.588,199,11.588Zm5-7.464v4.1h-2.34C201.5,6.212,200.448,4.952,199,4.952c-1.572,0-2.688,1.464-2.688,3.756s1.116,3.756,2.688,3.756c1.5,0,2.568-1.32,2.664-3.432H204v5.88h.984V4.124Zm5.928,6.036a6.416,6.416,0,0,0,1.488.168,6.629,6.629,0,0,0,1.512-.168v2.532h-3Zm1.488-4.584c1.728,0,2.976.792,2.976,1.992s-1.248,1.992-2.976,1.992-2.964-.792-2.964-1.992S209.688,5.576,211.416,5.576Zm2.5,7.116V9.776a2.44,2.44,0,0,0,1.416-2.208c0-1.68-1.62-2.76-3.912-2.76s-3.912,1.08-3.912,2.76a2.46,2.46,0,0,0,1.44,2.22v2.9h-2.4v.816h9.78v-.816Zm4.116,1.464a.793.793,0,0,0,.792-.828.794.794,0,1,0-1.584,0A.793.793,0,0,0,218.028,14.156Z" transform="translate(84.999 454)" fill="#323c46"/><path d="M1.216,6.744v1.68h4.8C5.68,10.488,3.856,12.2.576,13.1l.88,1.68C5.84,13.512,8.3,10.744,8.3,6.744ZM4.88,15.128H2.768V20.12H12.784V18.44H4.88Zm7.392-5.376V5.64H10.16V16.184h2.112v-4.7H14.24V9.752ZM25.616,16.5h2.112V5.64H25.616V8.216H23.824v1.7h1.792v1.28H23.824v1.7h1.792Zm-6.64-8.128h1.376V12.92c-.464.032-.928.048-1.376.048Zm4.752,4.3c-.432.048-.88.1-1.344.128V8.376h1.168V6.7H15.776v1.68h1.168v4.64H15.408l.224,1.712a51.757,51.757,0,0,0,8.224-.512Zm-3.6,5.76V15.688H18.016V20.12H28.064V18.44ZM38.8,6.936H35.52V5.56H33.392V6.936H30.128V8.6H38.8Zm-5.936,4.832c0-.736.64-1.1,1.6-1.1.944,0,1.6.368,1.6,1.1,0,.752-.656,1.12-1.6,1.12C33.5,12.888,32.864,12.52,32.864,11.768Zm5.216,0c0-1.6-1.488-2.7-3.616-2.7-2.112,0-3.616,1.1-3.616,2.7,0,1.616,1.5,2.72,3.616,2.72C36.592,14.488,38.08,13.384,38.08,11.768ZM31.9,17.176h7.712v3.216h2.112V15.48H31.9ZM43.68,9.432H41.728V5.656H39.616v9.216h2.112v-3.7H43.68ZM57.5,9.768c-3.312-.368-4.912-2.032-4.912-3.52V5.8H50.416v.448c0,1.5-1.6,3.136-4.912,3.52L46.24,11.4c2.512-.32,4.336-1.344,5.264-2.752A7.1,7.1,0,0,0,56.752,11.4Zm-3.1,8.8H48.5v-1.28h5.9Zm0-2.864H48.5V14.472H46.4V20.2H56.48V14.472H54.4Zm-9.552-3.632v1.664H58.16V12.072Z" transform="translate(84.999 429)" fill="#00c3e1"/><path d="M-4306.759,1677.752c-.886,0-9.778-8.919-9.778-15.376a9.7,9.7,0,0,1,9.778-9.61,9.7,9.7,0,0,1,9.777,9.61C-4296.982,1668.832-4305.873,1677.752-4306.759,1677.752Z" transform="translate(4370.387 -1211.884)" fill="#fff" stroke="#46505a" stroke-miterlimit="10" stroke-width="2"/><path d="M3,0A3,3,0,1,1,0,3,3,3,0,0,1,3,0Z" transform="translate(61 447)" fill="none" stroke="#46505a" stroke-width="2"/><path d="M38.5,0h233a38.5,38.5,0,0,1,0,77H38.5a38.5,38.5,0,0,1,0-77Z" transform="translate(25 330)" fill="#eafdff"/><path d="M9.48,4.124H8.5V9.716H9.48Zm-6.348,1.5H4.884v2.8c-.588.036-1.176.06-1.752.072ZM7.416,8.216c-.516.048-1.044.108-1.584.144V5.624H6.888v-.78H1.116v.78H2.172V8.516c-.468.012-.924.012-1.344.012l.1.816a48.293,48.293,0,0,0,6.54-.408Zm-3.96,5.772V12.812H9.48v-2.58H2.448V11h6.06v1.08H2.484v2.688h7.4v-.78ZM14.748,10.16a6.416,6.416,0,0,0,1.488.168,6.629,6.629,0,0,0,1.512-.168v2.532h-3Zm1.488-4.584c1.728,0,2.976.792,2.976,1.992S17.964,9.56,16.236,9.56s-2.964-.792-2.964-1.992S14.508,5.576,16.236,5.576Zm2.5,7.116V9.776a2.44,2.44,0,0,0,1.416-2.208c0-1.68-1.62-2.76-3.912-2.76s-3.912,1.08-3.912,2.76a2.46,2.46,0,0,0,1.44,2.22v2.9h-2.4v.816h9.78v-.816ZM28.5,5.444H25.812V4.124h-.984v1.32H22.152v.792H28.5ZM23.688,8.828c0-.744.66-1.224,1.632-1.224s1.644.48,1.644,1.224-.672,1.236-1.644,1.236S23.688,9.584,23.688,8.828Zm4.212,0c0-1.2-1.056-1.992-2.58-1.992s-2.568.792-2.568,1.992,1.044,2,2.568,2S27.9,10.04,27.9,8.828Zm-3.144,2.736h-.984v3.084h7.176v-.8H24.756Zm5.712-3.888V4.124h-.984V12.2h.984V8.5h1.584V7.676Zm12.312.732H37.44V6.824h5.34Zm.984-3.852H42.78V6.032H37.44V4.556h-.972V9.212h7.3ZM45,10.508H35.232V11.3H39.6v3.6h.984V11.3H45Zm8.472-2.52H48.24V6.6h5.232Zm.972-3.528h-.972V5.84H48.24V4.46h-.972V8.768h7.176ZM48.18,11.72h-.972v2.928h7.44v-.8H48.18ZM45.96,9.812V10.6h4.476v2.088h.984V10.6h4.32V9.812Zm15.192-.528H58.128V5.876h3.024Zm.96-4.2H57.168v4.98h4.944Zm-2.748,6.18H58.38v3.384h7.176v-.8H59.364ZM65.076,7.4V4.112h-.984V12h.984V8.228H66.66V7.4Zm13.068.408a12.485,12.485,0,0,0,.2-2.556v-.7H71.016v.792h6.36a11.445,11.445,0,0,1-.2,2.364Zm-6.132,4.968H78.4V10.2H71v.78h6.408v1.08H71.04v2.7h7.62v-.78H72.012Zm2.82-4.356V6.548h-.984V8.42H69.876V9.2h9.7V8.42ZM82,8.984h3.876V5.12H81v.8h3.9V8.18H81.036V12.3h.852a27.433,27.433,0,0,0,5.172-.384l-.108-.816A24.378,24.378,0,0,1,82,11.48ZM90.648,8.4H88.884V4.112H87.9V14.9h.984V9.224h1.764Zm9.66.636A3.542,3.542,0,0,1,97.6,5.864v-.24h2.436v-.8h-5.9v.8h2.46v.24A3.661,3.661,0,0,1,93.852,9.2l.5.78A4.489,4.489,0,0,0,97.1,7.412a4.414,4.414,0,0,0,2.724,2.376Zm1.272,4.908H96.588V12.548h4.992Zm0-2.16H96.588V10.472h-.972v4.272h6.936V10.472h-.972Zm-.012-7.656V9.956h.984V4.124Zm3.792,4.392c1.764-.216,3.384-1.008,3.972-2.2.6,1.188,2.208,1.98,3.972,2.2l.348-.78c-1.884-.216-3.6-1.14-3.684-2.328h3.348V4.616H105.36v.792H108.7c-.084,1.188-1.8,2.112-3.684,2.328Zm6.648,4.464c0,.72-1.008,1.14-2.688,1.14s-2.688-.42-2.688-1.14,1-1.128,2.688-1.128S112.008,12.26,112.008,12.98Zm2.184-3.024V9.164H104.46v.792h4.368v1.152c-2,.1-3.192.756-3.192,1.872,0,1.224,1.392,1.9,3.7,1.9S113,14.2,113,12.98c0-1.116-1.176-1.776-3.18-1.872V9.956Zm4.5-2.448a1.83,1.83,0,1,1,3.66,0,1.83,1.83,0,1,1-3.66,0Zm6.768-.9V8.4h-2.316a2.847,2.847,0,0,0,0-1.788Zm0,2.58V12.08h1V4.136h-1v1.68h-2.736a2.758,2.758,0,0,0-2.2-1.008,2.655,2.655,0,0,0-2.772,2.7,2.655,2.655,0,0,0,2.772,2.7,2.755,2.755,0,0,0,2.208-1.02Zm-4.9,4.656v-2.58h-1v3.384h7.188v-.8Zm16.944-6.36c-1.908-.24-3.8-1.428-3.8-2.76v-.48H132.7v.48c0,1.368-1.884,2.52-3.816,2.76l.36.792a5.543,5.543,0,0,0,3.96-2.3,5.566,5.566,0,0,0,3.948,2.3Zm-1.692,6.468h-5.292V12.584h5.292Zm0-2.124h-5.292v-1.26h-.972v4.176h7.236V10.568h-.972Zm-7.5-2.8v.792h9.744V9.032Zm13.416,2.544A1.485,1.485,0,0,1,140.3,9.932a1.439,1.439,0,1,1,2.856,0A1.492,1.492,0,0,1,141.732,11.576Zm0-4.092a2.291,2.291,0,0,0-2.3,2.448,2.309,2.309,0,1,0,4.608,0A2.291,2.291,0,0,0,141.732,7.484Zm.48-3.048h-.972V5.96h-2.184v.8h5.34v-.8h-2.184Zm5.028-.324V8.66h-1.38v-4.3h-.924v10h.924v-4.9h1.38v5.412h.948V4.112Zm5.94,6.048a6.416,6.416,0,0,0,1.488.168,6.629,6.629,0,0,0,1.512-.168v2.532h-3Zm1.488-4.584c1.728,0,2.976.792,2.976,1.992S156.4,9.56,154.668,9.56,151.7,8.768,151.7,7.568,152.94,5.576,154.668,5.576Zm2.5,7.116V9.776a2.44,2.44,0,0,0,1.416-2.208c0-1.68-1.62-2.76-3.912-2.76s-3.912,1.08-3.912,2.76a2.46,2.46,0,0,0,1.44,2.22v2.9h-2.4v.816h9.78v-.816Zm4.416,1.464a.793.793,0,0,0,.792-.828.794.794,0,1,0-1.584,0A.793.793,0,0,0,161.58,14.156Z" transform="translate(84.999 368)" fill="#323c46"/><path d="M2.1,12.936c2.576-.352,4.384-1.456,5.264-2.96.88,1.5,2.688,2.608,5.264,2.96l.752-1.648C10.384,10.92,8.832,9.48,8.624,8.072H12.8V6.392H1.872v1.68h4.24C5.9,9.48,4.336,10.92,1.328,11.288Zm11.92.848H.7v1.68H6.256v4.944H8.368V15.464h5.648Zm6.064-4.96h2.144V7.112h-6.56V8.824h2.368v.72c0,2.528-.768,5.168-2.912,6.528l1.248,1.552a6.84,6.84,0,0,0,2.7-3.952,6.155,6.155,0,0,0,2.624,3.6l1.232-1.536C20.8,14.488,20.08,12.008,20.08,9.544Zm2.992,1.84H21.2v1.712h1.872V19.7H25.04V5.88H23.072Zm2.976-5.04V20.36h2V5.624ZM38.8,6.936H35.52V5.56H33.392V6.936H30.128V8.6H38.8Zm-5.936,4.832c0-.736.64-1.1,1.6-1.1.944,0,1.6.368,1.6,1.1,0,.752-.656,1.12-1.6,1.12C33.5,12.888,32.864,12.52,32.864,11.768Zm5.216,0c0-1.6-1.488-2.7-3.616-2.7-2.112,0-3.616,1.1-3.616,2.7,0,1.616,1.5,2.72,3.616,2.72C36.592,14.488,38.08,13.384,38.08,11.768ZM31.9,17.176h7.712v3.216h2.112V15.48H31.9ZM43.68,9.432H41.728V5.656H39.616v9.216h2.112v-3.7H43.68ZM57.5,9.768c-3.312-.368-4.912-2.032-4.912-3.52V5.8H50.416v.448c0,1.5-1.6,3.136-4.912,3.52L46.24,11.4c2.512-.32,4.336-1.344,5.264-2.752A7.1,7.1,0,0,0,56.752,11.4Zm-3.1,8.8H48.5v-1.28h5.9Zm0-2.864H48.5V14.472H46.4V20.2H56.48V14.472H54.4Zm-9.552-3.632v1.664H58.16V12.072Z" transform="translate(84.999 343)" fill="#00c3e1"/><path d="M0,0H29V28H0Z" transform="translate(48.999 354)" fill="#fff" opacity="0"/><path d="M4,0h8a4,4,0,0,1,4,4v7a4,4,0,0,1-4,4H4a4,4,0,0,1-4-4V4A4,4,0,0,1,4,0Z" transform="translate(55 355)" fill="rgba(0,195,225,0.2)" stroke="#46505a" stroke-width="2"/><path d="M1.815,7.6.595,9.129a2.716,2.716,0,0,0-.431,2.625l1,2.754A2.717,2.717,0,0,0,3.717,16.3h4.7a2.716,2.716,0,0,0,2.624-2.016l.557-2.089A4.346,4.346,0,0,0,8.68,6.918L5.617,5.975V1.9A1.9,1.9,0,0,0,3.716,0h0a1.9,1.9,0,0,0-1.9,1.9Z" transform="matrix(0.966, 0.259, -0.259, 0.966, 60.874, 365.308)" fill="#fff" stroke="#46505a" stroke-linecap="round" stroke-linejoin="round" stroke-width="2"/><path d="M-1446.277,2380.536h1.087a1.63,1.63,0,0,1,1.63,1.629v8.148a1.629,1.629,0,0,1-1.63,1.629h-1.087" transform="translate(1521.138 -2023.219)" fill="none" stroke="#46505a" stroke-linecap="round" stroke-miterlimit="10" stroke-width="2"/><path d="M-1443.561,2380.536h-1.087a1.63,1.63,0,0,0-1.63,1.629v8.148a1.629,1.629,0,0,0,1.63,1.629h1.087" transform="translate(1495.608 -2023.219)" fill="none" stroke="#46505a" stroke-linecap="round" stroke-miterlimit="10" stroke-width="2"/><path d="M38.5,0h233a38.5,38.5,0,0,1,0,77H38.5a38.5,38.5,0,0,1,0-77Z" transform="translate(25 246)" fill="#eafdff"/><path d="M1.536,8.516C3.3,8.3,4.92,7.508,5.508,6.32c.6,1.188,2.208,1.98,3.972,2.2l.348-.78C7.944,7.52,6.228,6.6,6.144,5.408H9.492V4.616H1.536v.792H4.872C4.788,6.6,3.072,7.52,1.188,7.736ZM8.184,12.98c0,.72-1.008,1.14-2.688,1.14s-2.688-.42-2.688-1.14,1-1.128,2.688-1.128S8.184,12.26,8.184,12.98Zm2.184-3.024V9.164H.636v.792H5v1.152c-2,.1-3.192.756-3.192,1.872,0,1.224,1.392,1.9,3.7,1.9S9.18,14.2,9.18,12.98C9.18,11.864,8,11.2,6,11.108V9.956Zm2.088,2.364h6.468v2.568h.984v-3.36H12.456Zm1.176-5.952h5.232V7.616H13.632ZM16.74,9.68V8.4h3.1V4.376h-.972V5.6H13.632V4.376H12.66V8.4h3.1V9.68H11.364v.8h9.744v-.8Zm9.42,4.3h-1.9V12.524h1.9Zm0-2.184h-1.9V10.436H23.34v4.308h3.732V10.436H26.16Zm-1.1-3.048a1.67,1.67,0,1,1,0-3.324,1.67,1.67,0,1,1,0,3.324ZM29.988,7.46V9.824h1V4.136h-1v2.52h-2.2A2.564,2.564,0,0,0,25.056,4.6a2.522,2.522,0,0,0-2.772,2.472A2.531,2.531,0,0,0,25.056,9.56,2.568,2.568,0,0,0,27.8,7.46Zm.132,2.9h-.96v.912A3.114,3.114,0,0,1,27.2,14.1l.5.744a3.633,3.633,0,0,0,1.932-2.028,3.436,3.436,0,0,0,1.944,2.028l.492-.744a3.031,3.031,0,0,1-1.956-2.82Zm10.56-6.24V14.912h.984V4.124Zm-4.692.828c-1.6,0-2.736,1.464-2.736,3.756s1.14,3.756,2.736,3.756S38.724,11,38.724,8.708,37.584,4.952,35.988,4.952Zm0,.888c1.044,0,1.788,1.128,1.788,2.868s-.744,2.88-1.788,2.88-1.8-1.128-1.8-2.88S34.932,5.84,35.988,5.84ZM49.2,5.132h-.948V7.184a5.44,5.44,0,0,1-2.388,4.644l.624.744A5.484,5.484,0,0,0,48.72,9.308,5.1,5.1,0,0,0,50.868,12.3l.588-.78A5.03,5.03,0,0,1,49.2,7.148Zm4.992-1.008V8.456H52.764V4.364h-.936v9.984h.936V9.26h1.428v5.628h.936V4.124Zm7.9,8.628V10.724h3.444V9.932H58.908V8.192H65.28V4.916H57.912v.8H64.32V7.4H57.936v3.324h3.156v2.028h-4.38v.8h9.78v-.8Zm10.236-7.56c1.656,0,2.736.516,2.736,1.368s-1.08,1.356-2.736,1.356S69.588,7.4,69.588,6.56,70.68,5.192,72.324,5.192Zm0,3.528c2.28,0,3.768-.828,3.768-2.16S74.6,4.4,72.324,4.4s-3.768.828-3.768,2.16S70.044,8.72,72.324,8.72ZM69.684,11.5H68.7v3.144h7.44v-.816H69.684Zm-2.232-1.92v.8h4.464V12.56h1V10.388h4.3v-.8ZM88.1,7.616H82.8V5.42h5.3Zm.972-2.988H81.84v3.78h7.236ZM82.8,11.576h-.984v3.072h7.44v-.8H82.8ZM80.568,9.632v.792h4.476V12.6h.984V10.424h4.32V9.632Zm13.92-3.444h1.92v-.8H91.5v.8h2.04V7.16A5.616,5.616,0,0,1,91.2,12l.6.732A5.572,5.572,0,0,0,94.02,9.32a5.147,5.147,0,0,0,2.16,3.144l.6-.72A5.215,5.215,0,0,1,94.488,7.16Zm2.88,1.8H95.592v.8h1.776v5.532H98.3V4.364h-.936Zm2.16-3.876V14.876h.948V4.112Zm3.12,1.164v.816H106.6c-.228,2.544-1.7,4.608-4.452,5.988l.54.768a8.092,8.092,0,0,0,4.884-7.572Zm9.432,3.216h-1.728V4.124h-.984V14.888h.984V9.308h1.728Zm3.7-3.216v.816h3.948c-.228,2.544-1.7,4.608-4.452,5.988l.54.768A8.092,8.092,0,0,0,120.7,5.276Zm9.432,3.216H123.48V4.124H122.5V14.888h.984V9.308h1.728Zm9.36-1.116h-6.42V5.324h6.324V4.532h-7.308V8.168h7.4Zm-7.548,4.872h6.48v2.7h1V11.456H127.02Zm-1.08-2.88v.792h9.744V9.368Zm13.4,2.208a1.485,1.485,0,0,1-1.428-1.644,1.439,1.439,0,1,1,2.856,0A1.492,1.492,0,0,1,139.344,11.576Zm0-4.092a2.291,2.291,0,0,0-2.3,2.448,2.309,2.309,0,1,0,4.608,0A2.291,2.291,0,0,0,139.344,7.484Zm.48-3.048h-.972V5.96h-2.184v.8h5.34v-.8h-2.184Zm5.028-.324V8.66h-1.38v-4.3h-.924v10h.924v-4.9h1.38v5.412h.948V4.112Zm5.94,6.048a6.416,6.416,0,0,0,1.488.168,6.629,6.629,0,0,0,1.512-.168v2.532h-3Zm1.488-4.584c1.728,0,2.976.792,2.976,1.992S154.008,9.56,152.28,9.56s-2.964-.792-2.964-1.992S150.552,5.576,152.28,5.576Zm2.5,7.116V9.776a2.44,2.44,0,0,0,1.416-2.208c0-1.68-1.62-2.76-3.912-2.76s-3.912,1.08-3.912,2.76a2.46,2.46,0,0,0,1.44,2.22v2.9h-2.4v.816h9.78v-.816Zm4.416,1.464a.793.793,0,0,0,.792-.828.794.794,0,1,0-1.584,0A.793.793,0,0,0,159.192,14.156Z" transform="translate(94.999 284.633)" fill="#323c46"/><path d="M10.368,10.648H4.3V8.024h6.064ZM12.432,6.36H2.224v5.952H12.432Zm1.6,7.52H.688v1.68H6.256v4.816H8.368V15.56h5.664ZM24.1,7.192H20.8V5.624H18.672V7.192H15.408V8.84H24.08ZM18.144,12.2c0-.8.656-1.232,1.6-1.232.928,0,1.6.432,1.6,1.232,0,.816-.672,1.248-1.6,1.248C18.8,13.448,18.144,13.016,18.144,12.2Zm5.216,0c0-1.664-1.5-2.832-3.616-2.832s-3.616,1.168-3.616,2.832c0,1.7,1.5,2.848,3.616,2.848S23.36,13.9,23.36,12.2Zm-3.744,3.648H17.5V20.12H27.536V18.44h-7.92Zm7.392-5.712V5.64H24.9V16.664h2.112V11.88H28.96V10.136Zm4.24,1.392c2.752-.144,4.608-.816,5.52-1.9.928,1.088,2.784,1.76,5.52,1.9l.592-1.552c-2.96-.128-4.4-.832-4.816-1.664h4.1V6.792H37.824V5.624H35.712V6.792h-4.3v1.52h4.064c-.4.832-1.84,1.536-4.8,1.664Zm12.176,1.92V11.9H30.16v1.552h5.568v.88h-4.08v1.52h8.1v.7h-8.08v3.712H42.208v-1.52H33.76v-.768h8.064V14.328H37.84v-.88Zm6.1-4.624h2.144V7.112H45.1V8.824h2.368v.72c0,2.528-.768,5.168-2.912,6.528l1.248,1.552a6.84,6.84,0,0,0,2.7-3.952,6.155,6.155,0,0,0,2.624,3.6l1.232-1.536c-2.128-1.248-2.848-3.728-2.848-6.192Zm2.992,1.84H50.64v1.712h1.872V19.7H54.48V5.88H52.512Zm2.976-5.04V20.36h2V5.624Z" transform="translate(94.999 261.254)" fill="#00c3e1"/><path d="M0,0H27V29H0Z" transform="translate(49.999 270.5)" fill="#fff" opacity="0"/><path d="M4,0h7a4,4,0,0,1,4,4V14a4,4,0,0,1-4,4H4a4,4,0,0,1-4-4V4A4,4,0,0,1,4,0Z" transform="translate(61.999 273.5)" fill="rgba(0,195,225,0.2)" stroke="#46505a" stroke-linecap="round" stroke-width="2"/><path d="M299.911,1157.942v2.173a2.173,2.173,0,0,0,2.173,2.173h10.864a2.173,2.173,0,0,0,2.173-2.173v-15.209a2.173,2.173,0,0,0-2.173-2.173H302.084a2.173,2.173,0,0,0-2.173,2.173v2.173" transform="translate(-242.802 -865.481)" fill="#fff" stroke="#46505a" stroke-linecap="round" stroke-linejoin="round" stroke-width="2"/><path d="M-4325.618,1516.245a2.989,2.989,0,0,0-4.226,0,2.988,2.988,0,0,0,0,4.225,2.988,2.988,0,0,0,4.225,0l3.991-4.225a2.988,2.988,0,0,1,4.225,0,2.988,2.988,0,0,1,0,4.225,2.988,2.988,0,0,1-4.225,0l-2-2.113" transform="translate(4380.766 -1231.6)" fill="#fff" stroke="#46505a" stroke-linecap="round" stroke-linejoin="round" stroke-width="2"/><path d="M38.5,0h233a38.5,38.5,0,0,1,0,77H38.5a38.5,38.5,0,0,1,0-77Z" transform="translate(25 159)" fill="#eafdff"/><path d="M9.72,8C7.836,7.7,6,6.392,6,4.892v-.48H4.992v.48C4.992,6.392,3.18,7.7,1.26,8l.4.78A5.382,5.382,0,0,0,5.5,6.272,5.5,5.5,0,0,0,9.336,8.78ZM2.868,11.576H1.884v3.072H9.3v-.8H2.868Zm3.12-1.668V8.084H5V9.908H.624V10.7H10.4V9.908Zm5.964-4.632v.816H15.9c-.228,2.544-1.7,4.608-4.452,5.988l.54.768a8.092,8.092,0,0,0,4.884-7.572Zm9.432,3.216H19.656V4.124h-.984V14.888h.984V9.308h1.728Zm7.068.444a26.3,26.3,0,0,1-4.9.36V7.748h3.852V4.76H22.56v.8h3.876V6.992H22.584V10.1h.852a28.481,28.481,0,0,0,5.112-.36Zm-4.98,3.1h6.012v2.844h.984V11.24h-7Zm8.592-5.148h-1.6V4.136h-.984v6.54h.984V7.7h1.6Zm8.616-2.76V14.912h.984V4.124Zm-4.692.828c-1.6,0-2.736,1.464-2.736,3.756s1.14,3.756,2.736,3.756S38.724,11,38.724,8.708,37.584,4.952,35.988,4.952Zm0,.888c1.044,0,1.788,1.128,1.788,2.868s-.744,2.88-1.788,2.88-1.8-1.128-1.8-2.88S34.932,5.84,35.988,5.84ZM45,5.168h-.972v7h.852A25.135,25.135,0,0,0,50,11.672l-.12-.816a24.541,24.541,0,0,1-4.884.48ZM53.6,8.42H51.876v-4.3h-.984V14.888h.984V9.236H53.6Zm12.24-4.284H64.9v8.052h.948Zm-4.332,3.12v.8H62.9v3.864h.924V4.352H62.9v2.9ZM58.68,5.96h1.368v3.5c-.456.024-.924.036-1.368.048ZM62.112,9.3c-.36.036-.744.072-1.164.108V5.96h.924v-.8H56.856v.8h.924V9.524h-1.1l.108.828a34.327,34.327,0,0,0,5.388-.324ZM59.82,13.844V11.252h-.984v3.4h7.308v-.8ZM72.324,4.8c-2.232,0-3.912,1.188-3.912,2.976s1.68,2.976,3.912,2.976,3.912-1.176,3.912-2.976S74.556,4.8,72.324,4.8Zm0,.8c1.7,0,2.976.876,2.976,2.172s-1.272,2.172-2.976,2.172-2.976-.864-2.976-2.172S70.632,5.6,72.324,5.6Zm-4.872,7.044v.816h9.78v-.816Zm16.116.108V10.724h3.444V9.932H80.388V8.192H86.76V4.916H79.392v.8H85.8V7.4H79.416v3.324h3.156v2.028h-4.38v.8h9.78v-.8ZM95.52,9.38A3.663,3.663,0,0,1,92.82,6.1V5.672h2.436V4.88h-5.9v.792h2.46V6.1A3.854,3.854,0,0,1,89.088,9.6l.516.768a4.545,4.545,0,0,0,2.724-2.652A4.572,4.572,0,0,0,95.04,10.16ZM90.576,12h6.216v2.892h.984V11.2h-7.2Zm6.216-7.872V10.64h.984V4.124Zm9.24,5a3.691,3.691,0,0,1-2.616-3.276V5.576h2.364v-.8h-5.748v.8h2.4v.276A3.9,3.9,0,0,1,99.72,9.38l.516.78a4.593,4.593,0,0,0,2.7-2.688,4.534,4.534,0,0,0,2.6,2.436Zm1.536,4.812h-4.944V12.584h4.944Zm0-2.124h-4.944V10.484h-.972v4.26h6.888v-4.26h-.972Zm-.012-7.68v2.6h-2.124v.8h2.124V9.968h.984V4.136Zm14.892,5.5a3.54,3.54,0,0,1-2.16-3.264V5h-1V6.368a3.88,3.88,0,0,1-1.608,3.1,4.009,4.009,0,0,1-1.644-3.1V5h-.972V6.368a3.757,3.757,0,0,1-2.16,3.264l.528.756a4.281,4.281,0,0,0,2.112-2.424,4.163,4.163,0,0,0,2.124,2.544A4.094,4.094,0,0,0,119.8,8.024a4.018,4.018,0,0,0,2.112,2.364Zm-9.636,3.012v.816h9.756v-.816Zm18.336-6.372a22.981,22.981,0,0,1-.408,4.872l.984.108a24.264,24.264,0,0,0,.408-4.98V5.2h-7.548v.8h6.564Zm-2.82,6.3V8.72h-.984v3.852h-3.78v.8H133.3v-.8Zm14.544-5.388H140.2V5.168h2.676Zm-3.66,0h-1.6V7.94h7.824V7.184h-1.584V5.168h1.62V4.412h-7.9v.756h1.632ZM146.4,9.632V8.84h-9.732v.792h4.38v1.02h-3.2v.732h6.348v.924H137.88v2.46h7.608v-.744H138.84V13.016h6.324V10.652h-3.132V9.632Zm3.9,1.956c-1.032,0-1.752-1.128-1.752-2.88s.72-2.868,1.752-2.868,1.74,1.128,1.74,2.868S151.32,11.588,150.3,11.588Zm5-7.464v4.1h-2.34c-.156-2.016-1.212-3.276-2.664-3.276-1.572,0-2.688,1.464-2.688,3.756s1.116,3.756,2.688,3.756c1.5,0,2.568-1.32,2.664-3.432h2.34v5.88h.984V4.124Zm6.228,6.036a6.416,6.416,0,0,0,1.488.168,6.629,6.629,0,0,0,1.512-.168v2.532h-3Zm1.488-4.584c1.728,0,2.976.792,2.976,1.992S164.748,9.56,163.02,9.56s-2.964-.792-2.964-1.992S161.292,5.576,163.02,5.576Zm2.5,7.116V9.776a2.44,2.44,0,0,0,1.416-2.208c0-1.68-1.62-2.76-3.912-2.76s-3.912,1.08-3.912,2.76a2.46,2.46,0,0,0,1.44,2.22v2.9h-2.4v.816h9.78v-.816Zm4.416,1.464a.793.793,0,0,0,.792-.828.794.794,0,1,0-1.584,0A.793.793,0,0,0,169.932,14.156Z" transform="translate(84.999 198)" fill="#323c46"/><path d="M1.312,19h7.12V17.1H6.208V7.144H4.464A7.386,7.386,0,0,1,1.712,8.152V9.608H3.856V17.1H1.312Zm12.832.224c2.416,0,4-2.112,4-6.192s-1.584-6.1-4-6.1-4.016,2-4.016,6.1C10.128,17.112,11.728,19.224,14.144,19.224Zm0-1.84c-1.024,0-1.792-1.024-1.792-4.352,0-3.312.768-4.272,1.792-4.272s1.776.96,1.776,4.272C15.92,16.36,15.168,17.384,14.144,17.384Zm9.424,1.84c2.416,0,4-2.112,4-6.192s-1.584-6.1-4-6.1-4.016,2-4.016,6.1C19.552,17.112,21.152,19.224,23.568,19.224Zm0-1.84c-1.024,0-1.792-1.024-1.792-4.352,0-3.312.768-4.272,1.792-4.272s1.776.96,1.776,4.272C25.344,16.36,24.592,17.384,23.568,17.384Zm8.1-2.944c1.7,0,2.9-1.392,2.9-3.776,0-2.368-1.2-3.728-2.9-3.728s-2.88,1.36-2.88,3.728C28.784,13.048,29.968,14.44,31.664,14.44Zm0-1.328c-.688,0-1.216-.7-1.216-2.448s.528-2.4,1.216-2.4,1.232.656,1.232,2.4S32.352,13.112,31.664,13.112Zm.4,6.112h1.392L39.888,6.936H38.5Zm8.208,0c1.68,0,2.9-1.408,2.9-3.776,0-2.384-1.216-3.744-2.9-3.744s-2.88,1.36-2.88,3.744C37.392,17.816,38.592,19.224,40.272,19.224Zm0-1.344c-.688,0-1.216-.688-1.216-2.432s.528-2.416,1.216-2.416S41.5,13.7,41.5,15.448,40.96,17.88,40.272,17.88Zm9.136-4.944c2.576-.352,4.384-1.456,5.264-2.96.88,1.5,2.688,2.608,5.264,2.96l.752-1.648C57.7,10.92,56.144,9.48,55.936,8.072h4.176V6.392H49.184v1.68h4.24c-.208,1.408-1.776,2.848-4.784,3.216Zm11.92.848H48.016v1.68h5.552v4.944H55.68V15.464h5.648Zm9.264-1.824a22.834,22.834,0,0,0,.336-4.336V6.712H63.36v1.68h5.488a20.981,20.981,0,0,1-.32,3.328Zm.976.592c-1.376.192-2.848.3-4.3.368V10.136H65.2V13c-.96.016-1.872.016-2.688.016L62.7,14.7a53.489,53.489,0,0,0,8.992-.64Zm-4.8,3.136H64.656V20.12H74.944V18.44H66.768ZM74.48,10.12v-4.5H72.368v11.04H74.48v-4.8h1.76V10.12Zm11.984,1.936A4.44,4.44,0,0,1,83.04,7.72V6.312H80.9V7.72a4.714,4.714,0,0,1-3.52,4.576l1.04,1.664A5.864,5.864,0,0,0,82,10.824a5.615,5.615,0,0,0,3.44,2.9Zm-6.832,4.688h7.92v3.648H89.68V15.064H79.632Zm7.92-11.1v8.784H89.68V5.64Z" transform="translate(84.999 175)" fill="#00c3e1"/><path d="M-4652.38,1518.578c-3.454,2.278-10.97.5-10.427,4.776.615,3.926,11.188-2.029,10.876,2.186-.17,2.1-4.059,2.29-3.851,4.735s4.788,1.821,4.788,1.821" transform="translate(4714.34 -1335.083)" fill="none" stroke="#46505a" stroke-linecap="round" stroke-linejoin="round" stroke-width="2"/><path d="M1.815,7.6.595,9.129a2.716,2.716,0,0,0-.431,2.625l1,2.754A2.717,2.717,0,0,0,3.717,16.3h4.7a2.716,2.716,0,0,0,2.624-2.016l.557-2.089A4.346,4.346,0,0,0,8.68,6.918L5.617,5.975V1.9A1.9,1.9,0,0,0,3.716,0h0a1.9,1.9,0,0,0-1.9,1.9Z" transform="matrix(0.819, -0.574, 0.574, 0.819, 59.341, 197.3)" fill="#fff" stroke="#46505a" stroke-linecap="round" stroke-linejoin="round" stroke-width="2"/></g></svg>