<svg xmlns="http://www.w3.org/2000/svg" xmlns:xlink="http://www.w3.org/1999/xlink" width="255.06" height="124.836" viewBox="0 0 255.06 124.836"><defs><clipPath id="a"><rect width="41" height="41" fill="#fff" opacity="0"/></clipPath><linearGradient id="b" x1="0.045" y1="0.441" x2="1.127" y2="0.827" gradientUnits="objectBoundingBox"><stop offset="0" stop-color="#f5b400"/><stop offset="1" stop-color="#ffc823"/></linearGradient></defs><g transform="translate(-56.834 -115)"><path d="M2.508-7.513H7.557v3.2H2.508ZM5.5-1.2V-3.6H8.437V-8.228h-6.8V-3.6H4.587v2.4h-4v.748H9.526V-1.2Zm11.891-4.84H11.539V-2.97H18.5v-.737H12.43V-5.313h5.841V-8.294H11.517v.726h5.874ZM10.417-1.177v.748h8.965v-.748ZM20.7-7.986v.726h3.6c-.165,2.31-1.386,4.191-4.037,5.489l.495.7A7.24,7.24,0,0,0,25.2-7.986Zm6.787-1.056v3.949h-2.31v.737h2.31V.814h.9V-9.042Zm3.916.946h-.891v6.413H31.3a23.04,23.04,0,0,0,4.7-.451l-.11-.748a22.5,22.5,0,0,1-4.477.44Zm7.887,2.981H37.708V-9.053h-.9V.814h.9V-4.367h1.584ZM43.549-7.37h3.586v-.748H42.647v6.512h.759a22.784,22.784,0,0,0,4.488-.33l-.11-.748a21.143,21.143,0,0,1-4.235.319Zm5.83-1.683v3.575H46.552v.748h2.827V.836h.9V-9.053Zm5.819,3.1a1.63,1.63,0,0,1,1.683-1.683,1.627,1.627,0,0,1,1.672,1.683,1.627,1.627,0,0,1-1.672,1.683A1.63,1.63,0,0,1,55.2-5.951Zm6.2-.825v1.639H59.279a2.476,2.476,0,0,0,.132-.814,2.5,2.5,0,0,0-.132-.825Zm0,2.365V-1.76h.913V-9.042H61.4V-7.5H58.894a2.528,2.528,0,0,0-2.013-.924A2.434,2.434,0,0,0,54.34-5.951a2.434,2.434,0,0,0,2.541,2.475A2.526,2.526,0,0,0,58.9-4.411ZM56.914-.143V-2.508H56v3.1H62.59V-.143Zm15.532-5.83c-1.749-.22-3.487-1.309-3.487-2.53v-.44h-.924v.44c0,1.254-1.727,2.31-3.5,2.53l.33.726A5.081,5.081,0,0,0,68.5-7.359a5.1,5.1,0,0,0,3.619,2.112ZM70.9-.044H66.044V-1.3H70.9Zm0-1.947H66.044V-3.146h-.891V.682h6.633V-3.146H70.9ZM64.02-4.554v.726h8.932v-.726Zm12.749,2.42a1.479,1.479,0,0,1-1.54-1.518,1.482,1.482,0,0,1,1.54-1.529A1.485,1.485,0,0,1,78.32-3.652,1.482,1.482,0,0,1,76.769-2.134Zm0-3.8a2.249,2.249,0,0,0-2.387,2.277,2.234,2.234,0,0,0,2.387,2.266,2.241,2.241,0,0,0,2.409-2.266A2.255,2.255,0,0,0,76.769-5.929Zm.44-3h-.9v1.463H73.821v.726H79.64v-.726H77.209Zm5.885,3.938H81.477V-9.042h-.9V.814h.9V-4.235h1.617Zm7.59-2.09a21.065,21.065,0,0,1-.374,4.466l.9.1a22.242,22.242,0,0,0,.374-4.565v-.979H84.667v.737h6.017ZM88.1-1.309V-4.84h-.9v3.531H83.732v.737h8.921v-.737Zm15.752-7.733h-.9v5.478h.9Zm-2.134,4.378a3.378,3.378,0,0,1-2.486-3.058V-8.69h-.9v.968A3.564,3.564,0,0,1,95.81-4.477l.462.715a4.179,4.179,0,0,0,2.519-2.453,4.149,4.149,0,0,0,2.5,2.266Zm-2.145,2.42h2.09v2.2h-2.09Zm2.981,2.2v-2.2H103.9V-2.97H97.317v.726h1.364v2.2H97.229V.682h6.787V-.044Zm7.5-7.942c1.551,0,2.541.462,2.541,1.243s-.99,1.232-2.541,1.232-2.541-.451-2.541-1.232S108.5-7.986,110.055-7.986Zm0,3.2c2.112,0,3.465-.726,3.465-1.958s-1.353-1.969-3.465-1.969-3.465.737-3.465,1.969S107.943-4.785,110.055-4.785Zm-2.409,2.519h-.9V.594h6.787V-.143h-5.885Zm-2.057-1.595v.726h8.921v-.726ZM124.52-5.852h-4.862V-7.865h4.862Zm.891-2.739h-6.633v3.465h6.633Zm-5.753,6.369h-.9V.594h6.82V-.143h-5.918ZM117.612-4v.726h4.1v1.991h.9V-3.278h3.96V-4Zm12.76-3.157h1.76V-7.9h-4.5v.737h1.87v.891a5.148,5.148,0,0,1-2.145,4.433l.55.671a5.108,5.108,0,0,0,2.035-3.124,4.718,4.718,0,0,0,1.98,2.882l.55-.66a4.78,4.78,0,0,1-2.1-4.2Zm2.64,1.65h-1.628v.737h1.628V.3h.858v-9.13h-.858Zm1.98-3.553V.8h.869V-9.064Zm9.24,1.738h-5.764v2.112H145.3v-.649h-5.94V-6.71h5.764V-8.767h-6.677v.638h5.786ZM139.3-.88h5.852v-2.1h-6.765v.649h5.874v.825h-5.852V.682h7.051V.033H139.3Zm-1.98-3.586v.682h8.943v-.682ZM149.985-8.03v.737h3.553a7.367,7.367,0,0,1-.3,1.727l-3.751.253.154.792,3.322-.319a7.028,7.028,0,0,1-3.52,3.344l.495.693a7.383,7.383,0,0,0,4.5-7.227Zm8.547,2.981h-1.584v-4h-.9V.814h.9V-4.3h1.584Zm3.938,2.5H160.4V-7.194h2.068Zm2.3-2.783h-1.463V-7.909h-3.751v6.072h3.751v-2.75h1.463V.319h.858V-8.833h-.858Zm1.958-3.718V.8h.858V-9.053ZM170.335-4.6h3.553V-8.14h-4.466V-7.4H173v2.068h-3.542v3.773h.781a25.147,25.147,0,0,0,4.741-.352l-.1-.748a22.346,22.346,0,0,1-4.543.352Zm7.931-.539h-1.617V-9.064h-.9V.825h.9v-5.2h1.617Zm5.544,3.993V-3h3.157v-.726H180.9v-1.6h5.841v-3h-6.754v.737h5.874v1.54H180V-3H182.9v1.859h-4.015v.737h8.965v-.737ZM191.5-5.137a3.466,3.466,0,0,0,2.519-1.518,3.584,3.584,0,0,0,2.5,1.43l.3-.671c-1.309-.209-2.343-.847-2.354-1.65H196.6v-.671h-2.145v-.858h-.9v.858h-2.145v.671h2.156c-.011.847-1.034,1.518-2.376,1.76Zm5.555.374c-.814.11-1.705.187-2.585.231V-5.577h-.913V-4.5c-.935.033-1.859.033-2.64.033l.11.7a38.852,38.852,0,0,0,6.1-.363Zm-3.96,3.872h5.478V-3.025h-6.391v.671h5.5v.814h-5.467V.7h6.732V.022h-5.852Zm5.478-5.8V-9.042h-.9v5.588h.9V-5.94h1.452v-.748Zm3.212.561A1.587,1.587,0,0,1,203.467-7.7a1.571,1.571,0,0,1,1.672,1.573,1.573,1.573,0,0,1-1.672,1.584A1.589,1.589,0,0,1,201.784-6.127Zm6.2-.77v1.54h-2.123a2.22,2.22,0,0,0,.132-.77,2.4,2.4,0,0,0-.121-.77Zm0,2.277v1.408h.913V-9.053h-.913v1.419h-2.53a2.626,2.626,0,0,0-1.991-.825,2.354,2.354,0,0,0-2.541,2.332,2.365,2.365,0,0,0,2.541,2.354,2.565,2.565,0,0,0,1.991-.847ZM205.634.088c-1.485,0-2.387-.44-2.387-1.177s.9-1.188,2.387-1.188c1.507,0,2.409.44,2.409,1.188S207.141.088,205.634.088Zm0-3.069c-2.024,0-3.278.693-3.278,1.892S203.61.8,205.634.8s3.3-.693,3.3-1.892S207.669-2.981,205.634-2.981Zm7.876.847a1.479,1.479,0,0,1-1.54-1.518,1.482,1.482,0,0,1,1.54-1.529,1.485,1.485,0,0,1,1.551,1.529A1.482,1.482,0,0,1,213.51-2.134Zm0-3.8a2.249,2.249,0,0,0-2.387,2.277,2.234,2.234,0,0,0,2.387,2.266,2.241,2.241,0,0,0,2.409-2.266A2.255,2.255,0,0,0,213.51-5.929Zm.44-3h-.9v1.463h-2.486v.726h5.819v-.726H213.95Zm5.885,3.938h-1.617V-9.042h-.9V.814h.9V-4.235h1.617Zm4.7.693H221.8V-7.469h2.728Zm3.146-2.277V-5.2h-2.266V-6.578Zm-2.266,2.112h2.266v2.618h.913V-9.042h-.913v1.727h-2.266v-.869h-4.5v4.6h4.5ZM223.146-.143V-2.486h-.9V.594h6.578V-.143ZM2.5,12.49c.286-.913.55-1.782.8-2.728h.044c.264.935.517,1.815.814,2.728l.385,1.232H2.1ZM.033,17H1.067l.781-2.464H4.8L5.566,17H6.644L3.905,8.926H2.772ZM7.5,17H8.525V8.926H7.5Zm2.959-8v.748H14.08A6.711,6.711,0,0,1,10,15.24l.495.7A7.417,7.417,0,0,0,14.971,9Zm8.646,2.948H17.523v-4h-.9v9.867h.9V12.7h1.584Zm3.234-2.728V9.96H25.3a5.975,5.975,0,0,1-3.333,5.093l.528.649a6.9,6.9,0,0,0,3.7-6.479Zm7.128-1.276v3.971H28.127V8.211H27.28v9.108h.847V12.655h1.342v5.159h.869V7.947Zm7.843,4.279a21.012,21.012,0,0,1-4.015.341V8.442h-.891V13.3h.726a21.354,21.354,0,0,0,4.3-.352ZM34.474,14.91H39.05v2.046H34.474Zm-.88,2.772h6.347V14.195H33.594Zm5.434-9.735V9.058H36.256v.7h2.772V10.8H36.256v.7h2.772v2.244h.913v-5.8Zm7.777,5.533a24.531,24.531,0,0,0,.275-3.916V9.025H42.1v.737h4.1a20.922,20.922,0,0,1-.3,3.63Zm-2.266-1.639h-.891v3.036c-.737.022-1.463.033-2.09.033l.1.748a40.207,40.207,0,0,0,6.116-.374l-.055-.66c-1,.121-2.1.187-3.179.231Zm6.259.231H49.225V7.947h-.9v9.867h.9V12.831H50.8Zm7.337-3c1.507,0,2.53.55,2.53,1.419s-1.023,1.43-2.53,1.43-2.519-.561-2.519-1.43S56.639,9.069,58.135,9.069Zm0,3.575c2.057,0,3.454-.836,3.454-2.156s-1.4-2.145-3.454-2.145-3.443.825-3.443,2.145S56.089,12.644,58.135,12.644Zm4.488.924H53.691v.737h2.3v3.509H56.9V14.305h2.475v3.509h.913V14.305h2.332ZM66.847,8.8h-.891v1.771a5.228,5.228,0,0,1-2.541,4.411l.539.726a5.465,5.465,0,0,0,2.453-3.267,5.442,5.442,0,0,0,2.387,3.069l.561-.715a4.983,4.983,0,0,1-2.508-4.224Zm5.907,3.146H71.126V7.958h-.9v9.856h.9V12.7h1.628Zm9.7-.8H77.594V9.135h4.862Zm.891-2.739H76.714v3.465h6.633Zm-5.753,6.369h-.9v2.816h6.82v-.737H77.594ZM75.548,13v.726h4.1v1.991h.9V13.722h3.96V13Zm12.76-3.157h1.76V9.1h-4.5v.737h1.87v.891a5.148,5.148,0,0,1-2.145,4.433l.55.671a5.108,5.108,0,0,0,2.035-3.124,4.718,4.718,0,0,0,1.98,2.882l.55-.66a4.78,4.78,0,0,1-2.1-4.2Zm2.64,1.65H89.32v.737h1.628V17.3h.858V8.167h-.858Zm1.98-3.553V17.8H93.8V7.936Zm9.24,1.738H96.4v2.112h6.831v-.649H97.3V10.29h5.764V8.233H96.382v.638h5.786ZM97.24,16.12h5.852v-2.1H96.327v.649H102.2v.825H96.349v2.189H103.4v-.649H97.24Zm-1.98-3.586v.682H104.2v-.682Zm17.809.143a3,3,0,0,1-2.409-2.684V9.828h2.178V9.1H110.66V7.9h-.9V9.1h-2.189v.726h2.189v.165a3.152,3.152,0,0,1-2.464,2.86l.44.715a3.946,3.946,0,0,0,2.486-2.178,3.818,3.818,0,0,0,2.42,1.98Zm2.046,2.255v-.726h-6.457v.726h2.75c-.143,1.034-1.54,1.9-3.124,2.145l.319.693a4.554,4.554,0,0,0,3.278-1.925,4.667,4.667,0,0,0,3.278,1.936l.341-.693c-1.584-.253-2.981-1.144-3.146-2.156Zm-.165-4.543V7.958h-.9v5.72h.9V11.137h1.463v-.748Zm4.818,4.4c-.957,0-1.628-1.034-1.628-2.64s.671-2.629,1.628-2.629,1.617,1.034,1.617,2.629S120.714,14.789,119.768,14.789Zm0-6.083c-1.452,0-2.486,1.342-2.486,3.443s1.034,3.443,2.486,3.443,2.475-1.342,2.475-3.443S121.22,8.706,119.768,8.706Zm6.589,3.179h-1.628V7.958h-.9v9.856h.9v-5.17h1.628Zm1.441-.1c1.628-.187,3.113-.891,3.652-1.969a4.666,4.666,0,0,0,3.652,1.969l.319-.7c-1.705-.176-3.267-1-3.377-2.057H135.1V8.3h-7.3v.726h3.058c-.11,1.056-1.672,1.881-3.388,2.057Zm6.061,5.17H129v-1.21h4.862Zm0-1.914H129V13.9h-.891v3.784h6.644V13.9h-.891Zm-6.886-2.64v.726h4.015V14.5h.913V13.128h4V12.4Zm11.374-3.5h-.9v6.358h.814a23.44,23.44,0,0,0,4.84-.462l-.1-.77a23.31,23.31,0,0,1-4.653.462Zm5.665-.957V17.8h.9V7.947Zm3.982,1.694h3.685V8.893h-4.587v6.479h.781a23.39,23.39,0,0,0,4.664-.352l-.1-.748a23.98,23.98,0,0,1-4.444.33Zm7.9,2.2h-1.628V7.947h-.9v9.889h.9V12.589h1.628Zm1.573,5.3a.727.727,0,0,0,.726-.759.728.728,0,1,0-1.452,0A.727.727,0,0,0,157.465,17.143Z" transform="translate(57 222)" fill="#323c46"/><path d="M2.584-17.442v1.663H9.969a17.927,17.927,0,0,1-.617,3.9l-7.8.571.32,1.788,6.9-.72A15.239,15.239,0,0,1,1.464-2.695L2.493-1.131c7.339-3.972,9.351-9.856,9.351-16.311ZM20.35-10.714H17.057v-9.037H15.182V2.519h1.875V-9.026H20.35Zm7.614,5.636h-4.3V-15.555h4.3Zm4.779-6.281H29.7v-5.81H21.9v13.7h7.8V-9.671h3.041V1.4h1.783V-19.255H32.742Zm4.07-8.392V2.494H38.6V-19.751ZM43.739-9.7h7.385v-7.994H41.842v1.663h7.431v4.667H41.91v8.516h1.623a48.229,48.229,0,0,0,9.854-.794l-.206-1.688a42.866,42.866,0,0,1-9.443.794Zm16.485-1.217H56.863v-8.863H54.989V2.544h1.875V-9.2h3.361ZM71.176-1.9V-6.1h6.562V-7.735H65.117v-3.6H77.258v-6.778H63.22v1.663H75.429v3.476H63.265V-6.1h6.013v4.2H60.933V-.237H79.567V-1.9ZM98.842-8.877c-2.332-1.316-3.247-4.2-3.247-6.405v-1.142h2.469v-1.663H92.257v1.663h1.555v1.142A8.788,8.788,0,0,1,91.777-9.4a9,9,0,0,1-2.035-5.884v-1.142h1.532v-1.663H85.42v1.663h2.538v1.142c0,2.135-.937,5.04-3.247,6.405l.983,1.465a7.386,7.386,0,0,0,3.155-4.37,7.368,7.368,0,0,0,2.927,4.593A7.286,7.286,0,0,0,94.7-11.732a7.352,7.352,0,0,0,3.155,4.32ZM87.867-3.638H99.985V2.544h1.875V-5.277H87.867ZM99.985-19.726V-6.419h1.875V-19.726Zm19.206,4.419a51.531,51.531,0,0,1-.777,10.08L120.288-5a54.415,54.415,0,0,0,.777-10.3v-2.21H106.684v1.663H119.19ZM113.817-2.273v-7.969h-1.875v7.969h-7.2V-.61h18.543V-2.273Zm23.3-2.234h-5.853v-5.859h5.853Zm0-7.473h-5.853v-5.884h-1.852v15.02h9.534v-15.02h-1.829Zm10.632.993h-3.384v-8.739h-1.875V2.494h1.875V-9.274h3.384ZM158.7-1.9V-6.1h6.562V-7.735H152.64v-3.6h12.141v-6.778H150.743v1.663h12.209v3.476H150.788V-6.1H156.8v4.2h-8.345V-.237H167.09V-1.9ZM174.453-12.75a3.541,3.541,0,0,1,3.5-3.8,3.537,3.537,0,0,1,3.475,3.8,3.537,3.537,0,0,1-3.475,3.8A3.541,3.541,0,0,1,174.453-12.75Zm12.9-1.862v3.7h-4.413a6.027,6.027,0,0,0,.274-1.837,6.073,6.073,0,0,0-.274-1.862Zm0,5.338v5.983h1.9V-19.726h-1.9v3.476h-5.213a5.1,5.1,0,0,0-4.184-2.085,5.277,5.277,0,0,0-5.282,5.586,5.277,5.277,0,0,0,5.282,5.586,5.1,5.1,0,0,0,4.207-2.11ZM178.019.359V-4.979h-1.9v7h13.7V.359ZM209.732-12.8c-3.635-.5-7.248-2.954-7.248-5.71V-19.5h-1.921v.993c0,2.83-3.59,5.214-7.271,5.71l.686,1.639c3.2-.546,6.265-2.284,7.545-4.767,1.3,2.483,4.344,4.221,7.522,4.767ZM206.508.582H196.425v-2.83h10.083Zm0-4.394H196.425V-6.419h-1.852v8.64H208.36v-8.64h-1.852ZM192.218-9.6v1.639h18.566V-9.6ZM224.3-17.02h-5.122v-2.731H217.3v2.731h-5.1v1.639h12.1Zm-9.168,7c0-1.539,1.258-2.532,3.109-2.532s3.132.993,3.132,2.532c0,1.564-1.28,2.557-3.132,2.557S215.128-8.455,215.128-10.019Zm8.025,0c0-2.483-2.012-4.121-4.916-4.121s-4.893,1.639-4.893,4.121c0,2.508,1.989,4.146,4.893,4.146S223.153-7.511,223.153-10.019Zm-5.99,5.661h-1.875V2.022H228.96V.359h-11.8ZM228.046-12.4v-7.349h-1.875V-3.043h1.875v-7.647h3.018V-12.4Zm6.722-3.525h7.659v-1.688h-9.534V-2.993h1.623a44.864,44.864,0,0,0,9.694-.794L244-5.476a45.991,45.991,0,0,1-9.237.745Zm16.416,4.965H247.8v-8.789h-1.875V2.568H247.8V-9.274h3.384Zm2.492,6.157h1.44l.274-10.527.069-2.582h-2.126l.069,2.582ZM254.385,1a1.57,1.57,0,0,0,1.509-1.713,1.6,1.6,0,0,0-1.509-1.763,1.615,1.615,0,0,0-1.509,1.763A1.583,1.583,0,0,0,254.385,1Z" transform="translate(56 189.148)" fill="#00c3e1"/><g transform="translate(-558.814 -368)"><g transform="translate(615.648 483)" clip-path="url(#a)"><rect width="43.766" height="32.253" rx="16.127" transform="translate(-6.56 24.777) rotate(-45)" fill="url(#b)"/><path d="M-8.562-21.63a1.353,1.353,0,0,1,.738.2,1.569,1.569,0,0,1,.541.771l3.69,9.512a.972.972,0,0,1,0,.82.965.965,0,0,1-.59.476,1.469,1.469,0,0,1-.812.033.853.853,0,0,1-.582-.623l-.951-2.624h-4.133l-.968,2.69a.815.815,0,0,1-.549.566,1.354,1.354,0,0,1-.763-.041,1,1,0,0,1-.574-.443.862.862,0,0,1,0-.771l3.69-9.594a1.466,1.466,0,0,1,.533-.771A1.364,1.364,0,0,1-8.562-21.63Zm-.033,2.624q-.131.492-.254.877t-.32.943l-.869,2.378h2.886L-8-17.186q-.213-.574-.336-.984T-8.595-19.006ZM-.51-21.63a1.275,1.275,0,0,1,.738.213.775.775,0,0,1,.312.689v10.053a.775.775,0,0,1-.312.689,1.275,1.275,0,0,1-.738.213,1.275,1.275,0,0,1-.738-.213.775.775,0,0,1-.312-.689V-20.728a.775.775,0,0,1,.312-.689A1.275,1.275,0,0,1-.51-21.63Z" transform="translate(26.586 36.046)" fill="#fff" stroke="#fff" stroke-width="1.5"/></g></g><path d="M11.844-7.112C8.918-7.518,7.434-9.2,7.434-10.7v-.616H5.46v.616c0,1.512-1.47,3.178-4.41,3.584l.7,1.484A6.353,6.353,0,0,0,6.454-8.4a6.323,6.323,0,0,0,4.69,2.772Zm.42,2.436H.616v1.5H5.474v4.4H7.322v-4.4h4.942Zm8.106-5.88H17.5v-1.2H15.638v1.2H12.782V-9.1H20.37ZM15.176-6.328c0-.644.56-.966,1.4-.966s1.4.322,1.4.966-.574.98-1.4.98S15.176-5.67,15.176-6.328Zm4.564,0c0-1.4-1.3-2.366-3.164-2.366s-3.164.966-3.164,2.366,1.316,2.38,3.164,2.38S19.74-4.914,19.74-6.328ZM14.336-1.6h6.748V1.218h1.848v-4.3h-8.6Zm10.3-6.776H22.932v-3.3H21.084v8.064h1.848V-6.846H24.64Zm3.542-2.086v1.47H32.27A10.392,10.392,0,0,1,32-7.28L27.5-7.014l.238,1.568,3.738-.364a8.536,8.536,0,0,1-4.088,3.668l.98,1.428c4.8-2.45,5.74-5.768,5.74-9.744ZM39.34-6.776H37.534V-11.7H35.686V1.176h1.848V-5.25H39.34Zm4.018,3.318H41.706v-5.46h1.652Zm2.954-3.556H45.066v-3.36H39.984v8.358h5.082v-3.5h1.246V.616h1.722v-12.11H46.312ZM48.93-11.7V1.19h1.75V-11.7Zm5.222,6.09H58.24V-10.6H52.318v1.47h4.1V-7.07H52.332v5.32h1.092a31.966,31.966,0,0,0,5.95-.434l-.168-1.5a29.333,29.333,0,0,1-5.054.406ZM63.77-6.832H61.922V-11.7H60.074V1.232h1.848V-5.306H63.77Z" transform="translate(105.344 138.574)" fill="#f5b400"/></g></svg>