<svg xmlns="http://www.w3.org/2000/svg" xmlns:xlink="http://www.w3.org/1999/xlink" width="247" height="129.858" viewBox="0 0 247 129.858">
  <defs>
    <clipPath id="clip-path">
      <rect id="area" width="41" height="41" fill="#fff" opacity="0"/>
    </clipPath>
    <linearGradient id="linear-gradient" x1="0.045" y1="0.441" x2="1.127" y2="0.827" gradientUnits="objectBoundingBox">
      <stop offset="0" stop-color="#f5b400"/>
      <stop offset="1" stop-color="#ffc823"/>
    </linearGradient>
  </defs>
  <g id="그룹_14629" data-name="그룹 14629" transform="translate(-56 -115)">
    <text id="오답이_발생한_원인을_분석하여_학습자_스스로_문제점을_해결할_수_있게_도와줍니다." data-name="오답이 발생한 원인을 분석하여 학습자 스스로
문제점을 해결할 수 있게 도와줍니다." transform="translate(56 223.858)" fill="#323c46" font-size="12" font-family="NotoSansCJKkr-Regular, Noto Sans CJK KR" letter-spacing="-0.025em"><tspan x="0" y="0">오답이 발생한 원인을 분석하여 학습자 스스로</tspan><tspan x="0" y="18">문제점을 해결할 수 있게 도와줍니다.</tspan></text>
    <text id="왜_틀렸는지_구분한다_" data-name="왜 틀렸는지 구분한다!" transform="translate(56 163.058)" fill="#00c3e1" font-size="24" font-family="NotoSansCJKkr-Regular, Noto Sans CJK KR" letter-spacing="-0.05em"><tspan x="0" y="28">왜 틀렸는지 구분한다!</tspan></text>
    <g id="_-g-img_intro_ai" data-name="-g-img_intro_ai" transform="translate(-558.814 -368)">
      <g id="마스크_그룹_7351" data-name="마스크 그룹 7351" transform="translate(615.648 483)" clip-path="url(#clip-path)">
        <rect id="사각형_8799" data-name="사각형 8799" width="43.766" height="32.253" rx="16.127" transform="translate(-6.56 24.777) rotate(-45)" fill="url(#linear-gradient)"/>
        <path id="패스_12281" data-name="패스 12281" d="M-8.562-21.63a1.353,1.353,0,0,1,.738.2,1.569,1.569,0,0,1,.541.771l3.69,9.512a.972.972,0,0,1,0,.82.965.965,0,0,1-.59.476,1.469,1.469,0,0,1-.812.033.853.853,0,0,1-.582-.623l-.951-2.624h-4.133l-.968,2.69a.815.815,0,0,1-.549.566,1.354,1.354,0,0,1-.763-.041,1,1,0,0,1-.574-.443.862.862,0,0,1,0-.771l3.69-9.594a1.466,1.466,0,0,1,.533-.771A1.364,1.364,0,0,1-8.562-21.63Zm-.033,2.624q-.131.492-.254.877t-.32.943l-.869,2.378h2.886L-8-17.186q-.213-.574-.336-.984T-8.595-19.006ZM-.51-21.63a1.275,1.275,0,0,1,.738.213.775.775,0,0,1,.312.689v10.053a.775.775,0,0,1-.312.689,1.275,1.275,0,0,1-.738.213,1.275,1.275,0,0,1-.738-.213.775.775,0,0,1-.312-.689V-20.728a.775.775,0,0,1,.312-.689A1.275,1.275,0,0,1-.51-21.63Z" transform="translate(26.586 36.046)" fill="#fff" stroke="#fff" stroke-width="1.5"/>
      </g>
    </g>
    <text id="오답_원인_분석" data-name="오답 원인 분석" transform="translate(104.344 140.405)" fill="#f5b400" font-size="15" font-family="NotoSansCJKkr-Bold, Noto Sans CJK KR" font-weight="700" letter-spacing="-0.05em"><tspan x="0" y="0">오답 원인 분석</tspan></text>
  </g>
</svg>
