<svg xmlns="http://www.w3.org/2000/svg" xmlns:xlink="http://www.w3.org/1999/xlink" width="246" height="131" viewBox="0 0 246 131"><defs><clipPath id="a"><rect width="41" height="41" fill="#fff" opacity="0"/></clipPath><linearGradient id="b" x1="0.045" y1="0.441" x2="1.127" y2="0.827" gradientUnits="objectBoundingBox"><stop offset="0" stop-color="#f5b400"/><stop offset="1" stop-color="#ffc823"/></linearGradient></defs><g transform="translate(-57 -115)"><path d="M7.02-8.556H4.332v-1.32H3.348v1.32H.672v.792H7.02ZM2.208-5.172c0-.744.66-1.224,1.632-1.224s1.644.48,1.644,1.224S4.812-3.936,3.84-3.936,2.208-4.416,2.208-5.172Zm4.212,0c0-1.2-1.056-1.992-2.58-1.992s-2.568.792-2.568,1.992,1.044,2,2.568,2S6.42-3.96,6.42-5.172ZM3.276-2.436H2.292V.648H9.468v-.8H3.276ZM8.988-6.324V-9.876H8V-1.8h.984V-5.5h1.584v-.828Zm12.288-.06h-5.3v-2.2h5.3Zm.972-2.988H15.012v3.78h7.236ZM15.972-2.424h-.984V.648h7.44v-.8H15.972ZM13.74-4.368v.792h4.476V-1.4H19.2V-3.576h4.32v-.792ZM27.66-7.812h1.92v-.8H24.672v.8h2.04v.972A5.616,5.616,0,0,1,24.372-2l.6.732a5.572,5.572,0,0,0,2.22-3.408,5.147,5.147,0,0,0,2.16,3.144l.6-.72A5.215,5.215,0,0,1,27.66-6.84Zm2.88,1.8H28.764v.8H30.54V.324h.936v-9.96H30.54ZM32.7-9.888V.876h.948V-9.888ZM35.508,2.28A2.67,2.67,0,0,0,37.26-.228c0-.8-.348-1.3-.924-1.3a.78.78,0,0,0-.828.768.752.752,0,0,0,.8.768A.492.492,0,0,0,36.444,0a1.8,1.8,0,0,1-1.2,1.632ZM47.052-8.556H44.364v-1.32H43.38v1.32H40.7v.792h6.348ZM42.24-5.172c0-.744.66-1.224,1.632-1.224s1.644.48,1.644,1.224-.672,1.236-1.644,1.236S42.24-4.416,42.24-5.172Zm4.212,0c0-1.2-1.056-1.992-2.58-1.992S41.3-6.372,41.3-5.172s1.044,2,2.568,2S46.452-3.96,46.452-5.172ZM43.308-2.436h-.984V.648H49.5v-.8H43.308ZM49.02-6.324V-9.876h-.984V-1.8h.984V-5.5H50.6v-.828Zm12.288-.06H56v-2.2h5.3Zm.972-2.988H55.044v3.78H62.28ZM56-2.424H55.02V.648h7.44v-.8H56ZM53.772-4.368v.792h4.476V-1.4h.984V-3.576h4.32v-.792Zm13.92-3.444h1.92v-.8H64.7v.8h2.04v.972A5.616,5.616,0,0,1,64.4-2l.6.732a5.572,5.572,0,0,0,2.22-3.408,5.147,5.147,0,0,0,2.16,3.144l.6-.72A5.215,5.215,0,0,1,67.692-6.84Zm2.88,1.8H68.8v.8h1.776V.324h.936v-9.96h-.936Zm2.16-3.876V.876h.948V-9.888Zm7.812,7.476c-1.032,0-1.752-1.128-1.752-2.88s.72-2.868,1.752-2.868,1.74,1.128,1.74,2.868S81.564-2.412,80.544-2.412Zm5-7.464v4.1h-2.34C83.052-7.788,82-9.048,80.544-9.048c-1.572,0-2.688,1.464-2.688,3.756s1.116,3.756,2.688,3.756c1.5,0,2.568-1.32,2.664-3.432h2.34V.912h.984V-9.876Zm8.916,2.244v.756h1.92v2.724h1V-9.864h-1v2.232Zm.9,1.692a10.96,10.96,0,0,1-2.412.24V-8.568h2v-.78H91.98V-4.92h.528a12.319,12.319,0,0,0,2.94-.252Zm-3.84.012a9.523,9.523,0,0,1-1.86.216V-8.568H91.38v-.78H88.692V-4.92h.48a10.71,10.71,0,0,0,2.436-.228ZM93.72.18C92.448.18,91.7-.12,91.7-.648c0-.552.744-.852,2.016-.852s2.016.3,2.016.852C95.736-.12,94.98.18,93.72.18Zm0-2.376c-1.92,0-3.036.54-3.036,1.548S91.8.888,93.72.888s3.036-.54,3.036-1.536S95.64-2.2,93.72-2.2Zm.5-1.26V-4.488H93.24v1.032H89.892V-2.7H97.56v-.756Zm10.884-2.016h-1.86a8.59,8.59,0,0,0,.516-3.036H99.612v.8h3.18a6.94,6.94,0,0,1-3.636,5.568l.576.708A8.193,8.193,0,0,0,102.9-4.68h2.208V.348h.936V-9.588h-.936Zm2.244-4.4V.888h.936V-9.876Zm11.124,4.332H115.8V-8.472h2.676Zm-3.66,0h-1.584v.8h7.812v-.8H119.46V-8.472h1.62v-.8H113.2v.8h1.62Zm7.2,2.052H112.26v.8h4.38V.888h1V-2.688h4.38Zm9.624-3.144H125.3V-9.48h-.984v3.648h7.32ZM125.232-2.52h-.984V.624H131.7v-.8h-6.468ZM123-4.392V-3.6h9.756v-.792Zm14.592-3.564h2.532v-.816h-6.012v.816h2.5v1.368a5.505,5.505,0,0,1-2.856,4.62l.576.792A6.036,6.036,0,0,0,137.1-4.728a5.686,5.686,0,0,0,2.82,3.288l.552-.792a5.012,5.012,0,0,1-2.88-4.356Zm3.984-1.908V.888h.984V-9.864Zm14.124,0h-.984V-4.3h.984Zm-2.3,4.488a3.722,3.722,0,0,1-2.724-3.36v-.816h-.984v.816a3.909,3.909,0,0,1-2.736,3.564l.5.768a4.57,4.57,0,0,0,2.736-2.676A4.573,4.573,0,0,0,152.9-4.608Zm-3.66,5.364V-1.164h5.976V-3.756H148.74v.768h6v1.08h-5.976V.768h7.308v-.78Zm11.7-8.928h-.972v1.932a5.655,5.655,0,0,1-2.892,4.86l.6.8a5.981,5.981,0,0,0,2.784-3.612,5.845,5.845,0,0,0,2.772,3.408l.588-.792a5.354,5.354,0,0,1-2.88-4.668Zm4.008-.936V.912h.984V-9.876Zm3.372.84v.8h3.96c-.2,1.9-1.86,3.42-4.392,4.212l.4.78c3.1-.972,5.052-3.012,5.052-5.8Zm2.172,6.228H170V.648h7.176v-.8h-6.192ZM176.712-6.6V-9.864h-.984V-2h.984v-3.78H178.3V-6.6Zm12.264.588h-5.232V-7.4h5.232Zm.972-3.528h-.972v1.38h-5.232V-9.54h-.972v4.308h7.176Zm-6.264,7.26h-.972V.648h7.44v-.8h-6.468Zm-2.22-1.908V-3.4h4.476v2.088h.984V-3.4h4.32v-.792Zm17.052-.564a3.764,3.764,0,0,1-2.628-3.408V-9.336H194.9V-8.2a3.909,3.909,0,0,1-2.664,3.672l.516.792a4.592,4.592,0,0,0,2.664-2.724,4.546,4.546,0,0,0,2.568,2.484Zm-4.632,2.628H200.1V.9h1V-2.916h-7.212Zm6.216-7.74V-7.62h-2.34v.8h2.34v3.3h1V-9.864Zm6.024,7.536a1.614,1.614,0,0,1-1.68-1.656,1.617,1.617,0,0,1,1.68-1.668,1.62,1.62,0,0,1,1.692,1.668A1.617,1.617,0,0,1,206.124-2.328Zm0-4.14a2.454,2.454,0,0,0-2.6,2.484,2.437,2.437,0,0,0,2.6,2.472,2.444,2.444,0,0,0,2.628-2.472A2.46,2.46,0,0,0,206.124-6.468Zm.48-3.276h-.984v1.6h-2.712v.792h6.348v-.792H206.6Zm6.42,4.3H211.26V-9.864h-.984V.888h.984V-4.62h1.764Zm6.12,1.38a6.414,6.414,0,0,0,.12-1.224,6.115,6.115,0,0,0-.156-1.368h2.484v2.592Zm-2.556,1.656c-1.032,0-1.752-1.128-1.752-2.88s.72-2.868,1.752-2.868,1.752,1.128,1.752,2.868S217.608-2.412,216.588-2.412Zm5-7.464v2.412h-2.76a2.426,2.426,0,0,0-2.244-1.584c-1.572,0-2.688,1.464-2.688,3.756s1.116,3.756,2.688,3.756A2.5,2.5,0,0,0,218.9-3.264h2.688V.912h.984V-9.876ZM2.076,9.972H6.1V9.156h-5v7.068h.852a25.516,25.516,0,0,0,5.088-.384l-.108-.816a26.16,26.16,0,0,1-4.848.36Zm8.616,2.4H8.916V8.124H7.932V18.912h.984V13.188h1.776Zm5.544-4.008c-2.328,0-3.78.756-3.78,2.04s1.452,2.028,3.78,2.028,3.78-.756,3.78-2.028S18.564,8.364,16.236,8.364Zm0,.78c1.7,0,2.772.468,2.772,1.26s-1.068,1.26-2.772,1.26-2.772-.468-2.772-1.26S14.532,9.144,16.236,9.144Zm-3.66,6.06v3.54H19.92V15.2Zm6.384.78v1.968H13.536V15.984Zm-7.584-2.628v.792h9.732v-.792Zm20.64-1.74h-5.3V9.42h5.3Zm.972-2.988H25.752v3.78h7.236Zm-6.276,6.948h-.984v3.072h7.44v-.8H26.712ZM24.48,13.632v.792h4.476V16.6h.984V14.424h4.32v-.792ZM38.4,10.188h1.92v-.8H35.412v.8h2.04v.972A5.616,5.616,0,0,1,35.112,16l.6.732a5.572,5.572,0,0,0,2.22-3.408,5.147,5.147,0,0,0,2.16,3.144l.6-.72A5.215,5.215,0,0,1,38.4,11.16Zm2.88,1.8H39.5v.8H41.28v5.532h.936V8.364H41.28Zm2.16-3.876V18.876h.948V8.112Zm10.08,1.9H47.232v2.3h7.452V11.6H48.2V10.68h6.288V8.436H47.208v.7H53.52ZM48.144,17.04h6.384V14.748h-7.38v.708h6.408v.9H47.172v2.388h7.692v-.708h-6.72Zm-2.16-3.912v.744H55.74v-.744Zm17.556-.456H60.516V9.636H63.54Zm.96-3.816H59.556v4.608H64.5Zm3.144,6.84V14.9H60.612V15.7h3c-.12,1.152-1.644,2.136-3.42,2.4l.36.756A4.929,4.929,0,0,0,64.14,16.74a5.011,5.011,0,0,0,3.552,2.124l.372-.756c-1.752-.276-3.3-1.284-3.42-2.412Zm-.18-4.992V8.124H66.48v6.144h.984V11.52h1.6V10.7Zm3.252,2.112c1.776-.18,3.348-.8,4.008-1.848.648,1.044,2.22,1.668,4,1.848l.3-.756c-2.028-.18-3.684-.972-3.768-2.148h3.336v-.78H75.216V8.052h-.984v1.08H70.86v.78h3.324c-.084,1.176-1.74,1.968-3.756,2.148Zm6.72,5.136H72.012V16.2h5.424Zm2.148-3.708v-.8H69.852v.8h4.38V15.42h-3.18v3.324H78.4V15.42h-3.18V14.244Zm4.2-1.824c1.812-.144,3.408-.7,4.068-1.692.66,1,2.244,1.548,4.044,1.692l.3-.744c-2-.132-3.624-.792-3.792-1.86h3.312V9.072H88.344V8.052H87.36v1.02H83.976v.744H87.3c-.168,1.068-1.812,1.728-3.8,1.86ZM92.7,13.656V12.9H82.992v.756h4.356v1h-3.2v.732h6.348V16.3H84.18v2.472h7.608v-.744H85.14V17h6.324V14.652h-3.12v-1Zm4.176-3.468H98.8v-.8H93.888v.8h2.04v.972A5.616,5.616,0,0,1,93.588,16l.6.732a5.572,5.572,0,0,0,2.22-3.408,5.147,5.147,0,0,0,2.16,3.144l.6-.72a5.215,5.215,0,0,1-2.292-4.584Zm2.88,1.8H97.98v.8h1.776v5.532h.936V8.364h-.936Zm2.16-3.876V18.876h.948V8.112Zm8.928,1.116h-2.688V8.016h-.984V9.228H104.5v.792h6.348Zm-4.812,3.18c0-.7.648-1.14,1.632-1.14s1.644.444,1.644,1.14-.66,1.14-1.644,1.14S106.032,13.116,106.032,12.408Zm4.212,0c0-1.14-1.044-1.872-2.58-1.872s-2.568.732-2.568,1.872,1.032,1.884,2.568,1.884S110.244,13.56,110.244,12.408Zm1.6,5.544h-4.824V16.764h4.824Zm0-1.956h-4.824v-1.14h-.972v3.888h6.768V14.856h-.972Zm2.568-5.136h-1.6V8.124h-.984v6.252h.984V11.688h1.6Zm2.448-1.692h-.984V16.1h.888a25.571,25.571,0,0,0,5.28-.5l-.108-.84a25.429,25.429,0,0,1-5.076.5Zm6.18-1.044V18.876h.984V8.124Zm4.344,1.848h4.02V9.156h-5v7.068h.852a25.516,25.516,0,0,0,5.088-.384l-.108-.816a26.16,26.16,0,0,1-4.848.36Zm8.616,2.4H134.22V8.124h-.984V18.912h.984V13.188H136Zm1.716,5.784a.793.793,0,0,0,.792-.828.794.794,0,1,0-1.584,0A.793.793,0,0,0,137.712,18.156Z" transform="translate(57 224.146)" fill="#323c46"/><path d="M6.864,30.338c3.38,0,6.11-2.028,6.11-5.434a4.9,4.9,0,0,0-4.03-4.836v-.1a4.759,4.759,0,0,0,3.38-4.6c0-3.016-2.34-4.784-5.538-4.784a7.63,7.63,0,0,0-5.33,2.288L2.73,14.374a5.563,5.563,0,0,1,3.952-1.846,2.926,2.926,0,0,1,3.224,3.016c0,2.054-1.352,3.64-5.278,3.64V21c4.394,0,5.928,1.534,5.928,3.8,0,2.21-1.612,3.562-3.874,3.562A6.3,6.3,0,0,1,1.95,26.178l-1.2,1.56A7.89,7.89,0,0,0,6.864,30.338Zm9.646-7.592c3.744-.676,7.1-2.548,8.58-5.408,1.456,2.86,4.81,4.732,8.554,5.408l.832-1.69c-4.524-.728-8.32-3.458-8.32-7.046h7.488V12.294H26.156V9.122H24v3.172H16.484V14.01H24c0,3.588-3.8,6.318-8.32,7.046Zm9.646,4.472v-5.3H24v5.3h-9.49v1.768H35.672V27.218ZM44.174,15.986a4.005,4.005,0,1,1,4,3.9A3.825,3.825,0,0,1,44.174,15.986Zm10.088,0c0-3.38-2.6-5.746-6.084-5.746s-6.084,2.366-6.084,5.746,2.6,5.746,6.084,5.746S54.262,19.366,54.262,15.986Zm-6.89,8.034H45.24V31.4H60.788V29.662H47.372ZM59.748,15.7V8.6H57.616v17.16h2.132V17.468H63.18V15.7Zm9.8,9.126c-1.872,0-3.042-2.366-3.042-6.188,0-3.744,1.17-6.11,3.042-6.11,1.82,0,3.016,2.366,3.016,6.11C72.566,22.46,71.37,24.826,69.55,24.826Zm7.878-7.15H74.49c-.26-4.394-2.132-7.124-4.94-7.124-3.042,0-4.992,3.12-4.992,8.086,0,5.044,1.95,8.164,4.992,8.164,2.86,0,4.758-2.808,4.94-7.384h2.938V30.78h2.028V9.122H77.428ZM82.056,8.6V31.924h2.028V8.6Zm12.48,4h8.71V10.838H92.4V26.152H94.25a55.286,55.286,0,0,0,11.024-.832l-.234-1.768a56.681,56.681,0,0,1-10.5.78Zm18.668,5.2h-3.848V8.6h-2.132V31.976h2.132v-12.4H113.2Zm10.244-4.966h3.822V24.176c-1.274.052-2.574.1-3.822.13Zm5.9,0h2.5V11.124H118.872V12.84h2.5V24.332c-1.092.026-2.132.026-3.094.026l.26,1.794a96.4,96.4,0,0,0,14.534-.858l-.156-1.586c-1.144.156-2.34.26-3.562.338Zm11,5.1H136.5V8.628h-2.132v23.3H136.5V19.7h3.848Zm3.354-2.444a4.017,4.017,0,0,1,8.008,0,4.013,4.013,0,0,1-8.008,0Zm10.088,0c0-3.25-2.574-5.486-6.084-5.486-3.536,0-6.084,2.236-6.084,5.486,0,3.3,2.548,5.538,6.084,5.538C151.216,21.03,153.79,18.794,153.79,15.492Zm-9.672,9.776h13.026v6.656h2.132v-8.4H144.118Zm18.616-10.66h-3.458V8.628h-2.132v13.7h2.132V16.376h3.458Zm14.9-3.146h-5.824V8.6h-2.132v2.86h-5.8v1.716h13.754Zm-10.426,7.332c0-1.612,1.43-2.652,3.536-2.652s3.562,1.04,3.562,2.652c0,1.638-1.456,2.678-3.562,2.678S167.206,20.432,167.206,18.794Zm9.126,0c0-2.6-2.288-4.316-5.59-4.316s-5.564,1.716-5.564,4.316c0,2.626,2.262,4.342,5.564,4.342S176.332,21.42,176.332,18.794Zm-6.812,5.928h-2.132V31.4h15.548V29.662H169.52ZM181.9,16.3V8.6h-2.132V26.1H181.9V18.092h3.432V16.3Zm7.644-3.692h8.71V10.838H187.408V26.152h1.846a55.286,55.286,0,0,0,11.024-.832l-.234-1.768a56.681,56.681,0,0,1-10.5.78Zm18.668,5.2H204.36V8.6h-2.132V31.976h2.132v-12.4h3.848Zm3.068,12.532a1.717,1.717,0,0,0,1.716-1.794,1.721,1.721,0,1,0-3.432,0A1.717,1.717,0,0,0,211.276,30.338Z" transform="translate(57 163.346)" fill="#00c3e1"/><g transform="translate(57.834 115)" clip-path="url(#a)"><rect width="43.766" height="32.253" rx="16.127" transform="translate(-6.56 24.777) rotate(-45)" fill="url(#b)"/><path d="M-8.562-21.63a1.353,1.353,0,0,1,.738.2,1.569,1.569,0,0,1,.541.771l3.69,9.512a.972.972,0,0,1,0,.82.965.965,0,0,1-.59.476,1.469,1.469,0,0,1-.812.033.853.853,0,0,1-.582-.623l-.951-2.624h-4.133l-.968,2.69a.815.815,0,0,1-.549.566,1.354,1.354,0,0,1-.763-.041,1,1,0,0,1-.574-.443.862.862,0,0,1,0-.771l3.69-9.594a1.466,1.466,0,0,1,.533-.771A1.364,1.364,0,0,1-8.562-21.63Zm-.033,2.624q-.131.492-.254.877t-.32.943l-.869,2.378h2.886L-8-17.186q-.213-.574-.336-.984T-8.595-19.006ZM-.51-21.63a1.275,1.275,0,0,1,.738.213.775.775,0,0,1,.312.689v10.053a.775.775,0,0,1-.312.689,1.275,1.275,0,0,1-.738.213,1.275,1.275,0,0,1-.738-.213.775.775,0,0,1-.312-.689V-20.728a.775.775,0,0,1,.312-.689A1.275,1.275,0,0,1-.51-21.63Z" transform="translate(26.586 36.046)" fill="#fff" stroke="#fff" stroke-width="1.5"/></g><path d="M9.6-8.355H4.125V-10.4H9.6Zm1.95-3.585H2.175V-6.8H11.55ZM4.065-2.955H2.085V1.05H11.76V-.525H4.065ZM.63-5.7v1.56H6.075v2.355h1.98V-4.14H13.14V-5.7ZM18.075-9.54h2.01v-1.6h-6.15v1.6h2.22v.675c0,2.37-.72,4.845-2.73,6.12l1.17,1.455a6.413,6.413,0,0,0,2.535-3.7A5.771,5.771,0,0,0,19.59-1.62l1.155-1.44c-1.995-1.17-2.67-3.5-2.67-5.805ZM20.88-7.815H19.125V-6.21H20.88V.66h1.845V-12.3H20.88Zm2.79-4.725V1.275h1.875V-12.54ZM34.395-9.03H31.56v-1.695h2.835Zm-4.8,0H27.93v1.47H38.01V-9.03H36.36v-1.695h1.755V-12.2H27.84v1.47h1.755Zm9.63,3.765v-1.56H26.745v1.56H31.98v.855H28.17v1.425h7.59v.675H28.185v3.5H38.07V-.24H30.15V-.99h7.56V-4.41H33.96v-.855ZM49.26-12.54V1.32h1.98V-12.54Zm-5.445.975c-2.085,0-3.63,1.89-3.63,4.92,0,3.045,1.545,4.95,3.63,4.95s3.63-1.905,3.63-4.95C47.445-9.675,45.9-11.565,43.815-11.565Zm0,1.785c1.02,0,1.725,1.095,1.725,3.135,0,2.055-.7,3.15-1.725,3.15s-1.725-1.1-1.725-3.15C42.09-8.685,42.795-9.78,43.815-9.78ZM64.44-7.95H59.055V-9.2H64.44ZM66.4-12.09H64.44v1.41H59.055v-1.41H57.09v5.685H66.4ZM58.92-2.745H56.94v3.8h9.69V-.525H58.92Zm-3.435-2.7v1.56H60.93V-1.71h1.98V-3.885h5.1v-1.56ZM76.8-6.27A4.2,4.2,0,0,1,73.71-10.4V-11.82H71.7v1.305A4.478,4.478,0,0,1,68.46-6.06L69.495-4.5A5.37,5.37,0,0,0,72.72-7.44a5.156,5.156,0,0,0,3.045,2.7ZM70.68-2.115h7.44v3.42H80.1v-4.98H70.68Zm7.44-10.41v2.58H75.6v1.6h2.52V-4.3H80.1v-8.22Z" transform="translate(105.344 140.693)" fill="#f5b400"/><g transform="translate(57.834 115)" clip-path="url(#a)"><rect width="43.766" height="32.253" rx="16.127" transform="translate(-6.56 24.777) rotate(-45)" fill="url(#b)"/><path d="M-8.562-21.63a1.353,1.353,0,0,1,.738.2,1.569,1.569,0,0,1,.541.771l3.69,9.512a.972.972,0,0,1,0,.82.965.965,0,0,1-.59.476,1.469,1.469,0,0,1-.812.033.853.853,0,0,1-.582-.623l-.951-2.624h-4.133l-.968,2.69a.815.815,0,0,1-.549.566,1.354,1.354,0,0,1-.763-.041,1,1,0,0,1-.574-.443.862.862,0,0,1,0-.771l3.69-9.594a1.466,1.466,0,0,1,.533-.771A1.364,1.364,0,0,1-8.562-21.63Zm-.033,2.624q-.131.492-.254.877t-.32.943l-.869,2.378h2.886L-8-17.186q-.213-.574-.336-.984T-8.595-19.006ZM-.51-21.63a1.275,1.275,0,0,1,.738.213.775.775,0,0,1,.312.689v10.053a.775.775,0,0,1-.312.689,1.275,1.275,0,0,1-.738.213,1.275,1.275,0,0,1-.738-.213.775.775,0,0,1-.312-.689V-20.728a.775.775,0,0,1,.312-.689A1.275,1.275,0,0,1-.51-21.63Z" transform="translate(26.586 36.046)" fill="#fff" stroke="#fff" stroke-width="1.5"/></g><rect width="246" height="131" transform="translate(57 115)" fill="none"/></g></svg>