<svg xmlns="http://www.w3.org/2000/svg" xmlns:xlink="http://www.w3.org/1999/xlink" width="583.908" height="555.358" viewBox="0 0 583.908 555.358">
  <defs>
    <linearGradient id="linear-gradient" x1="0.057" y1="0.602" x2="0.986" y2="0.216" gradientUnits="objectBoundingBox">
      <stop offset="0" stop-color="#eafdff"/>
      <stop offset="0.589" stop-color="#ebfdff"/>
      <stop offset="1" stop-color="#fff"/>
    </linearGradient>
    <linearGradient id="linear-gradient-2" x1="0.539" y1="0.674" x2="0.943" y2="0.979" gradientUnits="objectBoundingBox">
      <stop offset="0" stop-color="#9aecdd"/>
      <stop offset="1" stop-color="#acfff0"/>
    </linearGradient>
    <clipPath id="clip-path">
      <rect id="area" width="33" height="37" transform="translate(149 469)" fill="#78edff" opacity="0"/>
    </clipPath>
  </defs>
  <g id="그룹_14643" data-name="그룹 14643" transform="translate(-130.747 -464.016)">
    <path id="패스_12362" data-name="패스 12362" d="M189,0h78C371.382,0,456,84.618,456,189S371.382,378,267,378H189C84.618,378,0,293.382,0,189S84.618,0,189,0Z" transform="translate(319.747 464.016) rotate(30)" fill="url(#linear-gradient)"/>
    <path id="img_area" d="M0,0H537V500H0Z" transform="translate(152.648 497)" fill="#c4b2ff" opacity="0"/>
    <g id="패스_12380" data-name="패스 12380" transform="translate(397.789 612.801) rotate(-15)" fill="none" stroke-linecap="round" stroke-dasharray="3 12">
      <path d="M61.5,0,123,45.072,99.509,118H23.491L0,45.072Z" stroke="none"/>
      <path d="M 61.5 0 C 61.5 0 63.91973876953125 1.77337646484375 63.91973876953125 1.77337646484375 C 65.03340148925781 2.58953857421875 65.27455902099609 4.153976440429688 64.45838165283203 5.26763916015625 C 63.78318023681641 6.188941955566406 62.59592056274414 6.513092041015625 61.57538604736328 6.135513305664062 C 61.52907180786133 6.174911499023438 61.48090362548828 6.213005065917969 61.43107986450195 6.249519348144531 L 59.0113410949707 8.022903442382812 C 57.89766693115234 8.839088439941406 56.33323669433594 8.597915649414062 55.51705932617188 7.484260559082031 C 54.70194244384766 6.372047424316406 54.94143676757812 4.810195922851562 56.05141448974609 3.993148803710938 L 61.5 0 Z M 72.12290954589844 8.383155822753906 C 72.63575744628906 8.383186340332031 73.15334320068359 8.540489196777344 73.59870147705078 8.86688232421875 C 73.59870147705078 8.86688232421875 74.36359405517578 9.427452087402344 75.03330230712891 9.918258666992188 L 75.03617858886719 9.920372009277344 C 75.03770446777344 9.921485900878906 75.03923034667969 9.922599792480469 75.04075622558594 9.923721313476562 L 75.04145050048828 9.924232482910156 C 75.04806518554688 9.9290771484375 75.05464172363281 9.93389892578125 75.06123352050781 9.938728332519531 L 75.06320190429688 9.940177917480469 C 75.06718444824219 9.943092346191406 75.07110595703125 9.945968627929688 75.0750732421875 9.948875427246094 L 75.07723999023438 9.950462341308594 C 75.07911682128906 9.951835632324219 75.08094787597656 9.953178405761719 75.08282470703125 9.954559326171875 L 75.08314514160156 9.954795837402344 C 75.08430480957031 9.955635070800781 75.08550262451172 9.956520080566406 75.08665466308594 9.957359313964844 L 76.02218627929688 10.64299774169922 C 77.13271331787109 11.45992279052734 77.37236022949219 13.02208709716797 76.55708312988281 14.13449859619141 C 75.74089050292969 15.24815368652344 74.17646789550781 15.48931121826172 73.06282043457031 14.67314147949219 L 70.64308166503906 12.8997802734375 C 69.5294189453125 12.08360290527344 69.28826141357422 10.51915740966797 70.10443878173828 9.405517578125 C 70.59422302246094 8.737213134765625 71.35332489013672 8.383110046386719 72.12290954589844 8.383155822753906 Z M 84.22160339355469 17.25002288818359 C 84.73382568359375 17.25005340576172 85.25074768066406 17.40695190429688 85.69573974609375 17.73252868652344 L 86.9720458984375 18.66790771484375 C 86.97381591796875 18.66920471191406 86.9755859375 18.67049407958984 86.97735595703125 18.67179107666016 L 86.97895812988281 18.6729736328125 C 86.98286437988281 18.67583465576172 86.98678588867188 18.6787109375 86.99069213867188 18.68157196044922 L 86.99351501464844 18.68363952636719 C 87.00154876708984 18.68952178955078 87.00975036621094 18.69553375244141 87.01776123046875 18.70140838623047 L 87.02322387695312 18.70540618896484 C 87.58714294433594 19.11869812011719 88.11714172363281 19.50711822509766 88.11714172363281 19.50711822509766 C 89.23080444335938 20.32330322265625 89.47195434570312 21.88771820068359 88.65577697753906 23.00138092041016 C 87.839599609375 24.11503601074219 86.27517700195312 24.35617828369141 85.16151428222656 23.54002380371094 L 82.74177551269531 21.76663970947266 C 81.62812042236328 20.95047760009766 81.386962890625 19.38603973388672 82.20314025878906 18.27237701416016 C 82.69293212890625 17.60407257080078 83.45201873779297 17.24997711181641 84.22160339355469 17.25002288818359 Z M 96.3203125 26.11689758300781 C 96.83316040039062 26.11692810058594 97.35074615478516 26.27423095703125 97.79609680175781 26.60061645507812 C 97.79609680175781 26.60061645507812 100.2158355712891 28.37400054931641 100.2158355712891 28.37400054931641 C 101.3294982910156 29.19016265869141 101.5706634521484 30.75460052490234 100.7544784545898 31.86826324462891 C 99.93830108642578 32.98189544677734 98.37388610839844 33.22306060791016 97.26022338867188 32.40689849853516 L 94.84048461914062 30.63352203369141 C 93.72682189941406 29.81733703613281 93.48565673828125 28.25292205810547 94.30184173583984 27.13925933837891 C 94.7916259765625 26.47095489501953 95.55072021484375 26.11685180664062 96.3203125 26.11689758300781 Z M 108.4190063476562 34.98377990722656 C 108.9318542480469 34.98381042480469 109.4494476318359 35.14110565185547 109.8947982788086 35.46749877929688 C 109.8947982788086 35.46749877929688 111.6811065673828 36.77663421630859 112.1841583251953 37.14530181884766 L 112.1848602294922 37.14582061767578 C 112.189208984375 37.14900970458984 112.1934356689453 37.15210723876953 112.1975860595703 37.1551513671875 L 112.1982421875 37.15563201904297 C 112.1998443603516 37.15679931640625 112.2014617919922 37.15798950195312 112.2030334472656 37.15914154052734 L 112.3152618408203 37.24138641357422 C 113.42822265625 38.05773162841797 113.6691589355469 39.62174987792969 112.8531799316406 40.73512268066406 C 112.036994934082 41.84877777099609 110.4725799560547 42.08993530273438 109.3589172363281 41.27375793457031 L 106.9391784667969 39.50039672851562 C 105.8255157470703 38.68421936035156 105.584358215332 37.11978149414062 106.4005432128906 36.00611877441406 C 106.8903274536133 35.33782958984375 107.6494140625 34.98372650146484 108.4190063476562 34.98377990722656 Z M 118.2407989501953 43.53901672363281 L 119.6678466796875 43.99868011474609 C 120.4237747192383 43.72700500488281 121.2968597412109 43.82379913330078 121.9934997558594 44.33435821533203 C 121.9934997558594 44.33435821533203 123 45.07199859619141 123 45.07199859619141 L 123 45.07199859619141 C 123 45.07199859619141 123 45.07199859619141 123 45.07199859619141 C 123 45.07199859619141 123 45.07199859619141 123 45.07199859619141 L 123 45.07199859619141 C 123 45.07199859619141 123 45.07199859619141 123 45.07199859619141 L 123 45.07199859619141 C 123 45.07199859619141 123 45.07199859619141 123 45.07199859619141 L 123 45.07199859619141 C 123 45.07199859619141 122.9987869262695 45.07575225830078 122.9964981079102 45.0828857421875 L 122.9963912963867 45.08320617675781 C 122.9956893920898 45.08538055419922 122.9948959350586 45.08786010742188 122.9940032958984 45.09062957763672 L 122.9939117431641 45.09089660644531 C 122.9938125610352 45.09121704101562 122.9936981201172 45.09156036376953 122.9935913085938 45.09188842773438 L 122.9935913085938 45.09189605712891 C 122.9924697875977 45.09536743164062 122.9912109375 45.09928131103516 122.9898223876953 45.10359954833984 L 122.9897003173828 45.10398101806641 C 122.9893951416016 45.10491943359375 122.9890975952148 45.1058349609375 122.9887847900391 45.1068115234375 L 122.9887771606445 45.10684967041016 C 122.9883193969727 45.10825347900391 122.9878540039062 45.10971069335938 122.9873733520508 45.11119842529297 L 122.9865188598633 45.11386108398438 C 122.9860229492188 45.11539459228516 122.9855270385742 45.11693572998047 122.9850082397461 45.11854553222656 L 122.9818267822266 45.12841796875 C 122.981819152832 45.12844085693359 122.9818115234375 45.12847900390625 122.981803894043 45.12849426269531 L 122.9807205200195 45.13184356689453 C 122.9805221557617 45.13246154785156 122.9803314208984 45.133056640625 122.9801330566406 45.13368225097656 L 122.4618835449219 46.74258422851562 C 122.1695022583008 47.64663696289062 121.4106216430664 48.27004241943359 120.5374298095703 48.43214416503906 L 120.0443801879883 49.10489654541016 L 119.0378799438477 48.36726379394531 C 118.9007110595703 48.26673126220703 118.7767791748047 48.15485382080078 118.6664276123047 48.03385925292969 C 117.779167175293 47.42434692382812 117.3566589355469 46.28387451171875 117.7035980224609 45.20677947998047 L 118.2407989501953 43.53901672363281 Z M 116.4034652709961 54.8946647644043 C 116.6574478149414 54.8946647644043 116.9157638549805 54.93368148803711 117.1705169677734 55.01573944091797 C 118.4836196899414 55.43869781494141 119.2057113647461 56.84519195556641 118.7847061157227 58.15845108032227 L 118.5602645874023 58.85523223876953 C 118.5597763061523 58.85675048828125 118.5593032836914 58.85823059082031 118.5588150024414 58.8597526550293 L 118.5529556274414 58.87794494628906 C 118.5526580810547 58.87886428833008 118.5523300170898 58.87987518310547 118.5520324707031 58.88079452514648 L 118.5514144897461 58.88270950317383 C 118.2789306640625 59.72863006591797 117.8638229370117 61.01734161376953 117.8638229370117 61.01734161376953 C 117.4404983520508 62.33155822753906 116.0319366455078 63.05377960205078 114.7177429199219 62.63045883178711 C 113.4035186767578 62.20711898803711 112.6812973022461 60.79858016967773 113.1046371459961 59.48435974121094 L 114.0244216918945 56.62884140014648 C 114.3656768798828 55.56937789916992 115.3472213745117 54.89466094970703 116.4034652709961 54.8946647644043 Z M 111.8045043945312 69.1722412109375 C 112.0584869384766 69.1722412109375 112.3167877197266 69.21125793457031 112.5715408325195 69.29331970214844 C 113.8835906982422 69.7159423828125 114.605598449707 71.12055969238281 114.1867446899414 72.43292236328125 L 113.2637023925781 75.29850769042969 C 112.8389739990234 76.61044311523438 111.4317626953125 77.33097839355469 110.1187591552734 76.90803527832031 C 108.8045425415039 76.48471832275391 108.0823364257812 75.07615661621094 108.5056610107422 73.76194000244141 L 109.4254608154297 70.90641784667969 C 109.7667236328125 69.84696960449219 110.7482681274414 69.1722412109375 111.8045043945312 69.1722412109375 Z M 107.2055053710938 83.44983673095703 C 107.4594955444336 83.44984436035156 107.7178192138672 83.48886108398438 107.9725799560547 83.5709228515625 C 109.2868041992188 83.99423980712891 110.0090026855469 85.40277862548828 109.5856781005859 86.71699523925781 C 109.5856781005859 86.71699523925781 108.6658782958984 89.57251739501953 108.6658782958984 89.57251739501953 C 108.242561340332 90.88674163818359 106.8340225219727 91.60894012451172 105.5197982788086 91.18562316894531 C 104.2055816650391 90.76229858398438 103.4833602905273 89.35374450683594 103.9067001342773 88.03953552246094 L 104.8264770507812 85.18402099609375 C 105.1677398681641 84.12455749511719 106.1492614746094 83.4498291015625 107.2055053710938 83.44983673095703 Z M 102.6065521240234 97.72742462158203 C 102.8605346679688 97.72742462158203 103.1188430786133 97.76644134521484 103.3735961914062 97.84849548339844 C 104.6854934692383 98.27107238769531 105.4074630737305 99.67545318603516 104.9889373779297 100.9876708984375 L 104.1035919189453 103.7362594604492 C 104.1035537719727 103.7363739013672 104.103515625 103.7365036010742 104.1034774780273 103.7366104125977 L 104.1012191772461 103.7436218261719 C 104.100700378418 103.745231628418 104.1001892089844 103.7468185424805 104.0996780395508 103.7483978271484 L 104.0996322631836 103.74853515625 C 104.098991394043 103.7505340576172 104.0983581542969 103.7525100708008 104.0977325439453 103.7544479370117 L 104.0973434448242 103.7556457519531 C 104.0778503417969 103.8161773681641 104.0669174194336 103.85009765625 104.0669174194336 103.85009765625 C 103.6436004638672 105.1643218994141 102.2350387573242 105.8865432739258 100.9208221435547 105.4632186889648 C 99.60659790039062 105.0398788452148 98.8843994140625 103.6313400268555 99.30772399902344 102.3171234130859 L 100.2275238037109 99.46160125732422 C 100.5687789916992 98.40213775634766 101.5503158569336 97.7274169921875 102.6065521240234 97.72742462158203 Z M 98.00759887695312 112.0050048828125 C 98.26158142089844 112.0050048828125 98.51988220214844 112.0440216064453 98.77464294433594 112.1260833740234 C 100.0888595581055 112.5494003295898 100.8110580444336 113.9579620361328 100.3877410888672 115.2721786499023 C 100.3877410888672 115.2721786499023 99.50907897949219 118 99.50907897949219 118 L 99.50907897949219 118 C 99.50907897949219 118 99.37492370605469 118 99.37492370605469 118 C 98.78544616699219 118 98.24363708496094 117.7959976196289 97.81621551513672 117.4547119140625 L 94.7498779296875 116.4670181274414 L 95.6285400390625 113.7391815185547 C 95.96981811523438 112.6797332763672 96.95135498046875 112.0050048828125 98.00759887695312 112.0050048828125 Z M 84.37492370605469 113 L 87.37492370605469 113 C 88.75563812255859 113 89.87492370605469 114.1192779541016 89.87492370605469 115.5 C 89.87492370605469 116.8807220458984 88.75563812255859 118 87.37492370605469 118 C 87.37492370605469 118 84.37492370605469 118 84.37492370605469 118 C 82.99421691894531 118 81.87492370605469 116.8807220458984 81.87492370605469 115.5 C 81.87492370605469 114.1192779541016 82.99421691894531 113 84.37492370605469 113 Z M 69.37492370605469 113 L 72.37492370605469 113 C 73.75563812255859 113 74.87492370605469 114.1192779541016 74.87492370605469 115.5 C 74.87492370605469 116.8807220458984 73.75563812255859 118 72.37492370605469 118 C 72.37492370605469 118 69.37492370605469 118 69.37492370605469 118 C 67.99421691894531 118 66.87492370605469 116.8807220458984 66.87492370605469 115.5 C 66.87492370605469 114.1192779541016 67.99421691894531 113 69.37492370605469 113 Z M 54.37492370605469 113 L 57.37492370605469 113 C 58.75563812255859 113 59.87491989135742 114.1192779541016 59.87491989135742 115.5 C 59.87491989135742 116.8807220458984 58.75563812255859 118 57.37492370605469 118 C 57.37492370605469 118 54.37492370605469 118 54.37492370605469 118 C 52.99421691894531 118 51.87492370605469 116.8807220458984 51.87492370605469 115.5 C 51.87492370605469 114.1192779541016 52.99421691894531 113 54.37492370605469 113 Z M 39.37492370605469 113 L 42.37492370605469 113 C 43.75563812255859 113 44.87492370605469 114.1192779541016 44.87492370605469 115.5 C 44.87492370605469 116.8807220458984 43.75563812255859 118 42.37492370605469 118 C 42.37492370605469 118 39.37492370605469 118 39.37492370605469 118 C 37.99421691894531 118 36.87492370605469 116.8807220458984 36.87492370605469 115.5 C 36.87492370605469 114.1192779541016 37.99421691894531 113 39.37492370605469 113 Z M 24.37492370605469 113 L 27.37492370605469 113 C 28.75563812255859 113 29.87492370605469 114.1192779541016 29.87492370605469 115.5 C 29.87492370605469 116.8807220458984 28.75563812255859 118 27.37492370605469 118 C 27.37492370605469 118 24.37492370605469 118 24.37492370605469 118 C 24.04120635986328 118 23.72268676757812 117.9345779418945 23.43162536621094 117.81591796875 L 22.25738525390625 114.1704635620117 C 22.69982147216797 113.4673233032227 23.48282623291016 113 24.37492370605469 113 Z M 21.54315185546875 101.2966766357422 C 22.59930419921875 101.2967681884766 23.58094787597656 101.9714813232422 23.92218017578125 103.0308609008789 L 24.84197998046875 105.8863830566406 C 25.26529693603516 107.2005767822266 24.54308319091797 108.6091384887695 23.2288818359375 109.0324630737305 C 21.91464996337891 109.4557876586914 20.50608825683594 108.7335739135742 20.08277893066406 107.4193572998047 C 20.08277893066406 107.4193572998047 19.9134521484375 106.8936767578125 19.72008514404297 106.2933807373047 L 19.71848297119141 106.2883987426758 C 19.71713256835938 106.2842102050781 19.71578979492188 106.2800369262695 19.71443939208984 106.2758407592773 L 19.16178894042969 104.5601196289062 C 18.74095153808594 103.2469329833984 19.46308135986328 101.840690612793 20.77607727050781 101.4177627563477 C 21.03092193603516 101.3356704711914 21.28908538818359 101.2966537475586 21.54315185546875 101.2966766357422 Z M 16.94416809082031 87.01908874511719 C 18.00031280517578 87.01918792724609 18.98197174072266 87.69389343261719 19.32321929931641 88.75325775146484 L 20.24299621582031 91.60877990722656 C 20.66632080078125 92.92300415039062 19.94412231445312 94.33155822753906 18.62989807128906 94.7548828125 C 17.31793975830078 95.17747497558594 15.91192626953125 94.4583740234375 15.48595428466797 93.14842224121094 L 14.83155822753906 91.11683654785156 C 14.83139801025391 91.11635589599609 14.83123779296875 91.1158447265625 14.83107757568359 91.11537170410156 L 14.82943725585938 91.11026763916016 C 14.82815551757812 91.10627746582031 14.82685089111328 91.10222625732422 14.82556915283203 91.09825134277344 L 14.82476043701172 91.09574890136719 C 14.67752075195312 90.63862609863281 14.56401824951172 90.28626251220703 14.56401824951172 90.28626251220703 C 14.14070129394531 88.97203826904297 14.86289978027344 87.5634765625 16.17711639404297 87.14015960693359 C 16.43196105957031 87.05807495117188 16.69010162353516 87.01905822753906 16.94416809082031 87.01908874511719 Z M 12.34519958496094 72.74150085449219 C 13.40135192871094 72.74160766601562 14.38300323486328 73.41629791259766 14.7242431640625 74.47567749023438 L 15.64404296875 77.33119964599609 C 16.06735992431641 78.64541625976562 15.34513854980469 80.053955078125 14.03093719482422 80.477294921875 C 12.71675872802734 80.900634765625 11.30815887451172 80.17839813232422 10.88484191894531 78.86418151855469 C 10.88484191894531 78.86418151855469 10.77667999267578 78.52840423583984 10.63451385498047 78.08705139160156 L 10.63216400146484 78.07975769042969 C 10.63120269775391 78.07676696777344 10.63018798828125 78.07362365722656 10.62922668457031 78.07062530517578 L 9.963157653808594 76.00282287597656 C 9.543807983398438 74.69024658203125 10.26586151123047 73.2852783203125 11.57814025878906 72.86257934570312 C 11.83297729492188 72.78049468994141 12.09113311767578 72.74148559570312 12.34519958496094 72.74150085449219 Z M 7.746246337890625 58.46391677856445 C 8.802398681640625 58.46400833129883 9.784027099609375 59.13871765136719 10.12528228759766 60.19810104370117 L 11.04505920410156 63.05361938476562 C 11.4683837890625 64.36782073974609 10.74617767333984 65.77638244628906 9.431961059570312 66.19969940185547 C 8.119949340820312 66.62229919433594 6.713798522949219 65.90309143066406 6.287925720214844 64.59298706054688 L 5.695243835449219 62.75297927856445 C 5.516265869140625 62.19733047485352 5.366081237792969 61.7310791015625 5.366081237792969 61.7310791015625 C 4.942756652832031 60.4168586730957 5.664962768554688 59.00831985473633 6.979179382324219 58.58499908447266 C 7.234016418457031 58.50291061401367 7.4921875 58.46389389038086 7.746246337890625 58.46391677856445 Z M 3.147247314453125 44.18632507324219 C 4.203399658203125 44.18643188476562 5.185066223144531 44.86113739013672 5.526298522949219 45.92050170898438 L 6.446098327636719 48.77601623535156 C 6.869422912597656 50.09024047851562 6.147201538085938 51.49880218505859 4.833000183105469 51.922119140625 C 3.519386291503906 52.34525299072266 2.111434936523438 51.62386322021484 1.687446594238281 50.31070709228516 L 0.765350341796875 47.44804382324219 C 0.3458328247070312 46.13540649414062 1.067848205566406 44.73012542724609 2.380203247070312 44.30740356445312 C 2.635040283203125 44.22531127929688 2.8931884765625 44.18630218505859 3.147247314453125 44.18632507324219 Z M 11.55643463134766 37.20040130615234 C 12.32594299316406 37.20042419433594 13.08517456054688 37.55451965332031 13.57489776611328 38.22276306152344 C 14.39108276367188 39.33641815185547 14.14991760253906 40.90084075927734 13.03626251220703 41.71701812744141 L 10.61652374267578 43.49040222167969 C 9.50286865234375 44.30655670166016 7.938430786132812 44.06540679931641 7.122261047363281 42.95175933837891 C 6.306083679199219 41.83809661865234 6.5472412109375 40.27365875244141 7.660896301269531 39.45749664306641 C 7.660896301269531 39.45749664306641 9.78515625 37.90067291259766 10.05301666259766 37.70436096191406 L 10.05374145507812 37.70383453369141 C 10.06235504150391 37.69751739501953 10.06897735595703 37.69266510009766 10.07350921630859 37.68934631347656 L 10.07389068603516 37.68907165527344 C 10.07597351074219 37.68753814697266 10.07758331298828 37.68635559082031 10.07871246337891 37.68553161621094 L 10.07900238037109 37.68532562255859 C 10.07949066162109 37.68495941162109 10.07988739013672 37.68467712402344 10.08015441894531 37.68447875976562 L 10.08027648925781 37.68438720703125 C 10.08029937744141 37.68437194824219 10.080322265625 37.68435668945312 10.08033752441406 37.68434143066406 L 10.08057403564453 37.68417358398438 C 10.08057403564453 37.68416595458984 10.08058166503906 37.68416595458984 10.08058166503906 37.68416595458984 L 10.08074951171875 37.68403625488281 C 10.52613067626953 37.35769653320312 11.04358673095703 37.20037841796875 11.55643463134766 37.20040130615234 Z M 23.65514373779297 28.33352661132812 C 24.42465209960938 28.33354949951172 25.18387603759766 28.68764495849609 25.67359924316406 29.35588073730469 C 26.48977661132812 30.46954345703125 26.24861907958984 32.03398132324219 25.13495635986328 32.85014343261719 L 22.71521759033203 34.62351989746094 C 21.60157775878906 35.43968963623047 20.03713989257812 35.19853973388672 19.22096252441406 34.08487701416016 C 18.40534973144531 32.97196960449219 18.64559936523438 31.40891265869141 19.75733947753906 30.59227752685547 L 22.18359375 28.81413269042969 C 22.6280517578125 28.48982238769531 23.14385986328125 28.33351135253906 23.65514373779297 28.33352661132812 Z M 35.75383758544922 19.46665954589844 C 36.52334594726562 19.46668243408203 37.28257751464844 19.82078552246094 37.77230072021484 20.48902130126953 C 38.58847808837891 21.6026611328125 38.34732055664062 23.16709899902344 37.23365783691406 23.9832763671875 L 34.81391906738281 25.75663757324219 C 33.70027923583984 26.57283020019531 32.13583374023438 26.33165740966797 31.31965637207031 25.218017578125 C 30.50479888916016 24.10612487792969 30.74396514892578 22.54482269287109 31.85309600830078 21.72756958007812 L 33.68238830566406 20.38691711425781 C 33.68445587158203 20.38540649414062 33.68654632568359 20.38386535644531 33.68860626220703 20.38235473632812 L 33.70584869384766 20.36972808837891 C 33.70890808105469 20.36747741699219 33.71204376220703 20.36518096923828 33.71509552001953 20.36294555664062 L 33.71849822998047 20.36045837402344 C 34.04252624511719 20.12297821044922 34.27803802490234 19.95037841796875 34.27803802490234 19.95037841796875 C 34.72346496582031 19.62393951416016 35.24090576171875 19.46663665771484 35.75383758544922 19.46665954589844 Z M 47.8525390625 10.59977722167969 C 48.62204742431641 10.59980773925781 49.38127136230469 10.95390319824219 49.87100219726562 11.62213897705078 C 50.68717956542969 12.73580169677734 50.44602203369141 14.30021667480469 49.33235931396484 15.11640167236328 L 46.91262054443359 16.88977813720703 C 45.79895782470703 17.70594024658203 44.23453521728516 17.46479034423828 43.41835784912109 16.35114288330078 C 42.60220336914062 15.23748016357422 42.84336090087891 13.67304229736328 43.95700073242188 12.85688018798828 C 43.95700073242188 12.85688018798828 44.07205200195312 12.77256011962891 44.25202178955078 12.64067077636719 L 44.255126953125 12.63838958740234 C 44.26094055175781 12.63413238525391 44.26671600341797 12.62989044189453 44.27266693115234 12.62553405761719 L 44.27389526367188 12.6246337890625 C 44.27695465087891 12.62239074707031 44.28012847900391 12.62006378173828 44.28322601318359 12.6177978515625 L 44.28355407714844 12.6175537109375 C 44.28501892089844 12.61647796630859 44.28639221191406 12.615478515625 44.28786468505859 12.61439514160156 L 44.30543518066406 12.60151672363281 C 44.30612945556641 12.60100555419922 44.30685424804688 12.60047912597656 44.30754852294922 12.59996795654297 L 46.37937927246094 11.08157348632812 C 46.82420349121094 10.75644683837891 47.34062957763672 10.59976196289062 47.8525390625 10.59977722167969 Z" stroke="none" fill="#ccf9fe"/>
    </g>
    <path id="패스_12279" data-name="패스 12279" d="M158.931,203.488a29.652,29.652,0,0,1-29.619-29.618V88.791a7.618,7.618,0,0,0-15.237,0v60.333a29.618,29.618,0,0,1-59.237,0v-26.18l.1-.747c.077-.8.01-4-1.549-5.723-1.753-1.939-5.768-2.228-8-2.228H20a11,11,0,1,1,0-22H45.388c13.283,0,20.729,5.344,24.637,9.826,7.3,8.369,7.1,18.828,6.814,22.171v24.881a7.618,7.618,0,0,0,15.237,0V88.791a29.618,29.618,0,0,1,59.237,0V173.87a7.618,7.618,0,0,0,15.237,0V38.619a29.618,29.618,0,0,1,59.237,0l.02,114.065a7.618,7.618,0,1,0,15.236,0L241,67.743a29.618,29.618,0,1,1,59.236-.005v38.068l-.051.528c-.043.842.218,3.388,1.4,4.639,1.3,1.372,4.269,1.577,5.926,1.577H340.99a11,11,0,1,1,0,22H307.513c-11.766,0-18.6-4.8-22.255-8.832-7.13-7.852-7.175-17.89-7.02-20.8V67.738a7.618,7.618,0,1,0-15.236,0l.039,84.942a29.618,29.618,0,1,1-59.236.005l-.02-114.065a7.618,7.618,0,1,0-15.237,0V173.87A29.652,29.652,0,0,1,158.931,203.488Z" transform="translate(162.68 709.999)" fill="#ccf9fe"/>
    <path id="패스_12363" data-name="패스 12363" d="M0,0H76V129H0Z" transform="translate(318.648 707)" fill="url(#linear-gradient-2)"/>
    <path id="패스_12364" data-name="패스 12364" d="M0,0H34V108H0Z" transform="translate(322.648 819)" fill="#b7e2ff"/>
    <path id="패스_12365" data-name="패스 12365" d="M0,0H67V68H0Z" transform="translate(436.648 791)" fill="#abf6fe"/>
    <path id="패스_12279-2" data-name="패스 12279" d="M158.931,203.488a29.652,29.652,0,0,1-29.619-29.618V88.791a7.618,7.618,0,0,0-15.237,0v60.333a29.618,29.618,0,0,1-59.237,0v-26.18l.1-.747c.077-.8.01-4-1.549-5.723-1.753-1.939-5.768-2.228-8-2.228H20a11,11,0,1,1,0-22H45.388c13.283,0,20.729,5.344,24.637,9.826,7.3,8.369,7.1,18.828,6.814,22.171v24.881a7.618,7.618,0,0,0,15.237,0V88.791a29.618,29.618,0,0,1,59.237,0V173.87a7.618,7.618,0,0,0,15.237,0V38.619a29.618,29.618,0,0,1,59.237,0l.02,114.065a7.618,7.618,0,1,0,15.236,0L241,67.743a29.618,29.618,0,1,1,59.236-.005v38.068l-.051.528c-.043.842.218,3.388,1.4,4.639,1.3,1.372,4.269,1.577,5.926,1.577H340.99a11,11,0,1,1,0,22H307.513c-11.766,0-18.6-4.8-22.255-8.832-7.13-7.852-7.175-17.89-7.02-20.8V67.738a7.618,7.618,0,1,0-15.236,0l.039,84.942a29.618,29.618,0,1,1-59.236.005l-.02-114.065a7.618,7.618,0,1,0-15.237,0V173.87A29.652,29.652,0,0,1,158.931,203.488Z" transform="translate(162.68 709.999)" fill="#ccf9fe"/>
    <path id="패스_12366" data-name="패스 12366" d="M11,0A11,11,0,1,1,0,11,11,11,0,0,1,11,0Z" transform="translate(329.348 810.2)" fill="#6ee6d0"/>
    <path id="패스_12367" data-name="패스 12367" d="M11,0A11,11,0,1,1,0,11,11,11,0,0,1,11,0Z" transform="translate(440.949 781)" fill="#89ecf6"/>
    <path id="패스_12368" data-name="패스 12368" d="M11,0A11,11,0,1,1,0,11,11,11,0,0,1,11,0Z" transform="translate(273.949 769.5)" fill="#abf6fe"/>
    <path id="패스_12376" data-name="패스 12376" d="M11,0A11,11,0,1,1,0,11,11,11,0,0,1,11,0Z" transform="translate(171.949 802.2)" fill="#abf6fe"/>
    <g id="패스_12369" data-name="패스 12369" transform="translate(481.648 675)" fill="#fff">
      <path d="M 146 274 L 30 274 C 26.21914291381836 274 22.55242919921875 273.2599792480469 19.10174942016602 271.8004150390625 C 15.76778602600098 270.3902893066406 12.77314281463623 268.37109375 10.20100021362305 265.7990112304688 C 7.62889289855957 263.2268676757812 5.609714508056641 260.2322082519531 4.19957160949707 256.8982543945312 C 2.740035772323608 253.4475708007812 2 249.7808532714844 2 246 L 2 30 C 2 26.21914291381836 2.740035772323608 22.55242919921875 4.19957160949707 19.10174942016602 C 5.609714508056641 15.76778602600098 7.62889289855957 12.77314281463623 10.20100021362305 10.20100021362305 C 12.77314281463623 7.62889289855957 15.76778602600098 5.609714508056641 19.10174942016602 4.19957160949707 C 22.55242919921875 2.740035772323608 26.21914291381836 2 30 2 L 146 2 C 149.7808532714844 2 153.4475708007812 2.740035772323608 156.8982543945312 4.19957160949707 C 160.2322082519531 5.609714508056641 163.2268524169922 7.62889289855957 165.7989959716797 10.20100021362305 C 168.3711090087891 12.77314281463623 170.3902893066406 15.76778602600098 171.8004302978516 19.10174942016602 C 173.2599639892578 22.55242919921875 174 26.21914291381836 174 30 L 174 246 C 174 249.7808532714844 173.2599639892578 253.4475708007812 171.8004302978516 256.8982543945312 C 170.3902893066406 260.2322082519531 168.3711090087891 263.2268676757812 165.7989959716797 265.7990112304688 C 163.2268524169922 268.37109375 160.2322082519531 270.3902893066406 156.8982543945312 271.8004150390625 C 153.4475708007812 273.2599792480469 149.7808532714844 274 146 274 Z" stroke="none"/>
      <path d="M 30 4 C 26.48826599121094 4 23.08369445800781 4.6868896484375 19.88084411621094 6.04156494140625 C 16.78526306152344 7.35089111328125 14.00430297851562 9.226165771484375 11.615234375 11.615234375 C 9.226150512695312 14.00430297851562 7.35089111328125 16.7852783203125 6.041580200195312 19.880859375 C 4.6868896484375 23.08369445800781 4 26.48826599121094 4 30 L 4 246 C 4 249.5117340087891 4.6868896484375 252.9163055419922 6.041580200195312 256.119140625 C 7.35089111328125 259.2147216796875 9.226150512695312 261.9956970214844 11.615234375 264.384765625 C 14.00430297851562 266.7738342285156 16.78526306152344 268.6491088867188 19.88084411621094 269.9584350585938 C 23.08369445800781 271.3131103515625 26.48826599121094 272 30 272 L 146 272 C 149.5117340087891 272 152.9163055419922 271.3131103515625 156.1191558837891 269.9584350585938 C 159.2147369384766 268.6491088867188 161.9956970214844 266.7738342285156 164.384765625 264.384765625 C 166.7738494873047 261.9956970214844 168.6491088867188 259.2147216796875 169.9584197998047 256.119140625 C 171.3131103515625 252.9163055419922 172 249.5117340087891 172 246 L 172 30 C 172 26.48826599121094 171.3131103515625 23.08369445800781 169.9584197998047 19.880859375 C 168.6491088867188 16.7852783203125 166.7738494873047 14.00430297851562 164.384765625 11.615234375 C 161.9956970214844 9.226165771484375 159.2147369384766 7.35089111328125 156.1191558837891 6.04156494140625 C 152.9163055419922 4.6868896484375 149.5117340087891 4 146 4 L 30 4 M 30 0 L 146 0 C 162.5685424804688 0 176 13.43145751953125 176 30 L 176 246 C 176 262.5685424804688 162.5685424804688 276 146 276 L 30 276 C 13.43145751953125 276 0 262.5685424804688 0 246 L 0 30 C 0 13.43145751953125 13.43145751953125 0 30 0 Z" stroke="none" fill="#00c3e1"/>
    </g>
    <path id="패스_12381" data-name="패스 12381" d="M2.5,0h25a2.5,2.5,0,0,1,0,5H2.5a2.5,2.5,0,0,1,0-5Z" transform="translate(554.648 696)" fill="#00c3e1"/>
    <g id="input_box" data-name="input box" transform="translate(605.648 806)" fill="#fff">
      <path d="M 27 33 L 1 33 L 1 1 L 27 1 L 27 33 Z" stroke="none"/>
      <path d="M 2 2 L 2 32 L 26 32 L 26 2 L 2 2 M 0 0 L 28 0 L 28 34 L 0 34 L 0 0 Z" stroke="none" fill="#ffb300"/>
    </g>
    <path id="패스_12370" data-name="패스 12370" d="M10.791-18.205V-6.183h2.336v1.9H10.791V0H8.734V-4.278H.178v-1.8Q1.371-7.427,2.59-8.957t2.33-3.1Q6.03-13.635,6.976-15.2a28.716,28.716,0,0,0,1.593-3ZM2.526-6.183H8.734v-8.912q-.952,1.663-1.8,2.971T5.313-9.75Q4.545-8.684,3.847-7.82T2.526-6.183Z" transform="translate(506.648 831.001)" fill="#323c46"/>
    <path id="패스_12371" data-name="패스 12371" d="M10.791-18.205V-6.183h2.336v1.9H10.791V0H8.734V-4.278H.178v-1.8Q1.371-7.427,2.59-8.957t2.33-3.1Q6.03-13.635,6.976-15.2a28.716,28.716,0,0,0,1.593-3ZM2.526-6.183H8.734v-8.912q-.952,1.663-1.8,2.971T5.313-9.75Q4.545-8.684,3.847-7.82T2.526-6.183Z" transform="translate(556.648 831.001)" fill="#323c46"/>
    <path id="패스_12372" data-name="패스 12372" d="M1.143-5.078a4.844,4.844,0,0,1,.229-1.454A5.265,5.265,0,0,1,2.025-7.9,5.411,5.411,0,0,1,3.079-9.052a5.024,5.024,0,0,1,1.428-.825,5.4,5.4,0,0,1-1.879-1.695,4.008,4.008,0,0,1-.7-2.292,4.42,4.42,0,0,1,.387-1.854A4.465,4.465,0,0,1,3.39-17.189a4.959,4.959,0,0,1,1.625-.971,5.786,5.786,0,0,1,2.031-.349,5.73,5.73,0,0,1,2.044.355,5.047,5.047,0,0,1,1.625.978A4.388,4.388,0,0,1,11.781-15.7a4.452,4.452,0,0,1,.381,1.841,4.008,4.008,0,0,1-.7,2.292A5.465,5.465,0,0,1,9.61-9.877a4.978,4.978,0,0,1,1.409.825A5.49,5.49,0,0,1,12.067-7.9a5.265,5.265,0,0,1,.654,1.365,4.844,4.844,0,0,1,.229,1.454,5.407,5.407,0,0,1-.432,2.184A4.879,4.879,0,0,1,11.305-1.2,5.6,5.6,0,0,1,9.439-.1,6.976,6.976,0,0,1,7.046.292,6.883,6.883,0,0,1,4.672-.1,5.683,5.683,0,0,1,2.806-1.2,4.912,4.912,0,0,1,1.581-2.895,5.339,5.339,0,0,1,1.143-5.078ZM3.4-5.256a4.3,4.3,0,0,0,.26,1.536A3.312,3.312,0,0,0,4.4-2.552a3.214,3.214,0,0,0,1.155.743,4.174,4.174,0,0,0,1.5.26,3.963,3.963,0,0,0,1.473-.267,3.432,3.432,0,0,0,1.162-.749,3.368,3.368,0,0,0,.762-1.168,4.085,4.085,0,0,0,.273-1.523,3.892,3.892,0,0,0-.26-1.428,3.575,3.575,0,0,0-.743-1.174,3.489,3.489,0,0,0-1.155-.8A3.758,3.758,0,0,0,7.059-8.95,3.8,3.8,0,0,0,5.6-8.677a3.478,3.478,0,0,0-1.155.762,3.528,3.528,0,0,0-.768,1.168A3.885,3.885,0,0,0,3.4-5.256ZM4.05-13.7a3.034,3.034,0,0,0,.235,1.2,3.023,3.023,0,0,0,.647.965,3.042,3.042,0,0,0,.958.647,2.924,2.924,0,0,0,1.168.235,2.9,2.9,0,0,0,1.174-.241,3.034,3.034,0,0,0,.958-.654,3.168,3.168,0,0,0,.647-.965A2.933,2.933,0,0,0,10.08-13.7a3.113,3.113,0,0,0-.235-1.219,2.983,2.983,0,0,0-.641-.965,3,3,0,0,0-.958-.641,3,3,0,0,0-1.187-.235,3.029,3.029,0,0,0-1.225.241,2.96,2.96,0,0,0-.952.654,2.859,2.859,0,0,0-.616.971A3.282,3.282,0,0,0,4.05-13.7Z" transform="translate(612.648 830.001)" fill="#323c46"/>
    <path id="패스_12373" data-name="패스 12373" d="M16.023-7.246H10.5v5.51H8.682v-5.51H3.172V-9.078h5.51v-5.51H10.5v5.51h5.523Z" transform="translate(527.648 830)" fill="#323c46"/>
    <path id="패스_12374" data-name="패스 12374" d="M16.023-10.172H3.172v-1.8H16.023Zm0,5.824H3.172v-1.8H16.023Z" transform="translate(577.649 830)" fill="#323c46"/>
    <path id="패스_12375" data-name="패스 12375" d="M0,0H145V74H0Z" transform="translate(498.648 793)" fill="#fff" opacity="0.7"/>
    <path id="패스_12377" data-name="패스 12377" d="M23.5,0h170a23.5,23.5,0,0,1,0,47H23.5a23.5,23.5,0,0,1,0-47Z" transform="translate(407.648 730)" fill="#e2e2e2"/>
    <path id="패스_12378" data-name="패스 12378" d="M23.5,0h133a23.5,23.5,0,0,1,0,47H23.5a23.5,23.5,0,0,1,0-47Z" transform="translate(407.648 730)" fill="#00b996"/>
    <path id="패스_12379" data-name="패스 12379" d="M-51.52-16.7h-2.66V-3.38h2.66Zm-3.82,9.02a5.734,5.734,0,0,1-4.32-5.4v-.22h3.64v-2.08H-66.04v2.08h3.7v.22a5.888,5.888,0,0,1-4.4,5.68l1.34,2.06a7.2,7.2,0,0,0,4.44-3.92,7.06,7.06,0,0,0,4.28,3.6ZM-61.14-.7V-4.58h-2.64V1.4h12.72V-.7ZM-38.5-9.06a33.371,33.371,0,0,1-7.1.56v-4.64h5.62v-2.1h-8.24v8.86h1.54a37.19,37.19,0,0,0,8.44-.6Zm-5.16,4.28H-46.3V1.4h12.54V-.7h-9.9Zm9.24-6.9V-16.7h-2.64V-3.38h2.64V-9.52h2.44v-2.16Zm13.4-.58v2.14h2.76v4.38h2.64V-16.7h-2.64v4.44Zm1.1,3.96a5.649,5.649,0,0,1-4.16-5.18h3.58V-15.6h-9.9v2.12h3.62a6.135,6.135,0,0,1-4.34,5.66l1.34,2.08a7.193,7.193,0,0,0,4.4-4.08A6.961,6.961,0,0,0-21.2-6.24ZM-21.84-.26c-2.42,0-3.68-.5-3.68-1.54s1.26-1.54,3.68-1.54c2.4,0,3.66.5,3.66,1.54S-19.44-.26-21.84-.26Zm0-5.08c-3.92,0-6.32,1.3-6.32,3.54s2.4,3.54,6.32,3.54c3.9,0,6.3-1.3,6.3-3.54S-17.94-5.34-21.84-5.34Zm19.42-10h-3.9v-1.52H-8.96v1.52h-3.92v1.88H-2.42Zm-7.22,5.06c0-.68.76-1.02,2-1.02s1.98.34,1.98,1.02S-6.4-9.24-7.64-9.24-9.64-9.6-9.64-10.28Zm7.68,3.26c-1.4.16-2.86.28-4.36.34v-.94c1.96-.3,3.16-1.26,3.16-2.66,0-1.68-1.76-2.72-4.48-2.72s-4.5,1.04-4.5,2.72c0,1.4,1.22,2.36,3.18,2.66v1.04c-1.56.04-3.06.04-4.38.04l.28,2.02a66.851,66.851,0,0,0,11.3-.72ZM-11-1.38h9.84V1.74H1.48V-3.42H-11ZM3.8-11.42H1.48V-16.7H-1.16V-4.14H1.48V-9.26H3.8Zm10.62,8.9V-6.36h5.26V-8.48H9.38v-4.84H19.54v-2.12H6.72v9.08h5.06v3.84h-7V-.36H21.46V-2.52Zm14.94-7.62c0-1.82.9-2.72,2-2.72,1.26,0,2.28,1,2.54,3.68a2.907,2.907,0,0,1-2.44,1.6C30.18-7.58,29.36-8.4,29.36-10.14ZM30.96.28c2.94,0,5.68-2.42,5.68-8.02,0-5.14-2.52-7.34-5.32-7.34a4.639,4.639,0,0,0-4.66,4.94c0,3.14,1.78,4.66,4.24,4.66a4.157,4.157,0,0,0,3.04-1.6c-.14,3.7-1.5,4.96-3.16,4.96a3.284,3.284,0,0,1-2.32-1.06L26.9-1.4A5.551,5.551,0,0,0,30.96.28Zm11.7,0a5,5,0,0,0,5.18-5.2c0-3.22-2.08-4.7-4.56-4.7a3.887,3.887,0,0,0-1.78.42l.28-3.14h5.38v-2.48H39.24l-.4,7.2,1.34.88a3.541,3.541,0,0,1,2.22-.78,2.4,2.4,0,0,1,2.5,2.68,2.485,2.485,0,0,1-2.62,2.72,4.6,4.6,0,0,1-3.26-1.5L37.66-1.74A6.745,6.745,0,0,0,42.66.28Zm10-5.98c2.12,0,3.62-1.74,3.62-4.72,0-2.96-1.5-4.66-3.62-4.66s-3.6,1.7-3.6,4.66C49.06-7.44,50.54-5.7,52.66-5.7Zm0-1.66c-.86,0-1.52-.88-1.52-3.06s.66-3,1.52-3,1.54.82,1.54,3S53.52-7.36,52.66-7.36Zm.5,7.64H54.9l8.04-15.36H61.2Zm10.26,0c2.1,0,3.62-1.76,3.62-4.72,0-2.98-1.52-4.68-3.62-4.68s-3.6,1.7-3.6,4.68C59.82-1.48,61.32.28,63.42.28Zm0-1.68c-.86,0-1.52-.86-1.52-3.04s.66-3.02,1.52-3.02,1.54.84,1.54,3.02S64.28-1.4,63.42-1.4Z" transform="translate(498.648 761)" fill="#fff"/>
    <g id="패스_12383" data-name="패스 12383" transform="matrix(0.891, 0.454, -0.454, 0.891, 295.015, 581.432)" fill="none">
      <path d="M39.5,0,79,68H0Z" stroke="none"/>
      <path d="M 39.5 9.954421997070312 L 8.686759948730469 63 L 70.31324005126953 63 L 39.5 9.954421997070312 M 39.5 0 L 79 68 L 0 68 L 39.5 0 Z" stroke="none" fill="#ccf9fe"/>
    </g>
    <path id="패스_12387" data-name="패스 12387" d="M8,0A8,8,0,1,1,0,8,8,8,0,0,1,8,0Z" transform="matrix(0.951, -0.309, 0.309, 0.951, 318.651, 597.907)" fill="#ccf9fe"/>
    <path id="패스_12382" data-name="패스 12382" d="M8,0A8,8,0,1,1,0,8,8,8,0,0,1,8,0Z" transform="matrix(0.951, -0.309, 0.309, 0.951, 321.285, 667.499)" fill="#ccf9fe"/>
    <path id="패스_12384" data-name="패스 12384" d="M8,0A8,8,0,1,1,0,8,8,8,0,0,1,8,0Z" transform="matrix(0.951, -0.309, 0.309, 0.951, 259.851, 636.99)" fill="#ccf9fe"/>
    <path id="area-2" data-name="area" d="M0,0H33V37H0Z" transform="translate(479.648 625)" fill="#fff" opacity="0"/>
    <g id="마스크_그룹_7332" data-name="마스크 그룹 7332" transform="translate(330.648 156)" clip-path="url(#clip-path)">
      <path id="모양_24" data-name="모양 24" d="M91.125,417.855s-10.125,25.87,18,40.492" transform="translate(66 40.898)" fill="none" stroke="#00dcff" stroke-linecap="round" stroke-width="12"/>
    </g>
    <path id="패스_12385" data-name="패스 12385" d="M42,0A42,42,0,1,1,0,42,42,42,0,0,1,42,0Z" transform="translate(446.648 553)" fill="#00dcff"/>
    <path id="패스_12386" data-name="패스 12386" d="M-14.835,0h13.35V-3.57h-4.17V-22.23h-3.27a13.849,13.849,0,0,1-5.16,1.89v2.73h4.02V-3.57h-4.77ZM8.475.42c4.53,0,7.5-3.96,7.5-11.61s-2.97-11.43-7.5-11.43S.945-18.87.945-11.19C.945-3.54,3.945.42,8.475.42Zm0-3.45c-1.92,0-3.36-1.92-3.36-8.16,0-6.21,1.44-8.01,3.36-8.01s3.33,1.8,3.33,8.01C11.805-4.95,10.4-3.03,8.475-3.03ZM-4.28,10.088h-5.84V7.912h5.84ZM-2.2,6.264h-10v5.488h10Zm-7.984,9.584H-12.3V20.12h10.32V18.44h-8.208Zm-3.664-2.928v1.664H-8.04V17.1h2.112V14.584H-.5V12.92ZM5.16,8.824H7.3V7.112H.744V8.824H3.112v.72c0,2.528-.768,5.168-2.912,6.528l1.248,1.552a6.84,6.84,0,0,0,2.7-3.952,6.155,6.155,0,0,0,2.624,3.6l1.232-1.536C5.88,14.488,5.16,12.008,5.16,9.544Zm2.992,1.84H6.28v1.712H8.152V19.7H10.12V5.88H8.152Zm2.976-5.04V20.36h2V5.624Z" transform="translate(488.648 597)" fill="#fff"/>
  </g>
</svg>
