<svg xmlns="http://www.w3.org/2000/svg" xmlns:xlink="http://www.w3.org/1999/xlink" width="583.908" height="556.373" viewBox="0 0 583.908 556.373"><defs><linearGradient id="a" x1="0.111" y1="0.263" x2="1.068" y2="0.666" gradientUnits="objectBoundingBox"><stop offset="0" stop-color="#eafdff"/><stop offset="0.589" stop-color="#ebfdff"/><stop offset="0.923" stop-color="#fff"/><stop offset="1" stop-color="#fff"/></linearGradient><clipPath id="b"><path d="M64,42.384A21.616,21.616,0,1,0,85.616,64,21.64,21.64,0,0,0,64,42.384M64,0A64,64,0,1,1,0,64,64,64,0,0,1,64,0Z" fill="#b3f4e8"/></clipPath></defs><g transform="translate(-131.746 -497)"><path d="M189,0H456V189c0,104.382-84.618,189-189,189H189C84.618,378,0,293.382,0,189S84.618,0,189,0Z" transform="translate(131.746 726.016) rotate(-30)" fill="url(#a)"/><path d="M0,0H537V500H0Z" transform="translate(153.647 497)" fill="#c4b2ff" opacity="0"/><g transform="translate(482.647 682)" fill="#fff"><path d="M 146 274 L 30 274 C 26.21914291381836 274 22.55242919921875 273.2599792480469 19.10174942016602 271.8004150390625 C 15.76778602600098 270.3902893066406 12.77314281463623 268.37109375 10.20100021362305 265.7990112304688 C 7.62889289855957 263.2268676757812 5.609714508056641 260.2322082519531 4.19957160949707 256.8982543945312 C 2.740035772323608 253.4475708007812 2 249.7808532714844 2 246 L 2 30 C 2 26.21914291381836 2.740035772323608 22.55242919921875 4.19957160949707 19.10174942016602 C 5.609714508056641 15.76778602600098 7.62889289855957 12.77314281463623 10.20100021362305 10.20100021362305 C 12.77314281463623 7.62889289855957 15.76778602600098 5.609714508056641 19.10174942016602 4.19957160949707 C 22.55242919921875 2.740035772323608 26.21914291381836 2 30 2 L 146 2 C 149.7808532714844 2 153.4475708007812 2.740035772323608 156.8982543945312 4.19957160949707 C 160.2322082519531 5.609714508056641 163.2268524169922 7.62889289855957 165.7989959716797 10.20100021362305 C 168.3711090087891 12.77314281463623 170.3902893066406 15.76778602600098 171.8004302978516 19.10174942016602 C 173.2599639892578 22.55242919921875 174 26.21914291381836 174 30 L 174 246 C 174 249.7808532714844 173.2599639892578 253.4475708007812 171.8004302978516 256.8982543945312 C 170.3902893066406 260.2322082519531 168.3711090087891 263.2268676757812 165.7989959716797 265.7990112304688 C 163.2268524169922 268.37109375 160.2322082519531 270.3902893066406 156.8982543945312 271.8004150390625 C 153.4475708007812 273.2599792480469 149.7808532714844 274 146 274 Z" stroke="none"/><path d="M 30 4 C 26.48826599121094 4 23.08369445800781 4.6868896484375 19.88084411621094 6.04156494140625 C 16.78526306152344 7.35089111328125 14.00430297851562 9.226165771484375 11.615234375 11.615234375 C 9.226150512695312 14.00430297851562 7.35089111328125 16.7852783203125 6.041580200195312 19.880859375 C 4.6868896484375 23.08369445800781 4 26.48826599121094 4 30 L 4 246 C 4 249.5117340087891 4.6868896484375 252.9163055419922 6.041580200195312 256.119140625 C 7.35089111328125 259.2147216796875 9.226150512695312 261.9956970214844 11.615234375 264.384765625 C 14.00430297851562 266.7738342285156 16.78526306152344 268.6491088867188 19.88084411621094 269.9584350585938 C 23.08369445800781 271.3131103515625 26.48826599121094 272 30 272 L 146 272 C 149.5117340087891 272 152.9163055419922 271.3131103515625 156.1191558837891 269.9584350585938 C 159.2147369384766 268.6491088867188 161.9956970214844 266.7738342285156 164.384765625 264.384765625 C 166.7738494873047 261.9956970214844 168.6491088867188 259.2147216796875 169.9584197998047 256.119140625 C 171.3131103515625 252.9163055419922 172 249.5117340087891 172 246 L 172 30 C 172 26.48826599121094 171.3131103515625 23.08369445800781 169.9584197998047 19.880859375 C 168.6491088867188 16.7852783203125 166.7738494873047 14.00430297851562 164.384765625 11.615234375 C 161.9956970214844 9.226165771484375 159.2147369384766 7.35089111328125 156.1191558837891 6.04156494140625 C 152.9163055419922 4.6868896484375 149.5117340087891 4 146 4 L 30 4 M 30 0 L 146 0 C 162.5685424804688 0 176 13.43145751953125 176 30 L 176 246 C 176 262.5685424804688 162.5685424804688 276 146 276 L 30 276 C 13.43145751953125 276 0 262.5685424804688 0 246 L 0 30 C 0 13.43145751953125 13.43145751953125 0 30 0 Z" stroke="none" fill="#00c3e1"/></g><path d="M961.464,1100.782v283.173" transform="translate(-491.816 -541.224)" fill="none" stroke="#ccf9fe" stroke-linecap="round" stroke-width="5" stroke-dasharray="5 12"/><path d="M-1645.135,1871.881c26.569,0,21.679-29.842,37.44-36.572,23.491-10.03,27.275,28.643,48.625,28.643,11.78,0,17.372-21.531,30.468-27.809,14.5-6.952,23.861,2.432,36.341,2.432,13.7,0,20.947-11.449,34.317-12.409,16.034-1.15,18.888,7.927,37.438,5.486,18.719-2.461,26.4-23.771,37.437-23.771" transform="translate(1980.782 -1168.881)" fill="none" stroke="#cbf9fd" stroke-linecap="round" stroke-linejoin="round" stroke-width="5"/><g transform="translate(-25.353 233)"><circle cx="16" cy="16" r="16" transform="translate(478 416)" fill="#00dcff" opacity="0.16"/><circle cx="5" cy="5" r="5" transform="translate(489 427)" fill="#00dcff"/></g><path d="M0,0,36,36" transform="translate(554.147 778.5)" fill="none" stroke="#ff6e5f" stroke-linecap="round" stroke-width="20"/><path d="M36,0,0,36" transform="translate(554.147 778.5)" fill="none" stroke="#ff6e5f" stroke-linecap="round" stroke-width="20"/><g transform="matrix(0.809, 0.588, -0.588, 0.809, 256.488, 564.209)" clip-path="url(#b)"><path d="M78.92,51.568V131.9L0,101.722V0Z" transform="matrix(0.259, 0.966, -0.966, 0.259, 93.289, -24.272)" fill="#b7e2ff"/><path d="M-317.681,1041.234l55.919,82.593-113.7-10.624L-396.6,989.666Z" transform="translate(381.681 -977.234)" fill="#74e9d3"/><path d="M88.159,0,0,12.948,77.5,45.1,78,28.927Z" transform="translate(52.303 58.574) rotate(-67)" fill="#b3f4e8"/></g><path d="M25,0H163V25a25,25,0,0,1-25,25H25A25,25,0,0,1,25,0Z" transform="translate(295.647 745)" fill="#00dcff"/><path d="M-37.114-15.862v2.31h5.126c-.374,3.982-2.09,6.908-6.16,9.284l1.694,2.024c5.654-3.3,7.326-7.942,7.326-13.618ZM-23.3-18.37v7.634h-1.8v-7.106h-2.706V1.034H-25.1V-8.4h1.8v10.3h2.772V-18.37ZM-7.876-9.9a43.152,43.152,0,0,1-6.8.594v-8.206h-2.9V-6.974h1.584a46.117,46.117,0,0,0,8.47-.616Zm-4.466,6.468h7.678V-.616h-7.678ZM-15.2,1.65H-1.8V-5.7H-15.2ZM-4.708-18.37v1.8H-9.526v2.2h4.818V-13H-9.526v2.178h4.818v4.29h2.9V-18.37ZM12.32-16.588H7.81V-18.48H4.884v1.892H.4V-14.3H12.32ZM4.158-9.944c0-1.012.88-1.518,2.2-1.518,1.3,0,2.2.506,2.2,1.518,0,1.034-.9,1.54-2.2,1.54C5.038-8.4,4.158-8.91,4.158-9.944Zm7.172,0c0-2.2-2.046-3.718-4.972-3.718-2.9,0-4.972,1.518-4.972,3.718,0,2.222,2.068,3.74,4.972,3.74C9.284-6.2,11.33-7.722,11.33-9.944ZM2.838-2.508h10.6V1.914h2.9V-4.84H2.838ZM19.03-13.156H16.346v-5.192h-2.9V-5.676h2.9v-5.082H19.03Zm17.908.462c-4.554-.506-6.754-2.794-6.754-4.84v-.616H27.192v.616c0,2.068-2.2,4.312-6.754,4.84L21.45-10.45c3.454-.44,5.962-1.848,7.238-3.784,1.3,1.936,3.762,3.366,7.216,3.784ZM32.67-.594H24.552v-1.76H32.67Zm0-3.938H24.552V-6.226H21.67V1.65H35.53V-6.226H32.67ZM19.536-9.526v2.288h18.3V-9.526Z" transform="translate(378.647 778)" fill="#fff"/><path d="M25,0H163V25a25,25,0,0,1-25,25H25A25,25,0,0,1,25,0Z" transform="translate(295.647 805)" fill="#00b996"/><path d="M-25.014-11.726c-3.366-.726-4.752-2.662-4.752-4.774v-1.034h-2.992V-16.5c0,2.2-1.452,4.356-4.862,5.17l1.342,2.266a7.551,7.551,0,0,0,5.038-3.762A7.25,7.25,0,0,0-26.312-9.46Zm.044,3.234a95.031,95.031,0,0,1-12.848.66l.352,2.354c1.43,0,3.058,0,4.8-.088V1.276h2.9V-5.742a47.311,47.311,0,0,0,4.972-.66Zm1.144-9.878V1.848h2.9V-18.37Zm14.234,2.684c2.574,0,4.158.638,4.158,1.892S-7.018-11.9-9.592-11.9c-2.53,0-4.136-.638-4.136-1.892S-12.122-15.686-9.592-15.686Zm0,6.094c4.378,0,7.282-1.628,7.282-4.2,0-2.552-2.9-4.2-7.282-4.2-4.356,0-7.282,1.65-7.282,4.2C-16.874-11.22-13.948-9.592-9.592-9.592Zm-4.07,5.06H-16.61V1.54H-2.4V-.77H-13.662Zm-5.082-4v2.31h7.854V-2.75h2.97V-6.226H-.4v-2.31ZM13.53-12.254H5.5v-2.992h8.03Zm2.86-5.258H2.64v7.546H16.39ZM5.412-4.334h-2.9V1.54H16.7V-.77H5.412ZM.374-8.36v2.288H8.36v3.454h2.9V-6.072h7.458V-8.36ZM25.96-13.992h2.948v-2.354h-9.02v2.354h3.256V-13c0,3.476-1.056,7.106-4,8.976l1.716,2.134a9.406,9.406,0,0,0,3.718-5.434,8.464,8.464,0,0,0,3.608,4.95l1.694-2.112C26.95-6.2,25.96-9.614,25.96-13Zm4.114,2.53H27.5v2.354h2.574V.968H32.78V-18.04H30.074Zm4.092-6.93V1.87h2.75V-18.392Z" transform="translate(378.647 838)" fill="#fff"/><path d="M25,0H163V25a25,25,0,0,1-25,25H25A25,25,0,0,1,25,0Z" transform="translate(295.647 865)" fill="#00dcff"/><path d="M-28.754-15.378c2.64,0,4.334.792,4.334,2.222,0,1.452-1.694,2.222-4.334,2.222-2.662,0-4.356-.77-4.356-2.222C-33.11-14.586-31.416-15.378-28.754-15.378Zm0,6.754c4.312,0,7.326-1.76,7.326-4.532,0-2.75-3.014-4.532-7.326-4.532-4.334,0-7.326,1.782-7.326,4.532C-36.08-10.384-33.088-8.624-28.754-8.624Zm9.218,1.518H-37.884v2.354h4.158V1.87H-30.8V-4.752h4.07V1.87h2.948V-4.752h4.246Zm8.25-9.7h-2.926v2.948c0,3.762-1.54,7.634-4.95,9.24l1.738,2.354A9.663,9.663,0,0,0-12.738-8.1,9.227,9.227,0,0,0-8.36-2.64L-6.6-4.928c-3.256-1.606-4.686-5.28-4.686-8.932ZM.066-10.582H-2.882V-18.37h-2.9V1.892h2.9V-8.162H.066ZM13.53-12.254H5.5v-2.992h8.03Zm2.86-5.258H2.64v7.546H16.39ZM5.412-4.334h-2.9V1.54H16.7V-.77H5.412ZM.374-8.36v2.288H8.36v3.454h2.9V-6.072h7.458V-8.36ZM25.96-13.992h2.948v-2.354h-9.02v2.354h3.256V-13c0,3.476-1.056,7.106-4,8.976l1.716,2.134a9.406,9.406,0,0,0,3.718-5.434,8.464,8.464,0,0,0,3.608,4.95l1.694-2.112C26.95-6.2,25.96-9.614,25.96-13Zm4.114,2.53H27.5v2.354h2.574V.968H32.78V-18.04H30.074Zm4.092-6.93V1.87h2.75V-18.392Z" transform="translate(378.647 898)" fill="#fff"/><path d="M25,0H163V25a25,25,0,0,1-25,25H25A25,25,0,0,1,25,0Z" transform="translate(295.647 925)" fill="#00b996"/><path d="M-16.72-2.354H-5.544V1.914h2.9V-4.664H-16.72Zm3.19-11.528h7.9V-12.3h-7.9ZM-8.162-8.36v-1.672H-2.75v-7.81H-5.632v1.782h-7.9v-1.782h-2.882v7.81h5.346V-8.36h-7.678v2.31H-.418V-8.36ZM17.8-12.694c-4.554-.506-6.754-2.794-6.754-4.84v-.616H8.052v.616c0,2.068-2.2,4.312-6.754,4.84L2.31-10.45c3.454-.44,5.962-1.848,7.238-3.784,1.3,1.936,3.762,3.366,7.216,3.784ZM13.53-.594H5.412v-1.76H13.53Zm0-3.938H5.412V-6.226H2.53V1.65H16.39V-6.226H13.53ZM.4-9.526v2.288H18.7V-9.526Z" transform="translate(380.647 958)" fill="#fff"/><path d="M-72.024-12.816c0-2.256,2.088-3.576,5.112-3.576,3.048,0,5.136,1.32,5.136,3.576S-63.864-9.24-66.912-9.24C-69.936-9.24-72.024-10.56-72.024-12.816Zm6.7,9.744V-6.816c3.912-.456,6.672-2.712,6.672-6,0-3.7-3.528-6.1-8.256-6.1-4.7,0-8.232,2.4-8.232,6.1,0,3.288,2.76,5.52,6.648,6v3.744h-8.4V-.5H-56.88V-3.072Zm21.816-8.856a39.79,39.79,0,0,1-8.52.7v-4.992h6.7v-2.52h-9.84V-8.688h1.848A46.082,46.082,0,0,0-43.2-9.408ZM-41.76-.744h-8.16V-2.688h8.16Zm0-4.368h-8.16V-7.128h-3.12v8.9h14.424v-8.9H-41.76Zm6.072-10.176h-2.928v-4.776h-3.168V-8.208h3.168V-12.7h2.928ZM-19.608-7.2v2.16h4.152v1.752h3.168V-20.04h-3.168V-7.2Zm-4.248-9.792c1.464,0,2.5.576,2.5,1.656s-1.032,1.632-2.5,1.632c-1.488,0-2.52-.552-2.52-1.632S-25.344-16.992-23.856-16.992Zm0,5.592c3.216,0,5.5-1.584,5.5-3.936s-2.28-3.96-5.5-3.96c-3.24,0-5.5,1.608-5.5,3.96S-27.1-11.4-23.856-11.4ZM-25.032-.84V-3.864h3.048V-8.04c1.776-.144,3.552-.336,5.28-.624l-.216-2.256a121.085,121.085,0,0,1-14.064.672l.408,2.52c1.656,0,3.5-.024,5.448-.12V-4.9H-28.2V1.68h16.392V-.84ZM8.352-20.016H5.16V-4.152H8.352ZM-6.6-13.008a2.758,2.758,0,0,1,2.928-2.88,2.726,2.726,0,0,1,2.9,2.88,2.733,2.733,0,0,1-2.9,2.856A2.765,2.765,0,0,1-6.6-13.008Zm8.928,0a5.673,5.673,0,0,0-6-5.616c-3.384,0-6.024,2.352-6.024,5.616A5.7,5.7,0,0,0-3.672-7.416,5.684,5.684,0,0,0,2.328-13.008ZM-3.192-.84V-5.712H-6.36V1.68H8.9V-.84ZM15.84-5.4c-1.2,0-1.92-1.656-1.92-5.064,0-3.384.72-5.04,1.92-5.04,1.224,0,1.92,1.656,1.92,5.04C17.76-7.056,17.064-5.4,15.84-5.4Zm6.5-6.5H20.592c-.36-4.128-2.136-6.576-4.752-6.576-2.928,0-4.776,3.024-4.776,8.016,0,5.016,1.848,8.04,4.776,8.04,2.688,0,4.488-2.592,4.776-6.912h1.728V1.08H25.3V-19.68H22.344Zm4.488-8.16V2.04h3v-22.1Zm12.72,4.752H42.12v-2.52H36.432v14.5H37.56a22.685,22.685,0,0,0,4.92-.384l-.24-2.568a22.573,22.573,0,0,1-2.688.312Zm6.84,0h2.832v-2.52H43.272v14.5h1.176a19.131,19.131,0,0,0,5.28-.432l-.24-2.544a14.369,14.369,0,0,1-3.1.336Zm9.984,3.528H53.76v-8.3H50.592V2.088H53.76V-9.168h2.616Zm4.536,2.16H67.92v-8.544H57.768v2.52H64.8v3.528H57.792V-3h1.872a54.8,54.8,0,0,0,10.2-.744l-.288-2.568a50.285,50.285,0,0,1-8.664.7ZM77.4-11.712H74.232v-8.352H71.064V2.112h3.168V-9.1H77.4ZM-39.444,18.568h7.152V16h-10.3V30.808h1.872a55.029,55.029,0,0,0,10.2-.72l-.312-2.616a54.945,54.945,0,0,1-8.616.7Zm16.512,3.552h-3.216V13.96h-3.168V36.112h3.168V24.736h3.216Zm14.808-3.744H-20.076v6.168h15.5v-2.4H-16.956V20.608H-5V14.464h-15.12v2.4h12Zm-8.76,11.256h-3.168V35.68H-4.5V33.16H-16.884Zm-5.688-3.72v2.52H-2.556v-2.52ZM15.564,15.9h-4.92V13.84H7.452V15.9h-4.9v2.5H15.564Zm-8.9,7.248c0-1.1.96-1.656,2.4-1.656,1.416,0,2.4.552,2.4,1.656,0,1.128-.984,1.68-2.4,1.68C7.62,24.832,6.66,24.28,6.66,23.152Zm7.824,0c0-2.4-2.232-4.056-5.424-4.056-3.168,0-5.424,1.656-5.424,4.056,0,2.424,2.256,4.08,5.424,4.08C12.252,27.232,14.484,25.576,14.484,23.152ZM5.22,31.264H16.788v4.824h3.168V28.72H5.22ZM22.884,19.648H19.956V13.984H16.788V27.808h3.168V22.264h2.928Zm19.536.5c-4.968-.552-7.368-3.048-7.368-5.28V14.2H31.788v.672c0,2.256-2.4,4.7-7.368,5.28l1.1,2.448c3.768-.48,6.5-2.016,7.9-4.128,1.416,2.112,4.1,3.672,7.872,4.128Zm-4.656,13.2H28.908v-1.92h8.856Zm0-4.3H28.908V27.208H25.764V35.8h15.12V27.208h-3.12ZM23.436,23.608v2.5H43.4v-2.5Z" transform="translate(572.647 873)" fill="#f05a46"/><path d="M0,0H537V500H0Z" transform="translate(153.647 497)" fill="#c4b2ff" opacity="0"/></g></svg>