<svg xmlns="http://www.w3.org/2000/svg" width="303" height="297.05" viewBox="0 0 303 297.05"><g transform="translate(-29 -110)"><g transform="translate(-321.771 -113)"><g transform="translate(469.892 223)"><g transform="translate(-26.121)" fill="none" stroke="#f5b400" stroke-width="2"><rect width="107.002" height="27.306" rx="13.653" stroke="none"/><rect x="1" y="1" width="105.002" height="25.306" rx="12.653" fill="none"/></g><text transform="translate(27.38 18.748)" fill="#f5b400" font-size="13" font-family="NotoSansCJKkr-Bold, Noto Sans CJK KR" font-weight="700"><tspan x="-41.424" y="0">AI arithmetic</tspan></text></g></g><g transform="translate(-314 -157)"><path d="M233.042,63.1l2.221-12.622h62.161L295.2,63.1Zm-20.3,0L222.74,6.309h12.792L225.54,63.1Zm-53.888,0,2.224-12.622h7.694L171,37.861h-6.54l2.221-12.622h46.77l-2.222,12.622h-7.7l-2.22,12.621h6.541L205.627,63.1Zm22.656-12.622h7.059l2.218-12.621h-7.058ZM67.183,63.1l4.443-25.242h-8.2L58.98,63.1H46.188l10-56.794H68.975L65.642,25.239h8.207L77.18,6.309H89.972l-10,56.794ZM0,63.1l6.66-37.864H46.188L39.529,63.1ZM15.156,50.481H28.813l2.222-12.621H17.375Zm75.121-2.8L92.5,35.057h62.86l-2.22,12.622Zm151.512-7.715,5.918-33.655h33.272l-2.221,12.622H259.165l-1.48,8.416h30.992l-2.218,12.617ZM113.6,17.39,102.428,28.581l-8.9-8.924L113.143,0l14.225,12.826L141.593,0l19.623,19.657-8.909,8.924L141.137,17.39l-13.77,12.417Z" transform="translate(346.067 319.511)" fill="#00c3e1"/><rect width="303" height="64" transform="translate(343 319)" fill="#ff5a5a" opacity="0"/></g><path d="M-108.064-13.134v2.354h3.168v7.194h2.9V-18.37h-2.9v5.236Zm1.342,4.664a6.236,6.236,0,0,1-4.576-5.962V-14.7h3.938v-2.31h-10.89v2.31h3.982v.286a6.512,6.512,0,0,1-4.774,6.292l1.474,2.31a7.963,7.963,0,0,0,4.84-4.4,7.555,7.555,0,0,0,4.6,4Zm-5.72,7.7V-4.818h-2.9V1.54h13.816V-.77ZM-89.43-16.61h-2.794v3.41c0,3.454-1.078,7.084-4.048,8.888l1.738,2.178a9.106,9.106,0,0,0,3.718-5.28A8.3,8.3,0,0,0-87.384-2.6L-85.8-4.84c-2.75-1.826-3.63-5.192-3.63-8.47Zm4.048,5.082h-2.552v2.354h2.552V.99h2.706V-18.04h-2.706Zm4.114-6.842V1.892h2.75V-18.37Zm15.026,5.346H-68.2a25.28,25.28,0,0,0,.176-2.948H-75.9v2.31h4.994c-.374,3.96-2.134,6.886-6.138,9.328l1.65,2.024a13.618,13.618,0,0,0,6.71-8.4h2.442v2.75h-2.816v2.332h2.816V1.012h2.706V-17.93h-2.706Zm4.158-5.368V1.892h2.75V-18.392ZM-52.866,0h9.79V-2.618h-3.058V-16.3h-2.4a10.156,10.156,0,0,1-3.784,1.386v2h2.948v10.3h-3.5ZM-38.72,0h3.278c.264-6.38.77-9.7,4.554-14.322V-16.3H-41.712v2.728h7.326C-37.488-9.262-38.434-5.654-38.72,0Zm13.838.308a5.5,5.5,0,0,0,5.7-5.72c0-3.542-2.288-5.17-5.016-5.17a4.276,4.276,0,0,0-1.958.462l.308-3.454h5.918V-16.3h-8.712l-.44,7.92,1.474.968a3.9,3.9,0,0,1,2.442-.858,2.635,2.635,0,0,1,2.75,2.948A2.734,2.734,0,0,1-25.3-2.332a5.06,5.06,0,0,1-3.586-1.65l-1.5,2.068A7.42,7.42,0,0,0-24.882.308Zm7.5-16.17v2.31h5.126c-.374,3.982-2.09,6.908-6.16,9.284l1.694,2.024c5.654-3.3,7.326-7.942,7.326-13.618ZM-3.564-18.37v7.634h-1.8v-7.106H-8.074V1.034h2.706V-8.4h1.8v10.3H-.792V-18.37Zm22.9,10.164v-2.31H16.786a27.58,27.58,0,0,0,.4-5.368v-1.628H3.256v2.332H14.322a22.416,22.416,0,0,1-.44,4.664H.99v2.31h7.7v2.86H2.838v2.288H14.3v4.95h2.926V-5.346H11.594v-2.86Zm7.3-8.822c-3.168,0-5.566,2.09-5.566,4.994,0,2.926,2.4,4.994,5.566,4.994s5.588-2.068,5.588-4.994C32.23-14.938,29.81-17.028,26.642-17.028Zm0,2.486a2.494,2.494,0,0,1,2.75,2.508,2.494,2.494,0,0,1-2.75,2.508,2.494,2.494,0,0,1-2.75-2.508A2.494,2.494,0,0,1,26.642-14.542Zm7.48-3.85V1.936h2.9V-18.392ZM20.592-2.178A65.309,65.309,0,0,0,33.2-3.1l-.176-2.09a91.126,91.126,0,0,1-12.8.66Zm34.5-14.41h-4.51V-18.48H47.652v1.892H43.164V-14.3H55.088ZM46.926-9.944c0-1.012.88-1.518,2.2-1.518,1.3,0,2.2.506,2.2,1.518,0,1.034-.9,1.54-2.2,1.54C47.806-8.4,46.926-8.91,46.926-9.944Zm7.172,0c0-2.2-2.046-3.718-4.972-3.718-2.9,0-4.972,1.518-4.972,3.718,0,2.222,2.068,3.74,4.972,3.74C52.052-6.2,54.1-7.722,54.1-9.944ZM45.606-2.508h10.6V1.914h2.9V-4.84H45.606ZM61.8-13.156H59.114v-5.192h-2.9V-5.676h2.9v-5.082H61.8ZM75.24-11.11h1.584v5.126h2.75V-18.37h-2.75v4.928H75.24V-18H72.534V-6.622H75.24ZM72.512-9.372a5.68,5.68,0,0,1-3.762-5.434V-17.16H65.956v2.354a6.382,6.382,0,0,1-3.938,6.028l1.54,2.244a7.216,7.216,0,0,0,3.85-3.96,6.689,6.689,0,0,0,3.564,3.322Zm.2,9.086c-2.64,0-4.092-.528-4.092-1.606S70.07-3.5,72.71-3.5c2.6,0,4.048.528,4.048,1.606S75.306-.286,72.71-.286Zm0-5.39c-4.268,0-7,1.43-7,3.784,0,2.376,2.728,3.784,7,3.784,4.246,0,6.952-1.408,6.952-3.784C79.662-4.246,76.956-5.676,72.71-5.676Zm24.9-8.206h-11v-1.782H97.46v-2.31H83.732v6.38H97.614ZM86.438-1.716H97.526V-7.084H83.534v2.178H94.666v1.144H83.556V1.716h14.5V-.506H86.438Zm-4.972-8.8v2.288H99.792v-2.288Zm33-7.876V1.936h2.9V-18.392Zm-7.986,1.43c-3.058,0-5.324,2.772-5.324,7.216,0,4.466,2.266,7.26,5.324,7.26S111.8-5.28,111.8-9.746C111.8-14.19,109.538-16.962,106.48-16.962Zm0,2.618c1.5,0,2.53,1.606,2.53,4.6,0,3.014-1.034,4.62-2.53,4.62s-2.53-1.606-2.53-4.62C103.95-12.738,104.984-14.344,106.48-14.344ZM-67.76,14.412h-4.51V12.52H-75.2v1.892h-4.488V16.7H-67.76Zm-8.162,6.644c0-1.012.88-1.518,2.2-1.518,1.3,0,2.2.506,2.2,1.518,0,1.034-.9,1.54-2.2,1.54C-75.042,22.6-75.922,22.09-75.922,21.056Zm7.172,0c0-2.2-2.046-3.718-4.972-3.718-2.9,0-4.972,1.518-4.972,3.718,0,2.222,2.068,3.74,4.972,3.74C-70.8,24.8-68.75,23.278-68.75,21.056Zm-8.492,7.436h10.6v4.422h2.9V26.16H-77.242ZM-61.05,17.844h-2.684V12.652h-2.9V25.324h2.9V20.242h2.684Zm17.908.462C-47.7,17.8-49.9,15.512-49.9,13.466V12.85h-2.992v.616c0,2.068-2.2,4.312-6.754,4.84l1.012,2.244c3.454-.44,5.962-1.848,7.238-3.784,1.3,1.936,3.762,3.366,7.216,3.784Zm-4.268,12.1h-8.118v-1.76h8.118Zm0-3.938h-8.118V24.774H-58.41V32.65h13.86V24.774h-2.86Zm-13.134-4.994v2.288h18.3V21.474Zm24.992,4.906a2.287,2.287,0,0,1-2.376-2.464,2.305,2.305,0,0,1,2.376-2.486A2.282,2.282,0,0,1-33.2,23.894,2.277,2.277,0,0,1-35.552,26.38Zm0-7.3A4.833,4.833,0,0,0-40.7,23.894a4.841,4.841,0,0,0,5.148,4.862,4.817,4.817,0,0,0,5.1-4.862A4.808,4.808,0,0,0-35.552,19.076Zm1.43-6.094h-2.9v2.64h-4.488v2.31h11.792v-2.31h-4.4Zm11.528,7.568h-2.9V12.63h-2.9V32.892h2.9V22.948h2.9ZM-5.94,18.108H-17.094V13.356H-20v7.062H-5.94Zm-11.33,8.316H-20.2v6.028H-5.83v-2.31H-17.27Zm-4.994-3.938v2.332H-3.916V22.486Zm26.312-5.5h2.6v8.58h-2.6ZM1.342,27.832H9.328V14.7H1.342ZM15.4,12.608v7.744H13.706V12.938H11v19.03h2.706V22.684H15.4V32.87h2.75V12.608Zm22.946,9.878A6.306,6.306,0,0,1,34.54,16.37V14.082H31.614V16.37a6.778,6.778,0,0,1-2.552,5.566,6.827,6.827,0,0,1-2.574-5.566V14.082H23.606V16.37A6.438,6.438,0,0,1,19.8,22.486l1.5,2.134a6.953,6.953,0,0,0,3.74-3.96,7.063,7.063,0,0,0,4.026,4.268,7.085,7.085,0,0,0,4.026-4.246A6.885,6.885,0,0,0,36.85,24.62ZM19.91,30.406H38.236V28.052H19.91Zm24.2-13.574h2.266v8.932c-.77.022-1.518.066-2.266.066Zm5.06,0h1.738V14.5H39.534v2.332h1.76V25.9H39.006l.308,2.376a80.034,80.034,0,0,0,12.562-.836l-.176-2.09c-.836.11-1.672.2-2.53.242ZM53,12.652V32.914h2.926V12.652ZM74.58,21.98H63.228V16.656h11.2V14.3h-14.1V24.29H74.58ZM58.19,28.1v2.376H76.538V28.1ZM79.4,25.456H81.51l.462-8.118.11-3.058H78.826l.11,3.058Zm1.056,5.852a2.114,2.114,0,0,0,0-4.224,2.115,2.115,0,0,0,0,4.224Z" transform="translate(180 273.044)" fill="#00c3e1"/><path d="M101.275,38.914l4.881-4.024a.979.979,0,0,0-.571-1.738L99.3,32.771a.986.986,0,0,1-.857-.619l-2.309-5.9a.985.985,0,0,0-1.833,0l-2.309,5.881a.986.986,0,0,1-.857.619l-6.309.381a.979.979,0,0,0-.571,1.738l4.881,4a1,1,0,0,1,.333,1l-1.6,6.119a.981.981,0,0,0,1.476,1.071l5.309-3.4a.934.934,0,0,1,1.048,0l5.333,3.4a.981.981,0,0,0,1.476-1.071l-1.6-6.1a.978.978,0,0,1,.357-.976Z" transform="translate(32.296 304.466)" fill="#ffc823"/><path d="M101.275,38.914l4.881-4.024a.979.979,0,0,0-.571-1.738L99.3,32.771a.986.986,0,0,1-.857-.619l-2.309-5.9a.985.985,0,0,0-1.833,0l-2.309,5.881a.986.986,0,0,1-.857.619l-6.309.381a.979.979,0,0,0-.571,1.738l4.881,4a1,1,0,0,1,.333,1l-1.6,6.119a.981.981,0,0,0,1.476,1.071l5.309-3.4a.934.934,0,0,1,1.048,0l5.333,3.4a.981.981,0,0,0,1.476-1.071l-1.6-6.1a.978.978,0,0,1,.357-.976Z" transform="translate(58.296 304.466)" fill="#ffc823"/><path d="M101.275,38.914l4.881-4.024a.979.979,0,0,0-.571-1.738L99.3,32.771a.986.986,0,0,1-.857-.619l-2.309-5.9a.985.985,0,0,0-1.833,0l-2.309,5.881a.986.986,0,0,1-.857.619l-6.309.381a.979.979,0,0,0-.571,1.738l4.881,4a1,1,0,0,1,.333,1l-1.6,6.119a.981.981,0,0,0,1.476,1.071l5.309-3.4a.934.934,0,0,1,1.048,0l5.333,3.4a.981.981,0,0,0,1.476-1.071l-1.6-6.1a.978.978,0,0,1,.357-.976Z" transform="translate(84.296 304.466)" fill="#ffc823"/><path d="M101.275,38.914l4.881-4.024a.979.979,0,0,0-.571-1.738L99.3,32.771a.986.986,0,0,1-.857-.619l-2.309-5.9a.985.985,0,0,0-1.833,0l-2.309,5.881a.986.986,0,0,1-.857.619l-6.309.381a.979.979,0,0,0-.571,1.738l4.881,4a1,1,0,0,1,.333,1l-1.6,6.119a.981.981,0,0,0,1.476,1.071l5.309-3.4a.934.934,0,0,1,1.048,0l5.333,3.4a.981.981,0,0,0,1.476-1.071l-1.6-6.1a.978.978,0,0,1,.357-.976Z" transform="translate(110.296 304.466)" fill="#ffc823"/><path d="M101.275,38.914l4.881-4.024a.979.979,0,0,0-.571-1.738L99.3,32.771a.986.986,0,0,1-.857-.619l-2.309-5.9a.985.985,0,0,0-1.833,0l-2.309,5.881a.986.986,0,0,1-.857.619l-6.309.381a.979.979,0,0,0-.571,1.738l4.881,4a1,1,0,0,1,.333,1l-1.6,6.119a.981.981,0,0,0,1.476,1.071l5.309-3.4a.934.934,0,0,1,1.048,0l5.333,3.4a.981.981,0,0,0,1.476-1.071l-1.6-6.1a.978.978,0,0,1,.357-.976Z" transform="translate(136.296 304.466)" fill="#ffc823"/><path d="M0,0H81.524V10.708H0Z" transform="translate(157.501 380.907)" fill="#ffc823"/><path d="M-114.443-9.156h2.632v5.908h-2.632Zm-1.078,6.818h4.774v-7.728h-4.774Zm9.128-9.184v4.97h-1.694v-4.69h-1.078V.406h1.078v-6.02h1.694V1.022h1.092V-11.522ZM-92.2-5.1A4.13,4.13,0,0,1-94.717-8.9v-1.6h-1.162v1.6a4.527,4.527,0,0,1-1.876,3.612A4.677,4.677,0,0,1-99.673-8.9v-1.6h-1.134v1.6a4.384,4.384,0,0,1-2.52,3.808l.616.882a4.994,4.994,0,0,0,2.464-2.828,4.857,4.857,0,0,0,2.478,2.968,4.776,4.776,0,0,0,2.478-2.9,4.687,4.687,0,0,0,2.464,2.758Zm-11.242,3.514V-.63h11.382v-.952ZM-88.1-9.24H-86v6.1c-.714.028-1.414.056-2.1.07Zm3.22,0h1.386v-.924H-90.6v.924h1.4v6.188c-.6.014-1.176.014-1.708.014l.126.966a54.379,54.379,0,0,0,8.008-.476l-.07-.84c-.658.084-1.344.154-2.03.182Zm3.122-2.268V1.036h1.148V-11.508ZM-68.313-5.5H-75.8v-3.92h7.364v-.952h-8.5v5.81h8.624ZM-78.393-1.61v.952H-67V-1.61Zm21.336-7.714h-7.336v2.688H-55.7v-.826h-7.56V-8.54h7.336v-2.618h-8.5v.812h7.364Zm-6.272,8.2h7.448V-3.794h-8.61v.826h7.476v1.05h-7.448V.868h8.974V.042h-7.84Zm-2.52-4.564v.868h11.382v-.868ZM-44.863.154c-2.016,0-3.15-.392-3.15-1.148s1.134-1.148,3.15-1.148,3.15.406,3.15,1.148S-42.833.154-44.863.154Zm0-3.15c-2.73,0-4.3.7-4.3,2s1.568,2.016,4.3,2.016,4.3-.7,4.3-2.016S-42.133-3-44.863-3Zm.574-1.876V-6.1h3.78V-7H-47.9V-8.232h6.986V-9.1H-47.9v-1.162h7.322v-.9h-8.47V-6.1h3.612v1.232h-5.11v.924h11.368v-.924ZM-34.9-2.828a1.732,1.732,0,0,1-1.666-1.918A1.723,1.723,0,0,1-34.9-6.636a1.731,1.731,0,0,1,1.666,1.89A1.74,1.74,0,0,1-34.9-2.828Zm0-4.774a2.673,2.673,0,0,0-2.688,2.856A2.669,2.669,0,0,0-34.9-1.876a2.669,2.669,0,0,0,2.688-2.87A2.673,2.673,0,0,0-34.9-7.6Zm.56-3.556h-1.134V-9.38h-2.548v.938h6.23V-9.38h-2.548Zm5.866-.378V-6.23h-1.61v-5.012h-1.078V.42h1.078V-5.292h1.61V1.022h1.106V-11.536ZM-19.593.2c1.974,0,3.64-1.106,3.64-3.01a2.591,2.591,0,0,0-2.058-2.548v-.07A2.459,2.459,0,0,0-16.289-7.8c0-1.764-1.358-2.758-3.36-2.758a4.6,4.6,0,0,0-3.108,1.274l1.05,1.26a2.816,2.816,0,0,1,1.96-.91,1.222,1.222,0,0,1,1.386,1.288c0,.924-.616,1.582-2.52,1.582v1.47c2.254,0,2.856.644,2.856,1.652,0,.938-.714,1.456-1.764,1.456A3.291,3.291,0,0,1-22.1-2.548l-.966,1.3A4.4,4.4,0,0,0-19.593.2Zm8.19,0c2.114,0,3.5-1.848,3.5-5.418s-1.386-5.334-3.5-5.334-3.514,1.75-3.514,5.334S-13.517.2-11.4.2Zm0-1.61c-.9,0-1.568-.9-1.568-3.808S-12.3-8.96-11.4-8.96s1.554.84,1.554,3.738S-10.507-1.414-11.4-1.414Zm4.942,4.4A3.516,3.516,0,0,0-3.815-.462c0-1.274-.532-2.03-1.484-2.03a1.238,1.238,0,0,0-1.33,1.218A1.209,1.209,0,0,0-5.341-.056h.126C-5.2.728-5.8,1.456-6.9,1.862ZM.693.2c2.114,0,3.5-1.848,3.5-5.418s-1.386-5.334-3.5-5.334-3.514,1.75-3.514,5.334S-1.421.2.693.2Zm0-1.61c-.9,0-1.568-.9-1.568-3.808S-.2-8.96.693-8.96s1.554.84,1.554,3.738S1.589-1.414.693-1.414ZM8.589.2c2.114,0,3.5-1.848,3.5-5.418s-1.386-5.334-3.5-5.334S5.075-8.806,5.075-5.222,6.475.2,8.589.2Zm0-1.61c-.9,0-1.568-.9-1.568-3.808S7.693-8.96,8.589-8.96s1.554.84,1.554,3.738S9.485-1.414,8.589-1.414ZM16.485.2c2.114,0,3.5-1.848,3.5-5.418s-1.386-5.334-3.5-5.334-3.514,1.75-3.514,5.334S14.371.2,16.485.2Zm0-1.61c-.9,0-1.568-.9-1.568-3.808s.672-3.738,1.568-3.738,1.554.84,1.554,3.738S17.381-1.414,16.485-1.414Zm4.858-8.68v1.47H24.6a7.1,7.1,0,0,1-3.92,5.908l1.078,1.288c3.6-2.1,4.662-5.054,4.662-8.666Zm8.792-1.6v4.858H28.987v-4.522H27.265V.658h1.722V-5.348h1.148V1.2H31.9V-11.69Zm14.91-.014V1.232h1.848V-11.7Zm-5.082.91c-1.946,0-3.388,1.764-3.388,4.592s1.442,4.62,3.388,4.62S43.351-3.36,43.351-6.2,41.909-10.794,39.963-10.794Zm0,1.666c.952,0,1.61,1.022,1.61,2.926s-.658,2.94-1.61,2.94-1.61-1.022-1.61-2.94S39.011-9.128,39.963-9.128Zm16.38,3.15a3.78,3.78,0,0,1-2.9-3.7V-10.99H51.569v1.162a4.206,4.206,0,0,1-3.024,4.186l.966,1.456a5.042,5.042,0,0,0,3.024-2.772A4.735,4.735,0,0,0,55.377-4.55ZM54.677-.224c-1.652,0-2.534-.336-2.534-1.064s.882-1.05,2.534-1.05S57.2-2,57.2-1.288,56.315-.224,54.677-.224Zm0-3.542c-2.688,0-4.368.924-4.368,2.478S51.989,1.2,54.677,1.2,59.031.28,59.031-1.288,57.351-3.766,54.677-3.766Zm4.214-4.928v-2.982H57.043V-4.06h1.848V-7.168H60.6V-8.694Zm6.594-1.9c-1.946,0-3.36,1.19-3.36,2.954s1.414,2.954,3.36,2.954,3.36-1.2,3.36-2.954S67.445-10.6,65.485-10.6Zm0,.98a2.029,2.029,0,0,1,2.24,1.974,2.037,2.037,0,0,1-2.24,1.974,2.044,2.044,0,0,1-2.24-1.974A2.036,2.036,0,0,1,65.485-9.618Zm5.012-1.9V1.064h1.148V-11.522ZM61.635-1.694a46.17,46.17,0,0,0,8.134-.546l-.1-.854a56.545,56.545,0,0,1-8.176.434ZM85.491-7.448H79.3V-10.01h6.188Zm1.134-3.486H78.183v4.41h8.442ZM79.3-2.828H78.155V.756h8.68V-.182H79.3ZM76.7-5.1v.924h5.222v2.534h1.148V-4.172h5.04V-5.1Zm16.24-4.018h2.24v-.938H89.453v.938h2.38V-7.98A6.553,6.553,0,0,1,89.1-2.338l.7.854a6.5,6.5,0,0,0,2.59-3.976,6,6,0,0,0,2.52,3.668l.7-.84A6.084,6.084,0,0,1,92.939-7.98Zm3.36,2.1H94.227v.938H96.3V.378h1.092v-11.62H96.3Zm2.52-4.522V1.022h1.106V-11.536Zm4.508,3.78a2.022,2.022,0,0,1,2.212-1.988,2.018,2.018,0,0,1,2.2,1.988,2,2,0,0,1-2.2,1.974A2,2,0,0,1,103.327-7.756Zm2.786,2.912a2.931,2.931,0,0,0,2.744-2.912,3.02,3.02,0,0,0-3.318-2.954c-1.946,0-3.332,1.19-3.332,2.954a2.913,2.913,0,0,0,2.758,2.912v2.17c-1.176.028-2.324.042-3.318.042l.154.966a48.542,48.542,0,0,0,7.8-.49L109.5-3c-1.078.154-2.24.224-3.388.28Zm7.322-1.5h-1.988v-5.194H110.3V1.036h1.148V-5.376h1.988ZM-106.855,8.1V9.04h3.766a7.6,7.6,0,0,1-4.242,6.482l.672.826a8.783,8.783,0,0,0,4.7-8.246Zm9.072-1.624v5.054h-1.708V6.814h-1.078V18.406h1.078V12.47h1.708v6.566h1.106V6.478Zm13.286.014h-1.148v9.17H-84.5Zm-8.89,3.948a2.053,2.053,0,0,1,2.142-2.086,2.06,2.06,0,0,1,2.17,2.086,2.067,2.067,0,0,1-2.17,2.114A2.059,2.059,0,0,1-93.387,10.44Zm5.432,0a3.09,3.09,0,0,0-3.29-3.08,3.074,3.074,0,0,0-3.262,3.08,3.088,3.088,0,0,0,3.262,3.108A3.1,3.1,0,0,0-87.955,10.44Zm-3.472,7.378V14.724h-1.148v4.032h8.456v-.938Zm17.108-6.034h-3.528V8.242h3.528Zm1.12-4.452h-5.768v5.376H-73.2Zm3.668,7.98v-.924h-8.2v.924h3.5c-.14,1.344-1.918,2.492-3.99,2.8l.42.882a5.75,5.75,0,0,0,4.186-2.464,5.846,5.846,0,0,0,4.144,2.478l.434-.882c-2.044-.322-3.85-1.5-3.99-2.814Zm-.21-5.824V6.478h-1.148v7.168h1.148V10.44h1.862V9.488Zm3.794,2.464c2.072-.21,3.906-.938,4.676-2.156.756,1.218,2.59,1.946,4.662,2.156l.35-.882c-2.366-.21-4.3-1.134-4.4-2.506h3.892v-.91H-60.7V6.394h-1.148v1.26h-3.934v.91H-61.9c-.1,1.372-2.03,2.3-4.382,2.506Zm7.84,5.992h-6.328V15.9h6.328Zm2.506-4.326V12.68H-66.955v.938h5.11V14.99h-3.71v3.878h8.568V14.99H-60.7V13.618Zm10.36-1.68h-2.128v.938h2.128v1.708h1.162V6.478h-1.162V9.5h-2.114v.924h2.114Zm-2.128-4.074h-2.884v-1.5H-51.4v1.5h-3v.924h7.028ZM-52.6,11.756c0-.868.714-1.442,1.764-1.442s1.764.574,1.764,1.442-.714,1.456-1.764,1.456S-52.6,12.638-52.6,11.756Zm4.606,0c0-1.4-1.176-2.324-2.842-2.324s-2.842.924-2.842,2.324,1.162,2.338,2.842,2.338S-48,13.17-48,11.756Zm-.2,6.384c-1.848,0-3-.462-3-1.26s1.148-1.26,3-1.26,2.982.448,2.982,1.26S-46.347,18.14-48.195,18.14Zm0-3.4c-2.6,0-4.186.77-4.186,2.142s1.582,2.142,4.186,2.142,4.172-.784,4.172-2.142S-45.6,14.738-48.195,14.738Zm10.374-4.312a2.074,2.074,0,0,1,2.142-2.142,2.071,2.071,0,0,1,2.128,2.142,2.071,2.071,0,0,1-2.128,2.142A2.074,2.074,0,0,1-37.821,10.426Zm7.9-1.05v2.086h-2.7a3.152,3.152,0,0,0,.168-1.036,3.176,3.176,0,0,0-.168-1.05Zm0,3.01V15.76h1.162V6.492h-1.162v1.96h-3.192a3.217,3.217,0,0,0-2.562-1.176,3.1,3.1,0,0,0-3.234,3.15,3.1,3.1,0,0,0,3.234,3.15,3.215,3.215,0,0,0,2.576-1.19Zm-5.712,5.432v-3.01H-36.8v3.948h8.386v-.938Zm16.38-5.026a4.4,4.4,0,0,1-3.094-3.976V7.234H-23.5V8.788A4.563,4.563,0,0,1-26.635,13.1l.6.91A5.209,5.209,0,0,0-22.9,10.818,5.281,5.281,0,0,0-19.831,13.7Zm-4.214,2.072h-1.148v3.892h8.33v-.938h-7.182Zm6.636-4.536V6.464h-1.148v9.282h1.148V11.28h1.848v-.952Zm13.02-2.52H-6.951v-1.4H-8.1v1.4h-3.122v.924h7.406Zm-5.614,3.836c0-.826.756-1.372,1.9-1.372s1.918.546,1.918,1.372-.77,1.386-1.918,1.386S-9.429,12.484-9.429,11.644Zm4.914,0c0-1.372-1.218-2.268-3.01-2.268s-3,.9-3,2.268,1.218,2.268,3,2.268S-4.515,13.03-4.515,11.644Zm-5.152,4.312h7V19.05h1.148V15.018H-9.667ZM.343,9.95H-1.519V6.492H-2.667v7.84h1.148V10.9H.343Zm11.634.448c-2.226-.28-4.438-1.666-4.438-3.22v-.56H6.363v.56c0,1.6-2.2,2.94-4.452,3.22l.42.924a6.467,6.467,0,0,0,4.62-2.688,6.493,6.493,0,0,0,4.606,2.688ZM10,17.944H3.829v-1.6H10Zm0-2.478H3.829V14H2.7v4.872h8.442V14H10ZM1.253,12.2v.924H12.621V12.2ZM19.467,7.556c2.058,0,3.234.476,3.234,1.316s-1.176,1.316-3.234,1.316-3.234-.476-3.234-1.316S17.409,7.556,19.467,7.556Zm0,3.486c2.758,0,4.41-.756,4.41-2.17s-1.652-2.184-4.41-2.184-4.41.77-4.41,2.184S16.709,11.042,19.467,11.042Zm-3.15,5.684H23.7V13.9h-8.54v.868h7.406v1.12H15.2V18.9h8.876V18H16.317ZM13.783,11.9v.924H25.151V11.9ZM32.767,9.74h2.324V8.788h-2.31V6.926H31.675V8.788H29.351V9.74h2.324v.6a6.21,6.21,0,0,1-2.66,5.264l.672.854a6.186,6.186,0,0,0,2.548-3.738,5.866,5.866,0,0,0,2.576,3.472l.658-.868a5.706,5.706,0,0,1-2.7-4.984Zm3.388,1.694H34.237v.952h1.918v5.992h1.092V6.772H36.155Zm2.52-4.956V19.022h1.106V6.478ZM48.937,7.794H45.871V6.352H44.723V7.794H41.657v.924h7.28ZM43.477,11.6c0-.812.756-1.372,1.82-1.372s1.82.56,1.82,1.372-.756,1.372-1.82,1.372S43.477,12.414,43.477,11.6Zm4.718,0c0-1.344-1.2-2.24-2.9-2.24s-2.912.9-2.912,2.24,1.2,2.226,2.912,2.226S48.195,12.946,48.195,11.6Zm-3.248,4.06h5.922v2.282H44.947Zm-1.12,3.206h8.162V14.752H43.827Zm7-12.376V10.3H48.741v.938h2.086V14.08h1.162V6.492Zm6.454,8.68a1.732,1.732,0,0,1-1.666-1.918,1.679,1.679,0,1,1,3.332,0A1.74,1.74,0,0,1,57.281,15.172Zm0-4.774a2.673,2.673,0,0,0-2.688,2.856,2.694,2.694,0,1,0,5.376,0A2.673,2.673,0,0,0,57.281,10.4Zm.56-3.556H56.707V8.62H54.159v.938h6.23V8.62H57.841Zm5.866-.378V11.77H62.1V6.758H61.019V18.42H62.1V12.708h1.61v6.314h1.106V6.464Zm8.26,4.088h6.412v2.31H71.967Zm3.78,5.936v-2.7H79.5V7.374h-1.12v2.24H71.967V7.374H70.833v6.412h3.752v2.7h-5.1v.938H80.871v-.938Zm10-8.82H84.637v2.394a6.375,6.375,0,0,1-2.758,5.418l.714.854a6.4,6.4,0,0,0,2.6-3.85,6.137,6.137,0,0,0,2.478,3.584l.658-.9a6.106,6.106,0,0,1-2.59-5.152Zm3.3,3.318H86.975v.952h2.072V18.42h1.078V6.758H89.047Zm2.548-4.508V19.036h1.092V6.478Zm6.888,7.042a7.486,7.486,0,0,0,1.736.2,7.734,7.734,0,0,0,1.764-.2v2.954h-3.5Zm1.736-5.348c2.016,0,3.472.924,3.472,2.324s-1.456,2.324-3.472,2.324S96.761,11.9,96.761,10.5,98.2,8.172,100.219,8.172Zm2.912,8.3v-3.4a2.847,2.847,0,0,0,1.652-2.576c0-1.96-1.89-3.22-4.564-3.22s-4.564,1.26-4.564,3.22a2.87,2.87,0,0,0,1.68,2.59v3.388h-2.8v.952h11.41v-.952Zm5.026-1.568h.882l.168-5.936.042-1.456h-1.3l.042,1.456Zm.434,3.276a.917.917,0,0,0,.924-.966.925.925,0,1,0-.924.966Z" transform="translate(180 388)" fill="#323c46"/></g></svg>