<svg xmlns="http://www.w3.org/2000/svg" width="303" height="181.858" viewBox="0 0 303 181.858">
  <g id="그룹_14620" data-name="그룹 14620" transform="translate(-32 -172)">
    <path id="패스_12310" data-name="패스 12310" d="M0,0H78.524V10.708H0Z" transform="translate(62.778 320.662)" fill="#ffc823"/>
    <path id="패스_12311" data-name="패스 12311" d="M0,0H39.168V10.708H0Z" transform="translate(154.758 343.149)" fill="#ffc823"/>
    <path id="패스_12309" data-name="패스 12309" d="M-111.349-10.85v1.47h4.074c-.28,1.764-1.862,3.22-4.676,3.976l.742,1.484c3.808-1.064,5.964-3.458,5.964-6.93Zm5.46,10.626c-1.568,0-2.506-.406-2.506-1.2s.938-1.2,2.506-1.2,2.506.406,2.506,1.2S-104.321-.224-105.889-.224Zm0-3.85c-2.6,0-4.326,1.022-4.326,2.646s1.722,2.646,4.326,2.646,4.326-1.022,4.326-2.646S-103.285-4.074-105.889-4.074ZM-101.7-8.68V-11.7h-1.848v7.462h1.848V-7.154h1.708V-8.68Zm8.96,2.828A22.748,22.748,0,0,1-97-5.544V-6.888H-93.2v-4.074h-5.642v1.484h3.822V-8.26h-3.808v4.2h.994a27.2,27.2,0,0,0,5.278-.322Zm-4.62,4.158h6.972V1.218h1.848V-3.164h-8.82Zm6.972-9.982v1.764h-2.072v1.484h2.072v1.274h-2.072v1.47h2.072v1.946h1.848V-11.69Zm11.2,1.344h-2.884V-11.7h-1.862v1.372h-2.856V-8.89H-79.2ZM-84.4-5.95c0-.7.574-1.078,1.4-1.078s1.4.378,1.4,1.078-.588,1.092-1.4,1.092S-84.4-5.236-84.4-5.95Zm4.564,0c0-1.456-1.316-2.478-3.164-2.478s-3.164,1.022-3.164,2.478c0,1.484,1.316,2.492,3.164,2.492S-79.835-4.466-79.835-5.95Zm-3.276,3.192h-1.848V.98h8.778V-.49h-6.93Zm6.468-5V-11.69h-1.848v9.646h1.848V-6.23h1.708V-7.756ZM-68.509-5.4c.308-1.078.616-2.254.882-3.388h.07c.294,1.12.574,2.31.9,3.388l.308,1.134h-2.464ZM-72.093,0h2.1l.728-2.66h3.36L-65.177,0h2.17l-3.332-10.374h-2.436Zm9.954,0h2.072V-10.374h-2.072Zm4.312-10.36v1.47h4.3c-.266,2.856-1.694,4.872-4.984,6.454l.966,1.456c4.578-2.212,5.908-5.432,5.908-9.38Zm8.162-1.344V1.19H-47.8V-11.7Zm14.728,3.15c-2.9-.28-4.3-1.582-4.3-2.828v-.238h-1.9v.238c0,1.246-1.4,2.548-4.3,2.828l.6,1.386a6.275,6.275,0,0,0,4.648-2.254,6.242,6.242,0,0,0,4.634,2.254Zm.574,3.374V-6.636H-46.011V-5.18h4.886v.826h-3.556v1.372H-37.6v.7h-7.07V1.106h9.226V-.28h-7.392v-.728h7.056V-4.354h-3.5V-5.18Zm7.28,3.724V-3.822h4.018v-.924h-7.728v-2.03h7.434V-10.6h-8.6v.938h7.476V-7.7h-7.448v3.878h3.682v2.366h-5.11v.938h11.41v-.938Zm16.506-8.736h-3.136v-1.4h-1.148v1.4h-3.122v.924h7.406Zm-5.614,3.836c0-.826.756-1.372,1.9-1.372s1.918.546,1.918,1.372-.77,1.386-1.918,1.386S-16.191-5.516-16.191-6.356Zm4.914,0c0-1.372-1.218-2.268-3.01-2.268s-3,.9-3,2.268,1.218,2.268,3,2.268S-11.277-4.97-11.277-6.356Zm-5.152,4.312h7V1.05h1.148V-2.982h-8.148ZM-6.419-8.05H-8.281v-3.458H-9.429v7.84h1.148V-7.1h1.862ZM5.215-7.6C2.989-7.882.777-9.268.777-10.822v-.56H-.4v.56c0,1.6-2.2,2.94-4.452,3.22l.42.924A6.467,6.467,0,0,0,.189-9.366,6.493,6.493,0,0,0,4.8-6.678ZM3.241-.056H-2.933v-1.6H3.241Zm0-2.478H-2.933V-4H-4.067V.868H4.375V-4H3.241ZM-5.509-5.8v.924H5.859V-5.8Zm17-4.634H10.353v2.254a6.6,6.6,0,0,1-3.374,5.67l.7.938a6.978,6.978,0,0,0,3.248-4.214,6.819,6.819,0,0,0,3.234,3.976l.686-.924a6.246,6.246,0,0,1-3.36-5.446Zm4.676-1.092V1.064h1.148V-11.522Zm3.934.98V-9.6h4.62c-.238,2.212-2.17,3.99-5.124,4.914l.462.91c3.612-1.134,5.894-3.514,5.894-6.762Zm2.534,7.266H21.483V.756h8.372V-.182H22.631ZM29.309-7.7v-3.808H28.161v9.17h1.148v-4.41h1.848V-7.7Zm8.456-2.464c1.974,0,3.234.588,3.234,1.582s-1.26,1.568-3.234,1.568-3.234-.574-3.234-1.568S35.791-10.164,37.765-10.164Zm0,4.074c2.688,0,4.41-.924,4.41-2.492s-1.722-2.506-4.41-2.506-4.41.938-4.41,2.506S35.077-6.09,37.765-6.09ZM34.7-2.884H33.551V.756h8.638V-.182H34.7Zm-2.618-2.03v.924H43.435v-.924Zm22.792-5.46H51.849v-1.232H50.7v1.232H47.663v.868h7.21ZM49.427-7.182c0-.658.714-1.064,1.848-1.064,1.106,0,1.834.406,1.834,1.064S52.381-6.1,51.275-6.1C50.141-6.1,49.427-6.524,49.427-7.182Zm5.824,2.408a33.378,33.378,0,0,1-3.4.308v-.868C53.291-5.488,54.2-6.16,54.2-7.182c0-1.148-1.176-1.862-2.926-1.862-1.778,0-2.94.714-2.94,1.862,0,1.036.91,1.708,2.366,1.848v.91c-1.2.042-2.352.042-3.346.042l.126.924a49.5,49.5,0,0,0,7.854-.49Zm-6.37,3.22h7.112v2.59h1.148v-3.5h-8.26Zm10.094-6.16H57.141v-3.794H55.993v8.414h1.148V-6.762h1.834Zm4.718.812c2.086-.2,3.962-.994,4.718-2.24.756,1.246,2.632,2.044,4.7,2.24l.364-.868c-2.226-.2-4.228-1.148-4.382-2.408h3.962v-.91h-9.3v.91h3.962c-.168,1.26-2.184,2.212-4.4,2.408Zm10.388,1.54v-.924H62.713v.924h5.11v1.246H64.085v.868h7.406v1.19H64.127V.9H73V.014H65.247V-1.232h7.378V-4.116h-3.64V-5.362Zm7.518.616a7.482,7.482,0,0,0,.14-1.428,7.135,7.135,0,0,0-.182-1.6h2.9v3.024ZM78.617-2.814c-1.2,0-2.044-1.316-2.044-3.36s.84-3.346,2.044-3.346S80.661-8.2,80.661-6.174,79.807-2.814,78.617-2.814Zm5.838-8.708v2.814h-3.22a2.83,2.83,0,0,0-2.618-1.848c-1.834,0-3.136,1.708-3.136,4.382s1.3,4.382,3.136,4.382a2.91,2.91,0,0,0,2.7-2.016h3.136V1.064H85.6V-11.522Zm4.452,6.1a6.348,6.348,0,0,0,4.564-2.87,6.32,6.32,0,0,0,4.564,2.87l.448-.91C96.271-6.65,94.1-8.092,94.1-9.744v-.07h3.934v-.924h-9.17v.924h3.962v.07c0,1.652-2.17,3.094-4.354,3.416Zm10.234,1.05H87.8v.938h5.068V1.036h1.148V-3.43h5.138Zm10.038-4.648a26.81,26.81,0,0,1-.476,5.684l1.148.126a28.308,28.308,0,0,0,.476-5.81v-1.246h-8.806v.938h7.658Zm-3.29,7.35V-6.16h-1.148v4.494h-4.41v.938h11.354v-.938ZM-85.855,14.426a2.074,2.074,0,0,1,2.142-2.142,2.071,2.071,0,0,1,2.128,2.142,2.071,2.071,0,0,1-2.128,2.142A2.074,2.074,0,0,1-85.855,14.426Zm7.9-1.05v2.086h-2.7a3.152,3.152,0,0,0,.168-1.036,3.176,3.176,0,0,0-.168-1.05Zm0,3.01V19.76H-76.8V10.492h-1.162v1.96h-3.192a3.217,3.217,0,0,0-2.562-1.176,3.1,3.1,0,0,0-3.234,3.15,3.1,3.1,0,0,0,3.234,3.15,3.215,3.215,0,0,0,2.576-1.19Zm-5.712,5.432v-3.01h-1.162v3.948h8.386v-.938Zm16.38-5.026a4.4,4.4,0,0,1-3.094-3.976V11.234h-1.148v1.554A4.563,4.563,0,0,1-74.669,17.1l.6.91a5.209,5.209,0,0,0,3.136-3.192A5.281,5.281,0,0,0-67.865,17.7Zm-4.214,2.072h-1.148v3.892h8.33v-.938h-7.182Zm6.636-4.536V10.464h-1.148v9.282h1.148V15.28h1.848v-.952Zm15.862-3.836h-1.148v6.5h1.148Zm-2.688,5.236a4.342,4.342,0,0,1-3.178-3.92v-.952h-1.148v.952a4.561,4.561,0,0,1-3.192,4.158l.588.9a5.331,5.331,0,0,0,3.192-3.122,5.335,5.335,0,0,0,3.164,2.884Zm-4.27,6.258V20.642h6.972V17.618h-8.134v.9h7v1.26H-57.1V22.9h8.526v-.91ZM-40.131,16.4a28.364,28.364,0,0,1-4.984.294v-1.9h4.256V11.234h-5.418v.938h4.3v1.736h-4.256v3.724h.9a28.99,28.99,0,0,0,5.32-.308Zm-4.7,3.416h7.252V23.05h1.162V18.878h-8.414Zm7.252-9.324V12.34h-2.45v.938h2.45v1.68h-2.45v.924h2.45v2.324h1.162V10.492Zm9.016,1.344c1.974,0,3.234.588,3.234,1.582s-1.26,1.568-3.234,1.568-3.234-.574-3.234-1.568S-30.541,11.836-28.567,11.836Zm0,4.074c2.688,0,4.41-.924,4.41-2.492s-1.722-2.506-4.41-2.506-4.41.938-4.41,2.506S-31.255,15.91-28.567,15.91Zm-3.066,3.206h-1.148v3.64h8.638v-.938h-7.49Zm-2.618-2.03v.924H-22.9v-.924Zm17.542,1.666h-.77V15.9h.77Zm0-4.312h-.77V11.472h-1.526v8.75h3.794v-8.75h-1.5Zm4.256,4.312h-.784V15.9h.784Zm0-4.312h-.784V11.472h-1.484v8.75h3.78v-8.75h-1.512Zm5.278.63h-1.26V10.31h-1.82V23.2h1.82V16.6h1.26Zm9.184-1.036h-7.2v4.354h9.31v-1.47H-3.353V15.476H3.829v-4.3H-5.2v1.47h7.21Zm-8.54,6.2v1.512H5.145V20.236Zm19.152-5H11.179a12.056,12.056,0,0,0,.42-3.4H6.545v1.47h3.22a7.189,7.189,0,0,1-3.934,5.922l1.05,1.3A9.045,9.045,0,0,0,10.6,16.722h2.016V22.63h1.722V10.59H12.621ZM15.337,10.3V23.19h1.75V10.3Zm10.43,9h2.744v2.646H25.767Zm3.878,0h1.918v-.924H22.715V19.3h1.918v2.646H22.6v.924h9.072v-.924h-2.03ZM27.713,16.2v-1.6h3.822v-.924H24.143V10.758H22.995v3.85h3.57v1.6h-5.1v.924H32.823V16.2Zm12.614,1.05a7.482,7.482,0,0,0,.14-1.428,7.135,7.135,0,0,0-.182-1.6h2.9v3.024Zm-2.982,1.932c-1.2,0-2.044-1.316-2.044-3.36s.84-3.346,2.044-3.346,2.044,1.316,2.044,3.346S38.535,19.186,37.345,19.186Zm5.838-8.708v2.814h-3.22a2.83,2.83,0,0,0-2.618-1.848c-1.834,0-3.136,1.708-3.136,4.382s1.3,4.382,3.136,4.382a2.91,2.91,0,0,0,2.7-2.016h3.136v4.872h1.148V10.478Zm4.368,4.886c2.072-.238,3.962-1.134,4.648-2.506.7,1.358,2.576,2.268,4.648,2.506l.406-.9c-2.17-.224-4.158-1.274-4.3-2.618h3.892v-.924h-9.3v.924h3.892c-.14,1.344-2.128,2.394-4.312,2.618Zm7.714,6.58H49.077V20.4h6.188Zm0-2.436H49.077V18.052H47.943v4.816H56.4V18.052H55.265ZM46.5,16.148v.924h5.11v1.75h1.162v-1.75h5.1v-.924ZM60.977,11.7H59.829v8.092h1.036a29.833,29.833,0,0,0,6.16-.588l-.126-.98a29.667,29.667,0,0,1-5.922.588Zm7.21-1.218V23.022h1.148V10.478Zm5.068,2.156h4.69v-.952H72.107v8.246H73.1a29.769,29.769,0,0,0,5.936-.448l-.126-.952a30.521,30.521,0,0,1-5.656.42Zm10.052,2.8H81.235V10.478H80.087V23.064h1.148V16.386h2.072Zm1.876,3.472h.882l.168-5.936.042-1.456h-1.3l.042,1.456Zm.434,3.276a.917.917,0,0,0,.924-.966.925.925,0,1,0-.924.966Z" transform="translate(174.778 325.418)" fill="#323c46"/>
    <g id="패스_12307" data-name="패스 12307" transform="translate(150.999 172)" fill="none">
      <path d="M13.653,0H50.6a13.653,13.653,0,1,1,0,27.306H13.653A13.653,13.653,0,0,1,13.653,0Z" stroke="none"/>
      <path d="M 13.65290069580078 1.999994277954102 C 10.54030227661133 1.999994277954102 7.614002227783203 3.212104797363281 5.413063049316406 5.413055419921875 C 3.212112426757812 7.613994598388672 2 10.54030418395996 2 13.65290451049805 C 2 16.76550483703613 3.212112426757812 19.69180488586426 5.413051605224609 21.89275360107422 C 7.614002227783203 24.09369468688965 10.54030227661133 25.30580520629883 13.65290069580078 25.30580520629883 L 50.59606170654297 25.30580520629883 C 53.70866012573242 25.30580520629883 56.63496017456055 24.09369468688965 58.83591079711914 21.89275360107422 C 61.03684997558594 19.69180488586426 62.24896240234375 16.76550483703613 62.24896240234375 13.65290451049805 C 62.24896240234375 10.54030418395996 61.03684997558594 7.613994598388672 58.83589935302734 5.413055419921875 C 56.63496017456055 3.212104797363281 53.70866012573242 1.999994277954102 50.59606170654297 1.999994277954102 L 13.65290069580078 1.999994277954102 M 13.65290069580078 -5.7220458984375e-06 L 50.59606170654297 -5.7220458984375e-06 C 58.1363525390625 -5.7220458984375e-06 64.24896240234375 6.112613677978516 64.24896240234375 13.65290451049805 C 64.24896240234375 21.19319534301758 58.1363525390625 27.30580520629883 50.59606170654297 27.30580520629883 L 13.65290069580078 27.30580520629883 C 6.11260986328125 27.30580520629883 0 21.19319534301758 0 13.65290451049805 C 0 6.112613677978516 6.11260986328125 -5.7220458984375e-06 13.65290069580078 -5.7220458984375e-06 Z" stroke="none" fill="#f5b400"/>
    </g>
    <path id="패스_12308" data-name="패스 12308" d="M-15-5.018c.286-1,.572-2.093.819-3.146h.065c.273,1.04.533,2.145.832,3.146l.286,1.053h-2.288ZM-18.323,0h1.95l.676-2.47h3.12L-11.9,0h2.015L-12.98-9.633h-2.262Zm9.568,0h1.924V-9.633H-8.755Zm5.447-7.046a1.482,1.482,0,0,1,1.521-1.6,1.485,1.485,0,0,1,1.534,1.6A1.489,1.489,0,0,1-1.787-5.434,1.486,1.486,0,0,1-3.308-7.046ZM3.2-7.826v1.547H1.281a2.953,2.953,0,0,0,.091-.767,3.77,3.77,0,0,0-.091-.78Zm0,2.912v2.821H4.921v-8.762H3.2v1.664H.54a3.194,3.194,0,0,0-2.327-.949A3.057,3.057,0,0,0-4.933-7.046,3.06,3.06,0,0,0-1.787-3.939,3.223,3.223,0,0,0,.566-4.914ZM-1.254-.455v-2.5H-2.97V.91H5.194V-.455ZM14.034-5.174a3.71,3.71,0,0,1-2.743-3.653v-1.3H9.549V-8.84a3.918,3.918,0,0,1-2.86,3.887L7.6-3.614A4.658,4.658,0,0,0,10.446-6.2a4.475,4.475,0,0,0,2.7,2.366ZM10.3-2.925H8.587V.91h8.125V-.455H10.3ZM16.3-7.384v-3.471H14.58v8.762H16.3V-5.967h1.586V-7.384Z" transform="translate(183.001 190.748)" fill="#f5b400"/>
    <path id="패스_12033" data-name="패스 12033" d="M-591.825,280.457l-5.921,33.7h44.687l2.22-12.639h-31l1.48-8.426h19.6l2.22-12.639Z" transform="translate(873.859 -48.873)" fill="#00c3e1"/>
    <path id="패스_12034" data-name="패스 12034" d="M-611.08,358.857-613.3,371.5h62.187l2.222-12.639Z" transform="translate(880.664 -83.036)" fill="#00c3e1"/>
    <path id="패스_12035" data-name="패스 12035" d="M-867.169,344.119h62.887l2.222-12.639h-62.887Z" transform="translate(991.71 -71.105)" fill="#00c3e1"/>
    <path id="패스_12036" data-name="패스 12036" d="M-692.827,326.7l2.222-12.639H-737.39l-2.222,12.639h6.541l-2.22,12.639h-7.7l-2.222,12.639h46.785l2.222-12.639h-6.541l2.221-12.639Zm-22.661,12.639h-7.061l2.22-12.639h7.061Z" transform="translate(938.364 -63.514)" fill="#00c3e1"/>
    <path id="패스_12037" data-name="패스 12037" d="M-1021.041,314.057l-6.661,37.917h39.546l6.662-37.917Zm8.5,25.278,2.221-12.639h13.662l-2.22,12.639Z" transform="translate(1061.93 -63.514)" fill="#00c3e1"/>
    <path id="패스_12038" data-name="패스 12038" d="M-917.9,299.416h-8.207l3.333-18.958h-12.8l-10,56.875h12.8l4.444-25.278h8.207l-4.444,25.278h12.8l10-56.875h-12.8Z" transform="translate(1026.004 -48.873)" fill="#00c3e1"/>
    <path id="패스_12039" data-name="패스 12039" d="M-639.391,280.457l-10,56.875h12.8l10-56.875Z" transform="translate(896.45 -48.873)" fill="#00c3e1"/>
    <path id="패스_12040" data-name="패스 12040" d="M-841.313,286.674l13.774,12.433,13.774-12.433,11.175,11.208,8.911-8.937-19.629-19.687-14.23,12.845-14.23-12.845L-861.4,288.945l8.91,8.937Z" transform="translate(989.186 -43.992)" fill="#00c3e1"/>
    <path id="패스_12033-2" data-name="패스 12033" d="M-591.828,280.457l-5.919,33.656h44.669l2.219-12.621H-581.85l1.48-8.414h19.595l2.219-12.621Z" transform="translate(874.6 -48.638)" fill="#00c3e1"/>
    <path id="패스_12034-2" data-name="패스 12034" d="M-611.081,358.857l-2.221,12.621h62.162l2.221-12.621Z" transform="translate(881.408 -82.864)" fill="#00c3e1"/>
    <path id="패스_12035-2" data-name="패스 12035" d="M-867.169,344.1h62.862l2.221-12.621h-62.862Z" transform="translate(992.513 -70.912)" fill="#00c3e1"/>
    <path id="패스_12036-2" data-name="패스 12036" d="M-692.848,326.678l2.221-12.621h-46.767l-2.221,12.621h6.538L-735.3,339.3h-7.7l-2.221,12.621h46.766l2.221-12.621h-6.539l2.22-12.621ZM-715.5,339.3h-7.058l2.219-12.621h7.058Z" transform="translate(939.139 -63.306)" fill="#00c3e1"/>
    <path id="패스_12037-2" data-name="패스 12037" d="M-1021.044,314.057l-6.658,37.863h39.53l6.659-37.863Zm8.5,25.242,2.22-12.621h13.656l-2.219,12.621Z" transform="translate(1062.768 -63.306)" fill="#00c3e1"/>
    <path id="패스_12038-2" data-name="패스 12038" d="M-917.91,299.389h-8.2l3.332-18.932h-12.791l-10,56.794h12.791l4.442-25.242h8.2l-4.442,25.242h12.791l10-56.794h-12.791Z" transform="translate(1026.823 -48.638)" fill="#00c3e1"/>
    <path id="패스_12039-2" data-name="패스 12039" d="M-639.4,280.457l-10,56.794H-636.6l10-56.794Z" transform="translate(897.202 -48.638)" fill="#00c3e1"/>
    <path id="패스_12040-2" data-name="패스 12040" d="M-841.321,286.649l13.768,12.415,13.768-12.415,11.171,11.192,8.907-8.924-19.621-19.659-14.224,12.827-14.225-12.827L-861.4,288.917l8.907,8.924Z" transform="translate(989.986 -43.748)" fill="#00c3e1"/>
    <path id="area" d="M0,0H303V64H0Z" transform="translate(32 225)" fill="#ff5a5a" opacity="0"/>
  </g>
</svg>
