<svg xmlns="http://www.w3.org/2000/svg" width="11.285" height="14.95" viewBox="0 0 11.285 14.95"><g transform="translate(1 1)" opacity="0.6"><rect width="9.285" height="8.511" rx="1" transform="translate(0 4.439)" fill="#225782"/><path d="M1-1H8.285a2,2,0,0,1,2,2V7.511a2,2,0,0,1-2,2H1a2,2,0,0,1-2-2V1A2,2,0,0,1,1-1ZM8.285,7.511V1H1V7.511Z" transform="translate(0 4.439)" fill="#225782"/><path d="M11.605,7.439a1,1,0,0,1-1-1V4.466A1.393,1.393,0,0,0,9.3,3,1.393,1.393,0,0,0,8,4.466V6.439a1,1,0,0,1-2,0V4.466A3.391,3.391,0,0,1,9.3,1a3.391,3.391,0,0,1,3.3,3.466V6.439A1,1,0,0,1,11.605,7.439Z" transform="translate(-4.66 -2)" fill="#225782"/><path d="M1.575,0A1.575,1.575,0,1,1,0,1.575,1.575,1.575,0,0,1,1.575,0Z" transform="translate(3.133 6.647)" fill="#fff"/></g></svg>