<svg data-name="구성 요소 9 – 13" xmlns="http://www.w3.org/2000/svg" width="13.39" height="10.683" viewBox="0 0 13.39 10.683">
    <defs>
        <clipPath id="yshuysq0wa">
            <path data-name="사각형 8898" style="fill:none" d="M0 0h13.39v10.683H0z"/>
        </clipPath>
        <clipPath id="esssi2gewb">
            <path data-name="사각형 8891" style="fill:none" d="M0 0h8.619v.377H0z"/>
        </clipPath>
        <clipPath id="1woap6lfxc">
            <path data-name="사각형 8892" style="fill:none" d="M0 0h4.117v9.547H0z"/>
        </clipPath>
        <clipPath id="12ec7e84ad">
            <path data-name="사각형 8893" style="fill:none" d="M0 0h2.54v6.402H0z"/>
        </clipPath>
        <clipPath id="qjtvpfvbre">
            <path data-name="사각형 8894" style="fill:none" d="M0 0h2.071v1.188H0z"/>
        </clipPath>
        <clipPath id="y2bxmcphcf">
            <path data-name="사각형 8895" style="fill:none" d="M0 0h1.217v1.188H0z"/>
        </clipPath>
        <clipPath id="xdh4yjiyvg">
            <path data-name="사각형 8896" style="fill:none" d="M0 0h6.602v10.601H0z"/>
        </clipPath>
    </defs>
    <g data-name="그룹 14496" style="clip-path:url(#yshuysq0wa)">
        <path data-name="패스 11740" d="M6.735 0 6.55.268 3.883 4.134 0 2.067l2.5 7.146.1.288.016.046h8.4l.011-.033.092-.275L13.39 2.46 9.429 4.134l-.064-.1-.58-.891-.959-1.469L6.788.081z" style="fill:#fdbe11"/>
        <g data-name="그룹 14495">
            <g data-name="그룹 14494" style="clip-path:url(#yshuysq0wa)">
                <g data-name="그룹 14478" style="isolation:isolate;mix-blend-mode:multiply;opacity:.67">
                    <g data-name="그룹 14477">
                        <g data-name="그룹 14476" style="clip-path:url(#esssi2gewb)" transform="translate(2.498 9.17)">
                            <path data-name="패스 11741" d="m33.88 74.719-.092.275-.011.033h-8.4l-.016-.046-.1-.288a.312.312 0 0 1 .156-.043h8.267a.324.324 0 0 1 .2.069" transform="translate(-25.261 -74.65)" style="fill:#f99b1c"/>
                        </g>
                    </g>
                </g>
                <g data-name="그룹 14481" style="mix-blend-mode:soft-light;opacity:.53;isolation:isolate">
                    <g data-name="그룹 14480">
                        <g data-name="그룹 14479" style="clip-path:url(#1woap6lfxc)" transform="translate(3.709)">
                            <path data-name="패스 11742" d="m41.627 1.675-1.039 3.392-.026.085-.142.462-.247.805-.12.391-.133.435-.171.558-.417 1.367-.1.325-.016.052H37.51l.016-.052.1-.325L40.35.268 40.535 0l.053.081z" transform="translate(-37.51)" style="fill:#fff"/>
                        </g>
                    </g>
                </g>
                <g data-name="그룹 14484" style="mix-blend-mode:soft-light;opacity:.53;isolation:isolate">
                    <g data-name="그룹 14483">
                        <g data-name="그룹 14482" style="clip-path:url(#12ec7e84ad)" transform="translate(6.824 3.145)">
                            <path data-name="패스 11743" d="m71.555 26.5-1.572 5.134-.1.325-.016.052h-.853l.016-.052.1-.325.362-1.183.021-.067.413-1.35.11-.359.939-3.065z" transform="translate(-69.015 -25.605)" style="fill:#fff"/>
                        </g>
                    </g>
                </g>
                <path data-name="패스 11744" d="M31.717 77.89c0 .328-.187.594-.419.594h-8.266c-.231 0-.418-.266-.418-.594a.562.562 0 0 1 .362-.588.255.255 0 0 1 .056-.006H31.3a.3.3 0 0 1 .1.019.593.593 0 0 1 .315.575" transform="translate(-20.378 -67.801)" style="fill:#fb3"/>
                <g data-name="그룹 14487" style="opacity:.51;mix-blend-mode:soft-light;isolation:isolate">
                    <g data-name="그룹 14486">
                        <g data-name="그룹 14485" style="clip-path:url(#qjtvpfvbre)" transform="translate(5.358 9.495)">
                            <path data-name="패스 11745" d="m56.256 77.3-.016.052-.348 1.136h-1.707l.348-1.136.016-.052z" transform="translate(-54.185 -77.296)" style="fill:#fff"/>
                        </g>
                    </g>
                </g>
                <g data-name="그룹 14490" style="opacity:.51;mix-blend-mode:soft-light;isolation:isolate">
                    <g data-name="그룹 14489">
                        <g data-name="그룹 14488" style="clip-path:url(#y2bxmcphcf)" transform="translate(8.473 9.495)">
                            <path data-name="패스 11746" d="m86.907 77.3-.016.052-.348 1.136h-.853l.348-1.136.016-.052z" transform="translate(-85.69 -77.296)" style="fill:#fff"/>
                        </g>
                    </g>
                </g>
                <g data-name="그룹 14493" style="opacity:.55;isolation:isolate;mix-blend-mode:multiply">
                    <g data-name="그룹 14492">
                        <g data-name="그룹 14491" style="clip-path:url(#xdh4yjiyvg)" transform="translate(6.787 .081)">
                            <path data-name="패스 11747" d="M73.2 10.669c0 .328-.187.594-.419.594h-4.137V.661l1.038 1.593.958 1.471.58.891.064.1 3.962-1.676-2.273 6.779-.092.275a.593.593 0 0 1 .315.575" transform="translate(-68.644 -.661)" style="fill:#f99b1c"/>
                        </g>
                    </g>
                </g>
            </g>
        </g>
    </g>
</svg>
