<svg data-name="구성 요소 756 – 3" xmlns="http://www.w3.org/2000/svg" width="16.001" height="22" viewBox="0 0 16.001 22">
    <path data-name="합치기 668" d="M-7331.748-7385a2.362 2.362 0 0 1-2.253-2.452v-11.261a2.361 2.361 0 0 1 2.253-2.452h.823v-1.593c0-2.339 2.208-4.242 4.924-4.242s4.924 1.9 4.924 4.242v1.593h.824a2.361 2.361 0 0 1 2.253 2.452v11.261a2.362 2.362 0 0 1-2.253 2.452zm8.226-16.165v-1.593A2.372 2.372 0 0 0-7326-7405a2.371 2.371 0 0 0-2.478 2.242v1.593z" transform="translate(7334 7407)" style="fill:#b1c2d1"/>
    <circle data-name="타원 13599" cx="2.07" cy="2.07" transform="translate(6.032 11.686)" style="fill:#225782" r="2.07"/>
</svg>
