<svg xmlns="http://www.w3.org/2000/svg" xmlns:xlink="http://www.w3.org/1999/xlink" width="286.001" height="123.717" viewBox="0 0 286.001 123.717"><defs><filter id="a" x="0" y="32.805" width="286.001" height="90.912" filterUnits="userSpaceOnUse"><feOffset dx="3" dy="3" input="SourceAlpha"/><feGaussianBlur stdDeviation="3" result="b"/><feFlood flood-opacity="0.161"/><feComposite operator="in" in2="b"/><feComposite in="SourceGraphic"/></filter><clipPath id="c"><rect width="18.217" height="13.795" fill="none"/></clipPath><clipPath id="e"><rect width="11.726" height="0.487" fill="none"/></clipPath><clipPath id="f"><rect width="5.601" height="12.328" fill="none"/></clipPath><clipPath id="g"><rect width="3.456" height="8.267" fill="none"/></clipPath><clipPath id="h"><rect width="2.817" height="1.534" fill="none"/></clipPath><clipPath id="i"><rect width="1.656" height="1.534" fill="none"/></clipPath><clipPath id="j"><rect width="8.983" height="13.69" fill="none"/></clipPath></defs><g transform="translate(-42.999 -131.366)"><g transform="translate(48.999 170.171)"><g transform="matrix(1, 0, 0, 1, -6, -38.81)" filter="url(#a)"><rect width="268.001" height="72.912" rx="36.456" transform="translate(6 38.81)" fill="#fff"/></g></g><path d="M18.452,19.768a7.216,7.216,0,0,0-4.5-2.434V14.2H11.708v3.162A5.261,5.261,0,0,0,7.064,22.79c0,5.988,8.646,5.2,8.646,9.737,0,1.819-1.063,2.91-3.246,2.91a7.485,7.485,0,0,1-4.729-2.015L6.28,35.633a10.027,10.027,0,0,0,5.428,2.406v3.106h2.238v-3.19A5.447,5.447,0,0,0,18.815,32.3c0-6.519-8.646-5.568-8.646-9.653a2.6,2.6,0,0,1,2.91-2.714,4.9,4.9,0,0,1,3.693,1.707ZM21.25,37.7H34.54V34.961H29.392c-1.007,0-2.294.084-3.358.2,4.365-4.169,7.527-8.282,7.527-12.255a5.824,5.824,0,0,0-6.212-6.184c-2.686,0-4.5,1.175-6.268,3.078L22.9,21.587a5.585,5.585,0,0,1,4.057-2.294c2.294,0,3.5,1.539,3.5,3.777,0,3.386-3.134,7.387-9.206,12.759Zm21.993.364c4.029,0,6.659-3.581,6.659-10.744,0-7.107-2.63-10.6-6.659-10.6-4.057,0-6.659,3.47-6.659,10.6C36.583,34.486,39.185,38.067,43.242,38.067Zm0-2.546c-2.1,0-3.581-2.238-3.581-8.2,0-5.9,1.483-8.058,3.581-8.058s3.581,2.154,3.581,8.058C46.824,33.283,45.341,35.521,43.242,35.521Z" transform="translate(97.86 191.404)" fill="#a5bfd5"/><path d="M54.913.365H-.567A.933.933,0,0,1-1.5-.567.933.933,0,0,1-.567-1.5H54.913a.933.933,0,0,1,.933.933A.933.933,0,0,1,54.913.365Z" transform="translate(99.324 219.644)" fill="#a5bfd5"/><path d="M29.806,22.772c2.522,0,4.2-1.406,4.2-3.266a3.469,3.469,0,0,0-2.021-3.249v-.081a3.314,3.314,0,0,0,1.52-2.667c0-1.956-1.439-3.217-3.605-3.217-2.231,0-3.815,1.245-3.815,3.249a3.484,3.484,0,0,0,1.568,2.894v.081a3.328,3.328,0,0,0-1.972,3.039C25.684,21.463,27.446,22.772,29.806,22.772Zm.727-7.291c-1.18-.469-1.924-.986-1.924-1.94a1.158,1.158,0,0,1,1.212-1.261A1.284,1.284,0,0,1,31.18,13.7,2.747,2.747,0,0,1,30.534,15.481Zm-.663,5.286a1.578,1.578,0,0,1-1.73-1.552,2.772,2.772,0,0,1,.808-1.956c1.471.63,2.393,1.083,2.393,2.134A1.308,1.308,0,0,1,29.871,20.768Zm9.393,2c2.538,0,4.268-2.166,4.268-6.3,0-4.106-1.73-6.176-4.268-6.176s-4.252,2.037-4.252,6.176S36.725,22.772,39.263,22.772Zm0-2.231c-.857,0-1.536-.776-1.536-4.074,0-3.282.679-3.961,1.536-3.961s1.552.679,1.552,3.961C40.815,19.766,40.12,20.541,39.263,20.541Zm8.019-2.6c1.762,0,3.055-1.439,3.055-3.848s-1.293-3.8-3.055-3.8-3.039,1.39-3.039,3.8S45.52,17.939,47.282,17.939Zm0-1.584c-.566,0-1.051-.582-1.051-2.263s.485-2.215,1.051-2.215,1.051.533,1.051,2.215S47.848,16.354,47.282,16.354Zm.42,6.418h1.633l6.5-12.48H54.185Zm8.536,0c1.746,0,3.039-1.439,3.039-3.848s-1.293-3.815-3.039-3.815S53.2,16.516,53.2,18.925,54.492,22.772,56.238,22.772Zm0-1.6c-.566,0-1.067-.566-1.067-2.247,0-1.7.5-2.215,1.067-2.215s1.035.517,1.035,2.215C57.273,20.606,56.8,21.172,56.238,21.172Zm12.723,1.6c3.282,0,5.513-2.36,5.513-6.3,0-3.928-2.231-6.176-5.513-6.176s-5.513,2.231-5.513,6.176S65.679,22.772,68.961,22.772Zm0-2.49c-1.584,0-2.554-1.471-2.554-3.815,0-2.328.97-3.7,2.554-3.7s2.57,1.374,2.57,3.7C71.532,18.812,70.545,20.283,68.961,20.283Zm7.34,2.263h2.894V17.955H83.3V15.546H79.194V12.911H83.98V10.518H76.3Zm9.36,0h2.894V17.955h4.106V15.546H88.555V12.911H93.34V10.518H85.661Z" transform="translate(55.05 174.161)" fill="#fa9526"/><g transform="translate(148.39 131.366)"><path d="M170.5,576.619c-5.327-5.854-12.688-15.335-27.136-15.111-11.005.171-16.146-1.437-16.146-1.437s-3.61,0-5.673-1.547c0,0-.516,6.7,4.126,9.281,0,0-11.16,3.662-11.5,23.237-.146,8.3,7.762,19.281,20.266,26.787,9.75,5.853,82.576-23.956,65.95-23.7C188.031,594.326,176.455,583.164,170.5,576.619Z" transform="translate(-114.165 -547.402)" fill="#fff"/><g transform="translate(32.658 0) rotate(19)"><g transform="translate(0 0)" clip-path="url(#c)"><path d="M9.163,0,8.911.346,5.282,5.338,0,2.669,3.4,11.9l.137.371.022.06H14.984L15,12.285l.125-.355,3.093-8.753-5.39,2.161-.087-.127-.789-1.15-1.3-1.9L9.235.1Z" transform="translate(0 0)" fill="#fdbe11"/><g clip-path="url(#c)"><g transform="translate(3.398 11.841)" opacity="0.67" style="mix-blend-mode:multiply;isolation:isolate"><g clip-path="url(#e)"><path d="M11.726.089,11.6.444l-.015.043H.159L.137.427,0,.056A.442.442,0,0,1,.213,0H11.46a.455.455,0,0,1,.266.089" transform="translate(0 0)" fill="#f99b1c"/></g></g><g transform="translate(5.046 0)" opacity="0.53" style="mix-blend-mode:soft-light;isolation:isolate"><g clip-path="url(#f)"><path d="M5.6,2.162,4.188,6.543l-.035.109-.193.6-.336,1.04-.163.5-.181.561-.232.721-.57,1.766-.135.42-.021.067H0l.021-.067.135-.42L3.865.346,4.116,0l.072.1Z" transform="translate(0 0)" fill="#fff"/></g></g><g transform="translate(9.285 4.062)" opacity="0.53" style="mix-blend-mode:soft-light;isolation:isolate"><g clip-path="url(#g)"><path d="M3.456,1.15,1.318,7.78l-.135.42-.021.067H0L.021,8.2l.135-.42L.65,6.252l.029-.087L1.24,4.421l.149-.464L2.667,0Z" transform="translate(0 0)" fill="#fff"/></g></g><path d="M12.386.767c0,.424-.255.767-.569.767H.569C.255,1.534,0,1.191,0,.767A.726.726,0,0,1,.493.007.364.364,0,0,1,.569,0H11.816a.421.421,0,0,1,.141.024.76.76,0,0,1,.429.743" transform="translate(3.042 12.261)" fill="#fb3"/><g transform="translate(7.289 12.261)" opacity="0.51" style="mix-blend-mode:soft-light;isolation:isolate"><g clip-path="url(#h)"><path d="M2.817,0,2.8.067,2.322,1.534H0L.473.067.495,0Z" transform="translate(0 0)" fill="#fff"/></g></g><g transform="translate(11.528 12.261)" opacity="0.51" style="mix-blend-mode:soft-light;isolation:isolate"><g clip-path="url(#i)"><path d="M1.656,0,1.635.067,1.161,1.534H0L.473.067.495,0Z" transform="translate(0 0)" fill="#fff"/></g></g><g transform="translate(9.235 0.105)" opacity="0.55" style="mix-blend-mode:multiply;isolation:isolate"><g clip-path="url(#j)"><path d="M6.193,12.923c0,.424-.255.767-.569.767H0V0L1.413,2.058l1.3,1.9.789,1.15.087.127,5.39-2.161L5.89,11.826l-.126.355a.76.76,0,0,1,.429.743" transform="translate(0 0)" fill="#f99b1c"/></g></g></g></g></g><g transform="translate(19.226 22.111)"><path d="M170.37,596.788h-2.807v-3.711a.933.933,0,1,1,1.865,0v1.845h.941a.933.933,0,1,1,0,1.865Z" transform="translate(-162.187 -590.745)" fill="#225782"/><path d="M190.432,625.134a.933.933,0,0,1-.029-1.865,12.833,12.833,0,0,0,3.4-.721,12.452,12.452,0,0,0,2.985-1.51,10.688,10.688,0,0,0,2.769-2.795.933.933,0,0,1,1.549,1.039v0l-.014.021h0a12.55,12.55,0,0,1-3.273,3.288,15.033,15.033,0,0,1-7.359,2.539Z" transform="translate(-185.161 -613.866)" fill="#225782"/><path d="M.7,2.354a1.008,1.008,0,0,1-.674-1.2.943.943,0,0,1,.9-.765.865.865,0,0,1,.228.03,3.163,3.163,0,0,0,.756.095c.4,0,.606-.085.665-.157A.905.905,0,0,1,3.285,0,.881.881,0,0,1,3.9.256a1.052,1.052,0,0,1,.091,1.4A2.549,2.549,0,0,1,1.9,2.511,4.745,4.745,0,0,1,.7,2.354Z" transform="translate(0 1.218)" fill="#225782"/><path d="M.714,2.562l-.023,0A.9.9,0,0,1,0,1.544.853.853,0,0,1,.784.674a.465.465,0,0,1,.076,0H.873a4.291,4.291,0,0,0,.574.037c.723,0,1.146-.176,1.218-.3A.753.753,0,0,1,3.313,0a.7.7,0,0,1,.481.2,1.088,1.088,0,0,1,.167,1.278,2.362,2.362,0,0,1-1.972,1.1,5.287,5.287,0,0,1-.535.027A6.382,6.382,0,0,1,.714,2.562Z" transform="translate(9.539)" fill="#225782"/></g></g><path d="M39.229,32.057a12.738,12.738,0,0,0-7.611-4.208V22.656H26.38v5.283c-4.88.985-7.79,4.522-7.79,9.625,0,9.133,13.386,9.267,13.386,14.147,0,2.194-1.209,3.268-3.984,3.268-2.328,0-4.566-.94-7.208-2.955L17.292,57.4a17.226,17.226,0,0,0,9.088,3.94v5.059h5.238V61.067c5.327-1.164,7.969-5.014,7.969-9.939,0-9.625-13.431-9.4-13.431-13.923,0-2.238,1.254-3.089,3.626-3.089,2.059,0,3.671.851,5.507,2.507ZM54.047,61.426c6.626,0,12.311-3.492,12.311-9.715,0-4.3-2.731-6.984-6.447-8.1v-.224c3.581-1.433,5.372-4.029,5.372-7.342,0-5.954-4.522-9.178-11.416-9.178a15.655,15.655,0,0,0-10.342,4.119l4.029,4.88c2.015-1.746,3.716-2.776,5.954-2.776,2.462,0,3.805,1.254,3.805,3.537,0,2.641-1.791,4.387-7.476,4.387v5.6c6.984,0,8.506,1.7,8.506,4.566,0,2.507-2.015,3.805-5.1,3.805A10.167,10.167,0,0,1,46.3,51.756L42.631,56.77C45.048,59.59,48.764,61.426,54.047,61.426Zm21.534,0a4.951,4.951,0,1,0-4.745-4.969A4.773,4.773,0,0,0,75.581,61.426Zm19.7-18.4c-2.238,0-4.029-1.3-4.029-4.88,0-3.85,1.791-5.327,3.895-5.327,2.059,0,4.163,1.567,4.835,7.073A5.441,5.441,0,0,1,95.279,43.026ZM84.445,57.441a13.546,13.546,0,0,0,9.8,3.984c6.8,0,13.162-5.6,13.162-17.684s-6.133-16.878-12.446-16.878C89.011,26.864,84,31.072,84,38.146c0,7.163,4.163,10.476,9.76,10.476a8.758,8.758,0,0,0,6.357-3.358c-.313,7.3-3,9.715-6.4,9.715a7.536,7.536,0,0,1-5.1-2.283Zm36.979-14.415c-2.238,0-4.029-1.3-4.029-4.88,0-3.85,1.791-5.327,3.895-5.327,2.059,0,4.163,1.567,4.835,7.073A5.441,5.441,0,0,1,121.424,43.026ZM110.59,57.441a13.546,13.546,0,0,0,9.8,3.984c6.8,0,13.162-5.6,13.162-17.684s-6.133-16.878-12.446-16.878c-5.954,0-10.968,4.208-10.968,11.282,0,7.163,4.163,10.476,9.76,10.476a8.758,8.758,0,0,0,6.357-3.358c-.313,7.3-3,9.715-6.4,9.715a7.536,7.536,0,0,1-5.1-2.283Z" transform="translate(159.534 165.199)" fill="#225782"/></g></svg>