<svg xmlns="http://www.w3.org/2000/svg" xmlns:xlink="http://www.w3.org/1999/xlink" width="320.7" height="123.717" viewBox="0 0 320.7 123.717"><defs><filter id="a" x="0" y="32.805" width="320.7" height="90.912" filterUnits="userSpaceOnUse"><feOffset dx="3" dy="3" input="SourceAlpha"/><feGaussianBlur stdDeviation="3" result="b"/><feFlood flood-opacity="0.161"/><feComposite operator="in" in2="b"/><feComposite in="SourceGraphic"/></filter><clipPath id="c"><rect width="18.217" height="13.795" fill="none"/></clipPath><clipPath id="e"><rect width="11.726" height="0.487" fill="none"/></clipPath><clipPath id="f"><rect width="5.601" height="12.328" fill="none"/></clipPath><clipPath id="g"><rect width="3.456" height="8.267" fill="none"/></clipPath><clipPath id="h"><rect width="2.817" height="1.534" fill="none"/></clipPath><clipPath id="i"><rect width="1.656" height="1.534" fill="none"/></clipPath><clipPath id="j"><rect width="8.983" height="13.69" fill="none"/></clipPath><clipPath id="k"><rect x="-4" y="3" width="86" height="25" fill="none"/></clipPath></defs><g transform="translate(-25.3 -131.366)"><g transform="translate(31.3 170.171)"><g transform="matrix(1, 0, 0, 1, -6, -38.8)" filter="url(#a)"><rect width="302.7" height="72.912" rx="36.456" transform="translate(6 38.8)" fill="#fff"/></g></g><path d="M170.5,576.619c-5.327-5.854-12.688-15.335-27.136-15.111-11.005.171-16.146-1.437-16.146-1.437s-3.61,0-5.673-1.547c0,0-.516,6.7,4.126,9.281,0,0-11.16,3.662-11.5,23.237-.146,8.3,7.762,19.281,20.266,26.787,9.75,5.853,82.576-23.956,65.95-23.7C188.031,594.326,176.455,583.164,170.5,576.619Z" transform="translate(34.225 -416.036)" fill="#fff"/><g transform="translate(181.048 131.366) rotate(19)"><g transform="translate(0 0)" clip-path="url(#c)"><path d="M9.163,0,8.911.346,5.282,5.338,0,2.669,3.4,11.9l.137.371.022.06H14.984L15,12.285l.125-.355,3.093-8.753-5.39,2.161-.087-.127-.789-1.15-1.3-1.9L9.235.1Z" transform="translate(0 0)" fill="#fdbe11"/><g clip-path="url(#c)"><g transform="translate(3.398 11.841)" opacity="0.67" style="mix-blend-mode:multiply;isolation:isolate"><g clip-path="url(#e)"><path d="M11.726.089,11.6.444l-.015.043H.159L.137.427,0,.056A.442.442,0,0,1,.213,0H11.46a.455.455,0,0,1,.266.089" transform="translate(0 0)" fill="#f99b1c"/></g></g><g transform="translate(5.046 0)" opacity="0.53" style="mix-blend-mode:soft-light;isolation:isolate"><g clip-path="url(#f)"><path d="M5.6,2.162,4.188,6.543l-.035.109-.193.6-.336,1.04-.163.5-.181.561-.232.721-.57,1.766-.135.42-.021.067H0l.021-.067.135-.42L3.865.346,4.116,0l.072.1Z" transform="translate(0 0)" fill="#fff"/></g></g><g transform="translate(9.285 4.062)" opacity="0.53" style="mix-blend-mode:soft-light;isolation:isolate"><g clip-path="url(#g)"><path d="M3.456,1.15,1.318,7.78l-.135.42-.021.067H0L.021,8.2l.135-.42L.65,6.252l.029-.087L1.24,4.421l.149-.464L2.667,0Z" transform="translate(0 0)" fill="#fff"/></g></g><path d="M12.386.767c0,.424-.255.767-.569.767H.569C.255,1.534,0,1.191,0,.767A.726.726,0,0,1,.493.007.364.364,0,0,1,.569,0H11.816a.421.421,0,0,1,.141.024.76.76,0,0,1,.429.743" transform="translate(3.042 12.261)" fill="#fb3"/><g transform="translate(7.289 12.261)" opacity="0.51" style="mix-blend-mode:soft-light;isolation:isolate"><g clip-path="url(#h)"><path d="M2.817,0,2.8.067,2.322,1.534H0L.473.067.495,0Z" transform="translate(0 0)" fill="#fff"/></g></g><g transform="translate(11.528 12.261)" opacity="0.51" style="mix-blend-mode:soft-light;isolation:isolate"><g clip-path="url(#i)"><path d="M1.656,0,1.635.067,1.161,1.534H0L.473.067.495,0Z" transform="translate(0 0)" fill="#fff"/></g></g><g transform="translate(9.235 0.105)" opacity="0.55" style="mix-blend-mode:multiply;isolation:isolate"><g clip-path="url(#j)"><path d="M6.193,12.923c0,.424-.255.767-.569.767H0V0L1.413,2.058l1.3,1.9.789,1.15.087.127,5.39-2.161L5.89,11.826l-.126.355a.76.76,0,0,1,.429.743" transform="translate(0 0)" fill="#f99b1c"/></g></g></g></g></g><g transform="translate(167.615 153.477)"><path d="M170.37,596.788h-2.807v-3.711a.933.933,0,1,1,1.865,0v1.845h.941a.933.933,0,1,1,0,1.865Z" transform="translate(-162.187 -590.745)" fill="#225782"/><path d="M190.432,625.134a.933.933,0,0,1-.029-1.865,12.833,12.833,0,0,0,3.4-.721,12.452,12.452,0,0,0,2.985-1.51,10.688,10.688,0,0,0,2.769-2.795.933.933,0,0,1,1.549,1.039v0l-.014.021h0a12.55,12.55,0,0,1-3.273,3.288,15.033,15.033,0,0,1-7.359,2.539Z" transform="translate(-185.161 -613.866)" fill="#225782"/><path d="M.7,2.354a1.008,1.008,0,0,1-.674-1.2.943.943,0,0,1,.9-.765.865.865,0,0,1,.228.03,3.163,3.163,0,0,0,.756.095c.4,0,.606-.085.665-.157A.905.905,0,0,1,3.285,0,.881.881,0,0,1,3.9.256a1.052,1.052,0,0,1,.091,1.4A2.549,2.549,0,0,1,1.9,2.511,4.745,4.745,0,0,1,.7,2.354Z" transform="translate(0 1.218)" fill="#225782"/><path d="M.714,2.562l-.023,0A.9.9,0,0,1,0,1.544.853.853,0,0,1,.784.674a.465.465,0,0,1,.076,0H.873a4.291,4.291,0,0,0,.574.037c.723,0,1.146-.176,1.218-.3A.753.753,0,0,1,3.313,0a.7.7,0,0,1,.481.2,1.088,1.088,0,0,1,.167,1.278,2.362,2.362,0,0,1-1.972,1.1,5.287,5.287,0,0,1-.535.027A6.382,6.382,0,0,1,.714,2.562Z" transform="translate(9.539)" fill="#225782"/></g><path d="M-11.656,2.912h1.568L-6.12-12.9H-7.672ZM5.528-6.544v1.28H8.136v.432h2.112V-13.36H8.136v6.816ZM2.536-11.76c1.056,0,1.712.272,1.712.832,0,.544-.656.816-1.712.816S.808-10.384.808-10.928C.808-11.488,1.48-11.76,2.536-11.76Zm0,3.008c2.192,0,3.68-.848,3.68-2.176,0-1.36-1.488-2.208-3.68-2.208-2.208,0-3.68.848-3.68,2.208C-1.144-9.6.328-8.752,2.536-8.752ZM1.416-4.816H3.528V-6.848C4.824-6.912,6.12-7.024,7.4-7.2L7.272-8.5c-3.088.32-6.592.32-9.408.32l.208,1.44c1.04,0,2.176,0,3.344-.016Zm.64,4.64V-.928h8.192V-4.384H-.04V-2.96H8.168v.7H-.024v3.52H10.584V-.176Z" transform="translate(305 220)" fill="#225782"/><path d="M-48.6-11.3l-.756,5.436h-.18L-50.4-11.3l-.216-1.116h2.2Zm-7.956-3.6.756-5.9h.144l.792,5.9Zm-4.068,3.6-.828,5.436H-61.6l-.756-5.436-.18-1.116h2.124Zm20.736-3.6h-3.744l2.664-12.024h-5.256L-48.06-14.9h-3.024l-1.98-10.368H-58.1L-59.976-14.9h-2.952l-1.944-12.024h-5.616L-67.644-14.9h-1.044l-2.88.252v2.232h4.5L-64.152,0h5.112l2.088-11.88.072-.54H-54.5l.072.54L-52.272,0h5.328l2.772-12.42h4.284ZM-36.72,0H-19.8V-5.184h-4.824V-26.82H-29.34a17.446,17.446,0,0,1-6.624,2.448v3.96h4.932V-5.184H-36.72ZM-9.144.5C-4,.5.54-2.988.54-9c0-5.8-3.816-8.46-8.352-8.46a6.794,6.794,0,0,0-2.772.54l.4-4.536h9.54V-26.82H-15.7l-.684,13.284,2.808,1.836A5.932,5.932,0,0,1-9.792-13c2.3,0,3.924,1.44,3.924,4.14,0,2.772-1.62,4.176-4.212,4.176a8.152,8.152,0,0,1-5.508-2.556L-18.5-3.2A12.762,12.762,0,0,0-9.144.5ZM3.924,8.172c5-1.512,7.668-5,7.668-9.648,0-3.744-1.548-5.976-4.356-5.976a3.691,3.691,0,0,0-4,3.6,3.591,3.591,0,0,0,3.816,3.6H7.38c.036,1.98-1.62,3.924-4.752,5ZM22.536.5C28.188.5,32-4.32,32-13.536c0-9.18-3.816-13.752-9.468-13.752s-9.5,4.536-9.5,13.752S16.884.5,22.536.5Zm0-4.968c-1.908,0-3.456-1.728-3.456-9.072,0-7.308,1.548-8.856,3.456-8.856s3.42,1.548,3.42,8.856C25.956-6.192,24.444-4.464,22.536-4.464ZM42.66.5c5.652,0,9.468-4.824,9.468-14.04,0-9.18-3.816-13.752-9.468-13.752s-9.5,4.536-9.5,13.752S37.008.5,42.66.5Zm0-4.968c-1.908,0-3.456-1.728-3.456-9.072,0-7.308,1.548-8.856,3.456-8.856s3.42,1.548,3.42,8.856C46.08-6.192,44.568-4.464,42.66-4.464ZM62.784.5c5.652,0,9.468-4.824,9.468-14.04,0-9.18-3.816-13.752-9.468-13.752s-9.5,4.536-9.5,13.752S57.132.5,62.784.5Zm0-4.968c-1.908,0-3.456-1.728-3.456-9.072,0-7.308,1.548-8.856,3.456-8.856s3.42,1.548,3.42,8.856C66.2-6.192,64.692-4.464,62.784-4.464Z" transform="translate(219 221)" fill="#225782"/><g transform="translate(-388.517 -98.26)"><g transform="translate(442.517 295.26)" clip-path="url(#k)" style="isolation:isolate"><text transform="translate(40 23)" fill="#a5bfd5" font-size="20" font-family="NotoSansCJKkr-Medium, Noto Sans CJK KR" font-weight="500" letter-spacing="-0.025em"><tspan x="-39.98" y="0">￦30,000</tspan></text></g><path d="M80,1H0A1,1,0,0,1-1,0,1,1,0,0,1,0-1H80a1,1,0,0,1,1,1A1,1,0,0,1,80,1Z" transform="translate(443.017 310.76)" fill="#a5bfd5"/></g></g></svg>