<svg xmlns="http://www.w3.org/2000/svg" xmlns:xlink="http://www.w3.org/1999/xlink" width="165" height="20" viewBox="0 0 165 20"><defs><clipPath id="a"><rect width="12.746" height="9.652" fill="none"/></clipPath><clipPath id="c"><rect width="8.204" height="0.341" fill="none"/></clipPath><clipPath id="d"><rect width="3.919" height="8.626" fill="none"/></clipPath><clipPath id="e"><rect width="2.418" height="5.784" fill="none"/></clipPath><clipPath id="f"><rect width="1.971" height="1.073" fill="none"/></clipPath><clipPath id="g"><rect width="1.159" height="1.073" fill="none"/></clipPath><clipPath id="h"><rect width="6.285" height="9.578" fill="none"/></clipPath></defs><g transform="translate(-105 -62)"><path d="M10,0H78a10,10,0,0,1,0,20H10A10,10,0,0,1,10,0Z" transform="translate(182 62)" fill="#225782"/><g transform="translate(187.612 66.352)" clip-path="url(#a)"><path d="M6.411,0,6.235.242,3.7,3.735,0,1.867,2.378,8.324l.1.26.016.042h7.994l.011-.03.088-.248,2.164-6.124L8.975,3.735l-.061-.089-.552-.8L7.45,1.513,6.461.073Z" transform="translate(0 0)" fill="#fdbe11"/><g clip-path="url(#a)"><g transform="translate(2.378 8.285)" opacity="0.67" style="mix-blend-mode:multiply;isolation:isolate"><g clip-path="url(#c)"><path d="M33.465,74.712l-.088.248-.011.03H25.372l-.016-.042-.1-.26a.309.309,0,0,1,.149-.039h7.869a.319.319,0,0,1,.186.062" transform="translate(-25.261 -74.65)" fill="#f99b1c"/></g></g><g transform="translate(3.531)" opacity="0.53" style="mix-blend-mode:soft-light;isolation:isolate"><g clip-path="url(#d)"><path d="M41.429,1.513,40.44,4.578l-.024.076-.135.418-.235.727-.114.353-.126.393-.162.5-.4,1.235-.095.294-.015.047H37.51l.015-.047.095-.294L40.214.242,40.39,0l.05.073Z" transform="translate(-37.51 0)" fill="#fff"/></g></g><g transform="translate(6.496 2.842)" opacity="0.53" style="mix-blend-mode:soft-light;isolation:isolate"><g clip-path="url(#e)"><path d="M71.433,26.409l-1.5,4.639-.095.294-.015.047h-.812l.015-.047.095-.294.345-1.069.02-.061.393-1.22.1-.325.893-2.769Z" transform="translate(-69.015 -25.605)" fill="#fff"/></g></g><path d="M31.28,77.833c0,.3-.178.537-.4.537H23.012c-.22,0-.4-.24-.4-.537a.508.508,0,0,1,.345-.531.255.255,0,0,1,.053-.005h7.869a.3.3,0,0,1,.1.017.532.532,0,0,1,.3.52" transform="translate(-20.485 -68.717)" fill="#fb3"/><g transform="translate(5.1 8.579)" opacity="0.51" style="mix-blend-mode:soft-light;isolation:isolate"><g clip-path="url(#f)"><path d="M56.156,77.3l-.015.047-.331,1.026H54.185l.331-1.026.015-.047Z" transform="translate(-54.185 -77.296)" fill="#fff"/></g></g><g transform="translate(8.065 8.579)" opacity="0.51" style="mix-blend-mode:soft-light;isolation:isolate"><g clip-path="url(#g)"><path d="M86.848,77.3l-.015.047L86.5,78.369H85.69l.331-1.026.015-.047Z" transform="translate(-85.69 -77.296)" fill="#fff"/></g></g><g transform="translate(6.461 0.073)" opacity="0.55" style="mix-blend-mode:multiply;isolation:isolate"><g clip-path="url(#h)"><path d="M72.977,9.7c0,.3-.178.537-.4.537H68.644V.661l.989,1.44.912,1.329.552.8.061.089L74.929,2.81,72.765,8.935l-.088.248a.532.532,0,0,1,.3.52" transform="translate(-68.644 -0.661)" fill="#f99b1c"/></g></g></g></g><path d="M3.978,4.718a3.852,3.852,0,0,1,2.632.748,2.671,2.671,0,0,1,.826,2.086A3.32,3.32,0,0,1,7.1,9.034a2.558,2.558,0,0,1-1.137,1.118,4.6,4.6,0,0,1-2.164.429H2.873V14H1.209V4.718ZM3.874,6.1h-1V9.2h.754a2.8,2.8,0,0,0,1.566-.37,1.356,1.356,0,0,0,.553-1.216,1.4,1.4,0,0,0-.455-1.144A2.2,2.2,0,0,0,3.874,6.1Zm8.918.728q.169,0,.377.02t.338.045L13.364,8.41q-.13-.026-.319-.045a3.178,3.178,0,0,0-.318-.02,2.258,2.258,0,0,0-.975.215,1.729,1.729,0,0,0-.735.656,2.083,2.083,0,0,0-.28,1.131V14H9.1V6.954h1.261L10.6,8.176h.078a2.952,2.952,0,0,1,.858-.956A2.09,2.09,0,0,1,12.792,6.824Zm4.589,0a2.991,2.991,0,0,1,2.242.845,3.224,3.224,0,0,1,.826,2.353v.832H15.8a2.147,2.147,0,0,0,.533,1.488,1.858,1.858,0,0,0,1.4.526,5.045,5.045,0,0,0,1.222-.136,6.541,6.541,0,0,0,1.118-.4v1.313a4.8,4.8,0,0,1-1.079.364,6.629,6.629,0,0,1-1.339.117,4.047,4.047,0,0,1-1.833-.4,2.873,2.873,0,0,1-1.241-1.2,4.063,4.063,0,0,1-.448-2.009,3.883,3.883,0,0,1,.891-2.756A3.083,3.083,0,0,1,17.381,6.824Zm0,1.209a1.426,1.426,0,0,0-1.073.423,1.967,1.967,0,0,0-.475,1.255h3.029a2,2,0,0,0-.37-1.2A1.3,1.3,0,0,0,17.381,8.033ZM30.173,6.824a2.428,2.428,0,0,1,1.8.611,2.73,2.73,0,0,1,.6,1.976V14H30.94V9.723q0-1.573-1.2-1.573a1.347,1.347,0,0,0-1.222.559,2.989,2.989,0,0,0-.364,1.625V14H26.52V9.723q0-1.573-1.209-1.573a1.278,1.278,0,0,0-1.235.624,3.8,3.8,0,0,0-.338,1.781V14H22.1V6.954h1.261l.234.923h.091a1.946,1.946,0,0,1,.884-.8,2.8,2.8,0,0,1,1.17-.253,3.056,3.056,0,0,1,1.332.26,1.768,1.768,0,0,1,.826.832h.13a1.924,1.924,0,0,1,.91-.832A3.007,3.007,0,0,1,30.173,6.824Zm5.278-2.587a1.093,1.093,0,0,1,.637.189.756.756,0,0,1,.273.669.775.775,0,0,1-.273.676,1.149,1.149,0,0,1-1.28,0,.783.783,0,0,1-.266-.676.765.765,0,0,1,.266-.669A1.086,1.086,0,0,1,35.451,4.237Zm.819,2.717V14H34.632V6.954Zm8.346,0V14H43.329l-.221-.91H43.03a1.949,1.949,0,0,1-.936.793,3.271,3.271,0,0,1-1.261.247,2.646,2.646,0,0,1-1.852-.611,2.542,2.542,0,0,1-.67-1.963v-4.6h1.638v4.277a1.873,1.873,0,0,0,.312,1.183,1.19,1.19,0,0,0,.988.39,1.446,1.446,0,0,0,1.359-.624,3.519,3.519,0,0,0,.37-1.781V6.954Zm10.166-.13a2.428,2.428,0,0,1,1.8.611,2.73,2.73,0,0,1,.6,1.976V14H55.549V9.723q0-1.573-1.2-1.573a1.347,1.347,0,0,0-1.222.559,2.989,2.989,0,0,0-.364,1.625V14H51.129V9.723q0-1.573-1.209-1.573a1.278,1.278,0,0,0-1.235.624,3.8,3.8,0,0,0-.338,1.781V14H46.709V6.954H47.97l.234.923h.091a1.946,1.946,0,0,1,.884-.8,2.8,2.8,0,0,1,1.17-.253,3.056,3.056,0,0,1,1.333.26,1.768,1.768,0,0,1,.826.832h.13a1.924,1.924,0,0,1,.91-.832A3.007,3.007,0,0,1,54.782,6.824Z" transform="translate(205 62)" fill="#fff"/><path d="M43.073,15.475,44.981,4.643H47.62a4.9,4.9,0,0,1,1.721-.31A4.952,4.952,0,1,1,46.3,13.189l-.4,2.287Zm4.1-6.19a2.164,2.164,0,1,0,2.164-2.167A2.17,2.17,0,0,0,47.177,9.285Zm12.587,0a4.943,4.943,0,0,1,8-3.9l.677-3.843h2.825L69.082,13.929H66.429a4.947,4.947,0,0,1-6.665-4.644Zm2.78,0A2.165,2.165,0,1,0,64.71,7.119,2.171,2.171,0,0,0,62.544,9.285Zm-7.758,4.644,1.635-9.286h2.826l-1.637,9.286Zm-15.77,0,.826-4.691c.264-1.5.005-2.62-1.239-2.739a1.552,1.552,0,0,0-1.7,1.228l-1.093,6.2H32.988l2.18-12.382h2.826l-.545,3.1a6.828,6.828,0,0,1,1.7-.31c2.832,0,4.108,1.567,3.671,4.044l-.978,5.552Zm-12.212,0,1.09-6.192H26.526l.435-2.476h1.37L28.712,3.1h2.825l-.382,2.166h1.99l-.437,2.476H30.719l-1.09,6.192Zm-5.562,0,.042-.242A4.954,4.954,0,1,1,22.8,5.076l.076-.433H25.7l-1.636,9.286ZM17.593,8.976a2.164,2.164,0,1,0,2.165-2.167A2.168,2.168,0,0,0,17.593,8.976Zm-7.7,4.954,1.262-7.168L7.284,8.4,4.3,5.575,2.826,13.929H0L2.453,0,7.874,5.125,14.781,2.2,12.715,13.929ZM56.626,1.857a1.7,1.7,0,1,1,1.7,1.7A1.7,1.7,0,0,1,56.626,1.857Z" transform="translate(105.977 64)" fill="#225782" stroke="rgba(0,0,0,0)" stroke-width="1"/><path d="M0,0H74V16H0Z" transform="translate(105 64)" fill="#225782" opacity="0"/></g></svg>