<svg xmlns="http://www.w3.org/2000/svg" width="296" height="270" viewBox="0 0 296 270">
    <g data-name="그룹 15763">
        <path data-name="사각형 9696" style="fill:#f0fafc" d="M0 0h132v40H0z"/>
        <text data-name="Free Topic (Question Bank)" transform="translate(16 7)" style="font-size:13px;font-family:NotoSans-Bold,Noto Sans;font-weight:700;letter-spacing:-.01em;fill:#225782"><tspan x="0" y="14">Free Topic</tspan><tspan style="font-size:9px;font-family:NotoSans-SemiBold,Noto Sans;font-weight:600"><tspan x="0" y="26">(Question Bank)</tspan></tspan></text>
        <path data-name="사각형 9696" transform="translate(0 44)" style="fill:#f0fafc" d="M0 0h132v40H0z"/>
        <text data-name="Math Camera (Picture &amp; Learn)" transform="translate(16 50)" style="font-size:13px;font-family:NotoSans-Bold,Noto Sans;font-weight:700;letter-spacing:-.01em;fill:#225782"><tspan x="0" y="14">Math Camera</tspan><tspan style="font-size:9px;font-family:NotoSans-SemiBold,Noto Sans;font-weight:600"><tspan x="0" y="26">(Picture &amp; Learn)</tspan></tspan></text>
        <path data-name="사각형 9696" transform="translate(0 88)" style="fill:#f0fafc" d="M0 0h132v50H0z"/>
        <text data-name="Silicon Valley Based Diagnosis (Unlimited Times)" transform="translate(16 91)" style="font-size:13px;font-family:NotoSans-Bold,Noto Sans;font-weight:700;letter-spacing:-.01em;fill:#225782"><tspan x="0" y="14">Silicon Valley</tspan><tspan x="0" y="27">Based Diagnosis</tspan><tspan style="font-size:9px;font-family:NotoSans-SemiBold,Noto Sans;font-weight:600"><tspan x="0" y="40">(Unlimited Times)</tspan></tspan></text>
        <path data-name="사각형 9696" transform="translate(0 142)" style="fill:#f0fafc" d="M0 0h132v40H0z"/>
        <text data-name="My Course (Personalized AI Tutor)" transform="translate(16 147)" style="font-size:13px;font-family:NotoSans-Bold,Noto Sans;font-weight:700;letter-spacing:-.01em;fill:#225782"><tspan x="0" y="14">My Course</tspan><tspan style="font-size:9px;font-family:NotoSans-SemiBold,Noto Sans;font-weight:600"><tspan x="0" y="26">(Personalized AI Tutor)</tspan></tspan></text>
        <path data-name="사각형 9696" transform="translate(0 186)" style="fill:#f0fafc" d="M0 0h132v40H0z"/>
        <text data-name="UNLIMITED Problems" transform="translate(16 192)" style="font-size:13px;font-family:NotoSans-Bold,Noto Sans;font-weight:700;letter-spacing:-.01em;fill:#225782"><tspan x="0" y="14">UNLIMITED</tspan><tspan x="0" y="26">Problems</tspan></text>
        <path data-name="사각형 9696" transform="translate(0 230)" style="fill:#f0fafc" d="M0 0h132v40H0z"/>
        <text data-name="20+ Math games coming soon!" transform="translate(16 236)" style="font-size:13px;font-family:NotoSans-Bold,Noto Sans;font-weight:700;letter-spacing:-.01em;fill:#225782"><tspan x="0" y="14">20+ Math games</tspan><tspan x="0" y="26">coming soon!</tspan></text>
        <path data-name="사각형 9696" transform="translate(136)" style="fill:#f0fafc" d="M0 0h78v40H0z"/>
        <g data-name="그룹 15663">
            <g data-name="그룹 14967" transform="translate(165 11)">
                <ellipse data-name="타원 7" cx="8.727" cy="8.72" rx="8.727" ry="8.72" style="fill:#ffc823"/>
                <path data-name="모양 6" d="m311.774 353.369-4.99-4.989a.756.756 0 0 1 1.069-1.069l3.921 3.92 9.12-9.117a.756.756 0 1 1 1.069 1.07z" transform="translate(-301.379 -340.426)" style="fill:#225782"/>
                <path data-name="모양 6 - 윤곽선" d="m311.774 354.076-5.344-5.342a1.256 1.256 0 1 1 1.776-1.777l3.568 3.566 8.766-8.763a1.256 1.256 0 1 1 1.776 1.777zm-4.456-6.487a.256.256 0 0 0-.181.437l4.637 4.635 9.835-9.832a.256.256 0 1 0-.362-.362l-9.473 9.47-4.275-4.273a.254.254 0 0 0-.181-.074z" transform="translate(-301.379 -340.426)" style="fill:#225782"/>
            </g>
        </g>
        <path data-name="사각형 9696" transform="translate(218)" style="fill:#f0fafc" d="M0 0h78v40H0z"/>
        <g data-name="그룹 15663">
            <g data-name="그룹 14967" transform="translate(247 11)">
                <ellipse data-name="타원 7" cx="8.727" cy="8.72" rx="8.727" ry="8.72" style="fill:#ffc823"/>
                <path data-name="모양 6" d="m311.774 353.369-4.99-4.989a.756.756 0 0 1 1.069-1.069l3.921 3.92 9.12-9.117a.756.756 0 1 1 1.069 1.07z" transform="translate(-301.379 -340.426)" style="fill:#225782"/>
                <path data-name="모양 6 - 윤곽선" d="m311.774 354.076-5.344-5.342a1.256 1.256 0 1 1 1.776-1.777l3.568 3.566 8.766-8.763a1.256 1.256 0 1 1 1.776 1.777zm-4.456-6.487a.256.256 0 0 0-.181.437l4.637 4.635 9.835-9.832a.256.256 0 1 0-.362-.362l-9.473 9.47-4.275-4.273a.254.254 0 0 0-.181-.074z" transform="translate(-301.379 -340.426)" style="fill:#225782"/>
            </g>
        </g>
        <path data-name="사각형 9696" transform="translate(136 44)" style="fill:#f0fafc" d="M0 0h78v40H0z"/>
        <g data-name="그룹 15663">
            <g data-name="그룹 14967" transform="translate(165 55)">
                <ellipse data-name="타원 7" cx="8.727" cy="8.72" rx="8.727" ry="8.72" style="fill:#ffc823"/>
                <path data-name="모양 6" d="m311.774 353.369-4.99-4.989a.756.756 0 0 1 1.069-1.069l3.921 3.92 9.12-9.117a.756.756 0 1 1 1.069 1.07z" transform="translate(-301.379 -340.426)" style="fill:#225782"/>
                <path data-name="모양 6 - 윤곽선" d="m311.774 354.076-5.344-5.342a1.256 1.256 0 1 1 1.776-1.777l3.568 3.566 8.766-8.763a1.256 1.256 0 1 1 1.776 1.777zm-4.456-6.487a.256.256 0 0 0-.181.437l4.637 4.635 9.835-9.832a.256.256 0 1 0-.362-.362l-9.473 9.47-4.275-4.273a.254.254 0 0 0-.181-.074z" transform="translate(-301.379 -340.426)" style="fill:#225782"/>
            </g>
        </g>
        <path data-name="사각형 9696" transform="translate(218 44)" style="fill:#f0fafc" d="M0 0h78v40H0z"/>
        <g data-name="그룹 15663">
            <g data-name="그룹 14967" transform="translate(247 55)">
                <ellipse data-name="타원 7" cx="8.727" cy="8.72" rx="8.727" ry="8.72" style="fill:#ffc823"/>
                <path data-name="모양 6" d="m311.774 353.369-4.99-4.989a.756.756 0 0 1 1.069-1.069l3.921 3.92 9.12-9.117a.756.756 0 1 1 1.069 1.07z" transform="translate(-301.379 -340.426)" style="fill:#225782"/>
                <path data-name="모양 6 - 윤곽선" d="m311.774 354.076-5.344-5.342a1.256 1.256 0 1 1 1.776-1.777l3.568 3.566 8.766-8.763a1.256 1.256 0 1 1 1.776 1.777zm-4.456-6.487a.256.256 0 0 0-.181.437l4.637 4.635 9.835-9.832a.256.256 0 1 0-.362-.362l-9.473 9.47-4.275-4.273a.254.254 0 0 0-.181-.074z" transform="translate(-301.379 -340.426)" style="fill:#225782"/>
            </g>
        </g>
        <g data-name="그룹 15664">
            <path data-name="사각형 9696" style="fill:#f0fafc" d="M0 0h78v50H0z" transform="translate(136 88)"/>
        </g>
        <path data-name="사각형 9696" transform="translate(218 88)" style="fill:#f0fafc" d="M0 0h78v50H0z"/>
        <g data-name="그룹 15663">
            <g data-name="그룹 14967" transform="translate(247 103.877)">
                <ellipse data-name="타원 7" cx="8.727" cy="8.72" rx="8.727" ry="8.72" style="fill:#ffc823"/>
                <path data-name="모양 6" d="m311.774 353.369-4.99-4.989a.756.756 0 0 1 1.069-1.069l3.921 3.92 9.12-9.117a.756.756 0 1 1 1.069 1.07z" transform="translate(-301.379 -340.426)" style="fill:#225782"/>
                <path data-name="모양 6 - 윤곽선" d="m311.774 354.076-5.344-5.342a1.256 1.256 0 1 1 1.776-1.777l3.568 3.566 8.766-8.763a1.256 1.256 0 1 1 1.776 1.777zm-4.456-6.487a.256.256 0 0 0-.181.437l4.637 4.635 9.835-9.832a.256.256 0 1 0-.362-.362l-9.473 9.47-4.275-4.273a.254.254 0 0 0-.181-.074z" transform="translate(-301.379 -340.426)" style="fill:#225782"/>
            </g>
        </g>
        <g data-name="그룹 15664">
            <path data-name="사각형 9696" transform="translate(136 142)" style="fill:#f0fafc" d="M0 0h78v40H0z"/>
        </g>
        <path data-name="사각형 9696" transform="translate(218 142)" style="fill:#f0fafc" d="M0 0h78v40H0z"/>
        <g data-name="그룹 15663">
            <g data-name="그룹 14967" transform="translate(247 153)">
                <ellipse data-name="타원 7" cx="8.727" cy="8.72" rx="8.727" ry="8.72" style="fill:#ffc823"/>
                <path data-name="모양 6" d="m311.774 353.369-4.99-4.989a.756.756 0 0 1 1.069-1.069l3.921 3.92 9.12-9.117a.756.756 0 1 1 1.069 1.07z" transform="translate(-301.379 -340.426)" style="fill:#225782"/>
                <path data-name="모양 6 - 윤곽선" d="m311.774 354.076-5.344-5.342a1.256 1.256 0 1 1 1.776-1.777l3.568 3.566 8.766-8.763a1.256 1.256 0 1 1 1.776 1.777zm-4.456-6.487a.256.256 0 0 0-.181.437l4.637 4.635 9.835-9.832a.256.256 0 1 0-.362-.362l-9.473 9.47-4.275-4.273a.254.254 0 0 0-.181-.074z" transform="translate(-301.379 -340.426)" style="fill:#225782"/>
            </g>
        </g>
        <g data-name="그룹 15664">
            <path data-name="사각형 9696" transform="translate(136 186)" style="fill:#f0fafc" d="M0 0h78v40H0z"/>
        </g>
        <path data-name="사각형 9696" transform="translate(218 186)" style="fill:#f0fafc" d="M0 0h78v40H0z"/>
        <g data-name="그룹 15663">
            <g data-name="그룹 14967" transform="translate(247 197)">
                <ellipse data-name="타원 7" cx="8.727" cy="8.72" rx="8.727" ry="8.72" style="fill:#ffc823"/>
                <path data-name="모양 6" d="m311.774 353.369-4.99-4.989a.756.756 0 0 1 1.069-1.069l3.921 3.92 9.12-9.117a.756.756 0 1 1 1.069 1.07z" transform="translate(-301.379 -340.426)" style="fill:#225782"/>
                <path data-name="모양 6 - 윤곽선" d="m311.774 354.076-5.344-5.342a1.256 1.256 0 1 1 1.776-1.777l3.568 3.566 8.766-8.763a1.256 1.256 0 1 1 1.776 1.777zm-4.456-6.487a.256.256 0 0 0-.181.437l4.637 4.635 9.835-9.832a.256.256 0 1 0-.362-.362l-9.473 9.47-4.275-4.273a.254.254 0 0 0-.181-.074z" transform="translate(-301.379 -340.426)" style="fill:#225782"/>
            </g>
        </g>
        <g data-name="그룹 15664">
            <path data-name="사각형 9696" transform="translate(136 230)" style="fill:#f0fafc" d="M0 0h78v40H0z"/>
        </g>
        <path data-name="사각형 9696" transform="translate(218 230)" style="fill:#f0fafc" d="M0 0h78v40H0z"/>
        <g data-name="그룹 15663">
            <g data-name="그룹 14967" transform="translate(247 241)">
                <ellipse data-name="타원 7" cx="8.727" cy="8.72" rx="8.727" ry="8.72" style="fill:#ffc823"/>
                <path data-name="모양 6" d="m311.774 353.369-4.99-4.989a.756.756 0 0 1 1.069-1.069l3.921 3.92 9.12-9.117a.756.756 0 1 1 1.069 1.07z" transform="translate(-301.379 -340.426)" style="fill:#225782"/>
                <path data-name="모양 6 - 윤곽선" d="m311.774 354.076-5.344-5.342a1.256 1.256 0 1 1 1.776-1.777l3.568 3.566 8.766-8.763a1.256 1.256 0 1 1 1.776 1.777zm-4.456-6.487a.256.256 0 0 0-.181.437l4.637 4.635 9.835-9.832a.256.256 0 1 0-.362-.362l-9.473 9.47-4.275-4.273a.254.254 0 0 0-.181-.074z" transform="translate(-301.379 -340.426)" style="fill:#225782"/>
            </g>
        </g>
    </g>
</svg>
