<svg xmlns="http://www.w3.org/2000/svg" xmlns:xlink="http://www.w3.org/1999/xlink" width="307.612" height="268.758" viewBox="0 0 307.612 268.758"><defs><filter id="a" x="0" y="34.366" width="307.612" height="234.392" filterUnits="userSpaceOnUse"><feOffset dy="3" input="SourceAlpha"/><feGaussianBlur stdDeviation="3" result="b"/><feFlood flood-opacity="0.161"/><feComposite operator="in" in2="b"/><feComposite in="SourceGraphic"/></filter><clipPath id="c"><rect width="18.217" height="13.795" fill="none"/></clipPath><clipPath id="e"><rect width="11.726" height="0.487" fill="none"/></clipPath><clipPath id="f"><rect width="5.601" height="12.328" fill="none"/></clipPath><clipPath id="g"><rect width="3.456" height="8.267" fill="none"/></clipPath><clipPath id="h"><rect width="2.817" height="1.534" fill="none"/></clipPath><clipPath id="i"><rect width="1.656" height="1.534" fill="none"/></clipPath><clipPath id="j"><rect width="8.983" height="13.69" fill="none"/></clipPath></defs><g transform="translate(-26.194 -155.367)"><g transform="matrix(1, 0, 0, 1, 26.19, 155.37)" filter="url(#a)"><path d="M24,0H265.612a24,24,0,0,1,24,24V192.392a24,24,0,0,1-24,24H24a24,24,0,0,1-24-24V24A24,24,0,0,1,24,0Z" transform="translate(9 40.37)" fill="#fff"/></g><g transform="translate(52.531 219.062)"><ellipse cx="9.696" cy="9.689" rx="9.696" ry="9.689" transform="translate(0 0)" fill="#ffc823"/><path d="M312.353,354.644l-5.545-5.543A.84.84,0,1,1,308,347.913l4.357,4.355,10.133-10.129a.84.84,0,1,1,1.188,1.188Z" transform="translate(-300.803 -340.263)" fill="#fff"/></g><g transform="translate(52.531 297.001)"><ellipse cx="9.696" cy="9.689" rx="9.696" ry="9.689" transform="translate(0 0)" fill="#ffc823"/><path d="M312.353,354.644l-5.545-5.543A.84.84,0,1,1,308,347.913l4.357,4.355,10.133-10.129a.84.84,0,1,1,1.188,1.188Z" transform="translate(-300.803 -340.263)" fill="#fff"/></g><path d="M5.954,5.913c1.56,0,2.561.468,2.561,1.326s-1,1.339-2.561,1.339S3.38,8.11,3.38,7.239,4.381,5.913,5.954,5.913Zm0,4.03c2.548,0,4.329-1.053,4.329-2.7,0-1.625-1.781-2.691-4.329-2.691S1.625,5.614,1.625,7.239C1.625,8.89,3.393,9.943,5.954,9.943Zm5.447.9H.559v1.378H5.083v3.913H6.8V12.218h4.6Zm2.86-1.053h3.887V5.159H12.493V6.524h3.9V8.435H12.506v4.927h1.079a32.835,32.835,0,0,0,5.876-.416l-.182-1.391a29.962,29.962,0,0,1-5.018.39Zm5.85-5.655V16.144h1.716V4.132Zm8.58,7.839c-.9,0-1.5-.949-1.5-2.73s.6-2.717,1.5-2.717,1.495.949,1.495,2.717S29.575,11.971,28.691,11.971Zm0-6.994c-1.82,0-3.146,1.638-3.146,4.264s1.326,4.29,3.146,4.29,3.146-1.651,3.146-4.29S30.5,4.977,28.691,4.977Zm7.9,3.679H34.853V4.145H33.137V16.118h1.716V10.073H36.6Zm8.4-4.524V16.144h1.716V4.132Zm-4.719.845c-1.807,0-3.146,1.638-3.146,4.264s1.339,4.29,3.146,4.29,3.146-1.651,3.146-4.29S42.081,4.977,40.274,4.977Zm0,1.547c.884,0,1.5.949,1.5,2.717s-.611,2.73-1.5,2.73-1.495-.949-1.495-2.73S39.39,6.524,40.274,6.524Zm14.5,2.3h-2.34V6.264h2.34Zm1.69-3.913H50.752V10.19h5.707Zm3.523,7.839V11.412H51.961v1.339H54.99c-.247.91-1.391,1.781-3.549,2.028l.624,1.3a5.372,5.372,0,0,0,3.913-2,5.355,5.355,0,0,0,3.9,2.015l.624-1.3c-2.132-.26-3.276-1.157-3.549-2.041Zm-.156-6.006v-2.6H58.11v6.7h1.716V8.149h1.586v-1.4ZM62.66,9.462c2.2-.143,3.705-.741,4.446-1.664.754.923,2.249,1.521,4.446,1.664l.507-1.287c-2.587-.143-3.744-.871-3.952-1.664h3.38V5.185H67.964V4.145H66.248v1.04h-3.5V6.511h3.367c-.208.793-1.365,1.521-3.952,1.664Zm6.89,5.174h-4.9V13.505h4.9Zm2.977-3.393V9.891H61.711v1.352h4.537v.91H62.972v3.822H71.24V12.153H67.964v-.91Zm8.788.52h1.716V4.145H81.315V6.771H79.781V8.136h1.534V9.163h-1.56v1.365h1.56Zm-1.69-6.539h-2.34V4.054H75.569v1.17H73.06V6.576h6.565Zm-4.407,4c0-.624.481-.962,1.209-.962s1.209.338,1.209.962-.494.962-1.209.962S75.218,9.852,75.218,9.228Zm4,0c0-1.326-1.157-2.236-2.8-2.236s-2.808.91-2.808,2.236,1.157,2.236,2.808,2.236S79.222,10.554,79.222,9.228Zm-.234,5.59c-1.482,0-2.288-.247-2.288-.793s.806-.793,2.288-.793,2.288.234,2.288.793S80.457,14.818,78.988,14.818Zm0-2.9c-2.522,0-4.108.78-4.108,2.106s1.586,2.093,4.108,2.093,4.1-.78,4.1-2.093S81.51,11.919,78.988,11.919ZM93.678,5.2H91.013V4.08H89.284V5.2H86.632V6.55h7.046ZM88.855,9.124c0-.6.52-.9,1.3-.9s1.3.3,1.3.9-.533.91-1.3.91S88.855,9.735,88.855,9.124Zm4.238,0c0-1.3-1.209-2.2-2.938-2.2s-2.938.9-2.938,2.2,1.222,2.21,2.938,2.21S93.093,10.437,93.093,9.124Zm-5.018,4.394h6.266v2.613h1.716V12.14H88.075Zm9.568-6.292H96.057V4.158H94.341v7.488h1.716v-3h1.586Zm10.582.273c-2.691-.3-3.991-1.651-3.991-2.86V4.275h-1.768v.364c0,1.222-1.3,2.548-3.991,2.86l.6,1.326a5.82,5.82,0,0,0,4.277-2.236,5.772,5.772,0,0,0,4.264,2.236Zm-2.522,7.15h-4.8v-1.04h4.8Zm0-2.327h-4.8v-1H99.2v4.654h8.19V11.321H105.7ZM97.942,9.371v1.352h10.816V9.371ZM117.9,10.892a26.045,26.045,0,0,0,.325-4.589V5.328H112.06V6.693h4.472a24.38,24.38,0,0,1-.312,4.056ZM115.284,8.76h-1.69V12.3c-.754.013-1.482.013-2.145.013l.156,1.4a45.7,45.7,0,0,0,7.189-.481L118.7,12c-1.092.13-2.262.208-3.419.247Zm7.293.195h-1.612V4.132h-1.716V16.1h1.716v-5.72h1.612Zm6.786-1.924V8.422h1.794v2.847h1.716V4.145h-1.716V7.031Zm.715,2.574a3.672,3.672,0,0,1-2.7-3.367H129.7V4.86h-6.435V6.238h2.353A3.988,3.988,0,0,1,122.8,9.917l.871,1.352a4.676,4.676,0,0,0,2.86-2.652,4.525,4.525,0,0,0,2.717,2.327Zm-1.248,5.226c-1.573,0-2.392-.325-2.392-1s.819-1,2.392-1,2.379.325,2.379,1S130.39,14.831,128.83,14.831Zm0-3.3c-2.548,0-4.108.845-4.108,2.3s1.56,2.3,4.108,2.3,4.1-.845,4.1-2.3S131.365,11.529,128.83,11.529Zm6.565.2h1.248l.273-4.8.065-1.807h-1.924l.065,1.807Zm.624,3.458a1.249,1.249,0,0,0,0-2.5,1.25,1.25,0,0,0,0,2.5Z" transform="translate(81.537 297)" fill="#225782"/><g transform="translate(52.531 332.322)"><ellipse cx="9.696" cy="9.689" rx="9.696" ry="9.689" transform="translate(0 0)" fill="#ffc823"/><path d="M312.353,354.644l-5.545-5.543A.84.84,0,1,1,308,347.913l4.357,4.355,10.133-10.129a.84.84,0,1,1,1.188,1.188Z" transform="translate(-300.803 -340.263)" fill="#fff"/></g><path d="M.559,15H7.007V13.388H4.927c-.455,0-1.092.052-1.573.1,1.755-1.716,3.2-3.588,3.2-5.33A2.822,2.822,0,0,0,3.523,5.2,3.862,3.862,0,0,0,.468,6.654l1.04,1.04a2.517,2.517,0,0,1,1.768-.988,1.374,1.374,0,0,1,1.443,1.56c0,1.482-1.547,3.289-4.16,5.629Zm10.283.182c1.963,0,3.25-1.716,3.25-5.031S12.805,5.2,10.842,5.2,7.579,6.823,7.579,10.151,8.879,15.182,10.842,15.182Zm0-1.495c-.832,0-1.456-.832-1.456-3.536S10.01,6.68,10.842,6.68s1.443.78,1.443,3.471S11.674,13.687,10.842,13.687Zm4.186-8.06V6.992h3.029a6.59,6.59,0,0,1-3.64,5.486l1,1.2c3.341-1.95,4.329-4.693,4.329-8.047Zm8.164-1.482V8.656H22.126v-4.2h-1.6V15.611h1.6V10.034h1.066v6.084H24.83V4.145Zm13.195-.013V16.144H38.1V4.132Zm-4.719.845c-1.807,0-3.146,1.638-3.146,4.264s1.339,4.29,3.146,4.29,3.146-1.651,3.146-4.29S33.475,4.977,31.668,4.977Zm0,1.547c.884,0,1.495.949,1.495,2.717s-.611,2.73-1.495,2.73-1.5-.949-1.5-2.73S30.784,6.524,31.668,6.524ZM46.553,9.449a3.51,3.51,0,0,1-2.691-3.432V4.8H42.12V5.874a3.905,3.905,0,0,1-2.808,3.887l.9,1.352a4.681,4.681,0,0,0,2.808-2.574,4.4,4.4,0,0,0,2.639,2.236Zm-1.547,5.343c-1.534,0-2.353-.312-2.353-.988s.819-.975,2.353-.975,2.34.312,2.34.975S46.527,14.792,45.006,14.792Zm0-3.289c-2.5,0-4.056.858-4.056,2.3s1.56,2.314,4.056,2.314,4.043-.858,4.043-2.314S47.489,11.5,45.006,11.5Zm3.913-4.576V4.158H47.2V11.23h1.716V8.344h1.586V6.927Zm5.733-1.989a3.046,3.046,0,0,0-3.289,2.951,3.316,3.316,0,0,0,6.591,0A3.058,3.058,0,0,0,54.652,4.938Zm0,1.469a1.488,1.488,0,1,1-1.625,1.482A1.473,1.473,0,0,1,54.652,6.407Zm4.42-2.275V16.144h1.716V4.132Zm-7.995,9.581a38.591,38.591,0,0,0,7.449-.546l-.1-1.235a53.847,53.847,0,0,1-7.566.39ZM74.854,8.4c-2.717-.377-4.1-1.937-4.1-3.328V4.5H68.926v.572c0,1.4-1.365,2.951-4.1,3.328l.65,1.378A5.9,5.9,0,0,0,69.849,7.2,5.872,5.872,0,0,0,74.2,9.774Zm.39,2.262H64.428v1.391h4.511v4.082h1.716V12.049h4.589ZM82.771,5.2H80.106V4.08H78.377V5.2H75.725V6.55h7.046ZM77.948,9.124c0-.6.52-.9,1.3-.9s1.3.3,1.3.9-.533.91-1.3.91S77.948,9.735,77.948,9.124Zm4.238,0c0-1.3-1.209-2.2-2.938-2.2s-2.938.9-2.938,2.2,1.222,2.21,2.938,2.21S82.186,10.437,82.186,9.124Zm-5.018,4.394h6.266v2.613H85.15V12.14H77.168Zm9.568-6.292H85.15V4.158H83.434v7.488H85.15v-3h1.586Zm8.749,1.5H94.146a11.2,11.2,0,0,0,.39-3.159H89.843V6.927h2.99a6.676,6.676,0,0,1-3.653,5.5l.975,1.209A8.4,8.4,0,0,0,93.613,10.1h1.872v5.486h1.6V4.4h-1.6Zm2.522-4.589V16.1h1.625V4.132Zm10.855.013v6.786h1.729V4.145Zm-6.24,7.319v4.511h7.969V11.464Zm6.292,1.339v1.833h-4.6V12.8Zm-4.836-8.112a3,3,0,0,0-3.263,2.886,3.282,3.282,0,0,0,6.513,0A2.986,2.986,0,0,0,104.078,4.691Zm0,1.43a1.455,1.455,0,1,1-1.586,1.456A1.438,1.438,0,0,1,104.078,6.121Zm11.089,2.808c2.236-.117,3.744-.663,4.485-1.547.754.884,2.262,1.43,4.485,1.547l.481-1.261c-2.4-.1-3.575-.676-3.913-1.352h3.328V5.081H120.51V4.132h-1.716v.949h-3.5V6.316h3.3c-.325.676-1.5,1.248-3.9,1.352Zm9.893,1.56V9.228H114.283v1.261h4.524V11.2h-3.315v1.235h6.578v.572H115.5v3.016h8.567V14.792h-6.864v-.624h6.552V11.2h-3.237v-.715Zm5.148-5.421h-1.716V6.81c0,2.327-.988,4.641-3.081,5.538l1.027,1.417a5.792,5.792,0,0,0,2.938-3.562,5.47,5.47,0,0,0,2.834,3.276l.975-1.391a5.489,5.489,0,0,1-2.977-5.278Zm3.562-.936V16.144h1.716V4.132ZM144.4,10.476a10.445,10.445,0,0,0,.065-1.144,8.284,8.284,0,0,0-.078-1.17h1.053v2.314Zm-2.522,1.6c-.676,0-1.066-.91-1.066-2.743s.39-2.73,1.066-2.73,1.053.9,1.053,2.73S142.545,12.075,141.882,12.075Zm3.562-5.291h-1.378a2.379,2.379,0,0,0-2.184-1.794c-1.6,0-2.6,1.638-2.6,4.342s1,4.355,2.6,4.355a2.409,2.409,0,0,0,2.2-1.82h1.365v3.705h1.6V4.34h-1.6Zm2.379-2.652V16.1h1.625V4.132Zm9.165,2.9V8.422h1.794v2.847H160.5V4.145h-1.716V7.031ZM157.7,9.6A3.672,3.672,0,0,1,155,6.238h2.327V4.86h-6.435V6.238h2.353a3.988,3.988,0,0,1-2.821,3.679l.871,1.352a4.676,4.676,0,0,0,2.86-2.652,4.525,4.525,0,0,0,2.717,2.327Zm-1.248,5.226c-1.573,0-2.392-.325-2.392-1s.819-1,2.392-1,2.379.325,2.379,1S158.015,14.831,156.455,14.831Zm0-3.3c-2.548,0-4.108.845-4.108,2.3s1.56,2.3,4.108,2.3,4.1-.845,4.1-2.3S158.99,11.529,156.455,11.529Z" transform="translate(81.537 333.156)" fill="#225782"/><g transform="translate(52.531 256.815)"><ellipse cx="9.696" cy="9.689" rx="9.696" ry="9.689" transform="translate(0 0)" fill="#ffc823"/><path d="M312.353,354.644l-5.545-5.543A.84.84,0,1,1,308,347.913l4.357,4.355,10.133-10.129a.84.84,0,1,1,1.188,1.188Z" transform="translate(-300.803 -340.263)" fill="#fff"/></g><path d="M7.605,5.2H4.94V4.08H3.211V5.2H.559V6.55H7.605ZM2.782,9.124c0-.6.52-.9,1.3-.9s1.3.3,1.3.9-.533.91-1.3.91S2.782,9.735,2.782,9.124Zm4.238,0c0-1.3-1.209-2.2-2.938-2.2s-2.938.9-2.938,2.2,1.222,2.21,2.938,2.21S7.02,10.437,7.02,9.124ZM2,13.518H8.268v2.613H9.984V12.14H2ZM11.57,7.226H9.984V4.158H8.268v7.488H9.984v-3H11.57ZM22.152,7.5c-2.691-.3-3.991-1.651-3.991-2.86V4.275H16.393v.364c0,1.222-1.3,2.548-3.991,2.86L13,8.825a5.82,5.82,0,0,0,4.277-2.236,5.772,5.772,0,0,0,4.264,2.236Zm-2.522,7.15h-4.8v-1.04h4.8Zm0-2.327h-4.8v-1h-1.7v4.654h8.19V11.321H19.63ZM11.869,9.371v1.352H22.685V9.371Zm19.955,1.521A26.044,26.044,0,0,0,32.149,6.3V5.328H25.987V6.693h4.472a24.38,24.38,0,0,1-.312,4.056ZM29.211,8.76h-1.69V12.3c-.754.013-1.482.013-2.145.013l.156,1.4a45.7,45.7,0,0,0,7.189-.481L32.63,12c-1.092.13-2.262.208-3.419.247Zm7.293.195H34.892V4.132H33.176V16.1h1.716v-5.72H36.5ZM43.29,7.031V8.422h1.794v2.847H46.8V4.145H45.084V7.031ZM44.005,9.6a3.672,3.672,0,0,1-2.7-3.367h2.327V4.86H37.193V6.238h2.353a3.988,3.988,0,0,1-2.821,3.679l.871,1.352a4.676,4.676,0,0,0,2.86-2.652,4.525,4.525,0,0,0,2.717,2.327Zm-1.248,5.226c-1.573,0-2.392-.325-2.392-1s.819-1,2.392-1,2.379.325,2.379,1S44.317,14.831,42.757,14.831Zm0-3.3c-2.548,0-4.108.845-4.108,2.3s1.56,2.3,4.108,2.3,4.1-.845,4.1-2.3S45.292,11.529,42.757,11.529Zm11.687-.637A26.044,26.044,0,0,0,54.769,6.3V5.328H48.607V6.693h4.472a24.38,24.38,0,0,1-.312,4.056ZM51.831,8.76h-1.69V12.3c-.754.013-1.482.013-2.145.013l.156,1.4a45.7,45.7,0,0,0,7.189-.481L55.25,12c-1.092.13-2.262.208-3.419.247Zm7.293.195H57.512V4.132H55.8V16.1h1.716v-5.72h1.612Zm12.519-4.8H69.927V10.19h1.716Zm-2.587,4.55a3.513,3.513,0,0,1-2.8-3.38v-.9H64.519v.9A3.723,3.723,0,0,1,61.659,8.9l.832,1.339a4.68,4.68,0,0,0,2.925-2.47,4.48,4.48,0,0,0,2.821,2.275ZM65.39,14.7V13.96h6.266V10.723H63.674v1.313h6.279v.7H63.687v3.289h8.268V14.7ZM79.131,9.566a21.123,21.123,0,0,1-3.952.286V8.6H78.7V4.821H73.463V6.2h3.549V7.33H73.476v3.9H74.4a25.258,25.258,0,0,0,4.9-.3Zm-4.29,3.861h6.474v2.7h1.716V12.062h-8.19Zm6.474-9.269V5.8H79.391V7.174h1.924V8.357H79.391V9.722h1.924v1.807h1.716V4.145Zm8.138,2.223h5.161V9.553H89.453ZM92.9,13.336V10.9h3.393V5.029H87.776V10.9h3.406v2.431h-4.55v1.391H97.474V13.336Zm14.638-4.953h-6.474V6.147h6.344V4.782h-8.1V9.748h8.229Zm1.248,2.535H97.929v1.391h4.537v3.8h1.716v-3.8h4.6ZM120.939,8.8a12.963,12.963,0,0,0,.377-3.471V4.587h-4.277V5.952h2.613a11.973,11.973,0,0,1-.377,2.665Zm-5.421,0a9.643,9.643,0,0,0,.624-3.679V4.587h-3.705V5.952h2.015a9.354,9.354,0,0,1-.585,2.626Zm-.962,4.277h4.771v1.56h-4.771Zm-1.69,2.9H121V11.724h-8.138Zm5.148-6.552V7.434h-1.677V9.423h-4.758v1.365h10.777V9.423ZM132.249,8.8a12.963,12.963,0,0,0,.377-3.471V4.587h-4.277V5.952h2.613a11.974,11.974,0,0,1-.377,2.665Zm-5.421,0a9.643,9.643,0,0,0,.624-3.679V4.587h-3.705V5.952h2.015a9.354,9.354,0,0,1-.585,2.626Zm-.962,4.277h4.771v1.56h-4.771Zm-1.69,2.9h8.138V11.724h-8.138Zm5.148-6.552V7.434h-1.677V9.423h-4.758v1.365h10.777V9.423Zm8.671,2.847a1.362,1.362,0,0,1-1.43-1.469,1.424,1.424,0,1,1,2.847,0A1.358,1.358,0,0,1,137.995,12.27Zm0-4.316A2.866,2.866,0,1,0,141.05,10.8,2.863,2.863,0,0,0,137.995,7.954Zm.845-3.627h-1.716V5.939h-2.691V7.3h7.1V5.939H138.84Zm3.536-.195V16.1h1.716V4.132ZM155.532,8.11h-4.667V7.031h4.667Zm1.7-3.588h-1.7V5.744h-4.667V4.522h-1.7V9.449h8.073Zm-6.487,8.1h-1.716V15.91h8.4V14.545h-6.682Zm-2.977-2.34v1.352h4.719v1.885h1.716V11.633h4.42V10.281Zm18.473-.715a3.642,3.642,0,0,1-2.678-3.575V4.756h-1.742V5.887a3.881,3.881,0,0,1-2.808,3.861l.9,1.352a4.654,4.654,0,0,0,2.795-2.548,4.469,4.469,0,0,0,2.639,2.34Zm-5.3,3.6h6.448v2.964H169.1V11.815H160.94Zm6.448-9.022V6.381H165.2V7.772h2.184v3.5H169.1V4.145Zm10.075,1.261h-2.678V4.132h-1.729V5.406H170.4V6.745h7.046Zm-4.836,4.069c0-.65.533-1,1.3-1s1.3.351,1.3,1-.546,1.014-1.3,1.014S172.627,10.138,172.627,9.475Zm4.238,0c0-1.352-1.222-2.3-2.938-2.3s-2.938.949-2.938,2.3c0,1.378,1.222,2.314,2.938,2.314S176.865,10.853,176.865,9.475Zm-3.042,2.964h-1.716V15.91h8.151V14.545h-6.435ZM179.829,7.8V4.145h-1.716V13.1h1.716V9.215h1.586V7.8Zm6.578,1.989h3.887V5.159h-5.655V6.524h3.9V8.435h-3.887v4.927h1.079a32.835,32.835,0,0,0,5.876-.416l-.182-1.391a29.962,29.962,0,0,1-5.018.39Zm5.85-5.655V16.144h1.716V4.132ZM199.5,6.5h2.444V9.891H199.5Zm2.08,6.89V11.256h3.653V9.891h-1.586V6.5h1.625V5.133h-9.1V6.5h1.625V9.891h-1.56v1.365h3.627v2.132h-4.537v1.378h10.842V13.388ZM216.32,10.32h-6.669V8.981h6.305V7.655h-6.305V6.394h6.578V5.016h-8.32v6.656h8.411Zm-9.685,3.029V14.74h10.842V13.349Zm12.532-1.625h1.248l.273-4.8.065-1.807h-1.924l.065,1.807Zm.624,3.458a1.249,1.249,0,0,0,0-2.5,1.25,1.25,0,0,0,0,2.5Z" transform="translate(81.537 258.043)" fill="#225782"/><g transform="translate(52.531 370.996)"><ellipse cx="9.696" cy="9.689" rx="9.696" ry="9.689" transform="translate(0 0)" fill="#ffc823"/><path d="M312.353,354.644l-5.545-5.543A.84.84,0,1,1,308,347.913l4.357,4.355,10.133-10.129a.84.84,0,1,1,1.188,1.188Z" transform="translate(-300.803 -340.263)" fill="#fff"/></g><path d="M2.834,6.576H6.539V5.211H1.118v8.047h.975a27.058,27.058,0,0,0,5.226-.351L7.15,11.516a25.182,25.182,0,0,1-4.316.338ZM8.892,4.145V8.279H5.967V9.657H8.892v6.5h1.716V4.145Zm8.385,1.573c1.638,0,2.574.351,2.574,1.04S18.915,7.8,17.277,7.8s-2.561-.338-2.561-1.04S15.652,5.718,17.277,5.718Zm0,3.406c2.639,0,4.342-.9,4.342-2.366s-1.7-2.366-4.342-2.366-4.329.9-4.329,2.366S14.651,9.124,17.277,9.124Zm5.408,2V9.774H11.869v1.352h4.537v1.053H13.065v1.339h6.6v2.613h1.716V12.179H18.122V11.126ZM32.11,7.694H29.653V5.9H32.11Zm-4.16,0H26.507V9.059h8.736V7.694h-1.43V5.9h1.521V4.548H26.429V5.9H27.95Zm5.33,6.331c0,.572-.806.832-2.418.832s-2.405-.26-2.405-.832.793-.832,2.405-.832S33.28,13.453,33.28,14.025Zm3.016-2.86V9.813H25.48v1.352h4.55v.78c-2.093.156-3.315.884-3.315,2.08,0,1.339,1.547,2.093,4.147,2.093s4.16-.754,4.16-2.093c0-1.183-1.209-1.911-3.276-2.067v-.793Zm8.359-2.626H39.728V7.3h4.927ZM46.345,4.6h-1.69V5.965H39.728V4.6h-1.7V9.9h8.32Zm1.287,6.435H36.79V12.4h4.524v3.731H43.03V12.4h4.6Zm3.926,1.235a1.352,1.352,0,0,1-1.4-1.456,1.362,1.362,0,0,1,1.4-1.469A1.349,1.349,0,0,1,52.949,10.8,1.346,1.346,0,0,1,51.558,12.27Zm0-4.316A2.864,2.864,0,1,0,54.574,10.8,2.856,2.856,0,0,0,51.558,7.954Zm.845-3.6H50.687v1.56H48.035V7.278H55V5.913H52.4Zm6.812,4.472H57.5V4.145H55.783V16.118H57.5V10.242h1.716Zm9.516,3.224a27.7,27.7,0,0,0,.481-5.733V5.172h-8.7V6.537H67.5a25.016,25.016,0,0,1-.481,5.317ZM64.961,13.3V9.176H63.245V13.3H59.423v1.378H70.252V13.3ZM75.192,6.641h3.874V5.25H73.489v8.021H74.5a29.808,29.808,0,0,0,5.525-.39l-.169-1.417a29.762,29.762,0,0,1-4.667.377Zm8.944,1.924H82.394V4.145H80.678v12h1.716V9.982h1.742ZM86.1,7.707a1.578,1.578,0,1,1,1.573,1.456A1.435,1.435,0,0,1,86.1,7.707Zm4.81,0a3.262,3.262,0,0,0-6.487,0,3.264,3.264,0,0,0,6.487,0Zm-1.066,7.072c-1.534,0-2.353-.325-2.353-1.027s.819-1.027,2.353-1.027,2.34.338,2.34,1.027S91.364,14.779,89.843,14.779Zm0-3.393c-2.483,0-4.056.884-4.056,2.366s1.573,2.366,4.056,2.366,4.043-.871,4.043-2.366S92.313,11.386,89.843,11.386ZM95.29,7.018v-1.4H93.756V4.145H92.04v6.981h1.716V9.618H95.29v-1.4H93.756v-1.2Zm7.41-1.612h-2.678V4.132H98.293V5.406H95.641V6.745h7.046ZM97.864,9.475c0-.65.533-1,1.3-1s1.3.351,1.3,1-.546,1.014-1.3,1.014S97.864,10.138,97.864,9.475Zm4.238,0c0-1.352-1.222-2.3-2.938-2.3s-2.938.949-2.938,2.3c0,1.378,1.222,2.314,2.938,2.314S102.1,10.853,102.1,9.475ZM99.06,12.439H97.344V15.91H105.5V14.545H99.06ZM105.066,7.8V4.145H103.35V13.1h1.716V9.215h1.586V7.8Zm5.1-.819.195,1.417,6.695-.3c-.052.455-.13.923-.234,1.456l1.69.117a17.065,17.065,0,0,0,.338-3.939V4.6h-8.372V5.965h6.669c0,.286,0,.585-.013.871Zm2.08,5.408h-1.716v3.562h8.515V14.571h-6.8Zm2.743-2.106V8.825h-1.716v1.456h-3.991v1.352h10.777V10.281Zm15.782-6.136h-1.625v8.944h1.625Zm-3.978,8.684h1.6V4.379h-1.6V7.408h-1.17V8.773h1.17Zm-.832-3.016a19.691,19.691,0,0,1-3.276.26V8.864h2.431V7.577h-2.431V6.42h2.847V5.068h-4.5v6.357h.819a22.086,22.086,0,0,0,4.251-.273Zm-1.443,4.732V12.14H122.8v3.77h8.268V14.545Zm8.359-2.743a6,6,0,0,0,4.42-2.561,6,6,0,0,0,4.42,2.561l.637-1.391c-2.717-.377-4.056-1.833-4.173-3.25h3.6V5.8h-3.627V4.327h-1.716V5.8h-3.627V7.161h3.6c-.117,1.417-1.456,2.873-4.173,3.25Zm-1,1.547V14.74h10.842V13.349Zm14.521-4.42c2.236-.117,3.744-.663,4.485-1.547.754.884,2.262,1.43,4.485,1.547l.481-1.261c-2.4-.1-3.575-.676-3.913-1.352h3.328V5.081h-3.523V4.132H150.02v.949h-3.5V6.316h3.3c-.325.676-1.495,1.248-3.9,1.352Zm9.893,1.56V9.228H145.509v1.261h4.524V11.2h-3.315v1.235H153.3v.572h-6.565v3.016H155.3V14.792h-6.864v-.624h6.552V11.2h-3.237v-.715Zm5.148-5.421h-1.716V6.81c0,2.327-.988,4.641-3.081,5.538l1.027,1.417A5.792,5.792,0,0,0,160.6,10.2a5.47,5.47,0,0,0,2.834,3.276l.975-1.391a5.489,5.489,0,0,1-2.977-5.278ZM165,4.132V16.144h1.716V4.132Zm10.634,6.344a10.445,10.445,0,0,0,.065-1.144,8.284,8.284,0,0,0-.078-1.17h1.053v2.314Zm-2.522,1.6c-.676,0-1.066-.91-1.066-2.743s.39-2.73,1.066-2.73,1.053.9,1.053,2.73S173.771,12.075,173.108,12.075Zm3.562-5.291h-1.378a2.379,2.379,0,0,0-2.184-1.794c-1.6,0-2.6,1.638-2.6,4.342s1,4.355,2.6,4.355a2.409,2.409,0,0,0,2.2-1.82h1.365v3.705h1.6V4.34h-1.6Zm2.379-2.652V16.1h1.625V4.132Zm9.165,2.9V8.422h1.794v2.847h1.716V4.145h-1.716V7.031Zm.715,2.574a3.672,3.672,0,0,1-2.7-3.367h2.327V4.86h-6.435V6.238h2.353a3.988,3.988,0,0,1-2.821,3.679l.871,1.352a4.676,4.676,0,0,0,2.86-2.652,4.525,4.525,0,0,0,2.717,2.327Zm-1.248,5.226c-1.573,0-2.392-.325-2.392-1s.819-1,2.392-1,2.379.325,2.379,1S189.241,14.831,187.681,14.831Zm0-3.3c-2.548,0-4.108.845-4.108,2.3s1.56,2.3,4.108,2.3,4.1-.845,4.1-2.3S190.216,11.529,187.681,11.529Z" transform="translate(81.537 370.91)" fill="#225782"/><g transform="translate(148.39 155.367)"><path d="M170.5,576.619c-5.327-5.854-12.688-15.335-27.136-15.111-11.005.171-16.146-1.437-16.146-1.437s-3.61,0-5.673-1.547c0,0-.516,6.7,4.126,9.281,0,0-11.16,3.662-11.5,23.237-.146,8.3,7.762,19.281,20.266,26.787,9.75,5.853,82.576-23.956,65.95-23.7C188.031,594.326,176.455,583.164,170.5,576.619Z" transform="translate(-114.165 -547.402)" fill="#fff"/><g transform="translate(32.658 0) rotate(19)"><g transform="translate(0 0)" clip-path="url(#c)"><path d="M9.163,0,8.911.346,5.282,5.338,0,2.669,3.4,11.9l.137.371.022.06H14.984L15,12.285l.125-.355,3.093-8.753-5.39,2.161-.087-.127-.789-1.15-1.3-1.9L9.235.1Z" transform="translate(0 0)" fill="#fdbe11"/><g clip-path="url(#c)"><g transform="translate(3.398 11.841)" opacity="0.67" style="mix-blend-mode:multiply;isolation:isolate"><g clip-path="url(#e)"><path d="M11.726.089,11.6.444l-.015.043H.159L.137.427,0,.056A.442.442,0,0,1,.213,0H11.46a.455.455,0,0,1,.266.089" transform="translate(0 0)" fill="#f99b1c"/></g></g><g transform="translate(5.046 0)" opacity="0.53" style="mix-blend-mode:soft-light;isolation:isolate"><g clip-path="url(#f)"><path d="M5.6,2.162,4.188,6.543l-.035.109-.193.6-.336,1.04-.163.5-.181.561-.232.721-.57,1.766-.135.42-.021.067H0l.021-.067.135-.42L3.865.346,4.116,0l.072.1Z" transform="translate(0 0)" fill="#fff"/></g></g><g transform="translate(9.285 4.062)" opacity="0.53" style="mix-blend-mode:soft-light;isolation:isolate"><g clip-path="url(#g)"><path d="M3.456,1.15,1.318,7.78l-.135.42-.021.067H0L.021,8.2l.135-.42L.65,6.252l.029-.087L1.24,4.421l.149-.464L2.667,0Z" transform="translate(0 0)" fill="#fff"/></g></g><path d="M12.386.767c0,.424-.255.767-.569.767H.569C.255,1.534,0,1.191,0,.767A.726.726,0,0,1,.493.007.364.364,0,0,1,.569,0H11.816a.421.421,0,0,1,.141.024.76.76,0,0,1,.429.743" transform="translate(3.042 12.261)" fill="#fb3"/><g transform="translate(7.289 12.261)" opacity="0.51" style="mix-blend-mode:soft-light;isolation:isolate"><g clip-path="url(#h)"><path d="M2.817,0,2.8.067,2.322,1.534H0L.473.067.495,0Z" transform="translate(0 0)" fill="#fff"/></g></g><g transform="translate(11.528 12.261)" opacity="0.51" style="mix-blend-mode:soft-light;isolation:isolate"><g clip-path="url(#i)"><path d="M1.656,0,1.635.067,1.161,1.534H0L.473.067.495,0Z" transform="translate(0 0)" fill="#fff"/></g></g><g transform="translate(9.235 0.105)" opacity="0.55" style="mix-blend-mode:multiply;isolation:isolate"><g clip-path="url(#j)"><path d="M6.193,12.923c0,.424-.255.767-.569.767H0V0L1.413,2.058l1.3,1.9.789,1.15.087.127,5.39-2.161L5.89,11.826l-.126.355a.76.76,0,0,1,.429.743" transform="translate(0 0)" fill="#f99b1c"/></g></g></g></g></g><g transform="translate(19.226 22.111)"><path d="M170.37,596.788h-2.807v-3.711a.933.933,0,1,1,1.865,0v1.845h.941a.933.933,0,1,1,0,1.865Z" transform="translate(-162.187 -590.745)" fill="#225782"/><path d="M190.432,625.134a.933.933,0,0,1-.029-1.865,12.833,12.833,0,0,0,3.4-.721,12.452,12.452,0,0,0,2.985-1.51,10.688,10.688,0,0,0,2.769-2.795.933.933,0,0,1,1.549,1.039v0l-.014.021h0a12.55,12.55,0,0,1-3.273,3.288,15.033,15.033,0,0,1-7.359,2.539Z" transform="translate(-185.161 -613.866)" fill="#225782"/><path d="M.7,2.354a1.008,1.008,0,0,1-.674-1.2.943.943,0,0,1,.9-.765.865.865,0,0,1,.228.03,3.163,3.163,0,0,0,.756.095c.4,0,.606-.085.665-.157A.905.905,0,0,1,3.285,0,.881.881,0,0,1,3.9.256a1.052,1.052,0,0,1,.091,1.4A2.549,2.549,0,0,1,1.9,2.511,4.745,4.745,0,0,1,.7,2.354Z" transform="translate(0 1.218)" fill="#225782"/><path d="M.714,2.562l-.023,0A.9.9,0,0,1,0,1.544.853.853,0,0,1,.784.674a.465.465,0,0,1,.076,0H.873a4.291,4.291,0,0,0,.574.037c.723,0,1.146-.176,1.218-.3A.753.753,0,0,1,3.313,0a.7.7,0,0,1,.481.2,1.088,1.088,0,0,1,.167,1.278,2.362,2.362,0,0,1-1.972,1.1,5.287,5.287,0,0,1-.535.027A6.382,6.382,0,0,1,.714,2.562Z" transform="translate(9.539)" fill="#225782"/></g></g><path d="M11,8.4C8.281,8.019,6.9,6.459,6.9,5.068V4.5H5.07v.572c0,1.4-1.365,2.951-4.1,3.328l.65,1.378A5.9,5.9,0,0,0,5.993,7.2a5.872,5.872,0,0,0,4.355,2.574Zm.39,2.262H.572v1.391H5.083v4.082H6.8V12.049h4.589ZM18.915,5.2H16.25V4.08H14.521V5.2H11.869V6.55h7.046ZM14.092,9.124c0-.6.52-.9,1.3-.9s1.3.3,1.3.9-.533.91-1.3.91S14.092,9.735,14.092,9.124Zm4.238,0c0-1.3-1.209-2.2-2.938-2.2s-2.938.9-2.938,2.2,1.222,2.21,2.938,2.21S18.33,10.437,18.33,9.124Zm-5.018,4.394h6.266v2.613h1.716V12.14H13.312ZM22.88,7.226H21.294V4.158H19.578v7.488h1.716v-3H22.88ZM27.469,9.9H30.03V5.315H25.792V6.68h2.574V8.552H25.805v4.771h.845a23.845,23.845,0,0,0,4.368-.312l-.143-1.378a24.077,24.077,0,0,1-3.406.286Zm4.225-1.69H30.511v1.4h1.183v5.941H33.28V4.353H31.694Zm2.431-4.082V16.1H35.75V4.132ZM47,4.158H45.37v6.149H47ZM40.365,8.63H38.818V7.369h1.547Zm1.586-.624h.988v2.249h1.6v-5.9h-1.6v2.3h-.988V4.8H40.365V6.108H38.818v-1.3H37.206V9.943h4.745ZM40.6,14.727V14H47V10.8H38.857v1.313h6.422v.65h-6.4v3.263h8.489v-1.3Zm13.845-3.835A26.044,26.044,0,0,0,54.769,6.3V5.328H48.607V6.693h4.472a24.38,24.38,0,0,1-.312,4.056ZM51.831,8.76h-1.69V12.3c-.754.013-1.482.013-2.145.013l.156,1.4a45.7,45.7,0,0,0,7.189-.481L55.25,12c-1.092.13-2.262.208-3.419.247Zm7.293.195H57.512V4.132H55.8V16.1h1.716v-5.72h1.612Zm3.055-4.03V6.29h3.783c-.26,1.638-1.729,2.99-4.342,3.692l.689,1.378c3.536-.988,5.538-3.211,5.538-6.435Zm5.07,9.867c-1.456,0-2.327-.377-2.327-1.118s.871-1.118,2.327-1.118,2.327.377,2.327,1.118S68.705,14.792,67.249,14.792Zm0-3.575c-2.418,0-4.017.949-4.017,2.457s1.6,2.457,4.017,2.457,4.017-.949,4.017-2.457S69.667,11.217,67.249,11.217ZM71.136,6.94V4.132H69.42v6.929h1.716v-2.7h1.586V6.94Zm3.653.793a1.576,1.576,0,0,1,3.146,0,1.576,1.576,0,0,1-3.146,0Zm4.81,0a3.259,3.259,0,0,0-6.487,0,3.261,3.261,0,0,0,6.487,0Zm-5.135,5.33H80.73v3.068h1.716V11.685H74.464ZM83.98,7.1V5.7H82.446V4.145H80.73V11.2h1.716V9.7H83.98v-1.4H82.446V7.1Zm7.566,2.431a3.7,3.7,0,0,1-2.7-3.406h2.327V4.756H84.734V6.121h2.353a3.839,3.839,0,0,1-2.821,3.614l.871,1.365A4.687,4.687,0,0,0,88,8.513a4.485,4.485,0,0,0,2.717,2.353Zm-3.484,3.367h4.6v1.742h-4.6Zm-1.69,3.081h7.969v-4.42H86.372Zm6.253-11.83V6.914H90.818V8.3h1.807v2.756h1.716V4.145Zm8.424,1.43c1.742,0,2.561.247,2.561.78,0,.559-.819.793-2.561.793S98.5,6.914,98.5,6.355C98.5,5.822,99.32,5.575,101.049,5.575Zm0,2.821c2.743,0,4.342-.715,4.342-2.041s-1.6-2.041-4.342-2.041-4.329.728-4.329,2.041S98.319,8.4,101.049,8.4Zm-2.457,5.668h6.552V10.983H96.876v1.261h6.578v.637H96.889v3.146h8.567V14.74H98.592Zm-2.951-5.1v1.339h10.816V8.968ZM112.1,6.628h1.235v5.278l-1.235.039Zm2.886,0h1.027V5.25h-6.6V6.628h1.027v5.356H109.1l.182,1.4a43.039,43.039,0,0,0,7.189-.481l-.1-1.248c-.442.065-.91.091-1.378.13Zm5.382,2.041h-1.742V4.158h-1.716V16.131h1.716V10.086h1.742Zm1.963-.936a1.576,1.576,0,0,1,3.146,0,1.576,1.576,0,0,1-3.146,0Zm4.81,0a3.259,3.259,0,0,0-6.487,0,3.261,3.261,0,0,0,6.487,0ZM122,13.024h6.266v3.107h1.716V11.646H122Zm9.568-6.071h-1.586v-2.8h-1.716v6.994h1.716v-2.8h1.586Zm3.757,5.317a1.352,1.352,0,0,1-1.4-1.456,1.362,1.362,0,0,1,1.4-1.469,1.349,1.349,0,0,1,1.391,1.456A1.346,1.346,0,0,1,135.33,12.27Zm0-4.316a2.864,2.864,0,1,0,3.016,2.847A2.856,2.856,0,0,0,135.33,7.954Zm.845-3.6h-1.716v1.56h-2.652V7.278h6.968V5.913h-2.6Zm6.812,4.472h-1.716V4.145h-1.716V16.118h1.716V10.242h1.716Zm9.841-1.443h-6.591V4.574h-1.716V8.747h8.307Zm-6.7,4.914H144.4v3.562h8.489V14.493h-6.76Zm-2.951-2.327v1.378h10.842V9.969Zm15.587.039h2.353V8.682h-2.353V6.823h2.808V5.458h-4.433v8.021h.819a24.478,24.478,0,0,0,4.212-.247l-.143-1.365a21.277,21.277,0,0,1-3.263.234Zm4.2-1.508h-1.3V9.891h1.3v5.694h1.6V4.366h-1.6Zm2.483-4.368V16.1h1.625V4.132Zm13.117,5.642c-2.7-.455-4.186-2.314-4.186-4.069V4.847h-1.833V5.7c0,1.716-1.5,3.614-4.186,4.069l.728,1.443a6.01,6.01,0,0,0,4.368-3.094,6.068,6.068,0,0,0,4.381,3.094Zm-10.465,3.5v1.391h10.842V13.271ZM189.1,10.32h-6.669V8.981h6.305V7.655h-6.305V6.394h6.578V5.016h-8.32v6.656H189.1Zm-9.685,3.029V14.74h10.842V13.349Zm12.532-1.625h1.248l.273-4.8.065-1.807h-1.924l.065,1.807Zm.624,3.458a1.249,1.249,0,0,0,0-2.5,1.25,1.25,0,0,0,0,2.5Z" transform="translate(81.537 219.369)" fill="#225782"/></g></svg>