<svg xmlns="http://www.w3.org/2000/svg" xmlns:xlink="http://www.w3.org/1999/xlink" width="307.612" height="268.757" viewBox="0 0 307.612 268.757"><defs><filter id="a" x="0" y="34.365" width="307.612" height="234.392" filterUnits="userSpaceOnUse"><feOffset dy="3" input="SourceAlpha"/><feGaussianBlur stdDeviation="3" result="b"/><feFlood flood-opacity="0.161"/><feComposite operator="in" in2="b"/><feComposite in="SourceGraphic"/></filter><clipPath id="c"><rect width="18.217" height="13.795" fill="none"/></clipPath><clipPath id="e"><rect width="11.726" height="0.487" fill="none"/></clipPath><clipPath id="f"><rect width="5.601" height="12.328" fill="none"/></clipPath><clipPath id="g"><rect width="3.456" height="8.267" fill="none"/></clipPath><clipPath id="h"><rect width="2.817" height="1.534" fill="none"/></clipPath><clipPath id="i"><rect width="1.656" height="1.534" fill="none"/></clipPath><clipPath id="j"><rect width="8.983" height="13.69" fill="none"/></clipPath></defs><g transform="translate(-26.194 -155.367)"><g transform="matrix(1, 0, 0, 1, 26.19, 155.37)" filter="url(#a)"><path d="M24,0H265.612a24,24,0,0,1,24,24V192.392a24,24,0,0,1-24,24H24a24,24,0,0,1-24-24V24A24,24,0,0,1,24,0Z" transform="translate(9 40.37)" fill="#fff"/></g><g transform="translate(148.39 155.367)"><path d="M170.5,576.619c-5.327-5.854-12.688-15.335-27.136-15.111-11.005.171-16.146-1.437-16.146-1.437s-3.61,0-5.673-1.547c0,0-.516,6.7,4.126,9.281,0,0-11.16,3.662-11.5,23.237-.146,8.3,7.762,19.281,20.266,26.787,9.75,5.853,82.576-23.956,65.95-23.7C188.031,594.326,176.455,583.164,170.5,576.619Z" transform="translate(-114.165 -547.402)" fill="#fff"/><g transform="translate(32.658 0) rotate(19)"><g transform="translate(0 0)" clip-path="url(#c)"><path d="M9.163,0,8.911.346,5.282,5.338,0,2.669,3.4,11.9l.137.371.022.06H14.984L15,12.285l.125-.355,3.093-8.753-5.39,2.161-.087-.127-.789-1.15-1.3-1.9L9.235.1Z" transform="translate(0 0)" fill="#fdbe11"/><g clip-path="url(#c)"><g transform="translate(3.398 11.841)" opacity="0.67" style="mix-blend-mode:multiply;isolation:isolate"><g clip-path="url(#e)"><path d="M11.726.089,11.6.444l-.015.043H.159L.137.427,0,.056A.442.442,0,0,1,.213,0H11.46a.455.455,0,0,1,.266.089" transform="translate(0 0)" fill="#f99b1c"/></g></g><g transform="translate(5.046 0)" opacity="0.53" style="mix-blend-mode:soft-light;isolation:isolate"><g clip-path="url(#f)"><path d="M5.6,2.162,4.188,6.543l-.035.109-.193.6-.336,1.04-.163.5-.181.561-.232.721-.57,1.766-.135.42-.021.067H0l.021-.067.135-.42L3.865.346,4.116,0l.072.1Z" transform="translate(0 0)" fill="#fff"/></g></g><g transform="translate(9.285 4.062)" opacity="0.53" style="mix-blend-mode:soft-light;isolation:isolate"><g clip-path="url(#g)"><path d="M3.456,1.15,1.318,7.78l-.135.42-.021.067H0L.021,8.2l.135-.42L.65,6.252l.029-.087L1.24,4.421l.149-.464L2.667,0Z" transform="translate(0 0)" fill="#fff"/></g></g><path d="M12.386.767c0,.424-.255.767-.569.767H.569C.255,1.534,0,1.191,0,.767A.726.726,0,0,1,.493.007.364.364,0,0,1,.569,0H11.816a.421.421,0,0,1,.141.024.76.76,0,0,1,.429.743" transform="translate(3.042 12.261)" fill="#fb3"/><g transform="translate(7.289 12.261)" opacity="0.51" style="mix-blend-mode:soft-light;isolation:isolate"><g clip-path="url(#h)"><path d="M2.817,0,2.8.067,2.322,1.534H0L.473.067.495,0Z" transform="translate(0 0)" fill="#fff"/></g></g><g transform="translate(11.528 12.261)" opacity="0.51" style="mix-blend-mode:soft-light;isolation:isolate"><g clip-path="url(#i)"><path d="M1.656,0,1.635.067,1.161,1.534H0L.473.067.495,0Z" transform="translate(0 0)" fill="#fff"/></g></g><g transform="translate(9.235 0.105)" opacity="0.55" style="mix-blend-mode:multiply;isolation:isolate"><g clip-path="url(#j)"><path d="M6.193,12.923c0,.424-.255.767-.569.767H0V0L1.413,2.058l1.3,1.9.789,1.15.087.127,5.39-2.161L5.89,11.826l-.126.355a.76.76,0,0,1,.429.743" transform="translate(0 0)" fill="#f99b1c"/></g></g></g></g></g><g transform="translate(19.226 22.111)"><path d="M170.37,596.788h-2.807v-3.711a.933.933,0,1,1,1.865,0v1.845h.941a.933.933,0,1,1,0,1.865Z" transform="translate(-162.187 -590.745)" fill="#225782"/><path d="M190.432,625.134a.933.933,0,0,1-.029-1.865,12.833,12.833,0,0,0,3.4-.721,12.452,12.452,0,0,0,2.985-1.51,10.688,10.688,0,0,0,2.769-2.795.933.933,0,0,1,1.549,1.039v0l-.014.021h0a12.55,12.55,0,0,1-3.273,3.288,15.033,15.033,0,0,1-7.359,2.539Z" transform="translate(-185.161 -613.866)" fill="#225782"/><path d="M.7,2.354a1.008,1.008,0,0,1-.674-1.2.943.943,0,0,1,.9-.765.865.865,0,0,1,.228.03,3.163,3.163,0,0,0,.756.095c.4,0,.606-.085.665-.157A.905.905,0,0,1,3.285,0,.881.881,0,0,1,3.9.256a1.052,1.052,0,0,1,.091,1.4A2.549,2.549,0,0,1,1.9,2.511,4.745,4.745,0,0,1,.7,2.354Z" transform="translate(0 1.218)" fill="#225782"/><path d="M.714,2.562l-.023,0A.9.9,0,0,1,0,1.544.853.853,0,0,1,.784.674a.465.465,0,0,1,.076,0H.873a4.291,4.291,0,0,0,.574.037c.723,0,1.146-.176,1.218-.3A.753.753,0,0,1,3.313,0a.7.7,0,0,1,.481.2,1.088,1.088,0,0,1,.167,1.278,2.362,2.362,0,0,1-1.972,1.1,5.287,5.287,0,0,1-.535.027A6.382,6.382,0,0,1,.714,2.562Z" transform="translate(9.539)" fill="#225782"/></g></g><path d="M9.7,0A9.689,9.689,0,1,1,0,9.689,9.693,9.693,0,0,1,9.7,0Z" transform="translate(52.532 219.061)" fill="#ffc823"/><path d="M312.353,354.644l-5.545-5.543A.84.84,0,1,1,308,347.913l4.357,4.355,10.133-10.129a.84.84,0,1,1,1.188,1.188Z" transform="translate(-248.271 -121.202)" fill="#fff"/><path d="M9.7,0A9.689,9.689,0,1,1,0,9.689,9.693,9.693,0,0,1,9.7,0Z" transform="translate(52.532 294.568)" fill="#ffc823"/><path d="M312.353,354.644l-5.545-5.543A.84.84,0,1,1,308,347.913l4.357,4.355,10.133-10.129a.84.84,0,1,1,1.188,1.188Z" transform="translate(-248.271 -45.695)" fill="#fff"/><path d="M9.478,5v6.258a4.238,4.238,0,0,1-.462,2.009,3.252,3.252,0,0,1-1.407,1.372,5.031,5.031,0,0,1-2.359.5A4.239,4.239,0,0,1,2.17,14.1a3.765,3.765,0,0,1-1.064-2.828V5H3.5V11.01a2.375,2.375,0,0,0,.455,1.645,1.769,1.769,0,0,0,1.351.483,1.682,1.682,0,0,0,1.365-.511A2.528,2.528,0,0,0,7.1,11V5ZM20.79,15H17.71L13.678,7.678h-.056q.014.266.035.714t.049.973q.028.525.042,1.015V15H11.62V5h3.066L18.7,12.242h.042q-.014-.252-.035-.686t-.042-.945q-.021-.511-.021-.973V5H20.79ZM23,15V5h2.38v8.05h3.962V15Zm12.026,0H30.17V13.642l1.232-.518V6.88L30.17,6.362V5h4.858V6.362L33.8,6.88v6.244l1.232.518Zm5.782,0L38.57,7.454h-.056q.028.28.056.805t.056,1.127q.028.6.028,1.106V15H36.526V5h3.22L41.972,12.4h.056L44.324,5H47.53V15H45.318V10.436q0-.476.021-1.057t.042-1.106q.021-.525.035-.805H45.36L43.05,15Zm13.076,0H49.028V13.642l1.232-.518V6.88l-1.232-.518V5h4.858V6.362l-1.232.518v6.244l1.232.518Zm5.6,0h-2.38V6.978h-2.59V5h7.56V6.978h-2.59Zm9.786,0H63.434V5h5.838V6.936H65.814V8.854H69.02v1.932H65.814V13.04h3.458ZM79.436,9.848a4.942,4.942,0,0,1-1.428,3.864A5.66,5.66,0,0,1,74.074,15h-3.01V5h3.29a5.317,5.317,0,0,1,3.724,1.239A4.634,4.634,0,0,1,79.436,9.848Zm-2.464.084a3.308,3.308,0,0,0-.651-2.254,2.413,2.413,0,0,0-1.9-.728h-.98v6.09h.77a2.613,2.613,0,0,0,2.086-.777A3.483,3.483,0,0,0,76.972,9.932ZM88.06,5A4.139,4.139,0,0,1,90.9,5.83a2.967,2.967,0,0,1,.917,2.324,3.862,3.862,0,0,1-.364,1.659,2.84,2.84,0,0,1-1.2,1.26,4.582,4.582,0,0,1-2.282.483h-.84V15h-2.38V5ZM87.976,6.95h-.854V9.61h.63a2.036,2.036,0,0,0,1.19-.322A1.2,1.2,0,0,0,89.4,8.224Q89.4,6.95,87.976,6.95Zm9.744.224q.182,0,.406.021a2.99,2.99,0,0,1,.35.049l-.2,2.212a3.244,3.244,0,0,0-.756-.07,2.8,2.8,0,0,0-.889.147,1.486,1.486,0,0,0-.728.525,1.781,1.781,0,0,0-.287,1.092V15H93.254V7.314h1.778l.364,1.26h.1a3.175,3.175,0,0,1,.917-.987A2.2,2.2,0,0,1,97.72,7.174Zm8.722,3.962a4.066,4.066,0,0,1-1.015,2.968,3.712,3.712,0,0,1-2.779,1.036,3.984,3.984,0,0,1-1.939-.462,3.274,3.274,0,0,1-1.33-1.358,4.55,4.55,0,0,1-.483-2.184A4.017,4.017,0,0,1,99.9,8.2a3.721,3.721,0,0,1,2.786-1.029,3.984,3.984,0,0,1,1.939.462,3.3,3.3,0,0,1,1.33,1.344A4.435,4.435,0,0,1,106.442,11.136Zm-5.152,0a3.309,3.309,0,0,0,.322,1.624,1.13,1.13,0,0,0,1.064.56,1.118,1.118,0,0,0,1.05-.56,3.309,3.309,0,0,0,.322-1.624,3.183,3.183,0,0,0-.322-1.6,1.142,1.142,0,0,0-1.064-.539,1.129,1.129,0,0,0-1.05.539A3.183,3.183,0,0,0,101.29,11.136Zm9-6.776V6.81q0,.42-.028.819t-.07.679h.1a2.574,2.574,0,0,1,.8-.805,2.371,2.371,0,0,1,1.316-.329,2.475,2.475,0,0,1,2.037,1.008,4.713,4.713,0,0,1,.791,2.954,4.736,4.736,0,0,1-.805,2.989,2.547,2.547,0,0,1-2.093,1.015,2.392,2.392,0,0,1-1.288-.294,3.266,3.266,0,0,1-.756-.644h-.154l-.378.8h-1.834V4.36Zm1.3,4.676a1.092,1.092,0,0,0-.994.455,2.688,2.688,0,0,0-.308,1.393v.294a3.26,3.26,0,0,0,.287,1.54,1.087,1.087,0,0,0,1.043.518.985.985,0,0,0,.882-.546,3.154,3.154,0,0,0,.322-1.582Q112.826,9.036,111.594,9.036ZM119.084,15h-2.366V4.36h2.366Zm5.194-7.826a3.624,3.624,0,0,1,2.576.889,3.4,3.4,0,0,1,.952,2.611v1.092h-4.858a1.692,1.692,0,0,0,.49,1.2,1.814,1.814,0,0,0,1.316.448,5.945,5.945,0,0,0,1.344-.14,6.1,6.1,0,0,0,1.246-.448v1.75a4.56,4.56,0,0,1-1.2.427,7.975,7.975,0,0,1-1.582.133,4.844,4.844,0,0,1-2.065-.42,3.148,3.148,0,0,1-1.414-1.288,4.342,4.342,0,0,1-.511-2.226,4.064,4.064,0,0,1,1.022-3.038A3.691,3.691,0,0,1,124.278,7.174Zm.042,1.638a1.237,1.237,0,0,0-.9.35,1.689,1.689,0,0,0-.427,1.078h2.646a1.633,1.633,0,0,0-.343-1.022A1.178,1.178,0,0,0,124.32,8.812Zm14.14-1.638a2.739,2.739,0,0,1,2,.665,2.909,2.909,0,0,1,.679,2.149V15h-2.352V10.646a2.2,2.2,0,0,0-.266-1.225.892.892,0,0,0-.784-.385,1.093,1.093,0,0,0-1.05.574,3.563,3.563,0,0,0-.308,1.652V15h-2.352V10.646a2.3,2.3,0,0,0-.252-1.218.866.866,0,0,0-.784-.392,1.068,1.068,0,0,0-1.071.637,4.593,4.593,0,0,0-.287,1.827V15h-2.366V7.314h1.792l.336.966h.1a2.118,2.118,0,0,1,.917-.819,3.071,3.071,0,0,1,1.351-.287,2.474,2.474,0,0,1,2.31,1.092h.14a2.26,2.26,0,0,1,.966-.819A3.082,3.082,0,0,1,138.46,7.174Zm10.052,5.5a2.223,2.223,0,0,1-.791,1.806,3.825,3.825,0,0,1-2.471.658,9.05,9.05,0,0,1-1.421-.1,5.569,5.569,0,0,1-1.225-.35v-1.9a6.954,6.954,0,0,0,1.4.469,5.87,5.87,0,0,0,1.232.161,1.588,1.588,0,0,0,.77-.14.434.434,0,0,0,.238-.392.483.483,0,0,0-.119-.322,1.55,1.55,0,0,0-.476-.315q-.357-.175-1.057-.469a5.572,5.572,0,0,1-1.127-.6,2.061,2.061,0,0,1-.658-.742,2.353,2.353,0,0,1-.217-1.071,1.841,1.841,0,0,1,.84-1.645,4.049,4.049,0,0,1,2.254-.553,6.13,6.13,0,0,1,1.4.154,7.168,7.168,0,0,1,1.358.476l-.672,1.6a7.97,7.97,0,0,0-1.106-.406,3.652,3.652,0,0,0-.98-.154q-.812,0-.812.42a.391.391,0,0,0,.119.287,1.76,1.76,0,0,0,.462.28q.343.161,1,.441a6.941,6.941,0,0,1,1.12.56,1.986,1.986,0,0,1,.7.735A2.326,2.326,0,0,1,148.512,12.676Zm3.4-1.092h-1.946L149.618,5h2.646Zm-2.3,2.366a1.1,1.1,0,0,1,.385-.959,1.568,1.568,0,0,1,.931-.273,1.512,1.512,0,0,1,.91.273,1.106,1.106,0,0,1,.378.959,1.111,1.111,0,0,1-.378.945,1.461,1.461,0,0,1-.91.287A1.514,1.514,0,0,1,150,14.9,1.1,1.1,0,0,1,149.618,13.95Z" transform="translate(81.537 296.324)" fill="#225782"/><path d="M9.7,0A9.689,9.689,0,1,1,0,9.689,9.693,9.693,0,0,1,9.7,0Z" transform="translate(52.532 332.322)" fill="#ffc823"/><path d="M312.353,354.644l-5.545-5.543A.84.84,0,1,1,308,347.913l4.357,4.355,10.133-10.129a.84.84,0,1,1,1.188,1.188Z" transform="translate(-248.271 -7.941)" fill="#fff"/><path d="M7.6,15H.49V13.39l2.478-2.506q.756-.784,1.2-1.288a4.2,4.2,0,0,0,.637-.889A1.834,1.834,0,0,0,5,7.888a.923.923,0,0,0-.315-.777,1.25,1.25,0,0,0-.791-.245,2.235,2.235,0,0,0-1.043.266,6.342,6.342,0,0,0-1.113.77L.434,6.376a9.53,9.53,0,0,1,.924-.735,4.359,4.359,0,0,1,1.155-.56,5.2,5.2,0,0,1,1.6-.217,3.906,3.906,0,0,1,1.736.357,2.715,2.715,0,0,1,1.12.966A2.517,2.517,0,0,1,7.364,7.58a3.547,3.547,0,0,1-.322,1.526,5.3,5.3,0,0,1-.952,1.358q-.63.672-1.54,1.512l-1.036.952v.084H7.6Zm7.938-5A9.714,9.714,0,0,1,15.2,12.76a3.423,3.423,0,0,1-1.12,1.764A3.253,3.253,0,0,1,12,15.14,2.941,2.941,0,0,1,9.3,13.782,7.134,7.134,0,0,1,8.456,10,9.789,9.789,0,0,1,8.8,7.237a3.425,3.425,0,0,1,1.12-1.771A3.253,3.253,0,0,1,12,4.85a2.944,2.944,0,0,1,2.688,1.358A7.118,7.118,0,0,1,15.54,10Zm-4.718,0a8.876,8.876,0,0,0,.245,2.415.941.941,0,0,0,1.862,0A8.876,8.876,0,0,0,13.174,10a8.97,8.97,0,0,0-.245-2.415q-.245-.819-.931-.819t-.931.819A8.97,8.97,0,0,0,10.822,10Zm9.954-.77h2.6V10.9h-2.6v2.548H19.124V10.9h-2.6V9.232h2.6V6.656h1.652ZM32.816,15l-2.24-7.546H30.52q.028.28.056.805t.056,1.127q.028.6.028,1.106V15H28.532V5h3.22L33.978,12.4h.056L36.33,5h3.206V15H37.324V10.436q0-.476.021-1.057t.042-1.106q.021-.525.035-.805h-.056L35.056,15ZM45.024,7.16a3.515,3.515,0,0,1,2.324.693A2.526,2.526,0,0,1,48.174,9.9V15H46.536l-.462-1.036h-.056a3.249,3.249,0,0,1-1.036.9,3.321,3.321,0,0,1-1.5.28,2.444,2.444,0,0,1-1.694-.6,2.377,2.377,0,0,1-.672-1.862,2.051,2.051,0,0,1,.861-1.82,4.858,4.858,0,0,1,2.527-.658l1.316-.042V9.932a1.029,1.029,0,0,0-.287-.812,1.158,1.158,0,0,0-.791-.252,3.682,3.682,0,0,0-1.057.161,10.485,10.485,0,0,0-1.1.4L41.874,7.86A5.728,5.728,0,0,1,43.3,7.342,7.736,7.736,0,0,1,45.024,7.16Zm.8,4.34-.714.028a2.1,2.1,0,0,0-1.232.315.952.952,0,0,0-.35.777.756.756,0,0,0,.245.637,1.038,1.038,0,0,0,.651.189,1.452,1.452,0,0,0,.994-.357,1.229,1.229,0,0,0,.406-.973Zm7.686,1.764a3.059,3.059,0,0,0,.665-.07,5.71,5.71,0,0,0,.637-.182v1.736a4.743,4.743,0,0,1-.868.28,5.273,5.273,0,0,1-1.162.112,3.263,3.263,0,0,1-1.267-.231,1.752,1.752,0,0,1-.868-.8,3.27,3.27,0,0,1-.315-1.575V9.078h-.98V8.1l1.176-.756.644-1.624h1.512v1.6h2.044V9.078H52.682v3.374a.781.781,0,0,0,.224.609A.862.862,0,0,0,53.508,13.264Zm4.984-8.9V6.222q0,.7-.042,1.253t-.07.805h.126a2.075,2.075,0,0,1,.924-.854,3,3,0,0,1,1.246-.252,3.245,3.245,0,0,1,1.414.294,2.195,2.195,0,0,1,.973.917,3.2,3.2,0,0,1,.357,1.6V15H61.054V10.646q0-1.61-1.092-1.61a1.171,1.171,0,0,0-1.155.637,4.187,4.187,0,0,0-.315,1.813V15H56.126V4.36ZM71.246,7.174a2.587,2.587,0,0,1,1.281.294,2.679,2.679,0,0,1,.889.812h.056l.182-.966H75.67v7.7a3.116,3.116,0,0,1-.987,2.492,4.447,4.447,0,0,1-2.975.854,11.535,11.535,0,0,1-1.575-.1,6.174,6.174,0,0,1-1.365-.35V15.994a7.748,7.748,0,0,0,1.393.441,7.477,7.477,0,0,0,1.547.147q1.61,0,1.61-1.47v-.154a7.376,7.376,0,0,1,.07-.952h-.07a2.45,2.45,0,0,1-.861.833,2.478,2.478,0,0,1-1.253.3A2.431,2.431,0,0,1,69.139,14.1a4.89,4.89,0,0,1-.763-2.94,4.85,4.85,0,0,1,.777-2.954A2.481,2.481,0,0,1,71.246,7.174Zm.826,1.862q-1.3,0-1.3,2.17a3.055,3.055,0,0,0,.322,1.589,1.105,1.105,0,0,0,1.008.511,1.232,1.232,0,0,0,1.057-.441,2.407,2.407,0,0,0,.329-1.421V11.15a3.153,3.153,0,0,0-.315-1.6A1.181,1.181,0,0,0,72.072,9.036ZM81,7.16a3.515,3.515,0,0,1,2.324.693A2.526,2.526,0,0,1,84.154,9.9V15H82.516l-.462-1.036H82a3.249,3.249,0,0,1-1.036.9,3.321,3.321,0,0,1-1.5.28,2.444,2.444,0,0,1-1.694-.6,2.377,2.377,0,0,1-.672-1.862,2.051,2.051,0,0,1,.861-1.82,4.858,4.858,0,0,1,2.527-.658l1.316-.042V9.932a1.029,1.029,0,0,0-.287-.812,1.158,1.158,0,0,0-.791-.252,3.682,3.682,0,0,0-1.057.161,10.486,10.486,0,0,0-1.1.4L77.854,7.86a5.728,5.728,0,0,1,1.428-.518A7.736,7.736,0,0,1,81,7.16Zm.8,4.34-.714.028a2.1,2.1,0,0,0-1.232.315.952.952,0,0,0-.35.777.756.756,0,0,0,.245.637,1.038,1.038,0,0,0,.651.189,1.452,1.452,0,0,0,.994-.357,1.229,1.229,0,0,0,.406-.973ZM95.2,7.174a2.739,2.739,0,0,1,2,.665,2.909,2.909,0,0,1,.679,2.149V15H95.522V10.646a2.2,2.2,0,0,0-.266-1.225.892.892,0,0,0-.784-.385,1.093,1.093,0,0,0-1.05.574,3.563,3.563,0,0,0-.308,1.652V15H90.762V10.646a2.3,2.3,0,0,0-.252-1.218.866.866,0,0,0-.784-.392,1.068,1.068,0,0,0-1.071.637,4.593,4.593,0,0,0-.287,1.827V15H86V7.314h1.792l.336.966h.1a2.118,2.118,0,0,1,.917-.819A3.071,3.071,0,0,1,90.5,7.174a2.474,2.474,0,0,1,2.31,1.092h.14a2.26,2.26,0,0,1,.966-.819A3.082,3.082,0,0,1,95.2,7.174Zm7.84,0a3.624,3.624,0,0,1,2.576.889,3.4,3.4,0,0,1,.952,2.611v1.092H101.71a1.692,1.692,0,0,0,.49,1.2,1.814,1.814,0,0,0,1.316.448,5.945,5.945,0,0,0,1.344-.14,6.1,6.1,0,0,0,1.246-.448v1.75a4.56,4.56,0,0,1-1.2.427,7.975,7.975,0,0,1-1.582.133,4.844,4.844,0,0,1-2.065-.42,3.148,3.148,0,0,1-1.414-1.288,4.342,4.342,0,0,1-.511-2.226,4.064,4.064,0,0,1,1.022-3.038A3.691,3.691,0,0,1,103.04,7.174Zm.042,1.638a1.237,1.237,0,0,0-.9.35,1.689,1.689,0,0,0-.427,1.078H104.4a1.633,1.633,0,0,0-.343-1.022A1.178,1.178,0,0,0,103.082,8.812Zm10.472,3.864a2.223,2.223,0,0,1-.791,1.806,3.825,3.825,0,0,1-2.471.658,9.05,9.05,0,0,1-1.421-.1,5.569,5.569,0,0,1-1.225-.35v-1.9a6.955,6.955,0,0,0,1.4.469,5.87,5.87,0,0,0,1.232.161,1.588,1.588,0,0,0,.77-.14.434.434,0,0,0,.238-.392.483.483,0,0,0-.119-.322,1.55,1.55,0,0,0-.476-.315q-.357-.175-1.057-.469a5.572,5.572,0,0,1-1.127-.6,2.061,2.061,0,0,1-.658-.742,2.353,2.353,0,0,1-.217-1.071,1.841,1.841,0,0,1,.84-1.645,4.049,4.049,0,0,1,2.254-.553,6.13,6.13,0,0,1,1.4.154,7.168,7.168,0,0,1,1.358.476l-.672,1.6a7.969,7.969,0,0,0-1.106-.406,3.652,3.652,0,0,0-.98-.154q-.812,0-.812.42a.391.391,0,0,0,.119.287,1.76,1.76,0,0,0,.462.28q.343.161,1,.441a6.941,6.941,0,0,1,1.12.56,1.986,1.986,0,0,1,.7.735A2.326,2.326,0,0,1,113.554,12.676Zm8.218,2.464a3.75,3.75,0,0,1-2.716-.945,4.016,4.016,0,0,1-.98-3,4.607,4.607,0,0,1,.5-2.289,3.109,3.109,0,0,1,1.379-1.309,4.589,4.589,0,0,1,2.009-.42,5.49,5.49,0,0,1,1.358.154,5.766,5.766,0,0,1,1.092.392L123.732,9.5q-.49-.2-.91-.322a2.957,2.957,0,0,0-.854-.126,1.3,1.3,0,0,0-1.113.525,2.714,2.714,0,0,0-.385,1.6,2.478,2.478,0,0,0,.406,1.575,1.352,1.352,0,0,0,1.106.5,3.738,3.738,0,0,0,1.148-.175,4.231,4.231,0,0,0,1.036-.5V14.51a3.694,3.694,0,0,1-1.043.476A5.1,5.1,0,0,1,121.772,15.14Zm11.074-4a4.066,4.066,0,0,1-1.015,2.968,3.712,3.712,0,0,1-2.779,1.036,3.984,3.984,0,0,1-1.939-.462,3.274,3.274,0,0,1-1.33-1.358,4.55,4.55,0,0,1-.483-2.184A4.017,4.017,0,0,1,126.308,8.2a3.721,3.721,0,0,1,2.786-1.029,3.984,3.984,0,0,1,1.939.462,3.3,3.3,0,0,1,1.33,1.344A4.435,4.435,0,0,1,132.846,11.136Zm-5.152,0a3.309,3.309,0,0,0,.322,1.624,1.13,1.13,0,0,0,1.064.56,1.118,1.118,0,0,0,1.05-.56,3.309,3.309,0,0,0,.322-1.624,3.183,3.183,0,0,0-.322-1.6,1.142,1.142,0,0,0-1.064-.539,1.129,1.129,0,0,0-1.05.539A3.183,3.183,0,0,0,127.694,11.136Zm15.834-3.962a2.739,2.739,0,0,1,2,.665,2.909,2.909,0,0,1,.679,2.149V15H143.85V10.646a2.2,2.2,0,0,0-.266-1.225.892.892,0,0,0-.784-.385,1.093,1.093,0,0,0-1.05.574,3.563,3.563,0,0,0-.308,1.652V15H139.09V10.646a2.3,2.3,0,0,0-.252-1.218.866.866,0,0,0-.784-.392,1.068,1.068,0,0,0-1.071.637A4.593,4.593,0,0,0,136.7,11.5V15H134.33V7.314h1.792l.336.966h.1a2.118,2.118,0,0,1,.917-.819,3.071,3.071,0,0,1,1.351-.287,2.474,2.474,0,0,1,2.31,1.092h.14a2.26,2.26,0,0,1,.966-.819A3.082,3.082,0,0,1,143.528,7.174Zm5.726-2.912a1.688,1.688,0,0,1,.889.224.931.931,0,0,1,.371.868.933.933,0,0,1-.371.861,1.648,1.648,0,0,1-.889.231,1.676,1.676,0,0,1-.9-.231.933.933,0,0,1-.371-.861.931.931,0,0,1,.371-.868A1.717,1.717,0,0,1,149.254,4.262Zm1.162,3.052V15h-2.352V7.314Zm6.468-.14a2.853,2.853,0,0,1,1.967.665,2.741,2.741,0,0,1,.749,2.149V15h-2.352V10.646a2.214,2.214,0,0,0-.266-1.2.931.931,0,0,0-.84-.406,1.166,1.166,0,0,0-1.169.637,4.4,4.4,0,0,0-.3,1.827V15h-2.366V7.314H154.1l.322.994h.112a2.315,2.315,0,0,1,.973-.847A3.2,3.2,0,0,1,156.884,7.174Zm7.042,0a2.587,2.587,0,0,1,1.281.294,2.679,2.679,0,0,1,.889.812h.056l.182-.966h2.016v7.7a3.116,3.116,0,0,1-.987,2.492,4.447,4.447,0,0,1-2.975.854,11.535,11.535,0,0,1-1.575-.1,6.174,6.174,0,0,1-1.365-.35V15.994a7.748,7.748,0,0,0,1.393.441,7.476,7.476,0,0,0,1.547.147q1.61,0,1.61-1.47v-.154a7.375,7.375,0,0,1,.07-.952H166a2.45,2.45,0,0,1-.861.833,2.478,2.478,0,0,1-1.253.3,2.431,2.431,0,0,1-2.065-1.036,4.89,4.89,0,0,1-.763-2.94,4.85,4.85,0,0,1,.777-2.954A2.481,2.481,0,0,1,163.926,7.174Zm.826,1.862q-1.3,0-1.3,2.17a3.055,3.055,0,0,0,.322,1.589,1.105,1.105,0,0,0,1.008.511,1.232,1.232,0,0,0,1.057-.441,2.407,2.407,0,0,0,.329-1.421V11.15a3.153,3.153,0,0,0-.315-1.6A1.181,1.181,0,0,0,164.752,9.036Zm14.518,3.64a2.223,2.223,0,0,1-.791,1.806,3.825,3.825,0,0,1-2.471.658,9.05,9.05,0,0,1-1.421-.1,5.569,5.569,0,0,1-1.225-.35v-1.9a6.954,6.954,0,0,0,1.4.469,5.87,5.87,0,0,0,1.232.161,1.588,1.588,0,0,0,.77-.14.434.434,0,0,0,.238-.392.483.483,0,0,0-.119-.322,1.55,1.55,0,0,0-.476-.315q-.357-.175-1.057-.469a5.572,5.572,0,0,1-1.127-.6,2.061,2.061,0,0,1-.658-.742,2.353,2.353,0,0,1-.217-1.071,1.841,1.841,0,0,1,.84-1.645,4.049,4.049,0,0,1,2.254-.553,6.13,6.13,0,0,1,1.4.154A7.168,7.168,0,0,1,179.2,7.8l-.672,1.6a7.97,7.97,0,0,0-1.106-.406,3.652,3.652,0,0,0-.98-.154q-.812,0-.812.42a.391.391,0,0,0,.119.287,1.76,1.76,0,0,0,.462.28q.343.161,1,.441a6.941,6.941,0,0,1,1.12.56,1.986,1.986,0,0,1,.7.735A2.326,2.326,0,0,1,179.27,12.676Zm8.568-1.54a4.066,4.066,0,0,1-1.015,2.968,3.712,3.712,0,0,1-2.779,1.036,3.984,3.984,0,0,1-1.939-.462,3.274,3.274,0,0,1-1.33-1.358,4.55,4.55,0,0,1-.483-2.184A4.017,4.017,0,0,1,181.3,8.2a3.721,3.721,0,0,1,2.786-1.029,3.984,3.984,0,0,1,1.939.462,3.3,3.3,0,0,1,1.33,1.344A4.435,4.435,0,0,1,187.838,11.136Zm-5.152,0a3.309,3.309,0,0,0,.322,1.624,1.13,1.13,0,0,0,1.064.56,1.118,1.118,0,0,0,1.05-.56,3.309,3.309,0,0,0,.322-1.624,3.183,3.183,0,0,0-.322-1.6,1.142,1.142,0,0,0-1.064-.539,1.129,1.129,0,0,0-1.05.539A3.183,3.183,0,0,0,182.686,11.136Zm13.79,0a4.066,4.066,0,0,1-1.015,2.968,3.712,3.712,0,0,1-2.779,1.036,3.984,3.984,0,0,1-1.939-.462,3.274,3.274,0,0,1-1.33-1.358,4.55,4.55,0,0,1-.483-2.184A4.017,4.017,0,0,1,189.938,8.2a3.721,3.721,0,0,1,2.786-1.029,3.984,3.984,0,0,1,1.939.462,3.3,3.3,0,0,1,1.33,1.344A4.435,4.435,0,0,1,196.476,11.136Zm-5.152,0a3.309,3.309,0,0,0,.322,1.624,1.13,1.13,0,0,0,1.064.56,1.118,1.118,0,0,0,1.05-.56,3.309,3.309,0,0,0,.322-1.624,3.183,3.183,0,0,0-.322-1.6,1.142,1.142,0,0,0-1.064-.539,1.129,1.129,0,0,0-1.05.539A3.183,3.183,0,0,0,191.324,11.136Zm11.214-3.962a2.853,2.853,0,0,1,1.967.665,2.741,2.741,0,0,1,.749,2.149V15H202.9V10.646a2.214,2.214,0,0,0-.266-1.2.931.931,0,0,0-.84-.406,1.166,1.166,0,0,0-1.169.637,4.4,4.4,0,0,0-.3,1.827V15H197.96V7.314h1.792l.322.994h.112a2.315,2.315,0,0,1,.973-.847A3.2,3.2,0,0,1,202.538,7.174Zm6.552,4.41h-1.946L206.794,5h2.646Zm-2.3,2.366a1.1,1.1,0,0,1,.385-.959,1.568,1.568,0,0,1,.931-.273,1.512,1.512,0,0,1,.91.273,1.106,1.106,0,0,1,.378.959,1.111,1.111,0,0,1-.378.945,1.461,1.461,0,0,1-.91.287,1.514,1.514,0,0,1-.931-.287A1.1,1.1,0,0,1,206.794,13.95Z" transform="translate(81.537 333.156)" fill="#225782"/><path d="M9.7,0A9.689,9.689,0,1,1,0,9.689,9.693,9.693,0,0,1,9.7,0Z" transform="translate(52.532 256.814)" fill="#ffc823"/><path d="M312.353,354.644l-5.545-5.543A.84.84,0,1,1,308,347.913l4.357,4.355,10.133-10.129a.84.84,0,1,1,1.188,1.188Z" transform="translate(-248.271 -83.448)" fill="#fff"/><path d="M5.516,6.838a1.954,1.954,0,0,0-1.7.847,4.026,4.026,0,0,0-.6,2.345,3.988,3.988,0,0,0,.574,2.331,2.051,2.051,0,0,0,1.792.805,4.908,4.908,0,0,0,1.246-.161q.616-.161,1.3-.413v2.016a6.405,6.405,0,0,1-1.33.406,7.907,7.907,0,0,1-1.456.126,4.763,4.763,0,0,1-2.6-.644A3.833,3.833,0,0,1,1.253,12.7,6.894,6.894,0,0,1,.77,10.016a6.153,6.153,0,0,1,.553-2.674A4.224,4.224,0,0,1,2.94,5.522a4.832,4.832,0,0,1,2.59-.658,6.9,6.9,0,0,1,3,.7l-.742,1.9a9.337,9.337,0,0,0-1.12-.448A3.692,3.692,0,0,0,5.516,6.838Zm11.62.476V15H15.344l-.308-.98H14.9a2.108,2.108,0,0,1-.994.854,3.419,3.419,0,0,1-1.344.266,2.865,2.865,0,0,1-1.953-.665,2.712,2.712,0,0,1-.763-2.149V7.314h2.366v4.354a2.23,2.23,0,0,0,.259,1.19.914.914,0,0,0,.833.406,1.171,1.171,0,0,0,1.162-.63,4.263,4.263,0,0,0,.308-1.82v-3.5Zm7.406,5.362a2.223,2.223,0,0,1-.791,1.806,3.825,3.825,0,0,1-2.471.658,9.05,9.05,0,0,1-1.421-.1,5.569,5.569,0,0,1-1.225-.35v-1.9a6.954,6.954,0,0,0,1.4.469,5.87,5.87,0,0,0,1.232.161,1.588,1.588,0,0,0,.77-.14.434.434,0,0,0,.238-.392.483.483,0,0,0-.119-.322,1.55,1.55,0,0,0-.476-.315q-.357-.175-1.057-.469a5.571,5.571,0,0,1-1.127-.6,2.061,2.061,0,0,1-.658-.742,2.353,2.353,0,0,1-.217-1.071,1.841,1.841,0,0,1,.84-1.645,4.049,4.049,0,0,1,2.254-.553,6.13,6.13,0,0,1,1.4.154,7.168,7.168,0,0,1,1.358.476L23.8,9.4a7.97,7.97,0,0,0-1.106-.406,3.652,3.652,0,0,0-.98-.154q-.812,0-.812.42a.391.391,0,0,0,.119.287,1.76,1.76,0,0,0,.462.28q.343.161,1,.441a6.942,6.942,0,0,1,1.12.56,1.986,1.986,0,0,1,.7.735A2.326,2.326,0,0,1,24.542,12.676Zm4.9.588a3.059,3.059,0,0,0,.665-.07,5.71,5.71,0,0,0,.637-.182v1.736a4.743,4.743,0,0,1-.868.28,5.272,5.272,0,0,1-1.162.112,3.263,3.263,0,0,1-1.267-.231,1.752,1.752,0,0,1-.868-.8,3.27,3.27,0,0,1-.315-1.575V9.078h-.98V8.1l1.176-.756L27.1,5.718h1.512v1.6H30.66V9.078H28.616v3.374a.781.781,0,0,0,.224.609A.862.862,0,0,0,29.442,13.264Zm9.772-2.128A4.066,4.066,0,0,1,38.2,14.1,3.712,3.712,0,0,1,35.42,15.14a3.984,3.984,0,0,1-1.939-.462,3.274,3.274,0,0,1-1.33-1.358,4.55,4.55,0,0,1-.483-2.184A4.017,4.017,0,0,1,32.676,8.2a3.721,3.721,0,0,1,2.786-1.029,3.984,3.984,0,0,1,1.939.462,3.3,3.3,0,0,1,1.33,1.344A4.435,4.435,0,0,1,39.214,11.136Zm-5.152,0a3.309,3.309,0,0,0,.322,1.624,1.13,1.13,0,0,0,1.064.56,1.118,1.118,0,0,0,1.05-.56,3.309,3.309,0,0,0,.322-1.624,3.183,3.183,0,0,0-.322-1.6,1.142,1.142,0,0,0-1.064-.539,1.129,1.129,0,0,0-1.05.539A3.183,3.183,0,0,0,34.062,11.136ZM49.9,7.174a2.739,2.739,0,0,1,1.995.665,2.909,2.909,0,0,1,.679,2.149V15H50.218V10.646a2.2,2.2,0,0,0-.266-1.225.892.892,0,0,0-.784-.385,1.093,1.093,0,0,0-1.05.574,3.563,3.563,0,0,0-.308,1.652V15H45.458V10.646a2.3,2.3,0,0,0-.252-1.218.866.866,0,0,0-.784-.392,1.068,1.068,0,0,0-1.071.637,4.593,4.593,0,0,0-.287,1.827V15H40.7V7.314H42.49l.336.966h.1a2.118,2.118,0,0,1,.917-.819,3.071,3.071,0,0,1,1.351-.287A2.474,2.474,0,0,1,47.5,8.266h.14a2.26,2.26,0,0,1,.966-.819A3.082,3.082,0,0,1,49.9,7.174Zm5.726-2.912a1.688,1.688,0,0,1,.889.224.931.931,0,0,1,.371.868.933.933,0,0,1-.371.861,1.648,1.648,0,0,1-.889.231,1.676,1.676,0,0,1-.9-.231.933.933,0,0,1-.371-.861.931.931,0,0,1,.371-.868A1.717,1.717,0,0,1,55.622,4.262Zm1.162,3.052V15H54.432V7.314ZM64.232,15h-6.2V13.628L61.418,9.12H58.226V7.314h5.866V8.8l-3.262,4.4h3.4ZM68.81,7.174a3.624,3.624,0,0,1,2.576.889,3.4,3.4,0,0,1,.952,2.611v1.092H67.48a1.692,1.692,0,0,0,.49,1.2,1.814,1.814,0,0,0,1.316.448,5.945,5.945,0,0,0,1.344-.14,6.1,6.1,0,0,0,1.246-.448v1.75a4.56,4.56,0,0,1-1.2.427,7.975,7.975,0,0,1-1.582.133,4.844,4.844,0,0,1-2.065-.42,3.148,3.148,0,0,1-1.414-1.288,4.342,4.342,0,0,1-.511-2.226,4.064,4.064,0,0,1,1.022-3.038A3.691,3.691,0,0,1,68.81,7.174Zm.042,1.638a1.237,1.237,0,0,0-.9.35,1.689,1.689,0,0,0-.427,1.078h2.646a1.633,1.633,0,0,0-.343-1.022A1.178,1.178,0,0,0,68.852,8.812Zm7.364,6.328a2.456,2.456,0,0,1-2.03-1.008,4.77,4.77,0,0,1-.784-2.968,4.735,4.735,0,0,1,.8-2.982,2.535,2.535,0,0,1,2.086-1.008A2.411,2.411,0,0,1,77.6,7.5a2.652,2.652,0,0,1,.812.8h.056q-.042-.252-.091-.721a8.954,8.954,0,0,1-.049-.931V4.36H80.7V15H78.9l-.476-.994h-.1a2.6,2.6,0,0,1-.791.805A2.363,2.363,0,0,1,76.216,15.14Zm.9-1.876a1.2,1.2,0,0,0,1.071-.462,2.577,2.577,0,0,0,.329-1.4v-.21a3.3,3.3,0,0,0-.3-1.575,1.175,1.175,0,0,0-1.127-.539,1.086,1.086,0,0,0-.952.532,2.933,2.933,0,0,0-.35,1.6,2.71,2.71,0,0,0,.357,1.554A1.13,1.13,0,0,0,77.112,13.264ZM86.254,15V5h2.38v8.05H92.6V15ZM97.286,7.174a3.624,3.624,0,0,1,2.576.889,3.4,3.4,0,0,1,.952,2.611v1.092H95.956a1.692,1.692,0,0,0,.49,1.2,1.814,1.814,0,0,0,1.316.448,5.945,5.945,0,0,0,1.344-.14,6.1,6.1,0,0,0,1.246-.448v1.75a4.56,4.56,0,0,1-1.2.427,7.975,7.975,0,0,1-1.582.133,4.844,4.844,0,0,1-2.065-.42,3.148,3.148,0,0,1-1.414-1.288,4.342,4.342,0,0,1-.511-2.226A4.064,4.064,0,0,1,94.6,8.168,3.691,3.691,0,0,1,97.286,7.174Zm.042,1.638a1.237,1.237,0,0,0-.9.35A1.689,1.689,0,0,0,96,10.24h2.646A1.633,1.633,0,0,0,98.3,9.218,1.178,1.178,0,0,0,97.328,8.812Zm8.386-1.652a3.515,3.515,0,0,1,2.324.693,2.526,2.526,0,0,1,.826,2.051V15h-1.638l-.462-1.036h-.056a3.249,3.249,0,0,1-1.036.9,3.321,3.321,0,0,1-1.5.28,2.444,2.444,0,0,1-1.694-.6,2.377,2.377,0,0,1-.672-1.862,2.051,2.051,0,0,1,.861-1.82A4.858,4.858,0,0,1,105.2,10.2l1.316-.042V9.932a1.029,1.029,0,0,0-.287-.812,1.158,1.158,0,0,0-.791-.252,3.682,3.682,0,0,0-1.057.161,10.486,10.486,0,0,0-1.1.4l-.714-1.568a5.728,5.728,0,0,1,1.428-.518A7.736,7.736,0,0,1,105.714,7.16Zm.8,4.34-.714.028a2.1,2.1,0,0,0-1.232.315.952.952,0,0,0-.35.777.756.756,0,0,0,.245.637,1.038,1.038,0,0,0,.651.189,1.452,1.452,0,0,0,.994-.357,1.229,1.229,0,0,0,.406-.973Zm8.666-4.326q.182,0,.406.021a2.99,2.99,0,0,1,.35.049l-.2,2.212a3.244,3.244,0,0,0-.756-.07,2.8,2.8,0,0,0-.889.147,1.486,1.486,0,0,0-.728.525,1.781,1.781,0,0,0-.287,1.092V15h-2.366V7.314h1.778l.364,1.26h.1a3.175,3.175,0,0,1,.917-.987A2.2,2.2,0,0,1,115.178,7.174Zm6.426,0a2.853,2.853,0,0,1,1.967.665,2.741,2.741,0,0,1,.749,2.149V15h-2.352V10.646a2.214,2.214,0,0,0-.266-1.2.931.931,0,0,0-.84-.406,1.166,1.166,0,0,0-1.169.637,4.4,4.4,0,0,0-.3,1.827V15h-2.366V7.314h1.792l.322.994h.112a2.314,2.314,0,0,1,.973-.847A3.2,3.2,0,0,1,121.6,7.174Zm5.768-2.912a1.688,1.688,0,0,1,.889.224.931.931,0,0,1,.371.868.933.933,0,0,1-.371.861,1.648,1.648,0,0,1-.889.231,1.676,1.676,0,0,1-.9-.231.933.933,0,0,1-.371-.861.931.931,0,0,1,.371-.868A1.717,1.717,0,0,1,127.372,4.262Zm1.162,3.052V15h-2.352V7.314ZM135,7.174a2.853,2.853,0,0,1,1.967.665,2.741,2.741,0,0,1,.749,2.149V15h-2.352V10.646a2.214,2.214,0,0,0-.266-1.2.931.931,0,0,0-.84-.406,1.166,1.166,0,0,0-1.169.637,4.4,4.4,0,0,0-.3,1.827V15h-2.366V7.314h1.792l.322.994h.112a2.315,2.315,0,0,1,.973-.847A3.2,3.2,0,0,1,135,7.174Zm7.042,0a2.587,2.587,0,0,1,1.281.294,2.679,2.679,0,0,1,.889.812h.056l.182-.966h2.016v7.7a3.116,3.116,0,0,1-.987,2.492,4.447,4.447,0,0,1-2.975.854,11.535,11.535,0,0,1-1.575-.1,6.174,6.174,0,0,1-1.365-.35V15.994a7.748,7.748,0,0,0,1.393.441,7.476,7.476,0,0,0,1.547.147q1.61,0,1.61-1.47v-.154a7.375,7.375,0,0,1,.07-.952h-.07a2.45,2.45,0,0,1-.861.833,2.478,2.478,0,0,1-1.253.3,2.431,2.431,0,0,1-2.065-1.036,4.89,4.89,0,0,1-.763-2.94,4.85,4.85,0,0,1,.777-2.954A2.481,2.481,0,0,1,142.044,7.174Zm.826,1.862q-1.3,0-1.3,2.17a3.055,3.055,0,0,0,.322,1.589,1.105,1.105,0,0,0,1.008.511,1.232,1.232,0,0,0,1.057-.441,2.407,2.407,0,0,0,.329-1.421V11.15a3.153,3.153,0,0,0-.315-1.6A1.181,1.181,0,0,0,142.87,9.036Zm13.5-2.2a1.954,1.954,0,0,0-1.7.847,4.026,4.026,0,0,0-.6,2.345,3.988,3.988,0,0,0,.574,2.331,2.051,2.051,0,0,0,1.792.805,4.908,4.908,0,0,0,1.246-.161q.616-.161,1.3-.413v2.016a6.405,6.405,0,0,1-1.33.406,7.907,7.907,0,0,1-1.456.126,4.763,4.763,0,0,1-2.6-.644A3.833,3.833,0,0,1,152.1,12.7a6.894,6.894,0,0,1-.483-2.688,6.153,6.153,0,0,1,.553-2.674,4.224,4.224,0,0,1,1.617-1.82,4.832,4.832,0,0,1,2.59-.658,6.9,6.9,0,0,1,3,.7l-.742,1.9a9.337,9.337,0,0,0-1.12-.448A3.692,3.692,0,0,0,156.366,6.838Zm11.508,4.3a4.066,4.066,0,0,1-1.015,2.968,3.712,3.712,0,0,1-2.779,1.036,3.984,3.984,0,0,1-1.939-.462,3.274,3.274,0,0,1-1.33-1.358,4.55,4.55,0,0,1-.483-2.184A4.017,4.017,0,0,1,161.336,8.2a3.721,3.721,0,0,1,2.786-1.029,3.984,3.984,0,0,1,1.939.462,3.3,3.3,0,0,1,1.33,1.344A4.435,4.435,0,0,1,167.874,11.136Zm-5.152,0a3.309,3.309,0,0,0,.322,1.624,1.13,1.13,0,0,0,1.064.56,1.118,1.118,0,0,0,1.05-.56,3.309,3.309,0,0,0,.322-1.624,3.183,3.183,0,0,0-.322-1.6,1.142,1.142,0,0,0-1.064-.539,1.129,1.129,0,0,0-1.05.539A3.183,3.183,0,0,0,162.722,11.136Zm13.9-3.822V15h-1.792l-.308-.98h-.14a2.108,2.108,0,0,1-.994.854,3.419,3.419,0,0,1-1.344.266,2.865,2.865,0,0,1-1.953-.665,2.712,2.712,0,0,1-.763-2.149V7.314H171.7v4.354a2.23,2.23,0,0,0,.259,1.19.914.914,0,0,0,.833.406,1.171,1.171,0,0,0,1.162-.63,4.262,4.262,0,0,0,.308-1.82v-3.5Zm6.342-.14q.182,0,.406.021a2.99,2.99,0,0,1,.35.049l-.2,2.212a3.244,3.244,0,0,0-.756-.07,2.8,2.8,0,0,0-.889.147,1.486,1.486,0,0,0-.728.525,1.781,1.781,0,0,0-.287,1.092V15H178.5V7.314h1.778l.364,1.26h.1a3.175,3.175,0,0,1,.917-.987A2.205,2.205,0,0,1,182.966,7.174Zm7.378,5.5a2.223,2.223,0,0,1-.791,1.806,3.825,3.825,0,0,1-2.471.658,9.05,9.05,0,0,1-1.421-.1,5.569,5.569,0,0,1-1.225-.35v-1.9a6.954,6.954,0,0,0,1.4.469,5.87,5.87,0,0,0,1.232.161,1.588,1.588,0,0,0,.77-.14.434.434,0,0,0,.238-.392.483.483,0,0,0-.119-.322,1.55,1.55,0,0,0-.476-.315q-.357-.175-1.057-.469a5.572,5.572,0,0,1-1.127-.6,2.061,2.061,0,0,1-.658-.742,2.353,2.353,0,0,1-.217-1.071,1.841,1.841,0,0,1,.84-1.645,4.049,4.049,0,0,1,2.254-.553,6.13,6.13,0,0,1,1.4.154,7.168,7.168,0,0,1,1.358.476L189.6,9.4a7.97,7.97,0,0,0-1.106-.406,3.652,3.652,0,0,0-.98-.154q-.812,0-.812.42a.391.391,0,0,0,.119.287,1.76,1.76,0,0,0,.462.28q.343.161,1,.441a6.941,6.941,0,0,1,1.12.56,1.986,1.986,0,0,1,.7.735A2.326,2.326,0,0,1,190.344,12.676Zm4.732-5.5a3.624,3.624,0,0,1,2.576.889,3.4,3.4,0,0,1,.952,2.611v1.092h-4.858a1.692,1.692,0,0,0,.49,1.2,1.814,1.814,0,0,0,1.316.448,5.944,5.944,0,0,0,1.344-.14,6.1,6.1,0,0,0,1.246-.448v1.75a4.56,4.56,0,0,1-1.2.427,7.975,7.975,0,0,1-1.582.133,4.844,4.844,0,0,1-2.065-.42,3.148,3.148,0,0,1-1.414-1.288,4.342,4.342,0,0,1-.511-2.226,4.064,4.064,0,0,1,1.022-3.038A3.691,3.691,0,0,1,195.076,7.174Zm.042,1.638a1.237,1.237,0,0,0-.9.35,1.689,1.689,0,0,0-.427,1.078h2.646a1.633,1.633,0,0,0-.343-1.022A1.179,1.179,0,0,0,195.118,8.812Z" transform="translate(81.537 258.043)" fill="#225782"/><path d="M9.7,0A9.689,9.689,0,1,1,0,9.689,9.693,9.693,0,0,1,9.7,0Z" transform="translate(52.532 370.996)" fill="#ffc823"/><path d="M312.353,354.644l-5.545-5.543A.84.84,0,1,1,308,347.913l4.357,4.355,10.133-10.129a.84.84,0,1,1,1.188,1.188Z" transform="translate(-248.271 30.733)" fill="#fff"/><path d="M4.452,7.16a3.515,3.515,0,0,1,2.324.693A2.526,2.526,0,0,1,7.6,9.9V15H5.964L5.5,13.964H5.446a3.249,3.249,0,0,1-1.036.9,3.321,3.321,0,0,1-1.5.28,2.444,2.444,0,0,1-1.694-.6,2.377,2.377,0,0,1-.672-1.862,2.051,2.051,0,0,1,.861-1.82A4.858,4.858,0,0,1,3.934,10.2l1.316-.042V9.932a1.029,1.029,0,0,0-.287-.812,1.158,1.158,0,0,0-.791-.252,3.682,3.682,0,0,0-1.057.161,10.485,10.485,0,0,0-1.1.4L1.3,7.86A5.728,5.728,0,0,1,2.73,7.342,7.736,7.736,0,0,1,4.452,7.16Zm.8,4.34-.714.028a2.1,2.1,0,0,0-1.232.315.952.952,0,0,0-.35.777.756.756,0,0,0,.245.637,1.038,1.038,0,0,0,.651.189,1.452,1.452,0,0,0,.994-.357,1.229,1.229,0,0,0,.406-.973Zm8.778-4.326A2.853,2.853,0,0,1,16,7.839a2.741,2.741,0,0,1,.749,2.149V15H14.392V10.646a2.214,2.214,0,0,0-.266-1.2.931.931,0,0,0-.84-.406,1.166,1.166,0,0,0-1.169.637,4.4,4.4,0,0,0-.3,1.827V15H9.45V7.314h1.792l.322.994h.112a2.314,2.314,0,0,1,.973-.847A3.2,3.2,0,0,1,14.028,7.174Zm6.986,7.966a2.456,2.456,0,0,1-2.03-1.008,4.77,4.77,0,0,1-.784-2.968A4.735,4.735,0,0,1,19,8.182a2.535,2.535,0,0,1,2.086-1.008A2.411,2.411,0,0,1,22.4,7.5a2.652,2.652,0,0,1,.812.8h.056q-.042-.252-.091-.721a8.954,8.954,0,0,1-.049-.931V4.36h2.366V15H23.7l-.476-.994h-.1a2.6,2.6,0,0,1-.791.805A2.363,2.363,0,0,1,21.014,15.14Zm.9-1.876a1.2,1.2,0,0,0,1.071-.462,2.577,2.577,0,0,0,.329-1.4v-.21a3.3,3.3,0,0,0-.3-1.575,1.175,1.175,0,0,0-1.127-.539,1.086,1.086,0,0,0-.952.532,2.933,2.933,0,0,0-.35,1.6,2.71,2.71,0,0,0,.357,1.554A1.13,1.13,0,0,0,21.91,13.264Zm18.172-6.09a2.739,2.739,0,0,1,1.995.665,2.909,2.909,0,0,1,.679,2.149V15H40.4V10.646a2.2,2.2,0,0,0-.266-1.225.892.892,0,0,0-.784-.385,1.093,1.093,0,0,0-1.05.574A3.563,3.563,0,0,0,38,11.262V15H35.644V10.646a2.3,2.3,0,0,0-.252-1.218.866.866,0,0,0-.784-.392,1.068,1.068,0,0,0-1.071.637A4.593,4.593,0,0,0,33.25,11.5V15H30.884V7.314h1.792l.336.966h.1a2.118,2.118,0,0,1,.917-.819,3.071,3.071,0,0,1,1.351-.287,2.474,2.474,0,0,1,2.31,1.092h.14a2.26,2.26,0,0,1,.966-.819A3.082,3.082,0,0,1,40.082,7.174Zm11.788.14V15H50.078l-.308-.98h-.14a2.108,2.108,0,0,1-.994.854,3.419,3.419,0,0,1-1.344.266,2.865,2.865,0,0,1-1.953-.665,2.712,2.712,0,0,1-.763-2.149V7.314h2.366v4.354a2.23,2.23,0,0,0,.259,1.19.914.914,0,0,0,.833.406,1.171,1.171,0,0,0,1.162-.63,4.262,4.262,0,0,0,.308-1.82v-3.5Zm5.18,7.826a3.75,3.75,0,0,1-2.716-.945,4.016,4.016,0,0,1-.98-3,4.607,4.607,0,0,1,.5-2.289,3.109,3.109,0,0,1,1.379-1.309,4.589,4.589,0,0,1,2.009-.42,5.49,5.49,0,0,1,1.358.154A5.766,5.766,0,0,1,59.7,7.72L59.01,9.5q-.49-.2-.91-.322a2.957,2.957,0,0,0-.854-.126,1.3,1.3,0,0,0-1.113.525,2.714,2.714,0,0,0-.385,1.6,2.478,2.478,0,0,0,.406,1.575,1.352,1.352,0,0,0,1.106.5,3.738,3.738,0,0,0,1.148-.175,4.231,4.231,0,0,0,1.036-.5V14.51a3.694,3.694,0,0,1-1.043.476A5.1,5.1,0,0,1,57.05,15.14ZM63.336,4.36V6.222q0,.7-.042,1.253t-.07.805h.126a2.075,2.075,0,0,1,.924-.854,3,3,0,0,1,1.246-.252,3.245,3.245,0,0,1,1.414.294,2.195,2.195,0,0,1,.973.917,3.2,3.2,0,0,1,.357,1.6V15H65.9V10.646q0-1.61-1.092-1.61a1.171,1.171,0,0,0-1.155.637,4.187,4.187,0,0,0-.315,1.813V15H60.97V4.36ZM82.81,7.174a2.739,2.739,0,0,1,1.995.665,2.909,2.909,0,0,1,.679,2.149V15H83.132V10.646a2.2,2.2,0,0,0-.266-1.225.892.892,0,0,0-.784-.385,1.093,1.093,0,0,0-1.05.574,3.563,3.563,0,0,0-.308,1.652V15H78.372V10.646a2.3,2.3,0,0,0-.252-1.218.866.866,0,0,0-.784-.392,1.068,1.068,0,0,0-1.071.637,4.593,4.593,0,0,0-.287,1.827V15H73.612V7.314H75.4l.336.966h.1a2.118,2.118,0,0,1,.917-.819,3.071,3.071,0,0,1,1.351-.287,2.474,2.474,0,0,1,2.31,1.092h.14a2.26,2.26,0,0,1,.966-.819A3.082,3.082,0,0,1,82.81,7.174Zm11.676,3.962A4.066,4.066,0,0,1,93.471,14.1a3.712,3.712,0,0,1-2.779,1.036,3.984,3.984,0,0,1-1.939-.462,3.274,3.274,0,0,1-1.33-1.358,4.55,4.55,0,0,1-.483-2.184A4.017,4.017,0,0,1,87.948,8.2a3.721,3.721,0,0,1,2.786-1.029,3.984,3.984,0,0,1,1.939.462A3.3,3.3,0,0,1,94,8.98,4.435,4.435,0,0,1,94.486,11.136Zm-5.152,0a3.309,3.309,0,0,0,.322,1.624,1.13,1.13,0,0,0,1.064.56,1.118,1.118,0,0,0,1.05-.56,3.309,3.309,0,0,0,.322-1.624,3.183,3.183,0,0,0-.322-1.6,1.142,1.142,0,0,0-1.064-.539,1.129,1.129,0,0,0-1.05.539A3.183,3.183,0,0,0,89.334,11.136Zm11.1-3.962q.182,0,.406.021a2.99,2.99,0,0,1,.35.049L101,9.456a3.244,3.244,0,0,0-.756-.07,2.8,2.8,0,0,0-.889.147,1.486,1.486,0,0,0-.728.525,1.781,1.781,0,0,0-.287,1.092V15H95.97V7.314h1.778l.364,1.26h.1a3.175,3.175,0,0,1,.917-.987A2.2,2.2,0,0,1,100.436,7.174Zm4.886,0a3.624,3.624,0,0,1,2.576.889,3.4,3.4,0,0,1,.952,2.611v1.092h-4.858a1.692,1.692,0,0,0,.49,1.2,1.814,1.814,0,0,0,1.316.448,5.945,5.945,0,0,0,1.344-.14,6.1,6.1,0,0,0,1.246-.448v1.75a4.56,4.56,0,0,1-1.2.427,7.975,7.975,0,0,1-1.582.133,4.844,4.844,0,0,1-2.065-.42,3.148,3.148,0,0,1-1.414-1.288,4.342,4.342,0,0,1-.511-2.226,4.064,4.064,0,0,1,1.022-3.038A3.691,3.691,0,0,1,105.322,7.174Zm.042,1.638a1.237,1.237,0,0,0-.9.35,1.689,1.689,0,0,0-.427,1.078h2.646a1.633,1.633,0,0,0-.343-1.022A1.178,1.178,0,0,0,105.364,8.812Zm11.928,4.452a3.059,3.059,0,0,0,.665-.07,5.71,5.71,0,0,0,.637-.182v1.736a4.743,4.743,0,0,1-.868.28,5.273,5.273,0,0,1-1.162.112,3.263,3.263,0,0,1-1.267-.231,1.752,1.752,0,0,1-.868-.8,3.27,3.27,0,0,1-.315-1.575V9.078h-.98V8.1l1.176-.756.644-1.624h1.512v1.6h2.044V9.078h-2.044v3.374a.781.781,0,0,0,.224.609A.862.862,0,0,0,117.292,13.264Zm9.772-2.128a4.066,4.066,0,0,1-1.015,2.968,3.712,3.712,0,0,1-2.779,1.036,3.984,3.984,0,0,1-1.939-.462A3.274,3.274,0,0,1,120,13.32a4.55,4.55,0,0,1-.483-2.184A4.017,4.017,0,0,1,120.526,8.2a3.721,3.721,0,0,1,2.786-1.029,3.984,3.984,0,0,1,1.939.462,3.3,3.3,0,0,1,1.33,1.344A4.435,4.435,0,0,1,127.064,11.136Zm-5.152,0a3.309,3.309,0,0,0,.322,1.624,1.13,1.13,0,0,0,1.064.56,1.118,1.118,0,0,0,1.05-.56,3.309,3.309,0,0,0,.322-1.624,3.183,3.183,0,0,0-.322-1.6,1.142,1.142,0,0,0-1.064-.539,1.129,1.129,0,0,0-1.05.539A3.183,3.183,0,0,0,121.912,11.136Zm12.5-6.776V6.81q0,.42-.028.819t-.07.679h.1a2.574,2.574,0,0,1,.8-.805,2.371,2.371,0,0,1,1.316-.329,2.475,2.475,0,0,1,2.037,1.008,4.713,4.713,0,0,1,.791,2.954,4.736,4.736,0,0,1-.8,2.989,2.547,2.547,0,0,1-2.093,1.015,2.392,2.392,0,0,1-1.288-.294,3.266,3.266,0,0,1-.756-.644h-.154l-.378.8h-1.834V4.36Zm1.3,4.676a1.092,1.092,0,0,0-.994.455,2.688,2.688,0,0,0-.308,1.393v.294a3.26,3.26,0,0,0,.287,1.54,1.087,1.087,0,0,0,1.043.518.985.985,0,0,0,.882-.546,3.154,3.154,0,0,0,.322-1.582Q136.948,9.036,135.716,9.036Zm8.442-1.862a3.624,3.624,0,0,1,2.576.889,3.4,3.4,0,0,1,.952,2.611v1.092h-4.858a1.692,1.692,0,0,0,.49,1.2,1.814,1.814,0,0,0,1.316.448,5.944,5.944,0,0,0,1.344-.14,6.1,6.1,0,0,0,1.246-.448v1.75a4.56,4.56,0,0,1-1.2.427,7.975,7.975,0,0,1-1.582.133,4.844,4.844,0,0,1-2.065-.42,3.148,3.148,0,0,1-1.414-1.288,4.342,4.342,0,0,1-.511-2.226,4.064,4.064,0,0,1,1.022-3.038A3.691,3.691,0,0,1,144.158,7.174Zm.042,1.638a1.237,1.237,0,0,0-.9.35,1.689,1.689,0,0,0-.427,1.078h2.646a1.633,1.633,0,0,0-.343-1.022A1.179,1.179,0,0,0,144.2,8.812Zm15.708-1.5V15h-1.792l-.308-.98h-.14a2.108,2.108,0,0,1-.994.854,3.419,3.419,0,0,1-1.344.266,2.865,2.865,0,0,1-1.953-.665,2.712,2.712,0,0,1-.763-2.149V7.314h2.366v4.354a2.23,2.23,0,0,0,.259,1.19.914.914,0,0,0,.833.406,1.171,1.171,0,0,0,1.162-.63,4.262,4.262,0,0,0,.308-1.82v-3.5Zm6.356-.14a2.453,2.453,0,0,1,2.058,1.015,4.813,4.813,0,0,1,.77,2.947,5.648,5.648,0,0,1-.378,2.2,3.033,3.033,0,0,1-1.029,1.344,2.539,2.539,0,0,1-1.491.455,2.43,2.43,0,0,1-1.295-.294,2.957,2.957,0,0,1-.749-.644h-.1q.042.266.07.56t.028.63V18.36h-2.366V7.314H163.7l.336.98h.112a2.781,2.781,0,0,1,.8-.784A2.332,2.332,0,0,1,166.264,7.174Zm-.826,1.862a1.066,1.066,0,0,0-.994.462,2.88,2.88,0,0,0-.294,1.414v.21a3.515,3.515,0,0,0,.28,1.568,1.057,1.057,0,0,0,1.036.546q1.218,0,1.218-2.128a3.093,3.093,0,0,0-.308-1.568A1.025,1.025,0,0,0,165.438,9.036Zm7.56,6.1a2.456,2.456,0,0,1-2.03-1.008,4.77,4.77,0,0,1-.784-2.968,4.735,4.735,0,0,1,.8-2.982,2.535,2.535,0,0,1,2.086-1.008,2.411,2.411,0,0,1,1.316.322,2.652,2.652,0,0,1,.812.8h.056q-.042-.252-.091-.721a8.954,8.954,0,0,1-.049-.931V4.36h2.366V15h-1.792l-.476-.994h-.1a2.6,2.6,0,0,1-.791.805A2.364,2.364,0,0,1,173,15.14Zm.9-1.876a1.2,1.2,0,0,0,1.071-.462,2.577,2.577,0,0,0,.329-1.4v-.21a3.3,3.3,0,0,0-.3-1.575,1.175,1.175,0,0,0-1.127-.539,1.086,1.086,0,0,0-.952.532,2.933,2.933,0,0,0-.35,1.6,2.71,2.71,0,0,0,.357,1.554A1.13,1.13,0,0,0,173.894,13.264Zm8.918-6.1a3.515,3.515,0,0,1,2.324.693,2.525,2.525,0,0,1,.826,2.051V15h-1.638l-.462-1.036h-.056a3.249,3.249,0,0,1-1.036.9,3.321,3.321,0,0,1-1.5.28,2.444,2.444,0,0,1-1.694-.6,2.377,2.377,0,0,1-.672-1.862,2.051,2.051,0,0,1,.861-1.82,4.858,4.858,0,0,1,2.527-.658l1.316-.042V9.932a1.029,1.029,0,0,0-.287-.812,1.158,1.158,0,0,0-.791-.252,3.682,3.682,0,0,0-1.057.161,10.486,10.486,0,0,0-1.1.4l-.714-1.568a5.728,5.728,0,0,1,1.428-.518A7.736,7.736,0,0,1,182.812,7.16Zm.8,4.34-.714.028a2.1,2.1,0,0,0-1.232.315.952.952,0,0,0-.35.777.756.756,0,0,0,.245.637,1.038,1.038,0,0,0,.651.189,1.452,1.452,0,0,0,.994-.357,1.229,1.229,0,0,0,.406-.973Zm7.686,1.764a3.059,3.059,0,0,0,.665-.07,5.71,5.71,0,0,0,.637-.182v1.736a4.743,4.743,0,0,1-.868.28,5.272,5.272,0,0,1-1.162.112,3.263,3.263,0,0,1-1.267-.231,1.752,1.752,0,0,1-.868-.8,3.27,3.27,0,0,1-.315-1.575V9.078h-.98V8.1l1.176-.756.644-1.624h1.512v1.6h2.044V9.078H190.47v3.374a.781.781,0,0,0,.224.609A.862.862,0,0,0,191.3,13.264Zm5.936-6.09a3.624,3.624,0,0,1,2.576.889,3.4,3.4,0,0,1,.952,2.611v1.092H195.9a1.692,1.692,0,0,0,.49,1.2,1.814,1.814,0,0,0,1.316.448,5.944,5.944,0,0,0,1.344-.14,6.1,6.1,0,0,0,1.246-.448v1.75a4.56,4.56,0,0,1-1.2.427,7.975,7.975,0,0,1-1.582.133,4.844,4.844,0,0,1-2.065-.42,3.148,3.148,0,0,1-1.414-1.288,4.342,4.342,0,0,1-.511-2.226,4.064,4.064,0,0,1,1.022-3.038A3.691,3.691,0,0,1,197.232,7.174Zm.042,1.638a1.237,1.237,0,0,0-.9.35,1.689,1.689,0,0,0-.427,1.078h2.646a1.633,1.633,0,0,0-.343-1.022A1.179,1.179,0,0,0,197.274,8.812Zm7.364,6.328a2.456,2.456,0,0,1-2.03-1.008,4.77,4.77,0,0,1-.784-2.968,4.735,4.735,0,0,1,.8-2.982,2.535,2.535,0,0,1,2.086-1.008,2.411,2.411,0,0,1,1.316.322,2.652,2.652,0,0,1,.812.8h.056q-.042-.252-.091-.721a8.954,8.954,0,0,1-.049-.931V4.36h2.366V15h-1.792l-.476-.994h-.1a2.6,2.6,0,0,1-.791.805A2.364,2.364,0,0,1,204.638,15.14Zm.9-1.876A1.2,1.2,0,0,0,206.6,12.8a2.577,2.577,0,0,0,.329-1.4v-.21a3.3,3.3,0,0,0-.3-1.575,1.175,1.175,0,0,0-1.127-.539,1.086,1.086,0,0,0-.952.532,2.933,2.933,0,0,0-.35,1.6,2.71,2.71,0,0,0,.357,1.554A1.13,1.13,0,0,0,205.534,13.264ZM213,11.584H211.05L210.7,5h2.646Zm-2.3,2.366a1.1,1.1,0,0,1,.385-.959,1.568,1.568,0,0,1,.931-.273,1.512,1.512,0,0,1,.91.273,1.106,1.106,0,0,1,.378.959,1.111,1.111,0,0,1-.378.945,1.461,1.461,0,0,1-.91.287,1.514,1.514,0,0,1-.931-.287A1.1,1.1,0,0,1,210.7,13.95Z" transform="translate(81.537 370.91)" fill="#225782"/><path d="M7.364,12.1a2.926,2.926,0,0,1-.42,1.547,2.854,2.854,0,0,1-1.26,1.092,4.924,4.924,0,0,1-2.114.4,7.368,7.368,0,0,1-1.589-.154A6.51,6.51,0,0,1,.63,14.524v-2.17a11.707,11.707,0,0,0,1.547.588A5.267,5.267,0,0,0,3.7,13.18a1.565,1.565,0,0,0,1-.252A.817.817,0,0,0,5,12.27a.887.887,0,0,0-.483-.784,14.546,14.546,0,0,0-1.393-.714,10.14,10.14,0,0,1-1.141-.637,2.9,2.9,0,0,1-.9-.924,2.749,2.749,0,0,1-.35-1.463,2.538,2.538,0,0,1,.966-2.142,4.145,4.145,0,0,1,2.59-.742,6.371,6.371,0,0,1,1.617.2,9.671,9.671,0,0,1,1.449.5L6.594,7.426a9.446,9.446,0,0,0-1.253-.455A4.213,4.213,0,0,0,4.214,6.81a1.3,1.3,0,0,0-.854.238.756.756,0,0,0-.28.6.738.738,0,0,0,.2.511,2.283,2.283,0,0,0,.616.441q.42.224,1.106.546a7.045,7.045,0,0,1,1.274.728,2.719,2.719,0,0,1,.812.924A2.768,2.768,0,0,1,7.364,12.1Zm2.59-7.84a1.688,1.688,0,0,1,.889.224.931.931,0,0,1,.371.868.933.933,0,0,1-.371.861,1.648,1.648,0,0,1-.889.231,1.676,1.676,0,0,1-.9-.231.933.933,0,0,1-.371-.861.931.931,0,0,1,.371-.868A1.717,1.717,0,0,1,9.954,4.262Zm1.162,3.052V15H8.764V7.314ZM15.372,15H13.006V4.36h2.366Zm3.08-10.738a1.688,1.688,0,0,1,.889.224.931.931,0,0,1,.371.868.933.933,0,0,1-.371.861,1.648,1.648,0,0,1-.889.231,1.676,1.676,0,0,1-.9-.231.933.933,0,0,1-.371-.861.931.931,0,0,1,.371-.868A1.717,1.717,0,0,1,18.452,4.262Zm1.162,3.052V15H17.262V7.314Zm5.194,7.826a3.75,3.75,0,0,1-2.716-.945,4.016,4.016,0,0,1-.98-3,4.607,4.607,0,0,1,.5-2.289A3.109,3.109,0,0,1,23,7.594,4.589,4.589,0,0,1,25,7.174a5.49,5.49,0,0,1,1.358.154,5.766,5.766,0,0,1,1.092.392L26.768,9.5q-.49-.2-.91-.322A2.957,2.957,0,0,0,25,9.05a1.3,1.3,0,0,0-1.113.525,2.714,2.714,0,0,0-.385,1.6,2.478,2.478,0,0,0,.406,1.575,1.352,1.352,0,0,0,1.106.5,3.738,3.738,0,0,0,1.148-.175,4.231,4.231,0,0,0,1.036-.5V14.51a3.694,3.694,0,0,1-1.043.476A5.1,5.1,0,0,1,24.808,15.14Zm11.074-4A4.066,4.066,0,0,1,34.867,14.1a3.712,3.712,0,0,1-2.779,1.036,3.984,3.984,0,0,1-1.939-.462,3.274,3.274,0,0,1-1.33-1.358,4.55,4.55,0,0,1-.483-2.184A4.017,4.017,0,0,1,29.344,8.2,3.721,3.721,0,0,1,32.13,7.174a3.984,3.984,0,0,1,1.939.462A3.3,3.3,0,0,1,35.4,8.98,4.435,4.435,0,0,1,35.882,11.136Zm-5.152,0a3.309,3.309,0,0,0,.322,1.624,1.13,1.13,0,0,0,1.064.56,1.118,1.118,0,0,0,1.05-.56,3.309,3.309,0,0,0,.322-1.624,3.183,3.183,0,0,0-.322-1.6A1.142,1.142,0,0,0,32.1,8.994a1.129,1.129,0,0,0-1.05.539A3.183,3.183,0,0,0,30.73,11.136ZM41.944,7.174a2.853,2.853,0,0,1,1.967.665,2.741,2.741,0,0,1,.749,2.149V15H42.308V10.646a2.214,2.214,0,0,0-.266-1.2.931.931,0,0,0-.84-.406,1.166,1.166,0,0,0-1.169.637,4.4,4.4,0,0,0-.3,1.827V15H37.366V7.314h1.792l.322.994h.112a2.314,2.314,0,0,1,.973-.847A3.2,3.2,0,0,1,41.944,7.174ZM58.38,5,55.034,15h-2.7L49,5h2.562l1.624,5.544q.07.224.175.644t.2.875a6.735,6.735,0,0,1,.126.749q.042-.294.133-.742t.2-.875q.1-.427.161-.637L55.832,5ZM62.412,7.16a3.515,3.515,0,0,1,2.324.693A2.526,2.526,0,0,1,65.562,9.9V15H63.924l-.462-1.036h-.056a3.249,3.249,0,0,1-1.036.9,3.321,3.321,0,0,1-1.5.28,2.444,2.444,0,0,1-1.694-.6,2.377,2.377,0,0,1-.672-1.862,2.051,2.051,0,0,1,.861-1.82,4.858,4.858,0,0,1,2.527-.658l1.316-.042V9.932a1.029,1.029,0,0,0-.287-.812,1.158,1.158,0,0,0-.791-.252,3.682,3.682,0,0,0-1.057.161,10.485,10.485,0,0,0-1.1.4L59.262,7.86a5.728,5.728,0,0,1,1.428-.518A7.736,7.736,0,0,1,62.412,7.16Zm.8,4.34-.714.028a2.1,2.1,0,0,0-1.232.315.952.952,0,0,0-.35.777.756.756,0,0,0,.245.637,1.038,1.038,0,0,0,.651.189,1.452,1.452,0,0,0,.994-.357,1.229,1.229,0,0,0,.406-.973ZM69.776,15H67.41V4.36h2.366Zm4.242,0H71.652V4.36h2.366Zm5.194-7.826a3.624,3.624,0,0,1,2.576.889,3.4,3.4,0,0,1,.952,2.611v1.092H77.882a1.692,1.692,0,0,0,.49,1.2,1.814,1.814,0,0,0,1.316.448,5.945,5.945,0,0,0,1.344-.14,6.1,6.1,0,0,0,1.246-.448v1.75a4.56,4.56,0,0,1-1.2.427,7.975,7.975,0,0,1-1.582.133,4.844,4.844,0,0,1-2.065-.42,3.148,3.148,0,0,1-1.414-1.288,4.342,4.342,0,0,1-.511-2.226,4.064,4.064,0,0,1,1.022-3.038A3.691,3.691,0,0,1,79.212,7.174Zm.042,1.638a1.237,1.237,0,0,0-.9.35,1.689,1.689,0,0,0-.427,1.078H80.57a1.633,1.633,0,0,0-.343-1.022A1.178,1.178,0,0,0,79.254,8.812Zm3.654-1.5h2.52l1.386,4.354a4.962,4.962,0,0,1,.2,1.106h.042a5.838,5.838,0,0,1,.105-.588q.063-.266.133-.5l1.386-4.368H91.14l-3.164,8.442a4.335,4.335,0,0,1-1.3,1.946,3.288,3.288,0,0,1-2.114.658,4.74,4.74,0,0,1-.623-.035q-.259-.035-.455-.077V16.386q.154.028.371.056a3.556,3.556,0,0,0,.455.028,1.3,1.3,0,0,0,1.015-.392,2.608,2.608,0,0,0,.539-.924l.084-.238ZM95.676,5h3.276a6.038,6.038,0,0,1,3.059.6A2.079,2.079,0,0,1,103,7.524,2.288,2.288,0,0,1,102.543,9a1.839,1.839,0,0,1-1.1.693v.07a3.341,3.341,0,0,1,.861.35,1.733,1.733,0,0,1,.665.714,2.7,2.7,0,0,1,.252,1.26,2.55,2.55,0,0,1-1,2.142,4.385,4.385,0,0,1-2.737.77H95.676Zm2.38,3.906h1.05a1.691,1.691,0,0,0,1.12-.287.988.988,0,0,0,.322-.777q0-.966-1.54-.966h-.952Zm0,1.82V13.1h1.19a1.612,1.612,0,0,0,1.169-.336,1.207,1.207,0,0,0,.329-.882,1.1,1.1,0,0,0-.336-.819,1.738,1.738,0,0,0-1.218-.329Zm10.178-3.57a3.515,3.515,0,0,1,2.324.693,2.526,2.526,0,0,1,.826,2.051V15h-1.638l-.462-1.036h-.056a3.249,3.249,0,0,1-1.036.9,3.321,3.321,0,0,1-1.5.28,2.444,2.444,0,0,1-1.694-.6,2.377,2.377,0,0,1-.672-1.862,2.051,2.051,0,0,1,.861-1.82,4.858,4.858,0,0,1,2.527-.658l1.316-.042V9.932a1.029,1.029,0,0,0-.287-.812,1.158,1.158,0,0,0-.791-.252,3.682,3.682,0,0,0-1.057.161,10.486,10.486,0,0,0-1.1.4l-.714-1.568a5.728,5.728,0,0,1,1.428-.518A7.736,7.736,0,0,1,108.234,7.16Zm.8,4.34-.714.028a2.1,2.1,0,0,0-1.232.315.952.952,0,0,0-.35.777.756.756,0,0,0,.245.637,1.038,1.038,0,0,0,.651.189,1.452,1.452,0,0,0,.994-.357,1.229,1.229,0,0,0,.406-.973Zm9.73,1.176a2.223,2.223,0,0,1-.791,1.806,3.825,3.825,0,0,1-2.471.658,9.05,9.05,0,0,1-1.421-.1,5.569,5.569,0,0,1-1.225-.35v-1.9a6.955,6.955,0,0,0,1.4.469,5.87,5.87,0,0,0,1.232.161,1.588,1.588,0,0,0,.77-.14.434.434,0,0,0,.238-.392.483.483,0,0,0-.119-.322,1.55,1.55,0,0,0-.476-.315q-.357-.175-1.057-.469a5.572,5.572,0,0,1-1.127-.6,2.061,2.061,0,0,1-.658-.742,2.353,2.353,0,0,1-.217-1.071,1.841,1.841,0,0,1,.84-1.645,4.049,4.049,0,0,1,2.254-.553,6.13,6.13,0,0,1,1.4.154,7.168,7.168,0,0,1,1.358.476l-.672,1.6a7.969,7.969,0,0,0-1.106-.406,3.652,3.652,0,0,0-.98-.154q-.812,0-.812.42a.391.391,0,0,0,.119.287,1.76,1.76,0,0,0,.462.28q.343.161,1,.441a6.941,6.941,0,0,1,1.12.56,1.986,1.986,0,0,1,.7.735A2.326,2.326,0,0,1,118.762,12.676Zm4.732-5.5a3.624,3.624,0,0,1,2.576.889,3.4,3.4,0,0,1,.952,2.611v1.092h-4.858a1.692,1.692,0,0,0,.49,1.2,1.814,1.814,0,0,0,1.316.448,5.945,5.945,0,0,0,1.344-.14,6.1,6.1,0,0,0,1.246-.448v1.75a4.56,4.56,0,0,1-1.2.427,7.975,7.975,0,0,1-1.582.133,4.844,4.844,0,0,1-2.065-.42,3.148,3.148,0,0,1-1.414-1.288,4.342,4.342,0,0,1-.511-2.226,4.064,4.064,0,0,1,1.022-3.038A3.691,3.691,0,0,1,123.494,7.174Zm.042,1.638a1.237,1.237,0,0,0-.9.35,1.689,1.689,0,0,0-.427,1.078h2.646a1.633,1.633,0,0,0-.343-1.022A1.178,1.178,0,0,0,123.536,8.812ZM130.9,15.14a2.456,2.456,0,0,1-2.03-1.008,4.77,4.77,0,0,1-.784-2.968,4.735,4.735,0,0,1,.8-2.982,2.535,2.535,0,0,1,2.086-1.008,2.411,2.411,0,0,1,1.316.322,2.652,2.652,0,0,1,.812.8h.056q-.042-.252-.091-.721a8.954,8.954,0,0,1-.049-.931V4.36h2.366V15h-1.792l-.476-.994h-.1a2.6,2.6,0,0,1-.791.805A2.364,2.364,0,0,1,130.9,15.14Zm.9-1.876a1.2,1.2,0,0,0,1.071-.462,2.577,2.577,0,0,0,.329-1.4v-.21a3.3,3.3,0,0,0-.3-1.575,1.175,1.175,0,0,0-1.127-.539,1.086,1.086,0,0,0-.952.532,2.933,2.933,0,0,0-.35,1.6,2.71,2.71,0,0,0,.357,1.554A1.13,1.13,0,0,0,131.8,13.264ZM147.056,15l-.616-2.142h-3.458L142.366,15h-2.6l3.4-10.038h3.052L149.66,15Zm-1.148-4.13-.588-2-.189-.679q-.119-.427-.238-.875t-.189-.756q-.07.308-.182.763T144.3,8.2q-.112.427-.182.665l-.588,2ZM154.84,15h-4.858V13.642l1.232-.518V6.88l-1.232-.518V5h4.858V6.362l-1.232.518v6.244l1.232.518Zm13.37-5.152a4.942,4.942,0,0,1-1.428,3.864A5.66,5.66,0,0,1,162.848,15h-3.01V5h3.29a5.317,5.317,0,0,1,3.724,1.239A4.634,4.634,0,0,1,168.21,9.848Zm-2.464.084a3.308,3.308,0,0,0-.651-2.254,2.413,2.413,0,0,0-1.9-.728h-.98v6.09h.77a2.613,2.613,0,0,0,2.086-.777A3.483,3.483,0,0,0,165.746,9.932Zm5.306-5.67a1.688,1.688,0,0,1,.889.224.931.931,0,0,1,.371.868.933.933,0,0,1-.371.861,1.648,1.648,0,0,1-.889.231,1.676,1.676,0,0,1-.9-.231.933.933,0,0,1-.371-.861.931.931,0,0,1,.371-.868A1.717,1.717,0,0,1,171.052,4.262Zm1.162,3.052V15h-2.352V7.314Zm5.334-.154a3.515,3.515,0,0,1,2.324.693A2.525,2.525,0,0,1,180.7,9.9V15H179.06l-.462-1.036h-.056a3.249,3.249,0,0,1-1.036.9,3.321,3.321,0,0,1-1.5.28,2.444,2.444,0,0,1-1.694-.6,2.377,2.377,0,0,1-.672-1.862,2.051,2.051,0,0,1,.861-1.82,4.858,4.858,0,0,1,2.527-.658l1.316-.042V9.932a1.029,1.029,0,0,0-.287-.812,1.158,1.158,0,0,0-.791-.252,3.682,3.682,0,0,0-1.057.161,10.486,10.486,0,0,0-1.1.4L174.4,7.86a5.728,5.728,0,0,1,1.428-.518A7.736,7.736,0,0,1,177.548,7.16Zm.8,4.34-.714.028a2.1,2.1,0,0,0-1.232.315.952.952,0,0,0-.35.777.756.756,0,0,0,.245.637,1.038,1.038,0,0,0,.651.189,1.452,1.452,0,0,0,.994-.357,1.229,1.229,0,0,0,.406-.973Zm6.678-4.326a2.587,2.587,0,0,1,1.281.294,2.679,2.679,0,0,1,.889.812h.056l.182-.966h2.016v7.7a3.116,3.116,0,0,1-.987,2.492,4.447,4.447,0,0,1-2.975.854,11.535,11.535,0,0,1-1.575-.1,6.174,6.174,0,0,1-1.365-.35V15.994a7.748,7.748,0,0,0,1.393.441,7.476,7.476,0,0,0,1.547.147q1.61,0,1.61-1.47v-.154a7.375,7.375,0,0,1,.07-.952h-.07a2.45,2.45,0,0,1-.861.833,2.478,2.478,0,0,1-1.253.3,2.431,2.431,0,0,1-2.065-1.036,4.89,4.89,0,0,1-.763-2.94,4.85,4.85,0,0,1,.777-2.954A2.481,2.481,0,0,1,185.024,7.174Zm.826,1.862q-1.3,0-1.3,2.17a3.055,3.055,0,0,0,.322,1.589,1.105,1.105,0,0,0,1.008.511,1.232,1.232,0,0,0,1.057-.441,2.407,2.407,0,0,0,.329-1.421V11.15a3.153,3.153,0,0,0-.315-1.6A1.181,1.181,0,0,0,185.85,9.036Zm10.066-1.862a2.853,2.853,0,0,1,1.967.665,2.741,2.741,0,0,1,.749,2.149V15H196.28V10.646a2.214,2.214,0,0,0-.266-1.2.931.931,0,0,0-.84-.406A1.166,1.166,0,0,0,194,9.673a4.4,4.4,0,0,0-.3,1.827V15h-2.366V7.314h1.792l.322.994h.112a2.315,2.315,0,0,1,.973-.847A3.2,3.2,0,0,1,195.916,7.174Zm11.718,3.962a4.066,4.066,0,0,1-1.015,2.968,3.712,3.712,0,0,1-2.779,1.036,3.984,3.984,0,0,1-1.939-.462,3.274,3.274,0,0,1-1.33-1.358,4.55,4.55,0,0,1-.483-2.184A4.017,4.017,0,0,1,201.1,8.2a3.721,3.721,0,0,1,2.786-1.029,3.984,3.984,0,0,1,1.939.462,3.3,3.3,0,0,1,1.33,1.344A4.435,4.435,0,0,1,207.634,11.136Zm-5.152,0a3.309,3.309,0,0,0,.322,1.624,1.13,1.13,0,0,0,1.064.56,1.118,1.118,0,0,0,1.05-.56,3.309,3.309,0,0,0,.322-1.624,3.183,3.183,0,0,0-.322-1.6,1.142,1.142,0,0,0-1.064-.539,1.129,1.129,0,0,0-1.05.539A3.183,3.183,0,0,0,202.482,11.136Zm12.166,1.54a2.223,2.223,0,0,1-.791,1.806,3.825,3.825,0,0,1-2.471.658,9.05,9.05,0,0,1-1.421-.1,5.569,5.569,0,0,1-1.225-.35v-1.9a6.954,6.954,0,0,0,1.4.469,5.87,5.87,0,0,0,1.232.161,1.588,1.588,0,0,0,.77-.14.434.434,0,0,0,.238-.392.483.483,0,0,0-.119-.322,1.55,1.55,0,0,0-.476-.315q-.357-.175-1.057-.469a5.572,5.572,0,0,1-1.127-.6,2.061,2.061,0,0,1-.658-.742,2.353,2.353,0,0,1-.217-1.071,1.841,1.841,0,0,1,.84-1.645,4.049,4.049,0,0,1,2.254-.553,6.13,6.13,0,0,1,1.4.154,7.168,7.168,0,0,1,1.358.476l-.672,1.6a7.97,7.97,0,0,0-1.106-.406,3.652,3.652,0,0,0-.98-.154q-.812,0-.812.42a.391.391,0,0,0,.119.287,1.76,1.76,0,0,0,.462.28q.343.161,1,.441a6.941,6.941,0,0,1,1.12.56,1.986,1.986,0,0,1,.7.735A2.326,2.326,0,0,1,214.648,12.676Zm2.618-8.414a1.688,1.688,0,0,1,.889.224.931.931,0,0,1,.371.868.933.933,0,0,1-.371.861,1.648,1.648,0,0,1-.889.231,1.676,1.676,0,0,1-.9-.231.933.933,0,0,1-.371-.861.931.931,0,0,1,.371-.868A1.717,1.717,0,0,1,217.266,4.262Zm1.162,3.052V15h-2.352V7.314Zm7.42,5.362a2.223,2.223,0,0,1-.791,1.806,3.825,3.825,0,0,1-2.471.658,9.05,9.05,0,0,1-1.421-.1,5.569,5.569,0,0,1-1.225-.35v-1.9a6.954,6.954,0,0,0,1.4.469,5.87,5.87,0,0,0,1.232.161,1.588,1.588,0,0,0,.77-.14.434.434,0,0,0,.238-.392.483.483,0,0,0-.119-.322,1.55,1.55,0,0,0-.476-.315q-.357-.175-1.057-.469a5.572,5.572,0,0,1-1.127-.6,2.061,2.061,0,0,1-.658-.742,2.353,2.353,0,0,1-.217-1.071,1.841,1.841,0,0,1,.84-1.645,4.049,4.049,0,0,1,2.254-.553,6.13,6.13,0,0,1,1.4.154,7.168,7.168,0,0,1,1.358.476l-.672,1.6A7.97,7.97,0,0,0,224,8.994a3.652,3.652,0,0,0-.98-.154q-.812,0-.812.42a.391.391,0,0,0,.119.287,1.76,1.76,0,0,0,.462.28q.343.161,1,.441a6.941,6.941,0,0,1,1.12.56,1.986,1.986,0,0,1,.7.735A2.326,2.326,0,0,1,225.848,12.676Z" transform="translate(81.537 219.369)" fill="#225782"/></g></svg>