<svg xmlns="http://www.w3.org/2000/svg" width="34.135" height="32.542" viewBox="0 0 34.135 32.542">
    <g data-name="그룹 14884">
        <g data-name="그룹 14909">
            <path data-name="패스 17372" d="M.2.237A.741.741 0 0 1 .783 0l11.38.642A.741.741 0 0 1 12.5 2.02L8.393 4.459c4.714 5.521 11.88 9.481 21.362 11.79a.484.484 0 0 1-.114.955h-.006c-7.049-.084-12-.828-16.063-2.413A23.985 23.985 0 0 1 4.7 8.736l-1.809 3.636a.741.741 0 0 1-1.4-.234L.007.838A.741.741 0 0 1 .2.237" transform="rotate(140 14.67 12.802)" style="fill:#fff"/>
        </g>
    </g>
</svg>
