<svg xmlns="http://www.w3.org/2000/svg" width="27.016" height="27.121" viewBox="0 0 27.016 27.121">
    <g data-name="그룹 15003">
        <g data-name="그룹 15002">
            <g data-name="그룹 14895">
                <path data-name="패스 17376" d="M0 0h15.821" transform="translate(10.694 26.165)" style="fill:none;stroke:#fff;stroke-linecap:round"/>
            </g>
            <path data-name="패스 17375" d="m15.665 22.608 10.628-10.87a.788.788 0 0 0 0-1.1L16.113.227a.746.746 0 0 0-1.072 0L4.414 11.1l-3.3 3.38a3.937 3.937 0 0 0 0 5.481L7 25.986a3.721 3.721 0 0 0 2.679 1.135c.078 0 .153-.018.23-.022v.022l16.381-1.135-13.526-.415 2.9-2.962M11.29 24.89a2.291 2.291 0 0 1-3.215 0l-5.893-6.028a2.363 2.363 0 0 1 0-3.289l2.768-2.832L9.5 17.4l4.554 4.658z" style="fill:#fff"/>
        </g>
    </g>
</svg>
