<svg xmlns="http://www.w3.org/2000/svg" width="34.135" height="32.542" viewBox="0 0 34.135 32.542">
    <g data-name="그룹 14884">
        <g data-name="그룹 14909">
            <path data-name="패스 17372" d="M.2 16.967a.741.741 0 0 0 .585.236l11.379-.641a.741.741 0 0 0 .337-1.378l-4.108-2.439c4.714-5.521 11.88-9.481 21.362-11.79A.484.484 0 0 0 29.64 0h-.006c-7.049.084-12 .828-16.063 2.413A23.985 23.985 0 0 0 4.7 8.468L2.891 4.832a.741.741 0 0 0-1.4.234l-1.485 11.3a.741.741 0 0 0 .192.6" transform="rotate(40 5.529 15.191)" style="fill:#fff"/>
        </g>
    </g>
</svg>
