<svg xmlns="http://www.w3.org/2000/svg" width="24.719" height="24" viewBox="0 0 24.719 24">
    <defs>
        <clipPath id="me35sybona">
            <path data-name="사각형 9120" transform="translate(-.361 -.361)" style="fill:#00c3e1" d="M0 0h23v24H0z"/>
        </clipPath>
    </defs>
    <g data-name="그룹 14898">
        <g data-name="그룹 14895">
            <path data-name="패스 17376" d="M0 0h11.438" transform="translate(12.781 22.5)" style="fill:none;stroke:#00c3e1;stroke-linecap:round"/>
        </g>
        <g data-name="그룹 14894">
            <g data-name="그룹 14893" transform="translate(.361 .361)" style="clip-path:url(#me35sybona)">
                <path data-name="패스 17375" d="m13.156 18.987 8.926-9.129a.662.662 0 0 0 0-.92L13.532.191a.626.626 0 0 0-.9 0L3.707 9.319.932 12.158a3.306 3.306 0 0 0 0 4.6l4.95 5.063a3.125 3.125 0 0 0 2.25.953c.066 0 .129-.015.193-.019v.019h12.863l-10.465-1.3 2.432-2.487M9.482 20.9a1.924 1.924 0 0 1-2.7 0l-4.95-5.06a1.984 1.984 0 0 1 0-2.762L4.157 10.7l3.825 3.913 3.825 3.912z" transform="translate(-.361 -.137)" style="fill:#00c3e1"/>
            </g>
        </g>
    </g>
</svg>
