<svg xmlns="http://www.w3.org/2000/svg" width="28.263" height="28.1" viewBox="0 0 28.263 28.1">
    <g data-name="그룹 15040">
        <path data-name="패스 17373" d="M9.638 25.662c.019-.006.035-.017.053-.024a.626.626 0 0 0 .065-.028.818.818 0 0 0 .234-.156s.008 0 .011-.008l.008-.007L25.49 9.936l1.788-1.79a3.383 3.383 0 0 0 0-4.773L24.895.987a3.37 3.37 0 0 0-4.766 0l-1.787 1.79L2.853 18.288c-.007.007-.008.016-.015.023a.826.826 0 0 0-.147.222c-.01.021-.02.04-.029.062s-.014.026-.019.04L.038 27.061a.843.843 0 0 0 .2.84c.16.164.919.35.92 0h.316l.184.133 4.794-1.459zM21.321 2.18a1.685 1.685 0 0 1 2.383 0l2.383 2.386a1.691 1.691 0 0 1 0 2.387l-1.192 1.194-4.766-4.774zM3.84 20.47l3.96 3.964-5.692 1.635z" style="fill:#fff"/>
        <path data-name="선 1179" transform="translate(1.323 27.6)" style="fill:none;stroke:#fff;stroke-linecap:round" d="M0 0h25"/>
    </g>
</svg>
