<svg xmlns="http://www.w3.org/2000/svg" width="23.159" height="23.035" viewBox="0 0 23.159 23.035">
    <g data-name="그룹 15038">
        <path data-name="패스 17373" d="M7.9 21.027c.016 0 .029-.014.043-.019a.513.513 0 0 0 .053-.023.671.671 0 0 0 .192-.128s.006 0 .009-.006l.006-.006 12.685-12.7 1.465-1.467a2.772 2.772 0 0 0 0-3.911L20.4.809a2.761 2.761 0 0 0-3.905 0l-1.466 1.466-12.692 12.71c-.006.006-.007.013-.012.019a.676.676 0 0 0-.12.182c-.008.017-.017.032-.023.05s-.012.021-.015.033l-2.135 6.9a.691.691 0 0 0 .166.689c.131.134.753.287.754 0h.258l.15.109 3.928-1.2zm9.57-19.241a1.381 1.381 0 0 1 1.952 0l1.953 1.955a1.386 1.386 0 0 1 0 1.956l-.977.978-3.905-3.911zM3.147 16.773l3.243 3.248-4.663 1.34z" style="fill:#3c5a7d"/>
        <path data-name="선 1179" transform="translate(.771 22.535)" style="fill:none;stroke:#3c5a7d;stroke-linecap:round" d="M0 0h20"/>
    </g>
</svg>
