<svg xmlns="http://www.w3.org/2000/svg" width="40" height="40" viewBox="0 0 40 40"><defs><style>.a,.b,.c,.e{fill:none;}.a{stroke:#707070;opacity:0;}.b,.c{stroke:#46505a;stroke-width:2px;}.b{stroke-linejoin:bevel;opacity:0.97;isolation:isolate;}.c{stroke-linejoin:round;}.d{stroke:none;}</style></defs><g class="a"><rect class="d" width="40" height="40"/><rect class="e" x="0.5" y="0.5" width="39" height="39"/></g><g transform="translate(2.25 6.965)"><path class="b" d="M1434.257,1517.792h-21.818a1,1,0,0,1-.774-.367l-8.182-10a1,1,0,0,1,0-1.266l8.182-10a1,1,0,0,1,.774-.367h21.818a1,1,0,0,1,1,1v20A1,1,0,0,1,1434.257,1517.792Z" transform="translate(-1401.508 -1493.757)"/><line class="c" x2="8" y2="8" transform="translate(16.75 9.035)"/><line class="c" x1="8" y2="8" transform="translate(16.75 9.035)"/></g></svg>