<svg xmlns="http://www.w3.org/2000/svg" width="40" height="40" viewBox="0 0 40 40"><defs><style>.a{fill:#fff;opacity:0;}.b{fill:none;}.c{fill:#323c46;}</style></defs><rect class="a" width="40" height="40"/><g transform="translate(0 0.079)"><rect class="b" width="40" height="40" transform="translate(0 -0.079)"/><path class="c" d="M-1139.643,117.4a10.7,10.7,0,0,1-1,4.669,10.348,10.348,0,0,1-2.623,3.478,11.9,11.9,0,0,1-3.757,2.167,12.881,12.881,0,0,1-4.34.735h-7.843l.19-.836q.329,0,.931-.063a3.541,3.541,0,0,0,.855-.165,1.492,1.492,0,0,0,.691-.5,1.935,1.935,0,0,0,.323-.766l2.99-12.936q.038-.152.07-.336a1.857,1.857,0,0,0,.032-.3,1.168,1.168,0,0,0-.1-.488.757.757,0,0,0-.386-.348,4.089,4.089,0,0,0-.811-.26q-.482-.107-.735-.146l.19-.836h7.615a10.671,10.671,0,0,1,2.483.323,7.67,7.67,0,0,1,2.509,1.109,6.052,6.052,0,0,1,1.97,2.2A6.866,6.866,0,0,1-1139.643,117.4Zm-2.978.017a6.084,6.084,0,0,0-1.522-4.413,5.373,5.373,0,0,0-4.046-1.573q-.52,0-1.078.019l-.875.032-3.214,13.961q-.038.178-.063.343a2.076,2.076,0,0,0-.025.317,1.1,1.1,0,0,0,.634,1.072,5.057,5.057,0,0,0,2.078.311,6.966,6.966,0,0,0,3.441-.862,7.778,7.778,0,0,0,2.579-2.3,10.936,10.936,0,0,0,1.572-3.233A12.854,12.854,0,0,0-1142.621,117.419Z" transform="translate(1169.266 -99.446)"/></g></svg>