<svg xmlns="http://www.w3.org/2000/svg" width="40" height="40" viewBox="0 0 40 40"><defs><style>.a{fill:#fff;opacity:0;}.b{fill:none;}.c{fill:#323c46;}</style></defs><rect class="a" width="40" height="40"/><g transform="translate(0 0.079)"><rect class="b" width="40" height="40" transform="translate(0 -0.079)"/><path class="c" d="M-1119.838,91.97h-.088l-.722.628a6.633,6.633,0,0,1-.924.678,7,7,0,0,1-1.12.583,3.435,3.435,0,0,1-1.259.2,3.463,3.463,0,0,1-2.879-1.325,5.68,5.68,0,0,1-1.044-3.608,8.6,8.6,0,0,1,.564-3.082,9,9,0,0,1,1.54-2.638,7.489,7.489,0,0,1,2.288-1.807,6.009,6.009,0,0,1,2.795-.691,6.758,6.758,0,0,1,1.736.228,5.653,5.653,0,0,1,1.42.558l.99-4.308q.076-.342.108-.532a2.564,2.564,0,0,0,.032-.418,1.134,1.134,0,0,0-.184-.7,1.064,1.064,0,0,0-.513-.355,3.087,3.087,0,0,0-.836-.152q-.532-.038-.963-.089l.177-.773,5.131-.279.127.19-3.514,15.192q-.1.418-.209.957a4.531,4.531,0,0,0-.108.817,1.256,1.256,0,0,0,.3.982,1.586,1.586,0,0,0,1.026.26,4.36,4.36,0,0,0,.684-.076,4.078,4.078,0,0,0,.684-.165l-.19.811a12.417,12.417,0,0,1-1.764.671,4.949,4.949,0,0,1-1.295.19,2.119,2.119,0,0,1-1.453-.475A1.87,1.87,0,0,1-1119.838,91.97Zm1.8-8.079a1.991,1.991,0,0,0-.19-.717,2.558,2.558,0,0,0-.419-.628,2.289,2.289,0,0,0-.755-.526,2.648,2.648,0,0,0-1.1-.209,3.161,3.161,0,0,0-1.846.609,5.815,5.815,0,0,0-1.528,1.624,8.418,8.418,0,0,0-1.015,2.353,10.309,10.309,0,0,0-.38,2.759,9.4,9.4,0,0,0,.089,1.37,3.646,3.646,0,0,0,.342,1.1,1.836,1.836,0,0,0,.684.742,2.231,2.231,0,0,0,1.178.273,3.349,3.349,0,0,0,1.514-.418,7.3,7.3,0,0,0,1.818-1.459Z" transform="translate(1141.061 -66.699)"/></g></svg>