<svg xmlns="http://www.w3.org/2000/svg" width="40" height="40" viewBox="0 0 40 40"><defs><style>.a{fill:#fff;opacity:0;}.b{fill:none;}.c{fill:#323c46;}</style></defs><rect class="a" width="40" height="40"/><g transform="translate(0 0.079)"><rect class="b" width="40" height="40" transform="translate(0 -0.079)"/><path class="c" d="M-297.712,82.482l-2.232,10.466a8.53,8.53,0,0,1-2.506,4.6,5.762,5.762,0,0,1-3.936,1.786,2.591,2.591,0,0,1-1.639-.424,1.32,1.32,0,0,1-.525-1.071,1.513,1.513,0,0,1,.329-.963,1.139,1.139,0,0,1,.951-.418,1.323,1.323,0,0,1,.691.177,2.108,2.108,0,0,1,.526.444,4.963,4.963,0,0,1,.4.583q.222.367.387.633a2.179,2.179,0,0,0,1.666-1.318,13.472,13.472,0,0,0,1.2-3.548l2.335-10.947h-2.475l.266-1.153h2.441l.183-.86a9.19,9.19,0,0,1,.963-2.644,8.819,8.819,0,0,1,1.5-2,6.248,6.248,0,0,1,1.869-1.271,4.968,4.968,0,0,1,2.008-.462,2.6,2.6,0,0,1,1.641.424,1.321,1.321,0,0,1,.526,1.071,1.569,1.569,0,0,1-.311.963,1.134,1.134,0,0,1-.973.418,1.336,1.336,0,0,1-.687-.171,1.934,1.934,0,0,1-.521-.45,4.147,4.147,0,0,1-.407-.6q-.153-.279-.382-.621a1.993,1.993,0,0,0-1.551,1.151,12.555,12.555,0,0,0-1.211,3.7l-.284,1.34h3.2l-.267,1.153Z" transform="translate(319.673 -66.699)"/></g></svg>