<svg xmlns="http://www.w3.org/2000/svg" width="40" height="40" viewBox="0 0 40 40"><defs><style>.a{fill:#fff;opacity:0;}.b{fill:none;}.c{fill:#323c46;}</style></defs><rect class="a" width="40" height="40"/><g transform="translate(0 0.079)"><rect class="b" width="40" height="40" transform="translate(0 -0.079)"/><path class="c" d="M135.781,153.48l-.089-.025-.716.571a6.9,6.9,0,0,1-.969.647,7.067,7.067,0,0,1-1.178.558,3.845,3.845,0,0,1-1.318.216,3.354,3.354,0,0,1-2.832-1.3,5.768,5.768,0,0,1-.995-3.583,8.369,8.369,0,0,1,.577-3.056,8.914,8.914,0,0,1,1.578-2.638,7.449,7.449,0,0,1,2.306-1.795,6.27,6.27,0,0,1,4.536-.444,5.03,5.03,0,0,1,1.305.552l2.318-.6.152.19-2.127,9.991a17.07,17.07,0,0,1-1.236,3.836,8.13,8.13,0,0,1-1.742,2.479,6.032,6.032,0,0,1-2.237,1.338,8.9,8.9,0,0,1-2.769.4,7.349,7.349,0,0,1-1.717-.165,3.157,3.157,0,0,1-1.045-.431,1.366,1.366,0,0,1-.513-.6,1.737,1.737,0,0,1-.133-.64,1.391,1.391,0,0,1,.342-.957,1.187,1.187,0,0,1,.938-.386,1.21,1.21,0,0,1,.8.272,2.561,2.561,0,0,1,.532.589,5.6,5.6,0,0,1,.418.786l.3.684h.38a4.07,4.07,0,0,0,1.5-.317,4,4,0,0,0,1.457-1.027,7.943,7.943,0,0,0,1.254-1.971A12.737,12.737,0,0,0,135.781,153.48Zm1.687-8.1a2.636,2.636,0,0,0-.107-.729,1.72,1.72,0,0,0-.4-.691,1.953,1.953,0,0,0-.709-.482,2.91,2.91,0,0,0-1.1-.178,3.216,3.216,0,0,0-1.841.59,5.967,5.967,0,0,0-1.562,1.617,8.524,8.524,0,0,0-1.05,2.334,9.666,9.666,0,0,0-.4,2.753,8.145,8.145,0,0,0,.108,1.376,3.354,3.354,0,0,0,.374,1.1,1.945,1.945,0,0,0,.7.73,2.2,2.2,0,0,0,1.134.26,3.445,3.445,0,0,0,1.761-.514,8.057,8.057,0,0,0,1.66-1.313Z" transform="translate(-114.269 -128.183)"/></g></svg>