<svg xmlns="http://www.w3.org/2000/svg" width="40" height="40" viewBox="0 0 40 40"><defs><style>.a{fill:#fff;opacity:0;}.b{fill:none;}.c{fill:#323c46;}</style></defs><rect class="a" width="40" height="40"/><g transform="translate(0 0.079)"><rect class="b" width="40" height="40" transform="translate(0 -0.079)"/><path class="c" d="M-1532.992,92.238l-.19.811q-1.141.456-1.776.665a4.069,4.069,0,0,1-1.281.209,2.021,2.021,0,0,1-1.522-.526,1.8,1.8,0,0,1-.507-1.3,4.162,4.162,0,0,1,.051-.615q.051-.336.165-.793l1.241-4.731q.139-.545.222-.989a4.1,4.1,0,0,0,.082-.711,2.068,2.068,0,0,0-.4-1.345,1.45,1.45,0,0,0-1.195-.495,3.621,3.621,0,0,0-1.741.52,6.933,6.933,0,0,0-1.779,1.46l-2.152,9.309h-2.367l3.772-16.318.108-.495a2.023,2.023,0,0,0,.044-.431,1.348,1.348,0,0,0-.152-.7.96.96,0,0,0-.432-.374,2.01,2.01,0,0,0-.662-.152q-.42-.038-.84-.089l.178-.773,4.715-.279.127.19-2.025,8.758h.051a14.773,14.773,0,0,1,2.322-1.592,4.9,4.9,0,0,1,2.322-.539,2.512,2.512,0,0,1,1.893.7,2.543,2.543,0,0,1,.681,1.846,8.126,8.126,0,0,1-.07.812,8.318,8.318,0,0,1-.222,1.154L-1535.4,89.5q-.1.406-.216.932a4.141,4.141,0,0,0-.114.818,1.227,1.227,0,0,0,.317.983,1.643,1.643,0,0,0,1.04.26,4.134,4.134,0,0,0,.691-.082A4.382,4.382,0,0,0-1532.992,92.238Z" transform="translate(1559.503 -66.699)"/></g></svg>