<svg xmlns="http://www.w3.org/2000/svg" width="40" height="40" viewBox="0 0 40 40"><defs><style>.a{fill:#fff;opacity:0;}.b{fill:none;}.c{fill:#323c46;}</style></defs><rect class="a" width="40" height="40"/><g transform="translate(0 0.079)"><rect class="b" width="40" height="40" transform="translate(0 -0.079)"/><path class="c" d="M-723.222,153.76l-.191.811a16.842,16.842,0,0,1-1.869.653,4.833,4.833,0,0,1-1.2.184,2.029,2.029,0,0,1-1.526-.526,1.8,1.8,0,0,1-.508-1.3,4.131,4.131,0,0,1,.051-.615q.05-.336.166-.793l1.252-4.731q.14-.545.223-.989a4.111,4.111,0,0,0,.083-.711,2.215,2.215,0,0,0-.366-1.345,1.347,1.347,0,0,0-1.16-.495,3.716,3.716,0,0,0-1.657.4,6.823,6.823,0,0,0-1.833,1.491l-2.224,9.4h-2.354l2-8.473q.063-.279.12-.59a2.836,2.836,0,0,0,.057-.463,1.9,1.9,0,0,0-.409-1.294,1.509,1.509,0,0,0-1.2-.469,4.168,4.168,0,0,0-1.586.362,6.291,6.291,0,0,0-2.014,1.618l-2.165,9.309H-743.9l1.9-8.22q.1-.444.2-.951a4.8,4.8,0,0,0,.1-.863,1.392,1.392,0,0,0-.241-.97,1.381,1.381,0,0,0-.942-.235,3.2,3.2,0,0,0-.72.106q-.439.106-.681.172l.191-.817a13.133,13.133,0,0,1,1.758-.664,4.938,4.938,0,0,1,1.312-.217,1.719,1.719,0,0,1,1.446.552,2.515,2.515,0,0,1,.452,1.5h.076A17.223,17.223,0,0,1-736.6,142.9a4.848,4.848,0,0,1,2.291-.507,2.578,2.578,0,0,1,1.828.653,2.465,2.465,0,0,1,.791,1.643h.051a15.917,15.917,0,0,1,2.4-1.712,4.988,4.988,0,0,1,2.455-.583,2.407,2.407,0,0,1,1.861.7,2.614,2.614,0,0,1,.65,1.846,8.14,8.14,0,0,1-.07.812,8.31,8.31,0,0,1-.222,1.154l-1.067,4.072q-.114.406-.216.932a4.636,4.636,0,0,0-.1.818,1.258,1.258,0,0,0,.3.983,1.588,1.588,0,0,0,1.028.26,5.463,5.463,0,0,0,.7-.063A3.52,3.52,0,0,0-723.222,153.76Z" transform="translate(753.845 -128.183)"/></g></svg>