<svg xmlns="http://www.w3.org/2000/svg" width="40" height="40" viewBox="0 0 40 40"><defs><style>.a{fill:#fff;opacity:0;}.b{fill:none;}.c{fill:#323c46;}</style></defs><rect class="a" width="40" height="40"/><g transform="translate(0 0.079)"><rect class="b" width="40" height="40" transform="translate(0 -0.079)"/><path class="c" d="M-273.094,153.722l-.191.811q-1.144.456-1.78.665a4.089,4.089,0,0,1-1.284.209,2.029,2.029,0,0,1-1.526-.526,1.8,1.8,0,0,1-.509-1.3,4.143,4.143,0,0,1,.051-.615q.051-.336.166-.793l1.252-4.731q.141-.545.223-.989a4.1,4.1,0,0,0,.082-.711,2.069,2.069,0,0,0-.4-1.345,1.45,1.45,0,0,0-1.195-.495,3.74,3.74,0,0,0-1.722.508,6.386,6.386,0,0,0-1.8,1.472l-2.165,9.309h-2.367l1.9-8.22q.063-.3.184-.882a4.794,4.794,0,0,0,.12-.932,1.371,1.371,0,0,0-.241-.951,1.4,1.4,0,0,0-.967-.241,3.461,3.461,0,0,0-.713.1q-.433.1-.675.158l.191-.811a13.206,13.206,0,0,1,1.758-.659,4.967,4.967,0,0,1,1.312-.215,1.731,1.731,0,0,1,1.439.545,2.477,2.477,0,0,1,.459,1.509h.076a16.17,16.17,0,0,1,2.4-1.655,4.8,4.8,0,0,1,2.3-.539,2.514,2.514,0,0,1,1.893.7,2.541,2.541,0,0,1,.682,1.846,8.1,8.1,0,0,1-.07.812,8.3,8.3,0,0,1-.222,1.154l-1.066,4.072q-.114.406-.222.932a4.375,4.375,0,0,0-.108.818,1.227,1.227,0,0,0,.317.983,1.643,1.643,0,0,0,1.04.26,4.134,4.134,0,0,0,.691-.082A4.382,4.382,0,0,0-273.094,153.722Z" transform="translate(299.96 -128.183)"/></g></svg>