<svg xmlns="http://www.w3.org/2000/svg" id="_-g-ic_num" width="48" height="48" viewBox="0 0 48 48">
    <defs>
        <style>
            .cls-2{fill:#20c3e1}
        </style>
    </defs>
    <g id="그룹_10848" transform="translate(-1400.449 -1541.694)">
        <path id="패스_10359" d="M1437.315 1565.995a1.348 1.348 0 0 1 1.347-1.348h.73a3.72 3.72 0 0 0 2.492-.814 2.9 2.9 0 0 0 .919-2.316 3.168 3.168 0 0 0-.765-2.267 3.083 3.083 0 0 0-2.337-.807 3.023 3.023 0 0 0-2.938 1.742 1.727 1.727 0 0 1-1.569 1.122 1.645 1.645 0 0 1-1.529-2.306 5.135 5.135 0 0 1 .316-.558 5.608 5.608 0 0 1 2.33-2.014 7.593 7.593 0 0 1 3.348-.724 7.033 7.033 0 0 1 4.808 1.537 5.4 5.4 0 0 1 1.748 4.274 4.347 4.347 0 0 1-.877 2.59 5.505 5.505 0 0 1-2.268 1.833 5.019 5.019 0 0 1 2.562 1.81 4.965 4.965 0 0 1 .877 2.948 5.49 5.49 0 0 1-1.883 4.38 8.3 8.3 0 0 1-9.8.056 5.165 5.165 0 0 1-1.4-1.812 1.681 1.681 0 0 1 1.538-2.371 1.733 1.733 0 0 1 1.592 1.151 2.848 2.848 0 0 0 .708 1.039 3.428 3.428 0 0 0 2.436.845 3.542 3.542 0 0 0 2.5-.842 3.16 3.16 0 0 0 .912-2.443 3.2 3.2 0 0 0-.955-2.485 4.085 4.085 0 0 0-2.832-.873h-.664a1.347 1.347 0 0 1-1.347-1.347z" class="cls-2"/>
        <path id="패스_10357" d="M1409.319 1576.7a1.74 1.74 0 0 1-1.739-1.739v-15.074l-3.28 1.119a1.4 1.4 0 0 1-1.851-1.324 1.4 1.4 0 0 1 .916-1.314l5.677-2.083a1.5 1.5 0 0 1 2.017 1.408v17.268a1.74 1.74 0 0 1-1.74 1.739z" class="cls-2"/>
        <path id="패스_10369" d="M1428.483 1576.7h-10.838a1.711 1.711 0 0 1-1.711-1.711 1.713 1.713 0 0 1 .45-1.156l6.451-7.036a17.2 17.2 0 0 0 2.127-2.781 4.51 4.51 0 0 0 .633-2.241 3.4 3.4 0 0 0-.832-2.39 2.888 2.888 0 0 0-2.241-.911 3.333 3.333 0 0 0-2.6 1.024 3.461 3.461 0 0 0-.784 1.529 1.684 1.684 0 0 1-1.641 1.274 1.684 1.684 0 0 1-1.652-2.12 6.444 6.444 0 0 1 .556-1.287 5.932 5.932 0 0 1 2.461-2.355 7.842 7.842 0 0 1 3.692-.839 7.008 7.008 0 0 1 4.759 1.515 5.26 5.26 0 0 1 1.743 4.19 7.1 7.1 0 0 1-.875 3.251 18.5 18.5 0 0 1-2.867 3.863l-5.065 5.421h8.238a1.38 1.38 0 0 1 1.38 1.38 1.38 1.38 0 0 1-1.384 1.38z" class="cls-2"/>
    </g>
</svg>
