<svg xmlns="http://www.w3.org/2000/svg" width="40" height="40" viewBox="0 0 40 40"><rect width="40" height="40" fill="#fff" opacity="0"/><g transform="translate(-1464.336 -1481.525)"><line x2="18" transform="translate(1475.336 1494.525)" fill="none" stroke="#3c5a7d" stroke-linecap="round" stroke-miterlimit="10" stroke-width="2"/><path d="M0,0H14a0,0,0,0,1,0,0V15a2,2,0,0,1-2,2H2a2,2,0,0,1-2-2V0A0,0,0,0,1,0,0Z" transform="translate(1477.335 1494.524)" fill="none" stroke="#3c5a7d" stroke-linecap="round" stroke-miterlimit="10" stroke-width="2"/><line y1="5" transform="translate(1482.335 1500.524)" fill="none" stroke="#3c5a7d" stroke-linecap="round" stroke-miterlimit="10" stroke-width="2"/><line y2="5" transform="translate(1486.335 1500.524)" fill="none" stroke="#3c5a7d" stroke-linecap="round" stroke-miterlimit="10" stroke-width="2"/><path d="M1,0H5A1,1,0,0,1,6,1V3A0,0,0,0,1,6,3H0A0,0,0,0,1,0,3V1A1,1,0,0,1,1,0Z" transform="translate(1481.335 1491.525)" fill="none" stroke="#3c5a7d" stroke-linecap="round" stroke-miterlimit="10" stroke-width="2"/></g></svg>