<svg xmlns="http://www.w3.org/2000/svg" width="40" height="40" viewBox="0 0 40 40"><rect width="40" height="40" fill="#fff" opacity="0"/><g transform="translate(-823.252 -2348.523)"><rect width="40" height="40" transform="translate(823.252 2348.523)" fill="none"/><path d="M767.963,2785.432l-.045.138c-.017.052-1.71,5.245-2.7,7.551-1.219,2.849-2.25,3.883-3.819,3.777a1.2,1.2,0,0,1-1-.466,1.965,1.965,0,0,1-.041-1.484c.335-.913.688-1.85,1.038-2.781.479-1.272.974-2.588,1.4-3.782a2.317,2.317,0,0,0-.556-2.629,2.229,2.229,0,0,0-2.556.337,22.039,22.039,0,0,0-2.618,2.827l-.1.124.737.939.159-.183a33.253,33.253,0,0,1,2.531-2.675.348.348,0,0,1,.329-.03c.121.072.19.278.19.563,0,.738-1.806,4.723-2.486,6.223a3.756,3.756,0,0,0-.322,3.146,2.034,2.034,0,0,0,1.491,1.047,5.068,5.068,0,0,0,4.445-1.054,14.344,14.344,0,0,1-1.457,3.067,3.046,3.046,0,0,1-2.728,1.824c-.992,0-1.425-.18-1.607-.368a1.4,1.4,0,0,0,.412-1,1.339,1.339,0,0,0-1.306-1.269,1.294,1.294,0,0,0-1.324,1.35,1.964,1.964,0,0,0,1.035,1.8,5.2,5.2,0,0,0,2.577.531h.005a5.334,5.334,0,0,0,3.909-1.607,10.049,10.049,0,0,0,2.292-3.639c1.391-3.6,4.537-11.928,4.569-12.012l.1-.27Z" transform="translate(80.214 -423.797)" fill="#323c46"/></g></svg>