<svg xmlns="http://www.w3.org/2000/svg" width="16" height="16" viewBox="0 0 16 16">
    <defs>
        <clipPath id="v3cr2908ya">
            <path data-name="패스 9624" d="M.8-11.161 5-12l4.2.839a1 1 0 0 1 .8.981v5.488A3.977 3.977 0 0 1 7.5-1a6.731 6.731 0 0 1-5 0A3.977 3.977 0 0 1 0-4.693v-5.487a1 1 0 0 1 .8-.981z" style="clip-rule:evenodd;fill:#fab348"/>
        </clipPath>
        <clipPath id="2xxvhtvnub">
            <path data-name="패스 9623" d="M-3 2h16v-16H-3z" style="fill:#fab348"/>
        </clipPath>
        <clipPath id="1jspb9etic">
            <path data-name="패스 9625" d="M-3 2h16v-16H-3z" style="fill:none"/>
        </clipPath>
    </defs>
    <g data-name="그룹 8960" transform="translate(3 14)" style="clip-path:url(#v3cr2908ya)">
        <g data-name="그룹 8959" style="clip-path:url(#2xxvhtvnub)">
            <path data-name="패스 9622" d="M-1-13h12V.642H-1z" style="fill:#fab348"/>
        </g>
    </g>
    <g data-name="그룹 8962" transform="translate(3 14)" style="clip-path:url(#1jspb9etic)">
        <g data-name="그룹 8961">
            <text data-name="1" transform="translate(3 -4)" style="fill:#fff;font-size:7px;font-family:NotoSans-Bold,Noto Sans;font-weight:700"><tspan x="0" y="0">1</tspan></text>
        </g>
    </g>
</svg>
