<?xml-stylesheet type="text/css" href="../../css/svg.css"?>
<svg class="next_arrow_icon active" xmlns="http://www.w3.org/2000/svg" xmlns:xlink="http://www.w3.org/1999/xlink" x="0px" y="0px" viewBox="0 0 24 24" style="enable-background:new 0 0 24 24;" xml:space="preserve">

<path class="st0" style="fill:none; stroke:none" d="M0,0h24v24H0V0z"/>
<path class="st1" d="M19.9,12.4c0-0.1,0-0.1,0-0.2c0-0.1,0-0.1,0-0.2c0,0,0-0.1,0-0.1c0-0.1,0-0.2-0.1-0.3c-0.1-0.1-0.1-0.2-0.2-0.3 c0,0,0,0,0,0l-4-4c-0.4-0.4-1-0.4-1.4,0s-0.4,1,0,1.4l2.3,2.3H5c-0.6,0-1,0.4-1,1s0.4,1,1,1h11.6l-2.3,2.3c-0.4,0.4-0.4,1,0,1.4 c0.2,0.2,0.5,0.3,0.7,0.3s0.5-0.1,0.7-0.3l4-4C19.8,12.6,19.9,12.5,19.9,12.4z"/>
</svg>
