<?xml-stylesheet type="text/css" href="../../css/svg.css"?>

<svg class="worksheet_icon_16" xmlns="http://www.w3.org/2000/svg" xmlns:xlink="http://www.w3.org/1999/xlink" x="0px"
	 y="0px" viewBox="0 0 16 16" style="enable-background:new 0 0 16 16;" xml:space="preserve">
<g>
	<path class="st1" d="M5.7,7.9c-0.4,0.4-0.4,1,0,1.4l1.4,1.4C7.3,10.9,7.6,11,7.9,11c0,0,0,0,0.1,0c0,0,0,0,0.1,0c0,0,0.1,0,0.1,0
		c0.3,0,0.5-0.1,0.7-0.3l1.4-1.4c0.4-0.4,0.4-1,0-1.4c0,0,0,0,0,0C9.9,7.5,9.4,7.5,9,7.8V6c0-0.6-0.4-1-1-1S7,5.4,7,6v1.8
		C6.6,7.5,6.1,7.5,5.7,7.9z"/>
	<path class="st1" d="M13,2H5.9C5.7,2,5.5,2,5.3,2.2L2.3,4.7C2.1,4.9,2,5.2,2,5.5V13c0,0.6,0.4,1,1,1h10c0.6,0,1-0.4,1-1V3
		C14,2.4,13.6,2,13,2z M12,12H4V6l2.3-2H12V12z"/>
</g>
</svg>
