<?xml-stylesheet type="text/css" href="../../css/svg.css"?>

<svg class="frequently_icon" xmlns="http://www.w3.org/2000/svg" xmlns:xlink="http://www.w3.org/1999/xlink" x="0px"
	 y="0px" viewBox="0 0 24 24" style="enable-background:new 0 0 24 24;" xml:space="preserve">
<g>
	<path class="st1" d="M10.5,5.3c-5.5,0-10,3.6-10,8c0,1.3,0.4,2.6,1.1,3.7l-0.4,1.5c-0.1,0.2-0.1,0.5,0,0.8C1.4,19.7,1.6,20,2,20.2
		c0.3,0.2,0.7,0.3,1.1,0.2l1.7-0.4c1.7,0.9,3.6,1.4,5.6,1.4c0,0,0.1,0,0.1,0c5.5,0,10-3.6,10-8S16,5.3,10.5,5.3z M10.5,20.3
		c-1.9,0-3.7-0.5-5.4-1.4l-0.2-0.1l-2.1,0.6c-0.1,0-0.3,0-0.4,0c-0.1-0.1-0.2-0.2-0.2-0.3c0-0.1,0-0.2,0-0.3l0.5-1.9l-0.1-0.2
		c-0.7-1-1.1-2.1-1.1-3.3c0-3.9,4-7,9-7c5,0,9,3.1,9,7C19.5,17.2,15.5,20.3,10.5,20.3z"/>
	<path class="st1" d="M7.8,9.2C7.7,9.2,7.7,9.2,7.8,9.2c-1.6,0-2.9,1.2-2.9,2.8c0,0.4,0.3,0.8,0.8,0.8c0.5,0,0.8-0.3,0.8-0.8
		c0-0.7,0.6-1.2,1.3-1.2c0,0,0,0,0,0c0.5,0,1,0.3,1.1,0.8c0.2,0.5-0.6,1.4-1,1.7c-0.4,0.3-0.4,0.8-0.2,1.1c0.2,0.2,0.4,0.3,0.6,0.3
		c0.2,0,0.3-0.1,0.5-0.2C9,14.3,11,12.8,10.4,11C10,9.9,8.9,9.2,7.8,9.2z"/>
	<path class="st1" d="M10.3,16.3c0-0.1-0.1-0.2-0.1-0.2c-0.1-0.1-0.2-0.3-0.4-0.3c-0.2-0.1-0.4-0.1-0.6-0.1c0,0-0.1,0-0.1,0
		c0,0,0,0,0,0h0c0,0,0,0,0,0c-0.4,0.2-0.7,0.6-0.6,1c0,0.1,0,0.2,0,0.2c0,0.1,0.1,0.2,0.2,0.3c0,0,0.1,0,0.1,0.1
		c0.1,0.1,0.1,0.1,0.2,0.1c0,0,0.1,0,0.1,0.1c0.1,0,0.2,0.1,0.2,0.1c0,0,0.1,0,0.1,0c0,0,0,0,0,0c0.1,0,0.2,0,0.3-0.1c0,0,0,0,0,0
		C10.2,17.4,10.5,16.9,10.3,16.3C10.3,16.4,10.3,16.3,10.3,16.3z"/>
	<path class="st1" d="M14.8,12c-0.9-0.6-2.1-0.3-2.7,0.6c-0.2,0.3-0.1,0.7,0.2,0.9c0.3,0.2,0.7,0.1,0.9-0.2c0.2-0.3,0.6-0.4,1-0.2
		c0.2,0.1,0.4,0.4,0.3,0.7c0,0.2-0.6,0.4-1,0.5c-0.3,0-0.6,0.4-0.6,0.7c0,0.3,0.3,0.6,0.6,0.6h0.1c0.2,0,1.9-0.2,2.2-1.5
		C15.9,13.3,15.5,12.4,14.8,12z"/>
	<path class="st1" d="M13.7,16.5C13.7,16.5,13.7,16.5,13.7,16.5C13.7,16.5,13.7,16.5,13.7,16.5c0-0.1,0-0.1-0.1-0.1
		c0,0-0.1-0.1-0.1-0.1c0,0-0.1-0.1-0.2-0.1c0,0,0,0,0,0c0,0-0.1,0-0.1,0c-0.1,0-0.1,0-0.2,0c-0.2,0-0.3,0.1-0.4,0.3
		c0,0.1-0.1,0.1-0.1,0.2c0,0.1,0,0.1,0,0.2s0,0.1,0,0.2c0,0.1,0,0.1,0.1,0.1c0,0,0,0,0,0c0,0,0.1,0.1,0.1,0.1c0,0,0.1,0,0.1,0.1
		c0.1,0,0.1,0.1,0.2,0.1c0,0,0,0,0,0c0,0,0.1,0,0.1,0c0.1,0,0.1,0,0.2,0c0,0,0.1,0,0.1-0.1c0,0,0,0,0,0c0,0,0.1-0.1,0.1-0.1
		c0,0,0.1-0.1,0.1-0.1c0.1-0.1,0.1-0.1,0.1-0.2c0-0.1,0-0.2,0-0.3C13.7,16.6,13.7,16.6,13.7,16.5z M13.5,16.9c0,0.1-0.1,0.2-0.2,0.2
		c-0.1,0-0.2,0.1-0.3,0c-0.1,0-0.2-0.1-0.2-0.2c-0.1-0.1-0.1-0.2-0.1-0.3c0-0.1,0.1-0.2,0.2-0.2c0.1,0,0.1-0.1,0.2-0.1
		c0,0,0,0,0.1,0c0.1,0,0.2,0.1,0.2,0.1C13.5,16.7,13.5,16.8,13.5,16.9z"/>
	<path class="st1" d="M16.7,6c0.4,0,0.7-0.3,0.7-0.7V3.7c0-0.4-0.3-0.7-0.7-0.7s-0.7,0.3-0.7,0.7v1.7C16.1,5.7,16.4,6,16.7,6z"/>
	<path class="st1" d="M18.4,7.1c0.3,0.2,0.7,0.1,0.9-0.2l1.3-2.2c0,0,0,0,0,0c0.1-0.3,0-0.6-0.3-0.8c-0.3-0.2-0.7-0.1-0.9,0.2
		l-1.3,2.2c0,0,0,0,0,0C18,6.6,18.2,7,18.4,7.1z"/>
	<path class="st1" d="M22.9,6.6c-0.2-0.3-0.6-0.4-0.9-0.2l-1.5,0.8c-0.3,0.2-0.4,0.6-0.2,0.9c0.2,0.3,0.6,0.4,0.9,0.2l1.5-0.9
		C23,7.3,23.1,6.9,22.9,6.6z"/>
</g>
</svg>
