<svg xmlns="http://www.w3.org/2000/svg" width="16" height="16" viewBox="0 0 16 16">
    <g data-name="그룹 13819">
        <path data-name="제외 3" d="M8 8H2a2 2 0 0 1-2-2V2.5a2 2 0 0 1 2-2h6a2 2 0 0 1 2 2V6a2 2 0 0 1-2 2zM5.053 2.3A1.251 1.251 0 0 0 3.8 3.544v.014a1.235 1.235 0 0 0 .663 1.093l-.348 1.4h1.87l-.348-1.4a1.241 1.241 0 0 0 .663-1.1v-.007A1.247 1.247 0 0 0 5.053 2.3z" transform="translate(3.001 5)" style="fill:#999"/>
        <path data-name="패스 259" d="M1.438 0H2.4a1.475 1.475 0 0 1 1.435 1.509v1.022H0V1.509A1.475 1.475 0 0 1 1.438 0z" transform="translate(6.191 3.748)" style="fill:transparent;stroke:#999;stroke-linecap:round;stroke-linejoin:round;stroke-width:1.5px"/>
    </g>
</svg>
