<?xml-stylesheet type="text/css" href="../../css/svg.css"?>

<svg class="main_worksheet_24" xmlns="http://www.w3.org/2000/svg" xmlns:xlink="http://www.w3.org/1999/xlink" x="0px"
	 y="0px" viewBox="0 0 24 24" style="enable-background:new 0 0 24 24;" xml:space="preserve">
<g>
	<path class="st0" d="M19,19.9H5c-0.6,0-1-0.4-1-1V8.6C4,8.3,4.1,8,4.4,7.8l4.1-3.5c0.2-0.2,0.4-0.2,0.6-0.2H19c0.6,0,1,0.4,1,1
		v13.9C20,19.5,19.6,19.9,19,19.9z M6,17.9h12V6.1H9.5L6,9V17.9z"/>
</g>
<path class="st0" d="M15,12.2C15,12.2,15,12.2,15,12.2c-0.4-0.4-1-0.4-1.4,0L13,12.8V9c0-0.6-0.4-1-1-1s-1,0.4-1,1v3.8l-0.6-0.6
	c0,0,0,0,0,0c-0.4-0.4-1-0.4-1.4,0c0,0,0,0,0,0c-0.4,0.4-0.4,1,0,1.4l2.1,2.1c0.2,0.2,0.5,0.3,0.8,0.3c0,0,0,0,0.1,0c0,0,0,0,0.1,0
	c0,0,0.1,0,0.1,0c0.3,0,0.5-0.1,0.7-0.3l2.1-2.1c0,0,0,0,0,0C15.4,13.2,15.4,12.6,15,12.2z"/>
</svg>
