<?xml-stylesheet type="text/css" href="../../css/svg.css"?>

<svg class="main_video_icon_24" xmlns="http://www.w3.org/2000/svg" xmlns:xlink="http://www.w3.org/1999/xlink" x="0px"
	 y="0px" viewBox="0 0 24 24" style="enable-background:new 0 0 24 24;" xml:space="preserve">
<path class="st0" d="M12,4C7.7,4,4.1,7.6,4.1,12c0,4.4,3.6,7.9,7.9,7.9c4.4,0,7.9-3.6,7.9-7.9C20,7.6,16.4,4,12,4C12,4,12,4,12,4z
	 M14.4,12.6l-3,2.1c-0.4,0.3-1,0.2-1.3-0.3c-0.1-0.2-0.2-0.4-0.2-0.7v-3.6C9.9,9.5,10.3,9,10.8,9c0.2,0,0.5,0,0.7,0.2l3,2.1
	C15.3,11.6,15.3,12.2,14.4,12.6L14.4,12.6z"/>
</svg>
