<?xml-stylesheet type="text/css" href="../../css/svg.css"?>
<svg class="calender_icon_24" xmlns="http://www.w3.org/2000/svg" width="24" height="24" viewBox="0 0 24 24">
    <g data-name="그룹 9297">
        <path class="st0" d="M20730.5 15244a1.5 1.5 0 0 1 0-3h1.5v-.5a1.5 1.5 0 0 1 3 0v.5h4v-.5a1.5 1.5 0 0 1 3 0v.5h1.5a1.5 1.5 0 0 1 0 3z" transform="translate(-20725 -15235)" />
        <path class="st0" d="M19824 15449h-12a2 2 0 0 1-2-2v-6a2 2 0 0 1 2-2h12a2 2 0 0 1 2 2v6a2 2 0 0 1-2 2zm-2.5-4a1 1 0 1 0 0 2h1a1 1 0 1 0 0-2zm-4 0a1 1 0 1 0 0 2h1a1 1 0 1 0 0-2zm-4 0a1 1 0 1 0 0 2h1a1 1 0 1 0 0-2zm8-4a1 1 0 0 0 0 2h1a1 1 0 0 0 0-2zm-4 0a1 1 0 0 0 0 2h1a1 1 0 0 0 0-2zm-4 0a1 1 0 0 0 0 2h1a1 1 0 0 0 0-2z" transform="translate(-19806 -15429)"/>
    </g>
    <path data-name="사각형 1170" style="fill:none" d="M0 0h24v24H0z"/>
</svg>
