<svg xmlns="http://www.w3.org/2000/svg" width="24" height="24" viewBox="0 0 24 24">
    <g data-name="그룹 32992">
        <path data-name="패스 17180" d="M151.382 329.594a2.545 2.545 0 1 1-2.546-2.545 2.545 2.545 0 0 1 2.546 2.545z" transform="translate(-136.837 -311.139)" style="fill:#ffb83b"/>
        <path data-name="패스 17181" d="M140.072 289.569a17.582 17.582 0 0 1-.236-3.882c.12-3.763-2.525-7.581-6.52-7.641-4 .059-6.639 3.877-6.521 7.641a17.7 17.7 0 0 1-.234 3.882 2.025 2.025 0 0 0 .688 3.932h12.131a2.026 2.026 0 0 0 .692-3.932z" transform="translate(-121.316 -275.045)" style="fill:#ffd039"/>
        <g data-name="그룹 32993">
            <path data-name="패스 17183" d="M136.555 289.7h-.025a.949.949 0 0 1-.924-.972c.136-5.362 3.773-6.132 3.928-6.162a.948.948 0 0 1 .375 1.859c-.12.028-2.311.593-2.407 4.351a.949.949 0 0 1-.947.924z" transform="translate(-128.967 -278.362)" style="fill:#ffde82"/>
        </g>
    </g>
</svg>
