<?xml-stylesheet type="text/css" href="../../css/svg.css"?>

<svg class="incorrect_icon" xmlns="http://www.w3.org/2000/svg" xmlns:xlink="http://www.w3.org/1999/xlink" x="0px"
	 y="0px" viewBox="0 0 24 24" style="enable-background:new 0 0 24 24;" xml:space="preserve">
<style type="text/css">
	.st0{fill:none}
</style>
<path class="st0" d="M0,0h24v24H0V0z"/>
<g>
	<path class="st1" d="M20.5,6.8c0.1-0.2,0.2-0.5,0.3-0.7c0-0.2,0-0.5,0-0.7c0-1.6-2-3.4-2-3.4h0c0,0-0.8,0.7-1.4,1.7
		C15.9,2.6,14,2,12,2C6.5,2,2,6.5,2,12c0,5.5,4.5,10,10,10c5.5,0,10-4.5,10-10C22,10.1,21.5,8.3,20.5,6.8z M12,21c-5,0-9-4-9-9
		c0-5,4-9,9-9c1.9,0,3.6,0.6,5.1,1.6c-0.1,0.3-0.2,0.6-0.2,0.8c-0.2,1.1,0.5,2.1,1.6,2.3c0.4,0.1,0.9,0,1.2-0.2
		C20.6,8.8,21,10.4,21,12C21,17,17,21,12,21z"/>
	<path class="st1" d="M14.6,12.6H9.6c-0.2,0-0.4,0.2-0.4,0.4v0v0.8c0.1,1.6,1.5,2.7,3.1,2.6c1.4-0.1,2.5-1.2,2.6-2.6v-0.8
		C14.9,12.7,14.8,12.6,14.6,12.6z"/>
	<path class="st1" d="M10,11.2c0.3-0.2,0.5-0.7,0.2-1C9.9,9.6,9.3,9.3,8.7,9.3l-0.1,0l-0.1,0C8,9.3,7.4,9.6,7.1,10.2
		c-0.2,0.3-0.1,0.8,0.2,1c0.3,0.2,0.8,0.1,1-0.2c0.1-0.1,0.2-0.2,0.3-0.2c0.1,0,0.3,0.1,0.3,0.2c0.1,0.2,0.4,0.3,0.6,0.3
		C9.7,11.3,9.9,11.3,10,11.2z"/>
	<path class="st1" d="M15.6,9.3L15.6,9.3l-0.1,0c-0.6,0.1-1.2,0.4-1.5,0.9c-0.2,0.3-0.1,0.8,0.2,1c0.3,0.2,0.8,0.1,1-0.2
		c0.1-0.1,0.2-0.2,0.3-0.2c0.1,0,0.3,0.1,0.3,0.2c0.1,0.2,0.4,0.3,0.6,0.3c0.1,0,0.3,0,0.4-0.1c0.3-0.2,0.4-0.7,0.2-1
		C16.8,9.6,16.2,9.3,15.6,9.3z"/>
	<path class="st1" d="M8.6,7.8C8.7,7.8,8.7,7.8,8.6,7.8c1,0,1.6-1,1.6-1.1c0.2-0.4,0-0.8-0.3-1c-0.4-0.2-0.8,0-1,0.3
		C8.8,6.1,8.7,6.2,8.6,6.3C8.2,6.3,7.9,6.6,7.9,7C7.9,7.4,8.2,7.8,8.6,7.8z"/>
	<path class="st1" d="M15.6,7.8C15.6,7.8,15.6,7.8,15.6,7.8c0.4,0,0.8-0.3,0.8-0.7c0-0.4-0.3-0.8-0.7-0.8c-0.1,0-0.2-0.2-0.3-0.3
		c-0.2-0.4-0.6-0.5-1-0.3c-0.4,0.2-0.5,0.6-0.3,1C14,6.7,14.6,7.7,15.6,7.8z"/>
</g>
</svg>
