<svg xmlns="http://www.w3.org/2000/svg" width="275" height="43" viewBox="0 0 275 43">
    <defs>
        <linearGradient id="j7zzucczcb" y1=".5" x2="1" y2=".5" gradientUnits="objectBoundingBox">
            <stop offset="0" stop-color="#00d7ff"/>
            <stop offset=".626" stop-color="#00cdff"/>
        </linearGradient>
        <linearGradient id="gn0zslt29c" y1=".5" x2="1" y2=".5" gradientUnits="objectBoundingBox">
            <stop offset="0" stop-color="#00cdff"/>
            <stop offset="1" stop-color="#00beff"/>
        </linearGradient>
        <clipPath id="3x94oc6bza">
            <path data-name="사각형 11220" transform="translate(95 151.083)" style="fill:none" d="M0 0h275v43H0z"/>
        </clipPath>
    </defs>
    <g data-name="마스크 그룹 28535" style="clip-path:url(#3x94oc6bza)" transform="translate(-95 -151.083)">
        <g data-name="그룹 33536">
            <g data-name="그룹 33537">
                <path data-name="패스 17265" d="M195.031 299.517c-1.6-.747-5.249-3.178-4.533-9.581a43.737 43.737 0 0 1 1.76-7.321 49.291 49.291 0 0 0 1.4-5.379l-6.754-4.495c2.733-4.107 8.337-7.214 13.335-4.883 1.686.786 5.535 3.338 4.89 10.043a43.666 43.666 0 0 1-1.876 8.011 29.953 29.953 0 0 0-1.372 5.711 3.468 3.468 0 0 0-2-2.51z" transform="translate(-86.999 -110.458)" style="fill:#00d7ff"/>
                <path data-name="패스 17266" d="M209.781 300.294a8.491 8.491 0 0 1-3.582-.811l4.854-10.4a2.869 2.869 0 0 0-2.452-.017c1.377-.872 4.193-5.709 5.876-8.6a68.549 68.549 0 0 1 5.665-8.733c4.881-5.916 9.427-5.018 11.7-3.956 1.708.8 5.6 3.388 4.8 10.232a45.716 45.716 0 0 1-2.056 8.148c-.585 1.849-1.566 4.943-1.522 5.934a3.526 3.526 0 0 0-2.04-2.6l-4.854 10.4c-1.564-.729-5.038-3.044-4.53-9.041a41.763 41.763 0 0 1-3.263 4.6c-3.168 3.78-6.193 4.844-8.596 4.844z" transform="translate(-98.167 -110.424)" style="fill:url(#j7zzucczcb)"/>
                <path data-name="패스 17267" d="M252.629 300.778a8.432 8.432 0 0 1-3.561-.8 5.741 5.741 0 0 1 2.99-10.915c1.537-1.556 4-5.716 5.549-8.326a71.127 71.127 0 0 1 5.813-8.833c4.943-5.939 9.487-5.049 11.756-3.991 1.708.8 5.6 3.388 4.8 10.225a44.977 44.977 0 0 1-2.027 8.041 5.741 5.741 0 0 1 4.9 8.919c-2.733 4.107-8.337 7.214-13.337 4.883-1.586-.74-5.133-3.106-4.509-9.277a45.8 45.8 0 0 1-3.689 5.2c-3.227 3.804-6.275 4.874-8.685 4.874z" transform="translate(-121.061 -110.506)" style="fill:url(#gn0zslt29c)"/>
                <g data-name="그룹 33536" transform="translate(96.509 157.17)">
                    <circle data-name="타원 1990" cx="8.175" cy="8.175" r="8.175" style="fill:#00ebff"/>
                </g>
            </g>
            <g transform="translate(173.738 151.522)">
                <g data-name="그룹 33538">
                    <path data-name="패스 17268" d="M762.283 309.957a13.479 13.479 0 1 1 13.479-13.479 13.494 13.494 0 0 1-13.479 13.479zm0-19.376a5.9 5.9 0 1 0 5.9 5.9 5.9 5.9 0 0 0-5.9-5.899z" transform="translate(-585.961 -271.206)" style="fill:#00cdff"/>
                </g>
                <g data-name="그룹 33539">
                    <path data-name="패스 17269" d="m796.754 265-5.942 33.7h7.7l5.942-33.7z" transform="translate(-610.275 -260.788)" style="fill:#00cdff"/>
                </g>
                <path data-name="패스 17270" d="M383.645 268.949 368.878 255l-6.684 37.909h7.7l4.009-22.734 8.137 7.686 10.54-4.458-3.44 19.506h7.7l5.628-31.921z" transform="translate(-362.194 -255)" style="fill:#00cdff"/>
                <g data-name="그룹 33541">
                    <g data-name="그룹 33540">
                        <path data-name="패스 17271" d="M471.479 307.957a13.479 13.479 0 1 1 13.479-13.479 13.494 13.494 0 0 1-13.479 13.479zm0-19.375a5.9 5.9 0 1 0 5.9 5.9 5.9 5.9 0 0 0-5.9-5.9z" transform="translate(-417.646 -270.049)" style="fill:#00cdff"/>
                    </g>
                </g>
                <g data-name="그룹 33542">
                    <path data-name="패스 17272" d="m504.065 285-4.456 25.272h7.7L511.764 285z" transform="translate(-441.729 -272.364)" style="fill:#00cdff"/>
                </g>
                <circle data-name="타원 1991" cx="4.627" cy="4.627" r="4.627" transform="translate(154.296 .427)" style="fill:#00cdff"/>
                <g data-name="그룹 33543">
                    <path data-name="패스 17273" d="m721.062 285-4.456 25.272h7.7L728.76 285z" transform="translate(-567.324 -272.364)" style="fill:#00cdff"/>
                </g>
                <g data-name="그룹 33544">
                    <path data-name="패스 17274" d="m540.789 275-5.2 29.484h7.7l5.2-29.484z" transform="translate(-462.555 -266.576)" style="fill:#00cdff"/>
                </g>
                <g data-name="그룹 33545">
                    <path data-name="패스 17275" d="m534.969 289-1.188 6.739h16.848l1.189-6.739z" transform="translate(-461.507 -274.679)" style="fill:#00cdff"/>
                </g>
                <g data-name="그룹 33546">
                    <path data-name="패스 17276" d="M575.589 298.7h7.7l5.941-33.7h-7.7z" transform="translate(-485.705 -260.788)" style="fill:#00cdff"/>
                    <path data-name="패스 17277" d="M614.589 324.241h7.7l2.664-15.107-8.112 2.343z" transform="translate(-508.278 -286.332)" style="fill:#00cdff"/>
                </g>
                <path data-name="패스 17278" d="M617.04 294.008c1.19-6.746-2.282-11.008-10-11.008a18.687 18.687 0 0 0-4.633.842l-1.486 8.424a4.228 4.228 0 0 1 4.633-3.37c3.386.323 4.095 3.37 3.375 7.454z" transform="translate(-500.367 -271.206)" style="fill:#00cdff"/>
                <g data-name="그룹 33547">
                    <path data-name="패스 17279" d="M662.865 309.957a13.479 13.479 0 1 1 13.479-13.479 13.494 13.494 0 0 1-13.479 13.479zm0-19.376a5.9 5.9 0 1 0 5.9 5.9 5.9 5.9 0 0 0-5.9-5.899z" transform="translate(-528.419 -271.206)" style="fill:#00cdff"/>
                </g>
                <g data-name="그룹 33548">
                    <path data-name="패스 17280" d="m646.029 285-5.2 29.484h7.7l5.2-29.484z" transform="translate(-523.466 -272.364)" style="fill:#00cdff"/>
                </g>
            </g>
        </g>
    </g>
</svg>
