<svg xmlns="http://www.w3.org/2000/svg" width="150" height="26" viewBox="0 0 150 26">
    <defs>
        <linearGradient id="iasnlovmub" y1=".5" x2="1" y2=".5" gradientUnits="objectBoundingBox">
            <stop offset="0" stop-color="#00d7ff"/>
            <stop offset=".626" stop-color="#00cdff"/>
        </linearGradient>
        <linearGradient id="v082f2o0dc" y1=".5" x2="1" y2=".5" gradientUnits="objectBoundingBox">
            <stop offset="0" stop-color="#00cdff"/>
            <stop offset="1" stop-color="#00beff"/>
        </linearGradient>
        <clipPath id="d1cso083ga">
            <path data-name="사각형 10087" transform="translate(-1 -1)" style="fill:none" d="M0 0h150v26H0z"/>
        </clipPath>
    </defs>
    <g data-name="마스크 그룹 28482" transform="translate(1 .999)" style="clip-path:url(#d1cso083ga)">
        <g data-name="그룹 33521">
            <g data-name="그룹 33510">
                <path data-name="패스 17228" d="M200.719 285.75c-.922-.43-3.023-1.83-2.611-5.517a25.188 25.188 0 0 1 1.013-4.216 28.386 28.386 0 0 0 .807-3.1l-3.889-2.588c1.574-2.365 4.8-4.154 7.679-2.812.971.453 3.188 1.922 2.816 5.784a25.126 25.126 0 0 1-1.08 4.613 17.247 17.247 0 0 0-.79 3.289 2 2 0 0 0-1.149-1.446z" transform="translate(-193.085 -263.291)" style="fill:#00d7ff"/>
                <path data-name="패스 17229" d="M217.4 286.173a4.89 4.89 0 0 1-2.063-.467l2.8-5.991a1.652 1.652 0 0 0-1.412-.01c.793-.5 2.415-3.288 3.384-4.952a39.476 39.476 0 0 1 3.262-5.029c2.811-3.407 5.429-2.89 6.739-2.278.983.458 3.222 1.951 2.764 5.892a26.347 26.347 0 0 1-1.184 4.692 17.958 17.958 0 0 0-.877 3.417 2.03 2.03 0 0 0-1.175-1.5l-2.795 5.991c-.9-.42-2.9-1.753-2.609-5.206a24.051 24.051 0 0 1-1.879 2.649c-1.832 2.179-3.575 2.792-4.955 2.792z" transform="translate(-207.699 -263.247)" style="fill:url(#iasnlovmub)"/>
                <path data-name="패스 17230" d="M258.848 286.511a4.854 4.854 0 0 1-2.051-.463 3.306 3.306 0 0 1 1.721-6.286 33.264 33.264 0 0 0 3.2-4.795 40.985 40.985 0 0 1 3.348-5.087c2.846-3.42 5.463-2.908 6.77-2.3.983.458 3.223 1.951 2.764 5.888a25.88 25.88 0 0 1-1.167 4.63 3.306 3.306 0 0 1 2.819 5.136c-1.574 2.365-4.8 4.155-7.68 2.812-.914-.426-2.956-1.789-2.6-5.343a26.4 26.4 0 0 1-2.125 3c-1.856 2.197-3.611 2.808-4.999 2.808z" transform="translate(-237.66 -263.354)" style="fill:url(#v082f2o0dc)"/>
                <g data-name="그룹 33509" transform="translate(.999 4.095)">
                    <circle data-name="타원 1987" cx="4.707" cy="4.707" r="4.707" style="fill:#00ebff"/>
                </g>
            </g>
            <g data-name="그룹 33514">
                <g data-name="그룹 33511">
                    <path data-name="패스 17231" d="m725.292 294-.769 4.366h13.056l.769-4.366z" transform="translate(-593.381 -283.698)" style="fill:#00cdff"/>
                </g>
                <g data-name="그룹 33512">
                    <path data-name="패스 17232" d="m730.292 264-.769 4.366h9.177l.769-4.366z" transform="translate(-597.169 -260.975)" style="fill:#00cdff"/>
                </g>
                <g data-name="그룹 33513">
                    <path data-name="패스 17233" d="m716.574 264-2.051 11.643h4.74L721.314 264z" transform="translate(-585.807 -260.975)" style="fill:#00cdff"/>
                </g>
            </g>
            <path data-name="패스 17234" d="m702.793 327-.77 4.366h21.545l.77-4.366z" transform="translate(-576.338 -308.694)" style="fill:#00cdff"/>
            <path data-name="패스 17235" d="m498.793 305-.77 4.366h21.788l.77-4.366z" transform="translate(-421.82 -292.03)" style="fill:#00cdff"/>
            <path data-name="패스 17236" d="m451.793 291-.77 4.366h6.992l.77-4.366z" transform="translate(-386.22 -281.426)" style="fill:#00cdff"/>
            <path data-name="패스 17237" d="m596.793 327-.77 4.366h16.209L613 327z" transform="translate(-496.05 -308.694)" style="fill:#00cdff"/>
            <path data-name="패스 17238" d="m604.793 291-.77 4.366h16.209L621 291z" transform="translate(-502.109 -281.426)" style="fill:#00cdff"/>
            <g data-name="그룹 33515">
                <path data-name="패스 17239" d="m610.506 304.024-1.2 6.792h4.415l1.2-6.792z" transform="translate(-506.113 -291.291)" style="fill:#00cdff"/>
                <path data-name="패스 17240" d="m638.791 304.024-1.2 6.792h4.414l1.2-6.792z" transform="translate(-527.538 -291.291)" style="fill:#00cdff"/>
            </g>
            <path data-name="패스 17241" d="m389.793 291-.77 4.366h6.992l.77-4.366z" transform="translate(-339.259 -281.426)" style="fill:#00cdff"/>
            <path data-name="패스 17242" d="m383.793 327-.77 4.366h6.992l.77-4.366z" transform="translate(-334.714 -308.694)" style="fill:#00cdff"/>
            <g data-name="그룹 33516">
                <path data-name="패스 17243" d="m371.331 291-2.308 13.1h4.484l2.308-13.1z" transform="translate(-324.11 -281.426)" style="fill:#00cdff"/>
            </g>
            <g data-name="그룹 33517">
                <path data-name="패스 17244" d="m409.331 291-2.308 13.1h4.484l2.308-13.1z" transform="translate(-352.893 -281.426)" style="fill:#00cdff"/>
            </g>
            <g data-name="그룹 33518">
                <path data-name="패스 17245" d="m468.487 264-3.464 19.647h4.433L472.921 264z" transform="translate(-396.825 -260.975)" style="fill:#00cdff"/>
            </g>
            <g data-name="그룹 33519">
                <path data-name="패스 17246" d="m676.487 264-3.464 19.647h4.433L680.921 264z" transform="translate(-554.373 -260.975)" style="fill:#00cdff"/>
            </g>
            <g data-name="그룹 33520">
                <path data-name="패스 17247" d="m438.487 264-3.464 19.647h4.433L442.921 264z" transform="translate(-374.101 -260.975)" style="fill:#00cdff"/>
            </g>
            <path data-name="패스 17248" d="m514.39 265.311-4.772-4.295-3.872 3.872-3.087-3.087 6.8-6.8 4.93 4.437L519.32 255l6.8 6.8-3.087 3.087-3.872-3.872z" transform="translate(-425.332 -254.158)" style="fill:#00cdff"/>
        </g>
    </g>
</svg>
