<?xml-stylesheet type="text/css" href="../../css/svg.css"?>

<svg class="precent10_icon" xmlns="http://www.w3.org/2000/svg" xmlns:xlink="http://www.w3.org/1999/xlink" x="0px"
	 y="0px" viewBox="0 0 24 24" style="enable-background:new 0 0 24 24;" xml:space="preserve">
<style type="text/css">
	.st0{fill:none;}
</style>
<path class="st0" d="M0,0h24v24H0V0z"/>
<g>
	<path class="st1" d="M3.5,12.2c0.3,0,0.5-0.2,0.5-0.5L4,11c0-0.1,0-0.2,0.1-0.3l0.4-0.5c0,0,0.1-0.1,0.1-0.2
		c0.1-0.3-0.1-0.5-0.3-0.6L3.5,9.1C3.4,9.1,3.3,9,3.3,8.9L2.9,8.4C2.8,8.2,2.6,8.2,2.5,8.2v0c-0.2,0-0.3,0.1-0.4,0.2L1.6,8.9
		C1.6,9,1.5,9.1,1.4,9.1L0.7,9.3c-0.1,0-0.1,0-0.2,0.1c-0.2,0.2-0.3,0.5-0.1,0.7l0.4,0.5C0.9,10.7,1,10.9,1,11l0,0.7
		c0,0.1,0,0.1,0,0.2c0.1,0.3,0.4,0.4,0.6,0.3l0.7-0.2c0.1,0,0.2,0,0.3,0l0.7,0.2C3.4,12.2,3.4,12.2,3.5,12.2z"/>
	<path class="st1" d="M4.5,4.7c0,0.1,0.1,0.2,0,0.3L4.1,6.5c0,0.1,0,0.1,0,0.2c0,0.3,0.3,0.5,0.5,0.5l1.6-0.1c0.1,0,0.2,0,0.3,0.1
		L7.8,8c0,0,0.1,0.1,0.2,0.1C8.2,8.2,8.5,8,8.6,7.7l0.4-1.5C9,6.1,9,6,9.1,6L10.4,5c0,0,0.1-0.1,0.1-0.1c0.1-0.2,0.1-0.5-0.2-0.7
		L9,3.4C8.9,3.3,8.8,3.2,8.8,3.1L8.2,1.6C8.1,1.5,8,1.4,7.9,1.3c-0.2,0-0.3,0-0.4,0.1l-1.2,1C6.1,2.5,6,2.5,5.9,2.5l-1.6,0
		c-0.1,0-0.1,0-0.2,0C3.9,2.7,3.8,3,3.9,3.3L4.5,4.7z"/>
	<polygon class="st1" points="14.6,5 14.6,5 14.6,5 	"/>
	<path class="st1" d="M12.7,7.5l0.4,0.1c0.1,0,0.2,0.1,0.3,0.1L13.7,8c0,0,0.1,0.1,0.1,0.1c0.2,0.1,0.5,0,0.7-0.2l0.2-0.3
		c0-0.1,0.1-0.2,0.2-0.2l0.3-0.2c0.1,0,0.1-0.1,0.1-0.1c0.2-0.2,0.2-0.5,0-0.7L15.1,6C15,5.9,15,5.8,15,5.7l-0.1-0.4
		c0-0.2-0.1-0.3-0.3-0.4c-0.1-0.1-0.3-0.1-0.5,0l-0.4,0.2c-0.1,0.1-0.2,0.1-0.3,0l-0.4-0.1c-0.1,0-0.1,0-0.2,0
		c-0.3,0.1-0.5,0.3-0.4,0.6l0.1,0.4c0,0.1,0,0.2,0,0.3l-0.2,0.3c0,0.1,0,0.1-0.1,0.2C12.3,7.2,12.5,7.4,12.7,7.5z"/>
	<polygon class="st1" points="11.2,9.9 8,9.9 5,13.8 6.7,13.8 5.9,17.7 3.8,17.7 3.2,20.4 11,20.4 11.6,17.7 9.5,17.7 	"/>
	<path class="st1" d="M18.4,9.5c-3.5,0-5.4,2.1-6.1,5.5c-0.7,3.3,0.3,5.4,3.8,5.4s5.4-2.1,6.1-5.4C23,11.6,22,9.5,18.4,9.5z
		 M18.8,15c-0.5,2.3-1.2,2.8-2.1,2.8v0c-0.9,0-1.4-0.4-0.9-2.8c0.5-2.3,1.2-2.8,2.1-2.8C18.8,12.2,19.3,12.6,18.8,15z"/>
</g>
</svg>
