<?xml-stylesheet type="text/css" href="../../css/svg.css"?>
<svg class="prev_arrow_icon" xmlns="http://www.w3.org/2000/svg" xmlns:xlink="http://www.w3.org/1999/xlink" x="0px" y="0px" viewBox="0 0 24 24" style="enable-background:new 0 0 24 24;" xml:space="preserve">

<path class="st0" style="fill:none; stroke:none" d="M0,0h24v24H0V0z"/>
<path class="st1" d="M19,11H7.4l2.3-2.3c0.4-0.4,0.4-1,0-1.4s-1-0.4-1.4,0l-4,4c0,0,0,0.1-0.1,0.1c-0.1,0.1-0.1,0.1-0.2,0.2 c-0.1,0.2-0.1,0.5,0,0.8c0,0.1,0.1,0.2,0.2,0.2c0,0,0,0.1,0.1,0.1l4,4C8.5,16.9,8.7,17,9,17s0.5-0.1,0.7-0.3c0.4-0.4,0.4-1,0-1.4 L7.4,13H19c0.6,0,1-0.4,1-1S19.6,11,19,11z"/>
</svg>
