<svg xmlns="http://www.w3.org/2000/svg" width="24" height="24" viewBox="0 0 24 24">
    <path data-name="패스 11763" d="M-.222 5.339C.305 2.087 3.425 0 6.772 0a6.685 6.685 0 0 1 5.975 3.742" transform="rotate(-14 31.495 -12.498)" style="fill:none;stroke:#303030;stroke-linecap:round;stroke-linejoin:round;stroke-width:2px"/>
    <path data-name="패스 11764" d="M6.047 13.96A6.84 6.84 0 0 1 0 7a7.139 7.139 0 0 1 2.071-4.958" transform="rotate(-90 12 7)" style="fill:none;stroke:#303030;stroke-linecap:round;stroke-linejoin:round;stroke-width:2px"/>
    <path data-name="패스 11765" d="m4.13 25.709-.783.783-.783.783-.783-.783L1 25.709" transform="rotate(7 120.86 38.395)" style="fill:none;stroke:#303030;stroke-linecap:round;stroke-linejoin:round;stroke-width:2px"/>
    <path data-name="패스 11766" d="m4.13 25.709-.783.783-.783.783-.783-.783L1 25.709" transform="matrix(-.998 -.07 .07 -.998 19.671 39.09)" style="fill:none;stroke:#303030;stroke-linecap:round;stroke-linejoin:round;stroke-width:2px"/>
</svg>
