<?xml version="1.0" encoding="utf-8"?>
<!-- Generator: Adobe Illustrator 26.3.1, SVG Export Plug-In . SVG Version: 6.00 Build 0)  -->
<svg version="1.1" id="레이어_1" xmlns="http://www.w3.org/2000/svg" xmlns:xlink="http://www.w3.org/1999/xlink" x="0px"
	 y="0px" viewBox="0 0 160 90" style="enable-background:new 0 0 160 90;" xml:space="preserve">
<style type="text/css">
	.st0{fill:none;}
	.st1{fill:#FFFFFF;}
	.st2{fill:#01EAFF;}
</style>
<path class="st0" d="M0,0h160v90H0V0z"/>
<path class="st1" d="M156.5,58.4c-2.2-4.6-6.8-7.6-12-7.9c1.9-6.2,3.8-12.6,4.5-18.7c1.9-16.9-7.5-23.3-11.6-25.3
	c-5.5-2.6-16.4-4.8-28.3,9.8c-2.8,3.5-5.6,7.7-8.3,12.2c1-15.6-7.9-21.7-12-23.6C83.3,2.3,72.1,0,60.2,14.7c-2.4,2.9-4.7,6.4-6.9,10
	C52.3,12.6,44.6,7.6,41,5.8C28.7,0,14.8,7.7,8.1,17.9l16.2,10.9c-0.9,4.5-2,8.9-3.4,13.2c-1.8,6-3.6,12.2-4.3,17.9
	c-1.8,15.9,7.3,22,11.3,23.9l0-0.1c2.5,1.1,5.2,1.7,8,1.7c5.9,0,13.3-2.6,21-12c2.4-2.9,4.6-6,6.5-9.2c-0.2,11.5,5.7,16.9,9.7,19.3
	c0.8,0.6,1.6,1.2,2.6,1.6c2.7,1.3,5.7,2,8.7,2c5.8,0,13.1-2.6,20.8-12c2.7-3.3,5.1-6.8,7.4-10.5c-0.4,13.4,7.5,18.7,11.1,20.5
	c12,5.8,25.5-1.9,32-12C158.5,68.6,158.8,63.1,156.5,58.4z M25.7,29.7l4.6,3.1c-0.5-0.1-1-0.3-1.5-0.5
	C27.6,31.7,26.5,30.8,25.7,29.7z"/>
<path class="st2" d="M20,45c10.6-0.1,19.1-8.8,19-19.4C39.2,15,30.6,6.4,20,6.3C9.4,6.4,0.9,15,1,25.6C0.9,36.2,9.4,44.9,20,45z"/>
</svg>
